<!DOCTYPE svg PUBLIC "-//W3C//DTD SVG 20010904//EN" "http://www.w3.org/TR/2001/REC-SVG-20010904/DTD/svg10.dtd">
<svg version="1.0" xmlns="http://www.w3.org/2000/svg" width="512px" height="512px" viewBox="0 0 5120 5120" preserveAspectRatio="xMidYMid meet">
<g id="layer101" fill="#000000" stroke="none">
 <path d="M0 2560 l0 -2560 2560 0 2560 0 0 2560 0 2560 -2560 0 -2560 0 0 -2560z"/>
 </g>
<g id="layer102" fill="#4b4b4b" stroke="none">
 <path d="M640 4800 l0 -320 1920 0 1920 0 0 320 0 320 -1920 0 -1920 0 0 -320z"/>
 <path d="M70 4480 l0 -570 250 0 250 0 0 570 0 570 -250 0 -250 0 0 -570z"/>
 <path d="M4550 4480 l0 -570 250 0 250 0 0 570 0 570 -250 0 -250 0 0 -570z"/>
 <path d="M640 4125 l0 -215 320 0 320 0 0 -510 c0 -280 3 -510 8 -510 4 0 40 6 80 14 85 16 125 47 143 107 15 48 0 94 -51 155 -73 89 -75 189 -5 284 45 61 204 213 246 236 24 13 56 19 105 19 73 0 90 -7 176 -76 38 -31 114 -36 155 -10 47 29 64 62 74 141 10 83 26 116 73 158 47 41 89 52 226 59 267 13 368 -40 389 -204 10 -81 19 -101 62 -137 42 -36 112 -36 160 -1 97 70 122 80 190 80 55 0 72 -4 110 -29 57 -38 201 -177 247 -241 35 -47 37 -54 37 -125 0 -81 3 -75 -80 -189 -49 -67 -22 -166 55 -202 19 -9 63 -19 98 -23 l62 -6 0 505 0 505 320 0 320 0 0 215 0 215 -1920 0 -1920 0 0 -215z"/>
 <path d="M0 2560 l0 -1280 320 0 320 0 0 -320 0 -320 320 0 320 0 0 -320 0 -320 1280 0 1280 0 0 320 0 320 320 0 320 0 0 320 0 320 320 0 320 0 0 1280 0 1280 -605 0 -605 0 0 -495 c0 -483 1 -497 20 -523 34 -46 50 -127 50 -260 0 -139 -12 -202 -46 -249 l-24 -32 0 -511 0 -511 -25 -24 -24 -25 -506 0 c-493 0 -506 -1 -533 -20 -46 -34 -127 -50 -257 -50 -134 0 -219 16 -260 48 -28 22 -31 22 -537 22 l-509 0 -24 25 -25 24 0 504 c0 482 -1 505 -19 529 -33 42 -51 136 -51 268 0 137 12 200 46 247 l24 32 0 500 0 501 -605 0 -605 0 0 -1280z"/>
 <path d="M2416 3830 c-51 -10 -62 -26 -69 -104 -23 -246 -293 -351 -481 -186 -51 46 -83 41 -154 -22 -100 -91 -172 -178 -172 -208 0 -9 18 -40 41 -70 56 -74 71 -114 72 -190 2 -147 -98 -259 -248 -281 -69 -9 -100 -23 -111 -49 -11 -26 -17 -195 -9 -265 9 -85 23 -100 104 -108 162 -17 271 -130 271 -282 0 -71 -24 -136 -71 -188 -55 -63 -53 -91 13 -164 84 -94 180 -173 209 -173 16 0 46 16 75 40 59 49 119 70 198 70 146 0 252 -104 274 -269 5 -34 13 -66 19 -72 38 -38 338 -38 376 0 6 6 14 42 18 80 27 252 293 357 483 191 51 -46 83 -41 154 23 100 90 172 177 172 207 0 9 -18 40 -41 70 -56 74 -71 114 -72 190 -1 75 22 135 72 192 38 43 122 88 165 88 52 0 105 20 117 43 15 28 24 186 14 272 -9 86 -23 100 -108 108 -151 14 -254 114 -265 256 -6 87 15 154 69 214 55 63 53 91 -12 164 -89 98 -180 173 -210 173 -17 0 -45 -15 -75 -40 -185 -153 -446 -48 -471 190 -7 74 -17 89 -68 100 -47 11 -223 11 -279 0z m263 -859 c165 -51 275 -177 304 -347 30 -176 -68 -361 -237 -444 -60 -30 -81 -35 -161 -38 -101 -5 -163 10 -241 55 -60 34 -141 124 -172 190 -24 52 -27 69 -27 173 0 108 2 119 31 180 93 195 305 293 503 231z"/>
 <path d="M2445 2822 c-108 -52 -164 -139 -165 -257 0 -164 119 -285 282 -285 118 0 209 58 260 165 53 113 32 221 -62 316 -92 93 -202 114 -315 61z"/>
 <path d="M3750 2216 c-67 -15 -92 -28 -119 -61 -45 -58 -36 -123 29 -201 73 -89 75 -189 5 -284 -45 -61 -204 -213 -246 -236 -24 -13 -56 -19 -105 -19 -73 0 -90 7 -176 76 -16 13 -46 24 -75 26 -90 9 -145 -53 -157 -174 l-6 -63 470 0 470 0 0 475 c0 446 -1 475 -17 474 -10 -1 -43 -7 -73 -13z"/>
 <path d="M1280 1750 l0 -470 475 0 474 0 -5 53 c-9 80 -22 113 -60 147 -46 40 -114 42 -165 5 -97 -70 -122 -80 -190 -80 -55 0 -72 4 -110 29 -57 38 -201 177 -247 241 -35 47 -37 54 -37 125 0 81 -3 75 80 189 49 66 24 161 -52 199 -21 11 -66 22 -100 25 l-63 7 0 -470z"/>
 <path d="M70 640 l0 -570 570 0 570 0 0 250 0 250 -320 0 -320 0 0 320 0 320 -250 0 -250 0 0 -570z"/>
 <path d="M4550 890 l0 -320 -320 0 -320 0 0 -250 0 -250 570 0 570 0 0 570 0 570 -250 0 -250 0 0 -320z"/>
 </g>
<g id="layer103" fill="#8b8b8b" stroke="none">
 <path d="M640 4800 l0 -320 1920 0 1920 0 0 320 0 320 -1920 0 -1920 0 0 -320z"/>
 <path d="M70 4480 l0 -570 250 0 250 0 0 570 0 570 -250 0 -250 0 0 -570z"/>
 <path d="M4550 4480 l0 -570 250 0 250 0 0 570 0 570 -250 0 -250 0 0 -570z"/>
 <path d="M0 2560 l0 -1280 250 0 250 0 0 1280 0 1280 -250 0 -250 0 0 -1280z"/>
 <path d="M640 2560 l0 -1280 250 0 250 0 0 1280 0 1280 -250 0 -250 0 0 -1280z"/>
 <path d="M2416 3830 c-51 -10 -62 -26 -69 -104 -23 -246 -293 -351 -481 -186 -51 46 -83 41 -154 -22 -100 -91 -172 -178 -172 -208 0 -9 18 -40 41 -70 56 -74 71 -114 72 -190 2 -147 -98 -259 -248 -281 -69 -9 -100 -23 -111 -49 -11 -26 -17 -195 -9 -265 9 -85 23 -100 104 -108 162 -17 271 -130 271 -282 0 -71 -24 -136 -71 -188 -55 -63 -53 -91 13 -164 84 -94 180 -173 209 -173 16 0 46 16 75 40 59 49 119 70 198 70 146 0 252 -104 274 -269 5 -34 13 -66 19 -72 38 -38 338 -38 376 0 6 6 14 42 18 80 27 252 293 357 483 191 51 -46 83 -41 154 23 100 90 172 177 172 207 0 9 -18 40 -41 70 -56 74 -71 114 -72 190 -1 75 22 135 72 192 38 43 122 88 165 88 52 0 105 20 117 43 15 28 24 186 14 272 -9 86 -23 100 -108 108 -151 14 -254 114 -265 256 -6 87 15 154 69 214 55 63 53 91 -12 164 -89 98 -180 173 -210 173 -17 0 -45 -15 -75 -40 -185 -153 -446 -48 -471 190 -7 74 -17 89 -68 100 -47 11 -223 11 -279 0z m263 -859 c165 -51 275 -177 304 -347 30 -176 -68 -361 -237 -444 -60 -30 -81 -35 -161 -38 -101 -5 -163 10 -241 55 -60 34 -141 124 -172 190 -24 52 -27 69 -27 173 0 108 2 119 31 180 93 195 305 293 503 231z"/>
 <path d="M3980 2560 l0 -1280 250 0 250 0 0 1280 0 1280 -250 0 -250 0 0 -1280z"/>
 <path d="M4620 2560 l0 -1280 250 0 250 0 0 1280 0 1280 -250 0 -250 0 0 -1280z"/>
 <path d="M70 640 l0 -570 570 0 570 0 0 250 0 250 -320 0 -320 0 0 320 0 320 -250 0 -250 0 0 -570z"/>
 <path d="M4550 890 l0 -320 -320 0 -320 0 0 -250 0 -250 570 0 570 0 0 570 0 570 -250 0 -250 0 0 -320z"/>
 <path d="M1280 890 l0 -250 1280 0 1280 0 0 250 0 250 -1280 0 -1280 0 0 -250z"/>
 <path d="M1280 250 l0 -250 1280 0 1280 0 0 250 0 250 -1280 0 -1280 0 0 -250z"/>
 </g>
<g id="layer104" fill="#4b8bff" stroke="none">
 <path d="M640 4800 l0 -320 1920 0 1920 0 0 320 0 320 -1920 0 -1920 0 0 -320z"/>
 <path d="M70 4480 l0 -570 250 0 250 0 0 570 0 570 -250 0 -250 0 0 -570z"/>
 <path d="M4550 4480 l0 -570 250 0 250 0 0 570 0 570 -250 0 -250 0 0 -570z"/>
 <path d="M2416 3830 c-51 -10 -62 -26 -69 -104 -23 -246 -293 -351 -481 -186 -51 46 -83 41 -154 -22 -100 -91 -172 -178 -172 -208 0 -9 18 -40 41 -70 56 -74 71 -114 72 -190 2 -147 -98 -259 -248 -281 -69 -9 -100 -23 -111 -49 -11 -26 -17 -195 -9 -265 9 -85 23 -100 104 -108 162 -17 271 -130 271 -282 0 -71 -24 -136 -71 -188 -55 -63 -53 -91 13 -164 84 -94 180 -173 209 -173 16 0 46 16 75 40 59 49 119 70 198 70 146 0 252 -104 274 -269 5 -34 13 -66 19 -72 38 -38 338 -38 376 0 6 6 14 42 18 80 27 252 293 357 483 191 51 -46 83 -41 154 23 100 90 172 177 172 207 0 9 -18 40 -41 70 -56 74 -71 114 -72 190 -1 75 22 135 72 192 38 43 122 88 165 88 52 0 105 20 117 43 15 28 24 186 14 272 -9 86 -23 100 -108 108 -151 14 -254 114 -265 256 -6 87 15 154 69 214 55 63 53 91 -12 164 -89 98 -180 173 -210 173 -17 0 -45 -15 -75 -40 -185 -153 -446 -48 -471 190 -7 74 -17 89 -68 100 -47 11 -223 11 -279 0z m263 -859 c165 -51 275 -177 304 -347 30 -176 -68 -361 -237 -444 -60 -30 -81 -35 -161 -38 -101 -5 -163 10 -241 55 -60 34 -141 124 -172 190 -24 52 -27 69 -27 173 0 108 2 119 31 180 93 195 305 293 503 231z"/>
 <path d="M70 640 l0 -570 570 0 570 0 0 250 0 250 -320 0 -320 0 0 320 0 320 -250 0 -250 0 0 -570z"/>
 <path d="M4550 890 l0 -320 -320 0 -320 0 0 -250 0 -250 570 0 570 0 0 570 0 570 -250 0 -250 0 0 -320z"/>
 </g>
<g id="layer105" fill="#3a7913" stroke="none">
 <path d="M70 4480 l0 -570 250 0 250 0 0 570 0 570 -250 0 -250 0 0 -570z"/>
 <path d="M4550 4480 l0 -570 250 0 250 0 0 570 0 570 -250 0 -250 0 0 -570z"/>
 <path d="M70 640 l0 -570 570 0 570 0 0 250 0 250 -320 0 -320 0 0 320 0 320 -250 0 -250 0 0 -570z"/>
 <path d="M4550 890 l0 -320 -320 0 -320 0 0 -250 0 -250 570 0 570 0 0 570 0 570 -250 0 -250 0 0 -320z"/>
 </g>

</svg>