<!DOCTYPE svg PUBLIC "-//W3C//DTD SVG 20010904//EN" "http://www.w3.org/TR/2001/REC-SVG-20010904/DTD/svg10.dtd">
<svg version="1.0" xmlns="http://www.w3.org/2000/svg" width="512px" height="512px" viewBox="0 0 5120 5120" preserveAspectRatio="xMidYMid meet">
<g id="layer101" fill="#000000" stroke="none">
 <path d="M0 2560 l0 -2560 2560 0 2560 0 0 2560 0 2560 -2560 0 -2560 0 0 -2560z"/>
 </g>
<g id="layer102" fill="#ff7605" stroke="none">
 <path d="M70 2560 l0 -2490 2490 0 2490 0 0 2490 0 2490 -2490 0 -2490 0 0 -2490z m4480 0 l0 -1990 -1990 0 -1990 0 0 1990 0 1990 1990 0 1990 0 0 -1990z"/>
 <path d="M640 2560 l0 -1920 1920 0 1920 0 0 1920 0 1920 -1920 0 -1920 0 0 -1920z m2952 1077 c15 -10 35 -30 45 -45 17 -26 18 -77 18 -1032 0 -955 -1 -1006 -18 -1032 -10 -15 -30 -35 -45 -45 -26 -17 -77 -18 -1032 -18 -955 0 -1006 1 -1032 18 -15 10 -35 30 -45 45 -17 26 -18 78 -21 997 -2 534 0 989 3 1013 7 48 57 107 97 115 13 2 468 4 1013 3 940 -1 991 -2 1017 -19z"/>
 <path d="M1600 2560 l0 -960 960 0 960 0 0 960 0 960 -960 0 -960 0 0 -960z"/>
 </g>
<g id="layer103" fill="#4b4b4b" stroke="none">
 <path d="M640 2560 l0 -1920 1920 0 1920 0 0 1920 0 1920 -1920 0 -1920 0 0 -1920z m2952 1077 c15 -10 35 -30 45 -45 17 -26 18 -77 18 -1032 0 -955 -1 -1006 -18 -1032 -10 -15 -30 -35 -45 -45 -26 -17 -77 -18 -1032 -18 -955 0 -1006 1 -1032 18 -15 10 -35 30 -45 45 -17 26 -18 78 -21 997 -2 534 0 989 3 1013 7 48 57 107 97 115 13 2 468 4 1013 3 940 -1 991 -2 1017 -19z"/>
 <path d="M1600 2560 l0 -960 960 0 960 0 0 960 0 960 -960 0 -960 0 0 -960z"/>
 </g>
<g id="layer104" fill="#8b8b8b" stroke="none">
 <path d="M640 2560 l0 -1920 1920 0 1920 0 0 1920 0 1920 -1920 0 -1920 0 0 -1920z m1123 1440 l797 -159 797 159 c438 88 798 158 800 157 1 -2 -69 -362 -157 -800 l-159 -797 159 -797 c88 -438 159 -798 157 -799 -1 -1 -361 70 -799 157 l-798 160 -797 -160 c-439 -87 -799 -158 -800 -158 0 1 71 361 158 800 l160 797 -156 783 c-86 430 -158 790 -161 800 -3 9 -4 17 -2 17 2 0 362 -72 801 -160z"/>
 <path d="M1600 2560 l0 -960 960 0 960 0 0 960 0 960 -960 0 -960 0 0 -960z"/>
 </g>
<g id="layer105" fill="#ff8b8b" stroke="none">
 <path d="M1600 2560 l0 -960 960 0 960 0 0 960 0 960 -960 0 -960 0 0 -960z"/>
 </g>

</svg>