<!DOCTYPE svg PUBLIC "-//W3C//DTD SVG 20010904//EN" "http://www.w3.org/TR/2001/REC-SVG-20010904/DTD/svg10.dtd">
<svg version="1.0" xmlns="http://www.w3.org/2000/svg" width="512px" height="512px" viewBox="0 0 5120 5120" preserveAspectRatio="xMidYMid meet">
<g id="layer101" fill="#000000" stroke="none">
 <path d="M2287 4169 c-16 -10 -18 -20 -13 -82 8 -92 9 -157 3 -182 -24 -97 -34 -125 -57 -160 -14 -22 -48 -77 -76 -123 -27 -46 -59 -100 -72 -120 -12 -20 -26 -43 -31 -51 -7 -11 -29 -2 -107 43 -104 58 -148 94 -201 161 -26 34 -77 132 -84 163 -6 26 -19 50 -31 54 -33 13 -64 -16 -101 -97 -8 -16 -63 -113 -121 -215 -104 -179 -107 -186 -92 -210 16 -27 31 -29 121 -14 62 10 177 6 193 -6 1 -2 5 -3 10 -5 4 -1 21 -5 37 -10 17 -4 74 -32 127 -62 l96 -54 -51 -82 c-28 -45 -72 -116 -97 -157 -26 -41 -55 -90 -64 -107 -9 -18 -21 -33 -26 -33 -28 0 -207 122 -248 170 -32 37 -80 119 -97 165 -24 65 -43 87 -73 83 -20 -2 -39 -28 -97 -130 -40 -70 -76 -136 -80 -147 -3 -12 -11 -21 -16 -21 -5 0 -9 -5 -9 -12 0 -6 -20 -46 -45 -89 -25 -43 -45 -87 -45 -98 0 -32 28 -53 64 -46 67 12 135 21 148 20 7 -2 37 -5 67 -9 29 -4 59 -10 65 -14 6 -3 13 -7 16 -8 43 -8 175 -71 209 -100 2 -2 -3 -12 -11 -21 -8 -10 -30 -45 -48 -78 -18 -33 -46 -79 -62 -102 -15 -23 -28 -48 -28 -56 0 -8 -12 -31 -26 -52 -14 -21 -28 -47 -30 -58 -2 -11 -5 -21 -7 -24 -13 -12 -189 105 -243 161 -58 60 -72 83 -125 203 -25 58 -52 69 -81 36 -9 -10 -75 -121 -147 -246 -124 -216 -131 -230 -118 -255 10 -21 20 -27 47 -28 19 0 40 3 46 7 6 5 57 7 115 5 109 -4 126 -7 146 -19 7 -5 22 -10 33 -12 11 -2 69 -31 128 -65 106 -60 107 -62 107 -98 0 -32 4 -38 30 -46 26 -8 45 -35 131 -185 87 -152 105 -176 128 -179 25 -3 26 -5 26 -75 0 -136 -50 -274 -131 -361 -40 -44 -48 -73 -27 -94 9 -9 88 -12 295 -12 l283 0 12 25 c9 21 7 29 -16 57 -112 137 -138 214 -144 415 -2 84 -1 153 2 153 4 0 105 -57 226 -126 171 -98 220 -130 220 -146 0 -65 -85 -243 -140 -293 -20 -18 -25 -41 -14 -69 5 -14 41 -16 294 -16 253 0 289 2 294 16 11 30 6 46 -33 92 -46 57 -77 109 -69 117 4 4 19 -2 34 -12 16 -10 29 -17 31 -15 5 4 57 -10 68 -18 9 -7 91 -28 129 -34 29 -4 28 -14 -5 -55 -28 -36 -31 -44 -21 -66 l12 -25 283 0 c207 0 286 3 295 12 21 21 13 50 -27 93 -22 24 -52 66 -66 95 l-26 51 24 19 c94 74 112 94 113 121 1 30 -11 46 -36 47 -29 2 -120 21 -132 28 -10 6 -11 594 0 594 4 0 22 -20 39 -44 18 -23 41 -52 50 -63 10 -12 25 -31 33 -43 8 -12 20 -28 25 -34 21 -23 76 -151 82 -190 2 -12 5 -58 6 -104 4 -98 22 -131 60 -111 35 19 428 341 434 356 3 7 2 24 -1 38 -5 18 -15 26 -44 32 -20 4 -41 6 -45 5 -4 -1 -21 5 -38 14 -17 8 -33 13 -36 10 -7 -7 -68 24 -125 63 -44 31 -87 74 -148 150 -19 25 -39 49 -45 55 -5 6 -28 34 -50 61 -22 28 -44 55 -50 62 -5 7 -16 19 -23 28 -11 13 -11 19 0 32 13 16 60 93 174 286 51 86 74 114 74 89 0 -4 10 -18 23 -32 12 -14 53 -63 91 -110 97 -121 96 -120 146 -180 68 -82 94 -120 119 -173 38 -78 48 -127 50 -237 1 -73 2 -76 29 -86 28 -11 38 -4 248 167 217 176 240 201 217 235 -5 7 -26 14 -48 18 -59 8 -76 13 -117 30 -21 9 -38 13 -38 9 0 -5 -4 -3 -8 3 -4 6 -26 21 -49 33 -55 28 -118 90 -206 206 -4 5 -17 21 -28 35 -12 14 -47 57 -78 95 -31 39 -60 75 -66 82 -5 7 -15 18 -20 25 -6 7 -31 38 -57 69 l-48 56 21 21 c11 12 24 22 29 22 5 0 15 6 22 13 16 15 102 54 104 47 0 -3 8 1 16 8 9 7 26 15 39 17 28 6 40 24 33 50 -8 28 -6 26 -129 101 -60 37 -167 102 -237 145 l-127 78 -24 -19 c-22 -17 -23 -23 -16 -67 16 -99 13 -102 -37 -37 -25 32 -54 69 -65 82 -24 28 -24 31 1 57 34 36 17 59 -94 126 -63 39 -124 87 -164 128 -157 164 -204 209 -252 241 -12 8 -31 23 -42 33 -12 9 -24 17 -28 17 -4 0 -19 11 -34 25 -45 42 -106 27 -106 -25 0 -17 -2 -30 -5 -30 -3 0 -85 50 -184 110 -99 61 -183 110 -188 110 -4 0 -16 -5 -26 -11z m503 -413 c0 -9 93 -161 103 -167 9 -7 6 -53 -8 -109 -3 -14 -7 -30 -9 -36 -1 -7 -7 -18 -13 -25 -5 -8 -13 -25 -16 -39 -4 -14 -23 -50 -43 -80 -20 -30 -56 -90 -81 -132 -45 -78 -63 -100 -63 -77 0 7 -3 10 -6 6 -3 -3 -11 -1 -18 4 -46 38 -60 48 -86 59 -17 7 -30 15 -30 19 0 4 -12 8 -26 9 -20 1 -181 83 -213 108 -1 2 13 29 33 61 20 32 64 103 98 158 55 90 118 175 118 160 0 -4 12 7 28 23 28 31 88 66 157 92 38 15 41 15 58 -6 9 -12 17 -25 17 -28z m490 -657 c14 -18 51 -63 83 -101 l58 -67 -59 -98 c-32 -54 -73 -119 -89 -145 l-30 -48 -6 243 c-3 133 -9 253 -13 267 l-7 25 19 -22 c10 -12 30 -37 44 -54z m-1020 -114 c36 -20 66 -38 68 -40 1 -1 -11 -54 -28 -118 -16 -64 -35 -167 -42 -229 -6 -62 -13 -114 -14 -116 -3 -5 -344 189 -344 197 0 3 12 24 27 46 28 41 137 218 180 293 l25 42 31 -18 c18 -11 61 -36 97 -57z m710 -75 l-5 -134 -35 44 c-19 25 -38 47 -42 48 -14 6 -8 34 14 71 12 20 25 38 29 41 3 3 14 20 23 38 10 19 18 32 19 30 1 -1 0 -64 -3 -138z m-462 -46 c23 -4 22 -8 -5 -54 l-27 -45 -13 50 c-18 72 -18 78 10 63 12 -6 28 -13 35 -14z m435 -495 c25 -34 27 -42 27 -140 0 -94 -9 -143 -37 -209 -4 -8 -7 -22 -8 -32 -1 -9 -6 -25 -10 -35 -24 -52 -6 -113 31 -113 24 0 24 -1 24 -107 -1 -99 -2 -106 -16 -88 -8 11 -23 29 -32 40 -10 11 -48 58 -86 105 -100 125 -107 133 -130 159 l-21 23 34 -7 c18 -4 41 -9 50 -10 9 -2 16 -4 16 -5 0 -1 12 -3 27 -4 36 -4 62 24 52 56 -5 18 -77 103 -119 140 -47 41 -86 74 -122 101 -23 18 -42 34 -42 37 0 3 51 34 114 70 63 36 115 68 115 72 0 4 12 14 28 22 25 14 28 13 52 -12 14 -15 38 -43 53 -63z m-1040 -8 l138 -78 -126 -72 c-68 -39 -127 -71 -129 -71 -1 0 -6 35 -10 78 -3 42 -12 104 -19 138 -13 59 -12 84 1 84 4 0 69 -36 145 -79z m184 -406 c-2 -48 10 -65 46 -65 19 0 30 8 83 57 l34 32 0 -165 c0 -129 -3 -165 -12 -161 -7 3 -95 52 -196 110 l-183 105 113 65 c62 36 114 66 115 66 1 1 1 -19 0 -44z m503 -308 c36 -45 68 -86 73 -92 4 -5 17 -21 28 -35 12 -14 47 -56 78 -95 31 -38 59 -72 62 -75 9 -7 56 -101 64 -127 8 -27 -5 -30 -26 -5 -51 57 -187 169 -251 206 -27 16 -48 31 -48 36 0 4 -13 13 -30 20 l-30 12 0 119 c0 66 3 119 8 119 4 -1 36 -38 72 -83z"/>
 </g>
<g id="layer102" fill="#888888" stroke="none">
 <path d="M2370 3969 c0 -76 -20 -172 -48 -229 -9 -19 -76 -132 -148 -250 -72 -118 -231 -379 -353 -580 -122 -201 -226 -372 -231 -380 -154 -241 -261 -451 -260 -509 1 -11 8 -7 27 14 14 17 41 48 61 70 59 68 114 151 272 410 84 138 269 439 410 671 141 231 276 448 299 482 45 66 114 126 199 174 l52 30 -22 18 c-38 29 -237 150 -248 150 -6 0 -10 -30 -10 -71z"/>
 <path d="M2840 3859 c0 -6 12 -33 26 -59 26 -48 26 -48 47 -29 l21 19 -30 31 c-36 38 -64 55 -64 38z"/>
 <path d="M1569 3687 c-26 -36 -139 -238 -139 -248 0 -6 29 -10 68 -9 133 3 233 -31 414 -139 l37 -22 25 38 c31 45 38 37 -104 118 -107 60 -219 167 -255 243 -11 23 -22 42 -25 42 -3 -1 -12 -11 -21 -23z"/>
 <path d="M2997 3653 c-4 -3 -7 -32 -7 -64 0 -62 -15 -149 -32 -189 -25 -58 -64 -125 -295 -504 -134 -219 -242 -400 -241 -401 2 -2 38 17 80 42 84 48 74 34 276 368 270 444 294 475 428 552 l62 36 -27 22 c-23 19 -227 145 -235 145 -1 0 -6 -3 -9 -7z"/>
 <path d="M3236 3385 c-10 -8 -23 -16 -29 -18 -13 -4 10 -46 55 -99 20 -24 76 -91 123 -150 47 -60 89 -108 94 -108 5 0 16 18 25 40 15 38 15 42 -1 68 -24 37 -192 243 -216 265 -23 20 -26 21 -51 2z"/>
 <path d="M3614 3248 c5 -66 -30 -217 -65 -284 -18 -32 -112 -190 -210 -351 -190 -310 -234 -387 -272 -486 -45 -113 -44 -117 9 -60 109 115 138 157 369 538 205 339 252 398 368 467 37 22 67 43 67 47 0 3 -15 16 -33 27 -62 42 -228 144 -233 144 -2 0 -2 -19 0 -42z"/>
 <path d="M3097 3264 c-20 -72 -28 -148 -34 -329 l-5 -170 23 -10 c33 -14 34 -37 4 -73 -14 -16 -25 -34 -25 -38 0 -5 21 -34 46 -64 l46 -55 -5 305 c-4 283 -16 420 -37 444 -4 4 -10 0 -13 -10z"/>
 <path d="M2190 3188 c-11 -18 -20 -35 -20 -38 0 -13 358 -206 365 -198 1 2 -11 30 -27 64 -29 61 -30 62 -155 133 -69 39 -129 71 -134 71 -5 0 -18 -15 -29 -32z"/>
 <path d="M1204 3047 c-53 -79 -134 -230 -128 -238 3 -5 35 -9 72 -10 78 0 114 -3 128 -11 5 -3 25 -9 44 -13 19 -4 81 -31 137 -61 56 -30 106 -54 111 -54 10 0 40 40 44 60 2 6 -14 21 -34 33 -184 110 -266 182 -318 280 -14 26 -27 47 -30 47 -3 0 -15 -15 -26 -33z"/>
 <path d="M2597 3014 c-3 -4 -2 -16 4 -26 8 -15 14 -17 22 -9 8 8 7 15 -4 26 -8 9 -18 13 -22 9z"/>
 <path d="M3689 2853 c-47 -53 -46 -55 47 -171 48 -59 94 -114 103 -122 9 -9 21 -23 26 -32 6 -9 50 -65 98 -125 49 -59 99 -128 112 -153 31 -60 65 -174 65 -216 0 -19 5 -34 10 -34 6 0 10 5 10 10 0 6 6 10 14 10 8 0 23 11 33 23 10 13 23 26 30 28 6 2 45 32 87 67 72 59 86 82 49 82 -30 0 -139 54 -188 94 -50 40 -135 123 -135 132 0 7 -220 276 -247 302 -12 13 -23 26 -23 30 0 4 -17 26 -38 50 -36 42 -38 43 -53 25z"/>
 <path d="M2784 2769 c-13 -26 -14 -36 -3 -55 7 -13 17 -24 23 -24 22 0 86 21 86 28 0 15 -62 82 -75 82 -8 0 -22 -14 -31 -31z"/>
 <path d="M2362 2716 c-7 -35 -15 -95 -18 -132 l-5 -69 37 58 37 59 -13 74 c-7 41 -16 74 -20 74 -3 0 -12 -29 -18 -64z"/>
 <path d="M2875 2630 c-22 -10 -46 -19 -54 -19 -8 -1 -62 -25 -120 -55 -109 -55 -181 -96 -569 -322 -547 -318 -576 -331 -744 -333 l-58 -1 13 -27 c12 -30 112 -206 132 -236 11 -15 16 -11 49 42 52 85 125 162 198 209 35 22 171 102 303 177 195 113 563 327 718 419 33 19 125 91 142 111 6 7 20 17 33 24 12 7 20 16 17 22 -8 12 -12 11 -60 -11z"/>
 <path d="M1810 2564 c-12 -19 -21 -36 -19 -38 13 -9 328 -186 343 -192 16 -6 17 -3 11 25 -4 20 -2 37 6 47 6 8 10 16 8 18 -18 13 -311 176 -318 176 -5 0 -19 -16 -31 -36z"/>
 <path d="M2978 2572 c-9 -9 -24 -23 -32 -30 -15 -12 -14 -17 10 -48 15 -18 30 -34 35 -34 5 0 9 -5 9 -11 0 -6 19 -34 42 -61 l41 -50 24 39 c12 21 23 43 23 48 0 6 -18 30 -40 54 -22 24 -40 47 -40 50 0 4 -13 19 -28 34 -26 25 -29 26 -44 9z"/>
 <path d="M849 2427 c-19 -26 -139 -242 -139 -249 0 -3 46 -8 103 -10 119 -6 191 -30 331 -109 48 -28 89 -49 91 -47 8 9 35 68 35 76 0 5 -50 38 -111 73 -121 70 -213 155 -259 242 -14 26 -27 47 -30 47 -3 0 -12 -11 -21 -23z"/>
 <path d="M1641 2288 c-15 -31 -22 -73 -27 -150 -3 -60 -3 -108 1 -108 4 0 25 10 46 22 l39 22 -5 70 c-7 106 -16 176 -25 181 -5 3 -17 -14 -29 -37z"/>
 <path d="M2458 2224 c-14 -13 106 -116 158 -136 56 -22 84 -17 49 7 -11 8 -26 20 -34 27 -90 80 -156 119 -173 102z"/>
 <path d="M3275 2187 c-31 -42 -31 -50 0 -84 14 -16 50 -61 81 -100 32 -40 61 -73 66 -73 4 0 8 -5 8 -11 0 -7 15 -30 33 -53 47 -58 87 -148 105 -238 9 -43 19 -78 23 -78 12 0 99 71 99 80 0 6 7 10 15 10 8 0 20 9 27 20 7 11 17 20 23 20 14 1 75 57 75 70 0 5 -8 10 -19 10 -16 0 -100 40 -170 81 -43 25 -147 137 -270 291 l-70 88 -26 -33z"/>
 <path d="M2380 2138 c-11 -12 -20 -27 -20 -33 0 -19 111 -172 182 -250 17 -20 293 -362 354 -440 58 -74 100 -177 119 -287 l6 -38 27 17 c44 28 162 126 162 135 0 4 6 8 13 8 14 0 54 37 46 43 -2 2 -33 14 -69 27 -109 38 -187 105 -319 268 -41 51 -78 92 -83 92 -4 0 -8 5 -8 11 0 13 -111 149 -122 149 -4 0 -8 7 -8 15 0 8 -9 20 -20 27 -11 7 -20 16 -20 21 0 10 -85 113 -161 194 l-58 63 -21 -22z"/>
 <path d="M3103 1975 l-43 -45 0 -220 0 -220 43 -31 42 -30 3 151 c1 83 1 216 0 296 l-3 145 -42 -46z"/>
 <path d="M1415 1990 c-3 -5 1 -10 9 -10 8 0 18 5 21 10 3 6 -1 10 -9 10 -8 0 -18 -4 -21 -10z"/>
 <path d="M2330 1788 l0 -207 43 -26 c24 -14 47 -25 50 -25 4 0 7 74 7 165 0 181 -1 184 -74 270 l-25 30 -1 -207z"/>
 <path d="M1714 1786 l-38 -33 34 -18 c19 -10 192 -108 385 -218 415 -237 598 -328 659 -327 23 1 27 -4 -71 77 -85 70 -161 117 -508 315 -198 113 -374 212 -391 221 -31 16 -32 16 -70 -17z"/>
 <path d="M1615 1678 c-2 -7 -6 -103 -7 -213 -4 -187 -6 -205 -31 -278 -15 -42 -38 -95 -52 -117 -14 -22 -25 -43 -25 -47 0 -5 72 -8 160 -8 88 0 160 2 160 4 0 3 -8 14 -18 25 -24 27 -77 150 -87 201 -12 58 -11 54 -13 240 l-2 171 -29 17 c-35 20 -50 22 -56 5z"/>
 <path d="M2320 1248 c-18 -72 -41 -131 -71 -181 -16 -26 -29 -48 -29 -50 0 -1 71 -1 157 0 162 2 171 5 141 40 -18 22 -45 81 -58 127 -11 40 -20 50 -65 76 -29 17 -55 30 -58 30 -4 0 -11 -19 -17 -42z"/>
 <path d="M3140 1080 c-36 -28 -68 -55 -72 -58 -4 -4 40 -7 97 -7 58 0 105 2 105 3 0 2 -10 18 -22 35 -13 17 -28 42 -33 55 l-10 24 -65 -52z"/>
 </g>
<g id="layer103" fill="#a1a1a1" stroke="none">
 <path d="M2410 3948 c-12 -46 -47 -143 -69 -186 -5 -9 -21 -42 -37 -72 -23 -46 -488 -814 -614 -1015 -198 -315 -286 -472 -330 -583 l-20 -54 28 24 c16 12 33 31 38 40 5 10 28 41 51 70 37 47 86 125 312 494 31 50 178 290 326 534 241 396 278 452 346 519 41 42 106 94 143 115 l68 40 -39 19 c-21 11 -70 39 -109 63 -39 24 -73 44 -76 44 -3 0 -12 -23 -18 -52z"/>
 <path d="M2870 3813 c18 -33 26 -40 37 -32 16 14 17 29 1 29 -6 0 -23 10 -36 23 l-25 22 23 -42z"/>
 <path d="M1576 3693 c-3 -10 -30 -62 -59 -115 l-54 -97 39 -6 c70 -12 230 -74 336 -131 l105 -56 18 23 c10 13 19 27 19 31 0 4 -42 31 -93 61 -104 62 -238 191 -272 264 -22 47 -31 52 -39 26z"/>
 <path d="M3033 3623 c7 -12 -10 -98 -27 -136 -73 -160 -123 -251 -326 -582 -128 -209 -234 -383 -236 -387 -3 -4 25 11 62 32 l67 39 209 343 c182 299 218 352 281 414 40 39 102 88 137 108 36 21 66 39 68 41 1 1 -14 10 -35 20 -21 10 -65 35 -98 55 -80 49 -109 64 -102 53z"/>
 <path d="M3239 3373 c-13 -9 -26 -18 -27 -19 -2 -1 34 -49 80 -106 46 -57 106 -130 132 -163 27 -33 50 -62 52 -64 7 -9 33 73 26 83 -32 42 -224 276 -231 280 -4 3 -19 -2 -32 -11z"/>
 <path d="M3100 3259 c0 -2 -8 -62 -18 -134 -12 -85 -17 -169 -14 -241 4 -107 5 -112 28 -123 31 -14 31 -42 -1 -79 -14 -17 -25 -34 -25 -38 1 -5 16 -26 35 -48 l34 -38 3 223 c2 166 -1 256 -13 347 -9 68 -20 126 -23 129 -3 4 -6 4 -6 2z"/>
 <path d="M3653 3222 c-3 -45 -52 -179 -98 -267 -22 -44 -114 -199 -204 -345 -183 -298 -237 -393 -280 -497 -20 -50 -25 -70 -15 -66 8 3 14 8 14 12 0 3 27 40 61 81 33 41 88 120 123 175 76 120 272 440 312 510 43 75 168 201 246 247 37 22 68 44 68 48 0 4 -13 12 -28 18 -16 5 -65 33 -110 61 -45 28 -83 51 -84 51 -2 0 -4 -13 -5 -28z"/>
 <path d="M2197 3181 l-17 -30 122 -69 c126 -71 203 -112 212 -112 3 0 -2 12 -10 28 -7 15 -14 32 -14 39 0 7 -15 23 -32 36 -32 24 -230 137 -239 137 -3 0 -12 -13 -22 -29z"/>
 <path d="M1204 3038 c-11 -24 -39 -77 -61 -118 l-42 -75 33 -2 c53 -2 231 -68 335 -124 l95 -51 23 28 c12 16 21 29 20 30 -1 1 -40 24 -87 52 -97 57 -219 176 -260 255 -14 26 -27 47 -31 47 -3 0 -14 -19 -25 -42z"/>
 <path d="M3681 2822 l-20 -29 82 -100 c45 -55 125 -153 177 -217 52 -64 112 -147 133 -184 43 -78 87 -207 87 -258 0 -39 9 -43 30 -14 8 12 52 51 98 88 l83 66 -28 14 c-32 17 -115 84 -186 151 -27 26 -132 148 -234 274 -102 125 -189 229 -193 232 -5 3 -18 -8 -29 -23z"/>
 <path d="M2794 2765 c-17 -32 -17 -36 -2 -51 14 -14 21 -14 51 -3 l36 13 -25 29 c-13 15 -24 33 -24 38 0 20 -18 7 -36 -26z"/>
 <path d="M2361 2665 c-16 -109 -14 -115 17 -67 27 39 28 45 18 92 -5 28 -13 50 -17 50 -4 0 -12 -34 -18 -75z"/>
 <path d="M2865 2618 c-16 -6 -63 -26 -103 -44 -40 -19 -75 -34 -77 -34 -2 0 -221 -125 -487 -278 -581 -335 -513 -299 -612 -327 -98 -29 -124 -33 -200 -34 l-58 -1 16 -22 c9 -13 36 -57 60 -98 25 -41 49 -82 54 -90 8 -12 14 -10 33 14 81 103 195 178 736 490 435 251 613 362 673 421 16 17 8 17 -35 3z"/>
 <path d="M1818 2561 l-16 -30 136 -77 c76 -43 151 -86 167 -95 l30 -18 1 43 1 43 -141 79 c-77 43 -145 80 -151 82 -5 1 -17 -11 -27 -27z"/>
 <path d="M2972 2560 c-12 -12 -22 -25 -22 -31 0 -10 121 -168 130 -168 3 -1 13 13 23 30 l18 31 -41 52 c-22 28 -51 63 -63 79 l-23 27 -22 -20z"/>
 <path d="M855 2428 c-4 -13 -29 -62 -56 -109 -27 -48 -49 -89 -49 -92 0 -3 15 -8 33 -12 73 -15 239 -80 343 -135 l111 -59 11 35 10 34 -92 54 c-103 61 -224 178 -266 259 -28 53 -36 57 -45 25z"/>
 <path d="M1650 2287 c-18 -29 -38 -168 -31 -213 l6 -34 37 25 c31 21 37 30 33 53 -3 15 -9 63 -15 106 -6 44 -12 81 -13 82 -2 2 -9 -7 -17 -19z"/>
 <path d="M2470 2217 c0 -2 19 -25 43 -50 29 -32 60 -54 95 -66 29 -11 49 -15 46 -9 -17 27 -184 140 -184 125z"/>
 <path d="M3275 2170 l-16 -31 107 -132 c120 -148 175 -252 202 -377 8 -41 17 -77 18 -79 2 -2 31 22 66 52 35 30 78 68 97 84 l33 29 -43 29 c-94 61 -200 166 -322 315 -60 74 -113 136 -118 138 -4 2 -15 -11 -24 -28z"/>
 <path d="M2380 2125 c-7 -8 -10 -21 -7 -28 8 -22 126 -174 291 -377 235 -288 251 -310 290 -397 20 -46 44 -115 52 -155 8 -40 16 -74 18 -75 1 -1 22 17 47 40 25 23 68 60 96 81 l51 39 -51 39 c-111 83 -216 191 -375 388 -91 113 -199 244 -239 292 -40 47 -73 91 -73 96 0 10 -72 72 -83 72 -2 0 -10 -7 -17 -15z"/>
 <path d="M3103 1970 l-33 -34 0 -221 0 -220 33 -23 32 -22 3 140 c1 78 1 203 0 278 l-3 137 -32 -35z"/>
 <path d="M2340 1779 l0 -194 40 -22 40 -21 0 162 0 162 -40 53 -40 53 0 -193z"/>
 <path d="M1726 1784 c-15 -14 -27 -27 -25 -28 6 -5 692 -396 779 -443 70 -39 192 -91 250 -108 14 -4 -13 23 -64 63 -58 46 -221 146 -470 288 -210 120 -394 226 -411 235 -29 17 -31 17 -59 -7z"/>
 <path d="M1620 1523 c-1 -209 -30 -348 -97 -455 -29 -47 -29 -55 0 -52 12 1 70 3 129 3 l107 1 -15 43 c-29 88 -46 217 -51 400 l-5 188 -29 14 c-15 8 -30 15 -34 15 -3 0 -5 -71 -5 -157z"/>
 <path d="M2326 1268 c-30 -103 -53 -161 -77 -201 -16 -26 -29 -49 -29 -51 0 -3 12 -3 28 -1 15 2 75 4 134 4 l106 1 -19 51 c-11 27 -23 73 -27 102 -7 50 -9 53 -60 80 -38 21 -53 25 -56 15z"/>
 <path d="M3126 1060 l-48 -40 67 0 c60 0 66 2 60 18 -4 9 -10 27 -12 40 -3 12 -8 22 -12 22 -3 -1 -28 -19 -55 -40z"/>
 </g>
<g id="layer104" fill="#bbbbbb" stroke="none">
 <path d="M2549 3851 c-30 -27 -73 -71 -94 -97 l-40 -49 64 53 c35 29 88 67 118 84 30 17 53 32 51 33 -32 26 -46 23 -99 -24z"/>
 <path d="M1574 3683 c-6 -24 1 -35 75 -105 85 -81 137 -111 61 -35 -43 43 -110 138 -110 157 0 21 -20 9 -26 -17z"/>
 <path d="M3137 3441 c-82 -79 -107 -121 -32 -54 22 19 68 51 102 71 55 32 60 37 45 48 -9 8 -21 14 -25 14 -4 0 -45 -36 -90 -79z"/>
 <path d="M3803 3108 c-53 -47 -133 -131 -133 -142 0 -5 17 8 38 28 20 21 67 56 105 78 70 42 78 52 51 62 -22 8 -19 9 -61 -26z"/>
 <path d="M1214 3053 c-7 -25 1 -35 76 -105 90 -85 126 -106 56 -33 -23 25 -58 72 -77 105 -19 33 -37 60 -41 60 -4 0 -11 -12 -14 -27z"/>
 <path d="M855 2430 c-9 -28 11 -57 90 -126 86 -76 114 -91 50 -27 -27 27 -66 77 -85 111 -19 34 -38 62 -42 62 -4 0 -10 -9 -13 -20z"/>
 <path d="M4075 2255 c36 -90 65 -186 65 -217 0 -42 4 -45 26 -24 21 22 18 40 -25 132 -37 78 -85 159 -66 109z"/>
 <path d="M1551 1925 c-56 -17 -102 -24 -169 -25 -51 0 -52 -1 -41 -21 9 -18 17 -20 50 -15 55 9 197 55 204 66 3 6 5 10 3 9 -2 0 -23 -7 -47 -14z"/>
 <path d="M3526 1763 c21 -47 53 -160 53 -190 1 -27 13 -29 31 -8 14 17 0 65 -51 167 -32 64 -59 90 -33 31z"/>
 <path d="M2956 1323 c22 -51 54 -151 54 -173 1 -14 4 -33 8 -42 6 -14 10 -15 25 -3 18 13 17 16 -8 79 -28 70 -73 156 -82 156 -3 0 -2 -8 3 -17z"/>
 <path d="M1577 1190 c-15 -43 -38 -97 -52 -119 -31 -50 -31 -58 -3 -56 17 1 27 13 40 47 18 49 51 198 45 204 -2 2 -16 -32 -30 -76z"/>
 <path d="M2302 1189 c-12 -40 -36 -94 -52 -121 -17 -26 -30 -50 -30 -52 0 -3 12 -3 27 -2 31 3 36 14 64 134 26 108 20 134 -9 41z"/>
 </g>

</svg>