<!DOCTYPE svg PUBLIC "-//W3C//DTD SVG 20010904//EN" "http://www.w3.org/TR/2001/REC-SVG-20010904/DTD/svg10.dtd">
<svg version="1.0" xmlns="http://www.w3.org/2000/svg" width="512px" height="512px" viewBox="0 0 5120 5120" preserveAspectRatio="xMidYMid meet">
<g id="layer101" fill="#000000" stroke="none">
 <path d="M1809 4543 c-11 -13 -15 -84 -17 -345 -3 -307 -4 -329 -20 -321 -9 4 -49 8 -88 8 -62 0 -75 -3 -107 -28 -72 -55 -96 -149 -61 -237 15 -38 15 -42 -1 -60 -13 -15 -22 -17 -36 -10 -60 32 -173 -7 -222 -77 -24 -34 -29 -50 -29 -102 0 -41 6 -70 17 -87 16 -26 16 -27 -7 -50 -21 -21 -27 -23 -58 -14 -134 39 -271 -122 -216 -254 15 -37 15 -39 -7 -65 -19 -23 -30 -26 -82 -26 -68 0 -105 -20 -152 -81 -34 -45 -42 -123 -19 -179 18 -42 15 -74 -35 -345 -31 -169 -42 -143 149 -333 93 -92 174 -167 181 -167 28 0 73 35 180 144 94 94 118 113 132 105 24 -12 79 -11 117 2 31 11 37 7 294 -192 145 -112 287 -221 316 -243 l52 -41 0 -71 c0 -96 20 -124 91 -124 48 0 49 -1 49 -30 l0 -30 -138 0 c-145 0 -159 -4 -174 -50 -7 -19 33 -130 83 -237 21 -45 50 -120 64 -165 37 -118 86 -240 103 -260 14 -17 45 -18 392 -18 346 0 378 1 392 18 8 9 54 123 102 252 48 129 97 262 110 295 37 95 38 109 15 139 -20 26 -22 26 -155 26 l-134 0 0 30 c0 29 1 30 49 30 71 0 91 28 91 124 l0 71 113 88 c141 110 261 202 405 312 108 83 115 86 144 76 38 -14 93 -14 117 -2 14 8 38 -11 132 -105 107 -109 152 -144 180 -144 7 0 88 75 181 167 191 190 180 164 149 333 -50 271 -53 303 -35 345 23 56 15 134 -19 179 -47 61 -84 81 -152 81 -52 0 -63 3 -82 26 -22 26 -22 28 -7 65 55 132 -82 293 -216 254 -31 -9 -37 -7 -58 14 -24 23 -24 24 -6 50 12 19 17 46 17 88 -1 50 -6 68 -29 101 -50 70 -163 109 -223 77 -14 -7 -23 -5 -36 10 -16 18 -16 22 -1 60 29 73 17 157 -31 212 -14 15 -13 22 2 65 76 216 -2 459 -186 582 -35 23 -69 51 -76 62 -14 19 -32 19 -752 19 -675 0 -740 -1 -752 -17z m104 -2045 c41 -70 147 -178 224 -228 264 -173 582 -173 846 0 77 50 183 158 224 228 14 23 26 42 26 42 1 0 0 -22 -1 -50 -5 -63 11 -109 48 -145 l29 -28 -72 -57 c-187 -147 -232 -179 -242 -169 -12 12 -858 12 -870 0 -10 -10 -55 22 -242 169 l-72 57 29 28 c40 38 52 75 48 139 -1 31 -2 56 -1 56 0 0 12 -19 26 -42z"/>
 </g>
<g id="layer102" fill="#d3953f" stroke="none">
 <path d="M1920 3637 c0 -769 1 -807 20 -881 30 -118 82 -208 175 -301 90 -90 161 -133 275 -165 94 -26 230 -28 321 -5 111 28 289 131 272 158 -3 6 -2 7 4 4 20 -12 130 123 117 144 -4 7 -3 9 3 6 10 -7 33 35 66 123 20 52 21 78 25 463 l3 407 -78 0 c-124 0 -231 36 -316 107 -210 175 -235 493 -56 697 l41 46 -436 0 -436 0 0 -803z m752 -398 c50 -13 70 -35 66 -73 -5 -46 -35 -57 -106 -39 -262 68 -453 -255 -262 -445 56 -57 105 -77 190 -77 58 0 84 5 116 22 127 67 179 201 135 345 -14 44 -14 49 4 68 22 25 66 26 88 2 20 -22 47 -123 47 -177 0 -92 -46 -200 -116 -269 -154 -155 -394 -154 -549 1 -149 148 -150 383 -3 539 100 107 240 144 390 103z"/>
 <path d="M3049 4430 c-108 -19 -219 -105 -267 -208 -23 -49 -27 -70 -27 -147 0 -78 4 -98 28 -151 30 -64 96 -136 157 -170 142 -80 336 -46 444 78 92 105 117 262 62 384 -68 152 -236 242 -397 214z m176 -124 c95 -45 145 -126 145 -236 0 -233 -276 -345 -441 -180 -128 128 -89 344 76 421 59 27 156 25 220 -5z"/>
 <path d="M3085 4210 c-38 -8 -65 -26 -87 -55 -21 -28 -36 -81 -19 -71 6 4 11 1 11 -9 0 -9 -4 -13 -10 -10 -14 9 -12 -10 5 -51 9 -23 19 -33 26 -28 8 4 9 3 5 -4 -10 -17 53 -52 92 -52 108 0 177 113 128 208 -27 53 -93 85 -151 72z"/>
 <path d="M1647 3742 c-32 -35 -21 -61 60 -143 42 -44 80 -79 83 -79 4 0 8 34 9 77 l2 76 -43 44 c-47 47 -83 56 -111 25z"/>
 <path d="M3435 3703 c-22 -19 -57 -44 -78 -54 -38 -20 -38 -21 -36 -74 1 -30 5 -55 9 -55 4 0 41 35 83 79 55 56 77 86 77 104 0 39 -11 38 -55 0z"/>
 <path d="M1612 3478 c-7 -7 -12 -17 -12 -23 0 -6 45 -55 100 -110 l100 -100 0 40 c0 37 -7 47 -83 123 -45 45 -85 82 -88 82 -3 0 -10 -5 -17 -12z"/>
 <path d="M3402 3407 c-75 -75 -82 -86 -82 -122 l0 -40 102 103 c86 85 101 105 92 119 -6 9 -15 18 -20 20 -5 2 -46 -34 -92 -80z"/>
 <path d="M1382 3414 c-14 -10 -22 -25 -22 -45 0 -26 30 -61 212 -245 116 -118 215 -214 220 -214 4 0 8 35 8 78 l0 78 -183 182 c-101 100 -190 182 -198 182 -8 0 -25 -7 -37 -16z"/>
 <path d="M3503 3248 l-183 -182 0 -78 c0 -43 3 -78 7 -78 3 0 102 96 220 214 183 184 213 219 213 245 0 31 -29 61 -59 61 -8 0 -97 -82 -198 -182z"/>
 <path d="M1337 3152 c-9 -10 -17 -23 -17 -28 0 -5 108 -116 241 -246 204 -201 244 -236 259 -228 11 6 16 17 13 28 -2 10 -111 125 -242 256 -228 228 -238 236 -254 218z"/>
 <path d="M3528 2932 c-129 -130 -238 -245 -241 -254 -4 -11 1 -21 13 -28 16 -8 52 23 259 228 133 130 241 242 241 248 0 6 -8 18 -18 27 -17 15 -32 2 -254 -221z"/>
 <path d="M1100 3075 c-35 -42 -23 -56 281 -361 308 -308 322 -319 363 -278 41 40 30 55 -277 361 -258 258 -296 293 -323 293 -18 0 -37 -7 -44 -15z"/>
 <path d="M3653 2797 c-307 -306 -318 -321 -277 -361 41 -41 55 -30 363 278 235 235 294 299 294 320 0 36 -20 56 -57 56 -27 0 -65 -35 -323 -293z"/>
 <path d="M1055 2818 c-15 -22 -10 -28 202 -240 215 -215 216 -216 240 -201 l25 16 -224 224 c-122 122 -224 223 -225 223 -1 0 -9 -10 -18 -22z"/>
 <path d="M3822 2617 l-224 -224 25 -16 c24 -15 25 -14 241 202 217 217 217 217 199 239 l-18 23 -223 -224z"/>
 <path d="M846 2735 c-12 -9 -19 -27 -19 -46 0 -27 31 -62 254 -284 140 -139 264 -256 276 -260 26 -7 73 32 73 62 0 25 -520 543 -545 543 -11 0 -29 -7 -39 -15z"/>
 <path d="M3953 2487 c-146 -146 -263 -270 -263 -280 0 -30 47 -69 73 -62 12 4 136 121 276 260 223 222 254 257 254 284 0 34 -25 60 -58 61 -13 0 -113 -93 -282 -263z"/>
 <path d="M812 2333 c-12 -76 -22 -149 -22 -163 0 -19 28 -53 108 -133 l108 -107 92 92 93 92 -179 179 -178 178 -22 -138z"/>
 <path d="M4107 2292 l-178 -178 93 -92 92 -92 108 107 c125 125 119 104 85 306 l-22 127 -178 -178z"/>
 <path d="M1576 2287 c-26 -21 -28 -29 -30 -92 l-2 -70 233 -180 c129 -99 254 -195 278 -213 l45 -34 -1 119 0 118 -52 40 c-29 21 -138 106 -244 187 -105 81 -193 148 -195 148 -2 0 -16 -10 -32 -23z"/>
 <path d="M3305 2153 c-110 -85 -219 -169 -242 -187 l-42 -31 -1 -119 0 -118 38 28 c20 15 79 62 131 103 89 72 152 120 317 243 l71 53 -3 70 c-2 63 -4 71 -30 92 -16 13 -31 23 -34 22 -3 0 -95 -70 -205 -156z"/>
 <path d="M2220 1725 l0 -245 340 0 340 0 0 245 0 245 -340 0 -340 0 0 -245z"/>
 <path d="M2370 1320 l0 -30 190 0 190 0 0 30 0 30 -190 0 -190 0 0 -30z"/>
 <path d="M2077 1164 c-6 -7 20 -76 52 -139 12 -21 21 -47 21 -57 0 -9 4 -19 9 -22 9 -6 61 -155 61 -176 0 -8 8 -31 18 -51 l17 -38 305 -1 305 0 88 238 c48 130 87 240 87 245 0 8 -954 10 -963 1z"/>
 </g>
<g id="layer103" fill="#ecae58" stroke="none">
 <path d="M1920 3653 c0 -502 4 -811 11 -853 30 -187 171 -378 339 -460 25 -12 53 -26 62 -30 37 -20 154 -40 229 -40 75 0 148 11 194 30 121 49 240 124 228 143 -3 6 -1 7 4 4 18 -11 129 126 117 144 -4 7 -3 9 3 6 11 -7 50 73 74 148 9 28 14 156 16 443 l4 402 -83 0 c-80 0 -162 16 -218 43 -79 37 -189 148 -227 227 -43 91 -55 235 -28 341 16 61 72 164 106 194 48 45 44 45 -406 45 l-425 0 0 -787z m734 -409 c75 -18 86 -28 86 -74 0 -52 -29 -67 -100 -50 -172 41 -325 -64 -338 -232 -8 -111 45 -206 143 -253 138 -68 306 -3 360 138 17 46 17 102 -1 223 -4 27 -2 44 6 49 8 5 0 20 -27 49 l-38 41 40 -37 c30 -28 50 -38 73 -38 37 0 72 -30 72 -61 0 -11 4 -18 8 -15 10 6 11 -227 2 -234 -4 -3 -18 -25 -30 -50 -48 -96 -126 -165 -230 -203 -60 -22 -180 -22 -240 0 -105 39 -184 109 -231 206 -13 26 -25 47 -28 47 -12 0 -12 154 -1 203 15 68 32 104 70 153 51 63 118 111 186 131 35 9 59 20 53 24 -17 10 103 -2 165 -17z m-194 -172 c-92 -115 -92 -301 2 -408 34 -39 34 -39 -15 -19 -73 30 -137 135 -137 223 0 85 57 182 130 222 51 28 55 24 20 -18z"/>
 <path d="M3015 4417 c-71 -24 -120 -54 -164 -102 -189 -205 -83 -534 191 -591 43 -9 88 -12 112 -8 127 21 232 98 282 206 25 55 29 75 29 153 0 76 -4 99 -26 146 -59 126 -169 200 -307 206 -46 2 -93 -2 -117 -10z m200 -101 c169 -78 216 -278 98 -416 -51 -59 -121 -90 -203 -90 -78 0 -132 22 -185 75 -53 53 -75 107 -75 185 0 194 195 326 365 246z"/>
 <path d="M3054 4196 c-33 -15 -66 -55 -79 -95 -5 -16 -4 -21 4 -17 6 4 11 0 11 -9 0 -10 -5 -13 -11 -9 -9 5 -10 -1 -5 -21 22 -89 120 -139 195 -100 52 26 81 71 81 123 0 109 -96 171 -196 128z"/>
 <path d="M1613 3471 c-10 -16 1 -30 83 -112 l94 -94 0 35 c0 31 -10 46 -78 113 -42 42 -80 77 -82 77 -3 0 -10 -8 -17 -19z m167 -163 c0 -13 -14 -4 -50 32 -27 28 -50 58 -50 67 0 12 16 2 50 -32 28 -27 50 -57 50 -67z"/>
 <path d="M3407 3412 c-66 -67 -77 -82 -77 -112 l0 -35 94 94 c82 82 93 96 83 112 -7 11 -14 19 -17 19 -3 0 -40 -35 -83 -78z m-16 -71 c-35 -36 -51 -46 -51 -34 0 24 94 119 98 99 2 -8 -20 -37 -47 -65z"/>
 <path d="M1337 3143 c-16 -18 -4 -31 226 -261 191 -191 245 -240 255 -230 7 7 12 17 12 23 0 5 -107 117 -238 248 -227 227 -239 237 -255 220z m476 -477 c-8 -12 -133 117 -133 137 0 8 31 -17 69 -56 38 -39 67 -76 64 -81z"/>
 <path d="M3527 2922 c-130 -130 -237 -242 -237 -248 0 -7 6 -16 13 -22 10 -9 69 45 255 231 232 232 242 244 225 260 -18 16 -30 5 -256 -221z m-87 -118 c0 -20 -120 -145 -132 -138 -5 3 21 39 59 79 79 84 73 79 73 59z"/>
 <path d="M1057 2813 c-16 -18 -6 -29 196 -231 117 -117 217 -212 223 -212 7 0 16 6 22 13 9 10 -39 63 -206 230 -208 208 -219 217 -235 200z"/>
 <path d="M3827 2612 c-171 -171 -215 -220 -205 -230 7 -7 17 -12 23 -12 5 0 106 96 223 213 203 203 212 214 195 230 -18 16 -30 6 -236 -201z"/>
 <path d="M836 2439 c-3 -13 -15 -82 -26 -154 l-21 -129 111 -111 110 -110 90 90 90 90 -174 174 c-159 159 -175 172 -180 150z"/>
 <path d="M4102 2287 l-172 -172 90 -90 90 -90 110 111 111 110 -21 134 c-12 74 -24 143 -28 153 -6 14 -40 -15 -180 -156z"/>
 <path d="M1578 2286 c-23 -21 -27 -32 -29 -92 l-2 -68 46 -35 c132 -101 367 -283 430 -333 l72 -57 3 107 c1 58 1 111 -2 118 -4 9 -481 385 -489 384 -1 0 -14 -11 -29 -24z"/>
 <path d="M3277 2131 c-125 -97 -234 -184 -242 -192 -13 -12 -15 -38 -13 -127 l3 -111 75 60 c41 32 101 80 133 107 77 63 131 104 192 147 28 19 72 52 99 73 l49 38 -2 68 c-2 60 -6 71 -29 92 -15 13 -29 23 -32 23 -3 0 -107 -80 -233 -178z"/>
 <path d="M2230 1725 l0 -245 330 0 330 0 0 245 0 245 -330 0 -330 0 0 -245z m250 0 l0 -225 -120 0 -120 0 0 225 0 225 120 0 120 0 0 -225z"/>
 <path d="M2079 1143 c40 -80 71 -148 71 -159 0 -7 9 -29 20 -49 11 -20 20 -43 20 -53 0 -9 7 -30 15 -46 9 -17 16 -45 17 -63 1 -18 5 -33 10 -33 4 0 8 -6 8 -13 0 -8 8 -21 18 -30 16 -15 52 -17 302 -17 277 0 283 0 301 22 11 11 24 39 30 61 6 22 14 47 19 56 18 35 39 87 46 116 4 17 10 35 14 40 4 6 17 39 29 75 13 36 27 73 32 82 5 10 9 20 9 22 0 3 -218 6 -485 6 -461 0 -485 -1 -476 -17z"/>
 </g>
<g id="layer104" fill="#858897" stroke="none">
 <path d="M1932 4431 c-18 -11 -12 -1591 7 -1666 34 -134 134 -285 243 -367 99 -76 253 -128 374 -128 56 0 174 19 174 29 0 3 11 7 24 7 37 2 156 65 198 105 21 20 40 34 42 32 2 -3 30 28 61 69 61 78 117 193 119 242 0 17 6 34 11 38 6 5 11 154 13 401 l4 394 -89 -1 c-138 -1 -243 43 -343 144 -116 115 -163 254 -140 411 13 85 66 201 111 244 58 56 65 55 -383 55 -227 0 -419 -4 -426 -9z m705 -1174 c5 -2 25 -10 46 -17 40 -13 73 -51 64 -74 -4 -9 13 -33 40 -60 36 -36 50 -45 69 -40 26 7 74 -33 74 -61 0 -8 4 -15 9 -15 9 0 12 -232 2 -240 -3 -3 -19 -31 -36 -63 -37 -73 -101 -134 -180 -173 -55 -26 -69 -29 -165 -29 -96 0 -110 3 -165 29 -79 39 -143 100 -180 173 -16 32 -33 60 -36 63 -8 7 -8 234 0 240 3 3 17 26 30 52 48 95 120 159 219 194 28 10 52 21 52 24 0 6 146 3 157 -3z"/>
 <path d="M3054 4196 c-46 -21 -77 -69 -69 -107 5 -21 4 -29 -3 -25 -7 4 -8 -4 -2 -26 12 -41 76 -101 101 -95 10 3 21 0 24 -7 3 -8 7 -8 11 1 3 8 15 11 28 7 51 -13 111 71 103 144 -10 90 -110 146 -193 108z"/>
 <path d="M1573 2278 c-16 -18 -22 -38 -24 -85 -2 -57 0 -63 27 -86 61 -50 514 -397 519 -397 3 0 5 49 5 108 l0 108 -236 183 c-130 101 -243 185 -253 188 -9 2 -26 -6 -38 -19z"/>
 <path d="M3261 2113 l-241 -186 0 -109 c0 -59 2 -108 5 -108 3 0 64 46 136 103 71 56 158 123 192 149 34 26 98 74 141 108 l79 60 -2 63 c-2 62 -26 107 -57 107 -6 0 -120 -84 -253 -187z"/>
 <path d="M2085 1138 c4 -13 18 -45 31 -71 32 -65 76 -178 98 -252 10 -33 25 -76 35 -95 l16 -35 288 -3 c238 -2 291 0 302 12 18 18 76 176 69 187 -3 5 -1 9 4 9 5 0 23 39 41 88 18 48 41 108 51 134 l19 47 -480 1 -480 0 6 -22z"/>
 </g>
<g id="layer105" fill="#6c6f7e" stroke="none">
 <path d="M1920 3657 c0 -573 3 -766 11 -761 9 5 10 -7 7 -44 -3 -33 -1 -49 5 -45 6 4 8 -5 4 -26 -4 -21 -3 -30 4 -26 6 4 7 -3 3 -19 -4 -17 -2 -26 6 -26 6 0 8 -4 5 -10 -3 -5 -1 -10 5 -10 7 0 9 -7 6 -16 -3 -8 -2 -13 3 -10 11 7 23 -22 15 -35 -3 -5 -1 -9 5 -9 6 0 15 -10 22 -21 9 -17 8 -20 -3 -14 -7 4 -2 -3 12 -15 14 -12 18 -19 10 -15 -8 4 -4 -3 10 -16 14 -13 19 -19 10 -14 -13 9 -13 8 -1 -7 7 -10 19 -18 26 -18 11 0 28 -25 22 -34 -5 -7 26 -35 34 -31 4 3 25 -11 46 -32 20 -21 34 -32 29 -25 -7 11 -4 11 12 1 12 -7 19 -16 16 -20 -2 -4 3 -10 12 -13 8 -3 12 -2 9 4 -3 6 1 7 9 4 9 -3 13 -10 10 -15 -3 -5 3 -6 12 -2 13 5 15 3 9 -7 -5 -9 -4 -11 4 -6 6 4 18 0 27 -8 8 -9 21 -16 27 -16 7 0 6 5 -3 11 -12 9 -12 10 3 5 10 -3 23 -6 28 -6 6 0 7 -5 4 -10 -4 -7 3 -8 21 -4 18 5 25 3 21 -4 -7 -11 110 -29 120 -18 4 3 -5 6 -19 6 -15 0 -28 3 -30 8 -1 4 -29 25 -61 46 -126 85 -231 236 -276 397 -21 74 -21 93 -21 882 l0 806 -115 3 -115 3 0 -768z"/>
 <path d="M2573 4363 c-56 -106 -68 -157 -68 -288 0 -100 4 -132 24 -193 43 -132 127 -241 248 -322 101 -68 181 -92 316 -96 l107 -4 0 65 0 65 -31 0 c-17 0 -28 -4 -24 -10 4 -6 -11 -10 -39 -10 -24 0 -46 4 -48 10 -1 5 -30 12 -63 14 -73 5 -67 4 -60 16 3 5 0 7 -8 4 -8 -3 -17 2 -20 10 -4 9 -12 16 -19 16 -9 0 -8 -3 2 -10 8 -5 10 -10 4 -10 -6 0 -19 10 -28 23 -9 12 -14 15 -11 7 4 -8 -3 -4 -15 10 -12 14 -19 18 -15 10 4 -8 -8 2 -27 23 -18 21 -49 52 -68 69 -19 16 -28 26 -20 22 8 -4 0 7 -17 25 -18 18 -33 38 -33 44 0 7 4 6 10 -3 7 -10 10 -11 10 -2 0 7 -6 15 -14 18 -8 3 -12 12 -9 20 3 8 0 14 -6 14 -6 0 -8 7 -4 17 5 11 3 14 -6 8 -10 -6 -11 -2 -6 15 5 14 3 20 -3 16 -6 -4 -8 8 -5 34 4 26 2 40 -6 40 -6 0 -11 16 -11 35 0 19 5 35 11 35 8 0 10 15 6 46 -3 32 -2 42 5 33 7 -10 8 -6 4 13 -7 32 2 60 17 51 6 -4 8 0 4 10 -3 10 -2 17 4 17 6 0 7 5 3 11 -4 7 4 20 17 31 13 11 18 16 10 12 -23 -12 0 20 37 51 17 15 30 31 26 36 -3 5 -38 9 -78 9 l-73 0 -30 -57z m193 -645 l29 -33 -32 29 c-31 28 -38 36 -30 36 2 0 16 -15 33 -32z"/>
 <path d="M2538 3263 c12 -2 30 -2 40 0 9 3 -1 5 -23 4 -22 0 -30 -2 -17 -4z"/>
 <path d="M3115 1996 c-9 -14 -33 -37 -53 -52 -25 -19 -32 -22 -22 -9 14 19 14 19 -2 6 -15 -11 -18 -31 -18 -122 0 -60 3 -109 8 -109 4 0 21 16 37 36 17 19 39 36 50 38 11 2 20 8 20 14 0 6 3 14 8 18 11 11 9 192 -3 199 -5 3 -16 -5 -25 -19z"/>
 <path d="M1970 1918 c0 -52 3 -98 8 -102 4 -4 7 -12 7 -18 0 -6 9 -12 20 -14 11 -2 34 -19 50 -38 34 -41 45 -45 45 -15 0 11 -5 17 -10 14 -6 -4 -7 -12 -4 -18 4 -7 4 -9 0 -5 -7 6 -15 218 -8 218 1 0 7 -10 12 -22 6 -17 9 -18 9 -6 1 18 -14 31 -39 35 -8 1 -28 17 -44 35 -16 18 -25 26 -20 18 7 -13 5 -13 -9 -1 -16 12 -17 6 -17 -81z"/>
 <path d="M2100 1151 c0 -5 -3 -17 -7 -27 -4 -12 -3 -15 5 -10 8 5 10 2 6 -8 -4 -9 -1 -16 6 -16 7 0 10 -7 6 -16 -3 -8 -2 -12 4 -9 6 3 10 -3 10 -15 0 -12 4 -18 10 -15 6 3 7 -1 4 -9 -4 -9 -1 -16 6 -16 7 0 10 -7 6 -16 -3 -8 -2 -12 4 -9 6 4 10 -7 10 -25 0 -18 4 -29 10 -25 6 3 7 -1 4 -9 -4 -9 -1 -16 6 -16 7 0 10 -7 6 -16 -4 -10 -2 -13 6 -8 8 5 9 -1 4 -20 -4 -18 -3 -25 3 -21 7 3 8 0 5 -9 -4 -9 -1 -16 6 -16 7 0 10 -7 6 -16 -3 -8 -2 -12 4 -9 6 4 10 -10 10 -34 0 -23 5 -41 11 -41 5 0 7 -4 4 -10 -4 -6 40 -10 124 -10 72 0 131 2 131 4 0 11 -164 432 -173 444 -11 14 -237 18 -237 3z"/>
 </g>

</svg>