<!DOCTYPE svg PUBLIC "-//W3C//DTD SVG 20010904//EN" "http://www.w3.org/TR/2001/REC-SVG-20010904/DTD/svg10.dtd">
<svg version="1.0" xmlns="http://www.w3.org/2000/svg" width="512px" height="512px" viewBox="0 0 5120 5120" preserveAspectRatio="xMidYMid meet">
<g id="layer101" fill="#000000" stroke="none">
 <path d="M1346 4539 c-43 -34 -56 -70 -56 -156 l0 -79 -45 -12 c-47 -13 -135 -83 -135 -108 0 -11 -20 -14 -87 -14 -153 0 -203 -48 -203 -192 l0 -78 -76 0 c-86 0 -134 -17 -164 -60 -20 -28 -20 -47 -20 -1048 0 -1019 0 -1019 21 -1046 34 -43 70 -56 159 -56 l80 0 0 -82 c0 -141 47 -188 186 -188 l81 0 6 -36 c9 -56 52 -110 110 -139 46 -22 63 -25 169 -25 l118 0 0 -60 0 -60 -78 0 c-69 0 -81 -3 -100 -23 -28 -30 -29 -78 -1 -103 16 -14 40 -20 100 -23 76 -3 79 -4 79 -27 0 -23 -3 -24 -74 -24 -90 0 -126 -21 -126 -74 0 -53 28 -70 121 -75 l79 -3 0 -78 c0 -89 14 -110 72 -110 54 0 68 23 68 112 l0 76 79 3 c93 5 121 22 121 75 0 53 -36 74 -126 74 -71 0 -74 1 -74 24 0 23 3 24 79 27 92 5 121 22 121 74 0 55 -33 75 -123 75 l-77 0 0 60 0 60 263 0 262 0 -3 -60 -4 -60 -71 0 c-75 -1 -95 -9 -116 -48 -15 -29 -7 -56 26 -82 20 -16 41 -20 93 -20 64 0 68 -1 72 -25 5 -25 4 -25 -63 -25 -85 0 -113 -10 -129 -49 -11 -26 -10 -35 4 -56 22 -34 54 -45 126 -45 l58 0 4 -74 c4 -88 22 -116 74 -116 55 0 74 30 74 117 l0 73 59 0 c33 0 72 5 87 10 57 22 70 75 29 115 -21 22 -33 25 -100 25 -73 0 -75 1 -75 25 0 24 2 25 65 25 38 0 78 6 94 15 48 24 55 72 16 110 -21 22 -33 25 -100 25 l-75 0 0 60 0 60 260 0 260 0 0 -60 0 -60 -75 0 c-67 0 -79 -3 -100 -25 -39 -38 -32 -86 16 -110 16 -9 56 -15 94 -15 63 0 65 -1 65 -25 0 -24 -2 -25 -75 -25 -67 0 -79 -3 -100 -25 -41 -40 -28 -93 29 -115 15 -5 54 -10 87 -10 l59 0 0 -73 c0 -87 19 -117 74 -117 52 0 70 28 74 116 l4 74 58 0 c72 0 104 11 126 45 14 21 15 30 4 56 -16 39 -44 49 -129 49 -67 0 -68 0 -63 25 4 24 8 25 72 25 52 0 73 4 93 20 33 26 41 53 26 82 -21 39 -41 47 -116 48 l-71 0 -4 60 -3 60 263 0 262 0 0 -60 0 -60 -78 0 c-69 0 -81 -3 -100 -23 -28 -30 -29 -78 -1 -103 16 -14 40 -20 100 -23 76 -3 79 -4 79 -27 0 -23 -3 -24 -74 -24 -90 0 -126 -21 -126 -74 0 -53 28 -70 121 -75 l79 -3 0 -78 c0 -89 14 -110 72 -110 54 0 68 23 68 112 l0 76 79 3 c93 5 121 22 121 75 0 53 -36 74 -126 74 -71 0 -74 1 -74 24 0 23 3 24 79 27 92 5 121 22 121 74 0 55 -33 75 -123 75 l-77 0 0 60 0 60 118 0 c106 0 123 3 169 25 58 29 101 83 110 139 l6 36 81 0 c139 0 186 47 186 188 l0 82 80 0 c89 0 125 13 159 56 21 27 21 27 21 1046 0 1001 0 1020 -20 1048 -30 43 -78 60 -164 60 l-76 0 0 78 c0 144 -50 192 -202 192 -68 0 -88 3 -88 14 0 25 -88 95 -135 108 l-45 12 0 79 c0 86 -13 122 -56 156 l-27 21 -1187 0 -1187 0 -27 -21z"/>
 </g>
<g id="layer102" fill="#3e3f6f" stroke="none">
 <path d="M1430 4360 l0 -70 1068 2 1067 3 0 65 0 65 -1067 3 -1068 2 0 -70z"/>
 <path d="M1252 4144 l-22 -15 0 -1369 0 -1369 22 -15 c20 -14 161 -16 1310 -16 1275 0 1288 0 1308 20 20 20 20 33 20 1380 0 1347 0 1360 -20 1380 -20 20 -33 20 -1308 20 -1149 0 -1290 -2 -1310 -16z m804 -145 c67 -21 160 -78 213 -130 121 -120 181 -309 147 -468 -42 -199 -165 -343 -350 -410 -98 -35 -240 -36 -338 -3 -228 79 -381 301 -365 532 24 351 358 582 693 479z m1344 -5 c149 -49 273 -173 328 -327 36 -100 37 -242 4 -339 -56 -163 -178 -284 -341 -340 -97 -33 -239 -32 -338 4 -183 66 -307 211 -349 410 -26 123 2 262 74 374 140 214 378 298 622 218z m-1333 -1467 c368 -128 477 -601 202 -876 -185 -185 -484 -206 -695 -48 -163 123 -247 349 -200 537 54 214 208 364 421 410 69 15 193 5 272 -23z m1327 4 c162 -57 282 -177 338 -339 32 -95 32 -230 -1 -329 -52 -159 -177 -285 -335 -339 -346 -116 -703 142 -700 506 2 246 167 452 414 516 73 18 207 11 284 -15z"/>
 <path d="M1760 3869 c-104 -37 -104 -38 -19 -126 41 -43 77 -79 82 -81 4 -2 7 48 7 112 0 64 -3 116 -7 115 -5 0 -33 -9 -63 -20z"/>
 <path d="M1960 3773 l0 -118 80 80 c44 44 80 82 80 86 0 6 -98 52 -137 64 -23 6 -23 6 -23 -112z"/>
 <path d="M1537 3668 c-14 -29 -28 -65 -31 -80 l-6 -28 117 0 118 0 -80 80 c-44 44 -83 80 -87 80 -3 0 -18 -24 -31 -52z"/>
 <path d="M2135 3640 l-80 -80 118 0 c118 0 118 0 112 23 -12 39 -58 137 -64 137 -4 0 -42 -36 -86 -80z"/>
 <path d="M1500 3415 c0 -25 59 -147 69 -143 11 3 161 148 161 154 0 2 -52 4 -115 4 -96 0 -115 -2 -115 -15z"/>
 <path d="M2062 3423 c2 -5 38 -41 81 -82 73 -71 78 -74 92 -55 13 17 55 123 55 138 0 3 -52 6 -116 6 -64 0 -114 -3 -112 -7z"/>
 <path d="M1743 3251 c-40 -43 -73 -81 -73 -85 0 -9 124 -66 145 -66 13 0 15 19 15 115 0 63 -3 114 -7 114 -5 -1 -41 -36 -80 -78z"/>
 <path d="M1960 3217 l0 -117 28 6 c35 8 132 53 132 62 0 4 -36 43 -80 87 l-80 80 0 -118z"/>
 <path d="M3130 3883 c-45 -16 -130 -57 -130 -62 0 -4 36 -42 80 -86 l80 -80 0 118 c0 64 -3 117 -7 116 -5 0 -15 -3 -23 -6z"/>
 <path d="M3290 3775 c0 -64 3 -115 8 -113 4 2 40 38 81 81 71 74 74 78 55 92 -10 8 -41 22 -69 31 -27 9 -56 19 -62 22 -10 3 -13 -23 -13 -113z"/>
 <path d="M2867 3663 c-49 -112 -56 -103 80 -103 l118 0 -80 80 c-44 44 -82 80 -86 80 -3 0 -18 -26 -32 -57z"/>
 <path d="M3465 3640 l-80 -80 118 0 117 0 -6 28 c-8 35 -53 132 -62 132 -4 0 -43 -36 -87 -80z"/>
 <path d="M2830 3424 c0 -15 42 -121 55 -138 14 -19 19 -16 92 55 43 41 80 77 81 82 2 4 -48 7 -112 7 -64 0 -116 -3 -116 -6z"/>
 <path d="M3390 3426 c0 -6 150 -151 161 -154 10 -4 69 118 69 143 0 13 -19 15 -115 15 -63 0 -115 -2 -115 -4z"/>
 <path d="M3075 3250 c-66 -66 -77 -82 -65 -91 23 -16 92 -46 123 -53 l27 -6 0 115 c0 63 -1 115 -3 115 -1 0 -38 -36 -82 -80z"/>
 <path d="M3290 3215 c0 -96 2 -115 15 -115 25 0 147 59 143 69 -3 11 -148 161 -154 161 -2 0 -4 -52 -4 -115z"/>
 <path d="M1732 2390 c-35 -16 -62 -34 -60 -39 3 -11 148 -161 154 -161 2 0 4 52 4 115 0 134 3 132 -98 85z"/>
 <path d="M1960 2303 l0 -118 80 80 c44 44 80 83 80 87 0 9 -97 54 -132 62 l-28 6 0 -117z"/>
 <path d="M1529 2185 c-44 -98 -48 -95 88 -95 l118 0 -80 80 c-44 44 -83 80 -88 80 -4 0 -21 -29 -38 -65z"/>
 <path d="M2135 2170 l-80 -80 118 0 c64 0 117 4 117 9 0 20 -60 151 -69 151 -4 0 -42 -36 -86 -80z"/>
 <path d="M1506 1933 c8 -36 53 -133 62 -133 4 0 43 36 87 80 l80 80 -118 0 -117 0 6 -27z"/>
 <path d="M2135 1880 c44 -44 82 -80 86 -80 6 0 52 98 64 138 6 22 6 22 -112 22 l-118 0 80 -80z"/>
 <path d="M1741 1779 c-84 -90 -84 -92 14 -125 28 -9 56 -19 63 -22 9 -3 12 23 12 112 0 64 -3 116 -7 115 -5 0 -41 -36 -82 -80z"/>
 <path d="M1960 1747 c0 -118 0 -118 23 -112 39 12 137 58 137 64 0 4 -36 42 -80 86 l-80 80 0 -118z"/>
 <path d="M3104 2406 c-43 -14 -104 -46 -104 -56 0 -3 36 -41 80 -85 l80 -80 0 118 c0 64 -3 117 -7 116 -5 0 -26 -6 -49 -13z"/>
 <path d="M3290 2305 c0 -63 2 -115 4 -115 6 0 151 150 154 161 4 10 -118 69 -143 69 -13 0 -15 -19 -15 -115z"/>
 <path d="M2877 2218 c-25 -53 -47 -110 -47 -119 0 -5 53 -9 117 -9 l118 0 -80 80 c-44 44 -82 80 -86 80 -4 0 -14 -15 -22 -32z"/>
 <path d="M3465 2170 l-80 -80 118 0 c98 0 117 2 117 15 0 22 -57 145 -67 145 -5 0 -44 -36 -88 -80z"/>
 <path d="M2835 1938 c12 -40 58 -138 64 -138 4 0 42 36 86 80 l80 80 -118 0 c-118 0 -118 0 -112 -22z"/>
 <path d="M3465 1880 c44 -44 83 -80 87 -80 9 0 54 97 62 133 l6 27 -117 0 -118 0 80 -80z"/>
 <path d="M3077 1782 c-42 -42 -77 -80 -77 -83 0 -7 99 -52 138 -64 22 -6 22 -6 22 109 0 64 -1 116 -3 116 -1 0 -37 -35 -80 -78z"/>
 <path d="M3290 1745 c0 -90 3 -116 13 -113 6 3 35 13 62 22 28 9 59 23 69 31 19 14 16 18 -55 92 -41 43 -77 80 -81 81 -5 2 -8 -49 -8 -113z"/>
 <path d="M960 2795 l0 -1235 65 0 65 0 0 1235 0 1235 -65 0 -65 0 0 -1235z"/>
 <path d="M4030 2795 l0 -1235 65 0 65 0 0 1235 0 1235 -65 0 -65 0 0 -1235z"/>
 <path d="M690 2795 l0 -965 70 0 70 0 -2 963 -3 962 -67 3 -68 3 0 -966z"/>
 <path d="M4297 3753 c-4 -3 -7 -438 -7 -965 l0 -958 70 0 70 0 0 965 0 965 -63 0 c-35 0 -67 -3 -70 -7z"/>
 </g>
<g id="layer103" fill="#51414d" stroke="none">
 <path d="M1430 4360 l0 -70 1068 2 1067 3 0 65 0 65 -1067 3 -1068 2 0 -70z"/>
 <path d="M1273 4150 c-12 -5 -26 -18 -32 -29 -8 -14 -11 -432 -11 -1364 0 -1266 1 -1346 18 -1366 l17 -21 1239 0 c989 0 1241 2 1248 12 4 7 7 132 7 278 0 190 -3 256 -11 235 -37 -112 -69 -167 -143 -242 -107 -108 -231 -161 -375 -161 -148 -1 -273 52 -380 158 -215 213 -213 541 3 755 67 66 96 84 202 131 59 27 234 31 311 9 89 -25 170 -73 234 -136 67 -66 106 -128 137 -219 l22 -65 0 635 0 635 -22 -65 c-59 -174 -193 -303 -366 -354 -78 -23 -222 -21 -303 4 -216 66 -378 290 -378 518 1 222 139 413 365 504 76 30 254 33 330 5 94 -35 166 -81 227 -146 67 -71 101 -130 136 -236 8 -22 11 44 11 233 1 164 -3 271 -9 283 -11 19 -34 19 -1233 18 -679 0 -1232 -4 -1244 -9z m727 -131 c147 -30 298 -143 367 -275 39 -72 63 -167 63 -246 0 -228 -162 -452 -378 -518 -81 -25 -225 -27 -303 -4 -177 52 -321 196 -373 373 -26 89 -20 242 13 326 51 131 145 236 265 295 45 22 102 44 126 49 61 11 165 11 220 0z m65 -1482 c107 -48 135 -67 202 -132 172 -170 211 -418 101 -629 -41 -77 -145 -181 -224 -223 -103 -55 -251 -76 -363 -52 -168 37 -327 176 -392 344 -33 84 -39 237 -13 326 37 126 134 253 240 315 99 58 167 75 294 71 83 -2 126 -8 155 -20z"/>
 <path d="M1760 3869 c-104 -37 -104 -38 -19 -126 41 -43 77 -79 82 -81 4 -2 7 48 7 112 0 64 -3 116 -7 115 -5 0 -33 -9 -63 -20z"/>
 <path d="M1960 3773 l0 -118 80 80 c44 44 80 82 80 86 0 6 -98 52 -137 64 -23 6 -23 6 -23 -112z"/>
 <path d="M1537 3668 c-14 -29 -28 -65 -31 -80 l-6 -28 117 0 118 0 -80 80 c-44 44 -83 80 -87 80 -3 0 -18 -24 -31 -52z"/>
 <path d="M2135 3640 l-80 -80 118 0 c118 0 118 0 112 23 -12 39 -58 137 -64 137 -4 0 -42 -36 -86 -80z"/>
 <path d="M1500 3415 c0 -25 59 -147 69 -143 11 3 161 148 161 154 0 2 -52 4 -115 4 -96 0 -115 -2 -115 -15z"/>
 <path d="M2062 3423 c2 -5 38 -41 81 -82 73 -71 78 -74 92 -55 13 17 55 123 55 138 0 3 -52 6 -116 6 -64 0 -114 -3 -112 -7z"/>
 <path d="M1743 3251 c-40 -43 -73 -81 -73 -85 0 -9 124 -66 145 -66 13 0 15 19 15 115 0 63 -3 114 -7 114 -5 -1 -41 -36 -80 -78z"/>
 <path d="M1960 3217 l0 -117 28 6 c35 8 132 53 132 62 0 4 -36 43 -80 87 l-80 80 0 -118z"/>
 <path d="M1732 2390 c-35 -16 -62 -34 -60 -39 3 -11 148 -161 154 -161 2 0 4 52 4 115 0 134 3 132 -98 85z"/>
 <path d="M1960 2303 l0 -118 80 80 c44 44 80 83 80 87 0 9 -97 54 -132 62 l-28 6 0 -117z"/>
 <path d="M1529 2185 c-44 -98 -48 -95 88 -95 l118 0 -80 80 c-44 44 -83 80 -88 80 -4 0 -21 -29 -38 -65z"/>
 <path d="M2135 2170 l-80 -80 118 0 c64 0 117 4 117 9 0 20 -60 151 -69 151 -4 0 -42 -36 -86 -80z"/>
 <path d="M1506 1933 c8 -36 53 -133 62 -133 4 0 43 36 87 80 l80 80 -118 0 -117 0 6 -27z"/>
 <path d="M2135 1880 c44 -44 82 -80 86 -80 6 0 52 98 64 138 6 22 6 22 -112 22 l-118 0 80 -80z"/>
 <path d="M1741 1779 c-84 -90 -84 -92 14 -125 28 -9 56 -19 63 -22 9 -3 12 23 12 112 0 64 -3 116 -7 115 -5 0 -41 -36 -82 -80z"/>
 <path d="M1960 1747 c0 -118 0 -118 23 -112 39 12 137 58 137 64 0 4 -36 42 -80 86 l-80 80 0 -118z"/>
 <path d="M962 2793 l3 -1228 63 -3 62 -3 0 1231 0 1230 -65 0 -65 0 2 -1227z"/>
 <path d="M4030 2790 l0 -1231 63 3 62 3 3 1228 2 1227 -65 0 -65 0 0 -1230z"/>
 <path d="M3130 3883 c-45 -16 -130 -57 -130 -62 0 -4 36 -42 80 -86 l80 -80 0 118 c0 64 -3 117 -7 116 -5 0 -15 -3 -23 -6z"/>
 <path d="M3290 3775 c0 -64 3 -115 8 -113 4 2 40 38 81 81 71 74 74 78 55 92 -10 8 -41 22 -69 31 -27 9 -56 19 -62 22 -10 3 -13 -23 -13 -113z"/>
 <path d="M690 2795 l0 -965 70 0 70 0 -2 963 -3 962 -67 3 -68 3 0 -966z"/>
 <path d="M4297 3753 c-4 -3 -7 -438 -7 -965 l0 -958 70 0 70 0 0 965 0 965 -63 0 c-35 0 -67 -3 -70 -7z"/>
 <path d="M2867 3663 c-49 -112 -56 -103 80 -103 l118 0 -80 80 c-44 44 -82 80 -86 80 -3 0 -18 -26 -32 -57z"/>
 <path d="M3465 3640 l-80 -80 118 0 117 0 -6 28 c-8 35 -53 132 -62 132 -4 0 -43 -36 -87 -80z"/>
 <path d="M2830 3424 c0 -15 42 -121 55 -138 14 -19 19 -16 92 55 43 41 80 77 81 82 2 4 -48 7 -112 7 -64 0 -116 -3 -116 -6z"/>
 <path d="M3390 3426 c0 -6 150 -151 161 -154 10 -4 69 118 69 143 0 13 -19 15 -115 15 -63 0 -115 -2 -115 -4z"/>
 <path d="M3075 3250 c-66 -66 -77 -82 -65 -91 23 -16 92 -46 123 -53 l27 -6 0 115 c0 63 -1 115 -3 115 -1 0 -38 -36 -82 -80z"/>
 <path d="M3290 3215 c0 -96 2 -115 15 -115 25 0 147 59 143 69 -3 11 -148 161 -154 161 -2 0 -4 -52 -4 -115z"/>
 <path d="M3104 2406 c-43 -14 -104 -46 -104 -56 0 -3 36 -41 80 -85 l80 -80 0 118 c0 64 -3 117 -7 116 -5 0 -26 -6 -49 -13z"/>
 <path d="M3290 2305 c0 -63 2 -115 4 -115 6 0 151 150 154 161 4 10 -118 69 -143 69 -13 0 -15 -19 -15 -115z"/>
 <path d="M2877 2218 c-25 -53 -47 -110 -47 -119 0 -5 53 -9 117 -9 l118 0 -80 80 c-44 44 -82 80 -86 80 -4 0 -14 -15 -22 -32z"/>
 <path d="M3465 2170 l-80 -80 118 0 c98 0 117 2 117 15 0 22 -57 145 -67 145 -5 0 -44 -36 -88 -80z"/>
 <path d="M2835 1938 c12 -40 58 -138 64 -138 4 0 42 36 86 80 l80 80 -118 0 c-118 0 -118 0 -112 -22z"/>
 <path d="M3465 1880 c44 -44 83 -80 87 -80 9 0 54 97 62 133 l6 27 -117 0 -118 0 80 -80z"/>
 <path d="M3077 1782 c-42 -42 -77 -80 -77 -83 0 -7 99 -52 138 -64 22 -6 22 -6 22 109 0 64 -1 116 -3 116 -1 0 -37 -35 -80 -78z"/>
 <path d="M3290 1745 c0 -90 3 -116 13 -113 6 3 35 13 62 22 28 9 59 23 69 31 19 14 16 18 -55 92 -41 43 -77 80 -81 81 -5 2 -8 -49 -8 -113z"/>
 </g>
<g id="layer104" fill="#ffc872" stroke="none">
 <path d="M1273 4150 c-12 -5 -26 -18 -32 -29 -8 -14 -11 -432 -11 -1364 0 -1266 1 -1346 18 -1366 l17 -21 1239 0 c989 0 1241 2 1248 12 4 7 7 132 7 278 0 190 -3 256 -11 235 -37 -112 -69 -167 -143 -242 -107 -108 -231 -161 -375 -161 -148 -1 -273 52 -380 158 -215 213 -213 541 3 755 67 66 96 84 202 131 59 27 234 31 311 9 89 -25 170 -73 234 -136 67 -66 106 -128 137 -219 l22 -65 0 635 0 635 -22 -65 c-59 -174 -193 -303 -366 -354 -78 -23 -222 -21 -303 4 -216 66 -378 290 -378 518 1 222 139 413 365 504 76 30 254 33 330 5 94 -35 166 -81 227 -146 67 -71 101 -130 136 -236 8 -22 11 44 11 233 1 164 -3 271 -9 283 -11 19 -34 19 -1233 18 -679 0 -1232 -4 -1244 -9z m727 -131 c147 -30 298 -143 367 -275 39 -72 63 -167 63 -246 0 -228 -162 -452 -378 -518 -81 -25 -225 -27 -303 -4 -177 52 -321 196 -373 373 -26 89 -20 242 13 326 51 131 145 236 265 295 45 22 102 44 126 49 61 11 165 11 220 0z m65 -1482 c107 -48 135 -67 202 -132 172 -170 211 -418 101 -629 -41 -77 -145 -181 -224 -223 -103 -55 -251 -76 -363 -52 -168 37 -327 176 -392 344 -33 84 -39 237 -13 326 37 126 134 253 240 315 99 58 167 75 294 71 83 -2 126 -8 155 -20z"/>
 <path d="M1728 3854 c-32 -15 -58 -30 -58 -33 0 -4 34 -40 75 -81 55 -54 76 -70 80 -59 3 9 5 56 3 105 -4 106 -9 109 -100 68z"/>
 <path d="M1960 3768 l0 -113 79 80 c44 43 77 83 74 88 -9 14 -106 57 -130 57 -23 0 -23 -2 -23 -112z"/>
 <path d="M1537 3668 c-14 -29 -28 -65 -31 -80 l-6 -28 117 0 118 0 -80 80 c-44 44 -83 80 -87 80 -3 0 -18 -24 -31 -52z"/>
 <path d="M2135 3639 l-80 -79 113 0 c110 0 112 0 112 23 0 24 -43 121 -57 130 -5 3 -45 -30 -88 -74z"/>
 <path d="M1506 3403 c9 -41 52 -133 61 -133 15 0 154 146 147 153 -4 4 -54 7 -111 7 l-103 0 6 -27z"/>
 <path d="M2077 3423 c-7 -7 130 -153 144 -153 11 0 61 120 57 138 -3 14 -18 17 -99 20 -52 1 -98 -1 -102 -5z"/>
 <path d="M1960 3217 l0 -117 28 6 c35 8 132 53 132 62 0 4 -36 43 -80 87 l-80 80 0 -118z"/>
 <path d="M1742 3247 c-40 -40 -72 -76 -72 -80 0 -9 67 -43 112 -55 30 -8 38 -7 42 5 9 23 7 191 -2 197 -5 3 -41 -27 -80 -67z"/>
 <path d="M1775 2405 c-49 -14 -105 -43 -105 -53 0 -14 146 -153 153 -146 9 10 9 186 -1 200 -5 8 -18 8 -47 -1z"/>
 <path d="M1960 2310 c0 -60 3 -110 6 -110 9 0 154 142 154 151 0 9 -95 55 -132 63 l-28 6 0 -110z"/>
 <path d="M1541 2213 c-32 -63 -42 -111 -24 -117 21 -8 188 -7 197 1 7 7 -132 153 -146 153 -4 0 -16 -17 -27 -37z"/>
 <path d="M2135 2170 l-80 -81 110 3 c95 3 110 5 113 20 4 18 -46 138 -57 138 -4 0 -42 -36 -86 -80z"/>
 <path d="M1506 1933 c8 -38 54 -133 63 -133 9 0 151 145 151 154 0 3 -50 6 -110 6 l-110 0 6 -27z"/>
 <path d="M2135 1881 c43 -44 83 -77 88 -74 14 9 57 106 57 131 0 22 -2 22 -112 22 l-113 0 80 -79z"/>
 <path d="M1960 1752 c0 -110 0 -112 23 -112 24 0 121 43 130 57 3 5 -30 45 -74 88 l-79 80 0 -113z"/>
 <path d="M1742 1777 c-40 -40 -72 -75 -72 -78 0 -11 120 -60 138 -57 14 3 17 18 20 97 1 52 -1 98 -5 102 -5 5 -41 -24 -81 -64z"/>
 <path d="M962 2793 l3 -1228 63 -3 62 -3 0 1231 0 1230 -65 0 -65 0 2 -1227z"/>
 <path d="M4030 2790 l0 -1231 63 3 62 3 3 1228 2 1227 -65 0 -65 0 0 -1230z"/>
 <path d="M3064 3856 c-28 -13 -54 -28 -57 -33 -3 -5 30 -45 74 -88 l79 -80 0 113 c0 110 0 112 -22 112 -13 0 -46 -11 -74 -24z"/>
 <path d="M3297 3873 c-9 -9 -9 -188 0 -197 7 -6 153 132 153 145 0 8 -113 59 -132 59 -8 0 -18 -3 -21 -7z"/>
 <path d="M690 2795 l0 -965 70 0 70 0 -2 963 -3 962 -67 3 -68 3 0 -966z"/>
 <path d="M4297 3753 c-4 -3 -7 -438 -7 -965 l0 -958 70 0 70 0 0 965 0 965 -63 0 c-35 0 -67 -3 -70 -7z"/>
 <path d="M2892 3707 c-19 -23 -52 -101 -52 -124 0 -23 2 -23 112 -23 l113 0 -80 80 c-44 44 -80 80 -81 80 -1 0 -6 -6 -12 -13z"/>
 <path d="M3465 3640 l-80 -80 118 0 117 0 -6 28 c-8 35 -53 132 -62 132 -4 0 -43 -36 -87 -80z"/>
 <path d="M2847 3423 c-4 -3 -7 -13 -7 -21 0 -19 51 -132 59 -132 13 0 151 146 145 153 -9 9 -188 9 -197 0z"/>
 <path d="M3406 3423 c-7 -7 132 -153 147 -153 9 0 52 92 61 133 l6 27 -103 0 c-57 0 -107 -3 -111 -7z"/>
 <path d="M3075 3250 c-66 -66 -77 -82 -65 -91 23 -16 92 -46 123 -53 l27 -6 0 115 c0 63 -1 115 -3 115 -1 0 -38 -36 -82 -80z"/>
 <path d="M3297 3314 c-8 -9 -9 -176 -1 -197 4 -12 12 -13 42 -5 46 13 112 46 112 56 0 14 -146 153 -153 146z"/>
 <path d="M3104 2406 c-44 -14 -104 -46 -104 -56 0 -8 146 -150 154 -150 3 0 6 50 6 110 0 61 -3 110 -7 109 -5 0 -26 -6 -49 -13z"/>
 <path d="M3296 2403 c-8 -21 -7 -188 1 -197 7 -7 153 132 153 146 0 10 -66 43 -112 56 -30 8 -38 7 -42 -5z"/>
 <path d="M2866 2190 c-42 -93 -40 -95 89 -98 l110 -3 -80 81 c-44 44 -82 80 -86 80 -3 0 -18 -27 -33 -60z"/>
 <path d="M3472 2177 c-40 -40 -69 -76 -66 -80 9 -8 176 -9 197 -1 12 4 13 12 5 42 -13 46 -46 112 -56 112 -4 0 -40 -33 -80 -73z"/>
 <path d="M2840 1938 c0 -25 43 -122 57 -131 5 -3 45 30 88 74 l80 79 -113 0 c-110 0 -112 0 -112 -22z"/>
 <path d="M3400 1954 c0 -9 142 -154 151 -154 9 0 55 95 63 133 l6 27 -110 0 c-60 0 -110 -3 -110 -6z"/>
 <path d="M3077 1782 c-63 -64 -76 -81 -64 -90 23 -19 101 -52 125 -52 21 0 22 3 22 110 0 61 -1 110 -3 110 -1 0 -37 -35 -80 -78z"/>
 <path d="M3295 1839 c-3 -9 -5 -56 -3 -105 3 -75 6 -89 20 -92 18 -4 138 46 138 57 0 4 -34 40 -75 81 -55 54 -76 70 -80 59z"/>
 </g>
<g id="layer105" fill="#575888" stroke="none">
 <path d="M1273 4150 c-12 -5 -26 -18 -32 -29 -8 -14 -11 -432 -11 -1364 0 -1266 1 -1346 18 -1366 l17 -21 1239 0 c989 0 1241 2 1248 12 4 7 7 132 7 278 0 190 -3 256 -11 235 -37 -112 -69 -167 -143 -242 -107 -108 -231 -161 -375 -161 -148 -1 -273 52 -380 158 -215 213 -213 541 3 755 67 66 96 84 202 131 59 27 234 31 311 9 89 -25 170 -73 234 -136 67 -66 106 -128 137 -219 l22 -65 0 635 0 635 -22 -65 c-59 -174 -193 -303 -366 -354 -78 -23 -222 -21 -303 4 -216 66 -378 290 -378 518 1 222 139 413 365 504 76 30 254 33 330 5 94 -35 166 -81 227 -146 67 -71 101 -130 136 -236 8 -22 11 44 11 233 1 164 -3 271 -9 283 -11 19 -34 19 -1233 18 -679 0 -1232 -4 -1244 -9z m727 -131 c147 -30 298 -143 367 -275 39 -72 63 -167 63 -246 0 -228 -162 -452 -378 -518 -81 -25 -225 -27 -303 -4 -177 52 -321 196 -373 373 -26 89 -20 242 13 326 51 131 145 236 265 295 45 22 102 44 126 49 61 11 165 11 220 0z m65 -1482 c107 -48 135 -67 202 -132 172 -170 211 -418 101 -629 -41 -77 -145 -181 -224 -223 -103 -55 -251 -76 -363 -52 -168 37 -327 176 -392 344 -33 84 -39 237 -13 326 37 126 134 253 240 315 99 58 167 75 294 71 83 -2 126 -8 155 -20z"/>
 <path d="M1728 3854 c-32 -15 -58 -30 -58 -33 0 -4 34 -40 75 -81 55 -54 76 -70 80 -59 3 9 5 56 3 105 -4 106 -9 109 -100 68z"/>
 <path d="M1960 3768 l0 -113 79 80 c44 43 77 83 74 88 -9 14 -106 57 -130 57 -23 0 -23 -2 -23 -112z"/>
 <path d="M1537 3668 c-14 -29 -28 -65 -31 -80 l-6 -28 117 0 118 0 -80 80 c-44 44 -83 80 -87 80 -3 0 -18 -24 -31 -52z"/>
 <path d="M2135 3639 l-80 -79 113 0 c110 0 112 0 112 23 0 24 -43 121 -57 130 -5 3 -45 -30 -88 -74z"/>
 <path d="M1506 3403 c9 -41 52 -133 61 -133 15 0 154 146 147 153 -4 4 -54 7 -111 7 l-103 0 6 -27z"/>
 <path d="M2077 3423 c-7 -7 130 -153 144 -153 11 0 61 120 57 138 -3 14 -18 17 -99 20 -52 1 -98 -1 -102 -5z"/>
 <path d="M1960 3217 l0 -117 28 6 c35 8 132 53 132 62 0 4 -36 43 -80 87 l-80 80 0 -118z"/>
 <path d="M1742 3247 c-40 -40 -72 -76 -72 -80 0 -9 67 -43 112 -55 30 -8 38 -7 42 5 9 23 7 191 -2 197 -5 3 -41 -27 -80 -67z"/>
 <path d="M1775 2405 c-49 -14 -105 -43 -105 -53 0 -14 146 -153 153 -146 9 10 9 186 -1 200 -5 8 -18 8 -47 -1z"/>
 <path d="M1960 2310 c0 -60 3 -110 6 -110 9 0 154 142 154 151 0 9 -95 55 -132 63 l-28 6 0 -110z"/>
 <path d="M1541 2213 c-32 -63 -42 -111 -24 -117 21 -8 188 -7 197 1 7 7 -132 153 -146 153 -4 0 -16 -17 -27 -37z"/>
 <path d="M2135 2170 l-80 -81 110 3 c95 3 110 5 113 20 4 18 -46 138 -57 138 -4 0 -42 -36 -86 -80z"/>
 <path d="M1506 1933 c8 -38 54 -133 63 -133 9 0 151 145 151 154 0 3 -50 6 -110 6 l-110 0 6 -27z"/>
 <path d="M2135 1881 c43 -44 83 -77 88 -74 14 9 57 106 57 131 0 22 -2 22 -112 22 l-113 0 80 -79z"/>
 <path d="M1960 1752 c0 -110 0 -112 23 -112 24 0 121 43 130 57 3 5 -30 45 -74 88 l-79 80 0 -113z"/>
 <path d="M1742 1777 c-40 -40 -72 -75 -72 -78 0 -11 120 -60 138 -57 14 3 17 18 20 97 1 52 -1 98 -5 102 -5 5 -41 -24 -81 -64z"/>
 <path d="M962 2793 l3 -1228 63 -3 62 -3 0 1231 0 1230 -65 0 -65 0 2 -1227z"/>
 <path d="M4030 2790 l0 -1231 63 3 62 3 3 1228 2 1227 -65 0 -65 0 0 -1230z"/>
 <path d="M3064 3856 c-28 -13 -54 -28 -57 -33 -3 -5 30 -45 74 -88 l79 -80 0 113 c0 110 0 112 -22 112 -13 0 -46 -11 -74 -24z"/>
 <path d="M3297 3873 c-9 -9 -9 -188 0 -197 7 -6 153 132 153 145 0 8 -113 59 -132 59 -8 0 -18 -3 -21 -7z"/>
 <path d="M2892 3707 c-19 -23 -52 -101 -52 -124 0 -23 2 -23 112 -23 l113 0 -80 80 c-44 44 -80 80 -81 80 -1 0 -6 -6 -12 -13z"/>
 <path d="M3465 3640 l-80 -80 118 0 117 0 -6 28 c-8 35 -53 132 -62 132 -4 0 -43 -36 -87 -80z"/>
 <path d="M2847 3423 c-4 -3 -7 -13 -7 -21 0 -19 51 -132 59 -132 13 0 151 146 145 153 -9 9 -188 9 -197 0z"/>
 <path d="M3406 3423 c-7 -7 132 -153 147 -153 9 0 52 92 61 133 l6 27 -103 0 c-57 0 -107 -3 -111 -7z"/>
 <path d="M3075 3250 c-66 -66 -77 -82 -65 -91 23 -16 92 -46 123 -53 l27 -6 0 115 c0 63 -1 115 -3 115 -1 0 -38 -36 -82 -80z"/>
 <path d="M3297 3314 c-8 -9 -9 -176 -1 -197 4 -12 12 -13 42 -5 46 13 112 46 112 56 0 14 -146 153 -153 146z"/>
 <path d="M3104 2406 c-44 -14 -104 -46 -104 -56 0 -8 146 -150 154 -150 3 0 6 50 6 110 0 61 -3 110 -7 109 -5 0 -26 -6 -49 -13z"/>
 <path d="M3296 2403 c-8 -21 -7 -188 1 -197 7 -7 153 132 153 146 0 10 -66 43 -112 56 -30 8 -38 7 -42 -5z"/>
 <path d="M2866 2190 c-42 -93 -40 -95 89 -98 l110 -3 -80 81 c-44 44 -82 80 -86 80 -3 0 -18 -27 -33 -60z"/>
 <path d="M3472 2177 c-40 -40 -69 -76 -66 -80 9 -8 176 -9 197 -1 12 4 13 12 5 42 -13 46 -46 112 -56 112 -4 0 -40 -33 -80 -73z"/>
 <path d="M2840 1938 c0 -25 43 -122 57 -131 5 -3 45 30 88 74 l80 79 -113 0 c-110 0 -112 0 -112 -22z"/>
 <path d="M3400 1954 c0 -9 142 -154 151 -154 9 0 55 95 63 133 l6 27 -110 0 c-60 0 -110 -3 -110 -6z"/>
 <path d="M3077 1782 c-63 -64 -76 -81 -64 -90 23 -19 101 -52 125 -52 21 0 22 3 22 110 0 61 -1 110 -3 110 -1 0 -37 -35 -80 -78z"/>
 <path d="M3295 1839 c-3 -9 -5 -56 -3 -105 3 -75 6 -89 20 -92 18 -4 138 46 138 57 0 4 -34 40 -75 81 -55 54 -76 70 -80 59z"/>
 </g>
<g id="layer106" fill="#51414d" stroke="none">
 <path d="M962 2793 l3 -1228 63 -3 62 -3 0 1231 0 1230 -65 0 -65 0 2 -1227z"/>
 <path d="M4030 2790 l0 -1231 63 3 62 3 3 1228 2 1227 -65 0 -65 0 0 -1230z"/>
 <path d="M1728 3854 c-32 -15 -58 -30 -58 -33 0 -4 34 -40 75 -81 55 -54 76 -70 80 -59 3 9 5 56 3 105 -4 106 -9 109 -100 68z"/>
 <path d="M1960 3768 l0 -113 79 80 c44 43 77 83 74 88 -9 14 -106 57 -130 57 -23 0 -23 -2 -23 -112z"/>
 <path d="M3064 3856 c-28 -13 -54 -28 -57 -33 -3 -5 30 -45 74 -88 l79 -80 0 113 c0 110 0 112 -22 112 -13 0 -46 -11 -74 -24z"/>
 <path d="M3297 3873 c-9 -9 -9 -188 0 -197 7 -6 153 132 153 145 0 8 -113 59 -132 59 -8 0 -18 -3 -21 -7z"/>
 <path d="M1537 3668 c-14 -29 -28 -65 -31 -80 l-6 -28 117 0 118 0 -80 80 c-44 44 -83 80 -87 80 -3 0 -18 -24 -31 -52z"/>
 <path d="M2135 3639 l-80 -79 113 0 c110 0 112 0 112 23 0 24 -43 121 -57 130 -5 3 -45 -30 -88 -74z"/>
 <path d="M2892 3707 c-19 -23 -52 -101 -52 -124 0 -23 2 -23 112 -23 l113 0 -80 80 c-44 44 -80 80 -81 80 -1 0 -6 -6 -12 -13z"/>
 <path d="M3465 3640 l-80 -80 118 0 117 0 -6 28 c-8 35 -53 132 -62 132 -4 0 -43 -36 -87 -80z"/>
 <path d="M1506 3403 c9 -41 52 -133 61 -133 15 0 154 146 147 153 -4 4 -54 7 -111 7 l-103 0 6 -27z"/>
 <path d="M2077 3423 c-7 -7 130 -153 144 -153 11 0 61 120 57 138 -3 14 -18 17 -99 20 -52 1 -98 -1 -102 -5z"/>
 <path d="M2847 3423 c-4 -3 -7 -13 -7 -21 0 -19 51 -132 59 -132 13 0 151 146 145 153 -9 9 -188 9 -197 0z"/>
 <path d="M3406 3423 c-7 -7 132 -153 147 -153 9 0 52 92 61 133 l6 27 -103 0 c-57 0 -107 -3 -111 -7z"/>
 <path d="M1960 3217 l0 -117 28 6 c35 8 132 53 132 62 0 4 -36 43 -80 87 l-80 80 0 -118z"/>
 <path d="M3075 3250 c-66 -66 -77 -82 -65 -91 23 -16 92 -46 123 -53 l27 -6 0 115 c0 63 -1 115 -3 115 -1 0 -38 -36 -82 -80z"/>
 <path d="M1742 3247 c-40 -40 -72 -76 -72 -80 0 -9 67 -43 112 -55 30 -8 38 -7 42 5 9 23 7 191 -2 197 -5 3 -41 -27 -80 -67z"/>
 <path d="M3297 3314 c-8 -9 -9 -176 -1 -197 4 -12 12 -13 42 -5 46 13 112 46 112 56 0 14 -146 153 -153 146z"/>
 <path d="M1775 2405 c-49 -14 -105 -43 -105 -53 0 -14 146 -153 153 -146 9 10 9 186 -1 200 -5 8 -18 8 -47 -1z"/>
 <path d="M1960 2310 c0 -60 3 -110 6 -110 9 0 154 142 154 151 0 9 -95 55 -132 63 l-28 6 0 -110z"/>
 <path d="M3104 2406 c-44 -14 -104 -46 -104 -56 0 -8 146 -150 154 -150 3 0 6 50 6 110 0 61 -3 110 -7 109 -5 0 -26 -6 -49 -13z"/>
 <path d="M3296 2403 c-8 -21 -7 -188 1 -197 7 -7 153 132 153 146 0 10 -66 43 -112 56 -30 8 -38 7 -42 -5z"/>
 <path d="M1541 2213 c-32 -63 -42 -111 -24 -117 21 -8 188 -7 197 1 7 7 -132 153 -146 153 -4 0 -16 -17 -27 -37z"/>
 <path d="M2135 2170 l-80 -81 110 3 c95 3 110 5 113 20 4 18 -46 138 -57 138 -4 0 -42 -36 -86 -80z"/>
 <path d="M2866 2190 c-42 -93 -40 -95 89 -98 l110 -3 -80 81 c-44 44 -82 80 -86 80 -3 0 -18 -27 -33 -60z"/>
 <path d="M3472 2177 c-40 -40 -69 -76 -66 -80 9 -8 176 -9 197 -1 12 4 13 12 5 42 -13 46 -46 112 -56 112 -4 0 -40 -33 -80 -73z"/>
 <path d="M1506 1933 c8 -38 54 -133 63 -133 9 0 151 145 151 154 0 3 -50 6 -110 6 l-110 0 6 -27z"/>
 <path d="M2135 1881 c43 -44 83 -77 88 -74 14 9 57 106 57 131 0 22 -2 22 -112 22 l-113 0 80 -79z"/>
 <path d="M2840 1938 c0 -25 43 -122 57 -131 5 -3 45 30 88 74 l80 79 -113 0 c-110 0 -112 0 -112 -22z"/>
 <path d="M3400 1954 c0 -9 142 -154 151 -154 9 0 55 95 63 133 l6 27 -110 0 c-60 0 -110 -3 -110 -6z"/>
 <path d="M1960 1752 c0 -110 0 -112 23 -112 24 0 121 43 130 57 3 5 -30 45 -74 88 l-79 80 0 -113z"/>
 <path d="M3077 1782 c-63 -64 -76 -81 -64 -90 23 -19 101 -52 125 -52 21 0 22 3 22 110 0 61 -1 110 -3 110 -1 0 -37 -35 -80 -78z"/>
 <path d="M1742 1777 c-40 -40 -72 -75 -72 -78 0 -11 120 -60 138 -57 14 3 17 18 20 97 1 52 -1 98 -5 102 -5 5 -41 -24 -81 -64z"/>
 <path d="M3295 1839 c-3 -9 -5 -56 -3 -105 3 -75 6 -89 20 -92 18 -4 138 46 138 57 0 4 -34 40 -75 81 -55 54 -76 70 -80 59z"/>
 </g>
<g id="layer107" fill="#ecae58" stroke="none">
 <path d="M1728 3854 c-32 -15 -58 -30 -58 -33 0 -4 34 -40 75 -81 55 -54 76 -70 80 -59 3 9 5 56 3 105 -4 106 -9 109 -100 68z"/>
 <path d="M1960 3768 l0 -113 79 80 c44 43 77 83 74 88 -9 14 -106 57 -130 57 -23 0 -23 -2 -23 -112z"/>
 <path d="M3064 3856 c-28 -13 -54 -28 -57 -33 -3 -5 30 -45 74 -88 l79 -80 0 113 c0 110 0 112 -22 112 -13 0 -46 -11 -74 -24z"/>
 <path d="M3297 3873 c-9 -9 -9 -188 0 -197 7 -6 153 132 153 145 0 8 -113 59 -132 59 -8 0 -18 -3 -21 -7z"/>
 <path d="M1537 3668 c-14 -29 -28 -65 -31 -80 l-6 -28 117 0 118 0 -80 80 c-44 44 -83 80 -87 80 -3 0 -18 -24 -31 -52z"/>
 <path d="M2135 3639 l-80 -79 113 0 c110 0 112 0 112 23 0 24 -43 121 -57 130 -5 3 -45 -30 -88 -74z"/>
 <path d="M2892 3707 c-19 -23 -52 -101 -52 -124 0 -23 2 -23 112 -23 l113 0 -80 80 c-44 44 -80 80 -81 80 -1 0 -6 -6 -12 -13z"/>
 <path d="M3465 3640 l-80 -80 118 0 117 0 -6 28 c-8 35 -53 132 -62 132 -4 0 -43 -36 -87 -80z"/>
 <path d="M1506 3403 c9 -41 52 -133 61 -133 15 0 154 146 147 153 -4 4 -54 7 -111 7 l-103 0 6 -27z"/>
 <path d="M2077 3423 c-7 -7 130 -153 144 -153 11 0 61 120 57 138 -3 14 -18 17 -99 20 -52 1 -98 -1 -102 -5z"/>
 <path d="M2847 3423 c-4 -3 -7 -13 -7 -21 0 -19 51 -132 59 -132 13 0 151 146 145 153 -9 9 -188 9 -197 0z"/>
 <path d="M3406 3423 c-7 -7 132 -153 147 -153 9 0 52 92 61 133 l6 27 -103 0 c-57 0 -107 -3 -111 -7z"/>
 <path d="M1960 3217 l0 -117 28 6 c35 8 132 53 132 62 0 4 -36 43 -80 87 l-80 80 0 -118z"/>
 <path d="M3075 3250 c-66 -66 -77 -82 -65 -91 23 -16 92 -46 123 -53 l27 -6 0 115 c0 63 -1 115 -3 115 -1 0 -38 -36 -82 -80z"/>
 <path d="M1742 3247 c-40 -40 -72 -76 -72 -80 0 -9 67 -43 112 -55 30 -8 38 -7 42 5 9 23 7 191 -2 197 -5 3 -41 -27 -80 -67z"/>
 <path d="M3297 3314 c-8 -9 -9 -176 -1 -197 4 -12 12 -13 42 -5 46 13 112 46 112 56 0 14 -146 153 -153 146z"/>
 <path d="M1775 2405 c-49 -14 -105 -43 -105 -53 0 -14 146 -153 153 -146 9 10 9 186 -1 200 -5 8 -18 8 -47 -1z"/>
 <path d="M1960 2310 c0 -60 3 -110 6 -110 9 0 154 142 154 151 0 9 -95 55 -132 63 l-28 6 0 -110z"/>
 <path d="M3104 2406 c-44 -14 -104 -46 -104 -56 0 -8 146 -150 154 -150 3 0 6 50 6 110 0 61 -3 110 -7 109 -5 0 -26 -6 -49 -13z"/>
 <path d="M3296 2403 c-8 -21 -7 -188 1 -197 7 -7 153 132 153 146 0 10 -66 43 -112 56 -30 8 -38 7 -42 -5z"/>
 <path d="M1541 2213 c-32 -63 -42 -111 -24 -117 21 -8 188 -7 197 1 7 7 -132 153 -146 153 -4 0 -16 -17 -27 -37z"/>
 <path d="M2135 2170 l-80 -81 110 3 c95 3 110 5 113 20 4 18 -46 138 -57 138 -4 0 -42 -36 -86 -80z"/>
 <path d="M2866 2190 c-42 -93 -40 -95 89 -98 l110 -3 -80 81 c-44 44 -82 80 -86 80 -3 0 -18 -27 -33 -60z"/>
 <path d="M3472 2177 c-40 -40 -69 -76 -66 -80 9 -8 176 -9 197 -1 12 4 13 12 5 42 -13 46 -46 112 -56 112 -4 0 -40 -33 -80 -73z"/>
 <path d="M1506 1933 c8 -38 54 -133 63 -133 9 0 151 145 151 154 0 3 -50 6 -110 6 l-110 0 6 -27z"/>
 <path d="M2135 1881 c43 -44 83 -77 88 -74 14 9 57 106 57 131 0 22 -2 22 -112 22 l-113 0 80 -79z"/>
 <path d="M2840 1938 c0 -25 43 -122 57 -131 5 -3 45 30 88 74 l80 79 -113 0 c-110 0 -112 0 -112 -22z"/>
 <path d="M3400 1954 c0 -9 142 -154 151 -154 9 0 55 95 63 133 l6 27 -110 0 c-60 0 -110 -3 -110 -6z"/>
 <path d="M1960 1752 c0 -110 0 -112 23 -112 24 0 121 43 130 57 3 5 -30 45 -74 88 l-79 80 0 -113z"/>
 <path d="M3077 1782 c-63 -64 -76 -81 -64 -90 23 -19 101 -52 125 -52 21 0 22 3 22 110 0 61 -1 110 -3 110 -1 0 -37 -35 -80 -78z"/>
 <path d="M1742 1777 c-40 -40 -72 -75 -72 -78 0 -11 120 -60 138 -57 14 3 17 18 20 97 1 52 -1 98 -5 102 -5 5 -41 -24 -81 -64z"/>
 <path d="M3295 1839 c-3 -9 -5 -56 -3 -105 3 -75 6 -89 20 -92 18 -4 138 46 138 57 0 4 -34 40 -75 81 -55 54 -76 70 -80 59z"/>
 </g>

</svg>