<!DOCTYPE svg PUBLIC "-//W3C//DTD SVG 20010904//EN" "http://www.w3.org/TR/2001/REC-SVG-20010904/DTD/svg10.dtd">
<svg version="1.0" xmlns="http://www.w3.org/2000/svg" width="512px" height="512px" viewBox="0 0 5120 5120" preserveAspectRatio="xMidYMid meet">
<g id="layer101" fill="#000000" stroke="none">
 <path d="M631 4338 c-47 -13 -112 -59 -155 -109 -71 -83 -67 12 -64 -1465 3 -1301 3 -1330 23 -1369 27 -55 97 -122 153 -148 36 -16 73 -22 153 -25 l107 -4 4 -107 c3 -80 9 -117 25 -153 26 -58 93 -125 159 -158 46 -24 59 -25 243 -28 223 -4 261 2 335 57 98 73 136 156 136 301 l0 88 108 4 c130 5 180 24 252 98 62 64 90 144 90 261 l0 79 360 0 360 0 0 -79 c0 -117 28 -197 90 -261 72 -74 122 -93 253 -98 l107 -4 0 -112 c0 -101 3 -117 26 -164 27 -54 105 -131 160 -157 26 -12 77 -15 259 -15 216 0 230 1 273 22 67 34 127 92 156 150 23 47 26 64 26 164 l0 112 108 4 c81 3 118 9 154 25 56 26 126 93 153 148 20 39 20 68 23 1369 3 1520 10 1390 -87 1486 -31 31 -74 65 -96 75 -39 20 -75 20 -1950 22 -1236 1 -1922 -2 -1944 -9z"/>
 </g>
<g id="layer102" fill="#3e3f6f" stroke="none">
 <path d="M655 4193 c-45 -23 -76 -54 -91 -90 -12 -27 -14 -251 -14 -1318 0 -1405 -3 -1325 59 -1378 46 -38 90 -47 244 -47 l137 0 0 -137 c0 -76 5 -155 9 -177 11 -45 53 -93 98 -112 40 -17 357 -20 400 -3 42 15 92 68 103 109 5 19 10 99 10 178 l0 142 138 0 c154 0 204 10 245 48 49 46 57 72 57 187 0 117 -13 160 -58 195 -25 20 -24 20 568 20 592 0 593 0 568 -20 -45 -35 -58 -78 -58 -195 0 -115 8 -141 57 -187 41 -38 91 -48 246 -48 l137 0 0 -160 c0 -183 4 -197 73 -254 l44 -36 189 0 189 1 40 27 c79 55 85 73 85 258 l0 164 138 0 c153 0 197 9 243 47 62 53 59 -27 59 1377 0 886 -3 1293 -11 1313 -14 38 -46 71 -91 94 -36 18 -88 19 -1910 19 -1688 -1 -1876 -2 -1903 -17z m995 -861 c60 -30 71 -63 73 -214 l2 -133 130 -6 c72 -3 141 -10 155 -16 65 -27 80 -80 80 -276 0 -235 -12 -248 -230 -257 l-135 -5 -5 -136 c-5 -146 -14 -171 -67 -206 -23 -16 -52 -18 -203 -18 -154 0 -179 2 -206 19 -57 34 -68 67 -74 211 l-5 130 -130 6 c-71 3 -141 10 -155 16 -67 28 -83 88 -78 290 5 221 18 235 228 243 l135 5 5 137 c4 118 8 140 26 165 40 55 72 63 254 63 137 0 171 -3 200 -18z m2613 -355 c59 -38 62 -53 62 -267 0 -214 -3 -229 -62 -267 -25 -17 -69 -18 -593 -18 -524 0 -568 1 -593 18 -56 37 -62 57 -65 237 -2 100 1 183 7 207 13 48 52 90 95 102 17 6 269 9 576 8 503 -2 548 -3 573 -20z"/>
 <path d="M1297 3224 c-4 -4 -7 -87 -7 -185 l0 -179 -182 -2 -183 -3 0 -150 0 -150 183 -3 182 -2 0 -173 c0 -121 4 -177 12 -185 15 -15 284 -17 293 -2 4 6 6 89 5 185 l-1 175 179 0 c98 0 182 4 187 9 6 6 8 69 5 153 l-5 143 -183 3 -183 2 1 183 2 182 -149 3 c-82 1 -152 -1 -156 -4z"/>
 <path d="M3141 2866 c-8 -9 -11 -62 -9 -167 l3 -154 535 0 535 0 0 165 0 165 -526 3 c-440 2 -528 0 -538 -12z"/>
 </g>
<g id="layer103" fill="#575888" stroke="none">
 <path d="M555 3598 c-3 -7 -4 -411 -3 -898 l3 -885 2005 0 2005 0 0 895 0 895 -2003 3 c-1597 2 -2004 0 -2007 -10z m1105 -265 c58 -36 64 -54 70 -208 l5 -140 135 -5 c212 -8 218 -15 221 -291 2 -143 0 -170 -14 -193 -35 -52 -61 -61 -207 -66 l-135 -5 -5 -135 c-5 -122 -7 -138 -29 -169 -38 -53 -70 -61 -253 -61 -180 0 -212 8 -252 63 -18 24 -22 47 -26 165 l-5 137 -142 5 c-214 8 -222 17 -222 278 -1 254 7 264 224 272 l140 5 5 140 c6 170 15 191 97 221 28 10 81 13 198 11 145 -2 163 -4 195 -24z m2600 -351 c62 -30 70 -62 70 -272 0 -210 -8 -242 -70 -272 -32 -16 -82 -18 -590 -18 -621 0 -606 -2 -643 70 -15 31 -17 59 -15 227 3 176 5 194 24 220 47 64 32 63 639 63 504 0 553 -2 585 -18z"/>
 <path d="M1297 3224 c-4 -4 -7 -87 -7 -185 l0 -179 -182 -2 -183 -3 0 -150 0 -150 183 -3 182 -2 0 -173 c0 -121 4 -177 12 -185 15 -15 284 -17 293 -2 4 6 6 89 5 185 l-1 175 179 0 c98 0 182 4 187 9 6 6 8 69 5 153 l-5 143 -183 3 -183 2 1 183 2 182 -149 3 c-82 1 -152 -1 -156 -4z"/>
 <path d="M3141 2866 c-8 -9 -11 -62 -9 -167 l3 -154 535 0 535 0 0 165 0 165 -526 3 c-440 2 -528 0 -538 -12z"/>
 <path d="M1002 1368 c-14 -14 -16 -262 -3 -322 11 -45 53 -93 98 -112 45 -19 360 -20 406 0 49 20 95 78 102 128 3 24 5 104 3 178 l-3 135 -295 3 c-222 2 -299 -1 -308 -10z"/>
 <path d="M3520 1354 c-6 -14 -10 -90 -10 -170 0 -166 5 -182 73 -238 l44 -36 189 0 189 1 40 27 c79 55 85 73 85 256 0 113 -4 166 -12 174 -9 9 -89 12 -300 12 l-288 0 -10 -26z"/>
 </g>
<g id="layer104" fill="#51414d" stroke="none">
 <path d="M1297 3224 c-4 -4 -7 -87 -7 -185 l0 -179 -182 -2 -183 -3 0 -150 0 -150 183 -3 182 -2 0 -173 c0 -121 4 -177 12 -185 15 -15 284 -17 293 -2 4 6 6 89 5 185 l-1 175 179 0 c98 0 182 4 187 9 6 6 8 69 5 153 l-5 143 -183 3 -183 2 1 183 2 182 -149 3 c-82 1 -152 -1 -156 -4z"/>
 <path d="M3141 2866 c-8 -9 -11 -62 -9 -167 l3 -154 535 0 535 0 0 165 0 165 -526 3 c-440 2 -528 0 -538 -12z"/>
 <path d="M1002 1368 c-14 -14 -16 -262 -3 -322 11 -45 53 -93 98 -112 45 -19 360 -20 406 0 49 20 95 78 102 128 3 24 5 104 3 178 l-3 135 -295 3 c-222 2 -299 -1 -308 -10z"/>
 <path d="M3520 1351 c-5 -11 -10 -83 -10 -166 0 -167 5 -183 73 -239 l44 -36 189 0 189 1 40 27 c22 15 50 43 63 62 21 32 22 41 20 199 l-3 166 -297 3 c-286 2 -298 2 -308 -17z"/>
 </g>

</svg>