<!DOCTYPE svg PUBLIC "-//W3C//DTD SVG 20010904//EN" "http://www.w3.org/TR/2001/REC-SVG-20010904/DTD/svg10.dtd">
<svg version="1.0" xmlns="http://www.w3.org/2000/svg" width="512px" height="512px" viewBox="0 0 5120 5120" preserveAspectRatio="xMidYMid meet">
<g id="layer101" fill="#000000" stroke="none">
 <path d="M1495 3882 c-52 -22 -94 -47 -122 -71 -13 -10 -201 -241 -418 -512 -356 -445 -395 -497 -395 -530 0 -24 7 -42 21 -55 25 -22 47 -22 349 1 107 8 261 19 342 25 l147 11 413 -362 c227 -199 427 -370 443 -380 24 -15 50 -19 125 -20 l95 0 149 -181 c83 -99 164 -189 180 -200 48 -30 105 -19 214 41 51 28 97 51 102 51 5 0 58 -82 119 -183 60 -100 119 -191 131 -202 20 -18 237 -82 313 -92 31 -4 43 0 64 18 25 24 25 25 19 131 -6 98 -39 489 -50 581 l-4 37 73 0 c114 0 117 4 166 235 72 339 108 508 130 616 l22 106 199 15 c238 18 238 18 238 115 0 67 -23 340 -40 481 -6 45 -19 102 -30 127 -30 70 -104 143 -185 181 l-69 34 -1351 -1 c-1249 0 -1353 -1 -1390 -17z"/>
 </g>
<g id="layer102" fill="#858897" stroke="none">
 <path d="M1513 3729 c-34 -17 -84 -73 -248 -277 -113 -142 -205 -259 -205 -262 0 -3 36 -4 81 -1 94 4 119 -10 119 -65 0 -58 -30 -71 -178 -79 -70 -3 -134 -9 -142 -11 -14 -4 -154 -174 -148 -179 2 -1 55 1 118 6 63 5 243 18 400 29 634 46 837 61 1095 80 149 11 394 29 545 40 151 11 466 34 700 51 234 17 499 36 590 42 l165 12 -3 80 c-2 43 -5 81 -8 84 -4 5 -157 -5 -824 -54 -190 -14 -489 -36 -665 -49 -218 -16 -327 -20 -342 -13 -29 13 -48 59 -34 84 21 41 37 44 293 64 518 39 1504 109 1532 109 l29 0 -7 88 c-8 107 -34 164 -95 207 l-43 30 -1341 3 -1342 2 -42 -21z m147 -139 c29 -29 26 -74 -7 -100 -64 -50 -143 29 -93 93 26 33 71 36 100 7z m351 -1 c28 -28 22 -76 -13 -102 -23 -17 -31 -18 -56 -8 -33 14 -55 52 -45 78 19 54 76 70 114 32z m347 5 c33 -23 27 -79 -10 -107 -64 -48 -135 45 -81 106 20 21 61 22 91 1z"/>
 <path d="M3939 2946 c-2 -3 -52 -8 -109 -11 -58 -3 -127 -8 -155 -10 -56 -4 -161 -12 -280 -20 -88 -6 -168 -12 -261 -20 -33 -3 -92 -7 -130 -10 -166 -10 -233 -15 -289 -20 -33 -3 -91 -7 -130 -10 -114 -8 -205 -14 -280 -20 -38 -3 -101 -7 -140 -10 -38 -3 -101 -8 -140 -11 -38 -3 -92 -7 -120 -9 -27 -1 -95 -6 -150 -10 -55 -4 -108 -7 -118 -7 -27 1 -20 -14 21 -46 l38 -30 264 -4 c291 -3 292 -4 331 -67 16 -26 19 -51 19 -144 l0 -113 -36 -42 c-23 -27 -44 -42 -59 -42 -44 0 -35 -17 44 -84 l79 -66 735 0 734 0 7 38 c3 20 9 51 12 69 l6 32 -363 3 c-345 3 -365 4 -390 23 -50 37 -59 67 -59 186 0 89 3 114 19 140 40 66 24 64 477 67 l411 3 21 109 c12 60 23 115 24 122 3 12 -24 23 -33 14z m-1090 -270 c27 -24 27 -68 0 -92 -17 -16 -42 -20 -138 -24 l-116 -5 0 -65 0 -65 116 -5 c96 -4 121 -8 138 -24 27 -24 27 -68 0 -92 -19 -17 -37 -19 -153 -19 -72 0 -142 3 -156 7 -14 4 -37 26 -52 50 -26 39 -28 49 -28 149 0 98 2 109 26 145 15 21 28 41 30 43 11 12 85 19 190 18 104 -2 125 -5 143 -21z"/>
 <path d="M1865 2560 c-2 -3 13 -20 33 -37 20 -18 55 -48 77 -67 39 -35 43 -36 118 -36 l77 0 0 69 0 70 -151 3 c-83 2 -152 1 -154 -2z"/>
 <path d="M3160 2490 l0 -70 348 0 349 0 11 24 c6 13 14 44 17 70 l7 46 -366 0 -366 0 0 -70z"/>
 <path d="M2691 1983 c37 -49 200 -243 204 -243 7 0 449 242 459 251 6 5 -140 9 -333 9 -326 0 -343 -1 -330 -17z"/>
 <path d="M3430 1870 c-80 -44 -149 -81 -153 -83 -5 -1 39 -82 98 -180 103 -172 107 -177 148 -187 23 -6 57 -15 76 -20 19 -5 36 -8 37 -7 2 1 -8 119 -21 262 -14 143 -25 268 -25 278 0 9 -3 17 -7 17 -5 0 -73 -36 -153 -80z"/>
 </g>
<g id="layer103" fill="#ad3743" stroke="none">
 <path d="M4105 3265 c-147 -12 -328 -25 -1205 -89 -211 -15 -322 -20 -336 -13 -12 5 -27 20 -33 34 -11 23 -14 24 -74 18 -65 -6 -1150 -85 -1174 -85 -7 0 -18 -11 -23 -24 -17 -45 -46 -54 -187 -62 -72 -4 -135 -9 -140 -13 -13 -9 -144 -173 -141 -176 2 -1 55 1 118 6 63 5 243 18 400 29 634 46 837 61 1095 80 149 11 394 29 545 40 151 11 462 33 690 50 228 17 492 35 585 42 94 6 174 14 178 18 5 5 6 42 2 84 l-7 76 -67 -1 c-36 -1 -138 -7 -226 -14z"/>
 <path d="M3485 2909 c-649 -48 -1343 -99 -1580 -115 -126 -8 -241 -18 -254 -20 l-24 -5 34 -35 33 -34 254 0 c283 0 304 -4 342 -65 17 -27 20 -49 20 -146 0 -134 -12 -164 -80 -196 l-42 -19 75 -67 74 -67 731 0 731 0 10 38 c5 20 12 51 16 69 l6 32 -363 3 c-345 3 -364 4 -390 23 -50 38 -58 64 -58 185 0 95 3 118 20 145 40 64 45 65 484 65 l396 0 5 23 c33 143 45 199 45 208 0 13 -28 11 -485 -22z m-637 -225 c16 -11 22 -25 22 -53 0 -58 -15 -65 -154 -71 l-121 -5 0 -65 0 -65 121 -5 c139 -6 154 -13 154 -71 0 -61 -21 -69 -173 -69 -143 0 -182 10 -216 58 -19 27 -21 43 -21 152 0 109 2 125 21 152 35 48 69 57 214 58 102 0 135 -3 153 -16z"/>
 <path d="M1940 2490 l75 -70 78 0 77 0 0 70 0 70 -152 0 -153 -1 75 -69z"/>
 <path d="M3160 2490 l0 -70 350 0 349 0 10 38 c5 20 12 52 16 70 l7 32 -366 0 -366 0 0 -70z"/>
 <path d="M2691 1983 c37 -49 200 -243 204 -243 7 0 449 242 459 251 6 5 -140 9 -333 9 -326 0 -343 -1 -330 -17z"/>
 <path d="M3430 1870 c-80 -44 -149 -81 -153 -83 -5 -1 39 -82 98 -180 103 -172 107 -177 148 -187 23 -6 57 -15 76 -20 19 -5 36 -8 37 -7 2 1 -8 119 -21 262 -14 143 -25 268 -25 278 0 9 -3 17 -7 17 -5 0 -73 -36 -153 -80z"/>
 </g>
<g id="layer104" fill="#cc7c13" stroke="none">
 <path d="M3485 2909 c-649 -48 -1343 -99 -1580 -115 -126 -8 -241 -18 -254 -20 l-24 -5 34 -35 33 -34 254 0 c283 0 304 -4 342 -65 17 -27 20 -49 20 -146 0 -134 -12 -164 -80 -196 l-42 -19 75 -67 74 -67 731 0 731 0 10 38 c5 20 12 51 16 69 l6 32 -363 3 c-345 3 -364 4 -390 23 -50 38 -58 64 -58 185 0 95 3 118 20 145 40 64 45 65 484 65 l396 0 5 23 c33 143 45 199 45 208 0 13 -28 11 -485 -22z m-637 -225 c16 -11 22 -25 22 -53 0 -58 -15 -65 -154 -71 l-121 -5 0 -65 0 -65 121 -5 c139 -6 154 -13 154 -71 0 -61 -21 -69 -173 -69 -143 0 -182 10 -216 58 -19 27 -21 43 -21 152 0 109 2 125 21 152 35 48 69 57 214 58 102 0 135 -3 153 -16z"/>
 <path d="M1940 2490 l75 -70 78 0 77 0 0 70 0 70 -152 0 -153 -1 75 -69z"/>
 <path d="M3160 2490 l0 -70 350 0 349 0 10 38 c5 20 12 52 16 70 l7 32 -366 0 -366 0 0 -70z"/>
 <path d="M2691 1983 c37 -49 200 -243 204 -243 7 0 449 242 459 251 6 5 -140 9 -333 9 -326 0 -343 -1 -330 -17z"/>
 </g>
<g id="layer105" fill="#9fa2b1" stroke="none">
 <path d="M3485 2909 c-649 -48 -1343 -99 -1580 -115 -126 -8 -241 -18 -254 -20 l-24 -5 34 -35 33 -34 254 0 c283 0 304 -4 342 -65 17 -27 20 -49 20 -146 0 -134 -12 -164 -80 -196 l-42 -19 75 -67 74 -67 731 0 731 0 10 38 c5 20 12 51 16 69 l6 32 -363 3 c-345 3 -364 4 -390 23 -50 38 -58 64 -58 185 0 95 3 118 20 145 40 64 45 65 484 65 l396 0 5 23 c33 143 45 199 45 208 0 13 -28 11 -485 -22z m-637 -225 c16 -11 22 -25 22 -53 0 -58 -15 -65 -154 -71 l-121 -5 0 -65 0 -65 121 -5 c139 -6 154 -13 154 -71 0 -61 -21 -69 -173 -69 -143 0 -182 10 -216 58 -19 27 -21 43 -21 152 0 109 2 125 21 152 35 48 69 57 214 58 102 0 135 -3 153 -16z"/>
 <path d="M1940 2490 l75 -70 78 0 77 0 0 70 0 70 -152 0 -153 -1 75 -69z"/>
 <path d="M3160 2490 l0 -70 350 0 349 0 10 38 c5 20 12 52 16 70 l7 32 -366 0 -366 0 0 -70z"/>
 </g>
<g id="layer106" fill="#cbeefa" stroke="none">
 <path d="M1907 2523 c105 -97 116 -103 192 -103 l71 0 0 70 0 70 -152 0 -151 0 40 -37z"/>
 <path d="M2594 2546 c-3 -7 -4 -38 -2 -67 l3 -54 103 -3 102 -3 0 71 0 70 -100 0 c-76 0 -102 -3 -106 -14z"/>
 <path d="M3160 2490 l0 -70 349 0 348 0 12 57 c6 31 11 62 11 70 0 11 -67 13 -360 13 l-360 0 0 -70z"/>
 </g>

</svg>