<!DOCTYPE svg PUBLIC "-//W3C//DTD SVG 20010904//EN" "http://www.w3.org/TR/2001/REC-SVG-20010904/DTD/svg10.dtd">
<svg version="1.0" xmlns="http://www.w3.org/2000/svg" width="512px" height="512px" viewBox="0 0 5120 5120" preserveAspectRatio="xMidYMid meet">
<g id="layer101" fill="#000000" stroke="none">
 <path d="M715 4120 c-11 -4 -31 -18 -44 -30 -52 -50 -51 -31 -51 -863 l0 -774 -52 -7 c-29 -4 -67 -16 -84 -27 -63 -38 -64 -48 -64 -451 0 -230 4 -377 11 -402 8 -29 67 -104 219 -280 114 -133 220 -252 235 -266 l27 -25 1648 0 1648 0 27 25 c15 14 121 133 235 266 152 176 211 251 219 280 7 25 11 172 11 402 0 403 -1 413 -64 451 -17 11 -55 23 -84 27 l-52 7 0 775 c0 757 0 777 -20 816 -11 23 -33 50 -48 61 -27 20 -44 20 -1862 22 -1009 1 -1844 -2 -1855 -7z"/>
 </g>
<g id="layer102" fill="#4b0000" stroke="none">
 <path d="M768 3184 c-2 -443 -1 -808 1 -810 6 -5 3576 -5 3582 0 2 2 3 367 1 810 l-2 806 -1790 0 -1790 0 -2 -806z m2602 191 c19 -12 44 -38 55 -60 19 -37 20 -60 20 -325 0 -256 -2 -289 -18 -322 -39 -78 24 -73 -867 -73 -891 0 -828 -5 -867 73 -16 33 -18 68 -20 307 -2 235 0 276 15 319 19 54 51 83 103 96 19 5 374 8 789 7 739 -2 756 -2 790 -22z"/>
 <path d="M1817 3253 c-4 -3 -7 -123 -7 -265 l0 -258 750 0 750 0 -2 263 -3 262 -741 3 c-407 1 -744 -1 -747 -5z"/>
 <path d="M560 1960 l0 -340 2000 0 2000 0 0 340 0 340 -2000 0 -2000 0 0 -340z"/>
 <path d="M632 1532 c7 -10 87 -105 177 -210 l165 -192 1586 0 1586 0 165 192 c90 105 170 200 177 210 13 17 -53 18 -1928 18 -1875 0 -1941 -1 -1928 -18z"/>
 </g>
<g id="layer103" fill="#8b0000" stroke="none">
 <path d="M772 3183 l3 -808 1785 0 1785 0 3 808 2 807 -1790 0 -1790 0 2 -807z m2586 197 c83 -36 86 -46 90 -335 5 -306 0 -364 -35 -406 -15 -17 -37 -35 -51 -40 -32 -12 -1572 -12 -1604 0 -14 5 -36 23 -51 40 -35 42 -40 100 -35 406 4 287 7 299 88 334 44 20 68 20 798 21 734 0 754 -1 800 -20z"/>
 <path d="M560 1960 l0 -340 2000 0 2000 0 0 340 0 340 -2000 0 -2000 0 0 -340z"/>
 </g>

</svg>