<!DOCTYPE svg PUBLIC "-//W3C//DTD SVG 20010904//EN" "http://www.w3.org/TR/2001/REC-SVG-20010904/DTD/svg10.dtd">
<svg version="1.0" xmlns="http://www.w3.org/2000/svg" width="512px" height="512px" viewBox="0 0 5120 5120" preserveAspectRatio="xMidYMid meet">
<g id="layer101" fill="#000000" stroke="none">
 <path d="M1915 4271 c-3 -5 -20 -13 -38 -16 -117 -26 -256 -155 -296 -275 -10 -31 -21 -39 -99 -75 -402 -184 -718 -495 -852 -840 -62 -159 -70 -225 -70 -570 0 -270 3 -321 20 -398 129 -583 729 -1058 1510 -1195 213 -38 258 -42 470 -42 212 0 257 4 470 42 781 137 1381 612 1510 1195 17 77 20 128 20 398 0 269 -3 322 -20 400 -50 232 -170 445 -360 634 -153 154 -342 285 -542 376 -78 36 -89 44 -99 75 -41 123 -183 253 -302 275 -21 4 -40 11 -43 16 -7 11 -127 12 -139 0 -6 -4 -32 -14 -58 -21 -64 -17 -153 -76 -200 -131 -117 -136 -140 -334 -58 -493 57 -110 187 -203 316 -227 105 -19 226 9 322 75 55 38 32 43 233 -51 386 -181 681 -499 771 -828 31 -116 20 -179 -65 -360 -62 -130 -124 -215 -255 -345 -287 -286 -667 -458 -1176 -532 -119 -17 -531 -17 -650 0 -389 57 -694 168 -969 355 -110 74 -313 274 -378 372 -80 119 -154 293 -165 385 -7 61 26 180 82 295 146 303 444 558 841 721 50 21 52 21 75 2 47 -37 138 -77 202 -89 185 -34 381 69 468 246 33 67 34 74 34 185 0 109 -2 119 -32 183 -56 118 -179 223 -285 242 -21 4 -38 11 -38 16 0 12 -147 12 -155 0z"/>
 </g>
<g id="layer102" fill="#d1d3e6" stroke="none">
 <path d="M1885 4110 c-28 -11 -70 -39 -94 -62 -197 -188 -68 -512 204 -512 120 0 210 56 265 166 54 109 37 235 -45 326 -58 65 -121 94 -209 99 -54 2 -83 -2 -121 -17z m150 -135 c42 -41 26 -89 -36 -110 -24 -9 -35 -20 -41 -42 -15 -56 -68 -74 -109 -37 -17 15 -20 28 -17 65 6 59 39 106 92 130 55 25 82 24 111 -6z"/>
 <path d="M3041 4119 c-83 -25 -168 -107 -195 -187 -51 -148 20 -311 163 -375 65 -29 169 -28 236 2 234 104 238 430 6 543 -52 25 -155 34 -210 17z m112 -130 c29 -16 37 -28 37 -60 0 -30 -24 -55 -63 -64 -20 -5 -30 -15 -34 -36 -12 -59 -80 -83 -115 -39 -31 39 -19 101 30 154 46 49 103 67 145 45z"/>
 <path d="M1448 3732 c-273 -145 -480 -336 -616 -567 -40 -67 -97 -203 -89 -211 2 -3 20 19 39 48 143 213 394 416 687 556 75 35 137 65 138 66 1 1 -27 93 -46 148 -5 15 -20 10 -113 -40z"/>
 <path d="M3555 3763 c-4 -16 -15 -53 -25 -83 -11 -30 -18 -55 -17 -56 1 0 64 -31 139 -67 300 -143 540 -340 697 -569 17 -27 34 -48 36 -48 2 0 -11 38 -29 84 -115 292 -375 554 -724 730 l-72 36 -5 -27z"/>
 <path d="M741 2045 c-1 -5 8 -34 19 -64 163 -428 626 -776 1220 -915 325 -77 704 -86 1039 -26 646 117 1188 500 1342 949 21 61 19 78 -5 34 -42 -83 -184 -235 -317 -343 -663 -532 -1737 -635 -2564 -245 -305 144 -574 368 -722 601 -6 11 -12 15 -12 9z"/>
 </g>
<g id="layer103" fill="#eaecff" stroke="none">
 <path d="M1885 4110 c-28 -11 -70 -39 -94 -62 -197 -188 -68 -512 204 -512 120 0 210 56 265 166 54 109 37 235 -45 326 -58 65 -121 94 -209 99 -54 2 -83 -2 -121 -17z m150 -135 c42 -41 26 -89 -36 -110 -24 -9 -35 -20 -41 -42 -15 -56 -68 -74 -109 -37 -17 15 -20 28 -17 65 6 59 39 106 92 130 55 25 82 24 111 -6z"/>
 <path d="M3041 4119 c-81 -24 -168 -107 -195 -187 -74 -217 117 -441 333 -392 78 18 107 35 163 92 26 27 48 50 48 51 0 1 9 34 20 72 17 60 19 77 9 120 -13 59 -35 111 -60 144 -25 32 -90 80 -109 81 -8 0 -28 7 -44 15 -31 17 -113 18 -165 4z m112 -130 c29 -16 37 -28 37 -60 0 -30 -24 -55 -63 -64 -20 -5 -30 -15 -34 -36 -12 -59 -80 -83 -115 -39 -31 39 -19 101 30 154 46 49 103 67 145 45z"/>
 <path d="M1465 3741 c-50 -26 -113 -64 -141 -84 -28 -20 -56 -37 -61 -37 -6 0 -17 -7 -24 -16 -8 -9 -31 -28 -52 -41 -39 -24 -212 -194 -254 -249 -33 -44 -87 -126 -101 -154 -6 -14 -16 -32 -20 -40 -5 -8 -16 -31 -24 -50 -8 -19 -21 -47 -28 -62 -22 -46 -3 -43 27 3 41 65 58 84 164 189 98 96 182 170 194 170 4 0 26 15 48 33 54 42 55 43 245 137 89 45 162 87 162 94 0 7 -7 26 -15 42 -8 16 -16 47 -19 68 -3 21 -6 40 -8 41 -2 2 -44 -18 -93 -44z"/>
 <path d="M3559 3783 c-4 -44 -11 -74 -24 -99 -28 -54 -24 -58 128 -133 78 -39 161 -82 184 -95 84 -48 240 -174 337 -271 108 -109 108 -109 155 -174 41 -57 40 -51 -4 54 -36 85 -40 91 -81 150 -11 17 -23 35 -25 42 -12 34 -233 266 -285 299 -16 10 -59 40 -95 66 -37 27 -70 48 -74 48 -3 0 -21 11 -38 24 -41 31 -177 99 -178 89z"/>
 <path d="M750 2018 c1 -14 24 -48 33 -48 3 0 -1 14 -9 30 -16 32 -24 38 -24 18z"/>
 <path d="M2288 1018 c9 -9 15 -9 24 0 9 9 7 12 -12 12 -19 0 -21 -3 -12 -12z"/>
 <path d="M2808 1018 c9 -9 15 -9 24 0 9 9 7 12 -12 12 -19 0 -21 -3 -12 -12z"/>
 <path d="M2370 1010 c20 -13 47 -13 55 0 4 6 -9 10 -32 10 -28 0 -34 -3 -23 -10z"/>
 <path d="M2695 1010 c8 -13 35 -13 55 0 11 7 5 10 -23 10 -23 0 -36 -4 -32 -10z"/>
 </g>
<g id="layer104" fill="#ffffff" stroke="none">
 <path d="M1925 4119 c-4 -5 -16 -9 -28 -9 -48 0 -136 -76 -167 -144 -38 -84 -42 -134 -20 -211 11 -38 20 -71 20 -73 0 -10 90 -96 113 -109 76 -39 205 -52 242 -23 6 4 22 10 37 14 26 6 128 100 128 118 0 5 8 26 19 48 23 48 22 167 -2 224 -21 48 -88 114 -147 145 -47 24 -184 39 -195 20z m95 -129 c28 -15 42 -47 35 -80 -5 -23 -15 -32 -44 -41 -30 -9 -40 -19 -51 -48 -7 -20 -20 -42 -29 -48 -20 -16 -60 -8 -87 18 -47 44 0 154 81 190 46 21 68 23 95 9z"/>
 <path d="M3060 4123 c-79 -21 -178 -102 -207 -169 -20 -49 -25 -176 -8 -212 7 -15 21 -44 30 -65 20 -43 88 -105 125 -114 14 -3 30 -10 36 -14 6 -5 36 -11 67 -15 57 -7 57 -7 96 34 53 56 83 137 89 243 5 106 -12 174 -67 255 l-40 59 -53 1 c-29 0 -60 -1 -68 -3z m93 -135 c27 -14 46 -38 47 -59 0 -21 -39 -56 -73 -64 -18 -5 -29 -16 -33 -34 -13 -53 -61 -81 -100 -60 -48 25 -47 95 2 159 47 60 110 84 157 58z"/>
 </g>

</svg>