<!DOCTYPE svg PUBLIC "-//W3C//DTD SVG 20010904//EN" "http://www.w3.org/TR/2001/REC-SVG-20010904/DTD/svg10.dtd">
<svg version="1.0" xmlns="http://www.w3.org/2000/svg" width="512px" height="512px" viewBox="0 0 5120 5120" preserveAspectRatio="xMidYMid meet">
<g id="layer101" fill="#000000" stroke="none">
 <path d="M714 4265 c-57 -29 -103 -73 -133 -130 -21 -40 -21 -42 -21 -1120 0 -1078 0 -1080 21 -1120 31 -59 85 -111 140 -135 l49 -21 0 -59 c0 -49 4 -64 26 -90 48 -57 64 -60 284 -60 178 0 205 2 238 19 50 26 72 66 72 135 l0 56 579 0 578 0 19 -47 c11 -27 21 -51 22 -55 2 -5 -50 -8 -115 -8 -104 0 -123 -3 -158 -23 -46 -26 -80 -73 -96 -130 -6 -24 -9 -126 -7 -266 3 -255 9 -276 82 -335 l38 -31 593 -3 593 -2 43 32 c83 64 84 69 84 353 0 138 -3 262 -7 277 -11 38 -54 86 -99 108 -31 17 -59 20 -154 20 -64 0 -115 4 -113 8 1 4 12 29 23 55 l20 47 530 0 c512 0 532 1 575 21 55 25 96 62 121 111 18 36 19 75 19 1143 0 1068 -1 1107 -19 1143 -24 46 -64 84 -118 111 l-42 21 -1809 0 -1808 0 -50 -25z"/>
 </g>
<g id="layer102" fill="#1e0e1a" stroke="none">
 <path d="M763 4150 c-25 -11 -51 -33 -63 -52 -20 -33 -20 -48 -20 -1081 0 -1154 -4 -1081 62 -1129 33 -23 37 -23 337 -26 325 -3 345 -1 381 46 20 24 20 46 20 1106 0 984 -1 1084 -16 1105 -33 47 -62 51 -371 51 -262 0 -292 -2 -330 -20z"/>
 <path d="M1583 4143 c9 -21 13 -250 17 -933 l5 -905 313 -3 312 -2 -40 36 c-86 78 -191 267 -233 419 -88 322 4 694 232 937 218 232 475 338 786 325 269 -12 489 -110 678 -304 187 -192 281 -424 281 -698 0 -238 -72 -448 -211 -619 -87 -107 -90 -96 28 -96 57 0 236 3 397 7 l292 6 0 884 c0 976 3 925 -64 957 -31 15 -158 16 -1420 16 l-1386 0 13 -27z"/>
 <path d="M2787 3900 c-170 -31 -331 -109 -453 -220 -51 -47 -144 -152 -144 -163 0 -4 -11 -23 -24 -40 -57 -76 -110 -234 -126 -372 -55 -499 335 -957 837 -982 238 -12 457 61 631 211 492 423 396 1192 -185 1485 -113 56 -223 83 -363 87 -69 1 -147 -1 -173 -6z m363 -220 c186 -66 325 -188 405 -355 105 -218 102 -425 -8 -640 -49 -94 -168 -220 -259 -273 -186 -110 -424 -127 -623 -45 -191 79 -335 236 -403 441 -22 65 -26 96 -26 202 -1 104 3 137 22 200 72 231 240 401 467 473 76 24 90 26 230 22 105 -2 143 -7 195 -25z"/>
 <path d="M2880 3603 c-212 -22 -388 -146 -479 -336 -58 -121 -74 -233 -50 -363 6 -32 19 -77 28 -99 10 -22 21 -47 25 -55 57 -133 224 -267 384 -309 75 -21 243 -18 308 5 261 92 424 311 424 568 0 69 -20 178 -39 213 -5 10 -20 40 -33 67 -27 57 -122 164 -182 204 -115 78 -262 118 -386 105z"/>
 <path d="M1600 2068 c-1 -81 -6 -137 -15 -163 -8 -22 -15 -41 -15 -42 0 -2 629 -3 1399 -3 l1398 0 28 22 c44 34 55 75 55 198 l0 111 -477 -3 -478 -3 -66 -42 c-65 -40 -195 -90 -294 -112 -237 -53 -512 -6 -725 124 l-58 35 -376 0 -376 0 0 -122z"/>
 <path d="M890 1707 c0 -32 5 -47 16 -51 9 -3 94 -6 190 -6 l174 0 0 45 0 45 -174 0 c-96 0 -181 3 -190 6 -13 5 -16 -2 -16 -39z"/>
 <path d="M2680 1743 c0 -4 10 -31 22 -60 l22 -53 206 0 206 0 22 53 c12 29 22 56 22 60 0 4 -112 7 -250 7 -137 0 -250 -3 -250 -7z"/>
 <path d="M2359 1491 c-24 -19 -24 -19 -24 -255 0 -232 0 -236 23 -258 l23 -23 549 0 549 0 23 23 c23 22 23 26 23 256 0 216 -1 236 -19 255 -19 21 -23 21 -571 21 -529 0 -554 -1 -576 -19z m1029 -72 c47 -16 62 -59 62 -182 0 -57 -5 -118 -11 -136 -21 -61 -23 -61 -508 -61 -301 0 -448 4 -464 11 -39 18 -47 50 -47 187 0 136 8 164 54 182 32 13 876 12 914 -1z"/>
 <path d="M2532 1235 l3 -80 395 0 395 0 3 80 3 80 -401 0 -401 0 3 -80z"/>
 </g>
<g id="layer103" fill="#372733" stroke="none">
 <path d="M763 4150 c-25 -11 -51 -33 -63 -52 -20 -33 -20 -48 -20 -1081 0 -1154 -4 -1081 62 -1129 33 -23 37 -23 337 -26 325 -3 345 -1 381 46 20 24 20 46 20 1106 0 984 -1 1084 -16 1105 -33 47 -62 51 -371 51 -262 0 -292 -2 -330 -20z"/>
 <path d="M1596 4108 c11 -42 14 -224 14 -925 l0 -873 295 0 295 0 -51 63 c-99 121 -167 256 -205 407 -15 60 -19 109 -18 245 1 154 3 178 27 258 35 114 75 202 133 288 208 314 578 490 947 450 423 -46 764 -339 879 -756 29 -104 36 -326 13 -436 -37 -186 -119 -355 -233 -481 l-34 -38 196 0 196 0 0 925 0 925 -1234 0 -1233 0 13 -52z"/>
 <path d="M2762 3890 c-176 -36 -320 -112 -454 -238 -73 -69 -117 -130 -171 -237 -54 -106 -65 -137 -83 -226 -20 -101 -15 -312 11 -404 22 -78 83 -208 130 -276 46 -67 147 -172 199 -207 22 -15 51 -35 65 -45 162 -110 422 -161 626 -122 111 21 202 56 329 128 61 34 198 169 250 246 62 90 121 227 140 323 30 145 15 375 -31 478 -48 107 -81 171 -117 223 -83 121 -262 262 -397 312 -162 60 -346 77 -497 45z m376 -206 c46 -14 98 -32 114 -42 17 -9 42 -23 56 -31 53 -29 199 -185 237 -255 122 -220 111 -528 -26 -726 -126 -180 -287 -281 -500 -311 -133 -19 -314 12 -411 71 -18 11 -42 24 -53 29 -33 14 -175 151 -204 196 -35 54 -87 165 -103 217 -17 58 -16 309 1 368 21 74 78 181 133 250 121 154 276 240 478 263 67 8 195 -5 278 -29z"/>
 <path d="M2778 3580 c-132 -35 -247 -116 -329 -233 -218 -311 -77 -753 283 -885 65 -23 87 -26 198 -26 111 0 133 3 198 26 233 86 385 301 386 548 1 140 -36 251 -121 362 -140 184 -389 269 -615 208z"/>
 <path d="M1600 2065 c0 -89 -4 -136 -15 -162 -8 -19 -15 -37 -15 -39 0 -2 626 -4 1391 -4 l1392 0 33 21 c19 11 39 29 44 39 6 10 10 75 10 144 l0 126 -462 0 -463 -1 -40 -24 c-56 -33 -159 -85 -169 -85 -4 0 -22 -6 -39 -14 -48 -21 -162 -46 -254 -54 -129 -12 -329 13 -420 54 -17 8 -35 14 -40 14 -11 0 -110 51 -160 83 l-43 27 -375 0 -375 0 0 -125z"/>
 <path d="M890 1707 c0 -32 5 -47 16 -51 20 -8 328 -8 348 0 11 4 16 19 16 45 l0 39 -174 0 c-96 0 -181 3 -190 6 -13 5 -16 -2 -16 -39z"/>
 <path d="M2696 1718 c3 -12 13 -36 20 -55 l14 -33 201 2 202 3 23 53 23 52 -245 0 -245 0 7 -22z"/>
 <path d="M2361 1491 c-29 -29 -33 -65 -29 -283 3 -192 4 -197 27 -222 l24 -26 546 0 c523 0 547 1 571 20 l25 19 3 208 c4 231 -3 278 -44 293 -15 6 -246 10 -565 10 -521 0 -540 -1 -558 -19z m1054 -85 l30 -24 0 -140 c0 -127 -2 -143 -21 -169 l-21 -28 -468 -3 -468 -2 -24 22 c-22 21 -23 27 -23 167 1 151 4 165 45 189 14 8 150 11 470 12 l450 0 30 -24z"/>
 <path d="M2532 1233 l3 -78 395 0 395 0 3 78 3 77 -401 0 -401 0 3 -77z"/>
 </g>
<g id="layer104" fill="#888888" stroke="none">
 <path d="M763 4150 c-25 -11 -51 -33 -63 -52 -20 -33 -20 -48 -20 -1081 0 -1154 -4 -1081 62 -1129 33 -23 37 -23 337 -26 325 -3 345 -1 381 46 20 24 20 46 20 1106 0 984 -1 1084 -16 1105 -33 47 -62 51 -371 51 -262 0 -292 -2 -330 -20z"/>
 <path d="M2835 3900 c-469 -52 -815 -457 -792 -924 12 -236 96 -427 261 -591 172 -172 383 -259 626 -259 403 -1 755 269 860 660 82 303 -16 657 -242 870 -192 181 -459 272 -713 244z m310 -215 c195 -64 342 -197 430 -388 43 -93 58 -169 57 -287 0 -109 -12 -168 -49 -260 -79 -192 -239 -341 -438 -407 -71 -24 -96 -27 -215 -27 -119 0 -144 3 -210 26 -144 50 -236 113 -335 228 -56 66 -119 191 -139 280 -22 93 -20 249 4 344 67 263 303 476 575 520 76 12 240 -3 320 -29z"/>
 <path d="M2778 3580 c-132 -35 -247 -116 -329 -233 -218 -311 -77 -753 283 -885 65 -23 87 -26 198 -26 111 0 133 3 198 26 233 86 385 301 386 548 1 140 -36 251 -121 362 -140 184 -389 269 -615 208z"/>
 <path d="M1597 2048 c-2 -79 -7 -153 -11 -166 l-8 -22 1393 2 c1533 3 1423 -2 1454 64 11 23 15 66 15 148 l0 116 -461 0 -461 0 -57 -34 c-106 -64 -215 -108 -327 -131 -103 -21 -305 -21 -408 0 -113 23 -250 79 -333 136 l-42 29 -375 0 -375 0 -4 -142z"/>
 <path d="M890 1701 c0 -26 5 -41 16 -45 20 -8 328 -8 348 0 11 4 16 19 16 45 l0 39 -190 0 -190 0 0 -39z"/>
 <path d="M2362 1487 c-21 -23 -22 -31 -22 -253 0 -228 0 -231 23 -252 l23 -22 545 0 546 0 21 23 c21 23 22 31 22 254 l0 232 -26 20 c-26 21 -36 21 -569 21 l-542 0 -21 -23z m1059 -83 c23 -25 24 -31 24 -169 0 -138 -1 -144 -24 -169 l-24 -26 -466 0 c-463 0 -465 0 -488 22 -22 21 -23 28 -23 174 l0 153 26 20 c26 21 36 21 489 21 l462 0 24 -26z"/>
 <path d="M2532 1233 l3 -78 395 0 395 0 3 78 3 77 -401 0 -401 0 3 -77z"/>
 </g>
<g id="layer105" fill="#a1a1a1" stroke="none">
 <path d="M763 4151 c-24 -12 -51 -34 -63 -53 -19 -32 -19 -51 -20 -1080 0 -1156 -4 -1082 62 -1130 31 -22 42 -23 186 -23 l152 0 0 1150 0 1150 -137 2 c-119 3 -144 0 -180 -16z"/>
 <path d="M2835 3900 c-469 -52 -815 -457 -792 -924 12 -236 96 -427 261 -591 172 -172 383 -259 626 -259 403 -1 755 269 860 660 82 303 -16 657 -242 870 -192 181 -459 272 -713 244z m310 -215 c195 -64 342 -197 430 -388 43 -93 58 -169 57 -287 0 -109 -12 -168 -49 -260 -79 -192 -239 -341 -438 -407 -71 -24 -96 -27 -215 -27 -119 0 -144 3 -210 26 -144 50 -236 113 -335 228 -56 66 -119 191 -139 280 -22 93 -20 249 4 344 67 263 303 476 575 520 76 12 240 -3 320 -29z"/>
 <path d="M2778 3580 c-132 -35 -247 -116 -329 -233 -218 -311 -77 -753 283 -885 65 -23 87 -26 198 -26 111 0 133 3 198 26 233 86 385 301 386 548 1 140 -36 251 -121 362 -140 184 -389 269 -615 208z"/>
 <path d="M1597 2048 c-2 -79 -7 -153 -11 -166 l-8 -22 1393 2 c1533 3 1423 -2 1454 64 11 23 15 66 15 148 l0 116 -461 0 -461 0 -57 -34 c-106 -64 -215 -108 -327 -131 -103 -21 -305 -21 -408 0 -113 23 -250 79 -333 136 l-42 29 -375 0 -375 0 -4 -142z"/>
 <path d="M1105 1870 c4 -6 63 -10 145 -10 82 0 141 4 145 10 4 6 -47 10 -145 10 -98 0 -149 -4 -145 -10z"/>
 <path d="M890 1701 c0 -26 5 -41 16 -45 20 -8 328 -8 348 0 11 4 16 19 16 45 l0 39 -190 0 -190 0 0 -39z"/>
 <path d="M2362 1487 c-21 -23 -22 -31 -22 -253 0 -228 0 -231 23 -252 l23 -22 545 0 546 0 21 23 c21 23 22 31 22 254 l0 232 -26 20 c-26 21 -36 21 -569 21 l-542 0 -21 -23z m1059 -83 c23 -25 24 -31 24 -169 0 -138 -1 -144 -24 -169 l-24 -26 -466 0 c-463 0 -465 0 -488 22 -22 21 -23 28 -23 174 l0 153 26 20 c26 21 36 21 489 21 l462 0 24 -26z"/>
 <path d="M2532 1233 l3 -78 395 0 395 0 3 78 3 77 -401 0 -401 0 3 -77z"/>
 </g>
<g id="layer106" fill="#d1d3e6" stroke="none">
 <path d="M2835 3900 c-469 -52 -815 -457 -792 -924 12 -236 96 -427 261 -591 172 -172 383 -259 626 -259 403 -1 755 269 860 660 82 303 -16 657 -242 870 -192 181 -459 272 -713 244z m310 -215 c195 -64 342 -197 430 -388 43 -93 58 -169 57 -287 0 -109 -12 -168 -49 -260 -79 -192 -239 -341 -438 -407 -71 -24 -96 -27 -215 -27 -119 0 -144 3 -210 26 -144 50 -236 113 -335 228 -56 66 -119 191 -139 280 -22 93 -20 249 4 344 67 263 303 476 575 520 76 12 240 -3 320 -29z"/>
 <path d="M2778 3580 c-132 -35 -247 -116 -329 -233 -218 -311 -77 -753 283 -885 65 -23 87 -26 198 -26 111 0 133 3 198 26 233 86 385 301 386 548 1 140 -36 251 -121 362 -140 184 -389 269 -615 208z"/>
 <path d="M1597 2048 c-2 -79 -7 -153 -11 -166 l-8 -22 1393 2 c1533 3 1423 -2 1454 64 11 23 15 66 15 148 l0 116 -461 0 -461 0 -57 -34 c-106 -64 -215 -108 -327 -131 -103 -21 -305 -21 -408 0 -113 23 -250 79 -333 136 l-42 29 -375 0 -375 0 -4 -142z"/>
 <path d="M890 1701 c0 -26 5 -41 16 -45 20 -8 328 -8 348 0 11 4 16 19 16 45 l0 39 -190 0 -190 0 0 -39z"/>
 <path d="M2362 1487 c-21 -23 -22 -31 -22 -253 0 -228 0 -231 23 -252 l23 -22 545 0 546 0 21 23 c21 23 22 31 22 254 l0 232 -26 20 c-26 21 -36 21 -569 21 l-542 0 -21 -23z m1059 -83 c23 -25 24 -31 24 -169 0 -138 -1 -144 -24 -169 l-24 -26 -466 0 c-463 0 -465 0 -488 22 -22 21 -23 28 -23 174 l0 153 26 20 c26 21 36 21 489 21 l462 0 24 -26z"/>
 <path d="M2532 1233 l3 -78 395 0 395 0 3 78 3 77 -401 0 -401 0 3 -77z"/>
 </g>
<g id="layer107" fill="#eaecff" stroke="none">
 <path d="M2835 3900 c-469 -52 -815 -457 -792 -924 12 -236 96 -427 261 -591 172 -172 383 -259 626 -259 403 -1 755 269 860 660 82 303 -16 657 -242 870 -192 181 -459 272 -713 244z m310 -215 c195 -64 342 -197 430 -388 43 -93 58 -169 57 -287 0 -109 -12 -168 -49 -260 -79 -192 -239 -341 -438 -407 -71 -24 -96 -27 -215 -27 -119 0 -144 3 -210 26 -144 50 -236 113 -335 228 -56 66 -119 191 -139 280 -22 93 -20 249 4 344 67 263 303 476 575 520 76 12 240 -3 320 -29z"/>
 <path d="M2740 3571 c-22 -7 -46 -19 -136 -69 -44 -24 -126 -111 -169 -181 -6 -9 -18 -27 -27 -41 -16 -23 -40 -99 -55 -175 -15 -72 -8 -157 22 -267 45 -167 194 -316 380 -380 l40 -14 63 49 c171 134 262 315 262 522 0 207 -100 402 -265 520 -64 46 -72 49 -115 36z"/>
 <path d="M3160 3546 c0 -3 14 -12 30 -21 17 -9 30 -13 30 -11 0 3 -13 12 -30 21 -16 9 -30 13 -30 11z"/>
 <path d="M3340 3415 c72 -80 77 -85 52 -50 -11 17 -40 48 -63 70 -37 34 -35 31 11 -20z"/>
 <path d="M3501 3071 c-1 -24 2 -32 9 -25 7 7 7 19 1 35 -9 23 -10 22 -10 -10z"/>
 <path d="M3500 2956 c0 -31 6 -34 13 -6 3 11 1 23 -4 26 -5 3 -9 -6 -9 -20z"/>
 <path d="M3315 2593 c-38 -37 -56 -57 -40 -46 29 21 124 113 115 113 -3 -1 -36 -31 -75 -67z"/>
 <path d="M2913 2433 c9 -2 25 -2 35 0 9 3 1 5 -18 5 -19 0 -27 -2 -17 -5z"/>
 <path d="M1597 2048 c-2 -79 -7 -153 -11 -166 l-8 -22 1393 2 c1533 3 1423 -2 1454 64 11 23 15 66 15 148 l0 116 -461 0 -461 0 -57 -34 c-106 -64 -215 -108 -327 -131 -103 -21 -305 -21 -408 0 -113 23 -250 79 -333 136 l-42 29 -375 0 -375 0 -4 -142z"/>
 <path d="M890 1701 c0 -26 5 -41 16 -45 20 -8 328 -8 348 0 11 4 16 19 16 45 l0 39 -190 0 -190 0 0 -39z"/>
 <path d="M2362 1487 c-21 -23 -22 -31 -22 -253 0 -228 0 -231 23 -252 l23 -22 545 0 546 0 21 23 c21 23 22 31 22 254 l0 232 -26 20 c-26 21 -36 21 -569 21 l-542 0 -21 -23z m1059 -83 c23 -25 24 -31 24 -169 0 -138 -1 -144 -24 -169 l-24 -26 -466 0 c-463 0 -465 0 -488 22 -22 21 -23 28 -23 174 l0 153 26 20 c26 21 36 21 489 21 l462 0 24 -26z"/>
 <path d="M2532 1233 l3 -78 395 0 395 0 3 78 c2 48 -1 77 -8 77 -6 0 -10 -28 -10 -70 l0 -70 -190 0 -190 0 0 70 0 70 -200 0 -201 0 3 -77z"/>
 </g>
<g id="layer108" fill="#bbbbbb" stroke="none">
 <path d="M2835 3900 c-469 -52 -815 -457 -792 -924 12 -236 96 -427 261 -591 172 -172 383 -259 626 -259 403 -1 755 269 860 660 82 303 -16 657 -242 870 -192 181 -459 272 -713 244z m310 -215 c195 -64 342 -197 430 -388 43 -93 58 -169 57 -287 0 -109 -12 -168 -49 -260 -79 -192 -239 -341 -438 -407 -71 -24 -96 -27 -215 -27 -119 0 -144 3 -210 26 -144 50 -236 113 -335 228 -56 66 -119 191 -139 280 -22 93 -20 249 4 344 67 263 303 476 575 520 76 12 240 -3 320 -29z"/>
 <path d="M1597 2048 c-2 -79 -7 -153 -11 -166 l-8 -22 1393 2 c1533 3 1423 -2 1454 64 11 23 15 66 15 148 l0 116 -461 0 -461 0 -57 -34 c-106 -64 -215 -108 -327 -131 -103 -21 -305 -21 -408 0 -113 23 -250 79 -333 136 l-42 29 -375 0 -375 0 -4 -142z"/>
 <path d="M890 1701 c0 -26 5 -41 16 -45 20 -8 328 -8 348 0 11 4 16 19 16 45 l0 39 -190 0 -190 0 0 -39z"/>
 <path d="M2362 1487 c-21 -23 -22 -31 -22 -253 0 -228 0 -231 23 -252 l23 -22 545 0 546 0 21 23 c21 23 22 31 22 254 l0 232 -26 20 c-26 21 -36 21 -569 21 l-542 0 -21 -23z m1059 -83 c23 -25 24 -31 24 -169 0 -138 -1 -144 -24 -169 l-24 -26 -466 0 c-463 0 -465 0 -488 22 -22 21 -23 28 -23 174 l0 153 26 20 c26 21 36 21 489 21 l462 0 24 -26z"/>
 </g>

</svg>