<!DOCTYPE svg PUBLIC "-//W3C//DTD SVG 20010904//EN" "http://www.w3.org/TR/2001/REC-SVG-20010904/DTD/svg10.dtd">
<svg version="1.0" xmlns="http://www.w3.org/2000/svg" width="512px" height="512px" viewBox="0 0 5120 5120" preserveAspectRatio="xMidYMid meet">
<g id="layer101" fill="#000000" stroke="none">
 <path d="M522 4713 c-40 -8 -90 -67 -97 -115 -3 -24 -5 -950 -3 -2058 3 -1906 4 -2017 21 -2043 9 -15 29 -35 44 -44 26 -17 135 -18 2078 -18 1966 0 2051 1 2077 18 15 10 35 30 45 45 17 26 18 111 18 2072 0 1936 -1 2047 -18 2077 -9 18 -32 41 -50 50 -30 17 -141 18 -2062 19 -1117 1 -2040 -1 -2053 -3z"/>
 </g>
<g id="layer102" fill="#a0a7a9" stroke="none">
 <path d="M560 2575 l0 -2005 2005 0 2005 0 0 2005 0 2005 -2005 0 -2005 0 0 -2005z m321 1914 c52 -16 78 -46 85 -101 18 -128 -124 -204 -220 -117 -29 25 -31 32 -31 92 0 56 4 69 24 91 21 23 62 42 95 45 5 1 26 -4 47 -10z m306 -11 c63 -29 81 -142 33 -193 -51 -54 -155 -57 -204 -6 -33 34 -42 83 -24 136 10 32 22 45 58 63 48 25 86 25 137 0z m2980 -90 c29 -29 33 -41 36 -90 2 -52 -1 -60 -28 -87 -25 -25 -39 -30 -85 -32 -100 -4 -128 22 -132 121 -3 58 -1 63 27 87 44 36 65 43 109 39 28 -3 49 -14 73 -38z m273 12 c37 -26 56 -95 41 -143 -20 -60 -52 -80 -125 -81 -54 -1 -68 3 -89 23 -64 59 -32 203 48 224 34 9 96 -3 125 -23z m-3524 -205 c60 -39 70 -144 17 -197 -35 -34 -83 -44 -141 -29 -50 14 -73 44 -79 104 -11 91 47 152 134 144 24 -3 54 -12 69 -22z m282 -1 c50 -33 64 -123 28 -179 -39 -60 -143 -69 -205 -17 -64 53 -47 164 30 205 39 21 108 17 147 -9z m2977 -85 c27 -26 30 -36 30 -90 0 -56 -3 -63 -33 -90 -70 -63 -202 -28 -218 57 -8 45 9 104 38 131 44 41 136 37 183 -8z m276 0 c50 -61 50 -118 -1 -179 -27 -33 -31 -35 -94 -35 -58 0 -69 3 -93 28 -25 25 -28 34 -28 96 0 101 34 134 134 127 47 -2 57 -7 82 -37z m-581 -1539 l0 -1310 -1305 0 -1305 0 0 1310 0 1310 1305 0 1305 0 0 -1310z m-3053 -1323 c99 -37 108 -197 12 -244 -38 -18 -110 -5 -149 27 -34 27 -35 31 -35 95 0 62 2 69 30 92 54 44 85 51 142 30z m303 -15 c14 -10 33 -35 44 -56 24 -48 15 -92 -28 -141 -30 -36 -37 -39 -89 -39 -48 -1 -60 3 -86 28 -41 40 -57 88 -42 135 11 40 54 86 86 94 33 9 88 -1 115 -21z m2950 -64 c56 -29 72 -58 67 -126 -4 -62 -31 -96 -89 -114 -48 -14 -104 1 -139 38 -20 22 -24 36 -24 89 0 70 16 97 70 121 43 19 65 17 115 -8z m299 -7 c60 -43 65 -144 10 -197 -27 -25 -37 -29 -94 -29 -57 0 -68 3 -92 28 -25 24 -28 35 -28 91 0 50 5 69 20 87 47 52 127 61 184 20z m-3504 -221 c26 -26 29 -37 30 -90 0 -54 -3 -63 -31 -91 -27 -27 -39 -32 -86 -33 -95 -2 -133 36 -132 130 0 38 6 59 20 75 51 57 146 62 199 9z m272 8 c28 -26 47 -89 38 -127 -3 -15 -19 -43 -34 -62 -27 -32 -32 -34 -95 -34 -58 0 -69 3 -93 28 -25 24 -28 35 -28 91 0 71 15 97 70 123 41 18 112 9 142 -19z m2938 -53 c43 -21 59 -55 59 -122 -1 -48 -5 -59 -32 -86 -27 -27 -39 -31 -85 -31 -94 -1 -132 36 -132 129 0 59 19 88 70 111 40 18 80 17 120 -1z m305 -20 c52 -50 50 -144 -5 -195 -22 -21 -36 -25 -90 -25 -57 0 -68 3 -92 28 -24 24 -28 35 -28 86 0 101 44 145 138 138 36 -3 55 -11 77 -32z"/>
 <path d="M802 4414 c-34 -23 -27 -83 11 -104 24 -13 30 -13 55 0 37 21 44 81 10 104 -12 9 -29 16 -38 16 -9 0 -26 -7 -38 -16z"/>
 <path d="M1070 4410 c-22 -22 -26 -51 -10 -81 23 -43 120 -15 120 35 0 25 -19 58 -31 51 -5 -4 -9 -1 -9 4 0 19 -49 12 -70 -9z"/>
 <path d="M4050 4341 c-7 -11 -16 -18 -20 -16 -13 8 -4 -51 10 -63 11 -10 11 -12 1 -6 -9 4 -12 3 -8 -3 4 -6 21 -8 39 -6 18 3 38 5 45 6 7 0 10 4 7 9 -3 4 -2 8 3 8 4 0 8 13 9 30 1 16 -2 28 -6 25 -3 -2 -13 5 -20 16 -8 10 -21 19 -30 19 -9 0 -22 -9 -30 -19z"/>
 <path d="M4318 4335 c-19 -25 -21 -65 -3 -81 13 -12 75 -14 75 -2 0 5 5 6 12 2 6 -4 8 -3 4 4 -3 6 -2 13 4 17 17 10 11 33 -15 60 -32 31 -55 31 -77 0z"/>
 <path d="M798 4139 c-21 -12 -25 -78 -6 -97 17 -17 74 -15 92 4 22 21 20 67 -2 87 -21 19 -58 22 -84 6z"/>
 <path d="M1067 4132 c-22 -24 -21 -65 1 -85 40 -37 112 -10 112 41 0 52 -79 82 -113 44z"/>
 <path d="M4055 4070 c-4 -6 -11 -7 -17 -4 -7 4 -8 2 -4 -4 4 -7 3 -12 -2 -12 -17 0 -7 -55 12 -69 43 -32 91 -11 91 39 0 14 -7 32 -15 40 -18 18 -56 24 -65 10z"/>
 <path d="M4312 4066 c-14 -19 -14 -83 0 -92 21 -14 71 -11 90 5 23 20 23 62 1 81 -21 18 -79 22 -91 6z"/>
 <path d="M1460 2570 l0 -1170 65 0 65 0 0 1170 0 1170 -65 0 -65 0 0 -1170z"/>
 <path d="M1660 2570 l0 -1170 210 0 210 0 0 1170 0 1170 -210 0 -210 0 0 -1170z"/>
 <path d="M2150 2570 l0 -1170 65 0 65 0 0 1170 0 1170 -65 0 -65 0 0 -1170z"/>
 <path d="M2350 2570 l0 -1170 210 0 210 0 0 1170 0 1170 -210 0 -210 0 0 -1170z"/>
 <path d="M2840 2570 l0 -1170 65 0 65 0 0 1170 0 1170 -65 0 -65 0 0 -1170z"/>
 <path d="M3040 2570 l0 -1170 210 0 210 0 0 1170 0 1170 -210 0 -210 0 0 -1170z"/>
 <path d="M3530 2570 l0 -1170 65 0 65 0 0 1170 0 1170 -65 0 -65 0 0 -1170z"/>
 <path d="M750 1179 c0 -5 -3 -8 -7 -6 -27 16 -38 -67 -13 -94 23 -24 100 -13 85 12 -4 5 -1 9 4 9 16 0 13 56 -2 69 -8 6 -17 8 -20 4 -4 -3 -7 -1 -7 5 0 7 -9 12 -20 12 -11 0 -20 -5 -20 -11z"/>
 <path d="M1000 1170 c-53 -53 17 -141 80 -100 8 5 11 10 5 10 -5 0 -2 5 8 11 40 23 4 99 -48 99 -14 0 -34 -9 -45 -20z"/>
 <path d="M3972 1104 c-29 -20 -30 -70 0 -95 26 -23 47 -24 76 -3 45 31 18 114 -38 114 -9 0 -26 -7 -38 -16z"/>
 <path d="M4248 1109 c-21 -12 -25 -78 -6 -97 20 -20 86 -15 98 7 35 66 -29 127 -92 90z"/>
 <path d="M745 900 c-4 -6 -11 -7 -17 -4 -7 4 -8 2 -4 -4 4 -7 2 -12 -3 -12 -15 0 -14 -63 1 -78 31 -31 108 2 108 48 0 42 -66 81 -85 50z"/>
 <path d="M1016 893 c-11 -10 -15 -12 -11 -4 6 10 4 12 -4 7 -15 -10 -11 -76 6 -93 29 -31 103 -1 103 43 0 27 -32 64 -57 64 -10 0 -27 -8 -37 -17z"/>
 <path d="M3967 820 c-23 -27 -22 -55 3 -80 25 -25 58 -26 77 -2 8 9 11 11 7 3 -5 -9 -3 -12 4 -7 13 8 16 54 6 80 -3 9 -10 13 -15 10 -5 -3 -9 0 -9 5 0 19 -55 12 -73 -9z"/>
 <path d="M4252 823 c-7 -10 -10 -12 -6 -4 5 9 3 12 -4 7 -16 -9 -15 -79 0 -94 7 -7 27 -12 44 -12 55 0 85 68 46 103 -24 22 -64 22 -80 0z"/>
 </g>
<g id="layer103" fill="#b9c0c2" stroke="none">
 <path d="M565 2579 l0 -2004 2001 0 2000 0 -4 1995 c-2 1097 -6 1997 -8 2000 -3 2 -901 6 -1997 8 l-1992 5 0 -2004z m371 1880 c18 -18 31 -35 29 -39 -2 -4 -1 -20 4 -36 7 -29 8 -28 19 16 17 69 49 94 125 96 59 1 64 0 100 -36 34 -34 37 -42 37 -92 0 -49 -3 -58 -36 -90 -35 -35 -37 -36 -105 -33 -66 2 -72 4 -99 36 -16 19 -30 43 -31 54 l-1 20 -5 -20 c-3 -11 -18 -36 -34 -56 -22 -28 -39 -38 -71 -43 l-43 -7 53 -18 c65 -22 85 -49 90 -120 4 -50 2 -55 -35 -93 -37 -38 -40 -39 -98 -36 -52 3 -63 7 -92 36 -27 27 -33 40 -33 77 0 24 5 56 11 72 12 33 56 72 82 73 9 0 17 5 17 11 0 6 -7 9 -15 5 -9 -3 -31 9 -55 30 -38 35 -40 39 -40 98 0 55 3 65 29 90 58 56 142 58 197 5z m2934 -99 l0 -70 -275 0 -275 0 0 70 0 70 275 0 275 0 0 -70z m295 32 c34 -31 38 -38 40 -92 2 -55 0 -61 -31 -91 -29 -28 -41 -33 -91 -34 -94 -4 -133 39 -129 144 1 37 6 48 40 76 33 28 47 33 86 31 38 -1 54 -8 85 -34z m282 2 c19 -14 31 -29 28 -34 -3 -5 -1 -11 4 -14 12 -8 8 -84 -7 -118 -16 -38 -47 -51 -119 -52 -54 -1 -66 2 -88 24 -34 35 -44 107 -20 159 15 35 32 49 75 65 29 10 95 -5 127 -30z m-577 -234 l0 -70 -345 0 -345 0 0 54 c0 94 -32 86 351 86 l339 0 0 -70z m-2654 17 c29 -32 34 -44 34 -88 0 -48 -3 -55 -42 -91 -42 -38 -45 -39 -101 -35 -49 4 -64 10 -91 36 -28 27 -33 39 -35 86 -2 49 1 57 33 93 35 39 37 39 102 38 63 -2 68 -4 100 -39z m2921 -38 c48 -16 70 -53 69 -119 -1 -84 -31 -115 -120 -123 -42 -3 -54 0 -90 28 -38 28 -41 35 -44 83 -3 45 0 58 23 88 38 50 95 65 162 43z m317 -31 c28 -32 34 -47 33 -86 0 -38 -6 -55 -34 -88 -33 -41 -35 -42 -97 -42 -58 0 -67 3 -93 30 -25 26 -28 36 -28 98 0 62 3 72 28 98 26 27 35 30 93 30 63 0 65 -1 98 -40z m-584 -1538 l0 -1310 -1307 2 -1308 3 -3 1308 -2 1307 1310 0 1310 0 0 -1310z m-3004 -1357 c27 -32 32 -46 32 -90 0 -45 -5 -58 -34 -91 -32 -38 -35 -39 -92 -37 -51 2 -63 7 -94 36 -34 32 -36 38 -36 94 -1 58 1 61 41 97 39 34 45 36 97 33 49 -4 58 -8 86 -42z m235 35 c14 -6 38 -29 53 -50 39 -55 33 -115 -16 -165 -31 -31 -43 -36 -92 -39 -55 -3 -56 -2 -96 44 -35 40 -41 52 -39 87 3 49 15 74 47 100 44 35 99 44 143 23z m3005 -99 c31 -30 34 -37 34 -95 0 -59 -2 -63 -40 -98 -35 -31 -47 -36 -90 -36 -43 0 -55 5 -90 36 -39 35 -40 39 -40 99 0 61 1 64 41 100 39 35 44 36 96 32 45 -4 61 -10 89 -38z m273 2 c41 -38 43 -42 40 -93 -3 -44 -9 -59 -36 -88 -30 -32 -38 -36 -95 -38 -60 -3 -65 -2 -97 31 -31 33 -33 39 -30 93 5 91 45 131 130 133 40 1 51 -4 88 -38z m-2649 -101 l0 -70 -237 2 -238 3 -3 68 -3 67 241 0 240 0 0 -70z m-867 -108 c26 -26 30 -39 33 -90 3 -54 0 -62 -27 -90 -55 -56 -155 -56 -198 -2 -28 36 -32 57 -25 117 8 70 52 102 133 98 44 -2 58 -8 84 -33z m268 12 c60 -54 64 -142 9 -199 -29 -30 -37 -33 -93 -33 -55 0 -66 4 -93 29 -26 25 -31 38 -33 84 -2 64 17 108 56 128 39 20 128 15 154 -9z m3209 -46 c0 3 18 -12 40 -33 37 -36 40 -43 40 -92 0 -46 -4 -58 -33 -89 -29 -32 -39 -36 -95 -41 -61 -6 -64 -5 -99 28 -35 34 -35 34 -30 104 5 63 9 73 38 97 36 31 60 37 107 27 17 -4 32 -4 32 -1z m-2540 -63 l0 -65 -272 2 -273 3 -3 63 -3 62 276 0 275 0 0 -65z m2286 47 c39 -33 52 -64 49 -124 -2 -48 -6 -60 -31 -82 -36 -32 -58 -38 -113 -33 -31 3 -52 12 -75 34 -27 27 -32 39 -34 91 -3 59 -3 60 39 96 37 31 49 36 93 36 33 -1 58 -7 72 -18z"/>
 <path d="M802 4414 c-34 -23 -27 -83 11 -104 24 -13 30 -13 55 0 37 21 44 81 10 104 -12 9 -29 16 -38 16 -9 0 -26 -7 -38 -16z"/>
 <path d="M1070 4410 c-22 -22 -26 -51 -10 -81 23 -43 120 -15 120 35 0 25 -19 58 -31 51 -5 -4 -9 -1 -9 4 0 19 -49 12 -70 -9z"/>
 <path d="M798 4139 c-21 -12 -25 -78 -6 -97 17 -17 74 -15 92 4 22 21 20 67 -2 87 -21 19 -58 22 -84 6z"/>
 <path d="M4050 4341 c-7 -11 -16 -18 -20 -16 -13 8 -4 -51 10 -63 11 -10 11 -12 1 -6 -9 4 -12 3 -8 -3 4 -6 21 -8 39 -6 18 3 38 5 45 6 7 0 10 4 7 9 -3 4 -2 8 3 8 4 0 8 13 9 30 1 16 -2 28 -6 25 -3 -2 -13 5 -20 16 -8 10 -21 19 -30 19 -9 0 -22 -9 -30 -19z"/>
 <path d="M4318 4335 c-19 -25 -21 -65 -3 -81 13 -12 75 -14 75 -2 0 5 5 6 12 2 6 -4 8 -3 4 4 -3 6 -2 13 4 17 17 10 11 33 -15 60 -32 31 -55 31 -77 0z"/>
 <path d="M1067 4132 c-22 -24 -21 -65 1 -85 40 -37 112 -10 112 41 0 52 -79 82 -113 44z"/>
 <path d="M4055 4070 c-4 -6 -11 -7 -17 -4 -7 4 -8 2 -4 -4 4 -7 3 -12 -2 -12 -17 0 -7 -55 12 -69 43 -32 91 -11 91 39 0 14 -7 32 -15 40 -18 18 -56 24 -65 10z"/>
 <path d="M4312 4066 c-14 -19 -14 -83 0 -92 21 -14 71 -11 90 5 23 20 23 62 1 81 -21 18 -79 22 -91 6z"/>
 <path d="M1460 2570 l0 -1170 65 0 65 0 0 1170 0 1170 -65 0 -65 0 0 -1170z"/>
 <path d="M1665 2570 c0 -646 1 -911 2 -588 2 324 2 852 0 1175 -1 324 -2 59 -2 -587z"/>
 <path d="M2150 2570 l0 -1170 65 0 65 0 0 1170 0 1170 -65 0 -65 0 0 -1170z"/>
 <path d="M2355 2570 c0 -646 1 -911 2 -588 2 324 2 852 0 1175 -1 324 -2 59 -2 -587z"/>
 <path d="M2840 2570 l0 -1170 65 0 65 0 0 1170 0 1170 -65 0 -65 0 0 -1170z"/>
 <path d="M3045 2570 c0 -646 1 -911 2 -588 2 324 2 852 0 1175 -1 324 -2 59 -2 -587z"/>
 <path d="M3530 2570 l0 -1170 65 0 65 0 0 1170 0 1170 -65 0 -65 0 0 -1170z"/>
 <path d="M750 1179 c0 -5 -3 -8 -7 -6 -27 16 -38 -67 -13 -94 23 -24 100 -13 85 12 -4 5 -1 9 4 9 16 0 13 56 -2 69 -8 6 -17 8 -20 4 -4 -3 -7 -1 -7 5 0 7 -9 12 -20 12 -11 0 -20 -5 -20 -11z"/>
 <path d="M1000 1170 c-53 -53 17 -141 80 -100 8 5 11 10 5 10 -5 0 -2 5 8 11 40 23 4 99 -48 99 -14 0 -34 -9 -45 -20z"/>
 <path d="M3972 1104 c-29 -20 -30 -70 0 -95 26 -23 47 -24 76 -3 45 31 18 114 -38 114 -9 0 -26 -7 -38 -16z"/>
 <path d="M4248 1109 c-21 -12 -25 -78 -6 -97 20 -20 86 -15 98 7 35 66 -29 127 -92 90z"/>
 <path d="M745 900 c-4 -6 -11 -7 -17 -4 -7 4 -8 2 -4 -4 4 -7 2 -12 -3 -12 -15 0 -14 -63 1 -78 31 -31 108 2 108 48 0 42 -66 81 -85 50z"/>
 <path d="M1016 893 c-11 -10 -15 -12 -11 -4 6 10 4 12 -4 7 -15 -10 -11 -76 6 -93 29 -31 103 -1 103 43 0 27 -32 64 -57 64 -10 0 -27 -8 -37 -17z"/>
 <path d="M4252 823 c-7 -10 -10 -12 -6 -4 5 9 3 12 -4 7 -16 -9 -15 -79 0 -94 7 -7 27 -12 44 -12 55 0 85 68 46 103 -24 22 -64 22 -80 0z"/>
 <path d="M3967 820 c-23 -27 -22 -55 3 -80 25 -25 58 -26 77 -2 8 9 11 11 7 3 -5 -9 -3 -12 4 -7 13 8 16 54 6 80 -3 9 -10 13 -15 10 -5 -3 -9 0 -9 5 0 19 -55 12 -73 -9z"/>
 </g>
<g id="layer104" fill="#d2d9db" stroke="none">
 <path d="M567 4053 c-9 -710 -9 -3471 0 -3476 5 -2 905 -2 2001 1 l1992 5 0 1993 0 1994 -1993 0 -1994 0 -6 -517z m369 406 c25 -25 34 -42 35 -68 l1 -36 7 30 c20 80 62 115 139 115 50 0 58 -3 93 -39 36 -35 39 -43 39 -93 0 -50 -3 -58 -37 -92 -38 -38 -39 -38 -107 -34 -64 4 -71 6 -97 38 -16 19 -29 43 -30 55 -1 14 -3 11 -10 -10 -12 -42 -57 -83 -104 -94 -34 -7 -35 -9 -12 -10 15 -1 40 -9 55 -18 50 -33 61 -54 62 -115 0 -52 -3 -60 -35 -93 -33 -32 -40 -35 -96 -35 -56 0 -64 3 -95 34 -31 31 -34 39 -34 95 0 56 2 62 37 96 20 19 46 35 57 36 19 0 18 1 -4 10 -14 6 -40 24 -57 42 -30 28 -33 36 -33 91 1 43 6 67 18 82 54 64 149 70 208 13z m2934 -99 l0 -70 -275 0 -275 0 0 70 0 70 275 0 275 0 0 -70z m294 36 c36 -31 40 -39 43 -93 4 -52 2 -61 -22 -86 -33 -35 -64 -47 -118 -47 -75 0 -117 52 -117 144 0 40 4 48 43 80 35 29 50 36 87 35 36 0 52 -6 84 -33z m269 8 c41 -28 57 -57 57 -108 0 -79 -54 -126 -146 -126 -39 0 -51 5 -80 34 -29 29 -34 41 -34 81 0 124 105 186 203 119z m-563 -244 l0 -70 -345 0 -345 0 0 54 c0 94 -32 86 351 86 l339 0 0 -70z m-2659 21 c35 -35 39 -44 39 -91 0 -47 -4 -56 -39 -91 -36 -36 -43 -39 -95 -39 -50 0 -60 4 -96 36 -37 34 -40 40 -40 90 0 48 4 58 36 94 35 38 39 40 96 40 57 0 63 -2 99 -39z m2932 -45 c47 -19 67 -55 67 -119 0 -46 -4 -57 -31 -85 -54 -55 -139 -55 -196 0 -28 27 -33 39 -33 80 0 27 7 63 16 79 27 53 109 74 177 45z m311 -28 c30 -35 36 -49 36 -88 0 -39 -6 -53 -36 -88 -35 -41 -37 -42 -99 -42 -60 0 -65 2 -94 35 -27 31 -31 43 -31 95 0 52 4 64 31 95 29 33 34 35 94 35 62 0 64 -1 99 -42z m-584 -1538 l0 -1310 -1307 2 -1308 3 -3 1308 -2 1307 1310 0 1310 0 0 -1310z m-3003 -1355 c28 -33 33 -46 33 -90 0 -45 -5 -57 -37 -94 -36 -43 -37 -43 -95 -39 -50 4 -63 9 -93 38 -33 32 -35 38 -35 96 0 61 1 63 43 99 39 34 45 36 96 32 49 -3 59 -8 88 -42z m243 30 c65 -34 89 -127 49 -192 -26 -42 -66 -63 -119 -63 -130 0 -179 182 -67 250 38 24 97 26 137 5z m2990 -91 c39 -35 40 -39 40 -99 0 -60 -1 -64 -40 -99 -35 -31 -47 -36 -90 -36 -43 0 -55 5 -90 36 -39 35 -40 39 -40 99 0 60 1 64 40 99 35 31 47 36 90 36 43 0 55 -5 90 -36z m280 -2 c37 -36 40 -43 40 -95 0 -49 -4 -60 -34 -91 -31 -34 -37 -36 -97 -36 -57 0 -66 3 -96 32 -30 29 -33 37 -33 91 0 32 5 67 11 78 17 34 70 59 121 59 41 0 52 -5 88 -38z m-2650 -102 l0 -70 -237 2 -238 3 -3 68 -3 67 241 0 240 0 0 -70z m-869 -109 c36 -35 39 -43 39 -93 0 -47 -4 -58 -31 -86 -54 -55 -153 -56 -201 -2 -23 25 -28 40 -28 81 0 92 42 136 134 138 44 1 52 -3 87 -38z m263 18 c36 -28 56 -70 56 -118 0 -33 -7 -49 -36 -81 -35 -38 -39 -40 -97 -40 -55 0 -64 3 -94 32 -29 28 -33 38 -33 85 0 95 41 140 131 142 33 1 54 -5 73 -20z m3259 -87 c34 -33 37 -41 37 -90 0 -50 -3 -58 -39 -93 -36 -37 -42 -39 -98 -39 -54 0 -62 3 -92 34 -32 33 -33 37 -29 102 4 62 7 69 38 95 57 48 126 45 183 -9z m-2583 -27 l0 -65 -272 2 -273 3 -3 63 -3 62 276 0 275 0 0 -65z m2285 47 c52 -44 70 -112 45 -176 -14 -39 -66 -66 -126 -66 -45 0 -55 4 -87 37 -34 33 -37 41 -37 92 1 59 12 80 60 113 34 23 118 23 145 0z"/>
 </g>
<g id="layer105" fill="#ecf3f5" stroke="none">
 <path d="M3878 4563 c-2 -5 -3 -159 -3 -343 1 -184 2 -926 3 -1647 l2 -1313 100 0 100 0 0 310 0 310 70 0 70 0 0 -311 0 -310 33 3 32 3 -4 237 -4 238 72 0 71 0 0 -240 0 -240 70 0 70 0 0 1655 0 1655 -339 0 c-187 0 -341 -3 -343 -7z m293 -172 c36 -35 39 -43 39 -93 0 -88 -45 -128 -143 -128 -46 0 -57 4 -82 30 -29 30 -44 102 -31 153 9 39 73 77 130 77 43 0 53 -4 87 -39z m264 19 c56 -34 72 -126 35 -188 -24 -40 -54 -52 -126 -52 -48 0 -60 4 -85 29 -25 26 -29 37 -29 86 0 64 10 90 48 122 36 30 111 31 157 3z m-285 -275 c44 -23 60 -53 60 -115 0 -86 -44 -130 -130 -130 -86 0 -130 44 -130 131 0 61 22 102 64 119 34 14 105 11 136 -5z m278 7 c34 -22 62 -77 62 -122 0 -33 -7 -55 -25 -80 -34 -47 -41 -50 -113 -50 -57 0 -67 3 -93 29 -27 27 -29 35 -29 101 0 66 2 74 29 101 26 26 36 29 93 29 35 0 69 -4 76 -8z"/>
 <path d="M570 2230 l0 -1650 340 0 340 0 0 1650 0 1650 -70 0 -70 0 0 -205 0 -205 -70 0 -70 0 0 205 0 205 -35 0 -35 0 0 -412 1 -411 -66 -5 -65 -4 0 416 0 416 -100 0 -100 0 0 -1650z m268 -984 c64 -35 84 -143 37 -206 -34 -46 -42 -50 -101 -50 -38 0 -58 6 -84 25 -46 34 -50 42 -50 110 0 68 4 76 50 110 38 28 108 34 148 11z m302 -26 c35 -35 40 -46 40 -86 0 -88 -55 -144 -141 -144 -48 0 -55 3 -91 40 -32 35 -38 47 -38 86 0 90 51 144 136 144 50 0 57 -3 94 -40z m-278 -277 c35 -34 38 -41 38 -93 0 -87 -44 -130 -135 -130 -88 0 -125 39 -125 131 0 85 45 128 135 129 44 0 53 -4 87 -37z m282 -3 c31 -34 36 -47 36 -88 0 -36 -7 -57 -25 -82 -34 -47 -41 -50 -113 -50 -57 0 -67 3 -93 29 -26 26 -29 36 -29 91 0 34 5 70 11 81 18 35 70 59 125 59 48 0 55 -3 88 -40z"/>
 </g>

</svg>