<!DOCTYPE svg PUBLIC "-//W3C//DTD SVG 20010904//EN" "http://www.w3.org/TR/2001/REC-SVG-20010904/DTD/svg10.dtd">
<svg version="1.0" xmlns="http://www.w3.org/2000/svg" width="512px" height="512px" viewBox="0 0 5120 5120" preserveAspectRatio="xMidYMid meet">
<g id="layer101" fill="#000000" stroke="none">
 <path d="M2438 4395 c-20 -23 -29 -25 -103 -25 -56 0 -87 -5 -101 -15 -10 -8 -39 -15 -62 -15 -24 0 -56 -6 -70 -14 -34 -17 -94 -36 -115 -36 -24 0 -100 -41 -115 -62 -7 -10 -21 -18 -31 -18 -26 0 -154 -133 -200 -208 -21 -35 -48 -73 -59 -85 -11 -12 -28 -41 -37 -64 -13 -33 -23 -43 -39 -43 -12 0 -31 -7 -42 -15 -10 -8 -29 -15 -41 -15 -12 0 -35 -11 -51 -25 -17 -14 -35 -25 -41 -25 -6 0 -29 -16 -51 -36 -22 -20 -55 -44 -73 -53 -17 -9 -40 -31 -49 -50 -9 -19 -35 -53 -56 -75 -41 -44 -82 -115 -82 -144 0 -10 -5 -23 -11 -29 -13 -13 -29 -77 -36 -148 -3 -27 -11 -59 -19 -70 -20 -28 -20 -252 0 -281 9 -12 17 -56 20 -110 9 -162 21 -253 34 -266 7 -7 12 -37 12 -73 0 -35 6 -69 14 -80 13 -20 17 -38 33 -192 5 -40 14 -78 21 -85 6 -6 12 -26 12 -43 0 -17 6 -39 14 -50 7 -11 16 -38 19 -60 9 -69 24 -126 36 -138 6 -6 11 -20 11 -32 0 -12 7 -30 15 -41 8 -10 15 -28 15 -39 0 -11 12 -42 25 -70 14 -27 25 -57 25 -65 0 -9 6 -24 13 -35 8 -11 21 -39 30 -63 9 -23 27 -59 40 -80 13 -20 31 -56 40 -80 9 -23 29 -61 44 -84 16 -22 34 -53 42 -67 8 -14 27 -41 43 -59 15 -18 28 -37 28 -43 0 -13 199 -209 212 -209 5 0 23 -11 40 -25 16 -14 35 -25 42 -25 7 0 25 -14 39 -30 17 -19 37 -30 53 -30 14 0 39 -11 56 -25 27 -23 38 -25 123 -25 72 0 97 4 109 16 9 8 16 20 16 25 0 5 28 9 63 9 40 0 70 5 83 15 10 8 27 15 37 15 11 0 31 6 45 14 15 8 47 20 72 27 25 7 75 30 111 51 36 21 73 38 82 38 9 0 29 14 44 30 14 17 33 30 41 30 22 0 262 239 278 276 7 18 27 43 44 58 18 14 36 42 41 61 5 19 22 49 36 66 31 36 93 155 93 178 0 9 7 25 15 35 8 11 15 27 15 35 0 8 17 44 38 80 21 36 44 86 51 111 7 25 19 57 27 72 8 14 14 34 14 45 0 10 7 27 15 37 8 11 15 32 15 46 0 16 10 35 25 48 14 12 25 28 25 35 0 16 52 67 68 67 7 0 22 11 34 25 12 14 29 25 38 25 22 0 231 211 269 272 16 25 36 50 43 55 17 10 58 88 58 110 0 21 19 81 36 115 8 14 14 52 14 85 1 35 6 66 15 77 12 16 15 62 15 240 1 179 3 225 15 240 12 15 15 53 15 168 l0 148 -30 27 c-16 14 -30 34 -30 44 0 9 -11 40 -25 67 -14 28 -25 54 -25 60 0 6 -16 29 -35 52 -19 23 -35 45 -35 49 0 16 -124 131 -141 131 -10 0 -28 14 -40 31 -12 17 -36 38 -53 46 -17 8 -53 30 -81 49 -27 19 -59 34 -69 34 -24 0 -82 18 -118 36 -14 8 -41 14 -60 14 -18 0 -42 7 -52 15 -16 12 -64 15 -260 15 -239 0 -241 0 -281 25 -38 23 -48 24 -203 25 -161 0 -162 0 -184 -25z"/>
 </g>
<g id="layer102" fill="#131205" stroke="none">
 <path d="M3123 4013 c-15 -5 -17 -45 -4 -58 13 -14 22 -97 27 -250 l4 -130 -20 25 c-11 14 -20 34 -20 44 0 25 -85 197 -111 225 -11 11 -27 21 -37 21 -9 0 -35 11 -57 25 -22 13 -56 25 -75 25 -19 0 -44 7 -54 15 -13 10 -43 15 -86 15 -43 0 -73 -5 -86 -15 -10 -8 -32 -15 -47 -15 -16 0 -41 -7 -55 -15 -49 -26 -139 -65 -151 -65 -7 0 -25 -6 -39 -14 -46 -23 -96 -36 -143 -36 -25 0 -54 -7 -65 -15 -10 -8 -33 -15 -51 -15 -47 0 -63 -9 -63 -36 0 -24 2 -25 76 -39 31 -7 74 -44 74 -64 0 -26 -24 -43 -120 -88 -105 -49 -147 -63 -188 -63 -36 0 -94 -46 -120 -95 -35 -67 -73 -115 -102 -130 -37 -19 -74 -58 -110 -115 -16 -25 -40 -55 -54 -68 -15 -12 -26 -28 -26 -35 0 -7 -13 -26 -29 -41 -16 -16 -42 -48 -57 -72 l-27 -43 -20 40 -20 40 32 60 c17 32 31 70 31 84 0 13 8 30 18 37 38 27 62 95 62 171 l0 73 68 66 c73 72 98 88 134 88 13 0 33 7 44 15 10 8 27 15 37 15 11 0 31 6 45 14 71 36 157 46 217 25 42 -15 85 -5 85 21 0 10 -9 22 -22 26 -12 3 -43 20 -69 35 -53 33 -131 40 -165 14 -10 -8 -34 -15 -52 -15 -19 0 -46 -6 -60 -14 -35 -18 -94 -36 -117 -36 -10 0 -39 -13 -64 -28 -25 -16 -66 -36 -90 -46 -25 -10 -60 -31 -78 -47 -19 -16 -37 -29 -42 -29 -35 0 -151 -208 -151 -271 0 -19 -7 -43 -15 -53 -21 -28 -22 -511 -1 -541 14 -20 19 -54 34 -207 4 -42 13 -83 20 -90 6 -6 12 -35 12 -63 0 -28 6 -60 14 -71 8 -11 16 -49 19 -84 8 -96 22 -169 35 -182 7 -7 12 -28 12 -47 0 -20 12 -54 25 -76 14 -22 25 -52 25 -66 0 -14 7 -34 15 -45 8 -10 15 -28 15 -39 0 -11 6 -29 13 -40 8 -11 21 -39 30 -63 9 -23 27 -59 40 -80 13 -20 31 -56 40 -80 9 -23 28 -59 40 -80 13 -20 31 -57 41 -82 9 -25 30 -63 46 -85 16 -22 36 -53 43 -70 18 -37 179 -195 199 -195 8 0 27 -13 41 -30 15 -16 35 -30 45 -30 9 0 35 -11 57 -25 37 -22 50 -24 167 -25 115 0 131 2 176 25 28 14 61 25 74 25 13 0 33 7 44 15 10 8 26 15 35 15 24 0 149 66 178 94 14 14 50 38 79 53 49 26 212 175 212 194 0 5 13 23 28 41 16 18 35 45 43 59 8 15 32 53 53 85 22 33 49 78 62 101 12 23 32 54 43 69 12 15 21 31 21 36 0 4 11 26 25 48 14 22 33 59 42 82 9 24 29 64 45 89 15 25 28 56 28 68 0 12 16 51 35 87 19 35 35 71 35 79 0 19 -43 29 -68 16 -12 -6 -31 -11 -44 -11 -13 0 -33 -7 -44 -15 -10 -8 -27 -15 -37 -15 -11 0 -31 -6 -45 -14 -55 -28 -101 -36 -204 -36 -114 0 -165 14 -191 50 -8 12 -27 24 -43 29 -19 5 -30 16 -35 34 -4 15 -21 38 -37 52 -38 32 -72 101 -72 146 1 33 1 33 27 -24 17 -34 35 -59 48 -63 11 -3 36 -22 57 -41 35 -34 65 -45 158 -60 19 -3 44 -12 55 -19 25 -18 125 -18 150 0 11 7 36 16 55 19 105 17 141 32 300 131 41 25 81 46 88 46 37 0 151 91 177 141 8 14 30 45 49 68 20 24 36 53 36 64 0 12 7 31 15 41 8 11 15 29 15 40 0 24 18 82 36 118 25 47 16 92 -20 99 -17 4 -19 12 -17 79 1 54 -2 81 -13 95 -9 11 -16 28 -16 38 0 11 -6 31 -14 45 -30 58 -36 103 -36 255 l0 156 -30 34 c-16 19 -38 54 -49 78 -10 24 -40 64 -65 89 -25 24 -46 50 -46 57 0 7 -11 23 -25 35 -21 18 -25 30 -25 77 0 31 -4 61 -8 67 -16 23 -59 44 -92 44 -19 0 -44 7 -54 15 -14 11 -45 15 -110 14 -50 0 -97 -3 -103 -6z m436 -652 c12 -16 21 -37 21 -46 0 -9 6 -29 14 -43 31 -59 37 -107 33 -247 -6 -180 -13 -218 -48 -275 -16 -26 -29 -58 -29 -71 0 -32 -115 -145 -195 -193 -42 -25 -72 -36 -101 -36 -22 0 -49 -7 -60 -15 -14 -11 -48 -14 -134 -14 -79 1 -105 4 -82 9 19 4 39 13 45 19 6 6 34 11 62 11 30 0 59 6 71 15 10 8 28 15 39 15 11 0 47 14 80 31 33 18 76 40 95 50 49 24 105 86 125 135 13 33 15 65 12 145 -6 128 -19 215 -35 231 -18 18 -16 217 3 242 8 11 15 30 15 43 0 35 43 31 69 -6z m-2073 -1339 c46 -99 64 -150 64 -178 0 -11 7 -29 15 -40 8 -10 15 -26 15 -34 0 -24 223 -464 253 -499 15 -18 31 -49 37 -71 10 -36 14 -39 68 -55 31 -9 69 -23 84 -31 36 -19 226 -19 253 0 11 8 43 16 70 19 28 3 66 9 85 13 32 6 34 6 20 -10 -16 -20 -129 -76 -151 -76 -8 0 -23 -6 -34 -14 -53 -37 -256 -37 -310 0 -11 8 -27 14 -36 14 -10 0 -30 7 -46 14 -15 8 -36 17 -45 20 -10 3 -18 14 -18 26 0 11 -13 32 -30 47 -16 14 -30 32 -30 39 0 7 -11 26 -25 42 -14 17 -25 38 -25 47 0 9 -6 29 -14 43 -17 34 -36 93 -36 114 0 9 -25 64 -55 123 -30 59 -55 121 -55 136 0 16 -12 53 -27 81 -49 98 -53 110 -53 152 0 23 -7 51 -15 62 -15 19 -21 104 -7 104 4 0 25 -39 48 -88z m1424 -400 c0 -5 -18 -25 -40 -45 -22 -19 -40 -42 -40 -50 0 -8 -19 -22 -42 -32 -24 -9 -54 -27 -68 -40 -42 -38 -65 -45 -147 -44 -61 1 -71 3 -45 9 19 4 39 13 45 19 6 6 26 11 45 11 54 0 157 57 221 122 54 55 71 67 71 50z"/>
 <path d="M3860 2920 c0 -13 7 -20 20 -20 13 0 20 7 20 20 0 13 -7 20 -20 20 -13 0 -20 -7 -20 -20z"/>
 </g>
<g id="layer103" fill="#2c2b1e" stroke="none">
 <path d="M1270 3455 c0 -20 5 -25 25 -25 20 0 25 5 25 25 0 20 -5 25 -25 25 -20 0 -25 -5 -25 -25z"/>
 <path d="M1215 3401 c-8 -26 4 -51 25 -51 10 0 21 7 24 16 10 25 -3 54 -24 54 -10 0 -21 -8 -25 -19z"/>
 <path d="M1155 3293 c-3 -16 -10 -42 -15 -59 -6 -17 -10 -44 -10 -62 0 -17 -4 -34 -10 -37 -5 -3 -10 -17 -10 -30 0 -13 5 -27 10 -30 6 -3 10 -44 10 -90 0 -46 -4 -87 -10 -90 -13 -8 -13 -48 -1 -61 6 -5 12 -61 15 -124 10 -229 21 -339 34 -352 6 -6 12 -26 12 -43 0 -17 6 -39 14 -50 16 -23 24 -73 34 -202 4 -51 13 -98 20 -105 6 -6 12 -21 12 -31 0 -10 6 -31 14 -45 18 -36 36 -94 36 -118 0 -11 7 -29 15 -40 8 -10 14 -26 15 -34 0 -8 24 -64 54 -125 29 -60 59 -130 67 -155 8 -25 26 -59 41 -76 16 -17 28 -41 28 -52 0 -11 11 -34 25 -50 14 -17 25 -35 25 -41 0 -6 11 -21 25 -33 14 -12 25 -29 25 -38 0 -16 196 -220 211 -220 5 0 23 -13 42 -29 62 -55 97 -62 273 -58 158 4 236 15 257 36 6 6 20 11 32 11 11 0 38 12 60 25 22 14 48 25 57 25 10 0 30 14 45 30 14 17 32 30 39 30 7 0 26 11 42 25 17 14 35 25 41 25 15 0 251 238 251 254 0 7 9 21 20 31 11 10 22 27 26 38 3 11 37 70 75 132 38 61 69 119 69 128 0 9 8 22 18 29 26 18 53 75 63 128 5 25 11 59 15 77 7 37 -22 93 -63 120 -23 15 -27 15 -56 1 -18 -9 -43 -19 -57 -22 -67 -16 -120 -105 -120 -204 0 -39 -7 -63 -27 -95 -33 -53 -128 -147 -148 -147 -8 0 -27 -13 -42 -30 -14 -16 -30 -30 -35 -30 -5 0 -34 -12 -64 -26 -55 -26 -56 -26 -89 -8 -31 16 -35 17 -59 1 -32 -21 -36 -21 -36 1 0 28 32 52 70 52 40 0 157 56 165 79 3 9 30 43 60 76 30 33 55 69 55 80 0 11 7 29 15 39 8 11 15 30 15 42 0 30 -94 211 -129 248 -16 17 -32 41 -36 54 -3 12 -22 34 -41 48 -19 15 -34 33 -34 42 0 8 -13 37 -30 64 -29 46 -30 53 -30 166 0 113 1 120 25 142 43 40 30 80 -26 80 -10 0 -19 5 -19 11 0 16 -96 105 -132 123 -42 21 -51 20 -78 -9 l-24 -25 -33 32 c-22 22 -33 41 -33 61 0 50 -28 82 -101 116 -38 17 -84 31 -102 31 -17 0 -41 7 -51 15 -11 8 -40 15 -65 15 -25 0 -55 7 -65 15 -11 8 -30 15 -42 15 -12 0 -75 27 -140 60 -65 33 -125 60 -134 60 -21 0 -89 -72 -130 -140 -43 -70 -92 -130 -106 -130 -6 0 -9 12 -6 29 2 16 -1 32 -7 35 -16 10 -13 88 5 111 11 15 15 40 12 99 -2 56 1 81 10 84 6 2 12 12 12 23 0 14 -7 19 -25 19 -18 0 -25 -5 -25 -20 0 -11 -4 -20 -8 -20 -14 0 -42 35 -42 52 0 32 -12 48 -36 48 -18 0 -25 -7 -29 -27z m1352 -748 c-4 -8 -14 -15 -23 -15 -16 0 -16 2 1 20 20 22 31 20 22 -5z m-1054 -306 c4 -19 12 -50 16 -69 4 -19 24 -62 44 -95 21 -33 37 -68 37 -77 0 -9 13 -30 29 -45 15 -15 36 -48 45 -73 10 -25 28 -56 40 -70 13 -14 45 -69 71 -123 26 -54 63 -112 82 -130 18 -17 33 -37 33 -45 0 -19 108 -130 134 -138 11 -4 41 -26 66 -50 73 -71 148 -113 200 -114 25 0 54 -7 64 -15 11 -8 39 -15 63 -15 34 0 48 6 65 25 12 14 29 25 39 25 10 0 24 7 33 15 43 43 34 -16 -10 -62 -20 -21 -40 -48 -44 -59 -8 -21 -82 -64 -109 -64 -7 0 -25 -6 -39 -14 -70 -37 -200 -44 -352 -21 -59 10 -141 63 -170 111 -13 22 -39 57 -57 78 -18 22 -33 49 -33 60 0 12 -12 39 -25 61 -14 22 -25 52 -25 66 0 14 -7 34 -15 45 -8 10 -15 28 -15 39 0 11 -12 38 -25 60 -14 22 -25 46 -25 54 0 8 -13 36 -30 63 -17 27 -30 63 -30 81 0 17 -12 55 -25 82 -14 28 -25 56 -25 63 0 8 -6 26 -14 40 -28 54 -38 108 -31 173 3 35 7 90 8 122 2 62 17 71 30 16z"/>
 <path d="M1590 3215 c0 -20 5 -25 25 -25 20 0 25 5 25 25 0 20 -5 25 -25 25 -20 0 -25 -5 -25 -25z"/>
 </g>
<g id="layer104" fill="#464538" stroke="none">
 <path d="M1136 2764 c-11 -30 -6 -140 8 -159 7 -10 11 -27 8 -37 -9 -35 7 -68 32 -68 37 0 51 64 21 94 -10 10 -15 36 -15 84 0 83 -6 102 -30 102 -10 0 -21 -7 -24 -16z"/>
 <path d="M1184 2415 c-3 -14 -3 -37 1 -52 5 -16 7 -40 6 -55 -1 -14 2 -29 8 -33 6 -3 11 -21 11 -40 0 -18 7 -41 16 -50 13 -13 15 -28 10 -70 -4 -41 -2 -57 9 -69 10 -10 15 -35 15 -78 0 -41 5 -71 15 -84 8 -10 15 -30 15 -42 0 -13 13 -36 29 -51 22 -21 27 -33 24 -58 -4 -22 3 -44 21 -75 14 -25 26 -54 26 -65 0 -23 171 -366 198 -397 10 -11 30 -39 45 -61 61 -89 80 -112 136 -170 33 -33 81 -71 108 -85 26 -14 61 -35 77 -48 28 -22 34 -23 180 -19 164 4 205 11 281 49 28 14 70 31 95 39 25 7 59 28 77 46 17 18 36 33 42 33 6 0 36 17 67 38 31 20 69 44 84 52 38 21 150 137 150 155 0 8 14 27 31 42 17 16 35 36 41 46 14 27 0 57 -26 57 -27 0 -52 -25 -67 -68 -6 -18 -14 -32 -18 -32 -4 0 -43 -36 -87 -80 -43 -43 -88 -81 -99 -84 -11 -3 -42 -28 -69 -56 -26 -27 -54 -50 -62 -50 -8 0 -32 -11 -54 -25 -22 -14 -44 -25 -50 -25 -20 0 -110 -32 -116 -41 -3 -5 -15 -9 -28 -9 -12 0 -31 -7 -42 -15 -23 -18 -174 -21 -191 -4 -6 6 -26 15 -45 19 -26 6 -15 8 48 9 54 1 87 6 100 16 10 8 27 15 37 15 29 0 97 44 97 62 0 21 -34 32 -59 19 -11 -6 -37 -11 -58 -11 -22 0 -48 -7 -59 -15 -24 -19 -74 -19 -98 0 -11 8 -36 15 -55 15 -21 0 -60 13 -91 30 -30 17 -65 35 -77 42 -13 6 -25 19 -28 30 -4 10 -22 30 -41 44 -19 15 -34 33 -34 41 0 8 -18 45 -40 82 -22 37 -40 78 -40 92 0 14 -7 34 -15 45 -8 10 -15 36 -15 56 0 22 -9 47 -22 65 -13 15 -34 49 -48 76 -27 52 -63 65 -75 26 -7 -20 -8 -20 -24 7 -10 16 -26 50 -35 76 -10 26 -24 49 -32 52 -9 3 -11 16 -7 40 4 24 0 44 -11 60 -9 14 -16 35 -16 46 0 29 -30 120 -40 120 -4 0 -11 28 -15 63 -4 34 -12 65 -19 69 -7 5 -10 31 -8 71 3 49 0 68 -12 80 -11 11 -14 25 -10 42 10 42 -3 75 -31 75 -18 0 -26 -7 -31 -25z m346 -901 c0 -8 -4 -12 -10 -9 -5 3 -10 13 -10 21 0 8 5 12 10 9 6 -3 10 -13 10 -21z"/>
 <path d="M1746 2394 c-11 -28 -6 -105 8 -132 8 -15 21 -50 29 -78 23 -78 128 -240 208 -321 71 -73 71 -73 126 -73 66 0 131 32 139 70 3 14 10 34 16 45 17 31 30 93 35 171 6 97 -2 104 -115 104 l-87 0 -17 33 c-9 17 -19 43 -22 57 -13 60 -77 89 -122 55 -31 -23 -46 -18 -103 35 -56 52 -84 62 -95 34z"/>
 <path d="M1455 1751 c-8 -26 4 -51 25 -51 10 0 21 7 24 16 10 25 -3 54 -24 54 -10 0 -21 -8 -25 -19z"/>
 <path d="M2889 1567 c-18 -14 -49 -73 -49 -94 0 -16 39 -17 61 0 8 7 23 24 33 39 31 48 -2 89 -45 55z"/>
 <path d="M2760 1425 c0 -20 5 -25 25 -25 20 0 25 5 25 25 0 20 -5 25 -25 25 -20 0 -25 -5 -25 -25z"/>
 </g>

</svg>