<!DOCTYPE svg PUBLIC "-//W3C//DTD SVG 20010904//EN" "http://www.w3.org/TR/2001/REC-SVG-20010904/DTD/svg10.dtd">
<svg version="1.0" xmlns="http://www.w3.org/2000/svg" width="512px" height="512px" viewBox="0 0 5120 5120" preserveAspectRatio="xMidYMid meet">
<g id="layer101" fill="#000000" stroke="none">
 <path d="M560 2576 c0 -1264 2 -1406 16 -1420 14 -14 96 -16 758 -16 707 0 744 1 759 18 14 15 17 40 17 125 l0 107 1203 0 c1197 0 1203 0 1225 20 l22 21 0 873 c0 833 -1 874 -18 889 -17 15 -71 17 -575 17 l-556 0 -3 190 -3 190 57 0 c118 0 240 76 294 182 19 38 24 63 24 128 l0 80 -640 0 -640 0 0 -60 0 -60 -195 0 -195 0 0 60 0 60 -775 0 -775 0 0 -1404z m1955 1217 c11 -30 40 -70 74 -104 68 -67 142 -99 231 -99 l60 0 0 -190 0 -190 -380 0 -380 0 0 188 c0 103 -3 244 -7 315 l-6 127 195 0 195 0 18 -47z"/>
 </g>
<g id="layer102" fill="#4b0000" stroke="none">
 <path d="M690 3785 l0 -65 108 0 c98 0 111 -2 128 -21 18 -20 19 -43 19 -496 l0 -475 -24 -19 c-19 -16 -40 -19 -127 -19 l-104 0 0 -710 0 -710 645 0 645 0 0 65 0 65 -108 0 c-126 0 -141 8 -149 85 l-6 45 -428 0 c-416 0 -430 1 -449 20 -18 18 -20 33 -20 173 0 136 2 156 18 170 17 15 62 17 449 17 236 0 432 2 434 4 2 2 2 34 1 70 l-4 66 -432 0 c-407 0 -434 1 -449 18 -14 16 -17 43 -17 170 0 139 2 154 20 172 19 19 33 20 450 20 l430 0 2 631 c3 611 4 631 22 645 14 10 50 14 128 14 l108 0 0 65 0 65 -645 0 -645 0 0 -65z m773 -358 c85 -50 137 -156 123 -253 -23 -172 -214 -272 -368 -193 -174 89 -185 339 -19 443 48 31 70 35 153 32 50 -3 77 -10 111 -29z"/>
 <path d="M1293 3329 c-51 -15 -83 -61 -83 -121 0 -45 4 -54 40 -90 39 -39 42 -40 92 -36 44 5 57 11 85 42 88 96 -7 242 -134 205z"/>
 <path d="M2640 3840 c0 -5 16 -28 36 -49 64 -71 73 -73 479 -69 281 2 365 6 385 17 35 19 100 83 100 98 0 10 -97 13 -500 13 -326 0 -500 -3 -500 -10z"/>
 <path d="M690 3210 l0 -390 65 0 65 0 0 390 0 390 -65 0 -65 0 0 -390z"/>
 <path d="M1850 3400 l0 -200 65 0 65 0 0 200 0 200 -65 0 -65 0 0 -200z"/>
 <path d="M3073 3593 l-63 -4 0 -188 c0 -103 2 -190 4 -192 2 -2 61 -3 130 -1 l126 3 0 195 0 194 -67 -2 c-38 -1 -96 -3 -130 -5z"/>
 <path d="M1850 2950 l0 -130 1290 0 1290 0 0 130 0 130 -1290 0 -1290 0 0 -130z"/>
 <path d="M1850 2110 l0 -580 1290 0 1290 0 0 580 0 580 -1290 0 -1290 0 0 -580z m950 45 l385 -385 -45 -45 -45 -45 -387 387 -388 388 42 42 c23 24 45 43 48 43 3 0 178 -173 390 -385z m390 0 l385 -385 -48 -47 -47 -48 -387 387 -388 388 45 45 c24 25 47 45 50 45 3 0 178 -173 390 -385z m725 -435 l-45 -45 -387 387 -388 388 45 45 45 45 387 -387 388 -388 -45 -45z"/>
 <path d="M950 2235 l0 -65 385 0 385 0 0 65 0 65 -385 0 -385 0 0 -65z"/>
 <path d="M950 1725 l0 -65 385 0 385 0 0 65 0 65 -385 0 -385 0 0 -65z"/>
 </g>
<g id="layer103" fill="#1b1b1b" stroke="none">
 <path d="M690 3785 l0 -65 108 0 c78 0 114 -4 128 -14 18 -14 19 -31 19 -496 l0 -482 -24 -19 c-19 -16 -40 -19 -127 -19 l-104 0 0 -710 0 -710 645 0 645 0 0 65 0 65 -110 0 c-132 0 -150 10 -150 85 l0 45 -433 0 c-408 0 -435 1 -450 18 -14 16 -17 43 -17 174 0 145 1 156 21 174 20 18 44 19 450 22 l429 3 0 59 0 59 -429 3 c-406 3 -430 4 -450 22 -20 18 -21 29 -21 173 0 140 2 155 20 173 19 19 33 20 450 20 l430 0 2 630 c3 544 5 631 18 644 10 10 49 17 128 22 l112 7 0 58 0 59 -645 0 -645 0 0 -65z m746 -342 c100 -46 161 -147 151 -252 -9 -106 -59 -175 -157 -219 -163 -72 -350 53 -350 234 0 185 192 312 356 237z"/>
 <path d="M1304 3333 c-12 -2 -36 -19 -54 -38 -25 -26 -34 -45 -37 -82 -4 -43 -2 -52 29 -85 25 -28 44 -39 75 -44 39 -6 42 -4 57 25 34 65 29 177 -10 216 -15 15 -21 16 -60 8z"/>
 <path d="M2640 3839 c0 -7 19 -31 43 -54 32 -33 53 -45 92 -52 28 -5 206 -9 397 -7 338 2 349 3 383 24 32 20 85 78 85 93 0 4 -225 7 -500 7 -365 0 -500 -3 -500 -11z"/>
 <path d="M690 3210 l0 -390 65 0 65 0 0 390 0 390 -65 0 -65 0 0 -390z"/>
 <path d="M1850 3405 l0 -195 65 0 65 0 0 195 0 195 -65 0 -65 0 0 -195z"/>
 <path d="M1850 2950 l0 -130 1288 2 1287 3 3 121 3 121 -98 6 c-54 4 -635 7 -1290 7 l-1193 0 0 -130z"/>
 <path d="M1850 2110 l0 -580 1290 0 1290 0 0 580 0 580 -1290 0 -1290 0 0 -580z m950 45 l385 -385 -45 -45 -45 -45 -387 387 -388 388 42 42 c23 24 45 43 48 43 3 0 178 -173 390 -385z m390 0 l385 -385 -48 -47 -47 -48 -387 387 -388 388 45 45 c24 25 47 45 50 45 3 0 178 -173 390 -385z m725 -435 l-45 -45 -387 387 -388 388 45 45 45 45 387 -387 388 -388 -45 -45z"/>
 <path d="M950 2235 l0 -65 188 0 c104 0 277 3 385 7 l197 6 0 59 0 58 -385 0 -385 0 0 -65z"/>
 <path d="M950 1725 l0 -65 385 0 385 0 0 58 0 59 -202 6 c-112 4 -285 7 -385 7 l-183 0 0 -65z"/>
 </g>
<g id="layer104" fill="#7c7c7b" stroke="none">
 <path d="M690 3790 l0 -60 95 0 c106 0 151 -15 160 -53 3 -12 4 -231 3 -485 l-3 -464 -24 -19 c-19 -16 -40 -19 -127 -19 l-104 0 0 -710 0 -710 641 2 641 3 2 58 1 57 -55 1 c-102 1 -172 14 -186 34 -8 10 -14 38 -14 62 l0 43 -433 0 c-408 0 -435 1 -450 18 -14 16 -17 43 -17 173 0 85 4 159 8 165 21 32 53 34 471 34 l421 0 0 60 0 60 -421 0 c-418 0 -450 2 -471 34 -4 6 -8 80 -8 164 0 139 2 154 20 172 19 19 33 20 450 20 l430 0 2 630 c3 588 4 630 21 647 14 14 40 19 125 23 l107 5 0 58 1 57 -643 0 -643 0 0 -60z m755 -350 c125 -58 181 -219 118 -346 -42 -86 -114 -134 -214 -141 -57 -5 -72 -2 -123 23 -93 45 -147 132 -148 234 0 88 37 153 125 220 54 41 165 45 242 10z"/>
 <path d="M2640 3838 c0 -22 89 -97 122 -103 18 -3 200 -5 404 -3 l371 3 36 28 c20 15 44 41 52 58 l16 29 -501 0 c-375 0 -500 -3 -500 -12z"/>
 <path d="M697 3594 c-4 -4 -7 -180 -7 -391 l0 -383 65 0 65 0 -2 388 -3 387 -55 3 c-31 2 -59 0 -63 -4z"/>
 <path d="M1850 3405 l0 -195 65 0 65 0 0 195 0 195 -65 0 -65 0 0 -195z"/>
 <path d="M2402 3073 l-553 -3 3 -123 3 -122 1223 0 1223 0 2 123 2 122 -391 0 c-215 0 -519 2 -675 3 -156 2 -533 2 -837 0z"/>
 <path d="M1850 2110 l0 -580 1290 0 1290 0 0 580 0 580 -1290 0 -1290 0 0 -580z m950 45 l385 -385 -45 -45 -45 -45 -387 387 -388 388 42 42 c23 24 45 43 48 43 3 0 178 -173 390 -385z m390 0 l385 -385 -48 -47 -47 -48 -387 387 -388 388 45 45 c24 25 47 45 50 45 3 0 178 -173 390 -385z m725 -435 l-45 -45 -387 387 -388 388 45 45 45 45 387 -387 388 -388 -45 -45z"/>
 <path d="M950 2235 l0 -65 188 0 c104 0 277 3 385 7 l197 6 0 59 0 58 -385 0 -385 0 0 -65z"/>
 <path d="M950 1725 l0 -65 385 0 385 0 0 58 0 59 -202 6 c-112 4 -285 7 -385 7 l-183 0 0 -65z"/>
 </g>
<g id="layer105" fill="#c5c5c5" stroke="none">
 <path d="M690 3790 l0 -60 95 0 c106 0 151 -15 160 -53 3 -12 4 -231 3 -485 l-3 -464 -24 -19 c-19 -16 -40 -19 -127 -19 l-104 0 0 -710 0 -710 641 2 641 3 2 58 1 57 -55 1 c-102 1 -172 14 -186 34 -8 10 -14 38 -14 62 l0 43 -433 0 c-408 0 -435 1 -450 18 -14 16 -17 43 -17 173 0 85 4 159 8 165 21 32 53 34 471 34 l421 0 0 60 0 60 -421 0 c-418 0 -450 2 -471 34 -4 6 -8 80 -8 164 0 139 2 154 20 172 19 19 33 20 450 20 l430 0 2 630 c3 588 4 630 21 647 14 14 40 19 125 23 l107 5 0 58 1 57 -643 0 -643 0 0 -60z m755 -350 c125 -58 181 -219 118 -346 -42 -86 -114 -134 -214 -141 -57 -5 -72 -2 -123 23 -93 45 -147 132 -148 234 0 88 37 153 125 220 54 41 165 45 242 10z"/>
 <path d="M2640 3838 c0 -22 89 -97 122 -103 18 -3 200 -5 404 -3 l371 3 36 28 c20 15 44 41 52 58 l16 29 -501 0 c-375 0 -500 -3 -500 -12z"/>
 <path d="M694 3591 c-2 -2 -4 -177 -4 -388 l0 -383 65 0 65 0 -2 386 -3 386 -58 2 c-32 0 -61 -1 -63 -3z"/>
 <path d="M1908 3593 l-58 -4 0 -189 0 -190 65 0 65 0 0 195 c0 107 -3 194 -7 193 -5 -1 -34 -3 -65 -5z"/>
 <path d="M2402 3073 l-553 -3 3 -123 3 -122 1223 0 1223 0 2 123 2 122 -391 0 c-215 0 -519 2 -675 3 -156 2 -533 2 -837 0z"/>
 <path d="M1850 2110 l0 -580 1290 0 1290 0 0 580 0 580 -1290 0 -1290 0 0 -580z m950 45 l385 -385 -45 -45 -45 -45 -387 387 -388 388 42 42 c23 24 45 43 48 43 3 0 178 -173 390 -385z m390 0 l385 -385 -48 -47 -47 -48 -387 387 -388 388 45 45 c24 25 47 45 50 45 3 0 178 -173 390 -385z m725 -435 l-45 -45 -387 387 -388 388 45 45 45 45 387 -387 388 -388 -45 -45z"/>
 <path d="M950 2235 l0 -65 238 1 c130 1 302 5 382 9 l145 6 -122 2 -123 2 0 55 0 55 -260 0 -260 0 0 -65z"/>
 <path d="M950 1725 l0 -65 383 2 c210 1 327 4 260 5 l-123 4 0 53 c0 40 -4 55 -16 60 -9 3 -126 6 -260 6 l-244 0 0 -65z"/>
 </g>
<g id="layer106" fill="#2b2b2b" stroke="none">
 <path d="M690 3790 l0 -60 95 0 c106 0 151 -15 160 -53 3 -12 4 -231 3 -485 l-3 -464 -24 -19 c-19 -16 -40 -19 -127 -19 l-104 0 0 -710 0 -710 641 2 641 3 2 58 1 57 -55 1 c-102 1 -172 14 -186 34 -8 10 -14 38 -14 62 l0 43 -433 0 c-408 0 -435 1 -450 18 -14 16 -17 43 -17 173 0 85 4 159 8 165 21 32 53 34 471 34 l421 0 0 60 0 60 -421 0 c-418 0 -450 2 -471 34 -4 6 -8 80 -8 164 0 139 2 154 20 172 19 19 33 20 450 20 l430 0 2 630 c3 588 4 630 21 647 14 14 40 19 125 23 l107 5 0 58 1 57 -643 0 -643 0 0 -60z m755 -350 c125 -58 181 -219 118 -346 -42 -86 -114 -134 -214 -141 -57 -5 -72 -2 -123 23 -93 45 -147 132 -148 234 0 88 37 153 125 220 54 41 165 45 242 10z"/>
 <path d="M2640 3838 c0 -22 89 -97 122 -103 18 -3 200 -5 404 -3 l371 3 36 28 c20 15 44 41 52 58 l16 29 -501 0 c-375 0 -500 -3 -500 -12z"/>
 <path d="M2402 3073 l-553 -3 3 -123 3 -122 1223 0 1223 0 2 123 2 122 -391 0 c-215 0 -519 2 -675 3 -156 2 -533 2 -837 0z"/>
 <path d="M1850 2110 l0 -580 1290 0 1290 0 0 580 0 580 -1290 0 -1290 0 0 -580z m950 45 l385 -385 -45 -45 -45 -45 -387 387 -388 388 42 42 c23 24 45 43 48 43 3 0 178 -173 390 -385z m390 0 l385 -385 -48 -47 -47 -48 -387 387 -388 388 45 45 c24 25 47 45 50 45 3 0 178 -173 390 -385z m725 -435 l-45 -45 -387 387 -388 388 45 45 45 45 387 -387 388 -388 -45 -45z"/>
 </g>
<g id="layer107" fill="#bbbbbb" stroke="none">
 <path d="M2649 3833 c18 -34 61 -74 96 -89 28 -11 99 -14 370 -14 l335 0 30 47 c17 26 30 53 30 60 0 10 -84 13 -435 13 -412 0 -435 -1 -426 -17z"/>
 <path d="M1850 2110 l0 -580 1290 0 1290 0 0 580 0 580 -1290 0 -1290 0 0 -580z m950 45 l385 -385 -45 -45 -45 -45 -387 387 -388 388 42 42 c23 24 45 43 48 43 3 0 178 -173 390 -385z m390 0 l385 -385 -48 -47 -47 -48 -387 387 -388 388 45 45 c24 25 47 45 50 45 3 0 178 -173 390 -385z m725 -435 l-45 -45 -387 387 -388 388 45 45 45 45 387 -387 388 -388 -45 -45z"/>
 </g>
<g id="layer108" fill="#87cce8" stroke="none">
 <path d="M1850 2110 l0 -580 1290 0 1290 0 0 580 0 580 -1290 0 -1290 0 0 -580z m950 45 l385 -385 -45 -45 -45 -45 -387 387 -388 388 42 42 c23 24 45 43 48 43 3 0 178 -173 390 -385z m390 0 l385 -385 -48 -47 -47 -48 -387 387 -388 388 45 45 c24 25 47 45 50 45 3 0 178 -173 390 -385z m725 -435 l-45 -45 -387 387 -388 388 45 45 45 45 387 -387 388 -388 -45 -45z"/>
 </g>
<g id="layer109" fill="#cbeefa" stroke="none">
 <path d="M1850 2110 l0 -580 1225 0 1225 0 0 575 0 574 58 4 c31 2 -520 4 -1225 5 l-1283 2 0 -580z m950 45 l385 -385 -45 -45 -45 -45 -387 387 -388 388 42 42 c23 24 45 43 48 43 3 0 178 -173 390 -385z m390 0 l385 -385 -48 -47 -47 -48 -387 387 -388 388 45 45 c24 25 47 45 50 45 3 0 178 -173 390 -385z m725 -435 l-45 -45 -387 387 -388 388 45 45 45 45 387 -387 388 -388 -45 -45z"/>
 <path d="M4425 2100 c0 -316 1 -446 2 -287 2 158 2 416 0 575 -1 158 -2 28 -2 -288z"/>
 </g>

</svg>