<!DOCTYPE svg PUBLIC "-//W3C//DTD SVG 20010904//EN" "http://www.w3.org/TR/2001/REC-SVG-20010904/DTD/svg10.dtd">
<svg version="1.0" xmlns="http://www.w3.org/2000/svg" width="512px" height="512px" viewBox="0 0 5120 5120" preserveAspectRatio="xMidYMid meet">
<g id="layer101" fill="#000000" stroke="none">
 <path d="M625 3831 l-620 -267 -3 -959 -2 -960 630 -315 629 -315 1898 259 c1044 142 1913 261 1931 264 l32 5 0 1063 c0 1023 -1 1064 -18 1064 -10 0 -870 97 -1910 215 -1041 118 -1904 215 -1919 214 -16 0 -307 -121 -648 -268z"/>
 </g>
<g id="layer102" fill="#888888" stroke="none">
 <path d="M1370 2560 c0 -1074 3 -1350 13 -1350 6 1 811 110 1787 243 l1775 243 3 907 c1 549 -2 907 -7 907 -5 0 -801 90 -1767 200 -967 110 -1769 200 -1781 200 l-23 0 0 -1350z m1810 981 c1087 -91 1542 -132 1558 -142 12 -7 26 -25 32 -39 7 -17 10 -268 8 -772 l-3 -747 -22 -23 c-21 -20 -105 -31 -1575 -195 -854 -95 -1563 -171 -1575 -168 -12 3 -32 15 -43 27 -20 22 -20 31 -20 1078 0 830 3 1060 13 1072 17 21 48 37 72 37 11 0 711 -57 1555 -128z"/>
 <path d="M1710 2559 l0 -931 38 6 c20 3 82 10 137 16 55 6 115 13 133 16 l32 5 -2 897 -3 897 -135 12 c-74 6 -150 12 -167 12 l-33 1 0 -931z"/>
 <path d="M2220 2571 c0 -833 1 -881 18 -880 9 0 85 8 167 17 l150 17 3 847 2 846 -47 6 c-27 3 -82 8 -123 11 -41 3 -96 8 -122 11 l-48 6 0 -881z"/>
 <path d="M2730 2580 l0 -830 33 0 c17 0 88 7 157 15 69 8 131 15 138 15 9 0 12 167 12 800 0 633 -3 800 -12 800 -18 0 -234 19 -285 25 l-43 5 0 -830z"/>
 <path d="M3240 2580 l0 -781 33 5 c17 3 77 10 132 16 55 6 117 13 138 16 l37 6 0 747 0 748 -147 11 c-82 7 -158 12 -170 12 l-23 0 0 -780z"/>
 <path d="M3750 2590 l0 -730 23 1 c12 0 90 8 172 17 l150 17 3 697 2 698 -22 4 c-23 5 -278 26 -310 26 -17 0 -18 -41 -18 -730z"/>
 <path d="M4270 2600 c0 -641 1 -680 18 -680 9 0 86 8 170 17 l152 16 0 649 c0 356 -3 648 -7 648 -15 0 -238 20 -285 25 l-48 6 0 -681z"/>
 <path d="M935 3772 l-250 -108 -3 -1079 -2 -1080 255 -128 c140 -70 256 -127 258 -127 1 0 2 592 2 1315 0 723 -2 1315 -5 1315 -3 0 -117 -49 -255 -108z m60 -727 l25 -24 0 -370 c0 -203 -3 -377 -6 -386 -8 -19 -55 -45 -83 -45 -11 0 -33 11 -48 24 l-28 24 0 377 0 377 28 24 c37 31 81 31 112 -1z"/>
 <path d="M338 3517 l-168 -72 0 -842 0 -843 170 -85 170 -85 0 1000 c0 550 -1 1000 -2 999 -2 0 -78 -33 -170 -72z m61 -558 c30 -32 33 -75 29 -395 -3 -268 -5 -294 -22 -312 -36 -40 -100 -37 -133 7 -9 12 -12 102 -13 345 0 325 0 330 22 353 29 31 89 32 117 2z"/>
 </g>
<g id="layer103" fill="#a1a1a1" stroke="none">
 <path d="M1155 3865 c-16 -7 -52 -23 -80 -35 -27 -12 -59 -25 -70 -30 -11 -5 -42 -18 -70 -30 -80 -34 -119 -51 -140 -60 -11 -5 -41 -18 -68 -30 l-47 -21 2 -1077 3 -1077 250 -127 c138 -70 252 -127 255 -128 3 0 5 592 5 1315 0 723 -2 1315 -5 1315 -3 0 -18 -7 -35 -15z m-158 -819 l28 -24 3 -346 c3 -382 0 -416 -48 -441 -41 -21 -64 -19 -97 9 l-28 24 0 377 0 377 28 24 c36 31 78 31 114 0z"/>
 <path d="M340 3516 l-165 -72 -3 -842 -2 -842 170 -85 170 -85 0 1000 c0 550 -1 1000 -2 999 -2 0 -77 -33 -168 -73z m59 -557 c30 -32 33 -75 29 -396 -3 -288 -3 -293 -26 -315 -32 -33 -97 -31 -123 2 -17 23 -19 46 -19 356 0 319 1 331 20 352 28 30 92 30 119 1z"/>
 <path d="M1710 2560 c0 -511 1 -930 3 -930 1 0 74 9 162 20 88 11 163 20 167 20 4 0 8 403 8 895 l0 894 -32 5 c-30 5 -275 26 -298 26 -7 0 -10 -329 -10 -930z"/>
 <path d="M2220 2569 l0 -879 48 5 c26 3 63 8 82 10 39 5 154 17 185 20 20 2 20 10 23 848 l2 847 -22 1 c-13 0 -34 2 -48 4 -14 1 -67 6 -119 10 -51 4 -106 8 -122 10 l-29 4 0 -880z"/>
 <path d="M2730 2578 c0 -782 1 -828 18 -828 9 0 86 8 170 17 l152 16 0 799 0 798 -32 1 c-18 0 -95 6 -170 13 l-138 12 0 -828z"/>
 <path d="M3250 2586 l0 -776 28 0 c15 0 83 7 152 15 69 8 131 15 138 15 9 0 12 156 12 745 l0 745 -22 4 c-13 3 -54 8 -93 10 -38 3 -103 8 -142 12 l-73 6 0 -776z"/>
 <path d="M3750 2590 l0 -730 23 1 c12 0 90 8 172 17 l150 17 3 697 2 697 -42 5 c-43 6 -277 26 -297 26 -8 0 -11 -215 -11 -730z"/>
 <path d="M4270 2598 l0 -679 58 6 c89 9 150 16 180 20 15 2 44 4 65 4 l37 1 0 650 0 650 -27 1 c-16 0 -39 2 -53 4 -14 1 -66 6 -115 9 -50 4 -103 9 -118 10 l-27 3 0 -679z"/>
 </g>
<g id="layer104" fill="#bbbbbb" stroke="none">
 <path d="M935 3766 l-240 -103 -3 -1079 -2 -1079 245 -123 c135 -67 247 -122 250 -122 3 0 5 587 5 1305 0 718 -3 1305 -7 1305 -5 -1 -116 -47 -248 -104z m53 -709 c39 -19 43 -61 40 -434 l-3 -351 -24 -26 c-27 -29 -83 -35 -112 -13 -37 28 -39 48 -39 414 1 389 2 395 56 418 30 12 42 11 82 -8z"/>
 <path d="M330 3510 l-155 -67 -3 -839 -2 -839 165 -83 c91 -45 167 -82 170 -82 3 0 5 445 5 990 0 786 -3 990 -12 989 -7 0 -83 -31 -168 -69z m75 -551 c19 -19 20 -35 23 -348 l3 -329 -27 -32 c-25 -29 -32 -32 -67 -27 -22 3 -49 15 -61 27 -20 20 -21 31 -24 328 -2 204 0 320 8 344 19 66 97 86 145 37z"/>
 <path d="M1710 2564 l0 -927 68 6 c37 4 113 12 170 18 l102 12 0 892 0 893 -47 6 c-27 3 -82 8 -123 11 -41 3 -96 8 -122 11 l-48 6 0 -928z"/>
 <path d="M2730 2575 c0 -779 1 -825 18 -824 9 0 85 8 167 17 l150 17 3 796 2 796 -147 11 c-82 7 -158 12 -170 12 l-23 0 0 -825z"/>
 <path d="M3760 2590 l0 -731 33 5 c17 3 77 10 132 16 55 6 115 13 133 16 l32 5 0 694 0 693 -47 6 c-27 3 -84 8 -128 11 -44 3 -97 8 -117 11 l-38 6 0 -732z"/>
 </g>

</svg>