<!DOCTYPE svg PUBLIC "-//W3C//DTD SVG 20010904//EN" "http://www.w3.org/TR/2001/REC-SVG-20010904/DTD/svg10.dtd">
<svg version="1.0" xmlns="http://www.w3.org/2000/svg" width="512px" height="512px" viewBox="0 0 5120 5120" preserveAspectRatio="xMidYMid meet">
<g id="layer101" fill="#000000" stroke="none">
 <path d="M2525 4364 c-86 -18 -230 -72 -490 -182 -180 -76 -563 -250 -900 -409 -554 -262 -554 -263 -635 -300 -236 -110 -360 -175 -396 -207 -25 -21 -54 -61 -72 -101 l-32 -66 0 -554 c0 -534 1 -556 20 -609 24 -63 68 -106 143 -140 29 -13 95 -44 147 -69 52 -24 140 -66 195 -92 55 -26 136 -64 180 -85 44 -21 247 -116 450 -212 615 -291 1160 -529 1310 -572 147 -42 173 -35 640 162 175 74 561 249 900 409 391 185 507 240 645 305 47 22 128 61 180 85 52 25 118 56 147 69 75 34 119 77 143 140 19 53 20 75 20 609 l0 554 -32 66 c-18 40 -47 80 -72 101 -36 32 -160 97 -396 207 -81 37 -81 38 -635 300 -339 160 -725 335 -900 409 -402 170 -486 197 -560 182z m146 -133 c115 -39 753 -324 1234 -551 353 -166 536 -249 749 -339 223 -95 290 -138 338 -222 21 -35 41 -78 44 -97 4 -18 3 -239 -2 -492 l-9 -458 -155 71 c-86 40 -185 85 -220 101 -161 72 -281 126 -355 161 -180 85 -572 268 -600 280 -16 8 -82 37 -145 65 -270 122 -444 190 -454 179 -17 -17 33 -46 244 -142 72 -32 643 -317 860 -428 188 -96 661 -309 778 -350 36 -12 38 -18 17 -59 -18 -35 -65 -60 -301 -161 -246 -104 -407 -177 -794 -359 -190 -89 -493 -229 -675 -310 -620 -278 -602 -271 -720 -251 -43 7 -116 31 -172 56 -487 216 -821 368 -1113 505 -387 182 -548 255 -794 359 -251 107 -282 124 -305 169 l-20 39 37 18 c20 9 87 39 147 65 61 26 265 124 455 218 190 94 408 198 485 232 148 65 205 95 323 168 112 69 76 72 -79 7 -74 -31 -172 -72 -219 -92 -169 -70 -467 -202 -580 -256 -63 -30 -187 -85 -275 -121 -88 -37 -191 -85 -229 -107 -38 -21 -70 -38 -71 -37 -2 2 -5 209 -9 460 -7 504 -8 496 55 588 41 61 122 113 269 175 189 79 465 203 820 370 323 152 929 426 1115 505 50 21 109 41 133 45 l42 7 0 -234 c1 -246 14 -530 25 -549 32 -52 54 148 55 504 0 158 4 287 8 287 5 0 33 -8 63 -19z"/>
 </g>
<g id="layer102" fill="#bf5814" stroke="none">
 <path d="M2467 4253 c-59 -14 -586 -245 -1017 -446 -554 -258 -796 -369 -970 -442 -230 -98 -305 -145 -359 -227 -23 -33 -46 -78 -51 -100 -7 -25 -9 -125 -6 -281 2 -133 5 -340 5 -460 1 -170 4 -219 14 -223 7 -2 44 13 83 35 38 22 140 70 228 106 87 36 206 89 265 117 173 82 472 213 696 305 145 59 155 63 155 58 0 -9 -154 -87 -285 -145 -77 -34 -291 -136 -475 -227 -184 -91 -399 -194 -478 -228 -78 -35 -154 -70 -167 -79 l-25 -17 19 -37 c33 -64 53 -76 327 -192 246 -105 407 -178 794 -360 292 -137 626 -289 1113 -505 56 -25 129 -49 172 -56 118 -20 100 -27 720 251 182 81 485 221 675 310 389 183 546 254 805 364 99 42 202 89 230 104 51 28 98 84 93 111 -4 20 -7 22 -328 158 -151 64 -376 169 -500 232 -394 202 -825 415 -963 475 -48 21 -86 40 -84 42 4 4 229 -90 397 -166 63 -28 129 -57 145 -65 31 -14 468 -218 615 -287 47 -22 123 -57 170 -78 103 -45 154 -69 378 -171 95 -44 177 -77 181 -74 5 2 12 220 16 483 7 469 7 480 -13 525 -60 135 -129 188 -388 298 -213 90 -395 172 -749 339 -500 236 -1137 520 -1243 554 -29 10 -59 15 -66 13 -12 -5 -15 -70 -19 -344 -5 -387 -19 -502 -30 -254 -4 85 -7 252 -7 372 0 120 -3 220 -7 222 -5 2 -34 -2 -66 -10z m-175 -465 c2 -68 0 -130 -4 -139 -11 -26 -672 -325 -1058 -479 -81 -32 -225 -93 -319 -134 -95 -42 -178 -76 -185 -76 -15 0 -146 -57 -310 -134 -65 -31 -120 -56 -122 -56 -2 0 -4 52 -4 115 0 101 2 116 20 133 43 40 175 106 336 166 225 85 457 188 814 361 162 79 341 162 398 184 57 23 135 58 175 78 64 33 231 101 249 103 4 0 8 -55 10 -122z m774 13 c213 -97 477 -220 1144 -535 113 -54 288 -132 390 -174 102 -42 188 -81 192 -87 13 -18 10 -595 -3 -595 -7 0 -82 36 -168 79 -86 43 -186 91 -221 106 -36 15 -170 76 -297 136 -128 60 -234 109 -237 109 -2 0 -125 54 -273 119 -377 168 -761 357 -768 381 -7 23 -25 552 -18 563 2 4 8 7 12 7 5 0 116 -49 247 -109z m-786 -471 c-18 -35 -493 -259 -763 -361 -432 -164 -569 -220 -757 -311 -154 -75 -379 -172 -453 -195 -15 -5 -17 4 -17 99 l0 104 177 78 c98 44 236 103 308 133 71 29 136 60 145 67 8 7 83 41 165 75 315 132 464 196 585 254 69 32 219 99 333 148 114 49 224 97 245 108 l37 19 3 -99 c2 -58 -2 -107 -8 -119z m377 -447 c67 -32 122 -61 123 -64 0 -4 -15 -12 -32 -19 -18 -7 -143 -67 -278 -133 -410 -200 -1208 -572 -1410 -656 -69 -29 -177 -77 -241 -108 l-117 -56 -104 46 c-57 26 -110 47 -116 47 -7 0 -12 6 -12 13 1 13 73 49 365 182 344 157 852 401 1255 602 223 112 414 203 425 203 11 0 75 -26 142 -57z m416 -195 c26 -12 47 -23 46 -27 0 -7 -1367 -690 -1743 -871 l-249 -120 -156 66 c-86 37 -159 70 -163 73 -4 3 39 24 95 45 189 72 391 157 607 256 289 131 860 404 935 445 33 19 143 76 244 128 l184 95 76 -35 c42 -19 97 -44 124 -55z m395 -182 c12 -4 22 -11 22 -15 0 -5 -96 -56 -212 -114 -117 -58 -321 -164 -453 -236 -132 -72 -314 -165 -405 -207 -289 -135 -460 -220 -664 -334 -110 -60 -203 -110 -206 -110 -4 0 -74 29 -156 65 -82 36 -157 69 -167 73 -13 5 15 21 110 61 331 140 1126 531 1707 839 l168 90 117 -53 c64 -29 126 -56 139 -59z m256 -120 c67 -30 134 -60 151 -66 29 -11 26 -13 -135 -97 -91 -47 -191 -97 -222 -110 -32 -13 -149 -72 -260 -131 -223 -119 -788 -411 -1105 -571 l-202 -102 -78 37 c-43 20 -114 52 -158 71 -44 20 -81 37 -83 38 -4 3 362 184 513 253 230 105 701 339 870 432 94 52 220 120 280 151 61 31 148 77 195 102 47 26 91 47 99 47 8 0 68 -24 135 -54z m430 -198 c86 -40 156 -75 156 -79 0 -3 -84 -46 -187 -94 -626 -293 -947 -448 -1335 -644 -241 -122 -446 -221 -456 -221 -15 0 -276 111 -287 122 -3 2 80 44 183 93 397 188 1127 558 1562 794 102 55 190 100 196 101 7 0 82 -32 168 -72z m347 -170 c44 -23 79 -45 79 -50 0 -20 -851 -416 -1405 -653 -99 -43 -265 -118 -370 -167 -264 -125 -232 -116 -310 -84 -36 16 -64 30 -63 31 37 30 796 413 1086 549 98 46 301 142 452 214 221 104 422 195 449 201 2 1 39 -18 82 -41z"/>
 </g>
<g id="layer103" fill="#d8712d" stroke="none">
 <path d="M2190 3896 c-47 -18 -117 -49 -157 -69 -40 -20 -118 -55 -175 -78 -57 -22 -236 -105 -398 -184 -357 -173 -589 -276 -814 -361 -171 -64 -296 -127 -347 -176 -28 -25 -29 -30 -29 -116 0 -50 4 -93 9 -96 5 -4 62 17 128 45 65 28 141 59 168 69 28 10 115 50 195 88 151 73 492 221 860 372 238 98 514 214 603 254 31 14 57 22 57 18 0 -13 -64 -48 -220 -119 -85 -39 -200 -93 -255 -119 -55 -26 -104 -48 -110 -50 -15 -3 -171 -71 -197 -86 -13 -6 -27 -13 -33 -14 -42 -8 -721 -297 -738 -314 -28 -26 26 -10 153 47 80 35 223 96 319 134 96 39 199 82 230 96 31 14 61 27 66 28 16 4 172 73 197 87 13 6 28 13 34 14 15 3 403 179 497 225 50 26 77 45 78 57 4 83 -5 259 -13 269 -13 17 -9 18 -108 -21z"/>
 <path d="M2796 3911 c-12 -13 -16 -32 -14 -58 4 -51 22 -49 26 5 2 23 7 42 11 42 5 0 73 -29 152 -64 162 -72 308 -140 1319 -615 102 -48 256 -116 343 -151 137 -56 157 -67 157 -87 0 -28 18 -40 27 -17 16 42 -17 63 -222 149 -110 45 -288 124 -395 175 -840 397 -1363 640 -1380 640 -4 0 -15 -9 -24 -19z"/>
 <path d="M2794 3736 c-8 -21 3 -49 16 -41 5 3 10 15 10 25 0 25 -18 36 -26 16z"/>
 <path d="M2795 3669 c-10 -25 -1 -204 10 -204 6 0 11 22 13 48 2 27 6 47 10 45 45 -24 189 -89 276 -125 61 -25 206 -90 323 -144 192 -89 418 -189 428 -189 12 0 342 -144 355 -155 8 -7 78 -39 155 -70 77 -32 208 -89 290 -126 83 -37 154 -64 158 -60 5 5 7 26 5 47 -3 38 -4 39 -103 87 -123 61 -299 137 -316 137 -7 0 -85 32 -173 71 -89 40 -226 98 -306 129 -252 100 -821 350 -1005 442 -44 22 -88 50 -97 61 -14 19 -18 19 -23 6z"/>
 <path d="M2248 3549 c-21 -10 -131 -59 -245 -108 -114 -49 -264 -116 -333 -148 -120 -58 -252 -115 -595 -258 -88 -37 -167 -73 -175 -80 -8 -7 -66 -34 -129 -60 -63 -25 -193 -82 -290 -124 -97 -43 -184 -81 -194 -84 -15 -6 -17 -21 -17 -115 0 -83 4 -112 14 -121 20 -17 187 49 456 178 208 100 342 155 777 320 282 107 738 323 772 367 20 25 21 38 19 137 -2 63 -7 112 -13 113 -5 2 -27 -6 -47 -17z"/>
 <path d="M2807 3444 c-13 -13 -7 -99 8 -121 19 -27 422 -226 778 -384 148 -65 271 -119 273 -119 3 0 109 -49 237 -109 127 -60 261 -121 297 -136 35 -15 136 -63 224 -108 115 -58 163 -77 174 -71 19 13 15 30 -6 26 -9 -2 -109 41 -222 96 -195 96 -641 305 -685 322 -91 35 -649 287 -805 365 -107 53 -206 102 -220 108 -21 11 -25 20 -28 67 -3 54 -12 77 -25 64z"/>
 <path d="M545 2890 c-246 -111 -267 -122 -258 -131 6 -6 57 13 129 47 65 31 155 72 199 91 84 36 102 47 88 56 -4 3 -76 -25 -158 -63z"/>
 <path d="M2090 2757 c-404 -202 -915 -447 -1255 -602 -298 -136 -380 -179 -380 -199 0 -11 7 -22 15 -27 39 -21 217 -94 230 -94 8 0 65 24 125 54 61 30 118 56 127 58 35 6 502 217 901 407 75 36 140 65 142 66 9 2 272 128 485 232 118 58 241 117 273 131 31 14 57 30 57 36 0 9 -27 29 -40 29 -3 0 -56 25 -119 56 -63 31 -123 56 -135 56 -12 0 -203 -91 -426 -203z m680 66 c0 -5 -40 -26 -88 -48 -48 -22 -224 -107 -392 -189 -168 -82 -309 -151 -315 -152 -53 -14 -789 -344 -801 -360 -6 -8 -47 -30 -90 -48 -44 -19 -97 -42 -119 -52 -22 -9 -46 -18 -52 -20 -7 -1 -58 -25 -114 -52 -92 -45 -129 -55 -129 -32 0 16 89 65 279 154 474 225 542 256 651 306 63 28 192 82 285 120 94 37 289 121 435 187 291 131 431 192 443 193 4 0 7 -3 7 -7z"/>
 <path d="M2689 2703 c-101 -52 -211 -109 -244 -128 -75 -41 -648 -314 -935 -445 -238 -108 -404 -179 -554 -235 -174 -65 -191 -74 -175 -90 8 -7 88 -45 179 -84 l165 -71 265 127 c409 197 1755 872 1758 883 3 9 -30 27 -214 110 l-61 28 -184 -95z m411 -33 c8 -5 12 -10 10 -12 -17 -11 -1456 -728 -1462 -728 -3 0 -124 -56 -269 -125 -158 -76 -269 -123 -278 -119 -11 4 24 26 104 67 151 76 566 275 881 422 252 118 458 223 509 261 34 25 465 244 480 244 6 0 17 -4 25 -10z"/>
 <path d="M3044 2548 c-291 -154 -1201 -613 -1374 -692 -91 -41 -237 -106 -325 -143 -88 -38 -159 -73 -159 -78 2 -11 341 -160 364 -160 8 0 103 49 210 108 203 112 382 203 623 313 206 94 468 234 462 245 -4 5 -84 -31 -178 -80 -95 -49 -248 -124 -342 -167 -211 -97 -423 -205 -624 -318 -85 -48 -158 -83 -163 -78 -11 11 172 112 586 324 193 99 413 216 490 260 78 45 297 161 488 258 301 153 349 174 364 163 10 -7 16 -14 13 -16 -27 -22 -69 -47 -69 -42 0 6 -407 -198 -436 -219 -9 -7 -13 -15 -8 -18 5 -3 111 47 236 111 125 64 233 117 240 119 22 6 78 43 78 53 0 7 -52 39 -65 40 -6 0 -66 26 -166 72 l-76 35 -169 -90z"/>
 <path d="M3490 2413 c-47 -25 -134 -71 -195 -102 -60 -31 -186 -99 -280 -151 -170 -94 -652 -333 -905 -449 -220 -101 -503 -245 -503 -256 1 -5 57 -35 124 -65 68 -31 134 -61 147 -68 20 -12 26 -9 23 10 0 4 227 121 506 259 279 139 579 291 667 338 89 48 247 129 351 180 207 100 397 204 415 226 9 11 2 18 -37 35 -157 71 -203 90 -215 90 -7 0 -51 -21 -98 -47z"/>
 <path d="M3879 2335 c-1 -3 -2 -9 -3 -14 -1 -12 -64 -54 -127 -87 -27 -13 -47 -29 -44 -34 5 -8 225 93 225 104 0 6 -50 37 -51 31z"/>
 <path d="M3790 2179 c-438 -237 -1157 -602 -1599 -812 -157 -75 -182 -90 -170 -101 18 -17 275 -129 286 -125 4 2 7 10 5 17 -2 6 1 12 5 12 5 0 33 15 62 34 29 19 101 54 160 77 111 44 585 277 781 384 63 35 196 98 295 140 99 43 257 119 350 168 94 50 202 107 240 127 39 19 70 39 70 43 0 10 -270 137 -288 137 -7 -1 -95 -46 -197 -101z"/>
 <path d="M2897 2184 c-26 -14 -45 -29 -42 -34 4 -6 28 1 56 15 27 14 47 30 44 35 -7 12 -1 14 -58 -16z"/>
 <path d="M3580 2148 c-58 -28 -110 -52 -116 -53 -6 -2 -103 -52 -215 -112 -298 -161 -937 -489 -1143 -588 -126 -61 -176 -89 -168 -97 7 -7 76 23 234 102 422 213 1164 599 1270 661 25 15 48 26 50 24 8 -9 209 95 203 105 -3 5 -7 10 -8 9 -1 0 -49 -23 -107 -51z"/>
 <path d="M4223 2066 c-57 -29 -103 -51 -103 -49 0 2 -31 -13 -70 -32 -38 -19 -72 -35 -75 -35 -17 1 -125 -62 -120 -70 3 -6 32 3 65 20 33 17 62 30 65 30 3 0 37 16 75 35 38 19 71 35 72 34 10 -6 208 104 203 111 -8 12 7 18 -112 -44z"/>
 <path d="M4330 2043 c-47 -19 -209 -94 -360 -165 -151 -72 -354 -168 -452 -214 -331 -155 -1048 -519 -1096 -557 -19 -15 0 -32 74 -63 77 -32 45 -41 309 84 105 49 271 124 370 167 346 148 1095 490 1296 590 118 60 140 78 118 100 -15 14 -160 95 -169 94 -3 0 -43 -17 -90 -36z"/>
 <path d="M3737 1839 c-43 -22 -75 -44 -72 -49 3 -5 41 8 86 30 44 23 77 45 74 50 -3 6 -7 10 -8 10 -1 -1 -37 -19 -80 -41z"/>
 <path d="M3543 1746 c-46 -24 -83 -42 -83 -40 0 3 -36 -14 -80 -36 -45 -22 -78 -45 -75 -50 3 -5 41 8 85 30 44 22 82 40 85 40 18 -1 165 82 160 90 -8 12 4 17 -92 -34z"/>
 <path d="M3147 1559 c-65 -33 -115 -64 -112 -69 3 -5 60 17 126 50 66 34 117 65 114 70 -8 12 11 19 -128 -51z"/>
 <path d="M2837 1399 c-98 -49 -175 -94 -172 -99 3 -5 87 31 186 80 99 50 177 95 174 100 -8 12 20 24 -188 -81z"/>
 <path d="M2472 1219 c-78 -39 -140 -74 -137 -79 6 -10 66 15 205 85 50 25 88 50 85 55 -3 6 -7 10 -8 9 -1 0 -66 -32 -145 -70z"/>
 </g>
<g id="layer104" fill="#f28b47" stroke="none">
 <path d="M2800 3905 c-8 -10 -10 -49 -7 -137 3 -68 6 -124 6 -125 6 -20 792 -372 1116 -500 77 -31 214 -89 305 -129 92 -41 168 -70 173 -65 5 5 5 11 0 14 -23 15 -376 166 -528 227 -409 164 -1045 457 -1045 482 0 4 35 -9 78 -29 80 -37 182 -80 567 -240 388 -160 763 -322 910 -393 77 -37 178 -82 224 -100 136 -53 191 -80 191 -96 0 -18 -3 -18 -58 10 -132 67 -305 137 -315 127 -6 -6 2 -14 24 -24 19 -8 61 -26 94 -40 33 -14 107 -48 164 -76 66 -32 108 -48 114 -42 15 15 3 229 -14 245 -8 8 -86 43 -174 79 -88 36 -241 103 -340 150 -1148 540 -1444 677 -1465 677 -4 0 -13 -7 -20 -15z"/>
 <path d="M2230 3663 c-76 -34 -343 -147 -600 -253 -348 -143 -703 -296 -880 -379 -91 -43 -192 -89 -225 -101 -33 -13 -103 -42 -155 -65 -85 -37 -95 -44 -98 -69 -2 -16 0 -32 5 -37 5 -5 45 8 94 32 134 65 327 149 343 149 7 0 80 30 162 66 82 37 246 106 364 154 276 112 462 193 751 326 250 115 322 156 317 182 -5 24 -18 23 -78 -5z"/>
 <path d="M2804 3569 c-3 -6 -3 -62 1 -124 8 -134 8 -134 135 -190 47 -21 135 -64 195 -96 93 -49 510 -238 720 -326 100 -42 497 -228 718 -336 167 -82 211 -99 225 -91 14 10 17 31 20 146 2 100 -1 138 -10 145 -16 13 -313 145 -458 204 -58 23 -112 48 -120 55 -17 14 -187 88 -375 164 -129 52 -252 106 -490 218 -83 38 -202 91 -265 117 -63 26 -152 65 -197 86 -92 44 -89 43 -99 28z"/>
 <path d="M2670 2813 c-47 -20 -204 -90 -350 -156 -146 -66 -341 -150 -435 -187 -93 -38 -222 -92 -285 -120 -109 -50 -174 -80 -653 -306 -189 -90 -268 -134 -296 -168 -10 -12 -8 -17 18 -31 29 -15 33 -14 83 14 29 16 98 48 153 71 212 89 289 124 305 140 8 8 65 37 125 64 61 27 178 79 260 116 83 37 209 93 282 124 73 30 289 132 480 225 191 93 369 178 396 189 51 23 58 35 28 52 -24 12 -11 16 -111 -27z"/>
 <path d="M2845 2589 c-121 -61 -233 -121 -250 -133 -51 -38 -257 -143 -509 -261 -626 -292 -1007 -481 -1014 -502 -2 -7 7 -18 20 -23 25 -12 33 -8 713 317 255 122 1305 651 1320 665 11 10 -28 48 -49 48 -6 0 -110 -50 -231 -111z"/>
 <path d="M3095 2357 c-187 -95 -401 -208 -475 -251 -74 -44 -272 -148 -440 -234 -168 -85 -370 -191 -450 -235 -231 -128 -241 -135 -201 -157 16 -8 47 6 173 76 200 113 413 221 623 318 186 85 424 207 635 324 74 41 221 117 325 169 105 51 198 102 209 112 18 19 18 19 -12 35 -17 9 -35 16 -39 16 -4 0 -161 -78 -348 -173z"/>
 <path d="M3760 2303 c-41 -24 -203 -108 -360 -187 -157 -78 -330 -167 -385 -198 -55 -30 -333 -170 -617 -312 -284 -141 -520 -261 -523 -266 -6 -9 44 -40 65 -40 28 0 858 419 1307 661 100 54 233 121 295 150 163 74 336 172 353 199 6 9 -33 41 -50 39 -5 0 -44 -21 -85 -46z"/>
 <path d="M4190 2111 c-41 -20 -145 -75 -230 -120 -85 -46 -238 -119 -340 -163 -102 -44 -237 -108 -300 -143 -203 -111 -641 -326 -770 -379 -122 -50 -193 -88 -248 -133 l-27 -21 26 -12 c23 -11 42 -4 185 64 87 42 278 137 424 212 234 120 539 267 1204 579 104 49 198 96 209 106 21 16 21 16 -11 33 -17 9 -35 16 -39 16 -4 -1 -42 -18 -83 -39z"/>
 </g>
<g id="layer105" fill="#ffa561" stroke="none">
 <path d="M2807 3693 c-16 -15 -4 -34 36 -60 90 -57 730 -347 1022 -463 72 -28 222 -91 335 -139 113 -49 223 -94 245 -101 22 -7 111 -45 197 -85 87 -40 160 -70 163 -67 3 3 5 18 5 34 0 25 -7 31 -64 57 -36 16 -102 44 -148 62 -46 17 -146 62 -223 99 -147 71 -522 233 -910 393 -386 160 -487 203 -569 241 -90 41 -81 38 -89 29z"/>
 </g>

</svg>