<!DOCTYPE svg PUBLIC "-//W3C//DTD SVG 20010904//EN" "http://www.w3.org/TR/2001/REC-SVG-20010904/DTD/svg10.dtd">
<svg version="1.0" xmlns="http://www.w3.org/2000/svg" width="512px" height="512px" viewBox="0 0 5120 5120" preserveAspectRatio="xMidYMid meet">
<g id="layer101" fill="#000000" stroke="none">
 <path d="M1522 4097 c-20 -8 -114 -93 -251 -229 l-219 -218 -55 0 -55 0 -7 37 c-15 84 -104 165 -201 186 -104 22 -203 -16 -275 -106 l-34 -42 -3 -785 c-2 -432 0 -800 3 -819 5 -24 24 -52 65 -92 67 -65 124 -85 220 -76 72 6 114 27 168 86 41 43 44 44 55 26 16 -31 62 -70 104 -91 32 -16 68 -19 226 -22 l187 -4 -29 -36 c-44 -57 -61 -128 -61 -264 l0 -118 -40 -6 c-116 -19 -201 -146 -187 -280 12 -115 78 -194 185 -220 86 -20 1943 -20 2020 0 97 26 163 97 184 198 22 104 -28 222 -116 273 -23 13 -58 27 -78 30 l-38 7 0 125 c0 149 -11 199 -56 251 l-34 40 193 4 c190 3 193 3 240 31 57 34 100 90 116 152 l11 45 137 0 136 0 102 -99 c116 -113 155 -131 279 -131 128 0 206 37 254 119 l27 46 0 915 0 915 -27 46 c-48 82 -127 119 -253 119 -138 -1 -166 -15 -312 -159 l-73 -71 -134 0 -135 0 -16 58 c-13 42 -28 68 -61 99 -79 77 -23 73 -1138 72 -742 0 -999 -3 -1024 -12z"/>
 </g>
<g id="layer102" fill="#888888" stroke="none">
 <path d="M1334 3728 c-132 -134 -250 -257 -262 -275 -22 -31 -22 -38 -22 -397 l0 -366 1279 0 1279 0 4 588 c2 323 0 602 -5 620 -4 18 -20 40 -35 50 -24 16 -95 17 -1012 20 l-985 3 -241 -243z m389 -403 c22 -10 51 -36 65 -58 24 -36 27 -50 27 -123 0 -77 -2 -85 -31 -121 -42 -52 -87 -73 -157 -73 -72 0 -113 17 -153 62 -70 79 -67 205 5 277 20 20 52 42 71 48 47 16 127 10 173 -12z m668 10 c61 -22 106 -69 126 -133 14 -45 15 -60 4 -100 -25 -94 -98 -151 -192 -152 -125 0 -199 72 -199 195 0 68 17 110 61 151 58 54 122 66 200 39z m716 -6 c62 -23 122 -109 123 -175 1 -108 -93 -204 -198 -204 -57 0 -99 20 -146 68 -34 36 -40 49 -44 96 -2 30 -1 71 2 91 8 42 58 103 101 121 37 16 123 18 162 3z"/>
 <path d="M1563 3264 c-83 -41 -94 -158 -22 -219 25 -20 41 -25 86 -25 51 0 59 3 89 36 29 30 34 42 34 86 0 60 -22 102 -66 123 -41 19 -80 19 -121 -1z"/>
 <path d="M2274 3270 c-11 -4 -33 -22 -47 -40 -22 -26 -27 -42 -27 -86 0 -45 5 -59 28 -85 24 -27 37 -33 83 -36 66 -5 107 17 133 72 49 102 -64 218 -170 175z"/>
 <path d="M2944 3236 c-30 -30 -34 -40 -34 -89 0 -51 3 -57 40 -91 31 -28 48 -36 78 -36 86 0 153 94 122 170 -21 52 -64 80 -122 80 -44 0 -54 -4 -84 -34z"/>
 <path d="M4325 3955 c-16 -9 -78 -63 -136 -121 l-106 -104 -167 0 -166 0 0 -700 0 -700 166 0 167 0 117 -114 c101 -98 123 -115 160 -121 68 -12 144 2 171 31 l24 26 0 879 0 879 -27 26 c-23 23 -37 27 -100 31 -54 3 -81 0 -103 -12z"/>
 <path d="M592 3697 l-32 -33 0 -751 0 -751 40 -36 c56 -51 104 -50 161 1 l40 36 -2 81 -2 81 56 3 56 3 3 567 c2 312 7 575 12 585 7 15 2 17 -58 17 l-66 0 0 84 c0 84 0 84 -35 115 -30 26 -44 31 -88 31 -47 0 -57 -4 -85 -33z"/>
 <path d="M1046 2366 c-7 -191 -3 -217 34 -251 21 -19 42 -19 1208 -21 668 -1 1203 3 1224 8 42 10 88 50 88 76 0 10 4 22 9 27 6 6 7 77 4 178 l-6 167 -1277 0 -1277 0 -7 -184z"/>
 <path d="M1747 1953 c-4 -3 -7 -25 -7 -49 l0 -42 -86 -3 c-82 -4 -87 -5 -115 -37 l-29 -32 0 -200 0 -200 -74 0 c-92 0 -120 -10 -146 -52 -31 -51 -27 -103 13 -142 l32 -33 235 -6 c303 -9 1218 -9 1519 0 220 6 235 8 259 28 20 17 26 34 30 77 4 50 2 58 -26 89 -29 33 -33 34 -116 38 l-86 3 0 184 c0 214 -8 246 -64 269 -20 9 -67 15 -106 15 l-70 0 0 50 0 50 -578 0 c-318 0 -582 -3 -585 -7z"/>
 </g>
<g id="layer103" fill="#a1a1a1" stroke="none">
 <path d="M4325 3955 c-16 -9 -78 -63 -136 -121 l-106 -104 -167 0 -166 0 0 -700 0 -700 166 0 167 0 117 -114 c101 -98 123 -115 160 -121 68 -12 144 2 171 31 l24 26 0 879 0 879 -27 26 c-23 23 -37 27 -100 31 -54 3 -81 0 -103 -12z"/>
 <path d="M1347 3737 c-125 -122 -243 -242 -262 -267 l-35 -45 0 -367 0 -368 1280 0 1280 0 2 591 c2 428 0 599 -8 619 -27 64 41 60 -1044 60 l-985 -1 -228 -222z m373 -406 c19 -10 50 -37 68 -60 30 -40 32 -47 32 -127 l0 -84 -53 -55 -53 -55 -87 0 -87 0 -47 43 c-67 62 -86 121 -67 215 8 39 63 104 106 125 46 23 144 22 188 -2z m683 5 c47 -19 114 -97 123 -141 17 -92 -16 -168 -97 -223 -30 -21 -43 -23 -117 -20 l-83 3 -50 52 -49 52 0 86 0 86 48 51 c26 28 56 54 67 59 32 13 123 10 158 -5z m756 -41 c61 -57 75 -89 69 -164 -3 -47 -10 -66 -36 -99 -51 -64 -88 -82 -166 -82 l-67 0 -60 57 -59 56 0 85 0 85 53 54 54 53 82 0 82 0 48 -45z"/>
 <path d="M1563 3264 c-83 -41 -94 -158 -22 -219 25 -20 41 -25 86 -25 51 0 59 3 89 36 29 30 34 42 34 86 0 60 -22 102 -66 123 -41 19 -80 19 -121 -1z"/>
 <path d="M2274 3270 c-11 -4 -33 -22 -47 -40 -22 -26 -27 -42 -27 -86 0 -45 5 -59 28 -85 24 -27 37 -33 83 -36 66 -5 107 17 133 72 49 102 -64 218 -170 175z"/>
 <path d="M2944 3236 c-30 -30 -34 -40 -34 -89 0 -51 3 -57 40 -91 31 -28 48 -36 78 -36 86 0 153 94 122 170 -21 52 -64 80 -122 80 -44 0 -54 -4 -84 -34z"/>
 <path d="M592 3697 l-32 -33 0 -751 0 -751 40 -36 c56 -51 104 -50 161 1 l40 36 -2 81 -2 81 56 3 56 3 3 567 c2 312 7 575 12 585 7 15 2 17 -58 17 l-66 0 0 84 c0 84 0 84 -35 115 -30 26 -44 31 -88 31 -47 0 -57 -4 -85 -33z"/>
 <path d="M1747 1953 c-4 -3 -7 -25 -7 -49 l0 -42 -86 -3 c-82 -4 -87 -5 -115 -37 l-29 -32 0 -200 0 -200 -74 0 c-92 0 -120 -10 -146 -52 -31 -51 -27 -103 13 -142 l32 -33 235 -6 c303 -9 1218 -9 1519 0 220 6 235 8 259 28 20 17 26 34 30 77 4 50 2 58 -26 89 -29 33 -33 34 -116 38 l-86 3 0 184 c0 214 -8 246 -64 269 -20 9 -67 15 -106 15 l-70 0 0 50 0 50 -578 0 c-318 0 -582 -3 -585 -7z"/>
 </g>
<g id="layer104" fill="#bf5814" stroke="none">
 <path d="M4325 3955 c-16 -9 -78 -63 -136 -121 l-106 -104 -167 0 -166 0 0 -700 0 -700 166 0 167 0 117 -114 c101 -98 123 -115 160 -121 68 -12 144 2 171 31 l24 26 0 879 0 879 -27 26 c-23 23 -37 27 -100 31 -54 3 -81 0 -103 -12z"/>
 <path d="M592 3697 l-32 -33 0 -751 0 -751 40 -36 c56 -51 104 -50 161 1 l40 36 -2 81 -2 81 56 3 56 3 3 567 c2 312 7 575 12 585 7 15 2 17 -58 17 l-66 0 0 84 c0 84 0 84 -35 115 -30 26 -44 31 -88 31 -47 0 -57 -4 -85 -33z"/>
 <path d="M1563 3264 c-83 -41 -94 -158 -22 -219 25 -20 41 -25 86 -25 51 0 59 3 89 36 29 30 34 42 34 86 0 60 -22 102 -66 123 -41 19 -80 19 -121 -1z"/>
 <path d="M2274 3270 c-11 -4 -33 -22 -47 -40 -22 -26 -27 -42 -27 -86 0 -45 5 -59 28 -85 24 -27 37 -33 83 -36 66 -5 107 17 133 72 49 102 -64 218 -170 175z"/>
 <path d="M2944 3236 c-30 -30 -34 -40 -34 -89 0 -51 3 -57 40 -91 31 -28 48 -36 78 -36 86 0 153 94 122 170 -21 52 -64 80 -122 80 -44 0 -54 -4 -84 -34z"/>
 <path d="M1747 1953 c-4 -3 -7 -25 -7 -49 l0 -42 -86 -3 c-82 -4 -87 -5 -115 -37 l-29 -32 0 -200 0 -200 -74 0 c-92 0 -120 -10 -146 -52 -31 -51 -27 -103 13 -142 l32 -33 235 -6 c303 -9 1218 -9 1519 0 220 6 235 8 259 28 20 17 26 34 30 77 4 50 2 58 -26 89 -29 33 -33 34 -116 38 l-86 3 0 184 c0 214 -8 246 -64 269 -20 9 -67 15 -106 15 l-70 0 0 50 0 50 -578 0 c-318 0 -582 -3 -585 -7z"/>
 </g>
<g id="layer105" fill="#d8712d" stroke="none">
 <path d="M3750 3030 l0 -700 170 0 170 0 0 700 0 700 -170 0 -170 0 0 -700z"/>
 <path d="M800 2915 l0 -585 49 0 c35 0 51 4 55 16 3 9 6 257 6 552 0 301 4 551 9 570 l10 32 -65 0 -64 0 0 -585z"/>
 <path d="M1563 3264 c-83 -41 -94 -158 -22 -219 25 -20 41 -25 86 -25 51 0 59 3 89 36 29 30 34 42 34 86 0 60 -22 102 -66 123 -41 19 -80 19 -121 -1z"/>
 <path d="M2274 3270 c-11 -4 -33 -22 -47 -40 -22 -26 -27 -42 -27 -86 0 -45 5 -59 28 -85 24 -27 37 -33 83 -36 66 -5 107 17 133 72 49 102 -64 218 -170 175z"/>
 <path d="M2944 3236 c-30 -30 -34 -40 -34 -89 0 -51 3 -57 40 -91 31 -28 48 -36 78 -36 86 0 153 94 122 170 -21 52 -64 80 -122 80 -44 0 -54 -4 -84 -34z"/>
 <path d="M1744 1946 c-3 -8 -4 -29 -2 -48 l3 -33 583 -3 582 -2 0 50 0 50 -580 0 c-489 0 -581 -2 -586 -14z"/>
 <path d="M1350 1380 c-51 -12 -70 -42 -70 -107 0 -47 4 -59 29 -84 l29 -29 977 0 c1070 0 1029 -2 1055 59 18 45 7 108 -24 140 l-26 26 -968 2 c-532 1 -983 -3 -1002 -7z"/>
 </g>

</svg>