<!DOCTYPE svg PUBLIC "-//W3C//DTD SVG 20010904//EN" "http://www.w3.org/TR/2001/REC-SVG-20010904/DTD/svg10.dtd">
<svg version="1.0" xmlns="http://www.w3.org/2000/svg" width="512px" height="512px" viewBox="0 0 5120 5120" preserveAspectRatio="xMidYMid meet">
<g id="layer101" fill="#000000" stroke="none">
 <path d="M578 3853 c-13 -15 -17 -72 -23 -354 l-7 -336 -49 -12 c-58 -15 -143 -74 -192 -134 -82 -100 -156 -280 -192 -467 -9 -47 -20 -104 -25 -127 -16 -69 -12 -363 6 -461 44 -238 92 -382 165 -498 43 -67 126 -151 180 -180 33 -18 99 -19 2114 -19 2015 0 2081 1 2114 19 54 29 137 113 179 180 66 106 105 205 136 347 43 195 45 239 45 1143 l1 869 -22 24 c-31 34 -56 29 -135 -27 -39 -27 -75 -50 -79 -50 -4 0 -40 22 -80 50 -40 27 -79 50 -88 50 -9 0 -47 -22 -86 -50 -39 -27 -74 -50 -78 -50 -5 0 -41 23 -80 50 -39 28 -79 50 -87 50 -9 0 -49 -22 -89 -50 -40 -27 -75 -50 -79 -50 -3 0 -40 23 -80 50 -41 28 -81 50 -91 50 -9 0 -47 -23 -85 -50 -38 -28 -72 -50 -75 -50 -4 0 -40 23 -81 50 -41 28 -81 50 -90 50 -9 0 -50 -23 -91 -52 l-75 -51 -75 51 c-42 29 -85 52 -95 52 -11 0 -51 -23 -89 -51 -79 -57 -75 -57 -166 12 -28 22 -61 39 -73 39 -12 0 -55 -22 -95 -49 l-73 -50 -74 50 c-41 27 -84 49 -97 49 -12 0 -54 -23 -92 -51 -43 -31 -74 -47 -82 -43 -7 5 -39 27 -72 51 -32 24 -69 43 -83 43 -14 0 -55 -21 -91 -47 -36 -25 -71 -46 -77 -46 -6 0 -41 21 -77 46 -36 26 -76 47 -88 47 -12 0 -56 -23 -97 -51 l-74 -50 -70 50 c-71 52 -116 64 -137 38 -6 -7 -36 -30 -67 -51 l-55 -38 -74 51 c-41 28 -84 51 -95 51 -11 0 -51 -22 -89 -50 -38 -27 -72 -50 -76 -50 -4 0 -40 23 -79 50 -39 28 -79 50 -89 50 -10 0 -49 -22 -88 -50 -39 -27 -74 -50 -78 -50 -5 0 -41 23 -81 50 -77 53 -108 61 -133 33z"/>
 </g>
<g id="layer102" fill="#b9c0c2" stroke="none">
 <path d="M886 3678 c-79 -55 -106 -59 -158 -23 -20 14 -39 25 -42 25 -4 0 -6 -119 -6 -265 l0 -265 1963 0 1962 0 53 -25 c69 -32 148 -112 198 -200 l39 -70 3 208 c1 114 1 299 0 412 l-3 205 -37 -25 c-52 -36 -82 -31 -162 24 l-70 47 -70 -48 c-40 -28 -81 -48 -96 -48 -16 0 -55 20 -96 49 l-69 48 -72 -48 c-42 -28 -83 -49 -99 -49 -15 0 -53 19 -90 45 -34 25 -68 45 -74 45 -6 0 -40 -20 -77 -45 -38 -26 -77 -45 -92 -45 -17 0 -55 19 -96 49 l-69 49 -70 -49 c-40 -28 -80 -49 -95 -49 -28 0 -73 25 -132 71 l-36 28 -71 -49 c-46 -33 -80 -50 -99 -49 -17 0 -56 19 -97 48 l-70 47 -70 -48 c-40 -28 -81 -48 -96 -48 -15 0 -56 20 -96 48 l-70 48 -70 -47 c-90 -63 -111 -63 -194 0 l-64 49 -70 -49 c-93 -66 -108 -65 -212 12 l-52 38 -70 -50 c-45 -31 -80 -49 -99 -49 -17 0 -55 19 -97 48 l-70 48 -70 -48 c-40 -28 -81 -48 -96 -48 -15 0 -56 20 -96 48 l-70 48 -70 -47 c-40 -28 -81 -48 -97 -48 -17 -1 -55 17 -100 47 l-72 48 -69 -48z"/>
 <path d="M479 3002 c-104 -66 -191 -236 -240 -467 -21 -96 -24 -137 -24 -330 0 -175 4 -237 19 -305 55 -254 132 -405 250 -492 l39 -28 1894 0 c1041 0 1893 2 1893 5 0 3 -15 26 -34 52 -75 105 -129 244 -168 428 -20 96 -23 138 -22 340 0 259 11 344 69 519 38 117 72 189 121 259 l34 47 -1893 0 -1893 0 -45 -28z"/>
 <path d="M4479 3010 c-104 -55 -202 -240 -254 -480 -26 -121 -32 -439 -10 -575 53 -338 187 -565 334 -565 55 0 89 19 140 76 78 89 130 204 171 378 93 397 11 915 -176 1110 -72 76 -135 93 -205 56z m119 -473 c48 -51 56 -90 60 -298 5 -263 -18 -357 -92 -382 -40 -13 -75 16 -106 89 -23 56 -25 69 -25 254 0 215 12 282 59 333 31 34 74 36 104 4z"/>
 </g>
<g id="layer103" fill="#d2d9db" stroke="none">
 <path d="M880 3670 c-41 -27 -82 -50 -90 -50 -8 0 -35 14 -60 30 l-45 30 -3 -70 c-2 -38 -2 -104 0 -146 l3 -78 1959 -3 1959 -4 51 -27 c83 -45 162 -157 222 -317 l23 -60 0 353 1 353 -44 -31 c-25 -16 -52 -30 -62 -30 -9 0 -50 23 -91 51 l-75 51 -77 -51 c-42 -28 -84 -51 -92 -51 -9 0 -48 23 -88 50 -40 28 -75 50 -78 50 -3 0 -37 -22 -76 -50 -39 -27 -79 -50 -89 -50 -11 0 -53 23 -94 51 l-75 50 -75 -50 c-42 -28 -83 -51 -93 -51 -9 0 -49 23 -89 50 -80 57 -71 58 -169 -10 -31 -22 -64 -40 -74 -40 -9 0 -51 23 -92 50 l-76 51 -77 -51 c-42 -27 -84 -50 -93 -50 -10 0 -50 23 -89 51 l-73 51 -78 -51 c-42 -28 -84 -51 -92 -51 -8 0 -49 23 -91 51 l-77 50 -75 -50 c-41 -28 -83 -51 -93 -51 -10 0 -48 23 -85 51 -76 56 -67 57 -165 -11 -31 -22 -64 -40 -73 -40 -9 0 -51 23 -93 51 l-75 51 -76 -51 c-41 -28 -83 -51 -92 -51 -10 0 -51 23 -92 51 l-74 50 -77 -50 c-43 -28 -84 -51 -93 -51 -8 0 -49 23 -91 51 l-75 51 -76 -51 c-41 -28 -82 -51 -91 -51 -9 0 -49 23 -90 50 -41 28 -75 50 -77 50 -2 0 -37 -23 -78 -50z"/>
 <path d="M395 2919 c-14 -18 -39 -58 -56 -90 -202 -400 -155 -1114 90 -1372 74 -79 -126 -72 1989 -75 l1893 -3 -42 62 c-132 195 -189 426 -189 772 0 183 3 225 25 331 28 139 51 215 92 306 l29 65 -1908 -3 c-1049 -1 -1908 1 -1908 6 0 4 5 13 12 20 7 7 9 12 6 12 -3 0 -18 -14 -33 -31z"/>
 </g>
<g id="layer104" fill="#ecf3f5" stroke="none">
 <path d="M366 2871 c-72 -114 -130 -329 -144 -536 -28 -406 77 -790 251 -916 l40 -29 1894 0 1893 0 -36 55 -37 55 -1756 0 c-1230 0 -1768 3 -1796 11 -65 18 -163 125 -219 240 -136 281 -167 714 -76 1070 12 45 19 83 16 86 -2 3 -16 -13 -30 -36z"/>
 </g>

</svg>