<!DOCTYPE svg PUBLIC "-//W3C//DTD SVG 20010904//EN" "http://www.w3.org/TR/2001/REC-SVG-20010904/DTD/svg10.dtd">
<svg version="1.0" xmlns="http://www.w3.org/2000/svg" width="512px" height="512px" viewBox="0 0 5120 5120" preserveAspectRatio="xMidYMid meet">
<g id="layer101" fill="#270042" stroke="none">
 <path d="M1823 4709 c-52 -15 -94 -77 -215 -317 -109 -215 -139 -283 -152 -343 -5 -23 -13 -28 -50 -33 -33 -5 -62 -21 -107 -57 -34 -27 -89 -64 -122 -81 -96 -51 -140 -102 -160 -180 -25 -99 -25 -703 0 -792 32 -114 113 -161 270 -158 l62 1 29 -62 c33 -68 344 -477 395 -518 46 -36 440 -271 512 -304 33 -15 92 -40 130 -56 39 -15 131 -54 205 -87 l135 -58 7 -55 c4 -29 19 -180 33 -334 33 -356 42 -441 56 -490 19 -69 75 -109 350 -250 308 -157 292 -154 509 -81 93 31 155 57 172 74 23 22 154 219 198 300 22 40 19 184 -7 337 -12 72 -29 184 -38 250 -31 229 -27 221 -279 659 -64 111 -84 155 -81 175 3 14 16 112 31 216 31 228 29 281 -16 336 -29 36 -30 42 -20 78 8 29 5 72 -10 187 -12 82 -25 183 -30 224 -24 183 -102 723 -116 800 -18 102 -46 143 -125 182 -81 40 -857 315 -995 353 -67 18 -144 36 -170 40 -27 4 -104 17 -172 31 -130 25 -177 28 -229 13z m1266 -2597 c-1 -27 -1 -27 -8 3 l-7 30 -28 -50 c-15 -27 -25 -42 -22 -32 3 10 6 22 6 26 0 16 42 61 51 56 5 -4 8 -18 8 -33z m8 -79 c-3 -10 -5 -2 -5 17 0 19 2 27 5 18 2 -10 2 -26 0 -35z m-94 -42 c-16 -41 -16 -44 6 -88 12 -25 20 -47 18 -49 -2 -2 -14 18 -27 46 -23 48 -23 50 -5 95 9 26 19 44 21 42 2 -2 -4 -22 -13 -46z m105 -108 c7 -12 12 -25 12 -30 -1 -4 -9 8 -20 27 -12 22 -19 53 -18 85 l1 50 6 -55 c4 -30 12 -65 19 -77z m21 -151 c32 -3 33 -2 27 25 -5 21 -4 24 4 13 5 -8 10 -23 10 -33 0 -15 -7 -18 -37 -15 -30 2 -42 10 -60 37 -13 19 -23 39 -23 45 0 6 10 -7 23 -29 18 -32 29 -41 56 -43z"/>
 </g>
<g id="layer102" fill="#000000" stroke="none">
 <path d="M1823 4709 c-52 -15 -94 -77 -215 -317 -109 -215 -139 -283 -152 -343 -5 -23 -13 -28 -50 -33 -33 -5 -62 -21 -107 -57 -34 -27 -89 -64 -122 -81 -96 -51 -140 -102 -160 -180 -25 -99 -25 -703 0 -792 32 -114 113 -161 270 -158 l62 1 29 -62 c33 -68 344 -477 395 -518 46 -36 440 -271 512 -304 33 -15 92 -40 130 -56 39 -15 131 -54 205 -87 l135 -58 7 -55 c4 -29 19 -180 33 -334 33 -356 42 -441 56 -490 19 -69 75 -109 350 -250 308 -157 292 -154 509 -81 93 31 155 57 172 74 23 22 154 219 198 300 22 40 19 184 -7 337 -12 72 -29 184 -38 250 -31 229 -27 221 -279 659 -64 111 -84 155 -81 175 3 14 16 112 31 216 31 228 29 281 -16 336 -29 36 -30 42 -20 78 8 29 5 72 -10 187 -12 82 -25 183 -30 224 -24 183 -102 723 -116 800 -18 102 -46 143 -125 182 -81 40 -857 315 -995 353 -67 18 -144 36 -170 40 -27 4 -104 17 -172 31 -130 25 -177 28 -229 13z m1759 -2021 c1 -36 1 -46 -8 -98 -3 -19 -7 -46 -9 -60 -2 -14 -8 -54 -14 -90 -28 -174 -30 -262 -8 -288 8 -9 28 -47 46 -84 18 -37 42 -82 55 -100 12 -18 25 -40 29 -48 4 -8 16 -28 27 -45 11 -16 26 -43 35 -60 8 -16 28 -52 44 -80 74 -128 85 -160 105 -300 3 -22 8 -56 11 -75 3 -19 8 -55 10 -80 6 -52 12 -91 20 -140 13 -75 16 -106 15 -132 0 -15 4 -29 10 -33 5 -3 10 -15 10 -25 0 -24 -55 -133 -97 -191 -18 -26 -33 -51 -33 -56 0 -24 -62 -81 -95 -87 -48 -9 -49 -9 -53 6 -2 9 0 8 7 -2 6 -8 11 -10 11 -4 0 17 -27 37 -40 29 -6 -4 -9 -1 -8 7 2 7 -5 12 -14 12 -10 -1 -15 3 -11 9 4 6 0 8 -10 4 -9 -3 -19 -1 -23 5 -5 7 -2 8 7 4 8 -4 5 0 -6 8 -11 9 -25 14 -31 12 -19 -7 -36 20 -31 51 4 27 4 27 6 -4 0 -17 5 -34 9 -37 12 -7 -3 115 -18 146 -7 15 -17 25 -21 22 -5 -3 -6 3 -2 12 5 13 3 15 -7 9 -9 -5 -11 -4 -6 4 10 16 -13 73 -27 64 -6 -4 -7 -1 -3 6 10 15 -13 73 -25 65 -5 -3 -6 3 -2 12 4 12 3 15 -5 10 -8 -5 -10 -1 -5 10 4 12 3 15 -5 10 -8 -5 -10 -1 -5 10 4 12 3 15 -5 10 -8 -5 -10 -1 -5 10 4 12 3 15 -5 10 -7 -4 -10 -2 -6 7 7 19 -35 129 -47 122 -5 -4 -6 2 -2 11 5 13 3 15 -7 9 -9 -6 -11 -4 -5 4 9 15 -34 113 -46 105 -5 -3 -6 3 -2 12 4 12 3 15 -5 10 -8 -5 -10 -1 -5 10 4 12 3 15 -5 10 -8 -5 -10 -1 -5 10 4 12 3 15 -5 10 -8 -5 -10 -1 -5 10 4 12 3 15 -5 10 -8 -5 -10 -1 -5 10 5 13 3 15 -7 9 -9 -6 -11 -4 -5 5 9 15 -54 152 -67 144 -4 -3 -5 3 -1 12 4 11 3 15 -4 11 -7 -5 -9 0 -6 13 4 16 10 18 32 12 14 -4 51 -6 81 -6 42 2 49 0 30 -7 -22 -7 -21 -8 10 -6 22 1 34 -3 33 -10 -3 -15 56 -65 67 -58 5 3 12 0 16 -6 5 -8 2 -10 -7 -5 -8 4 -3 -2 10 -13 30 -27 37 -26 57 4 12 18 15 39 12 76 -4 33 -2 46 4 37 7 -9 8 -6 5 10 -3 13 -3 21 0 18 4 -3 12 3 20 14 10 15 11 25 3 40 -6 11 -13 20 -16 20 -3 0 -2 -5 2 -12 4 -7 3 -8 -4 -4 -6 4 -8 14 -5 23 5 12 3 14 -7 8 -9 -5 -11 -4 -6 3 8 13 -17 67 -35 78 -8 4 -9 3 -5 -4 11 -18 0 -14 -15 5 -12 14 -12 16 0 9 9 -6 12 -4 9 5 -3 8 -11 14 -19 14 -9 0 -15 12 -16 35 l-1 35 8 -35 c5 -24 8 2 9 85 0 87 -2 116 -10 105 -8 -11 -9 -8 -4 13 4 21 3 27 -6 21 -8 -4 -9 -3 -5 5 4 6 4 21 1 32 -6 17 -9 19 -17 8 -7 -10 -8 -5 -3 14 3 16 2 26 -3 24 -4 -3 -7 11 -5 31 2 30 1 32 -5 12 -5 -17 -8 0 -8 50 0 41 3 64 6 50 5 -21 7 -17 13 21 3 25 4 56 1 70 -5 20 -4 21 6 9 9 -12 11 -10 7 12 -2 17 0 25 6 21 6 -4 8 0 4 10 -4 10 -2 16 6 14 7 -1 11 6 11 15 -1 9 10 27 24 40 14 13 22 17 18 11 -4 -7 -3 -13 2 -13 12 0 53 45 47 52 -3 2 5 13 17 24 l23 19 -20 -25 -20 -25 23 19 c12 11 22 25 22 33 0 29 20 11 22 -19z m-528 -524 c3 -8 2 -12 -4 -9 -6 3 -10 4 -10 1 0 -2 -3 -11 -6 -20 -3 -9 -1 -16 6 -16 6 0 8 5 4 12 -4 6 -3 8 4 4 6 -3 13 -2 17 4 11 17 25 0 24 -28 -1 -27 -1 -27 -8 3 l-7 30 -27 -50 c-15 -27 -25 -39 -21 -26 3 13 2 21 -3 18 -5 -3 -15 -1 -23 5 -12 8 -12 9 3 4 31 -10 18 3 -20 19 -20 9 -42 14 -48 11 -7 -2 -12 2 -12 10 0 8 23 19 61 28 34 8 62 15 62 15 1 1 5 -6 8 -15z m43 -131 c-3 -10 -5 -2 -5 17 0 19 2 27 5 18 2 -10 2 -26 0 -35z m-94 -42 c-16 -41 -16 -44 5 -87 26 -52 27 -59 8 -42 -8 7 -13 15 -13 18 1 3 -4 20 -12 38 -12 28 -11 38 4 78 9 25 19 43 21 41 2 -2 -4 -22 -13 -46z m105 -108 c7 -12 12 -25 12 -30 -1 -4 -9 8 -20 27 -12 22 -19 53 -18 85 l1 50 6 -55 c4 -30 12 -65 19 -77z m21 -151 c32 -3 33 -2 27 25 -5 21 -4 24 4 13 36 -54 -36 -73 -83 -21 -14 16 -23 32 -20 35 4 3 1 6 -6 6 -7 0 -9 5 -5 11 4 6 15 -5 28 -27 17 -31 28 -40 55 -42z m-222 -49 c-3 -10 -5 -2 -5 17 0 19 2 27 5 18 2 -10 2 -26 0 -35z m580 -75 c-2 -13 -4 -5 -4 17 -1 22 1 32 4 23 2 -10 2 -28 0 -40z"/>
 </g>
<g id="layer103" fill="#563c17" stroke="none">
 <path d="M1847 4543 c-36 -57 -233 -453 -246 -494 -8 -25 -9 -49 -2 -79 12 -54 25 -68 50 -53 17 11 19 5 24 -85 16 -231 4 -749 -17 -770 -13 -12 -25 22 -31 88 -4 36 -12 121 -20 190 -7 69 -19 181 -25 250 -25 272 -32 289 -102 270 -44 -12 -59 -44 -52 -107 2 -26 18 -178 34 -337 17 -159 30 -315 30 -347 0 -54 -2 -58 -33 -77 -19 -11 -45 -27 -58 -35 l-24 -16 0 414 c0 472 2 461 -71 428 -77 -36 -136 -76 -147 -102 -7 -17 -13 -133 -15 -329 -3 -293 5 -423 28 -446 19 -19 138 -20 201 -1 33 10 62 16 65 13 2 -3 15 -34 28 -69 43 -117 53 -133 221 -349 l167 -215 186 -114 c235 -142 251 -151 512 -261 118 -50 244 -103 279 -118 38 -16 66 -35 71 -47 4 -11 10 -67 14 -125 6 -101 45 -522 65 -704 6 -54 16 -95 26 -106 8 -9 124 -72 256 -139 199 -102 246 -122 272 -118 55 9 147 48 147 62 0 7 -33 33 -72 57 l-73 44 -2 52 c-1 51 -11 75 -118 312 -24 52 -46 106 -50 120 -4 14 -35 81 -68 150 -146 307 -167 353 -163 358 3 2 34 -3 70 -12 36 -9 76 -16 90 -16 16 0 44 -17 76 -45 56 -50 86 -68 99 -61 4 3 11 30 14 60 3 29 13 68 22 86 16 32 16 34 -6 74 -12 23 -36 61 -53 85 -30 42 -31 46 -31 160 0 87 -4 125 -17 151 -33 70 -41 112 -35 189 10 133 29 175 113 256 59 56 72 73 62 83 -18 18 -48 15 -86 -8 l-33 -21 3 23 c3 22 1 23 -70 22 l-73 -2 7 45 c5 34 3 48 -11 63 -10 11 -24 20 -31 20 -6 0 -29 23 -49 51 -35 49 -36 52 -19 70 9 10 23 19 31 19 7 0 22 9 33 20 19 19 20 33 20 261 0 140 4 248 10 259 5 10 25 23 44 30 64 21 64 30 -5 130 l-62 92 6 98 c3 68 11 112 26 146 l21 48 -62 60 c-50 48 -77 66 -128 83 -36 12 -110 38 -165 58 -379 138 -567 202 -657 221 -117 24 -385 74 -402 74 -9 0 -26 -17 -39 -37z m362 -955 c1 -280 0 -288 -19 -288 -14 0 -21 9 -25 33 -4 26 -55 446 -80 659 l-6 47 58 34 58 33 6 -115 c4 -64 7 -245 8 -403z m-244 223 c9 -86 27 -251 41 -367 18 -149 22 -217 15 -236 -8 -22 -82 -68 -110 -68 -11 0 -15 27 -36 235 -8 83 -25 242 -37 354 -15 139 -18 208 -12 219 6 9 33 28 60 42 l49 27 7 -25 c4 -14 14 -95 23 -181z m1095 -1642 c0 -6 -5 -20 -11 -32 -12 -21 -11 -21 8 -4 23 20 33 13 32 -22 -1 -25 -2 -25 -8 4 l-7 30 -27 -50 c-15 -27 -25 -41 -22 -29 3 13 0 21 -7 21 -23 1 -108 42 -108 52 0 6 19 15 43 21 23 6 47 13 52 15 22 8 55 4 55 -6z m37 -136 c-3 -10 -5 -2 -5 17 0 19 2 27 5 18 2 -10 2 -26 0 -35z m-94 -42 c-16 -41 -16 -44 5 -87 13 -25 20 -48 18 -52 -2 -4 2 -18 10 -32 7 -14 14 -20 14 -15 0 6 10 -8 23 -30 18 -32 29 -41 56 -43 32 -3 33 -2 27 25 -5 21 -4 24 4 13 5 -8 10 -23 10 -32 0 -29 -64 -24 -88 7 -11 13 -22 22 -25 19 -8 -8 -105 15 -112 26 -3 5 4 29 15 55 14 33 25 45 35 41 12 -4 12 0 -2 29 -15 31 -15 37 1 80 10 25 20 44 22 42 2 -2 -4 -22 -13 -46z m105 -108 c7 -12 12 -25 12 -30 -1 -4 -9 8 -20 27 -12 22 -19 53 -18 85 l1 50 6 -55 c4 -30 12 -65 19 -77z"/>
 <path d="M2143 4064 c-40 -24 -43 -28 -43 -70 0 -24 11 -131 24 -237 14 -105 30 -239 36 -297 7 -58 16 -116 20 -130 9 -29 17 504 10 657 l-5 103 -42 -26z"/>
 <path d="M1878 3974 c-55 -28 -54 -18 -34 -194 8 -69 17 -152 21 -185 3 -33 10 -96 15 -140 5 -44 12 -114 15 -155 8 -101 15 -150 23 -150 4 0 25 10 47 23 38 21 40 25 43 75 2 29 -6 128 -17 220 -11 92 -27 237 -36 323 -9 86 -19 167 -23 181 l-7 26 -47 -24z"/>
 <path d="M3252 4152 c51 -55 58 -72 43 -101 -18 -36 -35 -132 -35 -201 0 -52 5 -63 62 -149 l62 -94 -28 -24 c-15 -12 -33 -23 -40 -23 -36 0 -41 -28 -46 -284 l-5 -250 -31 -21 c-18 -11 -39 -24 -48 -30 -14 -9 -12 -15 12 -52 15 -23 40 -47 55 -54 37 -16 50 -44 43 -90 -3 -22 -4 -39 -2 -39 3 0 28 5 56 11 39 8 54 8 66 -2 18 -15 29 -2 79 96 l35 70 -34 250 c-19 138 -53 374 -75 525 -21 151 -43 305 -46 342 -4 37 -13 74 -19 83 -6 9 -38 27 -70 40 l-59 24 25 -27z"/>
 <path d="M1564 3910 c-33 -13 -37 -27 -15 -57 17 -24 25 -82 55 -388 20 -198 36 -363 36 -367 0 -5 5 -8 10 -8 7 0 10 143 10 409 l0 408 -24 -4 c-13 -3 -27 0 -30 6 -8 13 -13 13 -42 1z"/>
 <path d="M1390 3842 c-33 -28 -33 -29 -17 -53 15 -21 17 -65 17 -422 0 -219 3 -397 8 -395 81 39 82 40 82 87 0 25 -9 125 -19 221 -11 96 -22 211 -26 255 -3 44 -8 87 -10 95 -2 8 -6 53 -10 101 -5 77 -4 88 15 112 29 37 5 36 -40 -1z"/>
 </g>
<g id="layer104" fill="#6f5530" stroke="none">
 <path d="M1852 4543 c-11 -16 -72 -133 -136 -262 -120 -241 -130 -273 -106 -337 9 -23 14 -26 41 -20 l30 6 -3 -425 c-3 -385 -5 -426 -20 -441 -31 -31 -31 -32 -88 554 -11 112 -25 212 -30 223 -24 43 -110 8 -110 -44 0 -28 33 -361 56 -562 8 -77 14 -160 12 -184 -3 -42 -6 -45 -65 -82 l-63 -38 0 417 c0 232 -4 423 -9 431 -13 20 -76 -1 -145 -49 -47 -33 -52 -40 -58 -85 -4 -28 -4 -202 -1 -388 5 -267 9 -339 20 -348 17 -15 163 -15 191 0 35 19 71 14 82 -11 5 -13 21 -54 36 -93 32 -84 29 -80 221 -327 l153 -197 192 -114 c266 -158 267 -159 503 -259 116 -49 239 -101 274 -116 38 -16 66 -35 71 -47 4 -11 10 -67 14 -125 6 -101 45 -522 65 -704 6 -54 16 -95 26 -106 8 -9 124 -72 256 -139 199 -102 246 -122 272 -118 55 9 147 48 147 62 0 7 -33 33 -72 57 l-73 44 -2 52 c-1 51 -11 75 -118 312 -24 52 -46 106 -50 120 -4 14 -35 81 -68 150 -146 307 -167 353 -163 358 3 2 34 -3 70 -12 36 -9 76 -16 90 -16 16 0 44 -17 76 -45 56 -50 86 -68 99 -61 4 3 11 30 14 60 3 29 13 68 22 86 16 32 16 34 -6 74 -12 23 -36 61 -53 85 -30 42 -31 46 -31 160 0 87 -4 125 -17 151 -33 70 -41 112 -35 189 10 133 29 175 113 256 59 56 72 73 62 83 -19 19 -41 15 -89 -17 -83 -55 -154 -137 -242 -281 -48 -77 -87 -142 -87 -145 0 -3 -10 -22 -23 -43 -12 -20 -31 -55 -41 -77 -18 -39 -18 -40 1 -22 23 20 33 13 32 -22 -1 -25 -2 -25 -8 4 l-7 30 -27 -50 c-15 -27 -25 -39 -21 -25 4 14 3 22 -1 18 -8 -8 -91 28 -123 53 -13 10 -31 15 -40 12 -10 -3 -13 -2 -6 4 19 15 64 99 64 121 0 12 -13 34 -30 49 -28 24 -30 31 -30 94 0 70 9 89 30 64 7 -8 19 -15 26 -15 17 0 18 47 4 225 -20 238 -25 267 -56 290 -49 35 -68 60 -149 197 -43 73 -85 142 -92 154 -13 20 -10 22 86 53 54 17 104 38 111 46 9 11 0 70 -40 272 -85 432 -98 472 -137 416 -11 -15 -30 -47 -42 -70 -12 -24 -23 -43 -25 -43 -2 0 -2 28 1 62 7 69 -6 88 -61 88 -59 0 -77 11 -97 57 -23 54 -24 79 -3 128 21 51 12 75 -38 106 -68 40 -122 57 -291 89 -198 37 -210 38 -235 3z m358 -543 c1 -718 1 -705 -16 -708 -9 -2 -20 0 -25 5 -5 5 -16 65 -24 134 -9 68 -27 212 -40 320 -14 107 -25 218 -25 246 0 51 0 51 53 82 28 17 58 31 65 31 9 0 12 -29 12 -110z m-251 -67 c6 -49 18 -155 26 -238 9 -82 22 -202 30 -265 22 -167 20 -222 -7 -247 -24 -22 -81 -53 -96 -53 -17 0 -22 29 -43 229 -10 108 -26 255 -34 326 -29 264 -29 259 -8 276 22 20 93 58 109 59 7 0 16 -36 23 -87z m1138 -1900 c-3 -10 -5 -2 -5 17 0 19 2 27 5 18 2 -10 2 -26 0 -35z m-94 -42 c-16 -41 -16 -44 5 -87 13 -25 20 -48 18 -52 -2 -4 2 -18 10 -32 7 -14 14 -20 14 -15 0 6 10 -8 23 -30 18 -32 29 -41 56 -43 32 -3 33 -2 27 25 -5 21 -4 24 4 13 5 -8 10 -23 10 -32 0 -29 -64 -24 -88 7 -11 13 -22 22 -25 19 -8 -8 -105 15 -112 26 -3 5 4 29 15 55 14 33 25 45 35 41 12 -4 12 0 -2 29 -15 31 -15 37 1 80 10 25 20 44 22 42 2 -2 -4 -22 -13 -46z m105 -108 c7 -12 12 -25 12 -30 -1 -4 -9 8 -20 27 -12 22 -19 53 -18 85 l1 50 6 -55 c4 -30 12 -65 19 -77z"/>
 </g>
<g id="layer105" fill="#450072" stroke="none">
 <path d="M1810 4463 c-75 -138 -200 -398 -206 -430 -7 -38 11 -113 27 -113 6 0 19 5 30 10 18 10 19 7 19 -47 1 -115 12 -258 20 -267 14 -14 30 3 60 67 17 33 37 68 46 78 14 15 14 33 3 159 -15 166 -3 316 37 480 28 119 28 120 10 120 -8 0 -29 -26 -46 -57z"/>
 <path d="M1463 3848 c-21 -10 -23 -18 -23 -80 0 -64 13 -206 41 -450 12 -101 20 -115 52 -80 8 9 25 40 37 67 l22 50 -17 175 c-22 237 -34 313 -48 322 -16 10 -37 9 -64 -4z"/>
 <path d="M1260 3753 c-40 -20 -79 -47 -87 -59 -11 -17 -14 -63 -14 -210 0 -212 5 -229 52 -174 17 19 35 46 42 59 7 14 17 26 23 28 15 5 20 -19 34 -142 12 -115 22 -157 36 -162 13 -4 24 229 23 471 -1 173 -6 217 -25 223 -6 2 -44 -13 -84 -34z"/>
 <path d="M2015 3103 c-164 -43 -358 -84 -410 -88 -36 -2 -70 -7 -75 -10 -6 -3 -20 -8 -32 -10 -13 -3 -24 -9 -26 -15 -2 -6 -7 -8 -11 -6 -16 10 -10 -62 9 -123 30 -92 48 -123 139 -241 45 -58 118 -154 164 -213 79 -105 86 -111 197 -178 64 -38 124 -69 133 -69 16 0 15 6 -10 51 -15 28 -43 68 -62 90 -28 34 -32 44 -23 62 19 41 133 187 155 199 44 23 64 79 32 92 -24 9 -18 30 24 82 52 66 66 96 86 184 9 41 21 87 27 102 5 15 7 31 4 37 -15 23 -273 67 -321 54z"/>
 <path d="M1400 2945 c-19 -14 -30 -25 -24 -25 10 1 73 50 63 50 -3 0 -20 -11 -39 -25z"/>
 <path d="M3449 2701 c-83 -55 -154 -137 -242 -281 -48 -77 -87 -142 -87 -145 0 -3 -10 -22 -23 -43 -12 -20 -31 -55 -41 -77 -18 -39 -18 -40 1 -22 23 20 33 13 32 -22 -1 -25 -2 -25 -8 4 l-7 30 -27 -50 c-15 -27 -25 -39 -21 -26 3 13 2 21 -3 18 -4 -3 -40 10 -78 29 -99 49 -124 51 -262 19 -380 -88 -391 -91 -363 -119 8 -8 112 -56 230 -106 118 -50 244 -103 279 -118 38 -16 66 -35 71 -47 4 -11 10 -67 14 -125 6 -101 45 -522 65 -704 6 -54 16 -95 26 -106 8 -9 124 -72 256 -139 199 -102 246 -122 272 -118 55 9 147 48 147 62 0 7 -33 33 -72 57 l-73 44 -2 52 c-1 51 -11 75 -118 312 -24 52 -46 106 -50 120 -4 14 -35 81 -68 150 -146 307 -167 353 -163 358 3 2 34 -3 70 -12 36 -9 76 -16 90 -16 16 0 44 -17 76 -45 56 -50 86 -68 99 -61 4 3 11 30 14 60 3 29 13 68 22 86 16 32 16 34 -6 74 -12 23 -36 61 -53 85 -30 42 -31 46 -31 160 0 87 -4 125 -17 151 -33 70 -41 112 -35 189 10 133 29 175 113 256 59 56 72 73 62 83 -19 19 -41 15 -89 -17z m-352 -668 c-3 -10 -5 -2 -5 17 0 19 2 27 5 18 2 -10 2 -26 0 -35z m-94 -42 c-16 -41 -16 -44 5 -87 13 -25 20 -48 18 -52 -2 -4 2 -18 10 -32 7 -14 14 -20 14 -15 0 6 10 -8 23 -30 18 -32 29 -41 56 -43 32 -3 33 -2 27 25 -5 21 -4 24 4 13 5 -8 10 -23 10 -32 0 -29 -64 -24 -88 7 -11 13 -22 22 -25 19 -8 -8 -105 15 -112 26 -3 5 4 29 15 55 14 33 25 45 35 41 12 -4 12 0 -2 29 -15 31 -15 37 1 80 10 25 20 44 22 42 2 -2 -4 -22 -13 -46z m105 -108 c7 -12 12 -25 12 -30 -1 -4 -9 8 -20 27 -12 22 -19 53 -18 85 l1 50 6 -55 c4 -30 12 -65 19 -77z"/>
 </g>
<g id="layer106" fill="#896f4a" stroke="none">
 <path d="M1810 4463 c-75 -138 -200 -398 -206 -430 -7 -38 11 -113 27 -113 6 0 19 5 30 10 18 10 19 7 19 -47 1 -115 12 -258 20 -267 14 -14 30 3 60 67 17 33 37 68 46 78 14 15 14 33 3 159 -15 166 -3 316 37 480 28 119 28 120 10 120 -8 0 -29 -26 -46 -57z"/>
 <path d="M1463 3848 c-21 -10 -23 -18 -23 -80 0 -64 13 -206 41 -450 12 -101 20 -115 52 -80 8 9 25 40 37 67 l22 50 -17 175 c-22 237 -34 313 -48 322 -16 10 -37 9 -64 -4z"/>
 <path d="M1260 3753 c-40 -20 -79 -47 -87 -59 -11 -17 -14 -63 -14 -210 0 -212 5 -229 52 -174 17 19 35 46 42 59 7 14 17 26 23 28 15 5 20 -19 34 -142 12 -115 22 -157 36 -162 13 -4 24 229 23 471 -1 173 -6 217 -25 223 -6 2 -44 -13 -84 -34z"/>
 <path d="M2015 3103 c-164 -43 -358 -84 -410 -88 -36 -2 -70 -7 -75 -10 -6 -3 -20 -8 -32 -10 -13 -3 -24 -9 -26 -15 -2 -6 -7 -8 -11 -6 -16 10 -10 -62 9 -123 30 -92 48 -123 139 -241 45 -58 118 -154 164 -213 79 -105 86 -111 197 -178 64 -38 124 -69 133 -69 16 0 15 6 -10 51 -15 28 -43 68 -62 90 -28 34 -32 44 -23 62 19 41 133 187 155 199 44 23 64 79 32 92 -24 9 -18 30 24 82 52 66 66 96 86 184 9 41 21 87 27 102 5 15 7 31 4 37 -15 23 -273 67 -321 54z"/>
 <path d="M1400 2945 c-19 -14 -30 -25 -24 -25 10 1 73 50 63 50 -3 0 -20 -11 -39 -25z"/>
 <path d="M3059 2143 c-4 -23 -5 -30 -12 -51 -5 -12 -13 -20 -18 -17 -5 3 -6 -1 -3 -9 3 -9 1 -16 -6 -16 -6 0 -9 -4 -6 -9 8 -12 -4 -42 -14 -36 -5 3 -6 -5 -2 -17 3 -11 1 -19 -4 -16 -5 4 -9 -7 -9 -22 0 -15 4 -26 9 -22 5 3 6 -2 3 -12 -5 -11 -3 -15 5 -10 8 5 9 2 5 -10 -4 -10 -3 -15 3 -11 5 3 14 -13 20 -35 6 -22 16 -40 21 -40 6 0 8 -7 5 -16 -3 -8 -2 -12 3 -9 8 5 24 -25 26 -47 0 -5 3 -8 8 -8 4 0 20 0 36 0 20 0 30 6 34 20 3 13 1 18 -6 13 -6 -4 -8 0 -4 10 3 10 2 17 -3 17 -8 0 -26 41 -21 49 2 2 -2 7 -7 10 -21 14 -42 73 -41 118 1 42 2 44 9 18 4 -20 6 -4 6 47 -1 42 -4 71 -8 65 -5 -7 -8 0 -8 15 0 24 -18 51 -21 31z"/>
 </g>
<g id="layer107" fill="#61009f" stroke="none">
 <path d="M3055 2149 c-5 -7 -10 -20 -11 -27 -2 -8 -9 -21 -17 -30 -12 -15 -41 -77 -42 -92 0 -3 -6 -15 -13 -27 -12 -22 -2 -52 38 -113 6 -8 17 -31 25 -50 33 -74 50 -95 77 -92 15 2 29 -2 33 -8 5 -8 13 -6 26 6 14 13 16 20 8 31 -6 7 -9 13 -6 13 4 0 -14 39 -40 87 -35 67 -43 90 -35 103 5 9 9 49 8 88 -2 54 -7 79 -22 99 -17 22 -22 24 -29 12z"/>
 </g>

</svg>