<!DOCTYPE svg PUBLIC "-//W3C//DTD SVG 20010904//EN" "http://www.w3.org/TR/2001/REC-SVG-20010904/DTD/svg10.dtd">
<svg version="1.0" xmlns="http://www.w3.org/2000/svg" width="512px" height="512px" viewBox="0 0 5120 5120" preserveAspectRatio="xMidYMid meet">
<g id="layer101" fill="#000000" stroke="none">
 <path d="M2209 4530 c-25 -16 -56 -48 -69 -72 -24 -42 -25 -51 -30 -283 -5 -261 -8 -274 -65 -311 -31 -20 -104 -20 -142 0 -16 8 -91 78 -168 156 -261 264 -292 262 -602 -51 -201 -203 -223 -234 -223 -311 1 -73 30 -115 185 -268 80 -80 153 -157 161 -173 34 -64 11 -155 -49 -189 -15 -9 -98 -15 -267 -18 l-245 -5 -43 -29 c-24 -16 -54 -48 -68 -71 l-24 -42 0 -303 0 -303 24 -42 c14 -23 44 -55 68 -71 l43 -29 245 -5 c169 -3 252 -9 267 -18 60 -34 83 -125 49 -189 -8 -16 -81 -93 -161 -173 -155 -153 -184 -195 -185 -268 0 -77 22 -108 223 -311 311 -313 335 -315 602 -52 83 82 160 154 173 160 33 18 108 16 137 -3 57 -37 60 -50 65 -311 5 -232 6 -241 30 -283 13 -24 44 -56 69 -72 l44 -30 307 0 307 0 44 30 c25 16 56 48 69 72 24 42 25 51 30 283 5 261 8 274 65 311 29 19 104 21 137 3 13 -6 91 -78 173 -160 267 -263 291 -261 602 52 201 203 223 234 223 311 -1 73 -30 115 -185 268 -80 80 -153 157 -161 173 -34 64 -11 155 49 189 15 9 98 15 267 18 l245 5 43 29 c24 16 54 48 68 71 l24 42 0 303 0 303 -24 42 c-14 23 -44 55 -68 71 l-43 29 -245 5 c-169 3 -252 9 -267 18 -60 34 -83 125 -49 189 8 16 81 93 161 173 155 153 184 195 185 268 0 77 -22 108 -223 311 -310 313 -341 315 -602 51 -77 -78 -152 -148 -168 -156 -38 -20 -111 -20 -142 0 -57 37 -60 50 -65 311 -5 232 -6 241 -30 283 -13 24 -44 56 -69 72 l-44 30 -307 0 -307 0 -44 -30z"/>
 </g>
<g id="layer102" fill="#bf5814" stroke="none">
 <path d="M2279 4393 c-11 -12 -15 -73 -19 -257 l-5 -241 -30 -54 c-36 -65 -83 -105 -155 -132 -69 -26 -159 -22 -222 11 -24 12 -110 88 -193 168 -171 168 -185 178 -217 160 -36 -20 -347 -330 -363 -361 -11 -23 -12 -33 -2 -50 7 -12 84 -96 172 -187 l160 -165 19 -72 c18 -71 18 -72 -3 -135 -27 -80 -58 -126 -109 -162 -74 -51 -99 -55 -337 -56 -183 0 -224 -3 -243 -16 -22 -15 -22 -17 -22 -284 0 -267 0 -269 22 -284 19 -13 60 -16 243 -16 238 -1 263 -5 337 -56 51 -36 82 -82 109 -162 21 -63 21 -64 3 -135 l-19 -72 -160 -165 c-181 -187 -191 -200 -173 -233 20 -34 330 -346 360 -362 42 -20 64 -5 223 155 170 172 207 195 315 194 87 0 145 -23 205 -81 73 -71 79 -98 85 -364 4 -179 8 -240 19 -253 12 -14 45 -16 281 -16 236 0 269 2 281 16 11 13 15 74 19 258 5 225 7 244 28 283 55 104 143 157 262 157 107 0 141 -21 317 -195 81 -81 158 -152 170 -158 18 -9 29 -9 50 3 34 18 346 332 363 364 16 32 7 44 -165 219 -171 174 -190 205 -190 313 0 97 35 174 102 225 75 57 119 65 358 65 174 0 214 3 233 16 22 15 22 17 22 284 0 267 0 269 -22 284 -19 13 -59 16 -240 16 -195 0 -223 2 -272 21 -154 57 -229 243 -158 389 13 27 78 103 167 193 172 175 181 187 165 219 -17 32 -329 346 -363 364 -21 12 -32 12 -50 3 -12 -6 -89 -77 -170 -158 -177 -175 -211 -196 -317 -196 -87 1 -145 24 -205 82 -73 71 -79 98 -85 364 -4 179 -8 240 -19 253 -12 14 -45 16 -281 16 -236 0 -269 -2 -281 -17z m484 -1202 c209 -74 361 -229 433 -441 27 -79 27 -302 0 -380 -81 -237 -262 -404 -492 -456 -98 -21 -263 -15 -344 14 -115 41 -183 83 -266 166 -84 83 -129 158 -170 276 -27 78 -27 301 0 380 73 216 234 377 441 443 76 24 91 26 220 22 89 -2 135 -8 178 -24z"/>
 <path d="M2436 3065 c-183 -47 -337 -203 -381 -386 -79 -335 194 -659 535 -636 298 21 522 293 480 585 -27 194 -150 346 -336 417 -86 34 -211 42 -298 20z"/>
 </g>
<g id="layer103" fill="#d8712d" stroke="none">
 <path d="M2287 4392 c-15 -16 -17 -48 -17 -234 0 -257 -8 -292 -82 -373 -62 -68 -129 -98 -218 -99 -106 0 -141 22 -325 204 -118 116 -168 160 -186 160 -34 0 -389 -355 -389 -389 0 -18 44 -68 160 -186 181 -184 203 -218 203 -325 1 -113 -60 -211 -168 -268 -50 -27 -52 -27 -285 -30 -224 -3 -236 -4 -252 -23 -16 -19 -18 -48 -18 -268 0 -207 2 -250 16 -269 15 -22 19 -22 233 -22 262 0 294 -7 374 -80 70 -64 101 -131 100 -220 0 -107 -22 -141 -203 -325 -116 -118 -160 -168 -160 -186 0 -34 355 -389 389 -389 18 0 68 44 185 159 89 87 172 164 186 171 120 63 269 35 363 -69 66 -73 70 -90 75 -354 4 -227 5 -238 25 -252 18 -12 67 -15 273 -15 226 0 252 2 267 18 13 14 16 55 19 252 3 224 4 237 27 280 57 110 136 161 258 168 117 6 145 -10 324 -185 l146 -143 141 144 c212 217 212 216 -19 451 -94 95 -165 176 -174 198 -58 139 50 297 203 297 17 0 34 5 37 10 4 6 30 22 58 37 49 25 62 26 230 31 l177 5 0 288 0 289 -160 0 c-170 0 -218 9 -289 55 -20 13 -58 26 -86 30 -118 16 -196 126 -180 253 l7 55 168 172 c241 247 241 244 27 462 l-141 144 -145 -144 c-80 -80 -162 -153 -181 -163 -55 -28 -185 -31 -243 -6 -61 27 -130 93 -158 150 -21 44 -23 63 -27 285 -4 228 -5 238 -25 252 -18 12 -67 15 -273 15 -230 0 -252 -1 -267 -18z m479 -1196 c199 -64 364 -229 431 -430 24 -71 27 -97 27 -206 0 -109 -3 -135 -27 -206 -59 -178 -179 -312 -355 -398 -103 -51 -153 -61 -287 -60 -103 0 -132 4 -201 27 -263 87 -446 326 -461 604 -16 267 149 537 393 644 148 66 327 75 480 25z"/>
 </g>
<g id="layer104" fill="#f28b47" stroke="none">
 <path d="M2292 4394 c-21 -14 -22 -22 -22 -158 0 -133 1 -144 21 -162 12 -10 65 -68 118 -129 52 -60 138 -157 191 -215 52 -58 142 -159 200 -225 163 -184 315 -355 475 -535 80 -91 188 -212 238 -270 51 -57 135 -152 187 -210 53 -58 119 -132 147 -164 l51 -59 173 2 c119 2 176 6 181 14 4 7 8 50 7 97 l0 85 -99 110 c-54 61 -132 149 -172 196 -49 57 -85 90 -108 99 -19 7 -51 24 -70 36 -21 15 -49 24 -73 24 -68 0 -144 53 -182 129 -13 26 -16 51 -13 100 3 36 8 73 11 81 4 10 -14 37 -53 80 -33 36 -117 131 -187 211 l-128 146 -51 6 c-77 8 -147 43 -198 97 -58 61 -77 107 -85 201 l-6 76 -155 176 -155 176 -110 1 c-84 0 -116 -4 -133 -16z"/>
 <path d="M1253 3867 c-135 -134 -183 -189 -183 -206 0 -18 44 -68 160 -186 181 -184 203 -218 203 -325 1 -70 -25 -145 -65 -187 -12 -13 -19 -25 -16 -28 3 -3 28 -1 56 5 62 14 135 74 152 125 6 19 15 35 19 35 4 0 41 -39 83 -87 241 -280 258 -296 258 -254 0 25 72 163 109 210 18 23 29 41 24 41 -5 0 -49 46 -97 103 -49 56 -126 143 -171 192 -45 50 -131 146 -191 214 -60 68 -146 165 -190 215 l-82 91 97 98 c91 93 95 99 77 113 -11 7 -29 14 -40 14 -13 0 -86 -66 -203 -183z"/>
 <path d="M726 2828 c-13 -19 -16 -62 -16 -268 0 -296 -2 -290 95 -290 l65 0 -10 26 c-12 29 -14 394 -2 393 6 0 362 -398 380 -425 4 -5 23 -20 42 -31 97 -60 154 -157 153 -263 0 -107 -22 -141 -203 -325 -116 -118 -160 -168 -160 -186 0 -31 355 -389 386 -389 11 0 29 6 40 14 18 14 11 23 -128 163 -212 214 -212 215 13 438 83 83 157 163 165 178 8 16 19 27 23 25 6 -2 258 -284 367 -409 21 -25 43 -38 70 -43 149 -28 264 -158 264 -298 0 -33 7 -47 46 -88 57 -60 89 -96 206 -232 l93 -107 95 0 c99 -1 140 12 140 45 0 14 -86 114 -425 494 -56 63 -182 205 -280 315 -97 110 -207 234 -244 275 -37 41 -121 136 -186 210 -65 74 -121 137 -124 140 -4 3 -38 41 -76 85 -38 44 -110 125 -160 180 -50 55 -149 166 -219 248 l-129 147 -133 0 c-126 0 -134 -1 -148 -22z"/>
 <path d="M2852 1960 c-39 -21 -99 -44 -132 -51 -33 -7 -60 -16 -60 -19 0 -5 62 -76 215 -245 39 -44 98 -109 130 -145 l57 -65 77 -1 c117 -1 150 -20 318 -187 l143 -141 37 36 36 36 -91 104 c-51 56 -164 184 -252 283 -89 99 -211 237 -272 308 -61 70 -116 126 -122 126 -6 -1 -44 -18 -84 -39z"/>
 </g>
<g id="layer105" fill="#ffa561" stroke="none">
 <path d="M1253 3867 c-135 -134 -183 -189 -183 -206 0 -18 44 -68 160 -186 181 -184 203 -218 203 -325 1 -70 -25 -145 -65 -187 -12 -13 -19 -25 -16 -28 3 -3 28 -1 56 5 92 20 172 117 172 208 0 73 -21 104 -191 277 -234 240 -234 232 -20 448 138 140 145 149 127 163 -11 8 -29 14 -40 14 -13 0 -86 -66 -203 -183z"/>
 <path d="M726 2828 c-13 -19 -16 -62 -16 -268 0 -292 -1 -290 88 -290 l57 0 -3 254 c-2 149 1 269 6 290 l10 36 -63 0 c-55 0 -66 -3 -79 -22z"/>
 <path d="M1362 2164 c45 -48 72 -121 71 -194 0 -107 -22 -141 -203 -325 -116 -118 -160 -168 -160 -186 0 -31 355 -389 386 -389 11 0 29 6 40 14 18 14 11 23 -128 163 -212 214 -212 215 13 438 191 190 218 240 188 348 -11 42 -68 111 -108 132 -15 7 -49 16 -76 20 l-50 7 27 -28z"/>
 </g>

</svg>