<!DOCTYPE svg PUBLIC "-//W3C//DTD SVG 20010904//EN" "http://www.w3.org/TR/2001/REC-SVG-20010904/DTD/svg10.dtd">
<svg version="1.0" xmlns="http://www.w3.org/2000/svg" width="512px" height="512px" viewBox="0 0 5120 5120" preserveAspectRatio="xMidYMid meet">
<g id="layer101" fill="#000000" stroke="none" opacity="0.25">
 <path d="M1110 4368 c-49 -14 -86 -52 -99 -103 -16 -62 -16 -3348 0 -3410 13 -52 50 -89 104 -104 56 -15 2834 -15 2890 0 54 15 91 52 104 104 16 62 16 3348 0 3410 -13 52 -50 89 -104 104 -53 14 -2844 14 -2895 -1z"/>
 </g>
<g id="layer102" fill="#8b8b8b" stroke="none" opacity="0.25">
 <path d="M1643 4232 l-493 -2 0 -1670 0 -1670 520 0 c286 0 880 0 1320 0 440 0 841 0 890 0 l90 0 0 1670 0 1670 -917 2 c-505 2 -1140 2 -1410 0z"/>
 </g>
<g id="layer103" fill="#ffffff" stroke="none" opacity="0.25">
 <path d="M3045 3310 c506 -506 921 -920 922 -920 2 0 3 414 3 920 l0 920 -922 0 -923 0 920 -920z"/>
 <path d="M1150 3085 l0 -440 878 -878 877 -877 438 2 437 3 -1315 1315 -1315 1315 0 -440z"/>
 <path d="M1150 1410 l0 -520 522 0 523 0 -520 520 c-286 286 -521 520 -522 520 -2 0 -3 -234 -3 -520z"/>
 </g>

</svg>