<!DOCTYPE svg PUBLIC "-//W3C//DTD SVG 20010904//EN" "http://www.w3.org/TR/2001/REC-SVG-20010904/DTD/svg10.dtd">
<svg version="1.0" xmlns="http://www.w3.org/2000/svg" width="512px" height="512px" viewBox="0 0 5120 5120" preserveAspectRatio="xMidYMid meet">
<g id="layer101" fill="#000000" stroke="none">
 <path d="M945 3816 c-111 -35 -214 -115 -268 -207 -15 -25 -36 -81 -47 -124 -19 -73 -20 -113 -21 -649 -1 -477 -3 -563 -13 -526 -34 123 -140 188 -262 161 -66 -15 -137 -78 -153 -137 -14 -52 -15 -845 -1 -896 6 -20 30 -57 53 -83 35 -38 51 -47 98 -57 90 -18 157 1 209 59 43 50 58 88 67 176 4 36 10 57 18 57 7 0 25 -25 40 -56 39 -81 122 -159 214 -203 l76 -36 1605 0 1605 0 75 36 c133 63 213 161 250 304 19 73 20 113 21 649 1 477 3 563 13 526 34 -123 140 -188 262 -161 66 15 137 78 153 137 14 52 15 845 1 896 -6 20 -30 57 -53 83 -35 38 -51 47 -98 57 -90 18 -157 -1 -209 -59 -43 -50 -58 -88 -67 -175 -4 -37 -10 -58 -18 -58 -7 0 -25 25 -40 56 -39 81 -122 159 -214 203 l-76 36 -1590 2 c-1266 1 -1598 -1 -1630 -11z"/>
 </g>
<g id="layer102" fill="#bf5814" stroke="none">
 <path d="M974 3671 c-87 -29 -148 -84 -186 -166 l-23 -50 -5 -710 -5 -710 -142 -3 -143 -3 0 -127 c0 -70 -3 -137 -6 -150 -4 -13 -3 -22 2 -21 5 1 73 1 150 0 l142 -1 7 -37 c16 -89 69 -169 141 -214 28 -17 116 -49 137 -49 4 0 7 509 7 1130 0 898 -3 1130 -12 1129 -7 0 -36 -8 -64 -18z"/>
 <path d="M1120 2560 l0 -1130 1440 0 1440 0 0 1130 0 1130 -1440 0 -1440 0 0 -1130z m2640 932 c39 -28 60 -80 60 -145 0 -74 -20 -121 -62 -147 -33 -20 -47 -20 -1115 -20 l-1081 0 -34 -34 c-45 -45 -94 -55 -144 -30 -58 29 -78 64 -82 142 -5 84 14 134 60 162 33 20 47 20 1117 20 l1083 0 21 26 c42 54 122 66 177 26z m-10 -367 c66 -34 93 -171 51 -253 -39 -77 40 -72 -1171 -72 -1067 0 -1079 0 -1090 -20 -15 -27 -62 -50 -105 -50 -85 0 -135 63 -135 172 0 73 21 117 72 148 32 20 53 20 1115 20 1069 0 1082 0 1093 20 25 46 113 64 170 35z m10 -383 c39 -29 60 -80 60 -147 0 -72 -22 -122 -67 -148 -30 -17 -83 -18 -1111 -17 l-1080 0 -34 -34 c-45 -45 -94 -55 -144 -30 -59 30 -78 64 -82 147 -4 85 15 131 65 160 30 17 83 18 1113 17 l1082 0 21 26 c42 54 122 66 177 26z m-10 -367 c44 -23 70 -82 70 -157 0 -73 -21 -117 -72 -148 -32 -20 -53 -20 -1115 -20 -1070 0 -1082 0 -1093 -20 -15 -27 -62 -50 -105 -50 -84 0 -135 64 -135 169 0 78 23 127 72 152 36 18 75 19 1117 19 1067 0 1080 0 1091 20 25 46 113 64 170 35z m10 -383 c39 -28 60 -80 60 -145 0 -74 -20 -121 -62 -147 -33 -20 -47 -20 -1115 -20 l-1081 0 -34 -34 c-45 -45 -94 -55 -144 -30 -58 29 -78 64 -82 142 -5 84 14 134 60 162 33 20 47 20 1117 20 l1083 0 21 26 c42 54 122 66 177 26z"/>
 <path d="M3662 3439 c-13 -5 -28 -22 -33 -39 l-11 -30 -1101 0 c-606 0 -1107 -4 -1113 -8 -33 -22 -45 -105 -21 -151 25 -49 90 -44 108 9 l11 30 1103 0 1104 0 20 26 c14 17 21 41 21 68 0 73 -38 114 -88 95z"/>
 <path d="M3641 3044 c-12 -15 -21 -31 -21 -35 0 -5 -488 -9 -1100 -9 l-1101 0 -24 -25 c-20 -19 -25 -34 -25 -73 0 -96 71 -136 115 -65 l20 32 1098 1 1098 0 24 25 c51 50 22 175 -40 175 -14 0 -32 -11 -44 -26z"/>
 <path d="M3662 2689 c-13 -5 -28 -22 -33 -39 l-11 -30 -1101 0 c-606 0 -1107 -4 -1113 -8 -33 -22 -45 -105 -21 -151 25 -49 90 -44 108 9 l11 30 1101 0 c606 0 1107 4 1113 8 20 13 34 50 34 89 0 71 -38 110 -88 92z"/>
 <path d="M3641 2294 c-12 -15 -21 -31 -21 -35 0 -5 -488 -9 -1100 -9 l-1101 0 -24 -25 c-20 -19 -25 -34 -25 -73 0 -96 71 -136 115 -65 l20 32 1098 1 1098 0 24 25 c51 50 22 175 -40 175 -14 0 -32 -11 -44 -26z"/>
 <path d="M3662 1939 c-13 -5 -28 -22 -33 -39 l-11 -30 -1103 0 -1104 0 -20 -26 c-24 -30 -28 -95 -8 -133 25 -49 90 -44 108 9 l11 30 1101 0 c606 0 1107 4 1113 8 20 13 34 50 34 89 0 71 -38 110 -88 92z"/>
 <path d="M4070 2560 c0 -621 3 -1130 8 -1130 20 0 108 32 136 49 49 31 93 81 118 136 l23 50 5 710 5 710 143 3 142 3 0 127 c0 70 3 137 6 150 4 13 3 22 -2 21 -5 -1 -73 -1 -150 0 l-142 1 -7 38 c-16 88 -69 168 -141 213 -28 17 -116 49 -136 49 -5 0 -8 -508 -8 -1130z"/>
 <path d="M4683 3664 c-20 -23 -23 -37 -23 -117 0 -86 2 -93 22 -102 40 -18 45 -48 39 -223 -6 -163 -6 -164 -33 -187 -26 -23 -28 -29 -28 -109 0 -101 4 -112 42 -132 25 -13 35 -13 59 -3 17 6 34 20 39 30 6 10 10 180 10 417 0 389 -1 400 -21 426 -28 35 -76 35 -106 0z"/>
 <path d="M355 2328 c-45 -24 -45 -22 -45 -444 0 -391 1 -402 21 -428 27 -35 73 -35 105 0 22 23 24 34 24 117 0 86 -2 93 -22 102 -40 18 -45 48 -39 223 6 163 6 164 34 187 25 23 27 29 27 109 0 100 -4 112 -41 131 -33 18 -38 18 -64 3z"/>
 </g>
<g id="layer103" fill="#b9c0c2" stroke="none">
 <path d="M974 3671 c-87 -29 -148 -84 -186 -166 l-23 -50 -5 -710 -5 -710 -142 -3 -143 -3 0 -127 c0 -70 -3 -137 -6 -150 -4 -13 -3 -22 2 -21 5 1 73 1 150 0 l142 -1 7 -37 c16 -89 69 -169 141 -214 28 -17 116 -49 137 -49 4 0 7 509 7 1130 0 898 -3 1130 -12 1129 -7 0 -36 -8 -64 -18z"/>
 <path d="M1120 2560 l0 -1130 1440 0 1440 0 0 1130 0 1130 -1440 0 -1440 0 0 -1130z m2640 932 c39 -28 60 -80 60 -145 0 -74 -20 -121 -62 -147 -33 -20 -47 -20 -1115 -20 l-1081 0 -34 -34 c-45 -45 -94 -55 -144 -30 -58 29 -78 64 -82 142 -5 84 14 134 60 162 33 20 47 20 1117 20 l1083 0 21 26 c42 54 122 66 177 26z m-10 -367 c66 -34 93 -171 51 -253 -39 -77 40 -72 -1171 -72 -1067 0 -1079 0 -1090 -20 -15 -27 -62 -50 -105 -50 -85 0 -135 63 -135 172 0 73 21 117 72 148 32 20 53 20 1115 20 1069 0 1082 0 1093 20 25 46 113 64 170 35z m10 -383 c39 -29 60 -80 60 -147 0 -72 -22 -122 -67 -148 -30 -17 -83 -18 -1111 -17 l-1080 0 -34 -34 c-45 -45 -94 -55 -144 -30 -59 30 -78 64 -82 147 -4 85 15 131 65 160 30 17 83 18 1113 17 l1082 0 21 26 c42 54 122 66 177 26z m-10 -367 c44 -23 70 -82 70 -157 0 -73 -21 -117 -72 -148 -32 -20 -53 -20 -1115 -20 -1070 0 -1082 0 -1093 -20 -15 -27 -62 -50 -105 -50 -84 0 -135 64 -135 169 0 78 23 127 72 152 36 18 75 19 1117 19 1067 0 1080 0 1091 20 25 46 113 64 170 35z m10 -383 c39 -28 60 -80 60 -145 0 -74 -20 -121 -62 -147 -33 -20 -47 -20 -1115 -20 l-1081 0 -34 -34 c-45 -45 -94 -55 -144 -30 -58 29 -78 64 -82 142 -5 84 14 134 60 162 33 20 47 20 1117 20 l1083 0 21 26 c42 54 122 66 177 26z"/>
 <path d="M4070 2560 c0 -621 3 -1130 8 -1130 20 0 108 32 136 49 49 31 93 81 118 136 l23 50 5 710 5 710 143 3 142 3 0 127 c0 70 3 137 6 150 4 13 3 22 -2 21 -5 -1 -73 -1 -150 0 l-142 1 -7 38 c-16 88 -69 168 -141 213 -28 17 -116 49 -136 49 -5 0 -8 -508 -8 -1130z"/>
 <path d="M4683 3664 c-20 -23 -23 -37 -23 -117 0 -86 2 -93 22 -102 40 -18 45 -48 39 -223 -6 -163 -6 -164 -33 -187 -26 -23 -28 -29 -28 -109 0 -101 4 -112 42 -132 25 -13 35 -13 59 -3 17 6 34 20 39 30 6 10 10 180 10 417 0 389 -1 400 -21 426 -28 35 -76 35 -106 0z"/>
 <path d="M355 2328 c-45 -24 -45 -22 -45 -444 0 -391 1 -402 21 -428 27 -35 73 -35 105 0 22 23 24 34 24 117 0 86 -2 93 -22 102 -40 18 -45 48 -39 223 6 163 6 164 34 187 25 23 27 29 27 109 0 100 -4 112 -41 131 -33 18 -38 18 -64 3z"/>
 </g>
<g id="layer104" fill="#d2d9db" stroke="none">
 <path d="M1120 2560 l0 -1130 1440 0 1440 0 0 1130 0 1130 -1440 0 -1440 0 0 -1130z m2663 921 c30 -30 32 -36 36 -118 4 -97 -8 -132 -57 -168 -27 -20 -45 -20 -1112 -23 l-1084 -2 -34 -33 c-30 -29 -38 -32 -97 -32 -60 0 -67 3 -97 33 -32 31 -33 36 -36 121 -4 99 9 138 55 168 25 17 96 18 1112 21 l1085 2 31 29 c40 38 50 41 113 37 44 -2 59 -8 85 -35z m1 -381 c36 -40 36 -41 36 -131 l0 -91 -39 -39 -39 -39 -1088 0 -1088 0 -37 -36 c-35 -34 -43 -37 -95 -37 -54 0 -59 2 -96 41 l-38 41 0 92 0 91 39 39 39 39 1089 0 1089 0 34 35 c32 33 38 35 96 35 59 0 63 -2 98 -40z m-1 -369 c30 -30 32 -36 35 -120 3 -67 0 -96 -12 -120 -35 -67 49 -63 -1150 -61 l-1085 1 -35 -38 c-33 -37 -37 -38 -100 -38 -61 0 -68 2 -98 33 -32 31 -33 36 -36 121 -3 67 0 96 12 120 35 67 -49 63 1151 61 l1086 -1 26 32 c35 41 57 49 121 46 44 -3 59 -9 85 -36z m0 -381 l37 -39 0 -92 0 -91 -39 -39 -39 -39 -1089 0 -1089 0 -34 -35 c-32 -33 -38 -35 -96 -35 -59 0 -63 2 -98 40 -36 40 -36 41 -36 131 l0 91 39 39 39 39 1089 0 1089 0 33 34 c57 59 134 57 194 -4z m0 -369 c30 -30 32 -36 35 -120 4 -99 -9 -138 -55 -168 -25 -17 -96 -18 -1112 -21 l-1085 -2 -34 -33 c-30 -29 -39 -32 -97 -32 -60 0 -67 3 -97 33 -31 31 -33 37 -37 119 -4 97 8 132 57 168 27 20 45 20 1112 23 l1084 2 31 29 c40 38 50 41 113 37 44 -2 59 -8 85 -35z"/>
 <path d="M4707 3673 c-37 -19 -47 -49 -47 -138 0 -67 2 -76 23 -86 43 -23 45 -35 40 -209 -5 -170 -12 -205 -46 -216 -17 -5 -19 -14 -15 -101 3 -85 5 -97 27 -114 30 -24 62 -24 92 0 l24 19 3 390 c2 240 -1 399 -7 415 -6 14 -23 33 -38 41 -25 12 -32 12 -56 -1z"/>
 <path d="M339 2311 l-24 -19 -3 -379 c-2 -208 0 -393 3 -411 4 -22 16 -39 37 -52 29 -17 34 -17 60 -4 38 20 48 49 48 139 0 67 -2 76 -22 86 -44 23 -46 35 -41 209 5 170 12 205 46 216 17 5 19 14 15 101 -3 85 -5 97 -27 114 -30 24 -62 24 -92 0z"/>
 </g>

</svg>