<!DOCTYPE svg PUBLIC "-//W3C//DTD SVG 20010904//EN" "http://www.w3.org/TR/2001/REC-SVG-20010904/DTD/svg10.dtd">
<svg version="1.0" xmlns="http://www.w3.org/2000/svg" width="512px" height="512px" viewBox="0 0 5120 5120" preserveAspectRatio="xMidYMid meet">
<g id="layer101" fill="#000000" stroke="none">
 <path d="M1495 3882 c-52 -22 -94 -47 -122 -71 -13 -10 -201 -241 -418 -512 -356 -445 -395 -497 -395 -530 0 -24 7 -42 21 -55 25 -23 65 -22 414 8 132 11 332 26 445 33 113 6 783 55 1490 108 707 53 1341 99 1410 102 210 9 220 15 220 112 0 67 -23 340 -40 481 -6 45 -19 102 -30 127 -30 70 -104 143 -185 181 l-69 34 -1351 -1 c-1249 0 -1353 -1 -1390 -17z"/>
 </g>
<g id="layer102" fill="#858897" stroke="none">
 <path d="M1513 3729 c-34 -17 -84 -73 -248 -277 -113 -142 -205 -259 -205 -262 0 -3 36 -4 81 -1 94 4 119 -10 119 -65 0 -56 -31 -71 -168 -79 -64 -3 -128 -8 -142 -11 -16 -4 -48 -35 -93 -91 -37 -47 -66 -87 -65 -88 2 -1 53 2 113 6 61 5 205 15 320 23 116 9 334 25 485 36 323 23 1126 82 1525 110 154 12 363 27 465 35 102 8 299 22 438 32 139 9 258 20 263 24 7 4 8 33 4 83 l-7 76 -39 0 c-22 0 -126 -7 -232 -15 -191 -14 -354 -26 -897 -65 -157 -11 -366 -27 -464 -34 -189 -15 -220 -11 -232 26 -3 10 -9 16 -14 13 -5 -3 -5 8 1 24 21 59 27 61 301 82 518 39 1504 109 1532 109 l29 0 -7 88 c-8 107 -34 164 -95 207 l-43 30 -1341 3 -1342 2 -42 -21z m147 -139 c29 -29 26 -74 -7 -100 -64 -50 -143 29 -93 93 26 33 71 36 100 7z m351 -1 c28 -28 22 -76 -13 -102 -23 -17 -31 -18 -56 -8 -33 14 -55 52 -45 78 19 54 76 70 114 32z m347 5 c33 -23 27 -79 -10 -107 -64 -48 -135 45 -81 106 20 21 61 22 91 1z"/>
 <path d="M3818 2933 c12 -2 32 -2 45 0 12 2 2 4 -23 4 -25 0 -35 -2 -22 -4z"/>
 <path d="M3678 2923 c12 -2 32 -2 45 0 12 2 2 4 -23 4 -25 0 -35 -2 -22 -4z"/>
 <path d="M3548 2913 c12 -2 32 -2 45 0 12 2 2 4 -23 4 -25 0 -35 -2 -22 -4z"/>
 <path d="M3403 2903 c15 -2 37 -2 50 0 12 2 0 4 -28 4 -27 0 -38 -2 -22 -4z"/>
 <path d="M3273 2893 c15 -2 37 -2 50 0 12 2 0 4 -28 4 -27 0 -38 -2 -22 -4z"/>
 <path d="M3138 2883 c12 -2 32 -2 45 0 12 2 2 4 -23 4 -25 0 -35 -2 -22 -4z"/>
 <path d="M2993 2873 c15 -2 39 -2 55 0 15 2 2 4 -28 4 -30 0 -43 -2 -27 -4z"/>
 <path d="M2853 2863 c15 -2 39 -2 55 0 15 2 2 4 -28 4 -30 0 -43 -2 -27 -4z"/>
 <path d="M2723 2853 c15 -2 39 -2 55 0 15 2 2 4 -28 4 -30 0 -43 -2 -27 -4z"/>
 <path d="M2593 2843 c15 -2 37 -2 50 0 12 2 0 4 -28 4 -27 0 -38 -2 -22 -4z"/>
 <path d="M2448 2833 c18 -2 45 -2 60 0 15 2 0 4 -33 4 -33 0 -45 -2 -27 -4z"/>
 <path d="M2313 2823 c15 -2 39 -2 55 0 15 2 2 4 -28 4 -30 0 -43 -2 -27 -4z"/>
 <path d="M2173 2813 c15 -2 39 -2 55 0 15 2 2 4 -28 4 -30 0 -43 -2 -27 -4z"/>
 <path d="M2038 2803 c18 -2 45 -2 60 0 15 2 0 4 -33 4 -33 0 -45 -2 -27 -4z"/>
 <path d="M1898 2793 c18 -2 45 -2 60 0 15 2 0 4 -33 4 -33 0 -45 -2 -27 -4z"/>
 <path d="M1768 2783 c18 -2 45 -2 60 0 15 2 0 4 -33 4 -33 0 -45 -2 -27 -4z"/>
 <path d="M1620 2771 c0 -8 79 -3 89 5 2 2 -17 4 -42 4 -26 0 -47 -4 -47 -9z"/>
 </g>
<g id="layer103" fill="#9fa2b1" stroke="none">
 <path d="M4105 3264 c-155 -12 -264 -20 -875 -64 -157 -11 -366 -27 -464 -34 -193 -15 -215 -12 -235 30 -6 14 -19 24 -31 24 -12 0 -18 -4 -15 -10 4 -6 -1 -7 -10 -3 -18 6 -381 -15 -405 -24 -8 -4 -19 -5 -25 -4 -24 6 -525 -34 -525 -42 0 -4 -5 -5 -11 -1 -6 3 -62 3 -126 -1 -108 -7 -115 -8 -123 -31 -16 -42 -47 -52 -192 -61 -76 -5 -139 -11 -141 -14 -101 -126 -137 -172 -135 -174 2 -1 53 2 113 6 61 5 205 15 320 23 116 9 334 25 485 36 323 23 1126 82 1525 110 154 12 363 27 465 35 102 8 299 22 438 32 139 9 258 20 263 24 7 4 8 33 4 83 l-7 76 -67 -1 c-36 -1 -138 -8 -226 -15z"/>
 </g>

</svg>