<!DOCTYPE svg PUBLIC "-//W3C//DTD SVG 20010904//EN" "http://www.w3.org/TR/2001/REC-SVG-20010904/DTD/svg10.dtd">
<svg version="1.0" xmlns="http://www.w3.org/2000/svg" width="512px" height="512px" viewBox="0 0 5120 5120" preserveAspectRatio="xMidYMid meet">
<g id="layer101" fill="#000000" stroke="none">
 <path d="M1642 4540 l-22 -21 0 -833 0 -833 -400 -474 -400 -474 0 -153 c0 -149 1 -154 25 -177 l24 -25 375 0 374 0 4 -262 c4 -242 6 -268 27 -325 66 -183 228 -334 413 -387 83 -24 907 -24 989 0 202 59 368 227 424 429 11 40 18 119 22 238 l6 177 372 0 372 0 27 26 26 27 0 683 0 683 -24 28 -24 28 -232 0 c-232 0 -232 0 -251 -24 -18 -22 -19 -45 -19 -467 l0 -444 -125 0 -125 0 0 1268 c0 1245 0 1268 -20 1300 l-20 32 -898 0 c-890 0 -898 0 -920 -20z"/>
 </g>
<g id="layer102" fill="#858897" stroke="none">
 <path d="M1760 4290 l0 -130 800 0 800 0 0 130 0 130 -800 0 -800 0 0 -130z"/>
 <path d="M1760 2690 l0 -1330 800 0 800 0 0 1330 0 1330 -800 0 -800 0 0 -1330z m709 1104 c21 -27 21 -29 21 -1104 0 -1075 0 -1077 -21 -1104 l-20 -26 -225 0 c-211 0 -225 1 -244 20 -20 20 -20 33 -20 1110 0 1077 0 1090 20 1110 19 19 33 20 244 20 l225 0 20 -26z"/>
 <path d="M2090 2990 l0 -700 135 0 135 0 0 700 0 700 -135 0 -135 0 0 -700z"/>
 <path d="M2092 2094 l3 -66 43 -3 c52 -4 82 -28 82 -66 0 -38 -41 -69 -91 -69 l-39 0 0 -100 0 -100 135 0 135 0 0 235 0 235 -135 0 -136 0 3 -66z"/>
 <path d="M3888 2310 c-3 -436 -4 -450 -23 -464 -16 -12 -55 -15 -197 -16 l-178 0 0 -135 0 -135 330 0 330 0 0 600 0 600 -130 0 -129 0 -3 -450z"/>
 <path d="M1547 2553 c-35 -43 -133 -159 -217 -258 -83 -99 -182 -216 -218 -259 -37 -44 -86 -101 -109 -128 l-43 -49 0 -84 0 -85 330 0 330 0 0 470 c0 259 -2 470 -4 470 -2 0 -33 -35 -69 -77z"/>
 <path d="M1763 1132 c4 -89 9 -107 43 -177 64 -129 182 -221 321 -250 93 -20 769 -21 858 -1 187 40 341 205 365 389 5 40 10 87 10 105 l0 32 -801 0 -802 0 6 -98z"/>
 </g>
<g id="layer103" fill="#6c6f7e" stroke="none">
 <path d="M1760 4290 l0 -130 800 0 800 0 0 130 0 130 -800 0 -800 0 0 -130z"/>
 <path d="M1760 2690 l0 -1330 800 0 800 0 0 1330 0 1330 -800 0 -800 0 0 -1330z m706 1112 l23 -17 1 -1083 c0 -952 -2 -1087 -15 -1112 l-16 -30 -229 0 c-217 0 -231 1 -250 20 -20 20 -20 33 -20 1110 l0 1091 24 22 c23 21 29 22 241 19 186 -3 221 -6 241 -20z"/>
 <path d="M2092 2993 l3 -698 130 -3 130 -3 0 701 0 700 -133 0 -132 0 2 -697z"/>
 <path d="M2092 2093 l3 -68 32 3 c32 3 72 -12 85 -32 4 -6 8 -23 8 -38 0 -37 -42 -68 -91 -68 l-39 0 0 -100 0 -100 135 0 135 0 0 235 0 235 -135 0 -136 0 3 -67z"/>
 <path d="M3890 2750 c0 -6 48 -10 125 -10 l125 0 3 -592 2 -593 3 603 2 602 -130 0 c-80 0 -130 -4 -130 -10z"/>
 <path d="M1589 2600 c-13 -10 -19 -19 -13 -20 5 0 15 5 22 12 9 9 12 -87 12 -435 l0 -447 -325 0 c-210 0 -325 -4 -325 -10 0 -6 117 -10 330 -10 l330 0 0 465 c0 256 -2 465 -4 465 -2 0 -14 -9 -27 -20z"/>
 <path d="M1490 2480 c-19 -16 -30 -30 -24 -30 5 0 23 14 39 30 36 38 30 38 -15 0z"/>
 <path d="M1438 2419 c-16 -11 -28 -26 -28 -32 0 -7 -14 -25 -32 -40 -18 -16 -24 -24 -13 -19 17 8 113 113 103 112 -2 0 -15 -10 -30 -21z"/>
 <path d="M1325 2285 c-16 -13 -25 -24 -19 -25 6 0 21 11 34 25 30 32 24 32 -15 0z"/>
 <path d="M1270 2219 c-19 -17 -26 -26 -15 -21 18 9 64 52 54 52 -2 0 -20 -14 -39 -31z"/>
 <path d="M1215 2155 c-16 -13 -25 -24 -19 -25 6 0 21 11 34 25 30 32 24 32 -15 0z"/>
 <path d="M1110 2030 c-19 -16 -31 -30 -26 -30 6 0 -3 -13 -19 -30 -16 -16 -26 -30 -23 -30 3 0 29 27 58 60 29 33 50 60 48 60 -1 0 -19 -14 -38 -30z"/>
 <path d="M1000 1900 c-19 -16 -30 -30 -24 -30 5 0 23 14 39 30 36 38 30 38 -15 0z"/>
 <path d="M3490 1820 c0 -6 65 -10 175 -10 110 0 175 4 175 10 0 6 -65 10 -175 10 -110 0 -175 -4 -175 -10z"/>
 <path d="M1761 1193 c2 -31 3 -33 6 -10 l4 27 789 0 789 0 4 -37 c3 -35 4 -34 5 10 l2 47 -800 0 -800 0 1 -37z"/>
 <path d="M1764 1099 c-3 -6 -1 -16 5 -22 8 -8 11 -5 11 11 0 24 -5 28 -16 11z"/>
 <path d="M1795 987 c8 -13 12 -27 8 -30 -3 -4 -1 -7 5 -7 15 0 15 3 0 35 -6 14 -15 25 -20 25 -5 0 -2 -10 7 -23z"/>
 <path d="M1831 920 c8 -14 13 -28 14 -31 0 -4 25 -28 55 -54 l55 -48 -51 51 c-28 28 -50 52 -48 54 1 2 -6 14 -17 28 l-20 25 12 -25z"/>
 <path d="M3168 801 c-7 -10 -17 -19 -23 -19 -5 0 -10 -5 -11 -11 -2 -7 -1 -8 3 -1 2 5 8 8 13 5 4 -3 15 6 24 20 19 29 14 34 -6 6z"/>
 <path d="M3030 730 c-8 -5 -11 -13 -6 -17 5 -4 11 -2 13 5 3 6 9 10 14 6 5 -3 9 0 9 5 0 13 -10 14 -30 1z"/>
 <path d="M2185 700 c-4 -7 124 -10 377 -10 251 0 378 4 368 10 -21 13 -737 13 -745 0z"/>
 </g>
<g id="layer104" fill="#bbbbbb" stroke="none">
 <path d="M1760 2690 l0 -1330 800 0 800 0 0 1330 0 1330 -800 0 -800 0 0 -1330z m708 1114 l22 -14 0 -1086 c0 -953 -2 -1089 -15 -1114 l-16 -30 -229 0 c-217 0 -231 1 -250 20 -20 20 -20 33 -20 1114 l0 1095 23 18 c21 16 43 18 243 15 172 -2 224 -6 242 -18z"/>
 <path d="M2092 2993 l3 -698 130 -3 130 -3 0 701 0 700 -133 0 -132 0 2 -697z"/>
 <path d="M2092 2093 l3 -68 32 3 c32 3 72 -12 85 -32 4 -6 8 -23 8 -38 0 -37 -42 -68 -91 -68 l-39 0 0 -100 0 -100 135 0 135 0 0 235 0 235 -135 0 -136 0 3 -67z"/>
 <path d="M3890 2750 c0 -6 48 -10 125 -10 l125 0 3 -592 2 -593 3 603 2 602 -130 0 c-80 0 -130 -4 -130 -10z"/>
 <path d="M1594 2598 c-15 -19 -16 -20 -1 -9 16 13 17 -9 17 -433 l0 -446 -325 0 c-210 0 -325 -4 -325 -10 0 -6 117 -10 330 -10 l330 0 0 465 c0 256 -2 465 -3 465 -2 0 -12 -10 -23 -22z"/>
 <path d="M1494 2478 l-29 -33 33 29 c30 28 37 36 29 36 -2 0 -16 -15 -33 -32z"/>
 <path d="M1439 2413 c-59 -67 -72 -83 -67 -83 3 0 27 25 53 55 47 56 59 78 14 28z"/>
 <path d="M1090 2000 c-29 -33 -50 -60 -47 -60 3 0 28 27 57 60 29 33 50 60 47 60 -3 0 -28 -27 -57 -60z"/>
 <path d="M1004 1898 l-29 -33 33 29 c30 28 37 36 29 36 -2 0 -16 -15 -33 -32z"/>
 <path d="M3572 1813 c48 -2 129 -2 180 0 51 1 12 3 -87 3 -99 0 -141 -2 -93 -3z"/>
 <path d="M1761 1188 c2 -31 2 -31 6 -6 l4 28 792 3 792 2 -797 3 -798 2 1 -32z"/>
 <path d="M1764 1099 c-3 -6 -1 -16 5 -22 8 -8 11 -5 11 11 0 24 -5 28 -16 11z"/>
 <path d="M1791 1005 c0 -5 6 -21 14 -35 8 -14 14 -20 14 -15 0 6 -6 21 -14 35 -8 14 -14 21 -14 15z"/>
 <path d="M1900 838 c24 -27 45 -48 47 -48 8 0 0 9 -44 50 l-48 45 45 -47z"/>
 <path d="M2205 700 c28 -12 686 -12 705 0 10 6 -113 10 -355 9 -216 0 -362 -4 -350 -9z"/>
 </g>
<g id="layer105" fill="#f3f3f3" stroke="none">
 <path d="M2100 2990 l0 -690 125 0 125 0 0 690 0 690 -125 0 -125 0 0 -690z"/>
 <path d="M2094 2146 c-3 -7 -4 -38 -2 -67 3 -53 4 -54 31 -51 61 7 117 -42 102 -89 -8 -26 -56 -49 -100 -49 l-36 0 3 -97 3 -98 130 -3 130 -3 -3 236 -3 235 -125 0 c-96 0 -126 -3 -130 -14z"/>
 </g>

</svg>