<!DOCTYPE svg PUBLIC "-//W3C//DTD SVG 20010904//EN" "http://www.w3.org/TR/2001/REC-SVG-20010904/DTD/svg10.dtd">
<svg version="1.0" xmlns="http://www.w3.org/2000/svg" width="512px" height="512px" viewBox="0 0 5120 5120" preserveAspectRatio="xMidYMid meet">
<g id="layer101" fill="#3d2300" stroke="none">
 <path d="M1397 4722 c-66 -17 -65 -16 -517 -647 -339 -473 -422 -594 -436 -634 -16 -45 -17 -108 -3 -169 12 -49 155 -348 277 -577 227 -429 401 -755 442 -830 15 -27 45 -81 65 -120 21 -38 59 -108 85 -155 26 -47 66 -121 90 -165 23 -44 77 -143 120 -220 42 -77 94 -171 114 -208 20 -37 46 -84 57 -103 11 -20 41 -75 66 -122 25 -48 63 -118 85 -155 21 -38 38 -71 38 -73 0 -14 73 -102 97 -115 77 -45 137 -35 242 40 44 31 187 129 318 218 131 89 283 192 338 230 55 38 170 116 255 174 176 119 87 84 845 341 209 71 427 145 485 164 58 20 126 50 151 67 69 45 84 76 84 172 -1 67 -5 87 -27 125 -14 25 -49 90 -78 145 -51 96 -387 701 -573 1030 -50 88 -104 185 -120 215 -16 30 -38 69 -47 85 -21 35 -258 485 -380 720 -45 88 -95 183 -110 210 -63 116 -104 192 -119 219 -8 17 -33 48 -55 71 -70 69 -50 68 -956 71 -443 1 -817 0 -833 -4z"/>
 </g>
<g id="layer102" fill="#000000" stroke="none">
 <path d="M1397 4722 c-66 -17 -65 -16 -517 -647 -339 -473 -422 -594 -436 -634 -16 -45 -17 -108 -3 -169 12 -49 155 -348 277 -577 227 -429 401 -755 442 -830 15 -27 45 -81 65 -120 21 -38 59 -108 85 -155 26 -47 66 -121 90 -165 23 -44 77 -143 120 -220 42 -77 94 -171 114 -208 20 -37 46 -84 57 -103 11 -20 41 -75 66 -122 25 -48 63 -118 85 -155 21 -38 38 -71 38 -73 0 -14 73 -102 97 -115 77 -45 137 -35 242 40 44 31 187 129 318 218 131 89 283 192 338 230 55 38 170 116 255 174 176 119 87 84 845 341 209 71 427 145 485 164 58 20 126 50 151 67 69 45 84 76 84 172 -1 67 -5 87 -27 125 -14 25 -49 90 -78 145 -51 96 -387 701 -573 1030 -50 88 -104 185 -120 215 -16 30 -38 69 -47 85 -21 35 -258 485 -380 720 -45 88 -95 183 -110 210 -63 116 -104 192 -119 219 -8 17 -33 48 -55 71 -70 69 -50 68 -956 71 -443 1 -817 0 -833 -4z m1093 -141 c311 -5 572 -11 581 -15 14 -6 139 -213 139 -230 0 -18 -22 10 -58 77 -70 126 -59 121 -244 113 -87 -4 -168 -9 -181 -11 -12 -2 -69 -6 -127 -9 -58 -4 -130 -9 -160 -11 -30 -3 -100 -7 -155 -10 -55 -3 -192 -14 -305 -24 -113 -11 -249 -23 -302 -26 -116 -8 -108 0 -168 -175 -26 -77 -57 -146 -80 -180 -60 -85 -150 -233 -150 -244 0 -5 -9 -20 -21 -32 l-21 -22 21 -11 c21 -12 21 -17 21 -356 0 -269 -3 -345 -12 -345 -7 0 -40 5 -73 10 -46 8 -63 7 -73 -3 -9 -10 -15 -70 -19 -226 -3 -116 -9 -208 -13 -204 -8 9 -203 390 -214 418 -6 16 0 17 77 11 63 -5 87 -4 95 6 6 8 12 82 14 183 4 194 1 186 117 366 56 85 71 119 55 119 -10 0 -41 -41 -122 -159 l-77 -113 0 -179 c0 -127 -4 -182 -13 -191 -16 -16 -73 -12 -140 9 -37 11 -56 13 -63 6 -7 -7 35 -102 136 -304 81 -162 155 -302 164 -312 17 -18 21 -17 110 19 50 20 94 34 97 32 2 -3 7 -81 10 -174 l6 -169 49 -102 c27 -56 85 -176 128 -265 43 -90 118 -244 166 -343 152 -313 223 -462 230 -486 6 -17 -15 -3 -73 49 -59 53 -86 72 -100 68 -13 -5 -22 2 -35 26 -9 18 -34 65 -55 103 -21 39 -58 106 -82 150 -23 44 -62 114 -85 155 -23 41 -63 116 -90 165 -26 50 -73 137 -105 195 -31 58 -75 139 -97 180 -349 651 -590 1120 -613 1193 -16 50 -8 87 32 145 111 163 778 1091 801 1114 l29 28 241 -1 c133 0 496 -4 807 -8z m753 -308 c15 -32 15 -35 1 -18 -24 30 -36 55 -26 55 4 0 16 -17 25 -37z m-1594 -125 c6 -18 26 -98 45 -178 19 -80 45 -188 59 -240 31 -121 38 -160 29 -160 -4 0 -12 10 -18 23 -16 34 -160 311 -216 415 -27 51 -48 99 -45 106 5 13 102 64 124 65 6 1 16 -14 22 -31z m1670 -15 c12 -24 20 -43 17 -43 -7 0 -46 70 -46 82 0 15 4 10 29 -39z m-925 -1565 c15 -127 -5 -145 -54 -49 l-30 60 28 20 c41 31 49 26 56 -31z"/>
 </g>
<g id="layer103" fill="#563c17" stroke="none">
 <path d="M2867 4524 c-1 -1 -58 -5 -127 -9 -69 -4 -138 -8 -155 -10 -16 -2 -77 -6 -135 -10 -58 -3 -141 -8 -185 -11 -44 -3 -172 -13 -285 -24 -113 -10 -249 -22 -302 -25 -116 -8 -108 0 -168 -175 -26 -77 -57 -146 -80 -180 -60 -85 -150 -233 -150 -244 0 -5 -9 -20 -21 -32 l-21 -22 21 -11 c21 -12 21 -17 21 -356 0 -269 -3 -345 -12 -345 -7 0 -40 5 -73 10 -46 8 -63 7 -73 -3 -9 -10 -15 -70 -19 -226 -3 -116 -9 -208 -13 -204 -8 9 -203 390 -214 418 -6 16 0 17 77 11 63 -5 87 -4 95 6 6 8 12 82 14 183 4 194 1 186 117 366 56 85 71 119 55 119 -10 0 -41 -41 -122 -159 l-77 -113 0 -179 c0 -127 -4 -182 -13 -191 -16 -16 -73 -12 -140 9 -37 11 -56 13 -63 6 -7 -7 35 -102 136 -304 81 -162 155 -302 164 -312 17 -18 21 -17 110 19 50 20 94 34 97 32 2 -3 7 -81 10 -174 l6 -169 49 -102 c27 -56 85 -176 128 -265 43 -90 118 -244 166 -343 152 -313 223 -462 230 -486 6 -17 -15 -3 -74 50 -54 49 -86 71 -97 67 -13 -5 -9 -18 27 -84 48 -89 85 -156 159 -297 74 -138 117 -205 134 -205 8 0 55 28 106 63 51 34 103 69 116 77 39 26 245 166 339 231 50 34 145 100 212 146 67 45 157 106 199 135 160 110 182 122 279 156 55 19 177 61 270 94 94 32 184 63 200 67 17 5 131 44 255 87 124 42 277 94 340 116 139 47 180 71 180 103 0 21 -71 167 -153 315 -40 73 -76 138 -98 177 -10 18 -35 63 -55 100 -20 37 -40 73 -44 78 -4 6 -22 37 -40 70 -41 74 -27 49 -270 480 -111 198 -282 511 -380 695 -97 184 -188 354 -203 377 -15 24 -27 49 -27 57 0 7 -15 36 -33 62 -19 27 -40 61 -48 76 -44 84 -100 176 -119 196 -20 22 -29 23 -121 21 -55 -2 -100 -4 -102 -5z m-1218 -376 c6 -18 26 -98 45 -178 19 -80 45 -188 59 -240 31 -121 38 -160 29 -160 -4 0 -12 10 -18 23 -16 34 -160 311 -216 415 -27 51 -48 99 -45 106 5 13 102 64 124 65 6 1 16 -14 22 -31z m745 -1580 c15 -127 -5 -145 -54 -49 l-30 60 28 20 c41 31 49 26 56 -31z"/>
 </g>
<g id="layer104" fill="#6f5530" stroke="none">
 <path d="M2863 4518 c-2 -5 14 -8 37 -8 24 0 39 4 35 10 -6 11 -64 9 -72 -2z"/>
 <path d="M2714 4508 c-3 -5 11 -8 31 -8 21 0 34 4 30 10 -7 11 -54 9 -61 -2z"/>
 <path d="M3070 4509 c8 -8 21 -21 29 -29 12 -12 11 -10 0 9 -9 14 -22 27 -30 29 -11 3 -11 2 1 -9z"/>
 <path d="M2564 4498 c-3 -4 12 -8 32 -8 21 0 34 3 30 8 -10 10 -56 10 -62 0z"/>
 <path d="M2430 4490 c-21 -7 -18 -8 18 -9 26 -1 41 3 37 9 -7 11 -19 11 -55 0z"/>
 <path d="M2233 4478 c-2 -5 19 -8 48 -8 29 0 49 3 45 8 -4 4 -26 7 -48 7 -22 0 -42 -3 -45 -7z"/>
 <path d="M2120 4470 c-24 -8 -23 -8 8 -9 20 -1 31 3 27 9 -3 6 -7 10 -8 9 -1 -1 -13 -5 -27 -9z"/>
 <path d="M2020 4460 c-12 -8 -9 -10 13 -10 16 0 26 4 22 10 -8 12 -16 12 -35 0z"/>
 <path d="M2925 4460 c-134 -16 -501 -52 -670 -65 -448 -36 -519 -45 -537 -67 -18 -20 -24 -68 -12 -81 4 -3 19 0 35 8 40 21 37 28 100 -260 20 -91 40 -136 235 -525 117 -234 227 -446 244 -473 21 -31 35 -66 39 -99 6 -50 7 -52 41 -55 19 -2 45 -6 57 -8 18 -4 85 -132 354 -671 313 -628 331 -668 314 -680 -10 -8 -23 -14 -27 -14 -19 0 -91 -56 -111 -86 -12 -17 -89 -89 -172 -160 -746 -642 -722 -621 -707 -636 6 -6 40 12 90 46 45 31 85 56 90 56 5 0 19 11 32 25 13 14 28 25 33 25 5 0 26 14 47 30 21 16 42 30 46 31 5 0 29 16 54 35 85 64 159 114 169 114 6 0 11 5 11 10 0 6 10 15 23 20 12 5 40 23 62 39 22 17 54 38 70 47 17 9 56 36 88 60 31 24 59 44 61 44 10 0 123 79 135 94 7 9 19 16 26 16 7 0 18 7 25 15 16 20 56 37 150 66 41 12 98 33 127 46 28 13 61 23 72 23 11 0 22 4 26 9 3 5 30 15 61 22 30 7 57 16 60 21 3 4 14 8 24 8 11 0 34 6 52 14 18 7 58 22 88 31 30 10 59 22 65 26 5 5 18 9 30 9 11 1 38 9 60 20 22 11 46 19 54 20 15 0 152 44 186 60 11 5 74 27 140 49 180 59 214 84 186 139 -5 9 -22 43 -37 74 -16 32 -45 88 -66 125 -20 38 -50 95 -67 128 -43 82 -82 152 -148 260 -7 11 -24 45 -40 75 -15 30 -38 73 -52 95 -14 22 -36 60 -49 85 -13 25 -31 56 -39 70 -8 14 -26 43 -39 65 -13 22 -33 58 -45 80 -12 22 -34 63 -50 90 -15 28 -35 64 -44 80 -8 17 -28 53 -44 80 -16 28 -39 68 -51 90 -11 22 -32 58 -45 80 -13 22 -33 59 -44 83 -11 24 -32 58 -46 75 -14 18 -29 37 -33 42 -4 6 -6 17 -5 25 2 8 -9 29 -24 46 -16 17 -29 38 -31 45 -2 8 -9 17 -15 21 -7 4 -9 8 -4 8 4 0 -2 9 -14 21 -11 11 -18 27 -15 35 4 10 2 12 -6 8 -8 -5 -9 -2 -5 10 5 11 3 15 -5 10 -8 -5 -9 -2 -5 10 4 10 3 15 -3 11 -5 -3 -16 8 -25 24 -18 36 -19 44 -2 35 7 -4 9 -3 4 2 -5 5 -13 9 -18 9 -8 0 -89 129 -89 142 0 3 -8 17 -19 31 -10 15 -45 79 -78 142 -69 133 -158 281 -176 292 -14 9 -65 8 -152 -2z"/>
 <path d="M1915 4450 c-17 -7 -14 -9 13 -9 20 -1 31 3 27 9 -7 12 -13 12 -40 0z"/>
 <path d="M1800 4440 c-22 -7 -21 -8 13 -9 23 -1 36 3 32 9 -7 11 -10 11 -45 0z"/>
 <path d="M1655 4430 c-17 -7 -14 -9 13 -9 20 -1 31 3 27 9 -7 12 -13 12 -40 0z"/>
 <path d="M3171 4353 c12 -23 26 -40 30 -37 5 2 1 13 -9 23 -9 10 -23 26 -30 37 -7 10 -3 0 9 -23z"/>
 <path d="M1492 4200 c-6 -10 -8 -21 -3 -24 5 -3 11 4 14 16 8 29 4 32 -11 8z"/>
 <path d="M1460 4117 c-29 -42 -32 -52 -8 -24 l23 29 30 -62 c16 -34 33 -64 38 -67 6 -4 -57 132 -67 144 -1 1 -8 -8 -16 -20z"/>
 <path d="M3349 4033 c23 -47 28 -51 28 -28 0 8 -4 15 -9 15 -5 0 -7 3 -5 8 3 4 -5 16 -15 27 -19 19 -19 18 1 -22z"/>
 <path d="M1315 3894 c-9 -14 -15 -27 -13 -30 2 -2 12 10 22 26 21 37 15 40 -9 4z"/>
 <path d="M1566 3898 c3 -13 62 -134 130 -269 l124 -246 0 -201 c0 -110 4 -212 9 -226 8 -20 21 -27 68 -36 90 -18 103 -22 103 -29 0 -6 -38 -22 -220 -94 -58 -23 -104 -46 -102 -52 6 -20 40 -8 302 102 71 30 116 55 118 65 4 18 -135 300 -244 495 -41 73 -83 154 -93 181 -11 26 -29 63 -40 82 -12 19 -41 76 -66 125 -24 50 -51 98 -58 108 -21 25 -40 22 -31 -5z"/>
 <path d="M1208 3718 c-12 -18 -21 -39 -20 -46 2 -8 -1 -11 -7 -8 -5 4 -24 -15 -42 -41 -18 -27 -26 -42 -18 -36 9 7 18 10 21 7 3 -3 9 0 14 7 5 8 3 10 -6 4 -8 -5 -11 -3 -8 6 3 8 10 14 16 14 5 0 14 4 19 9 5 5 2 6 -6 1 -9 -5 -12 -3 -9 6 3 8 10 13 16 12 6 -2 16 6 22 17 6 11 7 20 3 20 -4 0 0 6 9 13 14 11 32 47 23 47 -2 0 -14 -15 -27 -32z"/>
 <path d="M1287 3703 c-11 -11 -8 -611 3 -618 7 -4 10 102 10 309 0 174 -1 316 -3 316 -2 0 -7 -3 -10 -7z"/>
 <path d="M1046 3398 c-9 -32 -13 -237 -5 -250 9 -14 20 118 16 204 -1 38 -3 68 -3 68 -1 0 -5 -10 -8 -22z"/>
 <path d="M810 3117 c0 -2 13 -28 30 -58 16 -30 30 -48 30 -41 0 7 4 10 10 7 6 -3 7 1 3 10 -4 12 -8 13 -13 5 -4 -7 -15 6 -26 34 -11 25 -22 46 -26 46 -5 0 -8 -2 -8 -3z"/>
 <path d="M913 3090 c19 -12 94 -17 104 -6 4 3 -7 6 -24 6 -17 0 -46 3 -64 6 -28 4 -31 3 -16 -6z"/>
 <path d="M1214 3069 c-3 -5 6 -9 20 -9 31 0 34 6 6 13 -11 3 -23 1 -26 -4z"/>
 <path d="M1105 2934 c-5 -44 -4 -69 4 -77 8 -8 11 9 11 66 0 42 -2 77 -4 77 -3 0 -8 -30 -11 -66z"/>
 <path d="M965 2810 c19 -38 38 -70 40 -70 3 0 -11 32 -30 70 -19 39 -38 70 -40 70 -3 0 11 -31 30 -70z"/>
 <path d="M1010 2727 c0 -11 39 -87 46 -87 2 0 0 9 -6 21 -7 11 -9 23 -7 26 3 3 12 -8 21 -24 8 -15 15 -23 16 -18 0 6 -9 24 -20 40 -11 17 -20 24 -20 15 -1 -9 -6 -5 -15 10 -8 14 -14 21 -15 17z"/>
 <path d="M1060 2626 c0 -11 40 -86 45 -86 3 0 -4 19 -16 43 -23 45 -29 54 -29 43z"/>
 <path d="M2396 2592 c-3 -4 -1 -39 3 -78 l8 -69 2 78 c1 73 -2 87 -13 69z"/>
 <path d="M2210 2573 c-236 -81 -841 -315 -863 -333 -5 -4 4 -34 18 -66 28 -62 182 -378 197 -404 4 -8 11 -22 14 -30 5 -15 150 -311 166 -340 4 -8 11 -22 14 -30 3 -8 36 -77 74 -152 39 -76 70 -145 70 -153 0 -8 9 -24 20 -35 11 -11 17 -20 14 -20 -4 0 -1 -7 6 -15 7 -9 23 -37 36 -63 12 -26 27 -53 32 -60 7 -10 71 22 278 139 148 84 278 157 289 163 118 65 317 182 341 201 l29 23 -47 94 c-49 97 -133 255 -173 323 -35 62 -59 104 -105 190 -37 68 -207 378 -242 440 -7 11 -18 34 -27 50 -25 50 -63 95 -80 94 -9 0 -36 -8 -61 -16z m-510 -546 c124 -65 261 -138 305 -162 77 -41 318 -168 515 -272 305 -161 350 -187 350 -202 0 -5 -78 -54 -172 -107 -202 -115 -174 -99 -448 -253 l-215 -121 -21 26 c-12 15 -42 72 -67 128 -25 56 -112 236 -193 401 -258 528 -334 687 -334 701 0 6 47 -17 280 -139z"/>
 <path d="M1276 2561 c-11 -4 -15 -10 -10 -13 5 -4 18 0 29 8 20 15 12 17 -19 5z"/>
 <path d="M1121 2509 c10 -20 24 -25 33 -11 2 4 -6 12 -20 19 -21 10 -23 9 -13 -8z"/>
 <path d="M1337 2493 c-3 -5 -1 -48 3 -98 l7 -90 2 98 c1 91 -1 108 -12 90z"/>
 <path d="M1747 1134 c7 -3 9 -13 6 -22 -4 -13 -3 -14 5 -3 7 10 26 -2 83 -54 l74 -68 -77 77 c-43 42 -83 76 -90 75 -10 0 -10 -2 -1 -5z"/>
 <path d="M1815 980 c14 -27 28 -50 30 -50 3 0 -6 23 -20 50 -14 28 -28 50 -30 50 -3 0 6 -22 20 -50z"/>
 </g>
<g id="layer105" fill="#896f4a" stroke="none">
 <path d="M1795 4299 c-4 -6 1 -32 10 -57 25 -66 480 -987 549 -1110 l57 -102 62 31 c34 18 93 51 132 74 38 23 189 113 335 200 318 189 370 223 370 240 0 18 -149 381 -208 507 -38 80 -57 110 -78 121 -30 15 -78 22 -244 32 -52 3 -149 10 -215 16 -66 5 -154 12 -195 14 -41 3 -91 8 -110 10 -19 2 -80 7 -135 10 -55 4 -136 11 -180 16 -104 12 -142 11 -150 -2z"/>
 <path d="M3445 3296 c-11 -7 -49 -30 -85 -51 -57 -33 -513 -316 -698 -433 -37 -23 -79 -53 -95 -66 -33 -30 -31 -38 51 -175 31 -53 62 -105 68 -116 17 -31 170 -289 230 -388 30 -49 54 -90 54 -92 0 -6 204 -341 242 -397 22 -33 46 -58 56 -58 17 0 274 96 482 180 58 24 125 51 150 60 164 64 380 158 380 165 0 12 -376 676 -640 1130 -85 147 -157 255 -168 254 -4 0 -16 -6 -27 -13z"/>
 <path d="M2270 2576 c0 -13 61 -132 80 -156 18 -23 20 -23 19 -5 -1 40 -99 199 -99 161z"/>
 <path d="M2380 2373 c0 -14 19 -38 25 -32 8 8 -5 39 -16 39 -5 0 -9 -3 -9 -7z"/>
 <path d="M2430 2285 c0 -15 34 -69 37 -59 5 16 -15 64 -27 64 -5 0 -10 -2 -10 -5z"/>
 <path d="M2490 2167 c0 -8 7 -21 16 -28 14 -11 15 -10 12 11 -3 26 -28 41 -28 17z"/>
 <path d="M2540 2083 c0 -5 4 -15 10 -23 11 -18 25 -7 17 15 -6 15 -27 21 -27 8z"/>
 <path d="M2590 1995 c0 -9 47 -98 69 -130 37 -53 24 0 -16 70 -32 56 -53 79 -53 60z"/>
 <path d="M2690 1813 c0 -5 7 -18 15 -29 15 -18 15 -18 13 5 -3 23 -28 44 -28 24z"/>
 <path d="M2750 1703 c0 -5 4 -15 10 -23 11 -18 25 -7 17 15 -6 15 -27 21 -27 8z"/>
 <path d="M2800 1613 c0 -5 7 -18 15 -29 15 -18 15 -18 13 5 -3 23 -28 44 -28 24z"/>
 <path d="M2890 1453 c0 -5 4 -15 10 -23 11 -18 25 -7 17 15 -6 15 -27 21 -27 8z"/>
 </g>

</svg>