<!DOCTYPE svg PUBLIC "-//W3C//DTD SVG 20010904//EN" "http://www.w3.org/TR/2001/REC-SVG-20010904/DTD/svg10.dtd">
<svg version="1.0" xmlns="http://www.w3.org/2000/svg" width="512px" height="512px" viewBox="0 0 5120 5120" preserveAspectRatio="xMidYMid meet">
<g id="layer101" fill="#000000" stroke="none">
 <path d="M1770 4191 c-52 -20 -171 -74 -265 -118 -93 -44 -210 -100 -260 -123 -49 -23 -101 -50 -115 -60 -69 -48 -624 -325 -762 -381 -147 -58 -319 -163 -342 -208 -24 -46 -20 -84 12 -117 16 -16 37 -42 47 -59 10 -16 35 -50 55 -75 20 -25 60 -89 88 -143 29 -53 85 -149 124 -212 40 -64 79 -126 86 -140 7 -14 22 -30 33 -35 10 -6 19 -15 19 -21 0 -27 47 -72 99 -95 31 -14 72 -38 92 -54 20 -15 51 -35 70 -43 49 -20 299 -166 332 -194 16 -12 33 -23 39 -23 5 0 23 -11 40 -25 16 -14 36 -25 44 -25 8 0 61 -29 117 -64 56 -35 311 -184 567 -331 256 -147 474 -276 485 -285 11 -10 45 -29 75 -43 30 -13 69 -35 85 -49 17 -14 41 -29 55 -33 14 -4 63 -30 110 -58 47 -27 105 -57 130 -66 40 -14 102 -48 278 -149 136 -78 177 -81 357 -28 66 20 170 47 230 60 113 24 231 62 465 148 186 69 303 126 384 187 38 28 77 51 86 51 20 0 30 19 30 56 0 14 11 42 25 62 14 20 25 42 25 48 0 7 19 36 43 65 59 73 164 239 206 324 19 39 54 102 78 142 89 144 96 294 18 337 -11 6 -34 22 -51 36 -16 14 -57 41 -89 60 -32 19 -77 52 -100 73 -23 20 -47 37 -53 37 -5 0 -225 124 -489 276 -999 577 -1870 1067 -2113 1189 -91 45 -147 80 -171 106 -31 34 -42 39 -80 39 -27 0 -80 -15 -139 -39z"/>
 </g>
<g id="layer102" fill="#1e0e1a" stroke="none">
 <path d="M1936 3983 c-14 -174 -28 -270 -57 -401 -44 -197 -77 -328 -100 -394 -11 -32 -18 -62 -15 -67 3 -5 25 -13 48 -19 58 -15 262 -119 488 -248 255 -146 1670 -958 1750 -1004 289 -168 364 -213 431 -258 42 -29 80 -52 86 -52 6 0 32 60 58 133 49 137 151 338 261 513 35 56 66 108 69 116 4 11 -8 20 -42 33 -82 31 -260 128 -808 443 -925 532 -1778 1036 -2024 1197 -73 47 -133 85 -135 85 -3 0 -7 -35 -10 -77z"/>
 <path d="M1535 3880 c-115 -55 -259 -120 -320 -147 -60 -26 -121 -55 -135 -65 -27 -20 -349 -170 -390 -183 -35 -10 -289 -143 -325 -170 -16 -12 -48 -31 -71 -43 -70 -36 -70 -38 8 -127 117 -133 219 -276 256 -355 19 -41 36 -76 37 -78 2 -2 27 13 57 32 30 20 110 60 179 90 68 29 167 74 219 99 191 90 530 219 590 224 l58 6 6 45 c3 24 6 74 6 109 0 35 9 124 21 196 19 123 33 468 19 466 -3 0 -99 -45 -215 -99z"/>
 <path d="M1680 3015 c-84 -42 -614 -252 -730 -288 -122 -38 -283 -122 -288 -150 -2 -9 10 -25 30 -37 45 -28 360 -208 607 -347 113 -63 367 -208 565 -322 199 -115 453 -261 566 -326 316 -181 442 -256 480 -285 19 -15 76 -51 125 -80 50 -29 127 -78 173 -108 66 -44 87 -53 110 -48 157 35 259 70 362 123 63 32 196 87 295 122 185 65 435 170 435 182 0 4 -14 12 -30 18 -17 5 -184 99 -373 207 -1113 641 -1457 840 -1503 869 -29 19 -148 88 -265 155 -118 67 -236 139 -264 160 -27 20 -79 54 -115 75 -36 21 -81 53 -100 71 l-35 32 -45 -23z"/>
 </g>
<g id="layer103" fill="#372733" stroke="none">
 <path d="M1982 3628 c-31 -34 -81 -147 -88 -200 -6 -43 -9 -47 -29 -42 -19 5 -23 -1 -35 -53 -8 -32 -26 -93 -41 -135 l-27 -78 37 -5 c36 -6 165 -64 211 -95 14 -9 39 -22 56 -28 18 -5 114 -58 214 -117 101 -59 199 -114 218 -122 19 -8 51 -25 71 -37 20 -13 88 -53 151 -89 63 -35 183 -104 265 -152 502 -291 975 -560 1014 -577 25 -11 57 -29 70 -41 l24 -22 -18 28 c-10 15 -37 39 -60 52 -23 14 -50 34 -60 45 -10 11 -25 20 -34 20 -15 0 -133 69 -120 70 3 0 37 -14 74 -31 91 -41 217 -87 273 -100 54 -12 143 0 246 31 90 28 109 56 103 156 -2 47 -12 88 -27 120 -26 55 -137 167 -275 279 -49 40 -99 82 -109 94 -11 11 -25 21 -33 21 -7 0 -12 5 -11 11 2 6 -7 12 -19 14 -13 1 -19 -3 -16 -8 4 -6 -1 -8 -11 -4 -14 6 -17 3 -12 -9 3 -8 6 -18 6 -20 0 -2 8 -4 19 -4 10 0 27 -12 36 -27 l18 -26 -37 22 -36 22 4 -30 c3 -26 1 -29 -11 -20 -11 10 -12 8 -7 -7 4 -10 14 -28 23 -39 15 -19 15 -19 -3 -5 -18 14 -19 13 -14 -8 5 -19 4 -21 -8 -11 -12 10 -13 9 -8 -5 4 -10 1 -16 -7 -16 -10 0 -10 -3 -1 -12 27 -27 9 -28 -35 -2 -27 15 -50 30 -53 33 -3 3 -27 17 -54 31 -77 39 -145 118 -222 255 -9 17 -22 35 -29 40 -6 6 -28 31 -49 57 -20 25 -63 62 -94 81 -53 31 -60 33 -80 19 -20 -13 -26 -11 -74 18 -29 18 -65 47 -80 64 -58 68 -86 103 -116 147 -17 25 -42 53 -56 63 -14 9 -26 21 -26 26 0 11 -70 80 -81 80 -4 0 -9 -6 -11 -12 -3 -7 -13 -13 -24 -13 -12 0 -18 -6 -16 -15 2 -8 5 -34 7 -57 2 -39 1 -42 -17 -32 -10 6 -22 17 -25 25 -3 8 -13 14 -22 14 -9 0 -54 23 -99 50 -70 42 -80 46 -63 24 23 -29 27 -64 10 -81 -8 -8 -7 -13 2 -18 8 -5 10 -4 5 3 -4 7 -2 12 4 12 7 0 9 -8 5 -20 -4 -12 -1 -28 6 -36 7 -9 -51 23 -128 69 -78 47 -152 91 -165 98 -22 12 -22 11 -8 -6 14 -18 13 -18 -18 1 -18 10 -42 27 -52 37 -11 9 -24 17 -31 17 -17 0 -51 40 -71 83 -10 20 -21 37 -26 37 -4 0 -28 18 -52 41 -100 92 -103 93 -138 57z"/>
 <path d="M940 3590 c-19 -10 -87 -40 -150 -67 -133 -55 -396 -187 -425 -213 -11 -9 -44 -30 -72 -45 -29 -16 -53 -32 -53 -36 0 -5 30 -41 66 -81 110 -123 213 -263 251 -345 20 -43 38 -79 39 -81 1 -2 32 14 68 36 36 22 96 52 134 67 37 15 121 53 187 85 161 78 594 250 628 250 28 0 48 26 31 39 -5 3 -16 20 -24 36 -15 30 -41 61 -72 84 -13 10 -23 8 -54 -8 -20 -11 -41 -18 -46 -15 -4 3 -8 1 -8 -4 0 -5 -13 -7 -30 -4 -16 2 -28 8 -25 12 3 5 -17 21 -45 37 -27 15 -50 33 -50 40 0 19 -61 52 -84 44 -54 -17 -68 -4 -120 119 -11 25 -26 49 -35 55 -27 16 -74 14 -111 -5z"/>
 <path d="M2511 3306 c32 -35 74 -55 66 -33 -4 13 -77 66 -90 67 -5 0 6 -15 24 -34z"/>
 <path d="M1669 3005 c-26 -13 -127 -56 -225 -95 -99 -40 -220 -89 -270 -111 -51 -21 -141 -52 -200 -70 -97 -27 -243 -94 -299 -135 -19 -14 -19 -14 0 -34 11 -11 74 -50 140 -87 434 -245 871 -494 1380 -787 182 -104 359 -206 395 -226 154 -88 294 -172 328 -199 20 -16 101 -69 180 -118 79 -48 156 -96 171 -106 28 -17 32 -16 147 14 85 22 154 49 244 94 69 35 213 95 321 133 189 67 419 162 419 172 0 3 -17 12 -38 21 -54 23 -1586 903 -1984 1140 -87 52 -194 114 -238 139 -45 25 -114 68 -153 96 -40 28 -105 70 -145 94 -41 24 -81 54 -89 67 -19 28 -26 28 -84 -2z"/>
 <path d="M4616 1748 c5 -8 2 -9 -9 -5 -22 8 -21 -1 1 -26 9 -11 11 -17 5 -13 -15 8 -17 -3 -4 -22 6 -10 11 -1 18 27 9 32 8 41 -4 45 -9 4 -11 2 -7 -6z"/>
 </g>
<g id="layer104" fill="#51414d" stroke="none">
 <path d="M425 3343 c-16 -8 -39 -23 -50 -33 -11 -10 -40 -28 -65 -40 -76 -38 -76 -35 -1 -119 143 -161 241 -302 275 -397 l11 -32 75 44 c41 24 117 61 170 81 52 21 120 52 150 69 30 18 130 63 222 100 92 38 166 70 164 71 -5 6 -150 -45 -218 -76 -37 -17 -76 -31 -86 -31 -9 0 -26 -6 -37 -14 -29 -20 -194 -84 -235 -91 -19 -3 -40 -11 -47 -17 -17 -14 -63 5 -91 37 -16 19 -28 23 -56 19 -32 -4 -38 0 -73 43 -21 26 -80 88 -130 137 -63 60 -93 96 -93 111 0 14 15 35 43 58 55 46 112 97 106 97 -2 -1 -17 -8 -34 -17z"/>
 <path d="M1679 3005 c-26 -13 -125 -55 -220 -94 -96 -38 -221 -89 -279 -114 -58 -24 -152 -57 -209 -73 -121 -33 -296 -121 -296 -148 0 -18 97 -76 535 -324 467 -264 1276 -726 1550 -887 63 -37 138 -84 165 -104 28 -21 97 -67 155 -102 58 -34 131 -80 163 -100 l57 -37 48 15 c26 8 85 23 132 34 52 13 111 36 153 61 93 54 154 80 342 148 169 61 312 118 378 152 l40 20 -40 18 c-22 10 -89 46 -149 80 -132 76 -131 75 -121 64 5 -5 59 -41 120 -79 62 -39 112 -77 112 -85 0 -19 -88 -61 -210 -100 -55 -18 -180 -58 -277 -90 l-178 -58 0 24 c0 16 -8 28 -24 36 -14 6 -30 24 -37 40 -6 15 -19 33 -28 39 -13 8 -11 9 9 6 14 -3 34 -2 45 2 19 8 19 8 -4 16 -16 5 -20 10 -11 15 18 11 -253 172 -277 164 -13 -4 -15 -3 -5 4 11 7 0 17 -42 41 -64 37 -71 50 -24 43 30 -5 32 -4 19 12 -8 9 -34 29 -58 43 -34 19 -41 28 -31 35 9 7 7 8 -8 4 -11 -4 -29 1 -40 9 -10 8 -28 15 -39 15 -27 0 -145 113 -145 138 0 11 -7 23 -16 26 -13 5 -14 9 -5 20 9 10 8 15 -4 20 -9 3 -14 10 -10 16 11 18 -24 65 -107 143 -148 139 -192 178 -253 225 -33 26 -61 50 -63 54 -2 4 -10 8 -18 8 -8 0 -14 5 -14 11 0 18 -115 125 -217 200 -50 38 -101 82 -113 99 l-21 29 28 -12 c42 -19 152 -76 201 -104 23 -14 42 -22 42 -20 0 3 -46 32 -102 63 -158 89 -248 143 -303 183 -27 20 -84 56 -125 80 -41 25 -86 57 -100 72 l-25 28 -46 -24z m105 -64 c26 -13 52 -34 58 -47 14 -30 4 -41 -18 -23 -16 13 -16 12 -5 -8 6 -13 9 -23 6 -23 -13 0 56 -89 116 -150 35 -36 62 -68 61 -72 -1 -4 13 -16 31 -27 45 -28 355 -348 317 -326 -8 4 13 -21 48 -56 34 -36 62 -72 62 -81 0 -9 7 -18 15 -22 19 -7 20 -26 0 -26 -24 0 -164 90 -183 117 -20 30 -68 79 -144 144 -29 26 -81 72 -116 103 -35 30 -72 58 -83 61 -11 4 -19 16 -19 28 -1 15 -15 31 -45 50 -25 16 -45 35 -45 42 0 8 -30 38 -67 67 -73 58 -233 208 -233 218 0 4 21 19 48 34 58 33 123 32 196 -3z m-427 -142 c-1 -4 27 -26 63 -50 36 -24 92 -72 125 -107 33 -35 111 -114 173 -176 61 -61 112 -118 112 -125 0 -27 183 -232 442 -495 81 -82 145 -152 143 -155 -3 -2 3 -13 12 -24 18 -19 18 -20 -14 -3 -74 38 -405 248 -493 312 -52 39 -114 82 -138 96 -24 14 -121 100 -215 192 -95 91 -191 181 -214 199 -23 17 -68 55 -101 82 -33 28 -83 66 -111 85 -29 19 -59 40 -69 47 -15 10 -15 13 -2 27 29 29 213 104 252 103 20 -1 36 -5 35 -8z"/>
 </g>

</svg>