<!DOCTYPE svg PUBLIC "-//W3C//DTD SVG 20010904//EN" "http://www.w3.org/TR/2001/REC-SVG-20010904/DTD/svg10.dtd">
<svg version="1.0" xmlns="http://www.w3.org/2000/svg" width="512px" height="512px" viewBox="0 0 5120 5120" preserveAspectRatio="xMidYMid meet">
<g id="layer101" fill="#000000" stroke="none">
 <path d="M1360 4393 c-106 -37 -197 -124 -251 -238 l-24 -50 0 -936 0 -936 35 -69 c43 -86 120 -164 199 -200 l59 -27 7 -91 c10 -138 31 -253 66 -352 84 -242 246 -451 457 -589 124 -81 199 -116 339 -156 97 -28 126 -32 275 -36 180 -6 236 2 403 54 340 107 629 397 744 749 37 115 48 174 57 310 l7 110 60 28 c80 38 162 121 207 211 l35 70 0 930 0 930 -39 70 c-51 89 -125 163 -201 201 l-60 29 -1165 2 c-1037 2 -1170 0 -1210 -14z m1697 -2545 c-12 -137 -59 -239 -154 -329 -98 -94 -211 -139 -348 -139 -144 0 -254 46 -356 150 -88 89 -131 187 -137 308 l-4 82 502 0 503 0 -6 -72z"/>
 </g>
<g id="layer102" fill="#d3953f" stroke="none">
 <path d="M1393 4292 c-28 -10 -68 -31 -88 -46 -42 -32 -93 -107 -102 -149 -3 -15 -10 -30 -14 -33 -5 -3 -9 -305 -9 -673 0 -753 -3 -722 76 -810 25 -27 68 -61 96 -75 l52 -26 1150 0 1151 0 51 24 c66 31 120 85 153 155 l26 56 3 663 c2 556 0 666 -12 685 -7 12 -19 38 -25 59 -18 54 -84 123 -149 155 l-57 28 -1125 2 c-1060 2 -1128 1 -1177 -15z"/>
 <path d="M3883 2534 c-24 -25 -70 -58 -105 -74 l-63 -30 -1160 0 -1160 0 -52 25 c-29 13 -75 44 -101 69 -27 26 -52 46 -56 46 -3 0 -6 -61 -6 -135 0 -110 4 -144 20 -189 38 -101 105 -169 197 -201 49 -17 53 -11 53 93 0 94 11 123 64 169 107 95 305 95 412 0 52 -45 64 -75 64 -166 0 -44 3 -86 6 -95 6 -14 64 -16 563 -16 l557 0 3 97 c3 111 12 136 71 186 90 76 245 88 360 26 92 -49 114 -87 120 -209 l5 -97 45 13 c25 7 65 30 89 51 47 39 101 116 101 142 0 9 7 29 15 45 11 21 15 63 15 162 0 74 -3 134 -7 134 -5 -1 -27 -21 -50 -46z"/>
 <path d="M1613 2309 c-28 -11 -65 -35 -81 -53 -28 -32 -29 -37 -35 -171 -11 -217 -8 -287 13 -398 45 -232 134 -402 294 -562 548 -547 1479 -344 1752 381 48 129 64 248 64 484 0 209 -1 218 -22 250 -50 73 -182 108 -291 76 -55 -16 -109 -52 -127 -85 -5 -10 -12 -112 -15 -227 -7 -244 -13 -280 -67 -394 -75 -158 -233 -283 -408 -324 -304 -72 -618 114 -716 421 -14 44 -32 290 -33 452 -1 60 -3 66 -39 101 -67 67 -188 88 -289 49z"/>
 </g>
<g id="layer103" fill="#ecae58" stroke="none">
 <path d="M1414 4296 c-81 -24 -138 -63 -168 -115 -39 -67 -47 -86 -48 -112 -1 -16 -5 -32 -10 -35 -4 -3 -8 -299 -8 -658 0 -736 -3 -707 76 -795 25 -27 68 -61 96 -75 l52 -26 1150 0 1151 0 51 24 c66 31 120 85 153 155 l26 56 3 649 c2 586 1 651 -14 667 -9 10 -13 22 -10 27 14 23 -28 104 -80 156 -94 94 11 86 -1265 89 -620 1 -1139 -2 -1155 -7z m2206 -521 l0 -75 -1065 0 -1065 0 0 75 0 75 1065 0 1065 0 0 -75z m0 -300 l0 -75 -1065 0 -1065 0 0 75 0 75 1065 0 1065 0 0 -75z m-2 -308 l3 -77 -1063 2 -1063 3 -3 64 c-2 35 -1 70 2 77 5 12 179 14 1063 12 l1058 -3 3 -78z m2 -302 l0 -75 -1065 0 -1065 0 0 75 0 75 1065 0 1065 0 0 -75z"/>
 <path d="M3883 2534 c-24 -25 -70 -58 -105 -74 l-63 -30 -1160 0 -1160 0 -52 25 c-29 13 -75 44 -101 69 -27 26 -52 46 -56 46 -3 0 -6 -61 -6 -135 0 -110 4 -144 20 -189 38 -101 105 -169 197 -201 49 -17 53 -11 53 93 0 94 11 123 64 169 107 95 305 95 412 0 52 -45 64 -75 64 -166 0 -44 3 -86 6 -95 6 -14 64 -16 563 -16 l557 0 3 97 c3 111 12 136 71 186 90 76 245 88 360 26 92 -49 114 -87 120 -209 l5 -97 45 13 c25 7 65 30 89 51 47 39 101 116 101 142 0 9 7 29 15 45 11 21 15 63 15 162 0 74 -3 134 -7 134 -5 -1 -27 -21 -50 -46z"/>
 <path d="M1613 2309 c-28 -11 -65 -35 -81 -53 -28 -32 -29 -37 -35 -171 -11 -217 -8 -287 13 -398 45 -232 134 -402 294 -562 548 -547 1479 -344 1752 381 48 129 64 248 64 484 0 209 -1 218 -22 250 -50 73 -182 108 -291 76 -55 -16 -109 -52 -127 -85 -5 -10 -12 -112 -15 -227 -7 -244 -13 -280 -67 -394 -75 -158 -233 -283 -408 -324 -304 -72 -618 114 -716 421 -14 44 -32 290 -33 452 -1 60 -3 66 -39 101 -67 67 -188 88 -289 49z"/>
 </g>
<g id="layer104" fill="#ffc872" stroke="none">
 <path d="M3883 2534 c-24 -25 -70 -58 -105 -74 l-63 -30 -1160 0 -1160 0 -50 24 c-27 13 -76 44 -107 70 l-58 47 0 -130 c0 -79 4 -132 10 -136 6 -4 8 -14 6 -23 -7 -21 32 -107 69 -150 30 -36 96 -78 143 -92 39 -11 42 -3 42 115 l0 94 50 50 c62 62 101 76 220 76 117 0 151 -12 218 -75 l52 -50 0 -94 c0 -52 3 -101 6 -110 6 -14 64 -16 563 -16 l557 0 3 96 c1 53 8 108 14 123 17 38 55 73 111 101 42 21 63 25 140 25 98 0 166 -15 195 -44 10 -10 25 -20 34 -24 9 -3 17 -11 17 -18 0 -6 10 -25 22 -41 18 -27 21 -42 19 -124 l-2 -93 28 9 c105 31 199 125 218 217 4 18 11 35 16 38 11 7 12 285 2 285 -5 -1 -27 -21 -50 -46z"/>
 <path d="M1613 2309 c-28 -11 -65 -35 -81 -53 -28 -32 -29 -37 -35 -171 -11 -217 -8 -287 13 -398 45 -232 134 -402 294 -562 548 -547 1479 -344 1752 381 48 129 64 248 64 484 0 209 -1 218 -22 250 -50 73 -182 108 -291 76 -55 -16 -109 -52 -127 -85 -5 -10 -12 -112 -15 -227 -7 -244 -13 -280 -67 -394 -75 -158 -233 -283 -408 -324 -304 -72 -618 114 -716 421 -14 44 -32 290 -33 452 -1 60 -3 66 -39 101 -67 67 -188 88 -289 49z"/>
 </g>
<g id="layer105" fill="#a1a1a1" stroke="none">
 <path d="M1613 2309 c-28 -11 -65 -35 -81 -53 -28 -32 -29 -37 -35 -171 -11 -217 -8 -287 13 -398 45 -232 134 -402 294 -562 548 -547 1479 -344 1752 381 48 129 64 248 64 484 0 209 -1 218 -22 250 -50 73 -182 108 -291 76 -55 -16 -109 -52 -127 -85 -5 -10 -12 -112 -15 -227 -7 -244 -13 -280 -67 -394 -75 -158 -233 -283 -408 -324 -304 -72 -618 114 -716 421 -14 44 -32 290 -33 452 -1 60 -3 66 -39 101 -67 67 -188 88 -289 49z"/>
 </g>
<g id="layer106" fill="#888888" stroke="none">
 <path d="M1613 2309 c-56 -21 -113 -77 -113 -109 0 -19 8 -20 220 -20 217 0 220 0 220 21 0 12 -17 38 -38 59 -67 67 -188 88 -289 49z"/>
 <path d="M3290 2311 c-60 -21 -120 -77 -120 -111 0 -19 6 -20 225 -20 248 0 244 -1 203 60 -52 77 -197 111 -308 71z"/>
 <path d="M3613 1955 c0 -44 2 -61 4 -37 2 23 2 59 0 80 -2 20 -4 1 -4 -43z"/>
 <path d="M1943 1855 c0 -22 2 -30 4 -17 2 12 2 30 0 40 -3 9 -5 -1 -4 -23z"/>
 <path d="M3613 1810 c0 -25 2 -35 4 -22 2 12 2 32 0 45 -2 12 -4 2 -4 -23z"/>
 <path d="M1505 1720 c3 -14 8 -41 11 -60 8 -46 60 -195 85 -242 11 -21 18 -38 14 -38 -3 0 14 -29 39 -64 26 -35 46 -67 46 -71 0 -14 139 -161 174 -184 13 -9 59 -41 102 -71 43 -30 80 -54 83 -53 3 1 22 -7 41 -17 19 -10 58 -26 85 -36 28 -10 56 -22 63 -27 7 -5 15 -7 19 -4 3 4 12 2 18 -3 7 -6 32 -13 56 -16 24 -3 67 -8 94 -12 92 -12 234 -7 325 12 14 3 41 9 60 12 19 4 40 10 45 14 6 5 37 16 70 25 33 10 62 21 65 25 7 10 113 64 121 62 4 -1 18 9 32 22 14 13 40 34 58 47 33 23 169 156 169 165 0 2 23 34 50 69 28 36 48 65 46 65 -3 0 6 16 19 36 14 20 25 44 25 53 0 10 7 26 15 37 8 10 15 25 15 32 0 8 6 28 14 45 16 36 25 72 32 135 l5 42 -49 0 c-61 0 -162 -48 -197 -94 -14 -18 -34 -58 -45 -90 -66 -192 -202 -334 -411 -430 -363 -166 -798 -47 -1028 282 -12 18 -40 76 -61 130 -54 135 -120 190 -240 200 -30 3 -59 10 -63 16 -5 6 -6 0 -2 -14z"/>
 <path d="M2000 1626 c0 -11 30 -66 36 -66 2 0 -3 15 -12 33 -19 36 -24 44 -24 33z"/>
 <path d="M2240 1355 c0 -7 81 -47 86 -43 2 3 -17 14 -41 26 -25 12 -45 20 -45 17z"/>
 </g>
<g id="layer107" fill="#bbbbbb" stroke="none">
 <path d="M1515 1679 c10 -64 60 -209 96 -281 174 -348 530 -571 929 -582 85 -2 267 27 355 57 132 45 272 126 365 211 106 97 226 256 262 351 36 91 66 189 73 238 l7 47 -49 0 c-63 0 -163 -48 -198 -94 -14 -18 -34 -58 -45 -90 -66 -192 -202 -334 -411 -430 -363 -166 -798 -47 -1028 282 -12 18 -40 76 -61 130 -55 136 -121 191 -244 200 l-58 5 7 -44z"/>
 </g>

</svg>