<!DOCTYPE svg PUBLIC "-//W3C//DTD SVG 20010904//EN" "http://www.w3.org/TR/2001/REC-SVG-20010904/DTD/svg10.dtd">
<svg version="1.0" xmlns="http://www.w3.org/2000/svg" width="512px" height="512px" viewBox="0 0 5120 5120" preserveAspectRatio="xMidYMid meet">
<g id="layer101" fill="#000000" stroke="none">
 <path d="M1435 4551 c-11 -5 -29 -19 -40 -31 -20 -22 -20 -36 -20 -1961 l0 -1939 28 -27 27 -28 1125 0 1125 0 27 28 28 27 0 1940 0 1940 -28 27 -27 28 -1113 2 c-611 1 -1121 -2 -1132 -6z"/>
 </g>
<g id="layer102" fill="#242424" stroke="none">
 <path d="M1480 2560 l0 -1890 1075 0 1075 0 0 1890 0 1890 -1075 0 -1075 0 0 -1890z m196 1845 l25 -25 -3 -401 c-3 -383 -4 -401 -22 -415 -29 -21 -80 -18 -102 7 -18 20 -19 44 -22 388 -2 201 0 381 3 399 13 69 75 93 121 47z m1889 0 l25 -24 0 -393 c0 -340 -2 -397 -16 -416 -20 -29 -76 -30 -104 -2 -19 19 -20 33 -20 419 l0 400 26 20 c35 27 59 26 89 -4z m-507 -27 c15 -15 17 -754 2 -778 -8 -13 -89 -15 -611 -18 -441 -2 -605 1 -615 9 -19 16 -21 768 -2 787 17 17 1209 17 1226 0z m324 -44 c23 -22 28 -49 13 -78 -12 -22 -11 -30 1 -55 13 -26 13 -34 1 -58 -11 -23 -11 -33 -1 -52 15 -29 1 -76 -26 -91 -10 -6 -62 -10 -114 -10 -83 0 -99 3 -116 20 -22 22 -28 84 -9 96 8 4 8 9 0 17 -6 6 -11 28 -11 48 0 21 5 41 11 45 8 4 8 9 0 17 -21 21 -13 84 12 104 20 15 38 18 123 15 70 -3 104 -8 116 -18z m-148 -494 c-27 -11 -54 -48 -54 -75 0 -27 27 -64 54 -75 15 -6 17 -9 4 -9 -22 -1 -68 55 -68 84 0 29 46 85 68 84 13 0 11 -3 -4 -9z m90 -21 c14 -17 26 -41 26 -54 0 -29 -46 -85 -68 -84 -13 0 -11 3 4 9 27 11 54 48 54 75 0 27 -27 64 -54 75 -15 6 -17 9 -4 9 9 1 28 -13 42 -30z m-1644 -379 c19 -19 20 -33 20 -415 l0 -396 -26 -26 c-20 -20 -31 -24 -57 -19 -18 3 -38 14 -44 23 -10 13 -13 112 -13 417 0 358 2 401 17 418 22 24 77 24 103 -2z m1889 -6 c20 -26 21 -37 21 -414 0 -362 -1 -389 -18 -411 -13 -15 -30 -22 -52 -22 -22 0 -39 7 -52 22 -17 22 -18 49 -18 408 0 381 3 414 34 435 24 17 65 8 85 -18z m-511 -12 c9 -7 12 -94 10 -403 l-3 -394 -620 0 -620 0 -3 390 c-1 214 0 396 3 402 3 10 134 13 612 13 334 0 614 -4 621 -8z m320 -48 c16 -11 22 -25 22 -54 0 -21 -5 -42 -10 -45 -7 -4 -7 -12 0 -25 5 -10 10 -32 10 -49 0 -16 -5 -33 -10 -36 -7 -4 -7 -12 0 -25 15 -28 12 -71 -7 -92 -14 -15 -32 -18 -123 -18 -89 0 -109 3 -122 18 -24 27 -26 44 -12 79 8 20 9 35 3 38 -12 8 -12 82 0 89 5 4 3 19 -5 35 -17 33 -6 73 23 90 30 17 205 14 231 -5z m-57 -513 c19 -20 29 -39 28 -58 -1 -26 -2 -26 -9 7 -16 68 -88 93 -135 45 -33 -32 -33 -75 1 -109 15 -14 22 -26 16 -26 -18 0 -52 56 -52 85 0 38 50 85 90 85 22 0 41 -9 61 -29z m13 -106 c-4 -9 -16 -21 -28 -27 -19 -10 -18 -8 4 15 29 31 31 32 24 12z m-1652 -252 c17 -15 18 -41 18 -413 0 -372 -1 -399 -18 -421 -25 -30 -75 -30 -105 0 -22 21 -22 23 -22 415 0 373 1 395 19 415 23 26 81 28 108 4z m1890 0 c17 -15 18 -41 18 -413 0 -365 -1 -399 -17 -418 -30 -33 -69 -36 -98 -8 l-25 25 0 393 c0 442 -1 438 67 438 20 0 45 -7 55 -17z m-510 -35 c12 -20 10 -745 -2 -769 -10 -18 -28 -19 -614 -19 -498 0 -606 2 -615 14 -8 9 -10 122 -9 397 l3 384 125 5 c69 3 345 4 614 3 386 -2 491 -5 498 -15z m320 -35 c23 -28 27 -46 14 -78 -10 -24 -10 -35 2 -57 11 -24 11 -32 -1 -57 -9 -19 -11 -33 -5 -39 14 -14 13 -69 -1 -86 -34 -41 -209 -49 -251 -11 -22 20 -26 65 -10 95 7 13 7 21 0 25 -13 8 -13 82 1 91 8 4 8 9 0 17 -17 17 -13 78 6 99 14 15 32 18 123 18 89 0 109 -3 122 -17z m-61 -512 c19 -20 29 -39 28 -58 -1 -26 -2 -26 -9 7 -10 42 -42 70 -80 70 -38 0 -70 -28 -80 -70 -7 -33 -8 -33 -9 -7 -1 40 47 87 89 87 22 0 41 -9 61 -29z m-61 -141 c10 0 33 12 51 27 27 23 30 24 21 7 -6 -12 -25 -27 -42 -34 -36 -15 -84 1 -102 34 -9 17 -6 16 21 -7 18 -15 41 -27 51 -27z m-1583 -242 l23 -21 0 -392 c0 -382 -1 -393 -21 -419 -24 -30 -63 -34 -97 -10 l-22 15 0 405 c0 391 1 405 20 424 26 26 68 25 97 -2z m1888 -3 l25 -24 0 -391 0 -391 -25 -24 c-31 -32 -59 -32 -90 0 l-25 24 0 391 0 391 25 24 c13 14 34 25 45 25 12 0 32 -11 45 -25z m-507 -17 c15 -15 17 -783 2 -793 -12 -7 -1219 -7 -1231 1 -5 3 -9 170 -9 399 0 305 3 394 13 398 6 3 282 6 612 6 455 1 604 -2 613 -11z m328 -52 c17 -24 18 -78 2 -94 -9 -9 -9 -15 0 -24 16 -16 16 -70 0 -86 -9 -9 -9 -15 0 -24 22 -22 14 -75 -14 -97 -22 -17 -41 -21 -110 -21 -46 0 -94 5 -108 11 -35 16 -48 59 -30 95 10 19 11 31 4 38 -5 5 -10 24 -10 41 0 17 5 36 10 41 7 7 6 19 -4 38 -18 35 -4 83 28 97 11 5 65 8 119 6 85 -2 101 -5 113 -21z m-87 -491 c16 -8 31 -22 35 -31 4 -10 -4 -7 -25 10 -17 14 -39 26 -49 26 -10 0 -32 -12 -49 -26 -21 -17 -29 -20 -25 -10 7 18 50 45 72 46 7 0 26 -7 41 -15z m-89 -137 c48 -39 115 -12 130 52 7 33 8 33 9 7 1 -40 -47 -87 -89 -87 -42 0 -90 47 -89 87 1 26 2 26 9 -7 5 -19 18 -43 30 -52z"/>
 <path d="M1601 4386 c-8 -9 -10 -125 -9 -407 l3 -394 23 -3 c52 -8 52 -9 52 397 0 325 -2 380 -16 399 -17 25 -36 28 -53 8z"/>
 <path d="M3492 4388 c-17 -17 -17 -779 0 -796 18 -18 46 -14 58 7 6 13 10 157 10 400 0 366 -1 381 -19 391 -25 13 -34 13 -49 -2z"/>
 <path d="M2078 4352 l-228 -2 0 -365 0 -365 593 0 592 0 -2 365 -2 366 -363 2 c-200 1 -465 1 -590 -1z m-8 -362 l0 -290 -70 0 -70 0 0 290 0 290 70 0 70 0 0 -290z m220 0 l0 -290 -70 0 -70 0 0 290 0 290 70 0 70 0 0 -290z m230 0 l0 -290 -75 0 -75 0 0 290 0 290 75 0 75 0 0 -290z m220 0 l0 -290 -75 0 -75 0 0 290 0 290 75 0 75 0 0 -290z m220 0 l0 -290 -70 0 -70 0 0 290 0 290 70 0 70 0 0 -290z"/>
 <path d="M1960 3990 l0 -260 40 0 40 0 0 260 0 260 -40 0 -40 0 0 -260z"/>
 <path d="M2180 3990 l0 -260 40 0 40 0 0 260 0 260 -40 0 -40 0 0 -260z"/>
 <path d="M2400 3990 l0 -260 40 0 40 0 0 260 0 260 -40 0 -40 0 0 -260z"/>
 <path d="M2630 3990 l0 -260 40 0 40 0 0 260 0 260 -40 0 -40 0 0 -260z"/>
 <path d="M2850 3990 l0 -260 40 0 40 0 0 260 0 260 -40 0 -40 0 0 -260z"/>
 <path d="M3151 4302 c-7 -14 -6 -24 3 -38 11 -14 30 -19 88 -22 95 -5 130 8 126 46 l-3 27 -102 3 c-91 2 -103 1 -112 -16z"/>
 <path d="M3151 4192 c-7 -14 -7 -24 2 -36 11 -15 29 -18 106 -18 51 0 98 5 103 10 5 5 8 20 6 33 -3 23 -6 24 -105 27 -91 2 -103 1 -112 -16z"/>
 <path d="M3151 4082 c-7 -14 -6 -25 5 -40 14 -20 24 -22 103 -22 96 0 115 9 109 52 -3 22 -7 23 -105 26 -91 2 -103 1 -112 -16z"/>
 <path d="M1597 3423 c-4 -3 -7 -183 -7 -399 0 -378 1 -394 19 -404 11 -5 27 -7 35 -4 14 5 16 55 18 397 2 216 -1 398 -6 405 -9 13 -48 17 -59 5z"/>
 <path d="M3492 3418 c-9 -9 -12 -110 -12 -394 0 -334 2 -385 16 -398 8 -9 19 -16 24 -16 5 0 16 7 24 16 14 13 16 64 16 398 0 394 -1 406 -40 406 -9 0 -21 -5 -28 -12z"/>
 <path d="M1850 3025 l0 -375 595 0 595 0 0 375 0 375 -595 0 -595 0 0 -375z m218 -2 l2 -293 -75 0 -75 0 0 288 c0 159 3 292 7 296 4 4 37 6 73 4 l65 -3 3 -292z m225 285 c-2 -5 -3 -136 -3 -293 l0 -285 -70 0 -70 0 0 288 c0 159 3 292 7 296 9 9 139 3 136 -6z m225 -285 l2 -293 -75 0 -75 0 0 288 c0 159 3 292 7 296 4 4 37 6 73 4 l65 -3 3 -292z m220 0 l2 -293 -75 0 -75 0 0 288 c0 159 3 292 7 296 4 4 37 6 73 4 l65 -3 3 -292z m220 0 l2 -293 -70 0 -70 0 0 295 0 296 68 -3 67 -3 3 -292z"/>
 <path d="M1960 3020 l0 -260 40 0 40 0 0 260 0 260 -40 0 -40 0 0 -260z"/>
 <path d="M2180 3020 l0 -260 40 0 40 0 0 260 0 260 -40 0 -40 0 0 -260z"/>
 <path d="M2400 3020 l0 -260 40 0 40 0 0 260 0 260 -40 0 -40 0 0 -260z"/>
 <path d="M2630 3020 l0 -260 40 0 40 0 0 260 0 260 -40 0 -40 0 0 -260z"/>
 <path d="M2850 3020 l0 -260 40 0 40 0 0 260 0 260 -40 0 -40 0 0 -260z"/>
 <path d="M3162 3348 c-6 -6 -12 -20 -12 -29 0 -32 25 -40 115 -37 71 2 90 6 99 21 8 12 8 22 0 35 -9 14 -28 18 -100 20 -61 2 -93 -1 -102 -10z"/>
 <path d="M3162 3238 c-6 -6 -12 -20 -12 -29 0 -32 25 -40 115 -37 71 2 90 6 99 21 8 12 8 22 0 35 -9 14 -28 18 -100 20 -61 2 -93 -1 -102 -10z"/>
 <path d="M3160 3126 c-6 -8 -10 -25 -8 -38 3 -22 6 -23 108 -23 102 0 105 1 108 23 6 43 -13 52 -108 52 -64 0 -91 -4 -100 -14z"/>
 <path d="M1608 2489 c-17 -9 -18 -39 -18 -404 0 -379 1 -395 19 -405 26 -13 48 -4 55 23 3 12 6 186 6 387 0 315 -2 369 -16 388 -17 25 -22 26 -46 11z"/>
 <path d="M3486 2474 c-3 -9 -6 -188 -6 -399 0 -370 1 -385 19 -395 25 -13 27 -13 45 6 14 13 16 64 16 398 0 284 -3 385 -12 394 -17 17 -55 15 -62 -4z"/>
 <path d="M1850 2080 l0 -370 590 2 591 3 2 368 2 367 -592 0 -593 0 0 -370z m220 5 l0 -295 -70 0 -70 0 0 295 0 295 70 0 70 0 0 -295z m220 0 l0 -295 -70 0 -70 0 0 295 0 295 70 0 70 0 0 -295z m225 0 l0 -290 -70 0 -70 0 -3 293 -2 293 72 -3 73 -3 0 -290z m225 0 l0 -296 -72 3 -73 3 -3 280 c-1 154 0 285 3 292 3 9 27 13 75 13 l70 0 0 -295z m220 0 l0 -295 -70 0 -70 0 0 295 0 295 70 0 70 0 0 -295z"/>
 <path d="M1960 2087 l0 -264 38 2 37 3 0 258 0 259 -37 3 -38 3 0 -264z"/>
 <path d="M2182 2089 l3 -261 38 -3 37 -2 0 264 0 263 -40 0 -40 0 2 -261z"/>
 <path d="M2405 2337 c-3 -7 -4 -124 -3 -261 l3 -249 38 -1 37 -1 0 263 0 262 -35 0 c-20 0 -38 -6 -40 -13z"/>
 <path d="M2630 2088 l0 -263 37 1 38 1 0 259 0 259 -37 3 -38 3 0 -263z"/>
 <path d="M2850 2087 l0 -264 38 2 37 3 3 261 2 261 -40 0 -40 0 0 -263z"/>
 <path d="M3152 2403 c-10 -20 -5 -44 12 -55 6 -4 47 -8 92 -8 91 0 118 12 112 51 -3 23 -5 24 -105 27 -89 2 -103 1 -111 -15z"/>
 <path d="M3156 2294 c-19 -18 -19 -20 -6 -45 9 -17 22 -19 100 -19 104 0 120 5 120 34 0 38 -19 46 -111 46 -66 0 -91 -4 -103 -16z"/>
 <path d="M3156 2178 c-11 -15 -12 -26 -5 -40 9 -17 21 -18 112 -16 98 3 102 4 105 26 6 43 -13 52 -109 52 -79 0 -89 -2 -103 -22z"/>
 <path d="M1602 1518 c-9 -9 -12 -105 -12 -399 0 -411 1 -416 47 -407 17 3 18 26 18 408 0 398 0 405 -20 408 -11 1 -26 -3 -33 -10z"/>
 <path d="M3491 1516 c-8 -9 -10 -123 -9 -401 3 -357 4 -389 21 -399 12 -8 22 -8 35 0 16 10 17 42 20 393 1 252 -1 389 -8 401 -12 23 -42 26 -59 6z"/>
 <path d="M1850 1120 l0 -370 595 0 595 0 0 370 0 370 -595 0 -595 0 0 -370z m218 -2 l-3 -293 -70 0 -70 0 -3 293 -2 292 75 0 75 0 -2 -292z m222 7 c0 -157 0 -288 0 -292 0 -5 -30 -8 -67 -8 l-68 0 -3 293 -2 292 70 0 70 0 0 -285z m228 -7 l-3 -293 -70 0 -70 0 -3 293 -2 292 75 0 75 0 -2 -292z m220 0 l-3 -293 -70 0 -70 0 -3 293 -2 292 75 0 75 0 -2 -292z m220 0 l-3 -293 -67 -3 -68 -3 0 296 0 295 70 0 70 0 -2 -292z"/>
 <path d="M1960 1120 l0 -260 40 0 40 0 0 260 0 260 -40 0 -40 0 0 -260z"/>
 <path d="M2180 1120 l0 -260 40 0 40 0 0 260 0 260 -40 0 -40 0 0 -260z"/>
 <path d="M2400 1120 l0 -260 40 0 40 0 0 260 0 260 -40 0 -40 0 0 -260z"/>
 <path d="M2630 1120 l0 -260 40 0 40 0 0 260 0 260 -40 0 -40 0 0 -260z"/>
 <path d="M2850 1120 l0 -260 40 0 40 0 0 260 0 260 -40 0 -40 0 0 -260z"/>
 <path d="M3172 1449 c-18 -7 -23 -15 -20 -36 l3 -28 105 0 105 0 3 27 c3 22 -2 30 -23 38 -33 12 -142 12 -173 -1z"/>
 <path d="M3154 1326 c-3 -8 -4 -23 -2 -33 3 -16 15 -18 108 -18 l105 0 0 30 0 30 -103 3 c-83 2 -103 0 -108 -12z"/>
 <path d="M3150 1211 c-8 -17 -6 -25 10 -41 17 -17 33 -20 98 -20 88 0 116 13 110 51 -3 23 -5 24 -105 27 -93 2 -103 1 -113 -17z"/>
 </g>
<g id="layer103" fill="#303030" stroke="none">
 <path d="M1480 2560 l0 -1890 1075 0 1075 0 0 1890 0 1890 -1075 0 -1075 0 0 -1890z m197 1848 l23 -21 0 -397 c0 -447 1 -440 -70 -440 -30 0 -43 6 -59 26 -20 26 -21 37 -21 400 0 234 4 383 10 401 21 56 75 70 117 31z m1890 0 l23 -21 0 -397 c0 -447 1 -440 -70 -440 -71 0 -70 -8 -70 442 0 385 1 399 20 418 26 26 68 25 97 -2z m-509 -30 c17 -17 17 -769 0 -786 -17 -17 -1209 -17 -1226 0 -9 9 -12 111 -12 398 0 213 3 390 7 393 3 4 279 7 613 7 458 0 609 -3 618 -12z m328 -40 c18 -17 22 -84 6 -100 -6 -6 -5 -20 5 -39 13 -25 13 -33 0 -58 -10 -20 -11 -33 -4 -40 18 -18 10 -74 -14 -93 -17 -15 -41 -18 -121 -18 -92 0 -101 2 -123 25 -28 27 -31 52 -11 80 12 16 12 22 -2 43 -13 20 -13 29 -3 58 9 24 9 39 2 53 -18 34 -12 58 21 86 31 26 36 27 130 23 73 -3 102 -8 114 -20z m-70 -479 c11 -6 28 -23 37 -39 57 -96 -49 -203 -149 -150 -51 28 -69 103 -37 150 37 55 88 68 149 39z m-1633 -421 c16 -18 17 -54 17 -418 l0 -399 -26 -20 c-33 -26 -65 -27 -95 -2 l-24 19 0 402 0 402 29 25 c33 28 70 25 99 -9z m1887 2 c19 -19 20 -33 20 -415 l0 -396 -25 -24 c-30 -30 -54 -31 -89 -4 l-26 20 0 400 c0 386 1 400 20 419 11 11 33 20 50 20 17 0 39 -9 50 -20z m-505 -415 l0 -400 -614 -3 c-445 -1 -618 1 -627 9 -19 16 -21 768 -2 787 9 9 157 12 628 10 l615 -3 0 -400z m324 339 c25 -32 26 -52 6 -81 -10 -14 -12 -24 -5 -28 5 -3 10 -24 10 -45 0 -21 -5 -42 -10 -45 -7 -4 -5 -14 5 -28 20 -29 19 -49 -6 -81 -20 -25 -24 -26 -129 -26 -85 0 -112 3 -124 16 -24 24 -30 61 -14 86 13 19 13 25 -1 50 -15 26 -15 30 0 56 14 24 14 31 3 47 -19 26 -17 48 7 79 20 25 24 26 129 26 105 0 109 -1 129 -26z m-53 -488 c28 -28 34 -42 34 -76 0 -34 -6 -48 -34 -76 -28 -28 -42 -34 -76 -34 -34 0 -48 6 -76 34 -28 28 -34 42 -34 76 0 34 6 48 34 76 28 28 42 34 76 34 34 0 48 -6 76 -34z m-1662 -367 l26 -20 0 -400 0 -400 -25 -24 c-29 -30 -64 -32 -96 -6 l-24 19 -3 388 c-3 408 -1 432 41 452 33 16 52 14 81 -9z m1890 0 l26 -20 0 -400 0 -400 -25 -24 c-30 -30 -54 -31 -89 -4 l-26 20 0 404 0 404 26 20 c15 12 34 21 44 21 10 0 29 -9 44 -21z m-506 -31 c17 -17 17 -769 0 -786 -17 -17 -1209 -17 -1226 0 -17 17 -17 769 0 786 17 17 1209 17 1226 0z m327 -48 c19 -21 23 -76 7 -92 -6 -6 -4 -20 5 -39 13 -25 13 -33 0 -58 -9 -19 -11 -33 -5 -39 18 -18 12 -73 -11 -95 -19 -20 -32 -22 -122 -22 -98 0 -101 1 -125 28 -27 32 -30 55 -10 82 11 16 11 23 -3 47 -15 26 -15 30 0 56 14 24 14 31 3 47 -19 26 -17 48 7 79 20 25 24 26 128 26 95 0 110 -2 126 -20z m-55 -487 c35 -32 47 -83 31 -125 -12 -32 -65 -68 -99 -68 -36 0 -80 27 -97 60 -25 49 -19 88 19 126 45 45 101 48 146 7z m-1650 -403 c19 -19 20 -33 20 -420 0 -387 -1 -401 -20 -420 -25 -25 -71 -26 -101 -1 l-24 19 0 400 c0 379 1 401 19 421 25 27 79 28 106 1z m1889 -6 c20 -26 21 -37 21 -417 0 -387 0 -391 -22 -414 -27 -29 -65 -29 -95 -1 l-23 21 0 396 c0 392 0 395 22 418 29 31 71 30 97 -3z m-515 -10 c14 -5 16 -50 16 -398 0 -292 -3 -395 -12 -404 -9 -9 -159 -12 -614 -12 -534 0 -604 2 -618 16 -14 13 -16 63 -16 394 0 331 2 381 16 394 14 14 83 16 614 16 329 0 605 -3 614 -6z m331 -59 c28 -27 31 -51 11 -81 -10 -13 -11 -25 -5 -35 12 -19 11 -73 -1 -85 -8 -8 -6 -20 6 -40 20 -37 6 -80 -31 -94 -42 -16 -197 -13 -222 5 -28 20 -37 60 -20 94 12 23 11 30 -2 50 -14 21 -13 26 2 53 15 27 15 32 2 51 -21 31 -19 54 10 82 22 23 31 25 125 25 94 0 103 -2 125 -25z m-75 -470 c68 -35 81 -111 29 -170 -27 -31 -37 -35 -78 -35 -67 1 -111 44 -111 111 0 82 86 132 160 94z"/>
 <path d="M1602 4388 c-17 -17 -17 -779 0 -796 18 -18 46 -14 58 7 6 13 10 153 10 388 0 317 -2 372 -16 391 -17 25 -34 28 -52 10z"/>
 <path d="M3498 4389 c-17 -9 -18 -39 -18 -397 0 -289 3 -391 12 -400 18 -18 46 -14 58 7 6 13 10 155 10 395 0 327 -2 377 -16 390 -18 19 -23 19 -46 5z"/>
 <path d="M1960 3990 l0 -260 40 0 40 0 0 260 0 260 -40 0 -40 0 0 -260z"/>
 <path d="M2180 3990 l0 -260 40 0 40 0 0 260 0 260 -40 0 -40 0 0 -260z"/>
 <path d="M2410 3990 l0 -260 35 0 35 0 0 260 0 260 -35 0 -35 0 0 -260z"/>
 <path d="M2630 3990 l0 -260 35 0 35 0 0 260 0 260 -35 0 -35 0 0 -260z"/>
 <path d="M2850 3990 l0 -260 40 0 40 0 0 260 0 260 -40 0 -40 0 0 -260z"/>
 <path d="M3157 4314 c-4 -4 -7 -18 -7 -31 0 -30 33 -43 110 -43 83 0 112 13 108 48 l-3 27 -101 3 c-55 1 -103 0 -107 -4z"/>
 <path d="M3157 4204 c-11 -11 -8 -52 3 -59 17 -11 191 -8 202 3 5 5 8 20 6 33 -3 23 -6 24 -104 27 -55 1 -103 0 -107 -4z"/>
 <path d="M3162 4088 c-6 -6 -12 -20 -12 -29 0 -32 25 -40 115 -37 71 2 90 6 99 21 8 12 8 22 0 35 -9 14 -28 18 -100 20 -61 2 -93 -1 -102 -10z"/>
 <path d="M3206 3817 c-15 -15 -26 -37 -26 -52 0 -15 11 -37 26 -52 21 -21 32 -24 62 -19 20 3 45 15 55 27 37 46 9 105 -55 115 -30 5 -41 2 -62 -19z"/>
 <path d="M1602 3418 c-9 -9 -12 -105 -12 -400 0 -381 0 -387 21 -398 15 -9 24 -8 35 1 12 10 14 72 12 408 -3 388 -3 396 -23 399 -11 1 -26 -3 -33 -10z"/>
 <path d="M3491 3416 c-8 -9 -10 -122 -9 -396 3 -352 4 -384 21 -394 12 -8 22 -8 35 0 16 10 17 42 20 388 1 248 -1 384 -8 396 -12 23 -42 26 -59 6z"/>
 <path d="M1960 3020 l0 -260 40 0 40 0 0 260 0 260 -40 0 -40 0 0 -260z"/>
 <path d="M2180 3020 l0 -260 40 0 40 0 0 260 0 260 -40 0 -40 0 0 -260z"/>
 <path d="M2410 3020 l0 -260 35 0 35 0 0 260 0 260 -35 0 -35 0 0 -260z"/>
 <path d="M2630 3020 l0 -260 35 0 35 0 0 260 0 260 -35 0 -35 0 0 -260z"/>
 <path d="M2850 3020 l0 -260 40 0 40 0 0 260 0 260 -40 0 -40 0 0 -260z"/>
 <path d="M3162 3348 c-6 -6 -12 -20 -12 -29 0 -32 25 -40 115 -37 71 2 90 6 99 21 8 12 8 22 0 35 -9 14 -28 18 -100 20 -61 2 -93 -1 -102 -10z"/>
 <path d="M3162 3238 c-7 -7 -12 -19 -12 -28 0 -9 5 -21 12 -28 16 -16 180 -16 196 0 18 18 14 46 -7 58 -28 14 -174 13 -189 -2z"/>
 <path d="M3168 3129 c-21 -12 -23 -40 -6 -57 16 -16 180 -16 196 0 18 18 14 46 -7 58 -25 13 -161 13 -183 -1z"/>
 <path d="M3209 2851 c-16 -16 -29 -38 -29 -49 0 -26 55 -82 80 -82 24 0 80 56 80 80 0 26 -54 80 -80 80 -12 0 -35 -13 -51 -29z"/>
 <path d="M1595 2477 c-3 -6 -4 -188 -3 -402 l3 -390 24 -3 c50 -7 51 3 51 401 0 235 -4 375 -10 388 -12 21 -58 26 -65 6z"/>
 <path d="M3491 2476 c-8 -9 -10 -122 -9 -396 3 -352 4 -384 21 -394 12 -8 22 -8 35 0 16 10 17 42 20 394 2 395 1 410 -38 410 -10 0 -23 -6 -29 -14z"/>
 <path d="M1960 2085 l0 -255 40 0 40 0 0 255 0 255 -40 0 -40 0 0 -255z"/>
 <path d="M2180 2085 l0 -255 40 0 40 0 0 255 0 255 -40 0 -40 0 0 -255z"/>
 <path d="M2410 2085 l0 -255 35 0 35 0 0 255 0 255 -35 0 -35 0 0 -255z"/>
 <path d="M2630 2085 l0 -255 35 0 35 0 0 255 0 255 -35 0 -35 0 0 -255z"/>
 <path d="M2850 2085 l0 -255 40 0 40 0 0 255 0 255 -40 0 -40 0 0 -255z"/>
 <path d="M3162 2408 c-7 -7 -12 -19 -12 -28 0 -31 23 -40 103 -40 85 0 117 11 117 38 0 34 -22 42 -110 42 -54 0 -91 -5 -98 -12z"/>
 <path d="M3162 2298 c-6 -6 -12 -20 -12 -29 0 -32 25 -40 115 -37 71 2 90 6 99 21 8 12 8 22 0 35 -9 14 -28 18 -100 20 -61 2 -93 -1 -102 -10z"/>
 <path d="M3162 2188 c-6 -6 -12 -20 -12 -29 0 -32 25 -40 115 -37 71 2 90 6 99 21 8 12 8 22 0 35 -9 14 -28 18 -100 20 -61 2 -93 -1 -102 -10z"/>
 <path d="M3206 1909 c-34 -40 -33 -60 4 -99 25 -26 35 -31 58 -26 32 8 72 49 72 76 0 32 -48 80 -80 80 -19 0 -36 -10 -54 -31z"/>
 <path d="M1602 1518 c-9 -9 -12 -111 -12 -399 0 -414 1 -420 50 -404 20 6 20 12 20 405 0 354 -2 399 -16 404 -22 8 -28 8 -42 -6z"/>
 <path d="M3498 1519 c-17 -9 -18 -39 -18 -399 0 -375 1 -390 19 -400 25 -13 27 -13 45 6 14 13 16 63 16 394 0 331 -2 381 -16 394 -18 19 -23 19 -46 5z"/>
 <path d="M1960 1120 l0 -260 40 0 40 0 0 260 0 260 -40 0 -40 0 0 -260z"/>
 <path d="M2180 1120 l0 -260 40 0 40 0 0 260 0 260 -40 0 -40 0 0 -260z"/>
 <path d="M2408 1120 l3 -260 34 0 35 0 0 260 0 260 -37 0 -38 0 3 -260z"/>
 <path d="M2630 1120 l0 -260 35 0 34 0 3 260 3 260 -37 0 -38 0 0 -260z"/>
 <path d="M2850 1120 l0 -260 40 0 40 0 0 260 0 260 -40 0 -40 0 0 -260z"/>
 <path d="M3172 1449 c-18 -7 -23 -15 -20 -36 l3 -28 105 0 105 0 3 27 c3 22 -2 30 -23 38 -33 12 -142 12 -173 -1z"/>
 <path d="M3154 1326 c-3 -8 -4 -23 -2 -33 3 -16 15 -18 108 -18 l105 0 0 30 0 30 -103 3 c-83 2 -103 0 -108 -12z"/>
 <path d="M3154 1216 c-3 -8 -4 -23 -2 -33 3 -16 15 -18 108 -18 l105 0 0 30 0 30 -103 3 c-83 2 -103 0 -108 -12z"/>
 <path d="M3233 970 c-32 -13 -56 -55 -49 -85 19 -77 107 -88 144 -18 17 32 15 49 -10 77 -27 29 -55 38 -85 26z"/>
 </g>
<g id="layer104" fill="#3c3c3c" stroke="none">
 <path d="M1482 3980 l3 -470 1070 0 1070 0 3 470 2 470 -1075 0 -1075 0 2 -470z m198 430 c19 -19 20 -33 20 -424 l0 -405 -26 -20 c-33 -26 -65 -27 -95 -2 l-24 19 -3 397 c-3 389 -2 397 18 425 26 37 79 41 110 10z m1891 -6 l24 -26 0 -394 c0 -380 -1 -394 -20 -413 -34 -34 -70 -37 -99 -7 l-26 25 0 405 0 405 22 15 c33 24 71 20 99 -10z m-503 -408 c1 -279 -1 -393 -9 -402 -9 -12 -116 -14 -613 -14 -361 0 -607 4 -616 10 -13 8 -15 64 -18 385 -2 253 1 382 8 395 11 20 19 20 628 18 l617 -3 3 -389z m319 338 c20 -20 24 -31 19 -57 -8 -40 -8 -54 0 -95 4 -19 2 -38 -6 -46 -8 -11 -8 -20 -1 -35 16 -30 13 -55 -10 -85 -20 -25 -24 -26 -125 -26 -98 0 -107 2 -129 25 -28 27 -33 67 -11 87 11 11 11 16 -2 36 -13 20 -13 29 -3 58 9 24 9 39 2 53 -18 33 -12 58 20 85 28 24 38 26 125 26 88 0 97 -2 121 -26z m-50 -486 c48 -48 47 -122 -3 -169 -36 -34 -112 -34 -148 0 -51 48 -54 114 -8 165 39 43 118 45 159 4z"/>
 <path d="M1600 4381 c-6 -13 -10 -157 -10 -399 0 -403 1 -409 47 -400 30 5 34 68 31 434 -2 279 -6 354 -17 367 -18 22 -38 21 -51 -2z"/>
 <path d="M3487 4383 c-11 -10 -8 -749 3 -777 11 -31 45 -35 60 -7 13 26 14 730 0 765 -9 25 -46 36 -63 19z"/>
 <path d="M2414 3985 c0 -143 2 -200 3 -127 2 73 2 190 0 260 -1 70 -3 10 -3 -133z"/>
 <path d="M2474 3985 c0 -143 2 -200 3 -127 2 73 2 190 0 260 -1 70 -3 10 -3 -133z"/>
 <path d="M2634 3985 c0 -143 2 -200 3 -127 2 73 2 190 0 260 -1 70 -3 10 -3 -133z"/>
 <path d="M2694 3985 c0 -143 2 -200 3 -127 2 73 2 190 0 260 -1 70 -3 10 -3 -133z"/>
 <path d="M3154 4294 c-10 -38 8 -48 89 -52 82 -4 127 9 127 36 0 34 -21 42 -117 42 -91 0 -93 0 -99 -26z"/>
 <path d="M3162 4198 c-15 -15 -16 -45 -2 -53 6 -4 51 -7 100 -7 49 0 94 3 100 7 14 8 13 38 -2 53 -16 16 -180 16 -196 0z"/>
 <path d="M3162 4088 c-6 -6 -12 -20 -12 -29 0 -32 25 -40 115 -37 71 2 90 6 99 21 8 12 8 22 0 35 -9 14 -28 18 -100 20 -61 2 -93 -1 -102 -10z"/>
 <path d="M3206 3817 c-15 -15 -26 -37 -26 -52 0 -15 11 -37 26 -52 21 -21 32 -24 62 -20 47 8 66 29 66 72 0 43 -19 64 -66 72 -30 4 -41 1 -62 -20z"/>
 <path d="M1602 3418 c-9 -9 -12 -104 -12 -394 0 -406 1 -411 47 -402 17 3 18 26 18 403 0 393 0 400 -20 403 -11 1 -26 -3 -33 -10z"/>
 <path d="M3491 3411 c-7 -13 -11 -146 -11 -388 0 -390 2 -410 46 -401 18 3 19 16 19 403 l0 400 -22 3 c-14 2 -26 -4 -32 -17z"/>
 <path d="M1545 3025 c0 -209 1 -296 2 -193 2 103 2 274 0 380 -1 106 -2 22 -2 -187z"/>
 <path d="M1805 3025 c0 -209 1 -296 2 -193 2 103 2 274 0 380 -1 106 -2 22 -2 -187z"/>
 <path d="M1705 3000 c0 -212 1 -298 2 -192 2 105 2 279 0 385 -1 105 -2 19 -2 -193z"/>
 <path d="M3173 3350 c-32 -13 -30 -48 3 -60 36 -14 167 -13 182 2 20 20 14 48 -14 58 -31 12 -141 12 -171 0z"/>
 <path d="M1978 3273 c12 -2 30 -2 40 0 9 3 -1 5 -23 4 -22 0 -30 -2 -17 -4z"/>
 <path d="M2208 3273 c12 -2 30 -2 40 0 9 3 -1 5 -23 4 -22 0 -30 -2 -17 -4z"/>
 <path d="M2412 3023 l3 -258 2 253 3 252 25 0 25 0 3 -252 2 -253 3 258 2 257 -35 0 -35 0 2 -257z"/>
 <path d="M2632 3023 l3 -258 2 253 3 252 25 0 25 0 3 -252 2 -253 3 258 2 257 -35 0 -35 0 2 -257z"/>
 <path d="M2868 3273 c12 -2 30 -2 40 0 9 3 -1 5 -23 4 -22 0 -30 -2 -17 -4z"/>
 <path d="M3153 3224 c-13 -35 10 -49 89 -52 92 -3 131 9 126 41 -3 21 -8 22 -106 25 -88 2 -103 0 -109 -14z"/>
 <path d="M3153 3114 c-3 -9 -2 -24 4 -33 15 -24 191 -24 206 0 6 9 7 24 4 33 -9 24 -205 24 -214 0z"/>
 <path d="M3209 2851 c-16 -16 -29 -38 -29 -49 0 -26 55 -82 80 -82 24 0 80 56 80 80 0 26 -54 80 -80 80 -12 0 -35 -13 -51 -29z"/>
 <path d="M1484 2541 c-2 -2 -4 -215 -4 -473 l0 -468 1075 0 1075 0 0 468 c0 258 -2 471 -4 473 -3 3 -24 3 -46 1 l-42 -4 29 -30 28 -29 3 -372 c3 -396 0 -434 -43 -457 -29 -16 -82 -4 -95 20 -6 12 -10 173 -10 419 l0 400 27 26 28 25 -929 0 -930 0 27 -28 28 -29 -3 -406 c-2 -285 -6 -409 -14 -417 -6 -7 -29 -14 -51 -17 -35 -5 -43 -2 -61 22 -22 27 -22 33 -22 411 0 234 4 393 10 409 6 15 19 29 30 32 38 10 20 21 -41 25 -33 1 -63 1 -65 -1z m1575 -65 c8 -9 10 -123 9 -402 l-3 -389 -609 -3 c-556 -2 -611 -1 -628 14 -17 16 -18 41 -18 390 0 325 2 375 16 388 14 14 84 16 618 16 498 0 606 -2 615 -14z m301 -29 c46 -16 62 -56 38 -97 -14 -25 -14 -31 -2 -41 8 -6 14 -24 14 -39 0 -15 -6 -33 -14 -39 -12 -10 -12 -16 1 -40 22 -37 11 -77 -27 -96 -39 -20 -181 -20 -219 0 -40 20 -56 76 -30 102 8 8 8 17 0 31 -15 29 -14 62 4 82 14 15 14 18 0 30 -35 29 -4 100 50 113 39 9 150 6 185 -6z m-30 -496 c38 -27 53 -82 35 -125 -34 -81 -114 -100 -180 -43 -31 27 -38 39 -39 73 -2 99 104 154 184 95z"/>
 <path d="M1978 2333 c12 -2 30 -2 40 0 9 3 -1 5 -23 4 -22 0 -30 -2 -17 -4z"/>
 <path d="M2208 2333 c12 -2 30 -2 40 0 9 3 -1 5 -23 4 -22 0 -30 -2 -17 -4z"/>
 <path d="M2410 2085 l0 -255 35 0 35 0 0 255 0 255 -35 0 -35 0 0 -255z m60 0 l0 -245 -25 0 -25 0 0 245 0 245 25 0 25 0 0 -245z"/>
 <path d="M2630 2085 l0 -255 35 0 35 0 0 255 0 255 -35 0 -35 0 0 -255z m60 0 l0 -245 -25 0 -25 0 0 245 0 245 25 0 25 0 0 -245z"/>
 <path d="M2868 2333 c12 -2 30 -2 40 0 9 3 -1 5 -23 4 -22 0 -30 -2 -17 -4z"/>
 <path d="M1978 1833 c12 -2 30 -2 40 0 9 3 -1 5 -23 4 -22 0 -30 -2 -17 -4z"/>
 <path d="M2208 1833 c12 -2 30 -2 40 0 9 3 -1 5 -23 4 -22 0 -30 -2 -17 -4z"/>
 <path d="M2868 1833 c12 -2 30 -2 40 0 9 3 -1 5 -23 4 -22 0 -30 -2 -17 -4z"/>
 <path d="M3162 2408 c-20 -20 -14 -48 14 -58 34 -13 150 -13 175 0 21 12 25 40 7 58 -7 7 -44 12 -98 12 -54 0 -91 -5 -98 -12z"/>
 <path d="M3162 2298 c-6 -6 -12 -20 -12 -29 0 -32 25 -40 115 -37 71 2 90 6 99 21 8 12 8 22 0 35 -9 14 -28 18 -100 20 -61 2 -93 -1 -102 -10z"/>
 <path d="M3169 2188 c-21 -8 -25 -38 -7 -56 7 -7 44 -12 98 -12 54 0 91 5 98 12 16 16 15 47 -2 54 -22 9 -165 10 -187 2z"/>
 <path d="M3234 1930 c-26 -10 -54 -48 -54 -71 0 -9 14 -31 30 -49 25 -26 35 -31 58 -26 32 8 72 50 72 76 0 23 -38 67 -65 73 -11 3 -30 2 -41 -3z"/>
 <path d="M1602 2478 c-9 -9 -12 -103 -12 -392 0 -210 4 -387 9 -394 4 -8 19 -12 32 -10 17 2 26 11 30 33 4 17 7 183 7 370 0 187 -3 354 -7 370 -7 33 -37 45 -59 23z"/>
 <path d="M3492 2478 c-17 -17 -17 -769 0 -786 20 -20 48 -14 58 14 6 15 10 173 10 379 0 206 -4 364 -10 379 -10 28 -38 34 -58 14z"/>
 <path d="M2143 1533 c170 -2 444 -2 610 0 166 1 28 2 -308 2 -335 0 -471 -1 -302 -2z"/>
 <path d="M1613 1519 l-23 -8 0 -390 c0 -384 0 -390 21 -401 48 -26 49 -18 49 400 0 413 0 417 -47 399z"/>
 <path d="M3498 1519 c-17 -9 -18 -39 -18 -399 0 -383 0 -389 21 -400 48 -26 49 -18 49 399 0 421 -1 430 -52 400z"/>
 <path d="M1805 1120 c0 -212 1 -298 2 -193 2 106 2 280 0 385 -1 106 -2 20 -2 -192z"/>
 <path d="M1545 1115 c0 -209 1 -296 2 -193 2 103 2 274 0 380 -1 106 -2 22 -2 -187z"/>
 <path d="M1705 1100 c0 -212 1 -298 2 -193 2 106 2 280 0 385 -1 106 -2 20 -2 -192z"/>
 <path d="M3172 1449 c-18 -7 -23 -15 -20 -36 l3 -28 105 0 105 0 3 27 c3 22 -2 30 -23 38 -33 12 -142 12 -173 -1z"/>
 <path d="M2408 1208 c4 -323 8 -354 10 -90 1 144 -1 262 -5 262 -5 0 -7 -78 -5 -172z"/>
 <path d="M2474 1120 c0 -146 2 -205 3 -132 2 72 2 192 0 265 -1 72 -3 13 -3 -133z"/>
 <path d="M2634 1120 c0 -146 2 -205 3 -132 2 72 2 192 0 265 -1 72 -3 13 -3 -133z"/>
 <path d="M2692 1118 c2 -264 6 -233 10 90 2 94 0 172 -4 172 -5 0 -7 -118 -6 -262z"/>
 <path d="M3159 1324 c-9 -11 -10 -20 -2 -32 8 -14 28 -17 109 -17 87 0 99 2 102 18 7 37 -16 47 -108 47 -68 0 -91 -4 -101 -16z"/>
 <path d="M3391 1261 c-12 -8 -12 -11 1 -25 14 -14 16 -13 14 9 0 14 -1 25 -1 25 0 0 -6 -4 -14 -9z"/>
 <path d="M3160 1215 c-6 -8 -10 -22 -8 -32 3 -16 16 -18 105 -21 102 -3 102 -3 109 22 3 14 3 30 -1 35 -10 18 -190 14 -205 -4z"/>
 <path d="M3208 1113 c28 -2 76 -2 105 0 28 2 5 3 -53 3 -58 0 -81 -1 -52 -3z"/>
 <path d="M3233 970 c-55 -22 -65 -88 -21 -130 38 -35 90 -23 116 27 17 32 15 49 -10 77 -27 29 -55 38 -85 26z"/>
 <path d="M2138 703 c166 -2 438 -2 605 0 166 1 30 2 -303 2 -333 0 -469 -1 -302 -2z"/>
 <path d="M3469 691 c13 -12 28 -21 34 -21 12 0 11 0 -28 24 l-30 17 24 -20z"/>
 </g>
<g id="layer105" fill="#555555" stroke="none">
 <path d="M1596 4375 c-3 -9 -6 -187 -6 -395 0 -318 2 -379 15 -390 23 -19 49 -8 56 25 9 39 9 701 0 740 -5 23 -12 31 -32 33 -17 2 -29 -3 -33 -13z"/>
 <path d="M3490 4364 c-6 -15 -10 -173 -10 -379 0 -206 4 -364 10 -379 11 -31 45 -35 60 -7 13 26 14 730 0 765 -6 16 -17 26 -30 26 -13 0 -24 -10 -30 -26z"/>
 <path d="M3162 4308 c-36 -36 9 -68 99 -68 51 0 72 5 90 19 20 16 22 23 13 38 -9 15 -27 19 -100 21 -61 2 -93 -1 -102 -10z"/>
 <path d="M3162 4198 c-15 -15 -16 -45 -2 -53 6 -4 51 -7 100 -7 49 0 94 3 100 7 14 8 13 38 -2 53 -16 16 -180 16 -196 0z"/>
 <path d="M3160 4085 c-18 -21 -8 -48 20 -56 14 -4 50 -7 80 -7 71 0 104 10 108 31 7 37 -16 47 -108 47 -64 0 -91 -4 -100 -15z"/>
 <path d="M3206 3817 c-15 -15 -26 -37 -26 -52 0 -15 11 -37 26 -52 21 -21 32 -24 62 -20 47 8 66 29 66 72 0 43 -19 64 -66 72 -30 4 -41 1 -62 -20z"/>
 <path d="M1602 3418 c-9 -9 -12 -104 -12 -394 0 -406 1 -411 47 -402 17 3 18 26 18 403 0 393 0 400 -20 403 -11 1 -26 -3 -33 -10z"/>
 <path d="M3495 3417 c-3 -6 -4 -188 -3 -402 l3 -390 25 0 25 0 3 394 c2 406 2 410 -36 411 -7 0 -15 -6 -17 -13z"/>
 <path d="M3173 3350 c-32 -13 -30 -48 3 -60 14 -6 52 -10 84 -10 74 0 110 13 110 40 0 13 -10 24 -26 30 -31 12 -141 12 -171 0z"/>
 <path d="M3157 3234 c-16 -16 -6 -45 19 -54 33 -13 135 -13 169 0 20 7 26 16 23 33 -3 21 -8 22 -104 25 -55 1 -103 0 -107 -4z"/>
 <path d="M3153 3114 c-3 -9 -2 -24 4 -33 15 -24 191 -24 206 0 6 9 7 24 4 33 -9 24 -205 24 -214 0z"/>
 <path d="M3209 2851 c-16 -16 -29 -38 -29 -49 0 -26 55 -82 80 -82 24 0 80 56 80 80 0 26 -54 80 -80 80 -12 0 -35 -13 -51 -29z"/>
 <path d="M1602 2478 c-9 -9 -12 -104 -12 -394 0 -321 2 -383 15 -394 23 -19 49 -8 56 25 9 39 9 701 0 740 -7 33 -37 45 -59 23z"/>
 <path d="M3490 2464 c-6 -15 -10 -173 -10 -379 0 -206 4 -364 10 -379 13 -35 47 -35 60 0 6 15 10 173 10 379 0 206 -4 364 -10 379 -6 16 -17 26 -30 26 -13 0 -24 -10 -30 -26z"/>
 <path d="M3162 2408 c-20 -20 -14 -48 14 -58 34 -13 150 -13 175 0 21 12 25 40 7 58 -7 7 -44 12 -98 12 -54 0 -91 -5 -98 -12z"/>
 <path d="M3173 2300 c-25 -10 -30 -39 -11 -58 7 -7 44 -12 98 -12 54 0 91 5 98 12 20 20 14 48 -14 58 -31 12 -141 12 -171 0z"/>
 <path d="M3153 2174 c-3 -9 -2 -24 4 -33 15 -24 191 -24 206 0 6 9 7 24 4 33 -9 24 -205 24 -214 0z"/>
 <path d="M3234 1930 c-26 -10 -54 -48 -54 -71 0 -9 14 -31 30 -49 25 -26 35 -31 58 -26 32 8 72 50 72 76 0 23 -38 67 -65 73 -11 3 -30 2 -41 -3z"/>
 <path d="M1620 1522 c-8 -3 -18 -10 -22 -16 -4 -6 -8 -183 -8 -393 0 -376 0 -382 21 -393 48 -26 49 -18 49 400 0 401 -1 415 -40 402z"/>
 <path d="M3497 1514 c-4 -4 -7 -184 -7 -400 0 -353 2 -392 16 -398 43 -17 44 -4 42 408 -3 385 -3 391 -23 394 -12 2 -24 0 -28 -4z"/>
 <path d="M3172 1444 c-15 -10 -22 -24 -20 -37 3 -21 8 -22 108 -22 100 0 105 1 108 22 5 34 -33 53 -108 53 -44 0 -73 -5 -88 -16z"/>
 <path d="M3159 1324 c-9 -11 -10 -20 -2 -32 8 -14 28 -17 109 -17 87 0 99 2 102 18 7 37 -16 47 -108 47 -68 0 -91 -4 -101 -16z"/>
 <path d="M3159 1214 c-9 -11 -10 -20 -2 -32 15 -24 191 -25 206 -1 6 9 7 24 4 33 -9 23 -188 24 -208 0z"/>
 <path d="M3233 970 c-55 -22 -65 -88 -21 -130 38 -35 90 -23 116 27 17 32 15 49 -10 77 -27 29 -55 38 -85 26z"/>
 </g>
<g id="layer106" fill="#ffaa2b" stroke="none">
 <path d="M3212 3817 c-29 -31 -29 -77 1 -105 29 -28 57 -28 91 -1 52 41 19 129 -49 129 -12 0 -31 -10 -43 -23z"/>
 <path d="M3207 2852 c-40 -45 -6 -122 53 -122 59 0 90 67 54 118 -20 28 -83 31 -107 4z"/>
 <path d="M3240 1933 c-51 -19 -68 -85 -30 -123 45 -45 120 -11 120 53 0 47 -49 85 -90 70z"/>
 <path d="M3212 947 c-45 -48 -16 -120 48 -120 65 0 95 76 47 121 -30 28 -68 28 -95 -1z"/>
 </g>

</svg>