<!DOCTYPE svg PUBLIC "-//W3C//DTD SVG 20010904//EN" "http://www.w3.org/TR/2001/REC-SVG-20010904/DTD/svg10.dtd">
<svg version="1.0" xmlns="http://www.w3.org/2000/svg" width="512px" height="512px" viewBox="0 0 5120 5120" preserveAspectRatio="xMidYMid meet">
<g id="layer101" fill="#05050a" stroke="none">
 <path d="M3141 4689 c-102 -18 -146 -61 -186 -186 l-26 -78 22 -87 c21 -81 22 -94 10 -165 -7 -43 -16 -168 -21 -278 -9 -220 -17 -257 -80 -410 -94 -227 -108 -263 -124 -330 -25 -108 -46 -258 -52 -385 -5 -103 -17 -165 -45 -225 -20 -45 -47 -136 -68 -230 -12 -55 -36 -143 -53 -195 -35 -106 -41 -104 -53 20 -4 41 -13 106 -20 144 l-13 69 33 33 c47 46 111 184 130 275 60 306 58 423 -11 658 -29 94 -30 125 -20 501 4 194 8 250 20 286 3 11 12 57 20 104 14 75 14 93 0 149 -18 79 -39 114 -85 146 -49 35 -83 43 -244 61 -77 8 -198 26 -269 39 -206 40 -434 31 -508 -19 -45 -30 -75 -77 -89 -142 -15 -68 -4 -109 51 -190 58 -85 82 -108 163 -153 90 -50 145 -106 192 -196 33 -65 36 -76 42 -190 7 -136 0 -187 -59 -440 -41 -179 -62 -291 -73 -390 -3 -33 -15 -85 -25 -116 -51 -151 -99 -403 -104 -549 -2 -30 -7 -64 -13 -75 -23 -42 -73 -245 -88 -351 -18 -138 -39 -497 -39 -664 1 -96 6 -144 23 -209 26 -99 41 -124 86 -145 76 -37 160 -11 202 63 15 25 30 47 34 49 4 2 48 32 98 68 49 35 93 64 98 64 4 0 28 14 53 31 88 59 136 79 193 79 l54 0 7 -48 c9 -67 27 -96 141 -226 102 -116 161 -161 251 -195 40 -15 59 -31 101 -87 29 -38 63 -83 77 -100 50 -61 164 -64 219 -6 36 39 99 239 127 402 6 36 15 162 21 280 5 118 13 260 19 315 5 55 16 174 24 265 9 91 21 226 26 300 22 280 28 311 126 635 84 279 93 337 109 690 18 377 19 379 99 638 24 80 36 137 36 178 0 33 10 99 21 147 44 178 -12 317 -144 357 -63 20 -336 29 -416 14z"/>
 </g>
<g id="layer102" fill="#18182a" stroke="none">
 <path d="M3177 4489 c-10 -6 -21 -8 -24 -5 -3 3 -14 1 -24 -5 -15 -7 -19 -21 -19 -58 0 -42 3 -49 22 -54 28 -8 31 -5 37 46 6 42 6 42 44 40 23 -2 36 1 32 7 -3 6 -11 10 -17 10 -6 0 -16 7 -22 15 -8 11 -16 12 -29 4z"/>
 <path d="M3321 4471 c-21 -11 -30 -21 -22 -25 6 -4 11 -2 11 3 0 6 9 3 19 -5 18 -16 18 -17 -9 -44 -35 -34 -29 -38 69 -46 65 -5 69 -4 99 24 34 31 42 62 18 62 -8 0 -18 -4 -21 -10 -12 -20 -25 -9 -19 15 5 21 3 25 -17 26 -13 1 -29 1 -36 0 -6 -1 -14 3 -18 9 -9 15 -35 12 -74 -9z"/>
 <path d="M1730 4425 c0 -35 79 -119 107 -113 25 5 29 46 6 64 -18 14 -61 36 -75 38 -3 1 -10 4 -14 9 -9 8 -24 10 -24 2z"/>
 <path d="M1558 4413 c-24 -6 -22 -23 5 -53 12 -14 18 -20 13 -13 -13 20 8 16 81 -17 36 -17 69 -28 71 -25 3 3 -12 24 -34 47 -21 22 -33 37 -26 33 10 -5 13 -2 10 11 -2 15 -13 19 -53 21 -28 0 -58 -1 -67 -4z"/>
 <path d="M1690 4405 c0 -8 7 -15 16 -15 10 0 14 -6 11 -15 -4 -9 9 -26 34 -46 47 -37 64 -31 25 8 -16 15 -34 40 -42 55 -15 30 -44 38 -44 13z"/>
 <path d="M2170 4390 c5 -8 21 -27 37 -42 25 -24 48 -32 136 -52 20 -5 33 -17 43 -41 20 -49 17 -57 -6 -13 -20 37 -26 41 -123 62 -15 4 -46 23 -69 44 l-42 37 35 -63 c34 -63 66 -85 92 -64 6 5 27 7 46 5 28 -5 36 -13 53 -49 10 -24 23 -44 28 -44 6 0 10 -9 10 -20 0 -11 5 -20 10 -20 26 0 3 140 -30 190 -10 14 -15 31 -12 39 4 11 -7 13 -56 9 -38 -4 -65 -1 -72 6 -10 8 -11 7 -8 -3 2 -8 20 -20 39 -27 19 -7 27 -13 18 -13 -9 -1 -30 4 -48 10 -28 10 -36 20 -32 42 0 4 -5 6 -11 5 -7 -2 -12 2 -11 7 1 6 -7 11 -17 11 -14 0 -16 -4 -10 -16z"/>
 <path d="M3103 4345 c0 -8 4 -12 9 -9 4 3 8 2 8 -3 0 -4 42 -10 93 -11 50 -2 96 -8 102 -13 5 -6 4 -9 -5 -9 -11 0 -11 -3 -2 -12 17 -17 15 -45 -3 -52 -8 -3 -12 -12 -9 -19 4 -10 -7 -16 -36 -21 -52 -8 -115 -40 -124 -61 -3 -9 -6 -43 -6 -75 0 -45 4 -61 17 -69 16 -8 15 -11 -7 -29 -14 -11 -26 -19 -27 -18 -1 1 3 64 8 140 10 136 6 196 -5 99 -4 -26 -11 -76 -16 -109 -6 -34 -10 -99 -10 -145 0 -82 -15 -247 -26 -281 -3 -10 -1 -18 4 -18 5 0 21 44 36 98 16 53 32 111 37 128 5 17 22 42 36 55 l27 24 -28 -35 c-23 -28 -27 -41 -23 -73 3 -22 2 -50 -3 -62 -12 -31 -19 -176 -10 -200 7 -19 9 -18 19 8 6 15 16 69 22 120 6 50 14 94 19 97 4 3 6 15 5 28 -1 13 2 25 7 28 15 9 8 24 -8 17 -12 -4 -15 -1 -12 13 3 16 12 19 56 18 34 -1 60 -8 72 -19 20 -18 40 -90 45 -170 8 -108 16 -171 25 -185 9 -15 15 20 25 148 3 40 9 80 14 90 4 9 20 62 34 117 14 55 31 120 38 145 6 25 15 53 20 62 5 10 4 29 -2 47 -6 16 -9 40 -6 53 3 17 5 15 6 -9 2 -46 17 -41 17 5 -1 20 3 60 7 89 7 47 6 52 -13 58 -17 5 -19 10 -9 21 15 18 10 18 -37 -2 -32 -13 -62 -15 -170 -10 -73 3 -138 8 -145 10 -46 14 -66 15 -66 1z m307 -90 c10 -13 9 -15 -8 -15 -15 0 -20 5 -16 15 4 8 7 15 9 15 1 0 8 -7 15 -15z m74 -68 c11 -8 16 -21 13 -33 -4 -18 -5 -18 -6 2 -1 12 -12 24 -28 31 -16 6 -21 11 -12 12 8 1 23 -5 33 -12z m-179 -32 c0 -10 6 -20 13 -23 20 -6 14 -29 -9 -35 -19 -5 -21 -11 -16 -44 5 -26 3 -33 -3 -23 -9 13 -11 13 -20 0 -13 -20 -12 -31 3 -29 30 4 37 -2 35 -31 -2 -31 -12 -35 -55 -24 -15 4 -23 14 -24 28 0 11 -3 15 -6 9 -2 -7 -9 -13 -14 -13 -4 0 -6 7 -3 15 4 8 12 15 20 15 8 0 14 5 14 10 0 6 -6 10 -12 10 -9 0 -13 17 -12 53 0 28 -3 60 -8 70 -7 14 -3 20 24 31 38 16 73 7 73 -19z m172 -57 c-2 -7 -1 -20 3 -28 5 -8 2 -33 -5 -54 -8 -22 -11 -44 -8 -49 3 -6 1 -7 -5 -3 -16 10 -3 146 14 146 3 0 4 -6 1 -12z m-283 -113 c-4 -8 -9 -15 -13 -15 -4 0 -8 7 -8 15 0 8 6 15 13 15 8 0 11 -6 8 -15z m212 -15 c27 -9 29 -15 31 -63 2 -40 0 -47 -7 -29 -5 12 -8 28 -6 35 1 6 1 9 -1 5 -8 -13 -41 15 -36 30 3 8 0 18 -8 23 -19 12 -8 11 27 -1z m-226 -225 c0 -8 -4 -17 -10 -20 -6 -4 -10 5 -10 20 0 15 4 24 10 20 6 -3 10 -12 10 -20z"/>
 <path d="M1884 4327 c-33 -33 -47 -42 -71 -43 -13 0 -59 -1 -103 -2 -104 -3 -107 -22 -3 -22 42 0 74 -2 71 -5 -3 -3 12 -23 32 -45 32 -34 45 -42 89 -47 35 -4 51 -2 51 6 0 6 -17 11 -39 11 -22 0 -43 5 -47 11 -4 8 1 9 17 4 23 -7 23 -6 -6 25 -16 18 -39 36 -50 40 -17 8 -18 9 -2 9 22 1 132 -54 159 -79 11 -10 26 -16 34 -13 8 3 28 0 45 -6 26 -9 29 -9 20 3 -7 8 -23 17 -37 20 -37 10 -165 68 -160 73 2 3 19 -3 37 -13 41 -21 201 -75 206 -70 3 2 -14 12 -36 22 -23 10 -41 24 -41 32 0 21 -58 75 -75 69 -7 -3 -16 -1 -18 6 -3 9 -13 7 -37 -5 -33 -19 -68 -25 -38 -7 20 11 43 49 31 49 -4 0 -18 -10 -29 -23z"/>
 <path d="M3220 4234 c0 -12 -6 -15 -25 -12 -14 3 -30 -1 -36 -8 -8 -10 -1 -12 33 -9 42 3 63 25 39 40 -6 3 -11 -1 -11 -11z"/>
 <path d="M1790 4180 c0 -5 4 -10 9 -10 5 0 18 -3 28 -6 16 -5 16 -4 -1 10 -23 18 -36 20 -36 6z"/>
 <path d="M3147 4183 c-12 -12 -7 -22 8 -17 8 4 15 10 15 15 0 11 -14 12 -23 2z"/>
 <path d="M2019 4134 c30 -13 59 -23 65 -21 14 5 -76 47 -100 46 -10 0 5 -11 35 -25z"/>
 <path d="M1835 4140 c-4 -6 5 -10 19 -10 14 0 26 5 26 10 0 6 -9 10 -19 10 -11 0 -23 -4 -26 -10z"/>
 <path d="M2192 4113 c19 -21 38 -45 41 -53 4 -10 6 -8 6 6 1 13 -13 35 -34 53 -49 43 -57 39 -13 -6z"/>
 <path d="M1931 4091 c-15 -27 -14 -54 5 -101 l16 -40 64 0 63 0 -25 25 c-14 14 -29 25 -34 25 -5 0 -21 22 -35 49 -30 60 -41 68 -54 42z"/>
 <path d="M2030 4098 c8 -8 21 -20 29 -28 10 -11 12 -12 6 -1 -5 9 -3 12 6 9 8 -2 27 -31 43 -64 37 -73 33 -69 50 -55 22 19 -9 88 -53 117 -42 27 -106 44 -81 22z"/>
 <path d="M2201 4043 c13 -15 12 -15 -9 -4 -32 17 -38 8 -8 -12 22 -15 25 -15 30 -1 7 18 0 34 -16 34 -6 0 -5 -7 3 -17z"/>
 <path d="M1997 3932 c-14 -3 -17 -10 -13 -25 3 -12 6 -32 6 -44 0 -27 12 -29 34 -8 18 18 36 19 70 4 28 -13 47 -40 125 -176 29 -50 60 -94 69 -98 12 -5 12 -1 -4 16 l-19 22 23 -12 c12 -6 22 -18 22 -25 0 -8 7 -19 16 -27 8 -7 24 -29 35 -48 14 -26 18 -29 13 -11 -3 14 -15 39 -25 56 -16 26 -119 262 -119 272 0 2 5 0 11 -4 16 -9 -9 36 -34 64 -11 12 -25 22 -31 22 -5 0 4 -15 22 -33 18 -18 32 -36 32 -41 0 -4 -15 9 -34 28 -19 20 -47 39 -66 42 -17 4 -34 13 -37 21 -5 12 -7 12 -14 1 -7 -10 -11 -10 -17 -1 -7 12 -26 13 -65 5z m110 -42 c16 -6 39 -23 50 -38 36 -50 36 -57 1 -18 -19 22 -50 45 -69 52 -19 7 -29 13 -23 13 6 1 24 -4 41 -9z"/>
 <path d="M2397 3915 c-3 -16 -9 -47 -13 -68 -6 -33 -8 -36 -22 -25 -15 12 -15 11 -1 -12 9 -14 19 -46 23 -70 12 -85 18 -110 27 -104 11 6 11 213 0 269 l-7 40 -7 -30z"/>
 <path d="M3282 3838 c-1 -24 -8 -79 -14 -123 -14 -96 -17 -719 -4 -850 5 -49 6 -88 3 -85 -3 3 -8 34 -11 68 -9 107 -50 228 -67 201 -13 -21 -11 -5 7 48 9 26 23 52 31 57 13 7 15 30 9 150 -3 77 -9 215 -12 306 -7 174 -14 225 -14 99 0 -170 -34 -484 -61 -566 -10 -32 -32 -43 -44 -23 -10 16 -22 12 -57 -20 -18 -16 -28 -30 -23 -30 4 0 -2 -11 -15 -25 -12 -13 -26 -22 -31 -20 -4 3 -10 1 -13 -4 -3 -4 19 -6 49 -4 76 7 152 -13 172 -44 21 -32 50 -138 57 -210 l6 -58 -21 70 c-11 39 -21 75 -22 80 -1 6 -6 16 -10 23 -5 6 -5 12 -1 12 3 0 -1 10 -9 23 -8 13 -17 34 -19 48 -2 17 -10 25 -28 26 -14 1 -18 -1 -8 -3 21 -7 31 -31 14 -37 -7 -3 -39 1 -72 8 -54 11 -56 12 -25 16 45 5 54 29 11 29 -40 0 -85 -26 -100 -58 -14 -31 -5 -40 18 -19 35 32 150 12 177 -30 26 -39 53 -126 59 -190 5 -45 4 -52 -4 -28 -5 16 -12 42 -14 58 -6 40 -38 140 -47 151 -5 5 -11 3 -14 -6 -5 -13 -12 -14 -38 -5 -18 5 -38 12 -46 14 -11 3 -10 7 5 17 18 14 17 15 -10 22 -21 5 -39 2 -58 -9 -16 -9 -34 -14 -41 -11 -8 3 -31 -21 -57 -56 -24 -33 -45 -58 -48 -56 -6 6 16 44 70 117 26 37 48 73 48 80 0 7 -14 -7 -32 -32 -17 -24 -45 -61 -61 -83 -20 -26 -31 -52 -33 -80 -1 -22 -6 -69 -10 -103 -8 -70 0 -80 22 -28 18 44 18 54 -1 29 -19 -25 -19 -18 2 42 16 47 35 78 78 127 11 13 17 18 13 13 -12 -15 -10 -28 3 -20 8 4 8 1 0 -13 -14 -27 -41 -106 -37 -110 2 -2 18 21 37 52 20 34 40 55 51 55 10 0 18 7 18 16 0 14 8 16 46 11 25 -2 53 -13 63 -22 9 -10 10 -15 4 -11 -16 9 -16 7 2 -44 20 -57 19 -61 -5 -22 -21 34 -72 62 -113 62 -17 0 -32 -13 -54 -47 -49 -78 -49 -80 0 -35 48 43 87 53 126 32 19 -10 51 -77 51 -108 0 -9 9 -28 19 -42 l19 -24 8 39 8 40 7 -35 c5 -19 8 -62 8 -95 0 -33 0 -75 1 -92 0 -51 -16 -39 -27 20 l-10 52 -2 -65 c0 -37 -5 -70 -10 -75 -11 -13 -27 -191 -46 -545 -9 -157 -25 -337 -35 -400 -40 -238 -43 -254 -51 -234 -7 17 -8 16 -8 -5 -1 -13 -4 -21 -8 -18 -3 4 -8 121 -10 260 -1 138 -7 268 -12 287 -9 34 -9 33 -11 -20 -2 -49 -4 -45 -15 45 -7 55 -15 127 -18 160 -6 58 -6 58 5 18 8 -32 16 -43 31 -43 15 0 18 5 13 23 -3 12 -10 46 -16 75 -7 28 -16 52 -21 52 -5 0 -10 8 -10 18 -1 9 -5 -1 -9 -23 l-8 -40 1 47 c0 26 -2 51 -6 54 -4 4 -7 3 -7 -2 0 -5 -18 -8 -40 -6 -39 4 -80 38 -80 66 0 6 9 -4 20 -21 14 -24 27 -33 47 -33 26 0 26 1 8 14 -11 8 -23 12 -26 10 -4 -2 -9 3 -13 11 -3 9 0 15 9 15 8 0 15 8 15 18 0 10 6 27 14 37 8 11 12 25 9 32 -3 7 5 26 16 42 12 16 21 34 21 41 0 24 43 111 54 107 6 -2 17 -16 24 -30 16 -33 28 -28 37 16 13 67 27 100 36 86 6 -11 9 -11 13 1 13 37 36 205 31 221 -9 27 -24 23 -36 -8 -5 -15 -21 -38 -34 -51 -14 -14 -25 -30 -25 -36 -1 -6 -2 -34 -3 -62 -3 -59 -22 -91 -43 -73 -19 15 -18 53 2 95 9 19 14 41 10 49 -16 44 -114 -14 -136 -81 -15 -44 -7 -68 10 -32 11 24 40 47 40 32 0 -3 -25 -53 -55 -111 -30 -58 -55 -115 -55 -127 1 -20 2 -20 14 -3 7 9 17 17 21 17 11 0 -4 -50 -22 -74 l-15 -21 6 21 c5 17 3 22 -10 20 -12 -1 -21 11 -27 34 -10 32 -11 33 -15 10 -2 -14 -9 -31 -14 -37 -6 -7 -13 -57 -15 -112 l-5 -98 48 -36 c67 -50 74 -56 74 -67 0 -9 -52 21 -102 60 l-26 20 -12 -34 c-6 -19 -10 -61 -8 -95 3 -51 6 -60 20 -55 9 2 19 0 23 -6 10 -16 23 -12 57 20 30 29 32 30 48 12 10 -10 16 -29 15 -43 -1 -13 -3 -29 -4 -36 0 -7 -8 -10 -18 -6 -15 5 -16 3 -5 -8 14 -15 16 -52 3 -77 -5 -9 -26 -62 -47 -117 -20 -55 -41 -103 -46 -106 -5 -3 -6 -14 -2 -24 5 -13 4 -16 -5 -11 -7 5 -10 18 -7 30 8 34 28 308 22 313 -3 3 -16 -7 -30 -21 -23 -26 -25 -26 -31 -7 -3 12 -3 25 0 31 12 20 -14 10 -28 -11 -11 -15 -16 -17 -20 -7 -8 23 -17 2 -28 -63 -7 -38 -9 -144 -6 -264 3 -114 1 -176 -3 -145 -5 30 -8 89 -9 131 -2 117 -13 232 -22 218 -4 -7 -10 -36 -14 -64 -10 -84 -17 -109 -25 -95 -4 7 -7 0 -7 -17 -1 -73 -17 -233 -23 -223 -4 6 -10 -13 -14 -42 -3 -29 -9 -74 -12 -100 -6 -42 -3 -53 26 -98 18 -28 41 -55 51 -60 17 -10 17 -8 -1 32 -16 36 -19 64 -18 173 l1 130 7 -135 c6 -124 9 -141 38 -203 18 -37 42 -79 55 -93 25 -29 97 -74 118 -74 8 0 -3 10 -23 22 l-37 22 3 215 c4 234 15 391 26 391 20 0 28 -35 36 -150 11 -164 9 -212 -11 -250 -15 -30 -15 -39 1 -133 9 -56 17 -110 16 -119 0 -13 7 -18 23 -18 13 0 27 -5 30 -10 4 -6 10 -8 15 -5 5 3 13 -3 19 -12 8 -14 11 -15 11 -3 0 12 3 11 11 -2 15 -26 26 -22 33 14 3 17 8 29 11 26 3 -2 0 -19 -5 -37 -7 -25 -6 -41 6 -62 18 -36 23 -37 16 -3 -2 14 5 67 16 117 11 51 31 136 43 190 11 54 23 96 26 93 3 -2 -2 -44 -11 -93 -9 -48 -21 -114 -27 -146 -7 -44 -7 -62 2 -73 7 -9 9 -27 4 -52 -16 -81 -15 -133 3 -139 9 -4 20 -10 23 -15 7 -10 53 130 75 229 9 40 19 158 24 288 5 121 14 256 20 299 6 44 9 91 7 105 -3 13 -1 36 3 50 5 14 13 85 19 156 7 72 21 231 31 355 20 226 29 291 50 365 6 22 14 51 17 65 2 14 20 72 38 130 52 164 75 246 74 261 -1 8 -11 -17 -24 -56 -13 -38 -24 -63 -24 -55 -1 8 -8 74 -16 145 -17 151 -19 262 -5 267 5 2 15 38 21 81 12 82 0 206 -22 233 -13 16 3 120 30 196 25 69 31 149 12 172 -23 28 -37 18 -39 -26z m-132 -744 c47 -10 20 -20 -42 -15 -39 3 -48 6 -33 12 26 10 36 10 75 3z m50 -695 c0 -11 -4 -17 -10 -14 -5 3 -10 13 -10 21 0 8 5 14 10 14 6 0 10 -9 10 -21z m-10 -50 c0 -5 -5 -7 -11 -3 -7 4 -9 0 -5 -13 3 -11 2 -42 -3 -69 -5 -27 -15 -130 -23 -229 -7 -99 -14 -165 -16 -146 -4 39 26 450 34 463 7 12 24 10 24 -3z m-401 -147 c0 -24 -1 -25 -9 -7 -12 28 -12 47 0 40 6 -3 10 -18 9 -33z m-226 -904 c3 -43 2 -78 -3 -78 -4 0 -8 37 -9 82 -3 102 5 100 12 -4z m404 -45 c-3 -10 -5 -2 -5 17 0 19 2 27 5 18 2 -10 2 -26 0 -35z m62 -273 c-4 -41 -9 -102 -10 -135 -2 -58 -2 -58 -10 25 -8 91 9 258 21 210 4 -14 3 -59 -1 -100z m-431 2 c6 -33 6 -50 0 -44 -5 5 -11 36 -13 68 -5 65 0 57 13 -24z m133 37 c-6 -16 -10 -18 -10 -7 -1 22 12 55 16 42 2 -6 -1 -22 -6 -35z m276 -286 c-3 -10 -5 -2 -5 17 0 19 2 27 5 18 2 -10 2 -26 0 -35z m-10 -80 c-3 -10 -5 -2 -5 17 0 19 2 27 5 18 2 -10 2 -26 0 -35z"/>
 <path d="M2307 3845 c6 -32 11 -41 17 -34 2 2 -2 18 -10 34 l-13 30 6 -30z"/>
 <path d="M2040 3826 c0 -20 2 -36 4 -36 8 0 12 61 4 66 -4 3 -8 -11 -8 -30z"/>
 <path d="M2076 3759 c4 -18 1 -28 -10 -32 -10 -4 -16 -18 -16 -38 0 -38 17 -35 35 7 10 25 10 36 -1 60 -12 27 -13 28 -8 3z"/>
 <path d="M2140 3750 c0 -14 -3 -56 -6 -95 -5 -49 -3 -67 4 -60 14 14 24 146 12 165 -8 12 -10 10 -10 -10z"/>
 <path d="M2300 3709 c0 -12 5 -19 12 -17 18 6 20 25 3 31 -10 5 -15 0 -15 -14z"/>
 <path d="M3394 3340 c0 -69 1 -97 3 -62 2 34 2 90 0 125 -2 34 -3 6 -3 -63z"/>
 <path d="M1919 3117 c-9 -7 -20 -32 -24 -57 -6 -37 -5 -43 6 -33 24 19 117 19 139 0 11 -9 20 -13 20 -7 0 5 -5 12 -11 15 -5 4 -8 12 -6 18 3 11 -85 77 -101 77 -4 0 -14 -6 -23 -13z"/>
 <path d="M2392 3077 c-19 -20 -23 -34 -20 -73 l3 -49 23 59 c29 74 26 98 -6 63z"/>
 <path d="M1910 3006 c0 -8 -7 -16 -15 -20 -8 -3 -15 -15 -15 -26 0 -20 1 -20 16 -6 10 11 34 16 69 16 51 0 55 -2 70 -33 8 -18 43 -64 75 -101 87 -98 111 -150 126 -274 6 -57 17 -109 24 -115 10 -9 11 -8 7 8 -3 11 -8 59 -12 107 -9 114 -42 185 -135 286 -38 43 -70 85 -70 94 0 10 -23 29 -57 47 -62 34 -83 38 -83 17z"/>
 <path d="M2242 2956 c-29 -30 -52 -58 -52 -62 0 -4 12 -18 26 -31 21 -19 29 -22 35 -11 5 7 9 19 9 26 0 7 9 38 20 69 11 31 18 58 16 60 -1 2 -26 -21 -54 -51z"/>
 <path d="M2080 2996 c0 -11 72 -121 82 -124 27 -11 71 -60 90 -101 34 -75 78 -212 78 -245 0 -28 -1 -29 -14 -10 -14 18 -15 18 -21 1 -4 -10 -8 -30 -9 -45 -1 -15 -5 -34 -10 -42 -5 -8 2 -5 16 8 13 12 30 22 36 22 7 0 12 5 12 11 0 5 4 8 9 4 6 -3 15 4 22 16 10 20 9 21 -7 15 -13 -4 -10 2 9 19 15 14 24 25 18 25 -5 0 -13 -4 -16 -10 -10 -17 -31 -11 -32 9 -3 34 -64 205 -89 248 -13 23 -40 54 -60 69 -19 15 -53 52 -75 82 -21 31 -39 52 -39 48z"/>
 <path d="M1903 2937 c3 -7 -4 -19 -14 -25 -10 -7 -19 -19 -19 -28 0 -14 2 -14 16 0 8 9 23 16 32 16 15 0 15 -2 2 -10 -13 -8 -12 -10 3 -10 23 0 67 -29 67 -44 0 -8 -3 -8 -8 1 -8 13 -55 33 -77 33 -20 0 -45 -28 -45 -51 0 -19 1 -19 16 -5 8 9 31 16 49 16 28 0 37 -6 50 -30 9 -16 17 -30 20 -30 3 0 2 54 -4 108 0 6 -13 13 -28 13 -25 2 -26 2 -5 6 41 8 51 -6 138 -192 20 -44 37 -88 36 -98 -1 -17 35 -97 43 -97 2 0 3 15 3 33 0 18 -25 80 -54 139 -30 59 -53 111 -52 115 1 5 -3 18 -10 29 -6 12 -9 24 -6 27 3 3 -4 10 -15 17 -12 6 -19 15 -17 19 8 12 -31 44 -44 36 -6 -3 -9 -1 -8 7 2 9 -10 14 -36 16 -30 3 -37 0 -33 -11z"/>
 <path d="M2465 2825 c-3 -31 -5 -59 -2 -61 3 -3 8 20 12 51 3 31 5 59 2 61 -3 3 -8 -20 -12 -51z"/>
 <path d="M2901 2809 c-27 -55 -19 -64 9 -9 12 23 19 44 16 47 -2 3 -14 -14 -25 -38z"/>
 <path d="M2160 2835 c0 -3 10 -19 22 -35 16 -22 24 -27 30 -18 11 18 10 25 -8 42 -15 15 -44 22 -44 11z"/>
 <path d="M2125 2769 c4 -12 2 -24 -4 -28 -7 -5 -4 -18 10 -40 l20 -34 16 23 c15 21 15 25 -2 56 -21 39 -50 56 -40 23z"/>
 <path d="M1870 2760 c19 -13 30 -13 30 0 0 6 -10 10 -22 10 -19 0 -20 -2 -8 -10z"/>
 <path d="M2850 2638 c-20 -42 -20 -42 -1 -18 19 23 34 60 25 60 -2 0 -13 -19 -24 -42z"/>
 <path d="M2804 2565 c-9 -14 -14 -28 -10 -32 3 -3 6 -1 6 5 0 6 10 20 22 32 12 11 17 20 10 20 -6 0 -19 -11 -28 -25z"/>
 <path d="M1809 2554 c-10 -12 -13 -57 -14 -165 0 -82 -3 -149 -7 -149 -3 0 -13 -3 -21 -6 -9 -3 -17 2 -21 13 -3 10 -4 1 -1 -20 2 -21 -3 -56 -11 -78 -7 -23 -11 -45 -8 -50 3 -5 1 -9 -4 -9 -12 0 -59 -158 -71 -240 -32 -205 -57 -552 -54 -725 2 -102 23 -225 37 -225 11 0 27 32 40 75 3 11 23 28 43 37 52 22 91 55 77 65 -6 5 -13 15 -16 23 -3 9 -10 1 -17 -22 -10 -31 -16 -36 -30 -29 -14 8 -16 22 -13 97 4 93 -3 138 -18 129 -6 -3 -11 2 -12 12 -1 10 -5 -13 -8 -52 -4 -40 -5 -6 -3 80 2 83 6 159 9 170 2 11 6 35 8 54 2 19 12 40 21 48 14 10 16 15 6 27 -9 11 -11 61 -9 183 3 146 6 174 24 213 l21 45 -4 -60 c-2 -33 -10 -98 -18 -145 -15 -88 -17 -160 -4 -160 4 0 10 7 13 16 8 22 8 26 -4 19 -15 -10 -12 41 4 54 19 16 24 -1 19 -78 -6 -99 3 -105 42 -26 18 38 32 72 31 75 -2 3 5 19 15 35 10 17 23 40 29 52 11 26 36 22 45 -7 3 -10 13 -24 21 -31 12 -10 20 -7 46 17 25 24 29 26 25 9 -3 -11 -9 -33 -12 -50 -6 -29 -6 -29 9 -11 16 19 16 19 16 -6 0 -15 -5 -28 -11 -30 -15 -5 -2 -47 14 -44 7 1 22 8 35 14 19 11 22 21 22 75 0 76 -16 137 -35 137 -10 0 -15 12 -16 38 -1 20 -4 48 -8 61 -6 22 -9 21 -50 -33 -43 -55 -71 -71 -71 -40 0 23 -41 96 -65 115 -11 10 -22 31 -23 48 -3 34 7 41 83 61 48 12 70 30 118 94 30 38 37 56 37 92 0 26 -5 44 -11 44 -12 0 -112 -79 -178 -140 -36 -33 -71 -51 -99 -49 -11 0 -8 4 8 10 14 5 37 29 52 53 27 42 27 46 18 117 -5 41 -10 97 -10 126 0 56 -10 72 -31 47z"/>
 <path d="M2094 2495 c-21 -19 -33 -34 -25 -33 7 2 24 13 37 26 13 12 28 22 34 22 5 0 10 5 10 10 0 18 -16 11 -56 -25z"/>
 <path d="M1896 2443 c7 -71 20 -101 37 -84 11 11 -20 138 -35 147 -5 3 -6 -24 -2 -63z"/>
 <path d="M2177 2418 c8 -43 23 -60 23 -26 0 32 -9 58 -21 58 -5 0 -6 -15 -2 -32z"/>
 <path d="M1990 2393 c-38 -26 -88 -73 -78 -73 3 0 24 15 46 33 22 17 48 37 58 43 11 7 17 14 14 16 -3 3 -21 -6 -40 -19z"/>
 <path d="M3001 2273 c-13 -104 -29 -151 -53 -159 -10 -3 -16 -10 -12 -15 3 -6 12 -8 20 -5 10 4 14 -3 14 -22 0 -15 9 -68 19 -117 11 -50 23 -120 26 -156 5 -47 14 -75 30 -95 13 -16 26 -27 28 -24 3 3 11 95 17 205 6 110 15 239 18 288 4 48 5 87 2 87 -3 0 -14 -16 -24 -35 -10 -19 -26 -41 -35 -49 -15 -14 -16 -11 -13 27 4 43 -10 44 -22 2 -3 -11 -3 19 0 68 3 48 4 87 1 87 -2 0 -9 -39 -16 -87z m16 -113 c-3 -21 -17 -40 -17 -22 0 13 11 42 16 42 2 0 3 -9 1 -20z"/>
 <path d="M1860 2285 c-13 -14 -21 -27 -18 -30 2 -3 17 9 33 25 16 17 24 30 19 30 -6 0 -21 -11 -34 -25z"/>
 <path d="M2179 2238 c0 -18 -3 -42 -6 -53 -3 -11 -5 -77 -4 -147 1 -101 5 -138 21 -180 45 -118 56 -105 53 65 -2 123 -9 180 -35 300 -12 54 -28 62 -29 15z"/>
 <path d="M2302 2215 c0 -16 4 -43 8 -60 11 -42 11 -1 1 50 -7 34 -9 35 -9 10z"/>
 <path d="M2342 1955 c0 -11 6 -42 13 -70 7 -27 13 -41 13 -30 0 11 -6 43 -13 70 -7 28 -13 41 -13 30z"/>
 <path d="M2230 1721 c-12 -8 -7 -11 22 -11 20 0 59 -5 87 -11 43 -9 50 -14 54 -37 4 -25 4 -24 6 5 1 23 -5 35 -19 43 -28 15 -132 23 -150 11z"/>
 <path d="M1720 1658 c0 -19 2 -20 10 -8 13 19 13 30 0 30 -5 0 -10 -10 -10 -22z"/>
 <path d="M2046 1667 c-18 -13 -31 -67 -17 -67 14 0 51 46 51 63 0 20 -10 21 -34 4z"/>
 <path d="M1993 1631 c-9 -11 -22 -17 -29 -14 -17 6 -18 -9 -2 -25 7 -7 8 -12 3 -12 -6 0 -10 -14 -11 -31 -1 -38 6 -29 39 44 27 60 27 69 0 38z"/>
 <path d="M2038 1581 c-19 -22 -42 -66 -52 -98 -28 -87 -28 -92 -7 -45 11 23 25 42 32 42 6 0 9 6 6 13 -8 20 11 57 26 51 9 -3 20 7 31 29 29 62 13 65 -36 8z"/>
 <path d="M2240 1540 c-11 -7 1 -10 40 -10 99 0 128 -9 133 -39 3 -20 4 -18 6 10 1 30 -3 38 -21 43 -36 9 -141 7 -158 -4z"/>
 <path d="M1886 1430 c-53 -117 -67 -160 -58 -177 7 -11 15 -1 33 44 13 32 22 65 20 73 -2 12 1 11 16 -3 11 -9 23 -14 26 -10 4 3 7 -4 7 -17 0 -31 16 -15 26 25 6 26 5 28 -8 18 -12 -11 -18 -9 -32 6 -14 16 -15 23 -6 41 6 11 10 31 8 43 -2 15 -11 4 -32 -43z"/>
 <path d="M1847 1429 c4 -13 9 -17 15 -11 11 11 3 32 -12 32 -4 0 -6 -9 -3 -21z"/>
 <path d="M2040 1358 c-20 -36 -30 -46 -30 -32 0 11 5 25 12 32 9 9 9 12 0 12 -6 0 -16 -10 -23 -21 -13 -25 -19 -100 -7 -93 4 3 8 -4 8 -16 0 -20 1 -20 30 -5 19 10 30 24 31 38 0 12 4 48 8 80 4 31 6 57 4 57 -1 0 -16 -24 -33 -52z"/>
 <path d="M1901 1251 c-12 -32 -28 -64 -36 -71 -19 -16 -19 -11 1 35 25 60 12 48 -29 -26 -20 -38 -33 -69 -27 -69 5 0 10 5 10 11 0 5 4 8 9 5 15 -10 58 49 81 110 11 31 19 58 17 61 -2 2 -14 -23 -26 -56z"/>
 <path d="M2367 1264 c18 -8 38 -23 45 -34 19 -30 28 -24 28 18 0 23 -3 32 -8 24 -7 -10 -15 -10 -36 -2 -41 15 -66 11 -29 -6z"/>
 <path d="M1897 1168 c-38 -55 -42 -78 -7 -37 25 29 53 79 47 85 -2 2 -20 -20 -40 -48z"/>
 <path d="M1987 1194 c-21 -14 -36 -28 -33 -31 4 -5 76 45 76 53 0 7 -5 5 -43 -22z"/>
 </g>
<g id="layer103" fill="#39395f" stroke="none">
 <path d="M3121 4467 c-6 -8 -9 -16 -7 -18 2 -2 6 -17 10 -34 5 -22 4 -26 -4 -15 -8 13 -10 13 -10 -2 0 -10 7 -18 15 -18 8 0 15 -4 15 -10 0 -5 4 -10 9 -10 5 0 12 19 16 43 3 23 9 50 11 60 4 13 -1 17 -19 17 -14 0 -30 -6 -36 -13z"/>
 <path d="M3331 4466 c-12 -14 -11 -16 7 -16 27 0 35 -15 21 -38 -14 -22 -5 -56 14 -49 7 2 11 20 10 45 -1 28 2 39 10 36 8 -3 11 -21 9 -49 -4 -42 -2 -45 21 -45 24 0 77 34 77 50 0 4 -9 10 -21 13 -15 4 -19 11 -15 25 8 23 -3 29 -72 38 -37 5 -51 2 -61 -10z"/>
 <path d="M1730 4422 c0 -18 62 -93 86 -104 20 -10 27 -9 35 3 5 8 8 21 6 29 -2 16 -127 87 -127 72z"/>
 <path d="M1562 4410 c-34 -14 -23 -30 33 -51 28 -11 65 -26 83 -36 17 -9 34 -14 37 -11 3 2 -11 23 -31 46 -24 28 -30 40 -17 36 13 -5 15 -4 8 4 -14 16 -86 23 -113 12z"/>
 <path d="M1698 4413 c-2 -5 21 -33 50 -63 l53 -55 -46 63 c-48 64 -51 67 -57 55z"/>
 <path d="M2189 4372 c17 -31 64 -59 117 -67 63 -9 82 -30 97 -102 14 -72 27 -91 27 -42 0 102 -38 152 -129 167 -47 8 -72 19 -94 39 -27 25 -28 26 -18 5z"/>
 <path d="M3130 4338 c0 -4 14 -8 30 -8 17 0 30 2 30 4 0 2 -13 6 -30 8 -16 3 -30 1 -30 -4z"/>
 <path d="M1878 4315 l-28 -24 53 -26 c29 -14 62 -27 72 -30 11 -2 30 -7 41 -10 19 -6 21 -3 17 19 -6 31 -22 41 -82 51 -34 6 -42 4 -36 -6 6 -9 3 -11 -9 -6 -10 4 -23 7 -29 7 -6 0 0 11 13 25 30 32 23 32 -12 0z"/>
 <path d="M3468 4334 c-3 -3 -43 -6 -89 -6 -46 0 -75 -3 -64 -7 22 -7 33 -55 16 -75 -6 -7 -6 -17 -1 -26 7 -10 10 -11 10 -2 0 6 5 12 10 12 6 0 10 -6 10 -12 0 -8 18 -14 51 -16 31 -2 49 1 45 7 -3 5 -1 11 6 13 7 3 -7 5 -31 6 -57 2 -65 9 -47 37 15 22 14 25 -2 34 -16 10 -16 10 2 11 10 0 25 -8 33 -17 13 -17 14 -17 29 5 9 12 22 22 30 22 7 0 16 5 19 10 6 10 -17 14 -27 4z"/>
 <path d="M3470 4291 l-35 -29 30 -7 c17 -4 37 -9 46 -11 12 -3 18 4 23 27 11 57 -12 64 -64 20z"/>
 <path d="M2200 4303 c0 -26 54 -61 65 -43 8 13 51 13 75 0 11 -6 26 -23 34 -38 11 -18 15 -22 16 -10 0 32 -43 68 -95 78 -27 5 -60 12 -72 16 -13 3 -23 2 -23 -3z"/>
 <path d="M1788 4283 c-10 -2 -18 -9 -18 -14 0 -13 13 -11 36 6 19 14 14 17 -18 8z"/>
 <path d="M1630 4270 c0 -6 22 -10 50 -9 28 1 50 6 50 11 0 4 -22 8 -50 8 -27 0 -50 -5 -50 -10z"/>
 <path d="M3300 4189 c39 -14 51 -57 35 -121 -7 -29 -16 -70 -20 -91 -6 -36 -5 -38 17 -35 13 2 23 10 23 20 0 27 10 29 48 13 49 -20 65 -19 39 4 -12 10 -22 29 -23 42 l0 24 -11 -25 -11 -25 -5 24 c-2 13 -14 33 -25 43 -21 18 -21 19 -2 13 11 -4 28 -7 37 -7 9 0 22 -6 29 -14 20 -24 29 -16 29 30 0 60 -27 91 -91 105 -27 6 -60 11 -72 10 -21 -1 -20 -1 3 -10z"/>
 <path d="M3461 4138 c18 -29 34 -55 36 -58 2 -2 1 16 -3 40 -7 51 -10 55 -42 65 -22 6 -22 5 9 -47z"/>
 <path d="M3171 4166 c-32 -18 -39 -38 -40 -109 l-1 -58 38 3 c25 2 36 7 34 17 -1 7 3 20 10 28 7 9 8 17 2 21 -5 4 -9 31 -9 60 1 57 1 57 -34 38z"/>
 <path d="M2035 4130 c21 -11 40 -18 43 -16 5 6 -54 36 -70 36 -7 0 5 -9 27 -20z"/>
 <path d="M1929 4076 c-15 -33 15 -130 38 -122 8 3 23 6 33 6 17 0 18 2 4 28 -7 15 -14 31 -14 35 0 17 -32 77 -41 77 -5 0 -14 -11 -20 -24z"/>
 <path d="M2077 4073 c15 -16 37 -47 47 -70 22 -50 36 -55 36 -14 0 34 -31 76 -70 96 -42 22 -46 18 -13 -12z"/>
 <path d="M3107 4037 c-4 -10 -7 -28 -6 -40 0 -21 1 -21 10 2 5 14 8 32 7 40 -3 13 -5 13 -11 -2z"/>
 <path d="M3141 3960 c-20 -12 -39 -78 -51 -170 -5 -41 -12 -91 -15 -110 -12 -65 12 -9 40 95 15 55 33 107 41 116 19 21 18 30 -3 22 -10 -3 -15 -3 -11 1 3 4 14 9 24 10 22 3 31 26 11 26 -9 0 -17 4 -19 10 -2 6 -9 6 -17 0z"/>
 <path d="M3200 3931 c0 -11 5 -23 12 -27 8 -5 9 -2 5 9 -3 10 -2 17 3 17 6 0 10 5 10 10 0 6 -7 10 -15 10 -8 0 -15 -9 -15 -19z"/>
 <path d="M1998 3923 c-18 -37 -2 -93 18 -62 4 7 24 9 50 6 51 -5 56 0 14 14 -16 6 -27 15 -24 20 3 5 -10 9 -28 10 -27 0 -30 2 -13 9 16 7 17 9 3 9 -9 1 -18 -2 -20 -6z"/>
 <path d="M3289 3922 c11 -8 11 -10 0 -14 -9 -3 -2 -11 18 -21 43 -23 58 -71 68 -222 4 -50 10 -106 14 -125 7 -32 8 -30 15 30 9 96 13 328 6 341 -4 6 -36 13 -71 15 -41 3 -59 1 -50 -4z m81 -53 c6 -11 9 -25 6 -32 -2 -7 -5 -4 -5 6 -1 10 -13 30 -28 44 -23 21 -24 24 -6 14 13 -6 27 -21 33 -32z m17 -111 c-2 -13 -4 -3 -4 22 0 25 2 35 4 23 2 -13 2 -33 0 -45z"/>
 <path d="M2199 3876 c14 -14 27 -26 29 -26 10 0 -26 44 -39 48 -8 3 -3 -7 10 -22z"/>
 <path d="M2177 3858 c27 -29 53 -81 120 -237 8 -18 16 -31 19 -28 3 3 -18 59 -47 126 -50 117 -85 171 -110 171 -7 0 1 -15 18 -32z"/>
 <path d="M3286 3838 c-3 -24 -8 -77 -11 -118 -6 -67 -5 -73 8 -57 22 27 50 186 36 204 -19 22 -26 15 -33 -29z"/>
 <path d="M2131 3844 c9 -10 35 -55 58 -99 52 -99 71 -120 36 -41 -46 103 -65 135 -88 147 -21 11 -21 11 -6 -7z"/>
 <path d="M2160 3853 c0 -7 5 -15 10 -18 6 -4 27 -42 47 -86 20 -44 38 -78 40 -76 7 7 -59 152 -78 172 -10 11 -19 14 -19 8z"/>
 <path d="M1912 3108 c-18 -18 -14 -32 5 -17 15 12 16 12 9 -6 -12 -32 -12 -40 2 -39 6 1 23 2 37 3 14 0 24 6 23 14 -2 6 5 11 14 11 31 -3 9 15 -27 22 -19 3 -35 10 -35 15 0 13 -14 11 -28 -3z"/>
 <path d="M3043 3068 c-41 -20 -35 -36 15 -43 71 -9 130 -34 137 -56 4 -11 9 -19 11 -16 7 7 -27 95 -41 107 -20 16 -95 21 -122 8z"/>
 <path d="M3258 3045 c-3 -5 3 -84 13 -175 l18 -165 -5 135 c-4 139 -15 223 -26 205z"/>
 <path d="M1892 2978 c-7 -7 -12 -16 -12 -22 0 -6 5 -5 12 2 7 7 21 12 33 12 16 0 17 2 5 10 -19 13 -24 12 -38 -2z"/>
 <path d="M2995 2950 c-4 -6 12 -10 42 -9 36 0 43 3 28 9 -28 12 -63 12 -70 0z"/>
 <path d="M3127 2920 c37 -22 54 -51 79 -135 10 -34 19 -52 22 -42 5 24 -44 146 -71 175 -11 12 -30 22 -41 22 -17 0 -15 -3 11 -20z"/>
 <path d="M1889 2911 c-32 -26 -21 -33 14 -11 16 10 24 20 19 24 -6 3 -21 -3 -33 -13z"/>
 <path d="M2868 2873 c-28 -33 -31 -48 -3 -20 15 16 25 30 23 33 -3 2 -12 -4 -20 -13z"/>
 <path d="M2993 2883 c9 -2 25 -2 35 0 9 3 1 5 -18 5 -19 0 -27 -2 -17 -5z"/>
 <path d="M2080 2874 c0 -3 20 -26 44 -52 25 -26 56 -68 70 -92 31 -54 34 -46 5 13 -18 35 -119 147 -119 131z"/>
 <path d="M1882 2858 c-20 -20 -15 -40 7 -28 30 16 50 12 76 -15 26 -25 33 -18 15 16 -6 10 -19 19 -30 19 -10 0 -22 5 -25 10 -8 14 -28 13 -43 -2z"/>
 <path d="M3140 2862 c0 -7 -4 -10 -10 -7 -5 3 -10 2 -10 -4 0 -15 18 -23 22 -9 3 7 7 5 11 -6 4 -10 3 -15 -3 -11 -13 8 -13 -8 0 -21 15 -15 60 -222 60 -278 0 -42 2 -47 15 -36 9 8 15 30 15 57 0 25 4 42 9 38 17 -10 29 59 20 111 -4 27 -8 68 -8 92 -1 23 -5 42 -10 42 -5 0 -6 -29 -3 -65 3 -42 1 -65 -6 -65 -6 0 -13 6 -16 13 -3 6 -4 3 -1 -8 3 -11 1 -33 -4 -50 -7 -23 -10 -25 -11 -10 -4 42 -18 94 -31 118 -5 10 -7 22 -4 27 3 5 -3 26 -14 47 -11 21 -20 32 -21 25z"/>
 <path d="M2877 2827 c-25 -29 -34 -47 -23 -47 8 0 59 70 55 75 -3 2 -17 -10 -32 -28z"/>
 <path d="M2998 2823 c-15 -4 -68 -74 -68 -90 0 -4 12 5 28 18 15 14 40 33 55 43 15 9 25 21 22 26 -6 10 -9 11 -37 3z"/>
 <path d="M3120 2810 c1 -18 49 -129 50 -114 0 6 -7 33 -16 60 -17 52 -34 79 -34 54z"/>
 <path d="M3064 2795 c11 -8 25 -15 30 -15 6 0 2 7 -8 15 -11 8 -25 15 -30 15 -6 0 -2 -7 8 -15z"/>
 <path d="M3123 2707 c14 -46 25 -63 38 -64 13 -1 19 5 19 20 0 16 -3 18 -9 9 -5 -9 -13 1 -25 32 -28 73 -45 75 -23 3z"/>
 <path d="M2100 2706 c0 -11 40 -86 45 -86 3 0 -4 19 -16 43 -23 45 -29 54 -29 43z"/>
 <path d="M3057 2693 c-10 -9 -9 -23 2 -23 5 0 11 7 15 15 5 15 -5 20 -17 8z"/>
 <path d="M2243 2565 c0 -27 2 -38 4 -22 2 15 2 37 0 50 -2 12 -4 0 -4 -28z"/>
 <path d="M2857 2592 c-10 -10 -17 -29 -17 -43 0 -23 0 -23 13 -4 13 18 29 65 23 65 -2 0 -10 -8 -19 -18z"/>
 <path d="M1807 2531 c-4 -18 -6 -52 -6 -75 1 -40 2 -39 10 14 11 64 8 114 -4 61z"/>
 <path d="M2330 2499 c0 -5 -4 -8 -9 -4 -6 3 -15 -3 -21 -14 -7 -13 -7 -22 0 -26 6 -3 13 1 16 9 3 9 10 13 15 10 5 -3 9 4 9 15 0 12 -2 21 -5 21 -3 0 -5 -5 -5 -11z"/>
 <path d="M3160 2404 c-8 -8 -14 -25 -16 -37 -16 -155 -46 -678 -39 -685 6 -6 14 75 25 278 13 236 29 403 38 410 6 4 12 50 7 50 -2 0 -8 -7 -15 -16z"/>
 <path d="M2842 2345 c-12 -25 -22 -56 -22 -68 0 -29 -19 -57 -27 -39 -3 7 -13 21 -22 30 -10 9 -21 26 -26 37 -7 17 -9 14 -20 -20 -7 -22 -15 -77 -19 -122 l-6 -82 59 -42 c55 -38 60 -45 75 -103 19 -73 30 -134 25 -139 -2 -2 3 -12 11 -23 14 -17 14 -18 -2 -6 -14 11 -18 10 -29 -10 -6 -13 -18 -27 -25 -31 -8 -4 -14 -13 -14 -18 0 -6 4 -8 9 -5 5 4 7 -3 4 -14 -3 -11 -9 -17 -14 -14 -5 3 -9 3 -9 0 0 -2 -13 -41 -30 -86 -16 -45 -25 -78 -20 -75 15 9 12 -2 -7 -31 -9 -15 -12 -29 -7 -32 9 -7 19 -150 19 -289 0 -47 4 -79 9 -75 6 3 6 -3 1 -14 -15 -35 -19 -77 -6 -70 13 9 15 -18 2 -42 -5 -10 -6 -33 -1 -52 4 -19 8 -30 9 -25 2 12 21 -16 21 -30 0 -5 -5 -3 -10 5 -7 11 -10 12 -10 2 0 -21 31 -82 41 -82 6 0 5 10 -1 22 -10 20 -9 21 2 6 7 -9 19 -25 25 -35 20 -28 -14 55 -43 107 -14 25 -18 38 -10 30 9 -9 33 -51 55 -95 l39 -80 15 35 14 35 -5 -51 c-3 -32 0 -54 7 -58 7 -5 11 3 11 20 0 26 13 91 56 274 20 84 34 338 20 343 -5 2 -10 68 -10 148 0 93 -2 124 -6 89 -4 -30 -7 -43 -8 -28 -1 15 -12 36 -23 47 -21 19 -21 20 -2 15 14 -4 22 0 25 13 6 23 -33 363 -42 363 -16 0 -30 -55 -25 -103 4 -52 4 -52 -6 -12 -12 47 -5 98 16 115 16 13 19 49 9 88 -4 15 -14 22 -30 22 -59 0 -96 44 -118 145 l-7 30 24 -29 c27 -33 21 -41 64 77 29 80 26 96 -5 32z m-3 -877 c-7 -12 -16 -50 -19 -83 l-7 -60 -2 52 c-1 46 25 130 37 119 2 -2 -2 -15 -9 -28z m132 -254 c0 -74 -5 -131 -17 -179 -23 -92 -29 -68 -9 39 8 47 15 88 14 93 -4 21 2 166 6 162 2 -3 5 -54 6 -115z m-144 29 c-3 -10 -5 -2 -5 17 0 19 2 27 5 18 2 -10 2 -26 0 -35z m-30 -160 c-2 -16 -4 -5 -4 22 0 28 2 40 4 28 2 -13 2 -35 0 -50z"/>
 <path d="M2038 2352 c2 -16 -3 -45 -12 -65 -18 -45 -14 -47 14 -7 17 24 21 39 16 65 -8 42 -24 47 -18 7z"/>
 <path d="M1980 2333 c-14 -9 -56 -43 -93 -75 -62 -53 -82 -62 -127 -59 -10 0 -11 -1 -3 -5 8 -4 11 -15 7 -30 -4 -15 -2 -24 5 -24 9 0 9 -5 1 -20 -6 -11 -16 -17 -22 -14 -6 4 -8 3 -5 -2 3 -6 -10 -50 -29 -100 -19 -49 -32 -73 -28 -54 3 19 13 50 20 69 8 19 12 36 9 39 -10 10 -48 -118 -64 -218 -15 -99 -35 -299 -34 -350 1 -67 -17 -298 -24 -317 -4 -10 -2 -14 4 -10 8 5 9 -12 6 -53 -5 -55 10 -166 27 -199 5 -9 15 4 32 41 24 52 25 57 12 119 -20 96 -2 481 25 524 3 6 6 89 6 185 0 169 1 177 27 233 30 64 41 73 31 25 -5 -24 -3 -29 7 -23 7 5 10 20 7 40 -6 35 5 61 21 51 6 -3 12 2 14 11 2 12 26 24 73 39 38 12 71 26 72 31 2 6 -20 2 -49 -7 -100 -33 -106 -34 -62 -5 22 15 49 42 58 60 10 18 28 38 39 45 19 10 74 70 65 70 -2 0 -15 -8 -28 -17z m-333 -890 c-3 -10 -5 -2 -5 17 0 19 2 27 5 18 2 -10 2 -26 0 -35z"/>
 <path d="M3093 2228 c-22 -47 -82 -105 -115 -112 -18 -4 -28 -10 -23 -14 13 -9 43 -153 59 -277 8 -66 17 -98 33 -118 12 -15 23 -24 26 -20 2 4 5 40 6 78 2 39 8 162 15 275 7 113 12 206 11 208 -1 1 -7 -8 -12 -20z"/>
 <path d="M1748 2218 c8 -8 17 -8 34 0 22 10 21 11 -11 11 -27 1 -32 -2 -23 -11z"/>
 <path d="M2992 2175 c-14 -31 -15 -35 -3 -35 9 0 25 49 18 56 -2 2 -9 -7 -15 -21z"/>
 <path d="M2801 2182 c-1 -8 7 -27 16 -43 17 -29 33 -38 33 -19 0 6 -4 10 -8 10 -5 0 -16 15 -25 33 -8 17 -16 26 -16 19z"/>
 <path d="M2688 2024 c-5 -4 -8 -26 -7 -48 0 -37 1 -39 10 -16 11 27 8 76 -3 64z"/>
 <path d="M3153 1985 c0 -22 2 -30 4 -17 2 12 2 30 0 40 -3 9 -5 -1 -4 -23z"/>
 <path d="M2830 1801 c0 -5 -3 -18 -6 -28 -5 -16 -4 -16 10 1 18 23 20 36 6 36 -5 0 -10 -4 -10 -9z"/>
 <path d="M2593 1757 c-4 -17 -7 -140 -7 -272 2 -262 -8 -248 -22 30 -7 139 -10 158 -15 105 -3 -36 -7 -56 -9 -45 -8 56 -19 -93 -19 -272 -1 -194 0 -205 25 -273 15 -39 29 -69 31 -66 3 3 -2 33 -11 68 -11 45 -17 123 -19 270 -2 114 -2 206 0 204 2 -1 10 -89 18 -195 8 -106 22 -237 30 -292 18 -116 18 -119 5 -99 -5 8 -10 10 -10 4 0 -16 59 -69 67 -60 4 4 2 10 -4 14 -7 4 -11 21 -9 37 1 17 -1 38 -6 48 -5 10 -5 17 2 17 5 0 10 5 10 11 0 5 -4 7 -10 4 -15 -9 -13 148 2 163 9 9 9 12 -1 12 -10 0 -12 59 -10 294 3 261 1 295 -13 310 -15 15 -17 13 -25 -17z"/>
 <path d="M2285 1714 c17 -3 47 -9 69 -14 28 -6 35 -5 28 2 -6 6 -37 12 -69 14 -32 1 -44 0 -28 -2z"/>
 <path d="M3103 1630 c0 -25 2 -35 4 -22 2 12 2 32 0 45 -2 12 -4 2 -4 -23z"/>
 <path d="M2285 1540 c-4 -6 17 -10 57 -9 47 1 57 3 38 9 -36 12 -88 12 -95 0z"/>
 <path d="M3096 1538 c-3 -7 -7 -33 -11 -58 -19 -133 -26 -210 -35 -355 -19 -303 -45 -515 -62 -515 -7 0 -9 27 -5 73 3 44 2 60 -3 42 -4 -16 -8 -49 -9 -73 -1 -30 -5 -41 -13 -36 -7 4 -8 3 -4 -5 4 -6 11 -9 16 -6 5 3 13 -2 18 -10 10 -18 61 141 82 255 11 59 27 371 26 497 -1 28 2 49 6 47 4 -3 7 31 5 75 -2 80 -4 92 -11 69z"/>
 <path d="M2498 1340 c-4 -30 -10 -109 -14 -175 -6 -108 -5 -122 12 -143 19 -23 19 -21 16 140 -4 226 -5 247 -14 178z"/>
 <path d="M2387 1260 c12 -5 26 -17 31 -27 6 -10 14 -14 19 -10 10 11 -34 47 -56 46 -11 0 -10 -3 6 -9z"/>
 <path d="M2450 1108 c0 -15 5 -30 10 -33 13 -8 13 25 0 45 -8 12 -10 9 -10 -12z"/>
 <path d="M2982 895 c0 -22 3 -62 8 -90 l7 -50 1 70 c0 39 -3 79 -8 90 -7 16 -9 11 -8 -20z"/>
 <path d="M2746 815 c-9 -23 -8 -25 9 -25 17 0 19 9 6 28 -7 11 -10 10 -15 -3z"/>
 </g>
<g id="layer104" fill="#5c5c60" stroke="none">
 <path d="M3343 4473 c-21 -8 -15 -22 7 -16 11 3 20 9 20 14 0 10 -8 10 -27 2z"/>
 <path d="M3380 4465 c0 -8 9 -15 20 -15 11 0 20 2 20 5 0 2 -9 9 -20 15 -16 9 -20 8 -20 -5z"/>
 <path d="M3130 4451 c0 -35 12 -81 22 -81 5 0 8 16 7 34 -2 19 0 38 4 42 13 13 7 24 -13 24 -13 0 -20 -7 -20 -19z"/>
 <path d="M3425 4440 c-3 -10 -1 -28 4 -39 13 -24 14 -31 2 -31 -5 0 -11 8 -13 18 -3 14 -5 13 -10 -5 -5 -20 -2 -23 22 -23 34 0 59 25 42 42 -7 7 -12 22 -12 35 0 28 -26 31 -35 3z"/>
 <path d="M1550 4400 c-11 -7 -5 -13 30 -29 25 -11 58 -23 74 -27 l29 -7 -28 37 c-21 28 -34 36 -59 36 -17 0 -38 -5 -46 -10z"/>
 <path d="M1749 4392 c6 -12 16 -24 22 -28 8 -4 8 -1 0 14 -6 12 -16 24 -22 28 -8 4 -8 1 0 -14z"/>
 <path d="M2280 4319 c94 -28 103 -34 116 -69 7 -19 13 -52 13 -73 1 -24 5 -36 12 -32 13 9 3 78 -17 117 -20 38 -50 55 -109 61 -46 6 -47 5 -15 -4z"/>
 <path d="M1650 4270 l-25 -8 28 -1 c15 -1 27 4 27 9 0 6 -1 10 -2 9 -2 -1 -14 -5 -28 -9z"/>
 <path d="M3360 4180 c0 -5 6 -10 13 -10 9 0 12 -10 10 -32 -4 -31 -3 -32 11 -13 8 11 20 26 26 33 8 9 6 12 -9 12 -11 0 -23 5 -26 10 -3 6 -10 10 -16 10 -5 0 -9 -4 -9 -10z"/>
 <path d="M3457 4154 c9 -15 19 -21 21 -15 6 19 -6 41 -23 41 -14 0 -13 -3 2 -26z"/>
 <path d="M3162 4154 c-19 -13 -22 -24 -22 -85 0 -49 4 -69 13 -69 16 0 32 12 33 25 17 134 13 155 -24 129z"/>
 <path d="M3416 4123 c-14 -29 -14 -31 8 -52 l24 -22 6 37 c6 27 3 41 -7 52 -13 13 -17 11 -31 -15z"/>
 <path d="M1937 4073 c-21 -20 8 -113 35 -113 20 0 18 24 -8 88 -14 34 -16 36 -27 25z"/>
 <path d="M2112 4035 c21 -42 38 -58 38 -35 0 20 -29 67 -44 73 -12 5 -10 -4 6 -38z"/>
 <path d="M3137 3933 c-4 -3 -7 -11 -7 -17 0 -7 3 -7 8 0 4 7 16 14 27 17 19 5 19 5 -1 6 -11 0 -24 -2 -27 -6z"/>
 <path d="M3315 3915 c57 -25 67 -46 77 -160 7 -76 6 -110 -1 -119 -8 -9 -9 -29 -4 -57 l8 -44 6 55 c11 89 10 244 -2 279 -12 34 -53 62 -91 60 -21 -1 -20 -2 7 -14z"/>
 <path d="M2005 3900 c-8 -13 15 -13 35 0 12 8 11 10 -7 10 -12 0 -25 -4 -28 -10z"/>
 <path d="M3290 3903 c1 -5 15 -17 32 -28 18 -11 35 -31 39 -45 7 -25 7 -25 8 -2 1 14 -11 36 -28 53 -28 28 -51 38 -51 22z"/>
 <path d="M2190 3853 c13 -18 25 -33 27 -33 8 0 -17 38 -33 51 -11 9 -9 2 6 -18z"/>
 <path d="M3294 3850 c0 -11 4 -20 8 -20 4 0 8 9 8 20 0 11 -4 20 -8 20 -4 0 -8 -9 -8 -20z"/>
 <path d="M3114 3852 c-6 -4 -11 -14 -11 -22 0 -8 -3 -37 -6 -65 l-7 -50 14 35 c13 35 30 110 24 110 -2 0 -8 -4 -14 -8z"/>
 <path d="M2160 3816 c0 -11 30 -66 36 -66 2 0 -3 15 -12 33 -19 36 -24 44 -24 33z"/>
 <path d="M1930 3070 c-12 -22 -4 -25 20 -10 11 7 11 10 2 10 -7 0 -10 5 -7 10 3 6 4 10 1 10 -3 0 -10 -9 -16 -20z"/>
 <path d="M3047 3055 c-24 -18 -21 -22 18 -27 28 -3 35 0 35 13 0 21 -32 30 -53 14z"/>
 <path d="M3141 3053 c12 -15 12 -16 -3 -10 -12 4 -15 2 -11 -9 7 -19 63 -49 63 -34 0 16 -21 54 -34 62 -20 14 -29 8 -15 -9z"/>
 <path d="M3273 2905 c0 -22 2 -30 4 -17 2 12 2 30 0 40 -3 9 -5 -1 -4 -23z"/>
 <path d="M1940 2844 c8 -4 23 -16 34 -28 l18 -21 -14 25 c-9 14 -24 26 -34 27 -13 2 -14 1 -4 -3z"/>
 <path d="M2979 2803 c-40 -49 -41 -55 -1 -24 23 18 42 35 42 37 0 11 -29 2 -41 -13z"/>
 <path d="M3120 2728 c0 -2 7 -21 15 -43 8 -23 14 -31 14 -20 1 30 -10 65 -20 65 -5 0 -9 -1 -9 -2z"/>
 <path d="M3233 2610 c0 -30 2 -43 4 -27 2 15 2 39 0 55 -2 15 -4 2 -4 -28z"/>
 <path d="M3155 2390 c-4 -6 -9 -34 -11 -63 -3 -29 -7 -57 -9 -64 -2 -7 0 -15 5 -18 6 -4 10 9 11 27 0 18 2 40 4 48 8 39 13 80 10 80 -2 0 -7 -5 -10 -10z"/>
 <path d="M2745 2253 c3 -23 8 -50 12 -60 6 -17 6 -17 -14 0 -21 18 -21 18 -28 -3 -4 -12 -2 -27 4 -33 17 -17 14 -58 -4 -51 -42 16 5 -39 72 -85 21 -14 37 -38 48 -69 8 -26 22 -58 30 -72 14 -25 14 -24 15 18 0 41 13 81 31 92 4 3 5 26 2 53 -6 47 -6 47 -43 47 -49 0 -68 22 -102 123 -22 63 -27 73 -23 40z"/>
 <path d="M1854 2227 c-16 -13 -35 -26 -43 -29 -8 -2 -15 -12 -17 -21 -2 -16 0 -16 27 0 36 21 75 61 67 68 -3 3 -18 -5 -34 -18z"/>
 <path d="M3089 2214 c-7 -14 -38 -49 -68 -76 l-55 -50 22 -96 c12 -54 25 -131 28 -172 5 -50 13 -84 26 -103 11 -16 22 -26 25 -24 4 5 9 72 18 232 10 206 16 281 21 298 8 25 -1 21 -17 -9z"/>
 <path d="M3128 2170 c-1 -28 0 -50 5 -50 4 0 7 23 7 50 0 65 -7 65 -12 0z"/>
 <path d="M1783 2128 c-6 -7 -16 -24 -22 -38 -12 -24 -12 -24 4 -5 20 24 37 55 32 55 -3 0 -9 -6 -14 -12z"/>
 <path d="M3122 2025 c-1 -27 -5 -61 -7 -75 l-6 -25 11 25 c6 13 9 47 7 75 l-3 50 -2 -50z"/>
 <path d="M2903 1947 c-6 -14 -8 -28 -4 -33 4 -5 13 -40 19 -79 29 -184 36 -219 40 -195 5 28 -27 298 -38 318 -4 9 -10 6 -17 -11z"/>
 <path d="M1686 1883 c-5 -13 -12 -23 -16 -23 -10 0 -24 -74 -23 -120 1 -19 -3 -57 -8 -85 -5 -27 -10 -104 -12 -170 -4 -112 1 -111 17 4 6 43 16 69 16 40 -1 -43 -29 -209 -39 -228 -14 -25 -23 -250 -12 -301 5 -25 9 6 14 104 4 76 11 144 17 151 5 6 8 14 5 17 -5 4 29 225 42 278 8 33 16 253 10 310 -3 37 -5 41 -11 23z"/>
 <path d="M2880 1800 c0 -19 7 -68 15 -109 11 -53 13 -77 5 -85 -7 -7 -10 -5 -8 9 5 38 -24 155 -38 155 -8 0 -14 -10 -14 -26 0 -28 -16 -65 -34 -76 -7 -5 -6 -8 3 -8 10 0 11 -3 2 -13 -6 -8 -8 -17 -4 -20 3 -4 1 -7 -6 -7 -7 0 -9 -5 -6 -10 3 -6 0 -13 -8 -16 -7 -2 -14 -11 -15 -19 -1 -8 -3 -22 -4 -30 -1 -8 -5 -15 -9 -15 -4 0 -7 -12 -5 -27 1 -16 -2 -40 -6 -54 -6 -17 -3 -123 7 -273 l16 -246 45 -90 c25 -50 49 -90 52 -90 11 1 79 185 102 274 26 105 25 253 -5 476 -13 98 -30 118 -58 67 -14 -26 -16 -27 -11 -7 9 33 24 51 36 44 12 -7 4 49 -18 139 -19 80 -33 103 -34 57z m-29 -213 c-8 -8 -11 -6 -11 7 0 9 -5 14 -10 11 -6 -4 -8 -11 -5 -16 4 -5 1 -9 -4 -9 -6 0 -11 4 -11 9 0 13 26 32 33 24 4 -3 8 0 8 8 1 8 3 6 6 -5 3 -10 0 -23 -6 -29z m16 -59 c-39 -85 -49 -126 -45 -178 1 -28 0 -50 -4 -50 -5 0 -8 19 -9 43 0 23 -1 57 -2 75 -1 17 2 32 6 32 5 0 5 5 1 12 -4 6 -3 8 2 5 6 -3 23 23 38 59 16 36 31 63 33 60 2 -2 -6 -28 -20 -58z m-17 31 c0 -5 -5 -9 -11 -9 -5 0 -7 -4 -4 -10 3 -5 4 -10 1 -10 -3 0 -10 8 -15 18 -8 14 -6 18 10 19 10 1 19 -2 19 -8z m-57 -40 c-8 -17 -17 -29 -19 -26 -7 6 20 66 27 61 4 -2 1 -18 -8 -35z m92 -6 c-4 -10 -18 -47 -31 -83 -12 -36 -23 -57 -23 -48 -1 20 48 148 56 148 3 0 2 -8 -2 -17z m-92 -95 c-10 -19 -19 -5 -20 30 l-1 37 13 -30 c7 -16 10 -33 8 -37z m164 -10 c-2 -13 -4 -5 -4 17 -1 22 1 32 4 23 2 -10 2 -28 0 -40z m16 -137 c7 -125 -3 -209 -37 -296 l-16 -40 5 35 c2 19 11 70 20 113 13 65 14 82 3 95 -10 12 -10 14 -1 8 10 -5 12 15 10 93 -1 56 1 101 4 101 3 0 9 -49 12 -109z m-126 -33 c-2 -18 -4 -6 -4 27 0 33 2 48 4 33 2 -15 2 -42 0 -60z m-20 5 c-3 -10 -5 -2 -5 17 0 19 2 27 5 18 2 -10 2 -26 0 -35z m89 -138 c2 -32 0 -55 -3 -52 -3 3 -15 -5 -28 -19 -13 -14 -26 -21 -29 -15 -4 5 3 12 14 16 11 3 20 12 21 18 4 43 0 109 -6 115 -5 4 -5 0 0 -8 5 -8 4 -12 0 -7 -5 4 -10 18 -12 30 l-4 22 22 -22 c17 -16 23 -36 25 -78z m-100 56 c-14 -16 -17 -32 -14 -75 2 -30 1 -53 -2 -51 -4 2 -7 27 -9 54 -1 36 3 58 16 75 10 13 20 22 22 20 2 -2 -4 -13 -13 -23z m125 -42 c-6 -16 -10 -18 -10 -7 -1 22 12 55 16 42 2 -6 -1 -22 -6 -35z m-101 -231 c0 -5 4 -6 10 -3 5 3 7 0 4 -9 -5 -12 -8 -12 -25 2 -23 20 -25 34 -4 26 8 -4 15 -10 15 -16z m53 -51 c-15 -46 -16 -47 -30 -27 -8 12 -12 24 -9 27 3 4 6 1 6 -5 0 -24 16 -11 29 24 19 52 22 37 4 -19z"/>
 <path d="M2597 1375 c3 -176 9 -340 13 -365 9 -58 1 408 -10 565 -5 77 -6 6 -3 -200z"/>
 <path d="M1651 1049 c-1 -37 -4 -82 -7 -100 -5 -33 -5 -33 15 9 19 40 19 47 7 100 l-14 57 -1 -66z"/>
 <path d="M2907 796 c-9 -26 -12 -46 -8 -46 7 0 32 82 26 88 -1 2 -10 -17 -18 -42z"/>
 </g>
<g id="layer105" fill="#7777b0" stroke="none">
 <path d="M3343 4473 c-21 -8 -15 -22 7 -16 11 3 20 9 20 14 0 10 -8 10 -27 2z"/>
 <path d="M3380 4465 c0 -8 9 -15 20 -15 11 0 20 2 20 5 0 2 -9 9 -20 15 -16 9 -20 8 -20 -5z"/>
 <path d="M3130 4451 c0 -35 12 -81 22 -81 5 0 8 16 7 34 -2 19 0 38 4 42 13 13 7 24 -13 24 -13 0 -20 -7 -20 -19z"/>
 <path d="M3425 4440 c-3 -10 -1 -28 4 -39 13 -24 14 -31 2 -31 -5 0 -11 8 -13 18 -3 14 -5 13 -10 -5 -5 -20 -2 -23 22 -23 34 0 59 25 42 42 -7 7 -12 22 -12 35 0 28 -26 31 -35 3z"/>
 <path d="M1550 4400 c-11 -7 -5 -13 30 -29 25 -11 58 -23 74 -27 l29 -7 -28 37 c-21 28 -34 36 -59 36 -17 0 -38 -5 -46 -10z"/>
 <path d="M1749 4392 c6 -12 16 -24 22 -28 8 -4 8 -1 0 14 -6 12 -16 24 -22 28 -8 4 -8 1 0 -14z"/>
 <path d="M2280 4319 c94 -28 103 -34 116 -69 7 -19 13 -52 13 -73 1 -24 5 -36 12 -32 13 9 3 78 -17 117 -20 38 -50 55 -109 61 -46 6 -47 5 -15 -4z"/>
 <path d="M1650 4270 l-25 -8 28 -1 c15 -1 27 4 27 9 0 6 -1 10 -2 9 -2 -1 -14 -5 -28 -9z"/>
 <path d="M3360 4180 c0 -5 6 -10 13 -10 9 0 12 -10 10 -32 -4 -31 -3 -32 11 -13 8 11 20 26 26 33 8 9 6 12 -9 12 -11 0 -23 5 -26 10 -3 6 -10 10 -16 10 -5 0 -9 -4 -9 -10z"/>
 <path d="M3457 4154 c9 -15 19 -21 21 -15 6 19 -6 41 -23 41 -14 0 -13 -3 2 -26z"/>
 <path d="M3162 4154 c-19 -13 -22 -24 -22 -85 0 -49 4 -69 13 -69 16 0 32 12 33 25 17 134 13 155 -24 129z"/>
 <path d="M3416 4122 c-14 -27 -14 -31 3 -46 24 -22 28 -21 36 15 5 22 3 36 -8 46 -14 14 -17 12 -31 -15z"/>
 <path d="M1937 4073 c-21 -20 8 -113 35 -113 20 0 18 24 -8 88 -14 34 -16 36 -27 25z"/>
 <path d="M2112 4035 c21 -42 38 -58 38 -35 0 20 -29 67 -44 73 -12 5 -10 -4 6 -38z"/>
 <path d="M3137 3933 c-4 -3 -7 -11 -7 -17 0 -7 3 -7 8 0 4 7 16 14 27 17 19 5 19 5 -1 6 -11 0 -24 -2 -27 -6z"/>
 <path d="M3315 3915 c57 -25 67 -46 77 -160 7 -76 6 -110 -1 -119 -8 -9 -9 -29 -4 -57 l8 -44 6 55 c11 89 10 244 -2 279 -12 34 -53 62 -91 60 -21 -1 -20 -2 7 -14z"/>
 <path d="M2005 3900 c-8 -13 15 -13 35 0 12 8 11 10 -7 10 -12 0 -25 -4 -28 -10z"/>
 <path d="M3290 3903 c1 -5 15 -17 32 -28 18 -11 35 -31 39 -45 7 -25 7 -25 8 -2 1 14 -11 36 -28 53 -28 28 -51 38 -51 22z"/>
 <path d="M2190 3853 c13 -18 25 -33 27 -33 8 0 -17 38 -33 51 -11 9 -9 2 6 -18z"/>
 <path d="M3294 3850 c0 -11 4 -20 8 -20 4 0 8 9 8 20 0 11 -4 20 -8 20 -4 0 -8 -9 -8 -20z"/>
 <path d="M3114 3852 c-6 -4 -11 -14 -11 -22 0 -8 -3 -37 -6 -65 l-7 -50 14 35 c13 35 30 110 24 110 -2 0 -8 -4 -14 -8z"/>
 <path d="M2160 3816 c0 -11 30 -66 36 -66 2 0 -3 15 -12 33 -19 36 -24 44 -24 33z"/>
 <path d="M1930 3070 c-12 -22 -4 -25 20 -10 11 7 11 10 2 10 -7 0 -10 5 -7 10 3 6 4 10 1 10 -3 0 -10 -9 -16 -20z"/>
 <path d="M3047 3055 c-24 -18 -21 -22 18 -27 28 -3 35 0 35 13 0 21 -32 30 -53 14z"/>
 <path d="M3141 3053 c12 -15 12 -16 -3 -10 -12 4 -15 2 -11 -9 7 -19 63 -49 63 -34 0 16 -21 54 -34 62 -20 14 -29 8 -15 -9z"/>
 <path d="M3273 2905 c0 -22 2 -30 4 -17 2 12 2 30 0 40 -3 9 -5 -1 -4 -23z"/>
 <path d="M1940 2844 c8 -4 23 -16 34 -28 l18 -21 -14 25 c-9 14 -24 26 -34 27 -13 2 -14 1 -4 -3z"/>
 <path d="M2979 2803 c-40 -49 -41 -55 -1 -24 23 18 42 35 42 37 0 11 -29 2 -41 -13z"/>
 <path d="M3120 2728 c0 -2 7 -21 15 -43 8 -23 14 -31 14 -20 1 30 -10 65 -20 65 -5 0 -9 -1 -9 -2z"/>
 <path d="M3233 2610 c0 -30 2 -43 4 -27 2 15 2 39 0 55 -2 15 -4 2 -4 -28z"/>
 <path d="M2745 2253 c3 -23 8 -50 12 -60 6 -17 6 -17 -14 0 -21 18 -21 18 -28 -3 -4 -12 -2 -27 4 -33 17 -17 14 -58 -4 -51 -42 16 5 -39 72 -85 21 -14 37 -38 48 -69 8 -26 22 -58 30 -72 14 -25 14 -24 15 18 0 41 13 81 31 92 4 3 5 26 2 53 -6 47 -6 47 -43 47 -49 0 -68 22 -102 123 -22 63 -27 73 -23 40z"/>
 <path d="M1854 2227 c-16 -13 -35 -26 -43 -29 -8 -2 -15 -12 -17 -21 -2 -16 0 -16 27 0 36 21 75 61 67 68 -3 3 -18 -5 -34 -18z"/>
 <path d="M3027 2145 l-58 -55 10 -53 c6 -28 17 -83 25 -122 9 -38 16 -92 16 -120 0 -39 6 -57 26 -80 19 -23 24 -25 20 -10 -3 11 -8 78 -10 148 -5 111 -3 128 9 123 17 -6 18 6 19 141 1 46 1 83 1 83 0 -1 -26 -25 -58 -55z"/>
 <path d="M1783 2128 c-6 -7 -16 -24 -22 -38 -12 -24 -12 -24 4 -5 20 24 37 55 32 55 -3 0 -9 -6 -14 -12z"/>
 <path d="M2903 1947 c-6 -14 -8 -28 -4 -33 4 -5 13 -40 19 -79 29 -184 36 -219 40 -195 5 28 -27 298 -38 318 -4 9 -10 6 -17 -11z"/>
 <path d="M1692 1893 c-1 -6 -8 -18 -15 -25 -22 -22 -34 -90 -26 -149 4 -30 7 -65 7 -79 0 -23 -1 -22 -8 5 l-8 30 -2 -27 c-1 -16 -4 -40 -5 -55 -2 -16 -5 -71 -7 -123 -4 -93 2 -78 17 43 4 27 9 46 12 43 9 -8 -16 -195 -33 -247 -15 -47 -26 -280 -14 -300 4 -5 10 45 13 112 4 67 11 127 17 134 5 6 7 14 4 17 -5 5 23 197 47 318 5 30 9 114 7 185 -2 72 -5 125 -6 118z"/>
 <path d="M2881 1800 c-1 -44 24 -167 38 -184 7 -8 3 -27 -15 -65 -14 -32 -22 -63 -19 -75 4 -14 3 -17 -3 -8 -7 10 -12 6 -19 -15 -12 -30 -12 -39 -12 -148 0 -81 8 -135 20 -135 5 0 6 8 2 18 -5 13 0 11 20 -7 14 -13 28 -38 30 -55 4 -24 5 -22 4 9 -1 22 2 45 5 50 12 22 20 96 20 195 1 104 1 105 10 40 5 -36 10 -131 11 -212 1 -105 5 -138 11 -115 17 62 -18 483 -36 441 -6 -13 -7 -7 -4 19 3 20 1 37 -4 37 -5 0 -7 6 -4 13 6 17 -21 155 -39 197 l-15 35 -1 -35z"/>
 <path d="M2846 1740 c-3 -17 -24 -77 -47 -133 l-41 -102 7 -285 7 -285 39 -73 c22 -41 39 -80 39 -87 0 -8 4 -16 9 -19 11 -7 88 170 96 221 3 21 -12 -11 -34 -70 -22 -60 -42 -112 -46 -115 -7 -8 -27 21 -36 54 -4 11 0 29 7 39 8 10 14 41 14 68 0 38 -6 56 -25 79 -18 21 -25 25 -25 13 0 -9 -4 -13 -10 -10 -16 10 -12 103 6 131 14 21 16 40 10 117 -7 88 -25 145 -27 82 -1 -58 -18 6 -18 72 -1 50 6 78 35 145 63 149 56 139 67 91 8 -36 6 -51 -18 -108 -16 -36 -26 -67 -23 -70 3 -3 19 26 35 64 31 69 31 69 16 132 -17 77 -28 91 -37 49z m-59 -547 c-2 -21 -4 -6 -4 32 0 39 2 55 4 38 2 -18 2 -50 0 -70z m60 -265 c-2 -13 -4 -5 -4 17 -1 22 1 32 4 23 2 -10 2 -28 0 -40z m-16 -29 c7 -4 10 -12 5 -16 -13 -13 -36 28 -35 61 l1 31 8 -34 c4 -18 14 -37 21 -42z"/>
 <path d="M2597 1375 c3 -176 9 -340 13 -365 9 -58 1 408 -10 565 -5 77 -6 6 -3 -200z"/>
 <path d="M2867 1523 c-47 -112 -50 -129 -40 -241 8 -81 7 -96 -9 -120 -10 -15 -18 -34 -17 -42 0 -13 1 -13 6 0 3 8 13 26 23 40 14 22 16 40 9 134 l-8 108 36 92 c20 50 40 97 46 104 5 7 6 12 0 12 -5 0 -25 -39 -46 -87z"/>
 <path d="M2833 1148 c-13 -15 -15 -27 -7 -66 16 -85 71 -63 68 28 -2 47 -5 54 -23 55 -12 1 -28 -7 -38 -17z"/>
 <path d="M1651 1049 c-1 -37 -4 -82 -7 -100 -5 -33 -5 -33 15 9 19 40 19 47 7 100 l-14 57 -1 -66z"/>
 <path d="M2887 1032 c-11 -12 -17 -36 -17 -70 0 -28 -5 -63 -10 -78 -10 -27 -5 -64 9 -64 4 0 16 24 26 53 20 52 27 157 12 157 -5 0 -5 5 -2 10 10 16 -1 11 -18 -8z m4 -34 c-3 -21 -6 -26 -9 -15 -3 17 3 47 11 47 2 0 1 -15 -2 -32z"/>
 <path d="M2907 796 c-9 -26 -12 -46 -8 -46 7 0 32 82 26 88 -1 2 -10 -17 -18 -42z"/>
 </g>
<g id="layer106" fill="#a3a3e2" stroke="none">
 <path d="M3136 4423 c9 -51 11 -51 16 -4 2 29 0 41 -10 41 -10 0 -11 -10 -6 -37z"/>
 <path d="M3435 4441 c-7 -22 0 -41 15 -41 9 0 7 46 -2 56 -4 3 -9 -4 -13 -15z"/>
 <path d="M1550 4389 c0 -3 8 -9 18 -12 9 -2 25 -8 34 -12 13 -5 15 -2 12 13 -4 13 -14 19 -35 19 -16 0 -29 -4 -29 -8z"/>
 <path d="M3157 4142 c-10 -10 -17 -29 -17 -41 0 -34 37 -9 42 29 5 34 -2 38 -25 12z"/>
 <path d="M3430 4111 c-11 -21 -6 -41 9 -41 13 0 22 43 12 53 -5 5 -14 0 -21 -12z"/>
 <path d="M2111 4046 c7 -15 15 -23 17 -16 3 7 -3 19 -13 28 -15 16 -16 15 -4 -12z"/>
 <path d="M1934 4035 c12 -46 26 -75 36 -75 8 0 8 6 0 20 -6 11 -8 20 -5 20 3 0 -1 14 -10 30 -19 36 -29 39 -21 5z"/>
 <path d="M3300 3924 c0 -3 14 -10 30 -16 39 -13 51 -37 66 -128 l12 -75 1 61 c1 79 -12 114 -52 142 -32 21 -57 28 -57 16z"/>
 <path d="M3301 3896 c2 -2 15 -9 29 -16 23 -12 24 -12 11 3 -7 10 -20 17 -29 17 -8 0 -13 -2 -11 -4z"/>
 <path d="M2763 2153 c-8 -16 -9 -33 -3 -49 10 -27 1 -31 -30 -14 -41 22 -8 -19 40 -50 27 -17 52 -40 55 -51 4 -10 12 -18 18 -16 7 1 13 -12 15 -31 l3 -33 25 50 c14 28 23 59 21 68 -3 13 -5 10 -6 -7 -1 -21 -6 -25 -33 -24 -27 1 -34 6 -44 35 -17 46 -17 49 4 49 16 1 16 1 -1 11 -11 6 -27 28 -36 49 l-17 38 -11 -25z"/>
 <path d="M3020 2130 c-50 -44 -49 -40 -22 -160 15 -69 17 -72 22 -40 3 20 0 50 -8 69 -13 33 -13 33 11 27 37 -9 49 13 45 83 -2 34 -3 61 -3 61 0 -1 -20 -19 -45 -40z"/>
 <path d="M2906 1954 c-9 -23 -7 -31 7 -37 10 -4 12 3 9 24 -5 33 -7 35 -16 13z"/>
 <path d="M2923 1845 c10 -101 31 -221 35 -203 4 20 -27 250 -35 258 -3 3 -3 -22 0 -55z"/>
 <path d="M2889 1784 c-2 -22 -2 -17 15 -101 13 -62 21 -81 30 -72 5 5 -32 180 -40 188 -2 2 -5 -4 -5 -15z"/>
 <path d="M3032 1772 c-1 -21 6 -44 18 -59 11 -14 20 -21 20 -16 0 6 -6 16 -14 23 -8 6 -17 28 -19 48 l-4 37 -1 -33z"/>
 <path d="M1663 1650 c1 -69 -2 -154 -5 -190 -5 -44 -1 -30 12 40 19 107 28 245 16 257 -3 3 -6 -2 -7 -13 -1 -15 -3 -14 -9 6 -5 15 -8 -23 -7 -100z"/>
 <path d="M2853 1763 c4 -6 0 -27 -8 -47 -21 -49 -19 -57 5 -18 23 37 25 58 8 68 -6 4 -8 3 -5 -3z"/>
 <path d="M2882 1645 c2 -11 -6 -37 -16 -58 -10 -21 -16 -40 -14 -43 2 -2 13 15 25 39 14 29 18 48 12 62 l-9 20 2 -20z"/>
 <path d="M2791 1581 c-29 -69 -26 -78 5 -12 13 30 23 56 20 58 -2 2 -13 -19 -25 -46z"/>
 <path d="M2920 1570 c0 -12 -14 -57 -31 -101 -31 -79 -31 -82 -21 -176 7 -71 14 -100 29 -114 19 -19 19 -19 18 3 0 13 4 23 10 23 14 0 22 48 24 131 2 103 -11 254 -20 254 -5 0 -9 -9 -9 -20z"/>
 <path d="M2973 1320 c0 -25 2 -35 4 -22 2 12 2 32 0 45 -2 12 -4 2 -4 -23z"/>
 <path d="M2798 1300 c-4 -30 -3 -75 1 -100 7 -40 8 -42 15 -19 4 14 3 59 -1 100 l-9 74 -6 -55z"/>
 <path d="M2774 1090 c3 -136 6 -172 21 -200 10 -19 20 -30 22 -23 2 7 0 21 -6 32 -6 11 -16 88 -21 173 -15 209 -20 215 -16 18z"/>
 <path d="M2983 1190 c0 -30 2 -43 4 -27 2 15 2 39 0 55 -2 15 -4 2 -4 -28z"/>
 <path d="M1613 1125 c0 -44 2 -61 4 -37 2 23 2 59 0 80 -2 20 -4 1 -4 -43z"/>
 <path d="M2837 1152 c-19 -20 -13 -95 9 -113 39 -32 64 80 26 115 -18 15 -20 15 -35 -2z"/>
 <path d="M2815 1040 c3 -5 2 -10 -2 -10 -10 0 -1 -115 9 -126 11 -10 21 42 16 81 -3 29 -2 32 12 22 8 -6 4 1 -9 16 -25 27 -38 36 -26 17z"/>
 <path d="M2897 1013 c-4 -3 -7 -23 -7 -43 0 -21 -7 -57 -15 -81 -21 -57 -9 -89 12 -34 11 29 25 165 17 165 0 0 -4 -3 -7 -7z"/>
 <path d="M2840 809 c1 -8 7 -25 14 -38 11 -20 14 -21 19 -7 4 10 -1 26 -13 38 -14 15 -20 17 -20 7z"/>
 </g>
<g id="layer107" fill="#e4e4fe" stroke="none">
 <path d="M3375 3880 c5 -8 12 -30 16 -50 l7 -35 1 36 c1 23 -5 42 -16 50 -14 12 -16 12 -8 -1z"/>
 <path d="M3008 2115 c-16 -13 -28 -32 -28 -42 0 -13 3 -15 8 -5 5 7 16 10 24 7 12 -5 17 2 20 29 2 20 4 36 3 36 0 0 -12 -12 -27 -25z"/>
 <path d="M2853 1733 c-3 -10 -8 -22 -10 -28 -3 -5 3 -1 11 9 16 20 21 36 11 36 -3 0 -8 -8 -12 -17z"/>
 <path d="M1662 1690 c0 -19 2 -27 5 -17 2 9 2 25 0 35 -3 9 -5 1 -5 -18z"/>
 <path d="M2917 1646 c-3 -8 0 -19 7 -25 10 -9 12 -6 8 14 -5 29 -8 31 -15 11z"/>
 <path d="M1673 1585 c0 -22 2 -30 4 -17 2 12 2 30 0 40 -3 9 -5 -1 -4 -23z"/>
 <path d="M2926 1568 c-3 -7 -18 -51 -35 -97 -31 -83 -32 -86 -21 -179 6 -52 13 -98 16 -103 9 -15 24 -10 18 5 -3 8 7 37 22 66 26 50 27 54 19 163 -4 62 -8 122 -9 135 -1 25 -5 28 -10 10z"/>
 <path d="M2803 1252 c0 -54 3 -80 9 -74 7 7 7 36 1 84 l-10 73 0 -83z"/>
 <path d="M2842 1158 c-18 -18 -15 -103 3 -118 25 -21 39 3 36 58 -3 54 -20 79 -39 60z"/>
 <path d="M2781 1017 c-1 -83 19 -170 35 -154 4 4 1 20 -6 38 -7 17 -16 70 -20 117 l-7 87 -2 -88z"/>
 <path d="M2811 980 c0 -25 4 -54 8 -65 7 -16 10 -10 16 28 6 39 4 52 -9 65 -15 15 -16 13 -15 -28z"/>
 <path d="M2892 957 c-1 -27 -9 -64 -18 -83 -9 -19 -14 -37 -11 -40 13 -14 38 73 34 121 l-3 50 -2 -48z"/>
 <path d="M2846 800 c3 -14 10 -32 15 -40 7 -13 8 -13 8 0 0 8 -6 26 -15 40 l-15 25 7 -25z"/>
 </g>

</svg>