<!DOCTYPE svg PUBLIC "-//W3C//DTD SVG 20010904//EN" "http://www.w3.org/TR/2001/REC-SVG-20010904/DTD/svg10.dtd">
<svg version="1.0" xmlns="http://www.w3.org/2000/svg" width="512px" height="512px" viewBox="0 0 5120 5120" preserveAspectRatio="xMidYMid meet">
<g id="layer101" fill="#0c0c10" stroke="none">
 <path d="M1770 4688 c-45 -12 -87 -53 -95 -90 -6 -27 -112 -139 -185 -196 -48 -38 -130 -227 -151 -347 -13 -79 -30 -157 -41 -193 -5 -19 -14 -57 -18 -85 -5 -29 -14 -74 -20 -102 -6 -27 -18 -84 -27 -125 -8 -41 -21 -97 -29 -124 -8 -26 -14 -60 -14 -75 -1 -41 -35 -137 -89 -246 -28 -55 -57 -118 -66 -140 -9 -22 -20 -47 -25 -55 -35 -54 -35 -60 -38 -725 -2 -551 0 -667 12 -705 8 -25 17 -74 21 -110 14 -119 59 -236 143 -365 60 -93 77 -111 212 -224 164 -137 278 -206 465 -281 44 -17 98 -42 120 -53 40 -22 47 -22 570 -22 517 0 531 1 570 21 55 28 115 55 210 93 123 49 242 108 307 152 33 21 63 39 67 39 14 0 128 132 177 205 47 70 134 304 134 361 0 13 11 48 25 77 13 30 27 74 31 98 14 91 42 188 89 309 22 54 20 699 -1 755 -9 22 -19 65 -24 96 -4 30 -12 71 -18 90 -15 48 -31 132 -42 211 -5 38 -12 73 -16 79 -3 6 -10 54 -14 107 -6 67 -16 114 -32 152 -20 45 -25 74 -27 158 -2 56 -7 117 -13 135 -5 18 -13 100 -17 183 -6 123 -10 156 -27 184 -19 34 -112 107 -169 134 -17 8 -39 24 -49 35 -11 12 -24 21 -30 21 -21 1 -199 125 -267 188 -53 48 -116 84 -207 117 -34 12 -102 46 -151 74 -49 28 -92 51 -97 51 -5 0 -27 9 -49 19 -51 25 -135 51 -200 61 -53 9 -123 29 -190 54 -33 12 -97 15 -360 15 -179 -1 -335 -5 -355 -11z"/>
 </g>
<g id="layer102" fill="#505065" stroke="none">
 <path d="M1980 4546 c0 -18 16 -29 30 -21 13 8 1 35 -16 35 -8 0 -14 -6 -14 -14z"/>
 <path d="M1846 4492 c-7 -11 -26 -168 -26 -213 0 -38 -37 -135 -48 -124 -3 3 -11 36 -17 73 -9 54 -15 68 -31 70 -10 2 -23 8 -27 12 -9 8 15 52 46 83 10 10 16 22 12 25 -4 4 -14 -2 -23 -13 -10 -11 -29 -26 -44 -34 -42 -22 -103 -91 -136 -156 -32 -63 -89 -308 -177 -755 -8 -41 -20 -100 -26 -130 -19 -96 -93 -289 -138 -360 -6 -8 -22 -46 -37 -85 -14 -38 -30 -75 -35 -81 -12 -15 -2 -1105 12 -1304 8 -114 16 -166 30 -198 10 -23 19 -47 19 -53 0 -24 71 -158 106 -201 67 -80 237 -223 341 -287 116 -70 254 -129 380 -162 48 -13 90 -27 91 -31 5 -11 762 -10 762 0 0 5 35 19 78 31 42 13 124 41 182 62 58 21 130 46 160 55 63 19 165 68 243 118 66 42 197 192 197 224 0 6 13 39 29 74 33 71 46 118 56 198 3 30 17 74 31 97 13 23 28 71 34 110 11 74 20 109 56 222 13 41 27 98 30 128 4 29 11 53 15 53 12 0 11 168 -1 172 -5 2 -19 65 -30 142 -12 76 -25 149 -31 163 -5 13 -9 51 -9 84 0 32 -18 148 -39 257 -22 108 -42 224 -45 256 -4 35 -16 75 -29 95 -18 30 -23 55 -27 146 -4 88 -8 109 -19 107 -17 -4 -31 16 -31 46 0 15 6 22 19 22 27 0 33 25 17 68 -8 20 -17 70 -20 111 -6 80 -8 86 -31 78 -24 -10 -20 -95 6 -123 28 -30 19 -52 -23 -56 -32 -3 -33 -4 -36 -56 -3 -45 3 -65 34 -127 34 -68 36 -77 24 -100 -11 -20 -11 -35 -1 -80 7 -30 10 -58 8 -62 -3 -5 1 -35 7 -68 7 -33 9 -76 6 -97 -5 -24 -3 -39 4 -42 6 -2 4 -5 -4 -5 -10 -1 -21 -25 -32 -74 -19 -79 -15 -135 11 -164 9 -10 25 -36 36 -58 11 -22 31 -57 45 -78 21 -33 25 -36 31 -20 4 10 8 30 8 45 2 51 19 38 35 -26 18 -71 36 -285 36 -422 0 -90 -22 -194 -40 -194 -10 0 -15 78 -11 160 1 25 -2 58 -8 73 -9 22 -8 29 4 33 19 8 19 23 -1 45 -16 17 -34 84 -53 194 -12 68 -31 115 -64 158 -15 20 -27 38 -27 42 0 3 -31 37 -70 76 -38 38 -70 73 -70 77 -1 16 -61 72 -77 72 -10 0 -36 19 -58 43 -22 23 -62 59 -88 81 -45 35 -47 39 -30 52 17 13 16 16 -17 44 -23 20 -42 28 -56 25 -33 -7 -105 110 -119 193 -4 23 -11 44 -16 48 -16 9 -11 64 6 64 32 0 30 32 -15 244 -22 105 -23 197 -2 204 7 2 12 -6 12 -22 0 -19 5 -26 19 -26 22 0 81 -48 81 -66 0 -6 7 -25 15 -40 8 -16 15 -39 15 -51 0 -12 8 -30 19 -40 10 -10 23 -27 29 -38 10 -17 11 -15 11 20 0 22 -6 66 -13 97 -12 48 -12 61 0 83 19 37 18 47 -6 40 -13 -4 -34 4 -65 28 -25 19 -60 38 -79 41 -33 6 -86 59 -86 85 0 6 -11 13 -25 17 -30 7 -30 10 -4 53 l20 33 -24 47 c-13 25 -30 62 -36 83 -19 58 -35 55 -125 -20 -251 -212 -286 -232 -286 -172 0 47 -26 90 -54 90 -31 0 -37 -18 -27 -82 6 -37 5 -55 -3 -60 -29 -19 -258 -12 -411 13 -140 23 -223 49 -200 62 10 5 15 23 15 52 0 26 6 50 16 59 19 20 66 20 103 1 16 -8 31 -11 35 -8 14 15 4 31 -31 49 -21 10 -49 31 -63 45 -14 14 -32 28 -40 31 -12 4 -16 31 -20 134 -3 71 -9 135 -13 142 -9 14 -23 16 -31 4z m-211 -423 c-17 -50 -38 -70 -56 -52 -8 8 23 84 56 133 18 27 18 -26 0 -81z m-114 -182 c-23 -59 -27 -47 -9 30 9 37 15 48 21 38 5 -10 1 -35 -12 -68z m63 -193 c-20 -54 -42 -116 -50 -137 -8 -21 -29 -66 -47 -100 -31 -61 -32 -61 -35 -30 -2 17 3 45 12 60 8 16 17 45 21 66 6 30 4 37 -9 37 -11 0 -16 9 -16 28 1 23 2 24 11 10 5 -10 14 -18 18 -18 12 0 51 94 51 122 1 13 7 34 15 48 8 14 14 35 15 47 0 12 10 29 23 38 22 15 22 15 25 -28 2 -31 -8 -72 -34 -143z m189 63 c12 -31 73 -47 176 -47 61 0 101 -4 101 -10 0 -6 -45 -10 -114 -10 -101 0 -117 2 -147 23 -19 12 -35 30 -37 40 -4 20 14 23 21 4z m1032 -13 c21 -18 24 -24 10 -19 -51 19 -65 17 -100 -14 -43 -37 -170 -80 -188 -62 -8 8 -6 11 9 11 22 0 142 57 189 89 38 26 43 26 80 -5z m-427 -71 c-16 -2 -40 -2 -55 0 -16 2 -3 4 27 4 30 0 43 -2 28 -4z m669 -128 c6 -32 16 -69 22 -82 6 -13 11 -34 11 -46 -1 -26 -31 44 -49 113 -7 25 -15 53 -18 64 -4 13 -2 17 8 14 8 -3 19 -30 26 -63z m-1799 -1065 c1 -22 9 -52 18 -65 16 -24 15 -25 -4 -25 -15 0 -22 9 -27 30 -4 16 -11 33 -17 36 -13 8 -28 -15 -21 -33 7 -18 -5 -63 -17 -63 -14 0 -12 20 7 81 17 55 40 92 53 84 4 -2 7 -22 8 -45z m662 0 c0 -5 -20 -10 -45 -10 -25 0 -45 5 -45 10 0 6 20 10 45 10 25 0 45 -4 45 -10z m340 -17 c58 -8 112 -19 120 -24 31 -16 -23 -23 -99 -11 -42 7 -125 17 -186 22 -132 13 -163 19 -147 29 18 11 195 2 312 -16z m1500 -133 c0 -32 4 -70 9 -83 6 -14 15 -61 21 -106 9 -68 8 -85 -5 -110 -22 -44 -19 -59 12 -63 39 -4 42 -52 7 -89 -21 -22 -24 -32 -18 -67 7 -42 6 -42 -25 -42 -58 0 -68 12 -68 82 0 35 -4 91 -8 126 -5 43 -4 62 4 62 13 0 15 146 2 154 -5 4 -12 30 -16 59 -3 28 -8 64 -11 78 -4 19 3 35 21 57 14 16 25 39 25 49 0 37 13 33 32 -8 11 -25 18 -64 18 -99z m-461 -23 c35 -28 73 -64 84 -78 19 -26 19 -26 -5 -51 -12 -13 -28 -33 -34 -44 -11 -19 -12 -18 -43 4 -18 13 -39 21 -47 18 -9 -3 -30 6 -49 21 -43 35 -55 86 -27 117 11 11 23 31 27 44 3 12 12 22 18 22 7 0 41 -24 76 -53z m251 -282 c0 -23 -28 -25 -34 -2 -11 43 -8 52 14 32 11 -10 20 -24 20 -30z m-20 -199 c0 -23 -7 -65 -15 -92 -11 -39 -44 -206 -45 -233 0 -3 -5 2 -11 11 -5 10 -14 68 -20 130 l-10 113 26 18 c14 10 25 23 25 28 0 23 31 80 40 74 5 -3 10 -25 10 -49z m254 -165 c8 -15 20 -57 25 -92 13 -79 13 -89 0 -66 -13 23 -46 22 -61 -3 -13 -21 -38 -27 -38 -10 0 6 9 19 21 31 19 19 20 28 14 95 -6 64 -5 74 9 74 8 0 22 -13 30 -29z m-1591 -122 c50 -16 79 -35 138 -89 41 -38 71 -72 67 -76 -4 -4 -14 -1 -23 6 -11 9 -15 9 -15 0 0 -6 25 -38 57 -71 58 -61 90 -77 78 -38 -6 18 -4 19 12 11 36 -20 193 -190 193 -209 0 -11 19 -41 41 -67 52 -58 51 -59 -91 -112 -60 -22 -117 -51 -134 -67 -16 -15 -32 -27 -36 -27 -4 0 -20 -11 -35 -25 -16 -13 -43 -25 -59 -27 -28 -3 -31 -6 -28 -35 l3 -33 -50 0 c-27 0 -53 -4 -56 -10 -13 -21 -85 -8 -85 15 0 9 -16 13 -52 12 -58 -1 -224 54 -336 111 -87 44 -242 142 -242 152 0 20 23 20 56 1 48 -29 69 -28 53 1 -7 12 -21 30 -33 39 -17 14 -18 19 -8 32 11 13 18 12 60 -11 26 -14 58 -34 71 -44 62 -47 82 -2 26 61 -66 73 -80 139 -45 215 22 50 76 100 98 91 11 -4 13 0 9 17 -7 24 17 58 39 58 7 0 25 -12 39 -26 18 -18 30 -23 37 -16 11 11 -6 52 -28 65 -17 10 -18 49 -2 65 8 8 2 8 -26 0 -25 -8 -54 -31 -89 -72 -62 -71 -147 -183 -147 -194 -1 -4 -12 -20 -26 -37 -20 -23 -16 -13 14 44 48 90 97 156 178 238 47 49 67 63 90 63 16 0 36 5 44 11 22 15 170 2 243 -22z m242 -189 c10 -11 13 -20 7 -20 -6 0 -16 9 -22 20 -6 11 -9 20 -7 20 2 0 12 -9 22 -20z m-1026 -194 c16 -10 13 -33 -5 -40 -43 -17 -104 6 -104 39 0 14 88 14 109 1z m170 -35 c-13 -36 -39 -62 -39 -39 0 14 36 68 45 68 2 0 -1 -13 -6 -29z m1739 -97 c24 -7 12 -33 -21 -42 -34 -10 -207 0 -227 13 -8 5 -6 12 5 25 15 17 29 18 123 14 59 -3 113 -7 120 -10z m-933 -374 c3 -6 -5 -10 -19 -10 -14 0 -28 5 -31 10 -3 6 5 10 19 10 14 0 28 -4 31 -10z"/>
 <path d="M3697 3853 c-4 -3 -4 -23 -1 -45 9 -51 -8 -50 -57 5 -32 34 -41 39 -49 27 -6 -10 -1 -27 15 -55 25 -41 59 -67 107 -78 33 -9 44 17 29 65 -6 18 -13 45 -16 61 -5 26 -15 34 -28 20z"/>
 <path d="M3160 3566 c0 -8 5 -18 10 -21 6 -3 10 3 10 14 0 12 -4 21 -10 21 -5 0 -10 -6 -10 -14z"/>
 <path d="M3250 3465 c0 -8 5 -15 10 -15 6 0 10 7 10 15 0 8 -4 15 -10 15 -5 0 -10 -7 -10 -15z"/>
 <path d="M3314 3436 c-3 -8 -1 -23 5 -33 9 -15 10 -13 11 15 0 34 -7 42 -16 18z"/>
 <path d="M3325 3346 c-18 -13 -18 -15 4 -70 26 -62 24 -60 52 -46 28 16 26 80 -4 108 -27 26 -28 26 -52 8z"/>
 <path d="M3254 3269 c-9 -16 12 -33 31 -25 14 5 15 9 5 21 -15 18 -26 19 -36 4z"/>
 </g>
<g id="layer103" fill="#8c8cb0" stroke="none">
 <path d="M1832 4227 c-30 -91 -36 -140 -23 -166 13 -23 41 -29 41 -8 0 6 4 51 9 99 6 48 6 99 2 114 -6 25 -9 22 -29 -39z"/>
 <path d="M1702 4193 c-5 -21 -14 -58 -21 -83 -23 -82 -23 -100 -7 -133 12 -26 13 -42 6 -68 -18 -61 -14 -72 20 -65 24 4 32 2 37 -12 9 -25 52 -75 77 -89 14 -8 71 -12 163 -13 140 0 166 6 145 33 -5 7 -10 34 -11 62 -1 27 -7 52 -12 56 -6 3 -56 16 -112 28 -129 28 -165 46 -193 102 -25 49 -49 125 -59 182 -3 20 -10 37 -15 37 -5 0 -13 -17 -18 -37z"/>
 <path d="M2957 3986 c-17 -14 -24 -56 -8 -56 9 0 36 58 30 65 -2 2 -12 -2 -22 -9z"/>
 <path d="M1630 3964 c-12 -32 -4 -50 16 -33 16 13 19 59 4 59 -6 0 -15 -12 -20 -26z"/>
 <path d="M1564 3947 c-3 -8 -4 -27 -2 -42 3 -27 3 -27 25 -9 22 19 22 19 3 43 -16 19 -21 20 -26 8z"/>
 <path d="M2913 3895 c-8 -22 6 -33 17 -15 13 20 12 30 0 30 -6 0 -13 -7 -17 -15z"/>
 <path d="M2525 3886 c-32 -14 -61 -77 -67 -146 -3 -33 -1 -36 41 -49 54 -17 95 -6 166 44 28 19 65 41 83 50 42 20 41 32 -5 41 -21 4 -44 15 -53 24 -17 19 -91 50 -118 50 -9 -1 -30 -7 -47 -14z"/>
 <path d="M2997 3853 c-4 -3 -7 -28 -7 -55 0 -35 6 -54 20 -68 30 -30 40 -24 40 25 0 64 -31 121 -53 98z"/>
 <path d="M1646 3751 c-14 -32 -26 -63 -26 -69 0 -18 -106 -275 -143 -344 -61 -116 -129 -226 -174 -280 -54 -65 -78 -109 -115 -213 -26 -73 -28 -92 -28 -217 0 -76 4 -138 8 -138 5 0 30 27 58 60 46 57 78 79 92 66 3 -4 -7 -19 -21 -34 -22 -22 -27 -38 -27 -76 0 -42 4 -51 37 -81 l37 -34 -28 -10 c-15 -6 -43 -11 -61 -11 -66 0 -80 -69 -91 -453 -9 -305 7 -529 42 -604 22 -48 44 -69 44 -43 0 7 29 10 77 8 66 -3 78 -6 81 -21 2 -10 -5 -25 -15 -32 -17 -13 -17 -14 3 -37 35 -38 48 -68 34 -82 -16 -16 -115 -13 -136 5 -16 13 -16 12 -6 -6 6 -11 22 -32 37 -47 21 -23 34 -28 73 -28 41 0 52 5 78 32 42 46 68 86 130 196 96 169 233 330 299 352 36 12 37 15 50 93 8 52 17 304 16 449 -1 113 -7 143 -33 181 -21 29 6 37 121 37 65 0 101 4 95 9 -10 10 -306 61 -355 61 -16 0 -56 -13 -87 -30 -68 -35 -192 -51 -231 -30 -35 18 -17 28 112 59 64 16 131 37 149 46 18 10 41 22 51 27 10 5 60 11 112 15 51 3 99 9 106 14 9 5 13 85 14 326 2 257 6 350 23 483 12 91 22 186 22 211 0 39 4 49 27 64 23 16 24 18 9 27 -10 6 -70 12 -134 14 -64 3 -130 7 -147 10 -49 8 -95 57 -95 102 0 19 -18 32 -44 32 -8 0 -25 -26 -40 -59z"/>
 <path d="M3190 3765 c0 -7 6 -18 13 -22 8 -4 16 -16 20 -25 3 -10 11 -18 17 -18 18 0 10 35 -14 58 -28 26 -36 28 -36 7z"/>
 <path d="M2580 3624 l-65 -23 32 -13 c27 -10 33 -19 43 -67 27 -131 13 -278 -35 -366 -19 -33 -43 -91 -54 -130 -12 -38 -35 -110 -52 -160 -25 -73 -29 -100 -25 -141 4 -35 1 -63 -9 -88 -9 -20 -13 -41 -10 -46 7 -11 -18 -62 -39 -80 -12 -10 -14 -16 -5 -26 17 -20 53 -17 74 6 26 29 47 27 35 -5 -7 -18 -5 -28 5 -38 10 -11 357 -130 474 -162 15 -5 20 -10 13 -17 -11 -11 -43 -5 -192 34 -267 71 -299 76 -361 65 -53 -11 -81 -27 -44 -27 16 0 167 -49 175 -57 3 -2 -6 -13 -20 -23 -23 -18 -24 -19 -12 -83 18 -99 15 -198 -9 -270 -11 -34 -24 -66 -29 -72 -4 -5 -11 -26 -15 -45 -4 -19 -11 -39 -14 -45 -4 -5 -14 -26 -21 -45 -7 -19 -24 -49 -37 -67 -12 -17 -23 -37 -23 -43 0 -6 -14 -24 -31 -40 l-32 -28 209 -210 c236 -236 330 -320 392 -351 65 -33 179 -51 321 -51 144 0 147 1 190 88 31 61 31 252 0 467 -13 88 -23 200 -24 248 0 64 -4 90 -14 96 -8 5 -25 46 -38 91 -27 96 -61 157 -118 217 l-42 43 -74 -6 c-65 -6 -80 -4 -119 16 -74 37 -79 44 -34 50 31 4 40 10 42 28 3 19 9 22 53 22 42 0 54 5 88 36 22 19 43 48 46 64 5 22 11 27 23 23 56 -21 247 -202 329 -313 l41 -55 4 -152 4 -152 36 -58 c20 -32 43 -75 52 -96 11 -27 21 -38 33 -35 29 5 26 42 -6 94 -17 26 -31 61 -31 76 0 26 3 28 40 28 51 0 51 13 -1 29 -46 14 -55 29 -41 71 8 20 8 39 0 62 -5 18 -14 132 -18 253 -11 328 -34 388 -176 455 -35 17 -101 59 -147 92 -45 34 -98 73 -117 87 -59 43 -191 173 -229 226 -60 81 -158 239 -195 313 -52 103 -106 268 -99 303 7 36 -6 37 -97 3z m640 -2572 c113 -5 154 -39 95 -78 -20 -13 -46 -15 -144 -13 -126 4 -148 12 -137 47 9 27 67 64 86 55 8 -3 53 -8 100 -11z"/>
 <path d="M3800 2203 c0 -13 5 -23 10 -23 13 0 13 11 0 30 -8 12 -10 11 -10 -7z"/>
 <path d="M3816 1853 c-9 -9 -7 -33 3 -33 12 0 22 28 12 34 -5 3 -11 3 -15 -1z"/>
 <path d="M3882 1719 c-37 -71 -42 -88 -42 -149 0 -38 4 -71 9 -74 10 -6 16 16 26 99 6 50 16 87 42 159 24 65 8 50 -35 -35z"/>
 <path d="M3732 1313 c-16 -42 -97 -233 -116 -273 -40 -84 -50 -95 -95 -98 -38 -3 -41 -5 -35 -25 4 -12 7 -28 8 -36 1 -13 -43 -41 -86 -55 -10 -3 -18 -11 -18 -17 0 -19 69 -2 114 28 23 15 48 31 58 35 19 8 116 122 131 155 5 13 14 23 19 23 4 0 8 9 8 19 0 11 6 32 14 48 47 97 47 99 40 161 -7 67 -25 81 -42 35z"/>
 <path d="M1613 1157 c-12 -17 -27 -45 -34 -62 -7 -16 -22 -40 -33 -52 -11 -13 -17 -26 -14 -29 10 -10 95 82 107 116 22 66 9 80 -26 27z"/>
 <path d="M1650 797 c0 -13 119 -82 176 -101 38 -13 96 -33 129 -44 60 -21 127 -40 218 -63 26 -6 47 -16 47 -20 0 -5 90 -9 200 -9 127 0 200 4 200 10 0 6 19 10 43 10 23 0 71 5 107 10 75 12 391 111 373 117 -6 2 -49 -7 -95 -21 -46 -14 -139 -40 -208 -58 -124 -32 -126 -33 -365 -33 l-240 0 -145 37 c-166 43 -247 71 -360 128 -44 22 -80 39 -80 37z"/>
 <path d="M3215 740 c-39 -19 -49 -27 -30 -23 17 3 42 12 57 19 15 8 34 14 42 14 8 0 18 5 21 10 11 18 -29 9 -90 -20z"/>
 </g>
<g id="layer104" fill="#afafde" stroke="none">
 <path d="M1707 4163 c-3 -15 0 -51 6 -79 9 -43 8 -64 -7 -121 -32 -125 -32 -117 -3 -109 22 5 28 0 51 -39 42 -71 53 -75 194 -75 113 0 123 2 118 18 -8 29 -10 87 -3 98 8 14 -24 28 -128 53 -71 18 -85 25 -120 64 -37 41 -85 154 -85 201 0 26 -17 18 -23 -11z"/>
 <path d="M1826 4174 c-10 -25 -7 -112 3 -94 14 24 23 110 13 110 -6 0 -13 -7 -16 -16z"/>
 <path d="M2533 3875 c-39 -28 -64 -134 -40 -172 16 -26 87 -15 146 22 70 44 106 74 97 82 -3 4 -12 1 -18 -5 -13 -13 -58 -17 -58 -4 0 14 -78 92 -92 92 -7 0 -23 -7 -35 -15z"/>
 <path d="M3005 3790 c-9 -29 4 -62 23 -58 21 4 28 44 12 64 -17 19 -27 18 -35 -6z"/>
 <path d="M1664 3763 c-9 -20 -18 -53 -21 -72 -10 -75 -71 -214 -178 -406 -34 -63 -143 -224 -195 -289 -64 -81 -82 -147 -90 -326 -4 -85 -6 -157 -4 -159 2 -2 29 24 60 58 31 33 63 61 70 61 25 0 25 -21 0 -51 -44 -51 -30 -121 33 -167 l32 -23 57 19 c31 11 104 30 162 42 59 12 120 32 140 45 49 31 85 42 160 49 35 3 68 10 73 15 7 7 12 59 18 181 3 47 -12 415 -18 450 -3 19 -8 76 -10 125 -3 50 -10 93 -16 97 -6 3 -13 35 -15 69 -4 49 -1 65 11 74 9 6 21 24 26 38 6 15 17 27 25 27 10 0 13 6 10 15 -5 11 -22 15 -69 15 -34 0 -77 5 -96 11 -48 16 -96 65 -104 105 -9 48 -41 47 -61 -3z"/>
 <path d="M2705 3166 c-47 -21 -118 -106 -163 -199 -23 -46 -42 -90 -42 -96 0 -7 -9 -29 -20 -50 -13 -27 -19 -57 -18 -94 1 -37 -4 -64 -15 -81 -9 -14 -17 -36 -17 -48 0 -13 -12 -41 -25 -63 -14 -22 -25 -43 -25 -47 0 -16 38 -7 55 12 18 20 65 28 65 11 0 -5 -7 -14 -15 -21 -39 -32 -12 -46 269 -134 273 -86 312 -92 369 -48 42 31 54 61 37 91 -13 25 -9 26 33 5 83 -43 245 -196 341 -323 l41 -54 6 -146 c5 -134 7 -150 32 -196 15 -27 37 -71 49 -97 12 -27 28 -48 35 -48 17 0 17 49 -1 56 -22 9 -49 91 -42 132 3 21 1 41 -6 50 -9 10 -8 22 1 47 9 26 9 43 1 72 -6 21 -15 135 -20 253 -9 255 -20 296 -87 345 -23 16 -79 58 -123 92 -45 35 -104 71 -133 80 -36 13 -74 39 -131 92 -143 134 -307 305 -326 341 -17 33 -69 80 -87 80 -4 -1 -22 -7 -38 -14z m60 -656 l60 -7 -65 -1 c-36 0 -87 3 -115 8 l-50 7 55 1 c30 0 82 -4 115 -8z"/>
 <path d="M1793 2413 c-24 -9 -13 -23 16 -23 17 0 33 -4 36 -10 7 -11 2 -12 -65 -15 -25 -1 -98 -8 -164 -14 -117 -11 -204 -7 -239 11 -10 5 -49 6 -87 2 -62 -6 -70 -9 -79 -33 -31 -80 -56 -509 -41 -729 15 -229 15 -228 66 -258 32 -19 63 -27 118 -31 102 -8 105 -10 82 -76 -17 -51 -17 -56 -1 -87 24 -46 5 -63 -70 -63 -54 0 -55 0 -42 -21 11 -16 26 -21 68 -23 l54 -2 49 57 c27 31 75 107 108 167 33 61 77 133 98 160 44 58 85 135 71 135 -5 0 -12 -6 -14 -12 -3 -8 -6 -7 -6 4 -1 9 4 20 9 23 6 3 10 14 10 24 0 9 11 32 25 51 15 20 23 41 19 52 -3 10 3 30 14 46 24 33 37 104 24 129 -7 12 -5 31 5 61 8 24 12 50 9 57 -2 7 1 57 9 111 7 54 11 102 9 106 -3 5 -7 47 -8 93 -3 70 -7 89 -22 100 -19 15 -39 17 -61 8z"/>
 <path d="M2486 2331 c13 -13 197 -58 264 -65 l55 -6 -64 26 c-102 40 -283 72 -255 45z"/>
 <path d="M2573 2240 c-27 -11 -29 -35 -9 -106 17 -60 24 -111 32 -234 3 -52 8 -98 11 -103 11 -17 -80 -223 -118 -266 -22 -24 -39 -48 -39 -53 0 -5 -11 -13 -25 -18 -21 -8 -24 -13 -16 -27 12 -23 340 -345 411 -405 105 -87 175 -107 374 -108 154 0 184 12 212 86 14 38 16 68 11 217 -3 94 -13 217 -22 272 -9 55 -18 136 -21 180 -3 44 -11 94 -19 110 -7 17 -23 69 -34 117 -22 93 -36 121 -92 186 -40 47 -63 52 -88 20 -17 -20 -19 -20 -47 -5 -145 82 -458 164 -521 137z m655 -1177 c72 -4 85 -8 102 -30 39 -50 -10 -83 -123 -83 -178 0 -213 21 -150 91 31 34 41 40 62 34 14 -4 63 -9 109 -12z"/>
 <path d="M1607 1134 c-4 -4 -7 -14 -7 -23 0 -11 3 -12 11 -4 6 6 10 16 7 23 -2 6 -7 8 -11 4z"/>
 </g>
<g id="layer105" fill="#dedefe" stroke="none">
 <path d="M1744 3981 c0 -37 -4 -65 -13 -75 -10 -11 -11 -20 -5 -24 6 -4 21 -29 33 -55 13 -26 34 -55 47 -64 29 -19 59 -10 49 15 -4 9 -6 45 -6 79 2 59 1 63 -44 112 -25 29 -45 56 -45 61 0 6 -4 10 -8 10 -5 0 -8 -26 -8 -59z"/>
 <path d="M2520 3831 c-28 -56 -25 -120 7 -132 25 -9 69 5 107 33 16 13 17 17 5 39 -61 110 -86 123 -119 60z"/>
 <path d="M1685 3780 c-3 -5 -3 -24 0 -42 5 -26 -4 -55 -40 -136 -61 -139 -183 -355 -269 -479 -39 -56 -90 -129 -113 -163 -50 -71 -60 -116 -66 -295 l-5 -129 50 53 49 53 52 -7 c68 -9 76 -19 28 -34 -40 -11 -81 -51 -81 -78 0 -31 41 -93 66 -99 15 -4 77 6 155 25 71 17 137 31 148 31 10 0 33 10 52 23 19 13 42 26 52 30 33 12 19 45 -37 86 -38 28 -53 46 -53 63 0 13 -10 44 -21 70 -12 25 -24 65 -28 89 -3 24 -13 59 -21 78 -24 53 -6 240 41 446 9 39 22 92 28 119 10 47 49 154 68 187 5 11 4 23 -4 35 -8 11 -17 34 -21 52 -7 32 -18 41 -30 22z m49 -1209 c3 -4 3 -11 0 -14 -8 -8 -34 3 -34 14 0 11 27 12 34 0z"/>
 <path d="M2669 2963 c-9 -10 -37 -35 -62 -57 -36 -30 -50 -51 -63 -95 -10 -31 -28 -77 -41 -103 -12 -26 -23 -55 -23 -65 0 -9 -18 -43 -40 -74 -22 -32 -40 -62 -40 -68 0 -16 20 -13 26 3 12 32 61 39 207 33 234 -11 401 -32 455 -58 148 -71 315 -219 462 -408 33 -42 34 -48 42 -165 10 -147 16 -166 33 -107 11 34 12 88 4 260 -12 298 -23 347 -79 376 -16 8 -58 44 -92 80 -50 50 -73 67 -111 77 -47 12 -48 12 -72 -17 -13 -17 -24 -35 -25 -41 0 -16 -44 -54 -62 -54 -9 0 -32 18 -52 41 -30 33 -35 43 -25 55 31 38 -20 154 -97 220 -26 21 -56 50 -68 63 -11 13 -46 42 -76 66 -47 36 -64 43 -120 49 -55 6 -67 4 -81 -11z"/>
 <path d="M2508 2493 c-19 -5 -31 -30 -18 -38 37 -23 522 -165 564 -165 32 0 106 50 106 72 0 22 -52 79 -88 97 -32 16 -71 19 -278 24 -132 4 -247 8 -255 11 -8 2 -21 2 -31 -1z"/>
 <path d="M1227 2328 c-19 -31 -45 -257 -52 -448 -7 -176 6 -401 26 -443 17 -37 113 -83 204 -97 92 -15 105 -27 76 -74 -19 -30 -21 -44 -16 -91 l7 -54 28 14 c19 10 43 43 75 106 44 85 47 95 36 124 -6 17 -11 47 -11 66 0 19 -7 44 -15 55 -8 10 -15 25 -15 32 0 8 -16 47 -35 88 -19 40 -35 78 -35 82 0 5 -6 14 -13 20 -7 6 -14 32 -16 57 -1 26 -6 57 -11 70 -10 27 -11 391 -1 420 14 40 3 55 -43 55 -28 0 -52 7 -69 20 -36 29 -102 27 -120 -2z"/>
 <path d="M2597 2214 c-5 -9 9 -79 45 -219 11 -44 24 -98 28 -120 4 -22 17 -74 28 -115 11 -41 22 -95 23 -120 3 -44 12 -70 36 -101 7 -8 14 -27 15 -41 2 -22 7 -26 33 -26 90 -1 276 -51 313 -85 23 -21 30 -61 12 -72 -5 -3 -10 -21 -10 -38 0 -18 -7 -50 -14 -72 -8 -22 -12 -43 -9 -47 7 -13 105 -55 155 -68 95 -25 128 -92 66 -130 -27 -16 -50 -20 -123 -19 -49 0 -108 3 -130 7 -34 6 -40 11 -43 35 -2 18 5 38 22 58 14 17 26 34 26 37 -2 24 -266 117 -290 102 -7 -4 3 -28 29 -66 22 -32 39 -61 39 -64 -3 -15 18 -41 51 -64 50 -35 164 -56 300 -56 206 0 230 42 201 356 -11 120 -33 273 -54 374 -8 36 -15 83 -15 105 -2 69 -38 223 -59 252 -11 16 -32 39 -46 52 -21 20 -26 21 -26 8 0 -10 -8 -17 -19 -17 -23 0 -31 -20 -35 -95 -6 -94 -25 -86 -46 19 -7 33 -19 73 -26 88 -17 33 -104 76 -229 113 -93 27 -238 44 -248 29z"/>
 <path d="M1365 1070 l-30 -7 37 -7 c42 -9 73 -2 63 14 -7 11 -25 11 -70 0z"/>
 </g>

</svg>