<!DOCTYPE svg PUBLIC "-//W3C//DTD SVG 20010904//EN" "http://www.w3.org/TR/2001/REC-SVG-20010904/DTD/svg10.dtd">
<svg version="1.0" xmlns="http://www.w3.org/2000/svg" width="512px" height="512px" viewBox="-1280 -1280 7680 7680" preserveAspectRatio="xMidYMid meet">
<g id="layer101" fill="#1e2033" stroke="none">
 <path d="M1660 4650 c-47 -4 -99 -14 -116 -23 -60 -31 -84 -127 -84 -337 l0 -137 -182 -6 c-199 -7 -272 -20 -341 -60 -57 -34 -78 -64 -107 -149 -18 -55 -22 -83 -18 -145 2 -43 9 -87 15 -98 6 -11 17 -36 26 -55 40 -96 118 -144 285 -175 13 -2 90 -7 172 -11 l150 -7 0 -67 0 -67 -182 -6 c-195 -7 -273 -21 -343 -62 -52 -30 -77 -65 -105 -148 -30 -89 -25 -195 14 -282 66 -146 163 -188 464 -201 l152 -7 0 -67 0 -67 -182 -6 c-200 -7 -247 -15 -324 -53 -187 -92 -192 -443 -9 -565 73 -49 134 -61 333 -66 l182 -5 0 -73 0 -72 -187 -6 c-201 -7 -265 -19 -337 -61 -53 -31 -81 -68 -107 -141 -38 -108 -15 -275 52 -371 56 -81 172 -114 412 -114 117 0 159 -3 162 -12 2 -7 8 -92 14 -188 10 -185 18 -219 60 -247 24 -16 74 -19 571 -25 300 -3 752 -3 1005 0 415 7 463 9 486 25 43 29 51 62 63 257 l11 185 190 6 c247 8 323 29 382 106 56 74 68 116 68 248 0 107 -3 125 -24 165 -31 59 -57 88 -106 112 -72 38 -136 48 -322 55 l-183 6 0 72 0 73 178 5 c116 3 196 11 232 21 146 41 230 163 230 333 0 96 -11 138 -53 200 -62 93 -150 121 -409 130 l-178 6 0 67 0 67 153 7 c233 11 326 37 399 113 65 67 82 121 83 253 0 109 -2 118 -30 169 -37 66 -82 104 -150 125 -68 22 -201 36 -342 36 l-113 0 0 69 0 68 145 7 c152 8 160 8 240 27 82 19 128 44 168 88 58 64 79 121 85 226 5 106 -6 155 -51 221 -63 94 -150 122 -413 131 l-181 6 -10 201 c-6 126 -15 211 -23 228 -28 60 -41 62 -330 69 -343 9 -1530 8 -1640 -1z m673 -4077 c-13 -2 -33 -2 -45 0 -13 2 -3 4 22 4 25 0 35 -2 23 -4z m280 -10 c-29 -2 -78 -2 -110 0 -32 2 -8 3 52 3 61 0 87 -1 58 -3z m185 0 c-16 -2 -40 -2 -55 0 -16 2 -3 4 27 4 30 0 43 -2 28 -4z"/>
 </g>
<g id="layer102" fill="#000000" stroke="none">
 <path d="M1660 4650 c-47 -4 -99 -14 -116 -23 -60 -31 -84 -127 -84 -337 l0 -137 -182 -6 c-199 -7 -272 -20 -341 -60 -57 -34 -78 -64 -107 -149 -18 -55 -22 -83 -18 -145 2 -43 9 -87 15 -98 6 -11 17 -36 26 -55 40 -96 118 -144 285 -175 13 -2 90 -7 172 -11 l150 -7 0 -67 0 -67 -182 -6 c-195 -7 -273 -21 -343 -62 -52 -30 -77 -65 -105 -148 -30 -89 -25 -195 14 -282 66 -146 163 -188 464 -201 l152 -7 0 -67 0 -67 -182 -6 c-200 -7 -247 -15 -324 -53 -187 -92 -192 -443 -9 -565 73 -49 134 -61 333 -66 l182 -5 0 -73 0 -72 -187 -6 c-201 -7 -265 -19 -337 -61 -53 -31 -81 -68 -107 -141 -38 -108 -15 -275 52 -371 56 -81 172 -114 412 -114 117 0 159 -3 162 -12 2 -7 8 -92 14 -188 10 -185 18 -219 60 -247 24 -16 74 -19 571 -25 300 -3 752 -3 1005 0 415 7 463 9 486 25 43 29 51 62 63 257 l11 185 190 6 c247 8 323 29 382 106 56 74 68 116 68 248 0 107 -3 125 -24 165 -31 59 -57 88 -106 112 -72 38 -136 48 -322 55 l-183 6 0 72 0 73 178 5 c116 3 196 11 232 21 146 41 230 163 230 333 0 96 -11 138 -53 200 -62 93 -150 121 -409 130 l-178 6 0 67 0 67 153 7 c233 11 326 37 399 113 65 67 82 121 83 253 0 109 -2 118 -30 169 -37 66 -82 104 -150 125 -68 22 -201 36 -342 36 l-113 0 0 69 0 68 145 7 c152 8 160 8 240 27 82 19 128 44 168 88 58 64 79 121 85 226 5 106 -6 155 -51 221 -63 94 -150 122 -413 131 l-181 6 -10 201 c-6 126 -15 211 -23 228 -28 60 -41 62 -330 69 -343 9 -1530 8 -1640 -1z m1686 -106 l192 -7 6 -66 c3 -36 8 -247 12 -468 l7 -403 186 0 c205 0 293 10 324 37 29 26 75 132 83 190 10 79 -19 119 -121 166 -22 10 -65 25 -95 33 l-55 14 80 -6 c151 -10 201 -37 229 -123 28 -87 13 -194 -37 -263 -46 -63 -165 -88 -425 -88 l-172 0 0 -1317 c0 -725 -5 -1385 -10 -1468 -5 -82 -10 -160 -10 -172 l0 -23 -317 0 c-254 0 -315 3 -305 13 10 9 77 13 254 14 233 3 268 7 268 34 0 21 -63 32 -217 39 -201 9 -222 17 -275 110 -53 92 -114 159 -167 183 -39 18 -66 21 -181 22 -118 0 -140 -3 -175 -21 -22 -12 -39 -25 -38 -30 2 -5 67 -11 145 -14 143 -6 207 -20 159 -35 -12 -4 -81 -10 -154 -14 -158 -10 -186 -20 -274 -101 -88 -80 -119 -89 -361 -99 -107 -5 -198 -13 -204 -19 -24 -24 71 -46 262 -62 69 -6 141 -12 160 -14 19 -1 -94 -4 -252 -4 l-288 -2 0 33 c0 17 -5 100 -10 182 -5 83 -10 738 -10 1456 l0 1306 -217 6 c-243 5 -299 16 -358 68 -81 72 -90 275 -16 350 35 34 84 48 197 53 83 5 85 4 26 -4 -84 -12 -98 -17 -137 -51 -42 -37 -60 -105 -52 -198 9 -98 22 -128 71 -153 37 -20 60 -22 263 -26 l221 -4 5 433 c4 464 9 508 50 510 271 17 1276 18 1733 3z m-2176 -1358 c-114 -21 -144 -50 -161 -154 -25 -153 18 -255 121 -287 56 -17 19 -20 -48 -3 -96 24 -134 65 -156 172 -21 100 4 206 58 241 31 21 138 43 201 43 l50 0 -65 -12z m2912 -7 c106 -28 154 -153 112 -295 -27 -93 -86 -136 -204 -149 l-45 -5 50 16 c106 34 154 100 155 210 0 133 -50 194 -187 229 l-58 15 70 -5 c39 -3 87 -10 107 -16z m-2877 -826 c-73 -10 -134 -34 -158 -63 -50 -59 -58 -195 -18 -285 22 -49 57 -82 108 -101 l38 -15 -50 6 c-67 7 -146 47 -168 84 -66 112 -42 309 41 343 48 20 136 36 187 36 29 -1 37 -3 20 -5z m2886 -18 c56 -19 83 -46 103 -105 30 -86 10 -212 -42 -268 -31 -33 -127 -72 -175 -72 -29 0 -27 2 24 24 31 12 70 32 87 44 95 68 95 253 1 325 -37 28 -66 40 -144 63 l-50 14 75 -5 c41 -3 96 -12 121 -20z m-2897 -825 c-79 -11 -128 -32 -149 -64 -43 -65 -57 -211 -30 -304 15 -50 17 -52 68 -66 29 -8 63 -17 77 -20 14 -3 -5 -3 -42 -2 -82 4 -143 35 -169 86 -42 82 -39 237 5 305 30 45 113 70 241 72 l60 1 -61 -8z m2888 -11 c107 -28 155 -158 112 -305 -21 -74 -54 -110 -117 -129 -76 -22 -115 -19 -47 5 62 21 94 53 109 108 14 49 14 151 0 193 -16 48 -65 96 -118 116 -25 9 -50 20 -54 23 -11 9 65 2 115 -11z m-1749 -926 c-13 -2 -33 -2 -45 0 -13 2 -3 4 22 4 25 0 35 -2 23 -4z m280 -10 c-29 -2 -78 -2 -110 0 -32 2 -8 3 52 3 61 0 87 -1 58 -3z m185 0 c-16 -2 -40 -2 -55 0 -16 2 -3 4 27 4 30 0 43 -2 28 -4z"/>
 </g>
<g id="layer103" fill="#575888" stroke="none">
 <path d="M1192 4028 c-83 -9 -97 -14 -137 -49 -42 -37 -60 -105 -52 -198 9 -98 22 -128 71 -153 37 -20 60 -22 264 -26 l222 -4 0 218 0 219 -153 0 c-83 0 -180 -3 -215 -7z"/>
 <path d="M3560 3818 l0 -218 188 0 c206 0 294 10 325 37 29 26 75 132 83 190 10 79 -19 119 -119 165 -76 35 -122 41 -299 42 l-178 1 0 -217z"/>
 <path d="M1170 3186 c-114 -21 -144 -50 -161 -154 -17 -104 -1 -193 43 -239 52 -54 129 -71 336 -73 l172 -1 0 240 0 241 -162 -1 c-90 -1 -192 -7 -228 -13z"/>
 <path d="M3560 2961 l0 -241 171 0 c145 0 183 3 243 21 126 37 175 97 176 213 0 83 -17 131 -61 171 -62 56 -118 68 -336 73 l-193 4 0 -241z"/>
 <path d="M1205 2353 c-125 -17 -176 -55 -195 -150 -21 -101 6 -210 66 -262 58 -51 94 -57 362 -53 l122 2 0 235 0 235 -162 -1 c-90 -1 -176 -4 -193 -6z"/>
 <path d="M3560 2126 l0 -236 123 -2 c67 -1 145 -3 172 -4 60 -3 155 26 217 65 111 70 119 256 16 335 -74 55 -136 69 -340 74 l-188 4 0 -236z"/>
 <path d="M1194 1508 c-77 -8 -128 -29 -149 -62 -43 -65 -57 -211 -30 -304 15 -50 17 -52 67 -67 28 -8 62 -15 75 -15 13 0 21 -4 18 -10 -4 -6 66 -9 190 -8 l195 2 0 236 0 235 -153 0 c-83 0 -179 -3 -213 -7z"/>
 <path d="M3564 1511 c-2 -2 -4 -109 -4 -236 l0 -232 188 -1 c162 -1 196 2 256 19 80 24 119 57 135 115 14 51 14 152 0 195 -14 41 -62 94 -98 108 -14 6 -39 16 -56 23 -21 9 -89 13 -223 13 -106 0 -195 -2 -198 -4z"/>
 <path d="M2473 990 c-48 -10 -98 -39 -86 -51 4 -4 71 -9 148 -11 139 -4 204 -17 156 -33 -12 -4 -81 -10 -154 -14 -158 -10 -186 -20 -274 -101 -88 -80 -119 -89 -359 -99 -188 -8 -220 -13 -209 -31 37 -60 1135 -111 1230 -57 26 15 61 17 258 16 163 0 232 3 243 12 42 35 -8 50 -203 59 -201 9 -222 17 -275 110 -52 92 -114 159 -166 182 -50 23 -237 34 -309 18z"/>
 </g>
<g id="layer104" fill="#7172a2" stroke="none">
 <path d="M1205 3898 c9 -143 21 -200 45 -220 13 -10 48 -18 98 -22 42 -4 107 -9 145 -12 l67 -6 0 181 0 181 -181 0 -182 0 8 -102z"/>
 <path d="M3565 3988 c-3 -7 -4 -88 -3 -178 l3 -165 151 0 c204 0 214 8 230 175 8 87 -11 134 -63 157 -53 23 -310 32 -318 11z"/>
 <path d="M1281 3150 c-18 -4 -40 -14 -47 -22 -20 -20 -34 -115 -34 -230 l0 -98 180 0 180 0 0 180 0 180 -122 -1 c-68 -1 -138 -5 -157 -9z"/>
 <path d="M3562 2984 l3 -179 140 1 c123 0 145 3 181 22 54 28 69 63 61 148 -8 83 -25 139 -50 161 -16 15 -43 19 -178 22 l-159 3 2 -178z"/>
 <path d="M1245 2311 c-11 -5 -28 -18 -38 -29 -26 -29 -51 -144 -42 -197 12 -83 66 -106 293 -121 l102 -7 0 182 0 181 -147 -1 c-82 0 -157 -4 -168 -8z"/>
 <path d="M3560 2140 l0 -180 43 0 c68 1 219 17 263 29 63 17 94 54 94 112 0 60 -18 147 -37 176 -23 34 -66 43 -219 43 l-144 0 0 -180z"/>
 <path d="M1291 1469 c-25 -5 -51 -15 -58 -22 -19 -19 -33 -116 -33 -229 l0 -98 180 0 180 0 0 180 0 180 -112 -1 c-62 -1 -133 -5 -157 -10z"/>
 <path d="M3565 1468 c-3 -8 -4 -88 -3 -178 l3 -165 125 0 c147 0 184 7 225 39 29 23 30 27 30 103 0 99 -20 169 -54 191 -35 23 -318 32 -326 10z"/>
 <path d="M2483 573 c42 -2 112 -2 155 0 42 1 7 3 -78 3 -85 0 -120 -2 -77 -3z"/>
 </g>

</svg>