<!DOCTYPE svg PUBLIC "-//W3C//DTD SVG 20010904//EN" "http://www.w3.org/TR/2001/REC-SVG-20010904/DTD/svg10.dtd">
<svg version="1.0" xmlns="http://www.w3.org/2000/svg" width="512px" height="512px" viewBox="0 0 5120 5120" preserveAspectRatio="xMidYMid meet">
<g id="layer101" fill="#000000" stroke="none">
 <path d="M846 4079 c-25 -20 -26 -23 -26 -135 l0 -114 -113 0 c-98 0 -116 -3 -130 -18 -16 -17 -17 -127 -17 -1383 1 -1319 1 -1365 19 -1386 l19 -23 1959 0 1960 0 21 23 22 23 0 1362 c0 1349 0 1362 -20 1382 -18 18 -33 20 -130 20 l-110 0 0 94 c0 100 -10 141 -38 162 -18 14 -304 20 -337 8 -32 -13 -45 -59 -45 -164 l0 -100 -1325 0 -1325 0 0 113 c0 160 3 157 -202 157 -142 0 -158 -2 -182 -21z"/>
 </g>
<g id="layer102" fill="#372733" stroke="none">
 <path d="M960 3895 l0 -65 65 0 65 0 0 65 0 65 -65 0 -65 0 0 -65z"/>
 <path d="M4020 3895 l0 -65 70 0 71 0 -3 63 -3 62 -67 3 -68 3 0 -66z"/>
 <path d="M3757 3693 c-11 -11 -8 -393 3 -393 6 0 10 7 10 15 0 28 47 109 87 149 84 86 242 118 350 72 96 -41 185 -136 199 -212 14 -75 19 -24 16 168 l-2 203 -328 3 c-181 1 -331 -1 -335 -5z"/>
 <path d="M700 2430 l0 -1260 1460 0 1460 0 0 1260 0 1260 -1460 0 -1460 0 0 -1260z m2702 1042 l23 -23 3 -997 c2 -676 0 -1009 -8 -1033 -7 -25 -19 -40 -38 -48 -20 -8 -353 -11 -1240 -9 l-1214 3 -19 24 c-18 23 -19 54 -19 1033 0 1092 -2 1060 52 1071 13 2 566 4 1230 3 l1207 -1 23 -23z"/>
 <path d="M1030 2430 l0 -930 1130 0 1130 0 0 930 0 930 -1130 0 -1130 0 0 -930z m707 378 c13 -12 23 -32 23 -44 0 -15 16 -36 46 -61 59 -49 84 -98 84 -165 0 -63 -25 -110 -87 -163 -24 -20 -43 -44 -43 -54 0 -9 21 -37 46 -61 56 -55 84 -107 84 -156 0 -47 -24 -74 -65 -74 -36 0 -59 21 -69 62 -3 15 -28 48 -55 73 -48 45 -81 110 -81 157 0 41 43 118 85 152 63 52 64 70 4 128 -59 59 -80 96 -82 150 -2 69 62 102 110 56z m400 0 c13 -12 23 -32 23 -44 0 -14 16 -36 43 -59 61 -52 87 -100 87 -159 0 -65 -28 -122 -85 -169 -25 -21 -45 -46 -45 -55 0 -10 21 -38 46 -62 78 -77 107 -168 67 -212 -33 -36 -113 -12 -113 34 0 10 -27 47 -59 82 -108 116 -105 223 9 314 54 44 55 79 2 122 -45 35 -77 89 -86 143 -6 31 -3 41 18 62 31 31 62 32 93 3z m400 0 c13 -12 23 -32 23 -44 0 -14 16 -36 43 -59 61 -52 87 -100 87 -159 0 -65 -28 -122 -85 -169 -25 -21 -45 -47 -45 -57 0 -10 21 -38 46 -62 80 -75 108 -164 64 -208 -37 -37 -110 -15 -110 32 0 10 -27 47 -59 82 -108 116 -105 223 9 314 54 44 55 79 2 122 -45 35 -77 89 -87 142 -6 31 -3 41 19 62 31 32 62 33 93 4z"/>
 <path d="M4025 3423 c-59 -16 -128 -99 -139 -168 -18 -111 90 -235 204 -235 54 0 137 45 168 92 58 88 35 214 -51 282 -32 25 -48 30 -100 32 -34 2 -71 0 -82 -3z"/>
 <path d="M3750 3275 c0 -8 5 -15 10 -15 6 0 10 7 10 15 0 8 -4 15 -10 15 -5 0 -10 -7 -10 -15z"/>
 <path d="M3750 2895 c0 -202 3 -304 10 -300 6 3 10 20 10 37 0 85 113 213 213 242 57 17 69 36 21 36 -39 0 -94 34 -151 92 -55 56 -83 109 -83 157 0 16 -4 33 -10 36 -7 4 -10 -98 -10 -300z"/>
 <path d="M4410 3153 c0 -54 -57 -140 -133 -200 -15 -12 -53 -29 -84 -39 l-56 -18 52 -17 c58 -20 101 -48 146 -97 39 -41 75 -111 75 -146 0 -14 3 -26 8 -26 4 0 7 128 7 285 0 157 -3 285 -7 285 -5 0 -8 -12 -8 -27z"/>
 <path d="M4038 2761 c-115 -37 -179 -152 -144 -259 51 -153 248 -192 351 -71 35 42 46 73 47 129 0 78 -44 150 -114 186 -36 19 -106 26 -140 15z"/>
 <path d="M3750 2515 c0 -8 5 -15 10 -15 6 0 10 7 10 15 0 8 -4 15 -10 15 -5 0 -10 -7 -10 -15z"/>
 <path d="M4410 2483 c-1 -68 -116 -199 -202 -231 -114 -43 -268 -10 -351 74 -40 40 -87 121 -87 149 0 8 -4 15 -10 15 -7 0 -10 -228 -10 -662 l0 -663 332 3 c183 1 333 4 335 5 6 7 7 1327 1 1327 -5 0 -8 -8 -8 -17z m-140 -543 c24 -24 25 -57 4 -85 -14 -19 -27 -20 -185 -20 -157 0 -172 2 -185 19 -18 26 -18 56 2 84 15 21 21 22 180 22 151 0 166 -2 184 -20z m-7 -260 c21 -17 22 -25 22 -180 l0 -162 -29 -25 c-28 -24 -31 -24 -177 -21 -126 3 -151 6 -166 21 -16 15 -18 40 -21 181 l-3 164 25 20 c23 18 41 20 176 20 130 0 154 -3 173 -18z"/>
 <path d="M4020 1495 l0 -66 68 3 67 3 3 63 3 62 -71 0 -70 0 0 -65z"/>
 </g>
<g id="layer103" fill="#ecae58" stroke="none">
 <path d="M700 2430 l0 -1260 1460 0 1460 0 0 1260 0 1260 -1460 0 -1460 0 0 -1260z m2702 1042 l23 -23 3 -997 c2 -676 0 -1009 -8 -1033 -7 -25 -19 -40 -38 -48 -20 -8 -353 -11 -1240 -9 l-1214 3 -19 24 c-18 23 -19 54 -19 1033 0 1092 -2 1060 52 1071 13 2 566 4 1230 3 l1207 -1 23 -23z"/>
 <path d="M1030 2430 l0 -930 1130 0 1130 0 0 930 0 930 -1130 0 -1130 0 0 -930z m707 378 c13 -12 23 -32 23 -44 0 -15 16 -36 46 -61 59 -49 84 -98 84 -165 0 -63 -25 -110 -87 -163 -24 -20 -43 -44 -43 -54 0 -9 21 -37 46 -61 56 -55 84 -107 84 -156 0 -47 -24 -74 -65 -74 -36 0 -59 21 -69 62 -3 15 -28 48 -55 73 -48 45 -81 110 -81 157 0 41 43 118 85 152 63 52 64 70 4 128 -59 59 -80 96 -82 150 -2 69 62 102 110 56z m400 0 c13 -12 23 -32 23 -44 0 -14 16 -36 43 -59 61 -52 87 -100 87 -159 0 -65 -28 -122 -85 -169 -25 -21 -45 -46 -45 -55 0 -10 21 -38 46 -62 78 -77 107 -168 67 -212 -33 -36 -113 -12 -113 34 0 10 -27 47 -59 82 -108 116 -105 223 9 314 54 44 55 79 2 122 -45 35 -77 89 -86 143 -6 31 -3 41 18 62 31 31 62 32 93 3z m400 0 c13 -12 23 -32 23 -44 0 -14 16 -36 43 -59 61 -52 87 -100 87 -159 0 -65 -28 -122 -85 -169 -25 -21 -45 -47 -45 -57 0 -10 21 -38 46 -62 80 -75 108 -164 64 -208 -37 -37 -110 -15 -110 32 0 10 -27 47 -59 82 -108 116 -105 223 9 314 54 44 55 79 2 122 -45 35 -77 89 -87 142 -6 31 -3 41 19 62 31 32 62 33 93 4z"/>
 <path d="M3760 3498 l0 -193 29 60 c60 126 168 195 304 195 123 0 244 -79 298 -195 l28 -60 1 193 0 192 -330 0 -330 0 0 -192z"/>
 <path d="M4025 3423 c-59 -16 -128 -99 -139 -168 -18 -111 90 -235 204 -235 54 0 137 45 168 92 58 88 35 214 -51 282 -32 25 -48 30 -100 32 -34 2 -71 0 -82 -3z"/>
 <path d="M3761 2895 c0 -254 0 -259 17 -218 39 99 114 169 215 204 29 10 43 19 32 19 -76 1 -209 112 -244 202 l-20 53 0 -260z"/>
 <path d="M4402 3113 c-28 -89 -128 -182 -221 -205 l-45 -11 52 -18 c101 -35 184 -115 220 -214 8 -23 11 32 11 228 1 141 -1 257 -2 257 -2 0 -9 -17 -15 -37z"/>
 <path d="M4038 2761 c-115 -37 -179 -152 -144 -259 51 -153 248 -192 351 -71 35 42 46 73 47 129 0 78 -44 150 -114 186 -36 19 -106 26 -140 15z"/>
 <path d="M3760 1828 l0 -658 330 0 330 0 0 658 -1 657 -28 -60 c-54 -116 -175 -195 -298 -195 -136 0 -244 69 -304 195 l-29 60 0 -657z m510 112 c26 -26 25 -60 0 -88 -20 -21 -29 -22 -180 -22 -147 0 -162 2 -180 20 -24 24 -26 57 -4 88 15 21 21 22 180 22 151 0 166 -2 184 -20z m-6 -261 l26 -20 0 -163 c0 -213 12 -201 -200 -201 -212 0 -200 -12 -200 201 l0 163 26 20 c24 19 40 21 174 21 134 0 150 -2 174 -21z"/>
 </g>
<g id="layer104" fill="#888888" stroke="none">
 <path d="M700 2430 l0 -1260 1460 0 1460 0 0 1260 0 1260 -1460 0 -1460 0 0 -1260z m2702 1042 l23 -23 3 -997 c2 -676 0 -1009 -8 -1033 -7 -25 -19 -40 -38 -48 -20 -8 -353 -11 -1240 -9 l-1214 3 -19 24 c-18 23 -19 54 -19 1033 0 1092 -2 1060 52 1071 13 2 566 4 1230 3 l1207 -1 23 -23z"/>
 <path d="M1030 2430 l0 -930 1130 0 1130 0 0 930 0 930 -1130 0 -1130 0 0 -930z m707 378 c13 -12 23 -32 23 -44 0 -15 16 -36 46 -61 59 -49 84 -98 84 -165 0 -63 -25 -110 -87 -163 -24 -20 -43 -44 -43 -54 0 -9 21 -37 46 -61 56 -55 84 -107 84 -156 0 -47 -24 -74 -65 -74 -36 0 -59 21 -69 62 -3 15 -28 48 -55 73 -48 45 -81 110 -81 157 0 41 43 118 85 152 63 52 64 70 4 128 -59 59 -80 96 -82 150 -2 69 62 102 110 56z m400 0 c13 -12 23 -32 23 -44 0 -14 16 -36 43 -59 61 -52 87 -100 87 -159 0 -65 -28 -122 -85 -169 -25 -21 -45 -46 -45 -55 0 -10 21 -38 46 -62 78 -77 107 -168 67 -212 -33 -36 -113 -12 -113 34 0 10 -27 47 -59 82 -108 116 -105 223 9 314 54 44 55 79 2 122 -45 35 -77 89 -86 143 -6 31 -3 41 18 62 31 31 62 32 93 3z m400 0 c13 -12 23 -32 23 -44 0 -14 16 -36 43 -59 61 -52 87 -100 87 -159 0 -65 -28 -122 -85 -169 -25 -21 -45 -47 -45 -57 0 -10 21 -38 46 -62 80 -75 108 -164 64 -208 -37 -37 -110 -15 -110 32 0 10 -27 47 -59 82 -108 116 -105 223 9 314 54 44 55 79 2 122 -45 35 -77 89 -87 142 -6 31 -3 41 19 62 31 32 62 33 93 4z"/>
 <path d="M3760 3498 l0 -193 29 60 c60 126 168 195 304 195 123 0 244 -79 298 -195 l28 -60 1 193 0 192 -330 0 -330 0 0 -192z"/>
 <path d="M3761 2895 c0 -254 0 -259 17 -218 39 99 114 169 215 204 29 10 43 19 32 19 -76 1 -209 112 -244 202 l-20 53 0 -260z"/>
 <path d="M4402 3113 c-28 -89 -128 -182 -221 -205 l-45 -11 52 -18 c101 -35 184 -115 220 -214 8 -23 11 32 11 228 1 141 -1 257 -2 257 -2 0 -9 -17 -15 -37z"/>
 <path d="M3760 1828 l0 -658 330 0 330 0 0 658 -1 657 -28 -60 c-54 -116 -175 -195 -298 -195 -136 0 -244 69 -304 195 l-29 60 0 -657z m510 112 c26 -26 25 -60 0 -88 -20 -21 -29 -22 -180 -22 -147 0 -162 2 -180 20 -24 24 -26 57 -4 88 15 21 21 22 180 22 151 0 166 -2 184 -20z m-6 -261 l26 -20 0 -163 c0 -213 12 -201 -200 -201 -212 0 -200 -12 -200 201 l0 163 26 20 c24 19 40 21 174 21 134 0 150 -2 174 -21z"/>
 </g>
<g id="layer105" fill="#a1a1a1" stroke="none">
 <path d="M700 2430 l0 -1260 1460 0 1460 0 0 1260 0 1260 -1460 0 -1460 0 0 -1260z m2705 1045 l25 -24 0 -1017 c0 -1011 0 -1016 -21 -1045 l-20 -29 -1229 0 -1229 0 -20 26 c-21 27 -21 30 -21 1050 l0 1023 26 20 c27 21 28 21 1246 21 l1219 0 24 -25z"/>
 <path d="M1030 2430 l0 -930 1130 0 1130 0 0 930 0 930 -1130 0 -1130 0 0 -930z m707 378 c13 -12 23 -32 23 -44 0 -15 16 -36 46 -61 59 -49 84 -98 84 -165 0 -63 -25 -110 -87 -163 -24 -20 -43 -44 -43 -54 0 -9 21 -37 46 -61 56 -55 84 -107 84 -156 0 -47 -24 -74 -65 -74 -36 0 -59 21 -69 62 -3 15 -28 48 -55 73 -48 45 -81 110 -81 157 0 41 43 118 85 152 63 52 64 70 4 128 -59 59 -80 96 -82 150 -2 69 62 102 110 56z m400 0 c13 -12 23 -32 23 -44 0 -14 16 -36 43 -59 61 -52 87 -100 87 -159 0 -65 -28 -122 -85 -169 -25 -21 -45 -46 -45 -55 0 -10 21 -38 46 -62 78 -77 107 -168 67 -212 -33 -36 -113 -12 -113 34 0 10 -27 47 -59 82 -108 116 -105 223 9 314 54 44 55 79 2 122 -45 35 -77 89 -86 143 -6 31 -3 41 18 62 31 31 62 32 93 3z m400 0 c13 -12 23 -32 23 -44 0 -14 16 -36 43 -59 61 -52 87 -100 87 -159 0 -65 -28 -122 -85 -169 -25 -21 -45 -47 -45 -57 0 -10 21 -38 46 -62 80 -75 108 -164 64 -208 -37 -37 -110 -15 -110 32 0 10 -27 47 -59 82 -108 116 -105 223 9 314 54 44 55 79 2 122 -45 35 -77 89 -87 142 -6 31 -3 41 19 62 31 32 62 33 93 4z"/>
 </g>
<g id="layer106" fill="#cbeefa" stroke="none">
 <path d="M1030 2430 l0 -930 1130 0 1130 0 0 930 0 930 -1130 0 -1130 0 0 -930z m707 378 c13 -12 23 -32 23 -44 0 -15 16 -36 46 -61 59 -49 84 -98 84 -165 0 -63 -25 -110 -87 -163 -24 -20 -43 -44 -43 -54 0 -9 21 -37 46 -61 56 -55 84 -107 84 -156 0 -47 -24 -74 -65 -74 -36 0 -59 21 -69 62 -3 15 -28 48 -55 73 -48 45 -81 110 -81 157 0 41 43 118 85 152 63 52 64 70 4 128 -59 59 -80 96 -82 150 -2 69 62 102 110 56z m400 0 c13 -12 23 -32 23 -44 0 -14 16 -36 43 -59 61 -52 87 -100 87 -159 0 -65 -28 -122 -85 -169 -25 -21 -45 -46 -45 -55 0 -10 21 -38 46 -62 78 -77 107 -168 67 -212 -33 -36 -113 -12 -113 34 0 10 -27 47 -59 82 -108 116 -105 223 9 314 54 44 55 79 2 122 -45 35 -77 89 -86 143 -6 31 -3 41 18 62 31 31 62 32 93 3z m400 0 c13 -12 23 -32 23 -44 0 -14 16 -36 43 -59 61 -52 87 -100 87 -159 0 -65 -28 -122 -85 -169 -25 -21 -45 -47 -45 -57 0 -10 21 -38 46 -62 80 -75 108 -164 64 -208 -37 -37 -110 -15 -110 32 0 10 -27 47 -59 82 -108 116 -105 223 9 314 54 44 55 79 2 122 -45 35 -77 89 -87 142 -6 31 -3 41 19 62 31 32 62 33 93 4z"/>
 </g>

</svg>