<!DOCTYPE svg PUBLIC "-//W3C//DTD SVG 20010904//EN" "http://www.w3.org/TR/2001/REC-SVG-20010904/DTD/svg10.dtd">
<svg version="1.0" xmlns="http://www.w3.org/2000/svg" width="512px" height="512px" viewBox="0 0 5120 5120" preserveAspectRatio="xMidYMid meet">
<g id="layer101" fill="#000000" stroke="none">
 <path d="M848 3680 l-28 -30 0 -1040 0 -1040 -104 0 c-89 0 -107 -3 -130 -21 -36 -29 -36 -79 1 -114 l28 -25 1892 0 c1102 0 1893 4 1893 9 0 5 12 12 28 16 41 10 90 51 112 95 20 38 20 60 20 904 l0 864 -33 44 c-18 24 -52 53 -77 66 -43 22 -51 22 -397 22 l-353 0 0 60 0 60 65 0 c124 0 173 60 106 130 -28 30 -29 30 -142 30 -108 0 -116 -1 -141 -25 -36 -33 -40 -53 -36 -164 l3 -91 -62 0 -61 0 -4 96 -3 96 -40 34 c-22 20 -45 39 -52 45 -15 11 -943 13 -943 1 0 -4 -16 -16 -34 -26 -49 -26 -66 -68 -66 -165 l0 -81 -59 0 -59 0 -4 88 c-3 79 -6 93 -31 125 -15 20 -39 40 -52 43 -14 3 -25 10 -25 15 0 5 -72 9 -160 9 -154 0 -162 -1 -201 -25 -63 -40 -79 -76 -79 -172 l0 -83 -60 0 -60 0 0 83 c0 96 -16 132 -79 172 -36 22 -51 25 -131 25 -96 0 -96 0 -161 -61 l-39 -37 0 -91 0 -91 -62 0 -63 0 3 91 c4 111 0 131 -36 164 -35 32 -51 31 -84 -5z"/>
 </g>
<g id="layer102" fill="#d8712d" stroke="none">
 <path d="M1230 3495 l0 -65 65 0 65 0 0 65 0 65 -65 0 -65 0 0 -65z"/>
 <path d="M1760 3495 l0 -65 135 0 135 0 0 65 0 65 -135 0 -135 0 0 -65z"/>
 <path d="M2430 3495 l0 -65 430 0 430 0 0 65 0 65 -430 0 -430 0 0 -65z"/>
 <path d="M960 2890 l0 -400 200 0 c152 0 201 3 204 13 2 6 8 35 15 62 6 28 30 88 53 134 55 114 143 202 259 259 101 49 158 63 264 65 335 4 604 -268 605 -609 0 -70 -33 -193 -72 -267 -18 -34 -64 -95 -102 -135 -58 -61 -86 -81 -160 -117 -116 -55 -179 -69 -297 -63 -265 14 -483 192 -549 452 l-18 71 -201 3 -201 2 0 -400 0 -400 1709 0 c1667 0 1709 0 1732 19 l24 19 3 381 3 381 -204 0 -204 0 -12 -60 c-7 -33 -30 -97 -53 -142 -100 -200 -307 -328 -531 -328 -200 0 -390 102 -498 267 -65 101 -90 176 -96 298 -9 178 48 328 171 450 119 118 259 177 421 177 168 1 297 -53 420 -177 89 -88 125 -151 161 -274 l22 -76 198 0 199 0 3 371 c2 363 2 372 -19 397 l-20 27 -1715 0 -1714 0 0 -400z m510 250 c24 -24 26 -67 3 -92 -14 -16 -34 -18 -179 -18 l-163 0 -20 27 c-24 30 -20 58 11 86 17 15 42 17 174 17 141 0 156 -2 174 -20z m1400 0 c24 -24 26 -67 3 -92 -14 -16 -34 -18 -178 -18 -148 0 -163 2 -180 20 -24 27 -22 70 5 92 19 16 42 18 176 18 141 0 156 -2 174 -20z m1400 0 c27 -27 26 -75 -2 -94 -18 -13 -54 -16 -179 -16 l-158 0 -20 27 c-24 30 -20 58 11 86 17 15 42 17 174 17 141 0 156 -2 174 -20z m-2806 -1331 c35 -28 35 -70 0 -98 -24 -19 -40 -21 -165 -21 -80 0 -148 5 -162 11 -52 24 -54 93 -3 117 11 6 85 11 162 11 128 1 144 -1 168 -20z m1400 0 c17 -13 26 -30 26 -49 0 -19 -9 -36 -26 -49 -24 -19 -40 -21 -165 -21 -80 0 -148 5 -162 11 -52 24 -54 93 -3 117 11 6 85 11 162 11 128 1 144 -1 168 -20z m1400 0 c17 -13 26 -30 26 -49 0 -19 -9 -36 -26 -49 -24 -19 -40 -21 -165 -21 -80 0 -148 5 -162 11 -52 24 -54 93 -3 117 11 6 85 11 162 11 128 1 144 -1 168 -20z"/>
 <path d="M1840 2881 c-38 -12 -148 -69 -155 -81 -11 -17 56 -119 100 -155 54 -43 65 -46 122 -29 49 14 50 15 66 73 9 32 36 88 60 124 l44 65 -30 6 c-41 8 -176 6 -207 -3z"/>
 <path d="M3279 2868 c-72 -26 -117 -52 -126 -73 -10 -29 73 -138 133 -176 28 -17 40 -19 62 -11 15 6 39 13 55 16 15 4 27 13 27 21 0 34 41 128 76 176 20 27 33 53 29 57 -3 4 -48 8 -98 10 -75 2 -104 -2 -158 -20z"/>
 <path d="M2175 2779 c-44 -49 -85 -132 -85 -175 0 -18 8 -38 20 -49 11 -10 22 -26 26 -37 5 -17 12 -19 52 -13 43 5 169 -12 216 -31 17 -7 19 -4 14 32 -14 100 -80 211 -164 281 l-41 33 -38 -41z"/>
 <path d="M3626 2759 c-26 -35 -53 -85 -62 -116 -15 -52 -15 -56 4 -76 10 -12 24 -31 30 -42 9 -17 22 -20 99 -22 48 -1 110 -8 138 -17 27 -8 51 -13 54 -11 9 9 -31 133 -59 181 -30 54 -103 134 -138 153 -18 10 -25 4 -66 -50z"/>
 <path d="M1541 2628 c-35 -75 -53 -190 -41 -263 5 -27 9 -56 9 -62 2 -34 161 6 217 55 27 23 33 36 37 83 5 52 4 57 -21 72 -41 23 -129 116 -143 148 -6 16 -15 29 -20 29 -4 0 -21 -28 -38 -62z"/>
 <path d="M3013 2635 c-43 -86 -57 -154 -50 -247 4 -43 9 -84 13 -90 10 -15 93 -3 152 22 72 31 100 64 103 123 3 48 2 50 -44 83 -42 30 -104 100 -133 150 -10 17 -15 12 -41 -41z"/>
 <path d="M1917 2472 c-21 -23 -22 -75 -3 -91 8 -7 32 -11 53 -9 30 2 41 9 52 32 12 25 11 31 -6 55 -25 33 -72 40 -96 13z"/>
 <path d="M3388 2478 c-24 -18 -26 -72 -5 -95 12 -14 26 -18 49 -15 39 5 58 26 58 62 0 50 -62 78 -102 48z"/>
 <path d="M2155 2352 c-9 -11 -34 -39 -55 -62 l-39 -41 16 -52 c11 -37 14 -76 10 -134 -3 -52 -1 -83 5 -83 30 0 145 68 191 113 52 51 127 179 127 217 0 26 -72 52 -161 58 -68 4 -79 2 -94 -16z"/>
 <path d="M3606 2342 c-8 -16 -29 -43 -45 -59 l-29 -30 15 -64 c10 -44 13 -87 8 -137 -6 -73 -6 -74 17 -67 131 40 273 188 303 316 6 24 2 28 -37 44 -25 11 -79 20 -130 23 l-86 4 -16 -30z"/>
 <path d="M1777 2235 c-26 -19 -81 -44 -122 -56 l-74 -22 31 -40 c56 -71 177 -135 286 -153 l40 -6 12 58 c14 64 7 162 -12 193 -10 16 -45 35 -108 58 -3 1 -27 -14 -53 -32z"/>
 <path d="M3255 2240 c-40 -32 -132 -70 -170 -70 -43 0 -38 -21 18 -75 62 -60 176 -119 250 -130 45 -6 48 -5 57 21 18 48 22 136 8 184 -12 38 -21 49 -63 72 -28 15 -53 27 -56 27 -3 1 -23 -12 -44 -29z"/>
 </g>
<g id="layer103" fill="#bf5814" stroke="none">
 <path d="M1230 3495 l0 -65 65 0 65 0 0 65 0 65 -65 0 -65 0 0 -65z"/>
 <path d="M1760 3495 l0 -65 135 0 135 0 0 65 0 65 -135 0 -135 0 0 -65z"/>
 <path d="M2430 3495 l0 -65 430 0 430 0 0 65 0 65 -430 0 -430 0 0 -65z"/>
 <path d="M960 2890 l0 -400 200 0 c152 0 201 3 204 13 2 6 8 35 15 62 6 28 30 88 53 134 55 114 143 202 259 259 101 49 158 63 264 65 335 4 604 -268 605 -609 0 -70 -33 -193 -72 -267 -18 -34 -64 -95 -102 -135 -58 -61 -86 -81 -160 -117 -116 -55 -179 -69 -297 -63 -265 14 -483 192 -549 452 l-18 71 -201 3 -201 2 0 -400 0 -400 1709 0 c1667 0 1709 0 1732 19 l24 19 3 381 3 381 -204 0 -204 0 -12 -60 c-7 -33 -30 -97 -53 -142 -100 -200 -307 -328 -531 -328 -200 0 -390 102 -498 267 -65 101 -90 176 -96 298 -9 178 48 328 171 450 119 118 259 177 421 177 168 1 297 -53 420 -177 89 -88 125 -151 161 -274 l22 -76 198 0 199 0 3 371 c2 363 2 372 -19 397 l-20 27 -1715 0 -1714 0 0 -400z m510 250 c24 -24 26 -67 3 -92 -14 -16 -34 -18 -179 -18 l-163 0 -20 27 c-24 30 -20 58 11 86 17 15 42 17 174 17 141 0 156 -2 174 -20z m1400 0 c24 -24 26 -67 3 -92 -14 -16 -34 -18 -178 -18 -148 0 -163 2 -180 20 -24 27 -22 70 5 92 19 16 42 18 176 18 141 0 156 -2 174 -20z m1400 0 c27 -27 26 -75 -2 -94 -18 -13 -54 -16 -179 -16 l-158 0 -20 27 c-24 30 -20 58 11 86 17 15 42 17 174 17 141 0 156 -2 174 -20z m-2806 -1331 c35 -28 35 -70 0 -98 -24 -19 -40 -21 -165 -21 -80 0 -148 5 -162 11 -52 24 -54 93 -3 117 11 6 85 11 162 11 128 1 144 -1 168 -20z m1400 0 c17 -13 26 -30 26 -49 0 -19 -9 -36 -26 -49 -24 -19 -40 -21 -165 -21 -80 0 -148 5 -162 11 -52 24 -54 93 -3 117 11 6 85 11 162 11 128 1 144 -1 168 -20z m1400 0 c17 -13 26 -30 26 -49 0 -19 -9 -36 -26 -49 -24 -19 -40 -21 -165 -21 -80 0 -148 5 -162 11 -52 24 -54 93 -3 117 11 6 85 11 162 11 128 1 144 -1 168 -20z"/>
 <path d="M1917 2472 c-21 -23 -22 -75 -3 -91 8 -7 32 -11 53 -9 30 2 41 9 52 32 12 25 11 31 -6 55 -25 33 -72 40 -96 13z"/>
 <path d="M3388 2478 c-24 -18 -26 -72 -5 -95 12 -14 26 -18 49 -15 39 5 58 26 58 62 0 50 -62 78 -102 48z"/>
 <path d="M2284 2098 l-29 -33 33 29 c30 28 37 36 29 36 -2 0 -16 -15 -33 -32z"/>
 </g>
<g id="layer104" fill="#bfa25f" stroke="none">
 <path d="M1230 3495 l0 -65 65 0 65 0 0 65 0 65 -65 0 -65 0 0 -65z"/>
 <path d="M1760 3495 l0 -65 135 0 135 0 0 65 0 65 -135 0 -135 0 0 -65z"/>
 <path d="M2430 3495 l0 -65 430 0 430 0 0 65 0 65 -430 0 -430 0 0 -65z"/>
 <path d="M960 2890 l0 -400 200 0 c152 0 201 3 204 13 2 6 8 35 15 62 6 28 30 88 53 134 55 114 143 202 259 259 101 49 158 63 264 65 335 4 604 -268 605 -609 0 -70 -33 -193 -72 -267 -18 -34 -64 -95 -102 -135 -58 -61 -86 -81 -160 -117 -116 -55 -179 -69 -297 -63 -265 14 -483 192 -549 452 l-18 71 -201 3 -201 2 0 -400 0 -400 1709 0 c1667 0 1709 0 1732 19 l24 19 3 381 3 381 -204 0 -204 0 -12 -60 c-7 -33 -30 -97 -53 -142 -100 -200 -307 -328 -531 -328 -200 0 -390 102 -498 267 -65 101 -90 176 -96 298 -9 178 48 328 171 450 119 118 259 177 421 177 168 1 297 -53 420 -177 89 -88 125 -151 161 -274 l22 -76 198 0 199 0 3 371 c2 363 2 372 -19 397 l-20 27 -1715 0 -1714 0 0 -400z m510 250 c24 -24 26 -67 3 -92 -14 -16 -34 -18 -179 -18 l-163 0 -20 27 c-24 30 -20 58 11 86 17 15 42 17 174 17 141 0 156 -2 174 -20z m1400 0 c24 -24 26 -67 3 -92 -14 -16 -34 -18 -178 -18 -148 0 -163 2 -180 20 -24 27 -22 70 5 92 19 16 42 18 176 18 141 0 156 -2 174 -20z m1400 0 c27 -27 26 -75 -2 -94 -18 -13 -54 -16 -179 -16 l-158 0 -20 27 c-24 30 -20 58 11 86 17 15 42 17 174 17 141 0 156 -2 174 -20z m-2806 -1331 c35 -28 35 -70 0 -98 -24 -19 -40 -21 -165 -21 -80 0 -148 5 -162 11 -52 24 -54 93 -3 117 11 6 85 11 162 11 128 1 144 -1 168 -20z m1400 0 c17 -13 26 -30 26 -49 0 -19 -9 -36 -26 -49 -24 -19 -40 -21 -165 -21 -80 0 -148 5 -162 11 -52 24 -54 93 -3 117 11 6 85 11 162 11 128 1 144 -1 168 -20z m1400 0 c17 -13 26 -30 26 -49 0 -19 -9 -36 -26 -49 -24 -19 -40 -21 -165 -21 -80 0 -148 5 -162 11 -52 24 -54 93 -3 117 11 6 85 11 162 11 128 1 144 -1 168 -20z"/>
 </g>
<g id="layer105" fill="#d8bb78" stroke="none">
 <path d="M1230 3495 l0 -65 65 0 65 0 0 65 0 65 -65 0 -65 0 0 -65z"/>
 <path d="M1760 3495 l0 -65 135 0 135 0 0 65 0 65 -135 0 -135 0 0 -65z"/>
 <path d="M2430 3495 l0 -65 430 0 430 0 0 65 0 65 -430 0 -430 0 0 -65z"/>
 <path d="M960 2890 l0 -400 201 2 202 3 3 30 c6 53 15 84 53 165 53 116 156 216 286 278 81 38 88 41 135 51 57 12 245 7 262 -6 7 -6 27 -13 43 -17 26 -7 86 -34 151 -70 12 -6 34 -23 49 -36 104 -95 135 -141 187 -275 20 -51 23 -78 22 -180 0 -66 -5 -138 -10 -161 -20 -77 -86 -192 -147 -256 -64 -66 -179 -148 -208 -148 -10 0 -20 -4 -23 -9 -10 -16 -131 -35 -216 -35 -64 1 -108 8 -173 28 -47 15 -89 32 -93 38 -4 5 -22 16 -40 24 -19 8 -34 19 -34 24 0 6 -5 10 -12 10 -6 0 -39 29 -72 65 -62 66 -143 207 -150 262 -2 15 -7 39 -11 53 l-6 25 -200 -3 -199 -3 2 -392 3 -392 1649 -3 c1152 -1 1653 1 1662 9 7 6 14 40 16 83 l3 73 -30 -19 c-26 -15 -52 -18 -181 -18 -144 0 -151 1 -172 23 -28 30 -28 68 1 95 22 21 33 22 173 22 127 0 153 -3 179 -18 l30 -19 0 276 0 276 -135 5 c-74 3 -136 5 -137 5 -1 0 -4 -22 -8 -49 -5 -47 -21 -94 -50 -146 -8 -14 -22 -40 -31 -59 -57 -111 -260 -247 -397 -267 -113 -16 -238 -7 -304 22 -87 37 -107 47 -141 70 -66 44 -166 156 -196 219 -16 33 -33 68 -38 78 -20 41 -39 165 -34 222 13 142 22 173 85 279 57 97 171 216 207 216 6 0 22 8 35 18 54 42 133 62 259 67 126 5 199 -14 342 -91 29 -16 178 -162 178 -175 0 -4 11 -24 24 -44 27 -39 63 -141 68 -190 l3 -30 130 0 130 0 5 286 5 286 -21 -20 c-19 -18 -33 -19 -180 -19 -87 1 -162 1 -166 2 -15 0 -36 56 -31 83 9 44 54 57 203 57 116 0 130 -2 161 -23 l34 -23 -3 60 c-1 34 -5 71 -7 84 l-5 22 -1660 0 -1660 0 0 -400z m488 266 c39 -20 56 -55 43 -88 -5 -14 -15 -29 -21 -33 -5 -3 -83 -6 -172 -7 l-162 0 -23 27 c-37 42 -28 78 24 101 41 18 276 18 311 0z m1396 2 c56 -25 69 -95 23 -120 -13 -6 -82 -10 -180 -10 -195 1 -207 8 -188 104 0 5 16 14 34 22 41 18 274 21 311 4z m-1384 -1343 c32 -16 45 -44 35 -75 -13 -40 -54 -50 -211 -50 -138 0 -149 1 -171 22 -29 27 -29 65 -1 95 21 22 28 23 170 23 112 0 156 -4 178 -15z m1419 -11 c26 -34 26 -48 -1 -84 l-22 -30 -160 0 c-150 0 -161 1 -183 22 -29 27 -29 65 -1 95 21 22 27 23 184 23 l163 0 20 -26z"/>
 </g>
<g id="layer106" fill="#fcc107" stroke="none">
 <path d="M1230 3495 l0 -65 65 0 65 0 0 65 0 65 -65 0 -65 0 0 -65z"/>
 <path d="M1760 3495 l0 -65 135 0 135 0 0 65 0 65 -135 0 -135 0 0 -65z"/>
 <path d="M2430 3495 l0 -65 430 0 430 0 0 65 0 65 -430 0 -430 0 0 -65z"/>
 </g>

</svg>