<!DOCTYPE svg PUBLIC "-//W3C//DTD SVG 20010904//EN" "http://www.w3.org/TR/2001/REC-SVG-20010904/DTD/svg10.dtd">
<svg version="1.0" xmlns="http://www.w3.org/2000/svg" width="512px" height="512px" viewBox="0 0 5120 5120" preserveAspectRatio="xMidYMid meet">
<g id="layer101" fill="#000000" stroke="none">
 <path d="M2405 4576 c-87 -28 -136 -54 -198 -103 -58 -47 -131 -143 -154 -201 -15 -39 -19 -43 -42 -38 -132 29 -154 29 -239 8 -108 -28 -160 -54 -230 -118 -76 -69 -117 -141 -146 -254 l-23 -93 -85 -21 c-50 -13 -103 -33 -127 -51 -57 -39 -124 -115 -149 -168 -21 -45 -54 -185 -46 -198 2 -4 -19 -22 -47 -39 -28 -18 -66 -53 -85 -78 -37 -49 -74 -153 -74 -208 0 -28 -5 -36 -25 -44 -39 -15 -124 -105 -145 -153 -10 -23 -24 -70 -31 -104 -11 -52 -10 -70 2 -115 l15 -54 -47 -42 c-27 -24 -60 -67 -76 -100 -25 -50 -28 -68 -28 -152 0 -83 3 -102 27 -150 15 -30 36 -66 47 -80 20 -25 20 -25 -1 -103 -21 -76 -21 -80 -4 -152 28 -120 107 -214 212 -254 46 -18 47 -19 65 -89 23 -91 41 -124 95 -179 43 -42 132 -93 164 -93 10 0 20 -17 28 -46 35 -129 154 -221 312 -241 40 -5 48 -10 71 -48 59 -95 180 -159 299 -157 51 1 58 -2 95 -39 21 -22 64 -52 94 -67 48 -23 68 -27 146 -27 71 0 100 5 137 22 l47 21 39 -20 c58 -28 137 -34 205 -14 53 15 61 15 114 0 67 -19 146 -14 202 13 37 18 38 18 82 -2 34 -15 65 -20 139 -20 83 0 102 3 151 27 30 15 73 45 94 67 37 37 44 40 95 39 119 -2 240 62 299 157 23 38 31 43 71 48 158 20 277 112 312 241 8 29 18 46 28 46 32 0 121 51 164 93 54 55 72 88 95 179 18 70 19 71 65 89 105 40 184 134 212 254 17 72 17 76 -4 152 -21 78 -21 78 -1 103 11 14 32 50 47 80 24 48 27 67 27 150 0 84 -3 102 -28 152 -16 32 -49 76 -76 100 l-47 43 14 59 c13 53 13 66 -2 131 -25 104 -105 211 -178 238 -13 4 -18 17 -18 41 0 55 -37 159 -74 208 -19 25 -57 60 -85 78 -28 17 -49 35 -47 39 8 13 -25 153 -46 198 -25 53 -92 129 -149 168 -24 18 -77 38 -127 51 l-86 22 -18 76 c-26 111 -62 180 -132 251 -73 74 -136 108 -254 136 -84 20 -90 20 -171 5 -46 -9 -85 -15 -86 -14 -1 2 -11 23 -22 48 -106 241 -410 377 -658 296z m14 -1071 c126 -38 194 -32 381 31 11 4 26 -11 48 -45 38 -58 96 -111 167 -152 61 -35 216 -73 266 -65 35 6 35 6 52 -47 42 -134 159 -246 289 -277 33 -8 48 -17 48 -28 0 -55 94 -183 159 -217 22 -11 28 -25 39 -81 17 -92 53 -163 108 -214 l46 -42 -11 -43 c-16 -62 -14 -105 8 -175 l19 -62 -33 -44 c-32 -42 -75 -153 -75 -194 0 -13 -15 -23 -52 -36 -76 -25 -168 -118 -194 -197 -19 -57 -21 -59 -72 -76 -65 -22 -115 -61 -166 -129 -29 -39 -45 -52 -65 -52 -79 0 -195 -53 -247 -112 -27 -31 -34 -33 -94 -34 -79 0 -135 -16 -185 -50 -20 -14 -40 -22 -43 -19 -7 7 25 108 50 160 11 22 38 63 59 91 23 29 43 71 50 100 24 106 -41 218 -143 244 -24 6 -47 12 -53 14 -19 5 -104 -22 -133 -43 -16 -11 -49 -46 -72 -78 -24 -32 -47 -62 -51 -67 -4 -4 -36 15 -71 43 -73 59 -192 123 -259 139 -142 35 -284 -107 -249 -246 6 -26 20 -61 31 -79 20 -32 102 -93 125 -93 20 0 132 -93 164 -137 l31 -42 -43 23 c-52 29 -139 49 -193 44 -35 -3 -44 1 -69 30 -51 58 -168 112 -247 112 -20 0 -36 13 -65 52 -51 68 -101 107 -166 129 -51 17 -53 19 -72 76 -26 79 -118 172 -193 197 -38 13 -53 23 -53 36 0 41 -43 152 -75 194 l-33 44 19 62 c22 70 24 113 8 175 l-11 43 46 42 c55 51 91 122 108 214 11 56 17 70 39 81 65 34 159 162 159 217 0 11 15 20 48 28 130 31 247 143 289 278 l17 53 41 -6 c45 -7 184 24 245 55 62 32 137 97 177 155 24 35 43 53 53 50 8 -2 53 -16 99 -30z"/>
 </g>
<g id="layer102" fill="#e6d004" stroke="none">
 <path d="M2474 4445 c-85 -18 -139 -48 -204 -114 -81 -81 -113 -152 -118 -267 l-4 -92 -40 40 c-22 22 -65 52 -97 67 -47 22 -70 26 -141 26 -71 0 -94 -4 -142 -27 -68 -31 -133 -95 -168 -164 -22 -43 -25 -62 -25 -149 0 -93 2 -104 33 -162 34 -66 31 -80 -8 -38 -34 36 -105 60 -177 59 -193 -2 -323 -201 -248 -381 l14 -33 -47 0 c-57 0 -113 -30 -156 -83 -26 -33 -31 -48 -34 -107 -4 -61 -1 -75 21 -113 l26 -44 -47 4 c-38 4 -58 -1 -102 -24 -44 -23 -60 -39 -83 -83 -37 -71 -35 -147 6 -209 36 -54 26 -77 -49 -116 -78 -40 -114 -91 -121 -171 -6 -75 22 -134 87 -183 63 -47 66 -61 25 -121 -19 -28 -37 -67 -41 -86 -23 -126 74 -244 200 -244 35 0 46 -5 64 -30 19 -25 21 -35 13 -70 -17 -77 18 -163 85 -209 55 -38 110 -45 187 -24 15 4 16 1 7 -22 -15 -40 -12 -95 9 -140 19 -43 78 -100 118 -116 45 -17 117 -10 165 15 l46 24 4 -63 c5 -83 37 -133 109 -169 66 -33 121 -33 182 -2 l47 23 11 -39 c20 -77 118 -148 203 -148 44 0 98 28 147 77 l47 45 17 -36 c30 -63 97 -98 160 -82 31 8 95 63 95 82 0 8 5 14 10 14 6 0 10 -6 10 -14 0 -19 64 -74 95 -82 63 -16 130 19 160 82 l17 37 38 -42 c41 -45 109 -80 154 -81 86 0 185 69 205 146 l11 41 47 -23 c61 -31 116 -31 182 2 72 36 104 86 109 169 l4 63 46 -24 c48 -25 120 -32 165 -15 40 16 99 73 118 116 21 44 24 100 9 139 -10 28 -8 28 61 10 27 -7 97 12 133 37 67 46 102 132 85 209 -8 35 -6 45 13 70 18 25 29 30 64 30 71 0 129 33 175 100 19 28 24 48 24 101 0 57 -4 73 -32 118 -45 71 -43 89 15 131 67 50 95 108 89 184 -7 80 -43 131 -121 171 -65 34 -87 66 -62 94 25 28 46 88 46 133 -1 117 -111 220 -220 205 l-40 -5 26 44 c23 39 26 53 22 114 -3 59 -8 74 -34 107 -43 53 -99 83 -156 83 l-47 0 14 33 c75 180 -55 380 -248 381 -76 0 -128 -17 -173 -56 -19 -17 -37 -29 -39 -26 -3 3 10 31 28 64 30 55 32 65 32 159 0 90 -3 105 -28 153 -37 70 -91 123 -163 158 -51 25 -70 29 -144 29 -76 0 -93 -4 -152 -33 -36 -18 -80 -48 -96 -66 l-30 -34 -4 91 c-5 116 -37 187 -118 268 -66 67 -118 95 -209 115 -79 16 -88 16 -167 -1z m-113 -766 c66 -33 129 -49 199 -49 117 0 210 40 297 128 38 39 55 50 51 36 -9 -34 11 -132 36 -182 51 -100 140 -164 254 -184 66 -11 78 -10 149 11 75 22 77 22 95 3 15 -15 19 -35 21 -98 2 -66 7 -87 29 -125 57 -97 142 -143 254 -137 71 3 72 3 63 -20 -13 -34 -11 -74 6 -123 31 -86 119 -145 204 -137 23 2 40 1 38 -2 -57 -97 -61 -182 -11 -252 32 -46 100 -86 152 -90 50 -4 57 -20 21 -54 -52 -49 -72 -99 -67 -168 5 -72 34 -123 90 -158 21 -13 38 -26 38 -29 0 -4 -17 -9 -38 -13 -124 -19 -200 -176 -142 -291 31 -60 28 -68 -22 -59 -64 13 -122 7 -165 -14 -49 -25 -67 -46 -94 -106 -21 -48 -22 -104 -4 -148 6 -16 4 -17 -25 -7 -17 6 -54 9 -81 7 -102 -10 -179 -98 -179 -204 l0 -53 -45 26 c-39 21 -56 25 -109 21 -88 -5 -136 -38 -173 -117 l-28 -59 -40 21 c-49 26 -137 28 -181 5 -44 -24 -92 -76 -104 -114 -15 -43 -39 -50 -84 -23 -30 17 -47 20 -86 16 l-48 -6 5 57 c19 209 80 388 169 495 43 51 19 127 -40 127 -48 0 -141 -129 -192 -267 l-27 -72 -37 57 c-83 129 -285 282 -371 282 -49 0 -78 -80 -41 -112 9 -8 46 -30 82 -49 88 -45 205 -163 247 -249 34 -70 58 -156 66 -233 4 -42 3 -47 -12 -41 -39 18 -91 16 -125 -4 -43 -25 -72 -19 -85 18 -18 53 -79 109 -137 126 -59 17 -96 13 -154 -16 l-35 -18 -28 59 c-37 79 -85 112 -173 117 -53 4 -70 0 -109 -21 l-45 -26 0 53 c0 106 -77 194 -179 204 -27 2 -64 -1 -81 -7 -29 -10 -31 -9 -25 7 18 44 17 100 -4 148 -27 59 -46 81 -91 104 -51 25 -95 31 -147 19 -62 -13 -71 -2 -44 53 58 121 -15 274 -141 294 -21 4 -38 9 -38 13 0 3 17 16 38 29 56 35 85 86 90 158 5 69 -15 119 -67 168 -35 34 -29 50 21 54 143 11 233 175 164 298 -14 25 -26 47 -26 48 0 1 18 0 41 -2 85 -8 173 51 204 137 17 49 19 89 6 123 -9 23 -8 23 63 20 112 -6 197 40 254 137 22 38 27 59 29 125 2 63 6 83 21 99 18 18 22 18 66 3 141 -48 272 -19 375 84 60 61 109 200 93 264 -4 14 13 3 51 -36 32 -32 76 -67 98 -79z"/>
 </g>
<g id="layer103" fill="#ffe91d" stroke="none">
 <path d="M2453 4302 c-127 -45 -206 -136 -233 -265 -31 -151 52 -309 197 -379 40 -19 64 -23 143 -23 79 0 103 4 143 23 145 70 228 228 197 379 -16 77 -42 126 -96 180 -91 90 -237 126 -351 85z"/>
 <path d="M1811 3969 c-125 -24 -214 -138 -215 -274 -1 -61 3 -77 33 -130 37 -67 57 -87 118 -115 138 -65 305 -10 372 124 102 206 -81 440 -308 395z"/>
 <path d="M3191 3969 c-129 -25 -229 -160 -218 -291 24 -273 385 -353 518 -114 30 54 34 69 33 131 0 84 -24 143 -79 197 -68 68 -161 96 -254 77z"/>
 <path d="M1304 3476 c-43 -19 -101 -81 -115 -123 -30 -91 14 -204 96 -250 60 -33 158 -31 211 3 178 115 102 385 -108 384 -29 -1 -67 -7 -84 -14z"/>
 <path d="M3645 3474 c-40 -22 -84 -63 -100 -94 -48 -95 -14 -214 79 -274 33 -22 51 -26 106 -25 81 1 132 26 175 87 27 39 30 52 30 116 0 63 -4 78 -27 112 -44 63 -90 88 -167 91 -47 2 -75 -1 -96 -13z"/>
 <path d="M1045 3134 c-39 -20 -74 -53 -91 -86 -16 -31 -18 -105 -5 -141 31 -82 161 -133 231 -92 14 8 33 18 42 21 10 3 30 31 44 60 21 44 25 62 20 97 -18 115 -146 191 -241 141z"/>
 <path d="M3932 3129 c-52 -26 -89 -78 -98 -136 -5 -35 -1 -53 20 -97 14 -29 34 -57 44 -60 9 -3 28 -13 42 -21 63 -37 190 7 224 78 71 150 -86 310 -232 236z"/>
 <path d="M813 2775 c-107 -64 -109 -234 -4 -293 91 -51 217 -16 252 70 24 58 23 103 -2 155 -43 88 -158 120 -246 68z"/>
 <path d="M4123 2775 c-47 -29 -83 -92 -82 -146 0 -19 8 -54 18 -79 50 -122 258 -123 311 -2 26 57 25 105 -1 159 -43 88 -158 120 -246 68z"/>
 <path d="M840 2425 c14 -8 30 -14 35 -14 6 0 -1 6 -15 14 -14 8 -29 14 -35 14 -5 0 1 -6 15 -14z"/>
 <path d="M4260 2425 c-14 -8 -20 -14 -15 -14 6 0 21 6 35 14 14 8 21 14 15 14 -5 0 -21 -6 -35 -14z"/>
 <path d="M685 2367 c-81 -46 -111 -127 -78 -216 16 -48 26 -59 69 -83 39 -23 58 -27 94 -24 60 6 90 18 121 52 38 41 49 67 49 114 0 136 -140 222 -255 157z"/>
 <path d="M4285 2376 c-64 -29 -105 -94 -105 -167 0 -46 11 -72 49 -113 31 -34 61 -46 121 -52 36 -3 55 1 94 24 43 24 53 35 69 83 14 38 18 65 13 90 -20 111 -143 179 -241 135z"/>
 <path d="M795 2030 c-3 -5 3 -10 15 -10 12 0 18 5 15 10 -3 6 -10 10 -15 10 -5 0 -12 -4 -15 -10z"/>
 <path d="M4295 2030 c-3 -5 3 -10 15 -10 12 0 18 5 15 10 -3 6 -10 10 -15 10 -5 0 -12 -4 -15 -10z"/>
 <path d="M788 1971 c-46 -15 -85 -49 -107 -94 -40 -82 -21 -153 54 -211 60 -45 116 -49 191 -11 39 20 52 33 67 67 23 57 22 110 -3 158 -36 70 -132 113 -202 91z"/>
 <path d="M4238 1971 c-105 -34 -154 -143 -110 -249 14 -34 27 -47 66 -67 75 -38 131 -34 191 11 76 58 94 129 54 212 -36 72 -129 116 -201 93z"/>
 <path d="M1026 1607 c-55 -34 -86 -90 -86 -152 1 -51 9 -71 45 -117 31 -37 64 -51 125 -51 170 0 240 206 105 309 -53 40 -134 45 -189 11z"/>
 <path d="M3935 1614 c-46 -24 -66 -45 -87 -93 -31 -69 -19 -124 41 -182 52 -51 98 -65 162 -50 45 10 58 18 84 50 36 44 44 65 45 115 1 126 -137 217 -245 160z"/>
 <path d="M1348 1350 c-76 -23 -129 -85 -135 -160 -5 -58 18 -104 75 -147 36 -27 52 -33 95 -33 73 0 128 29 155 84 46 92 16 198 -68 241 -35 18 -90 25 -122 15z"/>
 <path d="M3691 1350 c-74 -18 -122 -76 -129 -154 -9 -111 61 -186 175 -186 95 0 178 88 170 180 -9 106 -114 184 -216 160z"/>
 <path d="M1665 1135 c-97 -53 -129 -141 -87 -243 32 -79 147 -114 238 -73 32 15 47 30 68 72 31 62 32 99 7 156 -37 80 -155 126 -226 88z"/>
 <path d="M3331 1140 c-71 -30 -120 -98 -121 -166 0 -16 12 -54 26 -83 21 -42 36 -57 68 -72 57 -26 112 -24 172 6 39 20 52 33 67 67 36 90 16 167 -58 223 -39 31 -112 42 -154 25z"/>
 <path d="M2002 993 c-93 -46 -124 -151 -74 -252 30 -60 132 -96 206 -71 41 13 93 63 102 97 4 13 9 21 13 19 10 -7 -4 107 -16 129 -46 82 -151 118 -231 78z"/>
 <path d="M2980 999 c-32 -13 -78 -57 -96 -91 -31 -59 -11 -150 42 -200 58 -54 117 -61 199 -23 58 26 81 60 92 136 7 49 -25 119 -72 154 -41 32 -120 43 -165 24z"/>
 <path d="M2343 908 c-42 -29 -57 -67 -50 -124 6 -55 40 -95 97 -114 35 -11 43 -10 86 10 35 18 51 32 63 61 9 22 18 39 21 39 3 0 12 -17 21 -39 12 -29 28 -43 63 -61 43 -20 51 -21 86 -10 62 20 91 58 99 128 4 34 4 59 0 56 -4 -2 -10 4 -13 13 -3 10 -22 29 -41 42 -29 20 -44 23 -92 19 -48 -4 -61 -10 -85 -37 -15 -17 -28 -38 -28 -46 0 -25 -15 -17 -27 15 -25 66 -136 93 -200 48z"/>
 </g>

</svg>