<!DOCTYPE svg PUBLIC "-//W3C//DTD SVG 20010904//EN" "http://www.w3.org/TR/2001/REC-SVG-20010904/DTD/svg10.dtd">
<svg version="1.0" xmlns="http://www.w3.org/2000/svg" width="512px" height="512px" viewBox="0 0 5120 5120" preserveAspectRatio="xMidYMid meet">
<g id="layer101" fill="#563c17" stroke="none">
 <path d="M2050 4728 c-72 -20 -139 -97 -155 -178 -8 -42 -207 -801 -239 -913 l-23 -78 23 -137 c12 -75 29 -182 38 -237 20 -126 21 -347 2 -424 -8 -31 -17 -110 -20 -176 -4 -66 -13 -165 -21 -220 -7 -55 -17 -134 -20 -175 -4 -41 -18 -165 -31 -275 -27 -217 -29 -427 -6 -610 6 -49 16 -140 21 -200 7 -76 21 -148 46 -230 21 -66 43 -158 51 -204 31 -189 66 -247 164 -269 36 -8 211 -12 586 -12 615 0 637 2 704 72 38 38 60 96 60 156 0 17 14 61 31 99 17 37 49 109 69 160 23 55 57 115 84 148 25 31 51 75 57 98 12 45 7 219 -11 363 -17 134 -30 428 -30 678 0 263 -4 243 74 370 48 79 44 125 -27 270 -67 135 -65 107 -26 378 11 76 26 192 33 257 15 133 16 119 -73 720 -58 392 -86 478 -170 534 -60 40 -115 49 -258 45 -108 -3 -135 -7 -174 -26 -80 -39 -78 -35 -195 -470 -8 -29 -14 -56 -15 -60 -3 -19 -28 129 -28 166 -1 59 -29 188 -51 239 -29 66 -93 129 -145 142 -53 13 -277 13 -325 -1z"/>
 </g>
<g id="layer102" fill="#000000" stroke="none">
 <path d="M2050 4728 c-72 -20 -139 -97 -155 -178 -8 -42 -207 -801 -239 -913 l-23 -78 23 -137 c12 -75 29 -182 38 -237 20 -126 21 -347 2 -424 -8 -31 -17 -110 -20 -176 -4 -66 -13 -165 -21 -220 -7 -55 -17 -134 -20 -175 -4 -41 -18 -165 -31 -275 -27 -217 -29 -427 -6 -610 6 -49 16 -140 21 -200 7 -76 21 -148 46 -230 21 -66 43 -158 51 -204 31 -189 66 -247 164 -269 36 -8 211 -12 586 -12 615 0 637 2 704 72 38 38 60 96 60 156 0 17 14 61 31 99 17 37 49 109 69 160 23 55 57 115 84 148 25 31 51 75 57 98 12 45 7 219 -11 363 -17 134 -30 428 -30 678 0 263 -4 243 74 370 48 79 44 125 -27 270 -67 135 -65 107 -26 378 11 76 26 192 33 257 15 133 16 119 -73 720 -58 392 -86 478 -170 534 -60 40 -115 49 -258 45 -108 -3 -135 -7 -174 -26 -80 -39 -78 -35 -195 -470 -8 -29 -14 -56 -15 -60 -3 -19 -28 129 -28 166 -1 59 -29 188 -51 239 -29 66 -93 129 -145 142 -53 13 -277 13 -325 -1z m252 -156 c49 -2 62 -15 82 -79 l7 -23 -130 0 -130 0 -11 40 c-6 21 -16 42 -22 46 -26 17 58 23 204 16z m846 -11 c18 -10 42 -58 42 -85 0 -7 -29 -10 -87 -8 -130 4 -173 11 -173 28 0 8 -7 28 -15 44 -15 29 -15 29 18 33 52 8 193 0 215 -12z m-674 -631 c20 -118 42 -233 48 -255 18 -63 12 -197 -16 -370 -14 -88 -32 -210 -38 -270 l-12 -111 -33 4 c-31 4 -39 13 -33 37 1 6 4 123 6 260 1 138 7 309 13 380 6 72 11 238 12 370 1 133 5 224 9 205 4 -19 24 -132 44 -250z m816 -65 c48 -304 48 -319 0 -645 -10 -69 -22 -159 -25 -201 -8 -91 -12 -99 -45 -92 -25 4 -26 5 -22 91 1 48 5 116 7 152 2 36 6 153 9 260 5 177 18 412 33 595 l6 70 9 -55 c5 -30 17 -109 28 -175z m-750 -1290 c-5 -14 -16 -35 -24 -48 -26 -38 -49 -147 -43 -199 4 -28 2 -46 -3 -43 -22 14 -29 -51 -36 -363 -4 -183 -8 -331 -9 -330 -2 2 -10 66 -19 143 -9 77 -21 156 -26 176 -6 20 -17 101 -26 180 -8 79 -18 165 -21 191 -5 47 -5 48 25 54 44 9 65 37 106 139 21 50 46 98 58 108 27 23 29 22 18 -8z m729 -565 c6 -223 18 -463 26 -535 18 -157 20 -331 4 -341 -7 -4 -9 0 -5 13 9 28 -18 48 -89 67 -106 30 -115 35 -116 70 0 17 -2 38 -3 46 -3 14 -7 78 -21 310 -10 182 -17 282 -19 298 -2 9 5 46 16 82 18 64 28 276 14 299 -4 5 19 13 51 17 50 6 63 12 93 44 19 20 36 37 37 36 1 -1 6 -183 12 -406z m-95 -1087 c-8 -21 -36 -85 -62 -143 -28 -65 -47 -124 -50 -157 -3 -35 -10 -54 -21 -59 -23 -11 -760 -17 -968 -9 l-172 7 -5 27 c-3 14 -8 44 -12 66 l-7 40 23 -20 c21 -19 35 -20 404 -18 439 3 646 10 664 25 18 16 15 26 -14 41 l-26 13 84 79 c66 63 164 143 175 145 1 0 -5 -17 -13 -37z"/>
 </g>
<g id="layer103" fill="#6f5530" stroke="none">
 <path d="M2056 4558 c-9 -14 -20 -44 -25 -69 -13 -67 -197 -763 -226 -855 -14 -45 -23 -88 -20 -95 2 -8 21 -117 41 -244 32 -205 35 -246 32 -380 -3 -104 -8 -158 -18 -175 -9 -17 -15 -65 -16 -145 -2 -66 -7 -149 -13 -185 -6 -36 -20 -153 -31 -260 -11 -107 -28 -249 -38 -315 -19 -137 -22 -379 -3 -465 6 -30 16 -121 21 -201 10 -152 24 -214 92 -396 48 -128 8 -118 452 -116 439 3 646 10 664 25 18 16 15 26 -14 41 l-26 14 89 83 c48 45 112 98 141 118 28 19 52 38 52 42 0 3 17 35 39 71 68 115 63 134 -44 163 -106 30 -115 35 -116 70 0 17 -2 38 -3 46 -3 14 -7 78 -21 310 -10 182 -17 282 -19 298 -2 9 5 46 16 82 18 63 28 276 14 299 -3 5 18 12 46 16 69 9 92 24 133 90 19 29 39 56 45 60 5 3 19 25 30 48 11 23 28 55 37 71 20 37 12 64 -59 206 -45 89 -58 106 -83 114 l-31 9 4 86 c1 47 5 115 7 151 2 36 6 153 9 260 3 107 11 269 17 360 20 297 21 433 4 543 -9 56 -23 109 -31 117 -10 10 -50 16 -142 21 -70 4 -128 8 -128 8 -1 1 -4 14 -7 29 -8 37 -40 77 -58 70 -13 -5 -44 -109 -169 -583 -28 -104 -63 -228 -77 -275 -37 -118 -36 -251 3 -445 25 -120 29 -163 28 -300 0 -119 -5 -179 -18 -235 -10 -41 -19 -88 -21 -105 -5 -60 -18 -154 -51 -370 -19 -121 -34 -232 -34 -247 0 -16 -4 -28 -10 -28 -5 0 -10 21 -10 48 0 85 -20 227 -34 241 -28 28 -34 -24 -42 -357 -4 -183 -8 -331 -9 -330 -2 2 -10 66 -19 143 -9 77 -21 156 -26 176 -6 20 -17 101 -26 180 -8 79 -18 165 -21 191 -5 47 -5 48 25 54 44 9 65 37 107 139 26 65 46 99 72 120 24 21 36 39 36 56 0 25 -79 210 -109 257 -10 15 -24 22 -44 22 -28 0 -36 10 -30 35 1 6 4 116 5 245 1 129 8 314 15 410 16 216 8 813 -11 836 -9 11 -41 14 -140 14 l-128 0 -11 38 c-5 22 -19 47 -29 56 -19 17 -20 17 -35 -6z m574 -3210 c0 -5 -36 -8 -80 -8 -57 0 -80 4 -80 13 0 18 39 178 46 189 6 9 113 -175 114 -194z"/>
 </g>
<g id="layer104" fill="#896f4a" stroke="none">
 <path d="M2682 3028 c-5 -8 -8 -50 -6 -100 3 -72 -1 -99 -22 -160 -13 -40 -25 -75 -25 -78 -1 -3 -5 -15 -10 -28 -7 -18 4 -49 50 -147 33 -68 71 -135 85 -150 25 -25 79 -35 91 -15 3 5 12 7 19 4 7 -3 20 6 30 20 14 22 23 25 63 23 44 -2 48 0 75 38 16 22 36 57 45 78 9 21 25 43 37 48 12 5 35 18 51 29 17 11 37 22 45 26 38 14 41 20 44 82 1 34 0 64 -2 67 -3 3 -6 15 -8 27 -4 37 -20 72 -49 106 -22 26 -30 30 -41 21 -10 -8 -18 -8 -27 0 -17 14 -347 14 -364 -1 -12 -10 -16 -5 -39 57 -4 11 -6 25 -5 31 3 20 -25 36 -37 22z"/>
 <path d="M1894 2950 c-19 -7 -21 -15 -19 -62 2 -37 -4 -72 -21 -117 -42 -110 -35 -153 44 -302 l61 -114 79 -3 c50 -2 82 1 87 7 3 6 11 9 16 6 5 -4 12 1 15 9 3 9 9 14 13 11 4 -2 19 2 34 10 14 7 35 11 47 8 11 -3 27 0 35 7 8 6 18 9 24 6 5 -4 21 4 35 16 24 21 44 62 75 156 6 17 16 47 22 65 21 60 21 100 -1 159 -11 31 -30 68 -41 82 -18 23 -26 26 -55 20 -21 -4 -40 -2 -49 6 -10 8 -47 10 -125 7 -61 -3 -113 -1 -116 4 -3 5 -10 7 -15 4 -23 -15 -94 -10 -109 6 -11 13 -21 15 -36 9z"/>
 <path d="M1734 1715 c-14 -35 -20 -196 -8 -208 4 -4 8 -35 9 -69 3 -53 13 -126 27 -198 6 -26 19 -41 34 -38 18 4 30 163 14 173 -6 4 -7 12 -3 18 10 16 4 86 -9 107 -6 10 -8 26 -4 36 10 24 7 174 -4 193 -15 28 -41 21 -56 -14z"/>
 <path d="M2530 1320 c-30 -10 -44 -20 -41 -30 2 -8 4 -21 5 -28 1 -8 9 -18 17 -23 10 -6 7 -9 -13 -10 -16 -1 -32 -3 -38 -4 -5 -1 -13 -3 -17 -4 -5 -1 3 -11 16 -22 17 -14 32 -18 55 -13 24 4 36 1 50 -15 11 -12 17 -23 14 -26 -2 -3 -31 2 -63 10 -71 19 -199 81 -185 90 16 10 -5 31 -36 39 -24 6 -275 -37 -297 -51 -6 -3 -25 -7 -44 -9 -18 -2 -38 -6 -45 -10 -6 -4 -26 -8 -45 -9 -41 -2 -88 -35 -88 -61 0 -11 -3 -24 -7 -30 -11 -16 7 -110 36 -195 15 -41 28 -84 31 -95 8 -35 34 -92 45 -99 6 -4 8 -10 5 -14 -2 -5 4 -16 15 -26 11 -10 20 -15 20 -10 0 4 6 2 14 -4 10 -8 16 -9 21 -1 7 12 221 14 229 2 2 -4 31 -5 63 -2 43 4 57 9 55 19 -2 11 0 12 11 3 14 -12 27 -7 27 10 0 4 -14 14 -30 20 l-31 13 40 36 c23 20 43 34 45 32 2 -3 12 7 21 21 10 14 21 24 25 21 5 -3 17 6 28 20 11 13 22 22 25 19 2 -3 14 7 25 21 11 14 23 26 27 25 3 -1 42 28 85 64 75 63 106 82 81 53 -6 -8 -7 -18 -3 -22 4 -5 2 -5 -4 -2 -13 7 -57 -36 -47 -46 3 -4 1 -8 -5 -8 -7 -1 -16 -3 -22 -4 -5 -1 -12 -3 -15 -4 -3 0 -1 -10 6 -22 l11 -21 21 23 c12 13 22 28 22 34 0 5 7 10 15 10 23 1 60 24 99 63 59 57 72 63 112 52 31 -9 36 -8 57 16 16 18 28 24 40 18 30 -13 41 -12 52 2 14 16 5 34 -17 34 -13 0 -12 5 6 24 13 14 20 29 17 35 -18 28 -340 113 -412 109 -21 -2 -58 -10 -84 -18z"/>
 <path d="M2381 1257 c-6 -8 -8 -17 -5 -20 10 -9 45 13 39 24 -9 13 -21 11 -34 -4z"/>
 <path d="M2503 894 c-26 -24 -33 -38 -26 -45 15 -15 52 6 63 37 5 13 13 23 17 22 5 -2 10 1 13 6 3 5 -3 10 -13 12 -9 1 -34 -13 -54 -32z"/>
 <path d="M2406 821 c-9 -15 23 -36 35 -24 8 8 5 14 -9 22 -12 6 -23 7 -26 2z"/>
 <path d="M2372 777 c-7 -8 -8 -18 -4 -22 4 -5 0 -6 -10 -2 -22 8 -29 -2 -17 -25 11 -20 11 -20 34 2 21 20 27 42 13 55 -3 3 -10 -1 -16 -8z"/>
 </g>

</svg>