<!DOCTYPE svg PUBLIC "-//W3C//DTD SVG 20010904//EN" "http://www.w3.org/TR/2001/REC-SVG-20010904/DTD/svg10.dtd">
<svg version="1.0" xmlns="http://www.w3.org/2000/svg" width="512px" height="512px" viewBox="0 0 5120 5120" preserveAspectRatio="xMidYMid meet">
<g id="layer101" fill="#000000" stroke="none">
 <path d="M705 4221 c-58 -26 -97 -63 -123 -113 l-22 -45 0 -1329 c0 -731 4 -1345 9 -1364 16 -66 54 -185 62 -195 4 -6 19 -47 33 -90 33 -102 55 -137 107 -172 l43 -28 1734 -3 1735 -2 43 21 c54 25 87 64 110 126 9 26 24 55 31 64 7 9 16 33 18 53 3 20 12 50 20 67 14 27 40 115 67 227 5 24 7 68 3 100 -4 31 -10 617 -14 1302 l-6 1245 -30 45 c-17 24 -52 58 -79 75 l-49 30 -1826 2 c-1750 3 -1828 2 -1866 -16z"/>
 </g>
<g id="layer102" fill="#bf5814" stroke="none">
 <path d="M729 4097 c-19 -13 -39 -38 -46 -57 -9 -26 -12 -337 -12 -1253 -1 -1341 -5 -1267 61 -1307 33 -20 45 -20 1833 -20 l1801 0 32 28 c21 17 36 41 42 67 15 64 12 2442 -3 2485 -7 19 -27 44 -46 57 l-34 23 -1797 0 -1797 0 -34 -23z m1536 -177 c15 -16 17 -26 9 -47 -13 -37 -37 -49 -71 -37 -22 7 -29 17 -31 42 -2 18 2 40 9 48 17 20 63 17 84 -6z m1988 -1 c21 -29 7 -72 -27 -84 -34 -12 -56 1 -69 39 -18 55 63 93 96 45z m-2450 -22 c54 -35 62 -60 65 -207 2 -79 -1 -153 -7 -176 -15 -52 -157 -214 -203 -231 -51 -18 -590 -18 -626 1 -15 8 -64 55 -108 105 -93 104 -94 106 -94 281 1 177 18 222 91 240 19 5 219 8 444 7 374 -2 413 -4 438 -20z m1561 1 c232 -43 420 -136 574 -282 288 -274 403 -652 316 -1042 -93 -419 -455 -759 -879 -826 -464 -73 -922 154 -1140 565 -162 305 -168 674 -16 987 151 310 454 537 793 594 104 17 273 20 352 4z m-1537 -1181 l38 -37 0 -428 c0 -392 -1 -430 -18 -455 -41 -63 -30 -62 -492 -65 -403 -2 -421 -2 -452 17 -70 44 -68 28 -68 501 0 401 1 427 19 453 39 57 33 57 503 54 l433 -2 37 -38z m445 -923 c27 -59 -43 -104 -88 -58 -19 18 -22 28 -15 46 17 49 83 56 103 12z m1966 20 c24 -17 30 -62 10 -82 -20 -20 -76 -15 -88 7 -15 29 -12 49 10 71 24 24 38 25 68 4z"/>
 <path d="M948 3666 l-3 -134 65 -72 65 -72 275 1 275 2 62 67 62 67 1 138 0 137 -399 0 -400 0 -3 -134z m256 63 c28 -13 36 -43 36 -140 0 -57 -3 -71 -22 -89 -25 -23 -46 -25 -71 -5 -22 16 -33 107 -23 178 6 40 18 55 53 66 1 1 13 -4 27 -10z m348 -6 c25 -23 27 -197 1 -225 -21 -24 -48 -23 -73 2 -17 17 -20 33 -20 110 0 77 3 93 20 110 24 24 47 25 72 3z"/>
 <path d="M3066 3788 c-440 -59 -787 -414 -840 -860 l-6 -48 110 0 110 0 0 33 c0 95 81 284 168 393 112 138 310 251 479 271 l53 6 0 103 c0 56 -3 105 -7 107 -5 2 -35 0 -67 -5z"/>
 <path d="M3254 3785 c-3 -6 -3 -54 -2 -106 3 -92 4 -94 28 -97 74 -9 195 -49 272 -89 205 -108 354 -310 391 -530 l13 -78 107 -3 c87 -2 107 0 107 11 0 36 -31 188 -49 240 -25 71 -83 186 -124 246 -92 134 -268 276 -419 339 -131 55 -315 93 -324 67z"/>
 <path d="M3060 3453 c-154 -31 -322 -150 -410 -289 -40 -64 -83 -176 -93 -246 l-6 -38 119 0 118 0 7 33 c32 146 167 279 318 311 l27 6 0 115 c0 62 -3 116 -7 118 -5 2 -37 -2 -73 -10z"/>
 <path d="M3255 3462 c-3 -3 -5 -56 -5 -118 0 -117 3 -124 47 -124 9 0 44 -14 79 -31 105 -52 200 -171 220 -276 l6 -33 119 0 119 0 -6 43 c-39 262 -258 486 -526 536 -26 4 -50 6 -53 3z"/>
 <path d="M3131 3110 c-136 -28 -243 -175 -228 -315 11 -109 97 -217 199 -251 66 -22 167 -15 225 15 60 30 120 97 143 158 81 217 -110 439 -339 393z"/>
 <path d="M2226 2713 c9 -77 51 -227 82 -295 139 -305 442 -526 772 -564 l60 -7 0 106 0 106 -37 6 c-96 16 -165 39 -253 82 -81 40 -109 60 -191 142 -81 82 -102 110 -141 191 -45 93 -78 199 -78 253 l0 27 -110 0 -110 0 6 -47z"/>
 <path d="M2556 2733 c38 -176 80 -259 179 -359 103 -104 228 -170 358 -189 l48 -7 -3 117 -3 117 -59 19 c-70 21 -155 77 -195 128 -32 40 -77 131 -86 174 l-5 27 -120 0 -120 0 6 -27z"/>
 <path d="M3591 2713 c-33 -130 -141 -241 -279 -283 l-57 -18 -3 -117 -3 -118 46 7 c263 35 494 267 540 539 l6 37 -119 0 -120 0 -11 -47z"/>
 <path d="M3957 2753 c-4 -3 -7 -18 -7 -33 0 -50 -30 -145 -75 -235 -69 -141 -163 -242 -299 -321 -63 -38 -218 -94 -257 -94 -68 -1 -69 -3 -69 -117 l0 -106 61 7 c363 41 694 309 809 656 19 58 50 205 50 238 0 9 -27 12 -103 12 -57 0 -107 -3 -110 -7z"/>
 <path d="M957 2643 c-4 -3 -7 -183 -7 -400 l0 -393 400 0 400 0 -2 398 -3 397 -391 3 c-215 1 -393 -1 -397 -5z m435 -221 c90 -107 138 -171 138 -186 0 -39 -29 -55 -107 -58 l-71 -3 70 -80 c39 -44 77 -90 85 -102 34 -51 -20 -113 -70 -80 -13 8 -79 79 -145 156 -93 108 -122 148 -122 169 0 43 17 52 98 52 43 0 72 4 70 10 -1 5 -40 54 -85 109 -86 103 -97 129 -66 163 36 40 60 22 205 -150z"/>
 <path d="M720 1342 c0 -7 4 -20 9 -30 15 -26 54 -165 53 -185 -1 -30 35 -105 57 -116 27 -15 3414 -15 3441 -1 27 15 39 39 66 143 13 49 31 104 38 121 8 17 17 42 20 56 l5 25 -1844 0 c-1480 0 -1845 -3 -1845 -13z"/>
 </g>
<g id="layer103" fill="#ecae58" stroke="none">
 <path d="M763 4113 c-12 -2 -36 -20 -53 -39 l-30 -35 0 -1252 1 -1252 22 -26 c12 -15 32 -32 44 -38 30 -15 3576 -16 3621 0 17 6 41 26 52 44 20 32 20 44 20 1279 l0 1246 -34 38 -34 37 -1794 1 c-986 1 -1803 -1 -1815 -3z m3482 -188 c29 -28 32 -51 8 -77 -20 -22 -61 -23 -85 -1 -38 34 -11 97 45 102 4 1 19 -10 32 -24z m-1983 -2 c22 -20 23 -51 1 -75 -32 -36 -103 -12 -103 35 0 49 64 75 102 40z m-465 -19 c60 -29 67 -51 71 -208 5 -188 0 -206 -98 -315 -43 -48 -91 -93 -107 -100 -21 -9 -114 -11 -332 -9 l-303 3 -68 72 c-38 40 -83 91 -100 114 l-30 42 0 159 c0 177 7 204 63 238 30 19 53 20 450 20 369 0 423 -2 454 -16z m1663 -23 c358 -97 634 -346 760 -683 46 -124 63 -227 63 -373 1 -205 -35 -349 -130 -524 -159 -296 -442 -495 -790 -556 -442 -77 -919 161 -1125 561 -109 210 -145 388 -126 616 31 376 270 719 613 882 82 39 212 82 287 95 91 17 362 6 448 -18z m-1637 -1154 c47 -44 49 -65 45 -522 -3 -422 -2 -413 -71 -455 -30 -19 -53 -20 -445 -20 -466 0 -466 0 -501 69 -20 39 -21 56 -21 451 0 454 0 452 63 490 30 19 53 20 464 20 l432 0 34 -33z m447 -929 c13 -25 13 -31 0 -55 -21 -37 -53 -41 -85 -9 -30 30 -32 49 -4 77 28 28 69 22 89 -13z m1984 10 c21 -30 20 -54 -4 -78 -27 -27 -65 -26 -84 2 -21 30 -20 54 4 78 27 27 65 26 84 -2z"/>
 <path d="M950 3667 l0 -134 63 -71 62 -72 275 1 275 0 62 72 63 72 0 133 0 132 -400 0 -400 0 0 -133z m272 56 c24 -22 26 -186 2 -221 -18 -26 -60 -29 -86 -5 -25 23 -27 197 -1 225 20 22 61 23 85 1z m342 -5 c12 -16 16 -47 16 -108 0 -97 -14 -130 -57 -130 -52 0 -63 23 -63 128 0 75 4 99 17 114 23 25 68 23 87 -4z"/>
 <path d="M957 2643 c-4 -3 -7 -183 -7 -400 l0 -393 400 0 400 0 -2 398 -3 397 -391 3 c-215 1 -393 -1 -397 -5z m435 -221 c90 -107 138 -171 138 -186 0 -39 -29 -55 -107 -58 l-71 -3 70 -80 c39 -44 77 -90 85 -102 34 -51 -20 -113 -70 -80 -13 8 -79 79 -145 156 -93 108 -122 148 -122 169 0 43 17 52 98 52 43 0 72 4 70 10 -1 5 -40 54 -85 109 -86 103 -97 129 -66 163 36 40 60 22 205 -150z"/>
 <path d="M4363 1349 c-19 -6 -751 -8 -1836 -7 l-1804 3 17 -50 c28 -81 38 -117 49 -180 8 -41 19 -68 36 -85 l25 -25 1711 0 1711 0 23 27 c13 16 28 52 35 85 13 66 18 83 69 206 17 42 18 42 -36 26z"/>
 </g>
<g id="layer104" fill="#b9c0c2" stroke="none">
 <path d="M763 4113 c-12 -2 -36 -20 -53 -39 l-30 -35 0 -1252 1 -1252 22 -26 c12 -15 32 -32 44 -38 30 -15 3576 -16 3621 0 17 6 41 26 52 44 20 32 20 44 20 1279 l0 1246 -34 38 -34 37 -1794 1 c-986 1 -1803 -1 -1815 -3z m3482 -188 c29 -28 32 -51 8 -77 -20 -22 -61 -23 -85 -1 -38 34 -11 97 45 102 4 1 19 -10 32 -24z m-1983 -2 c22 -20 23 -51 1 -75 -32 -36 -103 -12 -103 35 0 49 64 75 102 40z m-465 -19 c60 -29 67 -51 71 -208 5 -188 0 -206 -98 -315 -43 -48 -91 -93 -107 -100 -21 -9 -114 -11 -332 -9 l-303 3 -68 72 c-38 40 -83 91 -100 114 l-30 42 0 159 c0 177 7 204 63 238 30 19 53 20 450 20 369 0 423 -2 454 -16z m1663 -23 c358 -97 634 -346 760 -683 46 -124 63 -227 63 -373 1 -205 -35 -349 -130 -524 -159 -296 -442 -495 -790 -556 -442 -77 -919 161 -1125 561 -109 210 -145 388 -126 616 31 376 270 719 613 882 82 39 212 82 287 95 91 17 362 6 448 -18z m-1637 -1154 c47 -44 49 -65 45 -522 -3 -422 -2 -413 -71 -455 -30 -19 -53 -20 -445 -20 -466 0 -466 0 -501 69 -20 39 -21 56 -21 451 0 454 0 452 63 490 30 19 53 20 464 20 l432 0 34 -33z m447 -929 c13 -25 13 -31 0 -55 -21 -37 -53 -41 -85 -9 -30 30 -32 49 -4 77 28 28 69 22 89 -13z m1984 10 c21 -30 20 -54 -4 -78 -27 -27 -65 -26 -84 2 -21 30 -20 54 4 78 27 27 65 26 84 -2z"/>
 <path d="M950 3667 l0 -134 63 -71 62 -72 275 1 275 0 62 72 63 72 0 133 0 132 -400 0 -400 0 0 -133z m272 56 c24 -22 26 -186 2 -221 -18 -26 -60 -29 -86 -5 -25 23 -27 197 -1 225 20 22 61 23 85 1z m342 -5 c12 -16 16 -47 16 -108 0 -97 -14 -130 -57 -130 -52 0 -63 23 -63 128 0 75 4 99 17 114 23 25 68 23 87 -4z"/>
 <path d="M4363 1349 c-19 -6 -751 -8 -1836 -7 l-1804 3 17 -50 c28 -81 38 -117 49 -180 8 -41 19 -68 36 -85 l25 -25 1711 0 1711 0 23 27 c13 16 28 52 35 85 13 66 18 83 69 206 17 42 18 42 -36 26z"/>
 </g>
<g id="layer105" fill="#d2d9db" stroke="none">
 <path d="M743 4100 c-13 -5 -32 -24 -43 -42 -20 -33 -20 -50 -20 -1268 0 -1186 1 -1237 19 -1270 14 -26 29 -38 62 -48 62 -18 3593 -13 3625 5 12 7 29 31 38 53 14 36 16 160 16 1268 0 1209 0 1227 -20 1260 -11 18 -32 37 -46 42 -33 13 -3600 12 -3631 0z m1512 -166 c42 -27 29 -93 -21 -108 -29 -9 -74 28 -74 60 0 27 32 64 55 64 9 0 27 -7 40 -16z m1997 -1 c24 -21 23 -68 -2 -93 -33 -33 -83 -20 -101 26 -7 20 -5 32 12 55 23 33 62 39 91 12z m-2424 -47 l37 -34 2 -170 c3 -197 6 -189 -93 -300 -104 -119 -77 -112 -418 -112 -177 0 -305 4 -323 10 -16 6 -59 43 -94 82 -117 131 -109 108 -109 301 0 184 6 207 59 240 23 15 77 16 464 17 l437 0 38 -34z m1542 18 c65 -11 155 -36 197 -55 23 -10 47 -19 53 -19 10 0 87 -39 129 -65 146 -91 276 -214 364 -346 31 -48 57 -92 57 -100 0 -8 11 -33 24 -56 23 -39 57 -132 61 -163 1 -8 5 -22 8 -30 3 -8 8 -24 12 -35 12 -35 15 -318 4 -385 -49 -311 -243 -596 -524 -767 -49 -30 -161 -83 -175 -83 -9 0 -20 -4 -25 -9 -25 -24 -185 -54 -315 -58 -266 -10 -488 57 -690 207 -92 69 -248 234 -273 290 -4 8 -27 53 -52 100 -24 47 -45 89 -45 93 0 4 -9 27 -19 50 -71 156 -76 461 -11 667 77 247 236 457 451 599 51 34 99 61 107 61 8 0 33 10 56 21 22 12 48 25 57 29 35 18 179 52 249 60 74 8 232 5 300 -6z m-1563 -1159 c13 -9 33 -30 44 -48 18 -31 19 -50 17 -457 -3 -472 -2 -460 -69 -494 -28 -14 -86 -16 -448 -15 -229 1 -427 4 -441 8 -13 4 -37 25 -52 46 l-27 40 -1 420 c0 315 3 426 13 445 7 13 29 36 50 50 l37 25 426 -2 c371 -2 429 -4 451 -18z m2438 -930 c52 -51 8 -126 -60 -102 -48 17 -48 90 0 114 30 16 34 15 60 -12z m-1975 -17 c13 -25 13 -31 0 -55 -30 -53 -110 -34 -110 25 0 63 79 84 110 30z"/>
 </g>
<g id="layer106" fill="#ecf3f5" stroke="none">
 <path d="M681 2792 c-1 -1205 -1 -1234 19 -1271 11 -22 29 -41 42 -45 13 -3 774 -6 1693 -6 l1670 0 -3 355 c-2 240 1 363 8 378 13 25 8 21 -86 -95 -163 -201 -461 -355 -726 -376 -372 -29 -697 106 -943 391 -27 32 -59 73 -70 91 -67 111 -85 143 -85 158 0 9 -4 19 -9 23 -5 3 -21 40 -35 83 -92 281 -67 590 69 849 305 580 1031 766 1580 405 69 -46 212 -181 270 -256 l30 -38 -3 263 c-3 253 -4 265 -24 286 l-21 23 -1649 0 c-1404 0 -1654 -2 -1683 -14 -32 -14 -34 -13 -38 7 -2 12 -5 -533 -6 -1211z m1584 1138 c36 -39 7 -110 -44 -110 -27 0 -61 38 -61 67 0 56 68 84 105 43z m-437 -44 l37 -34 0 -185 0 -184 -46 -54 c-105 -122 -143 -155 -184 -162 -60 -10 -534 -8 -580 3 -31 7 -54 24 -103 77 -35 37 -77 86 -93 107 l-29 39 0 171 c0 152 2 174 19 200 37 56 30 55 504 56 l437 0 38 -34z m-22 -1141 c14 -9 34 -30 44 -48 19 -30 20 -54 19 -451 0 -460 1 -453 -61 -498 -33 -23 -34 -23 -413 -26 -452 -4 -474 -2 -524 43 l-36 33 -3 437 c-3 424 -2 438 18 470 37 61 34 60 504 58 375 -2 431 -4 452 -18z m470 -949 c11 -23 0 -63 -21 -78 -35 -26 -95 7 -95 52 0 66 88 86 116 26z"/>
 <path d="M4435 2805 c0 -671 1 -944 2 -607 2 338 2 887 0 1220 -1 334 -2 58 -2 -613z"/>
 <path d="M4287 2923 c-3 -5 -1 -28 3 -53 l7 -45 2 53 c1 49 -2 62 -12 45z"/>
 <path d="M4288 2769 c-2 -22 0 -43 4 -45 4 -3 8 15 8 40 0 57 -7 60 -12 5z"/>
 <path d="M4407 1517 l-17 -32 20 24 c17 20 26 41 18 41 -2 0 -11 -15 -21 -33z"/>
 </g>

</svg>