<!DOCTYPE svg PUBLIC "-//W3C//DTD SVG 20010904//EN" "http://www.w3.org/TR/2001/REC-SVG-20010904/DTD/svg10.dtd">
<svg version="1.0" xmlns="http://www.w3.org/2000/svg" width="512px" height="512px" viewBox="0 0 5120 5120" preserveAspectRatio="xMidYMid meet">
<g id="layer101" fill="#f28b47" stroke="none">
 <path d="M1710 4401 l0 -160 -40 1 c-26 0 -48 -6 -60 -17 -19 -17 -20 -33 -20 -292 l0 -273 -43 0 c-65 0 -87 -21 -87 -81 l0 -49 -273 0 c-311 0 -307 1 -307 -78 l0 -42 -160 0 -160 0 0 -75 0 -75 160 0 160 0 0 -43 c0 -32 6 -49 21 -63 19 -18 42 -19 290 -22 l269 -3 0 -54 0 -55 -264 0 c-251 0 -265 -1 -290 -21 -21 -17 -26 -29 -26 -65 l0 -44 -160 0 -160 0 0 -70 0 -70 160 0 160 0 0 -45 c0 -32 6 -51 20 -65 19 -19 33 -20 290 -20 l270 0 0 -60 0 -60 -270 0 c-257 0 -271 -1 -290 -20 -14 -14 -20 -33 -20 -65 l0 -45 -160 0 -160 0 0 -70 0 -70 160 0 160 0 0 -44 c0 -36 5 -48 26 -65 25 -20 39 -21 290 -21 l264 0 0 -55 0 -54 -269 -3 c-248 -3 -271 -4 -290 -22 -15 -14 -21 -31 -21 -63 l0 -43 -160 0 -160 0 0 -75 0 -75 160 0 160 0 0 -43 c0 -78 -2 -77 308 -77 l272 0 0 -49 c0 -60 22 -81 87 -81 l43 0 0 -273 c0 -259 1 -275 20 -292 12 -11 34 -17 60 -17 l40 1 0 -160 0 -159 75 0 75 0 0 159 0 160 41 -1 c29 0 47 6 63 21 20 21 21 31 24 291 l3 270 54 0 55 0 0 -264 c0 -251 1 -265 21 -290 17 -21 29 -26 65 -26 l44 0 0 -160 0 -160 70 0 70 0 0 161 0 161 28 -2 c49 -4 62 0 82 20 19 19 20 33 20 290 l0 270 60 0 60 0 0 -270 c0 -257 1 -271 20 -290 20 -20 33 -24 83 -20 l27 2 0 -161 0 -161 70 0 70 0 0 160 0 160 44 0 c36 0 48 5 65 26 20 25 21 39 21 290 l0 264 55 0 54 0 3 -270 c3 -260 4 -270 24 -291 16 -15 34 -21 63 -21 l41 1 0 -160 0 -159 75 0 75 0 0 159 0 160 40 -1 c26 0 48 6 60 17 19 17 20 33 20 292 l0 273 43 0 c65 0 87 21 87 81 l0 49 273 0 c311 0 307 -1 307 78 l0 42 160 0 160 0 0 75 0 75 -160 0 -160 0 0 43 c0 32 -6 49 -21 63 -19 18 -42 19 -290 22 l-269 3 0 54 0 55 264 0 c251 0 265 1 290 21 21 17 26 29 26 65 l0 44 160 0 160 0 0 70 0 70 -160 0 -160 0 0 45 c0 32 -6 51 -20 65 -19 19 -33 20 -290 20 l-270 0 0 60 0 60 270 0 c257 0 271 1 290 20 14 14 20 33 20 65 l0 45 160 0 160 0 0 70 0 70 -160 0 -160 0 0 44 c0 36 -5 48 -26 65 -25 20 -39 21 -290 21 l-264 0 0 55 0 54 269 3 c248 3 271 4 290 22 15 14 21 31 21 63 l0 43 160 0 160 0 0 75 0 75 -160 0 -160 0 0 43 c0 78 2 77 -308 77 l-272 0 0 49 c0 60 -22 81 -87 81 l-43 0 0 273 c0 259 -1 275 -20 292 -12 11 -34 17 -60 17 l-40 -1 0 160 0 159 -75 0 -75 0 0 -159 0 -160 -41 1 c-29 0 -47 -6 -63 -21 -20 -21 -21 -31 -24 -291 l-3 -270 -54 0 -55 0 0 264 c0 251 -1 265 -21 290 -17 21 -29 26 -65 26 l-44 0 0 160 0 160 -70 0 -70 0 0 -161 0 -161 -27 2 c-50 4 -63 0 -83 -20 -19 -19 -20 -33 -20 -290 l0 -270 -60 0 -60 0 0 270 c0 257 -1 271 -20 290 -20 20 -33 24 -82 20 l-28 -2 0 161 0 161 -70 0 -70 0 0 -160 0 -160 -44 0 c-36 0 -48 -5 -65 -26 -20 -25 -21 -39 -21 -290 l0 -264 -55 0 -54 0 -3 270 c-3 260 -4 270 -24 291 -16 15 -34 21 -63 21 l-41 -1 0 160 0 159 -75 0 -75 0 0 -159z"/>
 </g>
<g id="layer102" fill="#000000" stroke="none">
 <path d="M1710 4401 l0 -160 -40 1 c-26 0 -48 -6 -60 -17 -19 -17 -20 -33 -20 -292 l0 -273 -43 0 c-65 0 -87 -21 -87 -81 l0 -49 -273 0 c-311 0 -307 1 -307 -78 l0 -42 -160 0 -160 0 0 -75 0 -75 160 0 160 0 0 -43 c0 -32 6 -49 21 -63 19 -18 42 -19 290 -22 l269 -3 0 -54 0 -55 -264 0 c-251 0 -265 -1 -290 -21 -21 -17 -26 -29 -26 -65 l0 -44 -160 0 -160 0 0 -70 0 -70 160 0 160 0 0 -45 c0 -32 6 -51 20 -65 19 -19 33 -20 290 -20 l270 0 0 -60 0 -60 -270 0 c-257 0 -271 -1 -290 -20 -14 -14 -20 -33 -20 -65 l0 -45 -160 0 -160 0 0 -70 0 -70 160 0 160 0 0 -44 c0 -36 5 -48 26 -65 25 -20 39 -21 290 -21 l264 0 0 -55 0 -54 -269 -3 c-248 -3 -271 -4 -290 -22 -15 -14 -21 -31 -21 -63 l0 -43 -160 0 -160 0 0 -75 0 -75 160 0 160 0 0 -43 c0 -78 -2 -77 308 -77 l272 0 0 -49 c0 -60 22 -81 87 -81 l43 0 0 -273 c0 -259 1 -275 20 -292 12 -11 34 -17 60 -17 l40 1 0 -160 0 -159 75 0 75 0 0 159 0 160 41 -1 c29 0 47 6 63 21 20 21 21 31 24 291 l3 270 54 0 55 0 0 -264 c0 -251 1 -265 21 -290 17 -21 29 -26 65 -26 l44 0 0 -160 0 -160 70 0 70 0 0 161 0 161 28 -2 c49 -4 62 0 82 20 19 19 20 33 20 290 l0 270 60 0 60 0 0 -270 c0 -257 1 -271 20 -290 20 -20 33 -24 83 -20 l27 2 0 -161 0 -161 70 0 70 0 0 160 0 160 44 0 c36 0 48 5 65 26 20 25 21 39 21 290 l0 264 55 0 54 0 3 -270 c3 -260 4 -270 24 -291 16 -15 34 -21 63 -21 l41 1 0 -160 0 -159 75 0 75 0 0 159 0 160 40 -1 c26 0 48 6 60 17 19 17 20 33 20 292 l0 273 43 0 c65 0 87 21 87 81 l0 49 273 0 c311 0 307 -1 307 78 l0 42 160 0 160 0 0 75 0 75 -160 0 -160 0 0 43 c0 32 -6 49 -21 63 -19 18 -42 19 -290 22 l-269 3 0 54 0 55 264 0 c251 0 265 1 290 21 21 17 26 29 26 65 l0 44 160 0 160 0 0 70 0 70 -160 0 -160 0 0 45 c0 32 -6 51 -20 65 -19 19 -33 20 -290 20 l-270 0 0 60 0 60 270 0 c257 0 271 1 290 20 14 14 20 33 20 65 l0 45 160 0 160 0 0 70 0 70 -160 0 -160 0 0 44 c0 36 -5 48 -26 65 -25 20 -39 21 -290 21 l-264 0 0 55 0 54 269 3 c248 3 271 4 290 22 15 14 21 31 21 63 l0 43 160 0 160 0 0 75 0 75 -160 0 -160 0 0 43 c0 78 2 77 -308 77 l-272 0 0 49 c0 60 -22 81 -87 81 l-43 0 0 273 c0 259 -1 275 -20 292 -12 11 -34 17 -60 17 l-40 -1 0 160 0 159 -75 0 -75 0 0 -159 0 -160 -41 1 c-29 0 -47 -6 -63 -21 -20 -21 -21 -31 -24 -291 l-3 -270 -54 0 -55 0 0 264 c0 251 -1 265 -21 290 -17 21 -29 26 -65 26 l-44 0 0 160 0 160 -70 0 -70 0 0 -161 0 -161 -27 2 c-50 4 -63 0 -83 -20 -19 -19 -20 -33 -20 -290 l0 -270 -60 0 -60 0 0 270 c0 257 -1 271 -20 290 -20 20 -33 24 -82 20 l-28 -2 0 161 0 161 -70 0 -70 0 0 -160 0 -160 -44 0 c-36 0 -48 -5 -65 -26 -20 -25 -21 -39 -21 -290 l0 -264 -55 0 -54 0 -3 270 c-3 260 -4 270 -24 291 -16 15 -34 21 -63 21 l-41 -1 0 160 0 159 -75 0 -75 0 0 -159z m1537 -1153 c29 -27 29 -55 1 -85 -27 -29 -55 -29 -85 -1 -29 27 -29 55 -1 85 27 29 55 29 85 1z m-1267 -433 l0 -65 -65 0 -65 0 0 65 0 65 65 0 65 0 0 -65z m753 -343 c38 -33 9 -102 -43 -102 -64 0 -85 91 -27 117 25 11 44 7 70 -15z m-113 -557 l0 -65 -60 0 -60 0 0 65 0 65 60 0 60 0 0 -65z"/>
 </g>
<g id="layer103" fill="#7172a2" stroke="none">
 <path d="M1720 3885 l0 -225 65 0 65 0 0 225 0 225 -65 0 -65 0 0 -225z"/>
 <path d="M2240 3885 l0 -225 65 0 65 0 -2 223 -3 222 -62 3 -63 3 0 -226z"/>
 <path d="M2757 4103 c-4 -3 -7 -105 -7 -225 l0 -218 65 0 65 0 0 225 0 225 -58 0 c-32 0 -62 -3 -65 -7z"/>
 <path d="M3270 3885 l0 -225 65 0 65 0 0 225 0 225 -65 0 -65 0 0 -225z"/>
 <path d="M1590 3400 l0 -130 718 0 717 0 20 36 c45 84 168 114 257 61 62 -36 104 -116 94 -179 -19 -117 -132 -199 -235 -169 -49 15 -98 51 -118 89 l-18 32 -717 0 -718 0 0 -775 0 -775 195 0 195 0 0 433 c0 428 0 434 21 453 20 18 39 19 263 19 l242 0 26 41 c44 72 151 104 231 70 79 -33 126 -122 112 -212 -12 -85 -98 -154 -191 -154 -49 0 -127 45 -154 90 l-25 39 -197 1 -198 0 0 -390 0 -390 710 0 710 0 0 130 0 130 -390 0 -390 0 0 -42 c0 -79 -21 -88 -190 -88 -126 0 -164 7 -182 34 -4 6 -8 79 -8 162 0 203 -9 194 190 194 141 0 150 -1 170 -22 14 -15 20 -35 20 -65 l0 -43 390 0 390 0 0 195 0 195 -238 0 c-307 0 -282 -19 -282 210 l0 170 -450 0 -450 0 0 -30 c0 -17 -7 -44 -15 -60 -13 -25 -23 -29 -71 -36 -31 -3 -103 -4 -160 -2 -143 6 -138 0 -142 192 l-3 153 27 22 c24 19 39 21 169 21 169 0 184 -6 192 -83 l6 -47 493 0 c481 0 495 -1 514 -20 18 -18 20 -33 20 -190 l0 -169 191 -3 c105 -2 193 -1 195 1 2 2 4 235 4 518 l0 513 -970 0 -970 0 0 -130z"/>
 <path d="M1010 3335 l0 -65 225 0 225 0 0 65 0 65 -225 0 -225 0 0 -65z"/>
 <path d="M3660 3335 l0 -65 225 0 225 0 0 65 0 65 -225 0 -225 0 0 -65z"/>
 <path d="M1012 2818 l3 -63 223 -3 222 -2 0 65 0 65 -225 0 -226 0 3 -62z"/>
 <path d="M3660 2815 l0 -65 223 2 222 3 3 63 3 62 -226 0 -225 0 0 -65z"/>
 <path d="M1017 2363 c-4 -3 -7 -33 -7 -65 l0 -58 225 0 225 0 0 65 0 65 -218 0 c-120 0 -222 -3 -225 -7z"/>
 <path d="M3660 2305 l0 -65 225 0 226 0 -3 63 -3 62 -222 3 -223 2 0 -65z"/>
 <path d="M1010 1785 l0 -65 225 0 225 0 0 65 0 65 -225 0 -225 0 0 -65z"/>
 <path d="M3660 1785 l0 -65 225 0 225 0 0 65 0 65 -225 0 -225 0 0 -65z"/>
 <path d="M1720 1235 l0 -225 65 0 65 0 0 225 0 225 -65 0 -65 0 0 -225z"/>
 <path d="M2240 1235 l0 -226 63 3 62 3 3 223 2 222 -65 0 -65 0 0 -225z"/>
 <path d="M2752 1238 l3 -223 63 -3 62 -3 0 226 0 225 -65 0 -65 0 2 -222z"/>
 <path d="M3270 1235 l0 -225 65 0 65 0 0 225 0 225 -65 0 -65 0 0 -225z"/>
 </g>
<g id="layer104" fill="#d1d3e6" stroke="none">
 <path d="M1600 3395 l0 -125 710 0 709 0 15 28 c31 59 103 102 174 102 51 0 119 -36 156 -83 28 -35 31 -45 31 -112 0 -67 -3 -77 -31 -112 -37 -47 -105 -83 -156 -83 -71 0 -143 43 -174 103 l-15 27 -709 0 -710 0 0 -770 0 -770 188 0 187 0 3 428 3 427 25 23 c25 22 30 22 265 22 147 0 239 4 239 10 0 16 62 80 94 97 44 23 135 21 176 -3 18 -10 47 -36 63 -57 57 -69 46 -201 -19 -258 -68 -60 -181 -66 -249 -15 -21 16 -45 42 -54 57 l-16 29 -197 0 -198 0 0 -380 0 -380 705 0 705 0 0 125 0 125 -379 0 -378 0 -6 -45 c-9 -81 -17 -85 -197 -85 -206 0 -195 -11 -195 197 0 202 -9 193 195 193 175 0 189 -6 197 -83 l6 -47 378 0 379 1 0 189 0 189 -236 3 c-298 4 -274 -16 -274 219 l0 169 -450 0 -450 0 0 -44 c0 -36 -5 -48 -26 -65 -24 -19 -40 -21 -169 -21 -129 0 -145 2 -169 21 l-26 20 0 153 c0 209 -13 196 195 196 158 0 164 -1 179 -22 9 -12 16 -39 16 -60 l0 -37 494 -3 c470 -3 495 -4 515 -22 20 -18 21 -29 21 -193 l0 -173 190 0 190 0 0 510 0 510 -960 0 -960 0 0 -125z"/>
 </g>
<g id="layer105" fill="#eaecff" stroke="none">
 <path d="M2428 3393 l-696 -3 -4 -55 -3 -55 646 0 647 0 16 25 c23 36 57 66 91 81 17 7 23 12 15 11 -8 -1 -328 -3 -712 -4z"/>
 <path d="M3290 3383 c19 -10 37 -14 39 -10 5 12 1 14 -39 22 l-35 6 35 -18z"/>
 <path d="M1725 3056 l0 -74 24 19 c21 17 42 19 166 19 129 0 145 -2 169 -21 21 -17 26 -29 26 -65 l0 -44 493 0 c371 -1 496 -4 508 -13 34 -26 39 -55 39 -216 l0 -161 90 0 90 0 0 274 0 274 -37 -19 c-44 -22 -120 -25 -166 -5 -18 7 -51 34 -74 60 l-41 46 -643 0 -644 0 0 -74z"/>
 <path d="M2110 2705 c0 -32 -6 -51 -20 -65 -18 -18 -33 -20 -173 -20 -114 0 -158 4 -172 14 -20 14 -20 10 -17 -445 l2 -458 120 -3 119 -3 3 368 3 369 24 19 c21 18 42 19 267 19 198 0 244 3 244 13 0 21 69 88 106 103 69 29 160 8 215 -49 31 -32 59 -97 59 -137 0 -100 -102 -200 -202 -200 -63 1 -157 61 -173 111 -6 18 -19 19 -206 19 l-199 0 2 -315 3 -316 141 -2 c138 -2 140 -2 122 17 -16 17 -18 39 -18 171 0 205 -10 195 200 195 151 0 160 -1 180 -22 13 -14 20 -35 20 -62 l0 -41 285 3 284 3 3 184 3 185 -141 0 c-194 0 -184 -12 -184 215 l0 175 -450 0 -450 0 0 -45z"/>
 <path d="M2760 1804 c0 -28 -7 -48 -22 -64 -18 -20 -19 -23 -4 -17 10 4 148 7 307 7 l289 0 0 55 0 54 -285 3 -285 3 0 -41z"/>
 </g>

</svg>