<!DOCTYPE svg PUBLIC "-//W3C//DTD SVG 20010904//EN" "http://www.w3.org/TR/2001/REC-SVG-20010904/DTD/svg10.dtd">
<svg version="1.0" xmlns="http://www.w3.org/2000/svg" width="512px" height="512px" viewBox="0 0 5120 5120" preserveAspectRatio="xMidYMid meet">
<g id="layer101" fill="#000000" stroke="none">
 <path d="M993 4322 c-99 -35 -194 -141 -209 -233 -6 -34 -9 -37 -47 -43 -58 -10 -112 -43 -144 -89 l-28 -40 1 -481 c0 -265 1 -496 1 -513 0 -18 0 -248 -1 -510 0 -263 1 -489 1 -503 1 -14 -1 -241 -3 -505 l-5 -481 24 -44 c13 -25 43 -58 66 -75 l43 -30 1868 0 1868 0 43 30 c23 17 53 50 66 75 l24 44 -5 481 c-2 264 -4 491 -3 505 0 14 1 240 1 503 -1 262 -1 492 -1 510 0 17 1 248 1 513 l1 481 -28 40 c-32 46 -86 79 -144 89 -38 6 -41 9 -47 43 -16 97 -120 207 -224 237 -167 49 -351 -47 -401 -210 l-19 -61 -1132 0 -1132 0 -19 61 c-51 167 -250 265 -416 206z"/>
 </g>
<g id="layer102" fill="#303030" stroke="none">
 <path d="M1015 4212 c-85 -40 -135 -128 -135 -237 l0 -35 -73 0 c-51 0 -79 -5 -96 -16 -49 -35 -51 -53 -51 -496 0 -373 2 -416 18 -448 9 -19 27 -39 39 -45 21 -9 21 -10 -15 -41 l-37 -32 0 -452 0 -452 37 -33 38 -32 -26 -11 c-53 -25 -55 -44 -52 -513 l3 -431 33 -29 32 -29 1830 0 1830 0 32 29 33 29 3 431 c3 469 1 488 -52 513 l-26 11 38 32 37 33 0 452 0 452 -37 32 c-36 31 -36 32 -15 41 12 6 30 26 39 45 16 32 18 75 18 448 0 443 -2 461 -51 496 -17 11 -45 16 -96 16 l-73 0 0 35 c0 75 -21 137 -62 181 -139 151 -378 51 -378 -157 l0 -59 -1240 0 -1240 0 0 59 c0 125 -88 221 -208 228 -41 3 -69 -2 -97 -15z m1913 -530 c72 -47 67 -176 -10 -218 -54 -31 -151 -5 -178 47 -16 28 -14 112 2 139 31 54 128 70 186 32z m285 6 c27 -14 57 -69 57 -106 0 -83 -50 -132 -134 -132 -37 0 -51 6 -80 34 -33 30 -36 38 -36 89 0 45 5 61 26 86 39 47 109 59 167 29z m297 -7 c35 -25 50 -58 50 -112 0 -80 -58 -126 -146 -116 -56 6 -88 34 -102 89 -30 119 98 209 198 139z m251 19 c20 -6 48 -22 63 -36 22 -23 26 -36 26 -83 0 -35 -6 -65 -16 -79 -50 -72 -180 -68 -219 8 -45 87 5 182 105 199 3 1 21 -4 41 -9z m331 -18 c36 -21 63 -89 54 -135 -3 -18 -20 -47 -37 -63 -26 -25 -38 -29 -89 -29 -54 0 -63 3 -91 32 -25 24 -33 42 -36 80 -11 111 98 174 199 115z m-1013 -297 c63 -53 63 -146 0 -199 -37 -31 -114 -36 -155 -10 -68 45 -72 150 -8 209 39 36 120 35 163 0z m290 -1 c60 -50 62 -143 4 -194 -28 -25 -42 -30 -83 -30 -43 0 -56 5 -88 34 -34 32 -37 38 -37 91 0 53 3 59 37 91 32 29 45 34 87 34 38 0 56 -6 80 -26z m300 -4 c53 -54 53 -136 -1 -190 -25 -25 -37 -30 -79 -30 -70 0 -104 20 -125 75 -14 38 -15 52 -5 85 18 59 61 90 126 90 46 0 58 -4 84 -30z m281 10 c61 -44 67 -152 11 -202 -26 -23 -40 -28 -87 -28 -68 0 -98 18 -119 74 -22 56 -8 114 36 150 39 33 117 36 159 6z m280 5 c44 -23 60 -53 60 -113 0 -48 -4 -58 -34 -88 -31 -31 -40 -34 -91 -34 -51 0 -60 3 -91 34 -31 31 -34 40 -34 91 0 51 3 60 34 91 29 29 41 34 80 34 26 0 60 -7 76 -15z m-1316 -729 c87 -36 85 -187 -3 -223 -55 -23 -119 -12 -153 26 -52 59 -32 174 36 201 32 13 83 12 120 -4z m292 -1 c37 -15 64 -62 64 -110 0 -48 -27 -95 -64 -110 -99 -42 -186 10 -186 110 0 100 87 152 186 110z m294 0 c81 -42 79 -179 -2 -221 -39 -20 -121 -13 -149 12 -44 40 -48 137 -9 187 30 38 109 48 160 22z m289 1 c41 -21 61 -59 61 -111 0 -97 -80 -148 -178 -114 -65 23 -92 119 -52 185 32 51 111 69 169 40z m316 -16 c52 -49 52 -141 -1 -191 -21 -20 -36 -24 -85 -24 -53 0 -62 3 -91 33 -29 29 -33 39 -33 86 0 44 5 59 25 81 34 37 57 45 113 41 33 -2 55 -10 72 -26z m-1050 -274 c73 -31 89 -152 26 -208 -58 -52 -168 -31 -197 37 -49 119 52 220 171 171z m327 -25 c24 -26 28 -40 28 -87 0 -50 -3 -59 -34 -90 -30 -30 -40 -34 -86 -34 -46 0 -56 4 -86 34 -62 62 -45 174 31 207 11 5 42 7 69 5 41 -3 55 -9 78 -35z m258 26 c13 -7 35 -28 48 -47 19 -28 23 -43 18 -78 -10 -77 -50 -112 -127 -112 -48 0 -93 24 -108 57 -16 36 -13 115 5 142 32 45 113 64 164 38z m322 -24 c54 -54 48 -150 -12 -193 -42 -30 -120 -27 -159 6 -65 55 -58 161 14 206 45 29 118 20 157 -19z m263 23 c80 -34 88 -168 13 -220 -14 -10 -44 -16 -76 -16 -48 0 -58 4 -88 34 -29 29 -34 41 -34 81 0 51 13 82 44 105 46 33 87 38 141 16z m-1307 -730 c77 -42 82 -171 10 -218 -58 -38 -149 -23 -183 28 -19 29 -22 112 -5 143 27 52 124 78 178 47z m293 -2 c58 -30 77 -125 36 -185 -45 -68 -148 -72 -201 -8 -21 25 -26 41 -26 86 0 51 3 59 36 89 29 28 43 34 80 34 25 0 59 -7 75 -16z m296 -4 c44 -27 56 -54 51 -117 -7 -87 -75 -135 -158 -113 -89 24 -123 144 -62 214 36 40 117 48 169 16z m283 5 c45 -23 60 -53 60 -116 0 -47 -4 -60 -26 -83 -84 -83 -224 -31 -224 83 0 80 46 130 123 131 21 0 51 -7 67 -15z m320 -20 c17 -16 33 -44 36 -62 9 -49 -18 -114 -58 -138 -39 -23 -108 -24 -142 -2 -80 53 -69 189 19 228 11 5 42 7 68 5 36 -2 55 -10 77 -31z m-1039 -278 c22 -14 39 -38 48 -64 13 -37 13 -45 -3 -87 -21 -55 -59 -79 -124 -79 -98 0 -150 95 -105 190 29 63 121 82 184 40z m284 7 c51 -24 76 -110 49 -172 -25 -61 -131 -86 -192 -46 -27 18 -52 71 -52 110 0 95 103 152 195 108z m317 -21 c37 -37 46 -93 25 -145 -20 -47 -57 -71 -112 -71 -96 0 -155 78 -125 165 21 60 69 91 133 85 37 -3 56 -11 79 -34z m295 -7 c27 -29 33 -44 33 -78 0 -49 -27 -100 -62 -119 -12 -7 -45 -12 -72 -12 -42 1 -53 6 -84 37 -31 31 -36 41 -36 84 0 88 55 136 144 128 35 -3 51 -11 77 -40z m256 30 c46 -19 67 -55 67 -115 0 -68 -36 -111 -103 -121 -55 -8 -95 6 -125 45 -27 33 -29 102 -6 146 27 52 102 73 167 45z"/>
 <path d="M2823 3645 c-75 -32 -51 -144 30 -145 35 0 77 40 77 73 0 29 -32 73 -58 79 -11 3 -33 0 -49 -7z"/>
 <path d="M3090 3630 c-45 -45 -11 -130 52 -130 38 0 78 40 78 78 0 61 -86 96 -130 52z"/>
 <path d="M3380 3628 c-29 -32 -27 -81 6 -107 53 -42 124 -10 124 55 0 64 -86 99 -130 52z"/>
 <path d="M3710 3652 c-59 -18 -77 -86 -35 -127 63 -64 158 14 115 95 -11 20 -58 39 -80 32z"/>
 <path d="M3994 3649 c-28 -10 -54 -47 -54 -77 0 -31 43 -72 75 -72 38 0 60 15 74 49 24 56 -38 121 -95 100z"/>
 <path d="M2941 3334 c-12 -15 -21 -37 -21 -49 0 -38 37 -75 76 -75 45 0 74 29 74 75 0 70 -87 103 -129 49z"/>
 <path d="M3239 3341 c-52 -42 -17 -131 51 -131 66 0 98 82 50 130 -25 25 -71 26 -101 1z"/>
 <path d="M3542 3353 c-7 -3 -19 -18 -28 -35 -13 -25 -13 -35 -3 -59 33 -81 143 -59 143 28 0 55 -56 89 -112 66z"/>
 <path d="M3828 3346 c-28 -21 -38 -58 -23 -92 14 -34 32 -44 75 -44 34 0 70 40 70 77 0 54 -79 92 -122 59z"/>
 <path d="M4112 3337 c-46 -49 -12 -127 54 -127 39 0 74 36 74 76 0 65 -84 98 -128 51z"/>
 <path d="M2796 2611 c-10 -11 -18 -36 -18 -56 0 -49 25 -75 73 -75 47 0 79 30 79 75 0 18 -9 41 -20 53 -27 29 -90 30 -114 3z"/>
 <path d="M3087 2612 c-23 -26 -22 -94 1 -115 19 -17 67 -22 97 -11 45 18 48 111 5 134 -30 16 -85 12 -103 -8z"/>
 <path d="M3374 2605 c-9 -14 -16 -36 -16 -50 0 -14 7 -36 16 -50 13 -20 25 -25 56 -25 51 0 80 27 80 75 0 48 -29 75 -80 75 -31 0 -43 -5 -56 -25z"/>
 <path d="M3670 2608 c-44 -48 -11 -128 53 -128 53 0 77 24 77 75 0 34 -5 47 -22 59 -33 23 -83 20 -108 -6z"/>
 <path d="M3961 2604 c-43 -54 -10 -124 58 -124 47 0 75 28 75 75 0 47 -28 75 -75 75 -29 0 -42 -6 -58 -26z"/>
 <path d="M2942 2317 c-48 -51 -14 -127 57 -127 43 0 68 21 77 66 13 68 -85 113 -134 61z"/>
 <path d="M3232 2317 c-48 -51 -14 -127 57 -127 70 0 104 68 60 124 -27 35 -86 36 -117 3z"/>
 <path d="M3525 2314 c-30 -33 -32 -63 -4 -98 15 -20 29 -26 57 -26 43 0 55 7 71 37 16 32 14 57 -10 87 -28 36 -81 36 -114 0z"/>
 <path d="M3827 2328 c-21 -17 -38 -63 -30 -85 13 -37 36 -53 75 -53 71 0 102 67 57 124 -23 29 -73 36 -102 14z"/>
 <path d="M4110 2320 c-26 -26 -27 -90 -2 -113 26 -24 87 -22 112 3 27 27 27 83 -2 110 -28 26 -82 26 -108 0z"/>
 <path d="M2808 1596 c-47 -35 -36 -114 19 -133 50 -18 103 21 103 75 0 53 -79 91 -122 58z"/>
 <path d="M3092 1590 c-29 -27 -29 -83 -2 -110 28 -28 81 -26 108 3 65 69 -37 171 -106 107z"/>
 <path d="M3386 1589 c-53 -42 -21 -129 48 -129 67 0 101 83 53 128 -29 28 -67 28 -101 1z"/>
 <path d="M3675 1585 c-32 -31 -33 -75 -2 -102 53 -50 127 -20 127 50 0 69 -77 101 -125 52z"/>
 <path d="M3965 1585 c-29 -28 -32 -61 -9 -93 34 -50 102 -44 130 10 40 77 -59 146 -121 83z"/>
 <path d="M2960 1307 c-14 -7 -28 -26 -34 -45 -23 -82 100 -131 137 -54 18 36 11 67 -20 92 -30 23 -48 25 -83 7z"/>
 <path d="M3254 1308 c-28 -13 -47 -54 -38 -82 23 -75 121 -78 147 -4 10 27 -12 74 -39 87 -30 13 -42 13 -70 -1z"/>
 <path d="M3544 1308 c-22 -10 -44 -47 -44 -72 0 -7 9 -25 21 -40 16 -20 29 -26 58 -26 61 0 95 55 67 108 -20 39 -60 51 -102 30z"/>
 <path d="M3825 1298 c-57 -49 -25 -128 51 -128 92 0 99 128 8 146 -24 4 -37 0 -59 -18z"/>
 <path d="M4116 1299 c-55 -43 -23 -129 49 -129 46 0 75 29 75 74 0 39 -37 76 -75 76 -12 0 -34 -9 -49 -21z"/>
 </g>
<g id="layer103" fill="#3c3c3c" stroke="none">
 <path d="M745 3932 c-32 -11 -51 -26 -64 -49 -16 -31 -16 -875 1 -906 16 -31 39 -46 68 -47 20 0 17 -4 -20 -22 -71 -36 -71 -38 -68 -518 3 -381 5 -418 21 -443 10 -16 29 -32 43 -37 34 -13 3634 -13 3668 0 14 5 33 21 43 37 16 25 18 62 21 443 3 480 3 482 -68 518 -37 18 -40 22 -20 22 29 1 52 16 68 47 16 29 17 871 1 906 -25 55 98 52 -1864 54 -995 0 -1819 -2 -1830 -5z m2171 -238 c44 -21 64 -60 64 -125 0 -44 -4 -55 -33 -84 -85 -85 -227 -30 -227 88 0 105 100 166 196 121z m287 2 c115 -48 87 -233 -38 -251 -85 -13 -155 46 -155 130 0 100 98 161 193 121z m292 0 c96 -41 99 -188 4 -236 -58 -30 -114 -21 -159 25 -104 107 14 270 155 211z m290 0 c99 -42 100 -190 2 -237 -58 -28 -108 -20 -154 26 -32 32 -38 51 -33 119 5 82 98 128 185 92z m302 -6 c46 -27 66 -73 61 -132 -6 -56 -33 -92 -85 -109 -136 -44 -239 126 -135 223 15 14 34 28 42 31 32 12 87 6 117 -13z m-2751 -59 c71 -32 134 -126 134 -201 0 -75 -63 -169 -134 -201 -91 -41 -212 -6 -270 79 -42 59 -48 151 -16 217 51 105 181 154 286 106z m1721 -228 c69 -32 94 -123 53 -191 -53 -86 -190 -79 -231 12 -24 52 -24 70 1 122 34 68 105 92 177 57z m287 3 c52 -22 76 -60 76 -122 0 -64 -31 -108 -91 -125 -52 -16 -109 1 -143 42 -35 41 -37 123 -4 164 39 50 102 66 162 41z m327 -22 c90 -86 32 -234 -92 -234 -101 0 -163 119 -109 208 41 67 144 80 201 26z m296 -7 c43 -47 50 -92 25 -149 -56 -127 -252 -87 -252 52 0 124 145 186 227 97z m246 29 c58 -24 80 -58 80 -122 0 -54 -2 -60 -41 -96 -33 -30 -49 -38 -79 -38 -109 0 -175 105 -125 199 20 37 73 71 110 71 12 0 37 -6 55 -14z m-760 -483 c-491 -2 -1295 -2 -1785 0 -491 1 -90 2 892 2 982 0 1383 -1 893 -2z m-540 -252 c66 -25 90 -134 43 -196 -35 -45 -89 -60 -149 -39 -58 20 -80 52 -80 119 0 65 22 99 76 119 42 15 64 14 110 -3z m289 0 c76 -29 96 -153 34 -209 -100 -90 -258 6 -216 131 25 79 99 110 182 78z m308 -10 c38 -27 51 -60 47 -119 -4 -61 -31 -97 -86 -112 -129 -35 -218 118 -128 218 40 43 116 49 167 13z m261 14 c60 -21 80 -52 80 -120 0 -68 -20 -99 -80 -120 -36 -12 -51 -13 -83 -3 -115 34 -120 203 -7 244 44 16 39 16 90 -1z m292 1 c57 -24 82 -61 82 -121 0 -46 -4 -58 -30 -85 -40 -42 -89 -55 -140 -37 -110 38 -113 204 -5 243 46 16 55 16 93 0z m-2698 -86 c87 -54 122 -188 73 -280 -28 -52 -98 -104 -153 -113 -69 -11 -135 10 -186 62 -67 66 -84 137 -54 222 45 127 203 181 320 109z m1714 -225 c82 -69 48 -217 -52 -227 -115 -11 -183 69 -147 177 24 74 136 102 199 50z m285 4 c53 -42 68 -100 42 -164 -20 -46 -56 -67 -116 -67 -60 0 -96 21 -116 67 -25 59 -18 100 22 145 34 37 40 40 89 40 38 0 60 -6 79 -21z m293 1 c38 -23 59 -80 49 -134 -25 -132 -227 -134 -251 -3 -10 52 1 85 40 124 28 28 40 33 82 33 30 0 60 -7 80 -20z m283 5 c58 -30 78 -120 40 -182 -21 -36 -43 -50 -80 -53 -57 -5 -81 2 -114 30 -86 76 -34 220 80 220 25 0 58 -7 74 -15z m316 -19 c31 -31 34 -40 34 -90 0 -47 -4 -61 -28 -87 -50 -56 -144 -56 -194 1 -53 58 -32 173 36 200 11 5 43 9 70 9 42 1 52 -3 82 -33z"/>
 <path d="M2806 3629 c-22 -17 -26 -28 -24 -57 8 -92 138 -91 138 1 0 38 -7 50 -37 66 -31 16 -47 14 -77 -10z"/>
 <path d="M3095 3625 c-14 -13 -25 -36 -25 -50 0 -28 40 -75 64 -75 54 0 95 55 77 103 -19 51 -77 62 -116 22z"/>
 <path d="M3389 3631 c-50 -40 -17 -131 48 -131 32 0 73 42 73 75 0 33 -41 75 -73 75 -14 0 -35 -8 -48 -19z"/>
 <path d="M3687 3638 c-57 -44 -24 -138 49 -138 26 0 64 47 64 79 0 53 -71 90 -113 59z"/>
 <path d="M3983 3638 c-12 -6 -27 -24 -34 -40 -10 -25 -9 -33 8 -56 31 -41 67 -50 101 -25 39 29 43 83 6 112 -29 23 -48 25 -81 9z"/>
 <path d="M1212 3570 c-75 -17 -126 -105 -103 -179 36 -121 204 -141 262 -31 60 112 -36 238 -159 210z"/>
 <path d="M2959 3347 c-62 -47 -34 -137 44 -137 31 0 67 39 67 74 0 54 -70 94 -111 63z"/>
 <path d="M3246 3339 c-52 -41 -22 -129 44 -129 35 0 70 38 70 77 0 34 -38 73 -70 73 -10 0 -29 -9 -44 -21z"/>
 <path d="M3536 3339 c-34 -27 -36 -77 -3 -107 71 -67 161 34 94 106 -26 28 -56 28 -91 1z"/>
 <path d="M3825 3335 c-65 -64 17 -162 92 -110 40 28 37 89 -6 122 -25 20 -60 15 -86 -12z"/>
 <path d="M4115 3335 c-14 -13 -25 -36 -25 -50 0 -14 11 -37 25 -50 60 -61 150 7 111 84 -25 48 -73 55 -111 16z"/>
 <path d="M2807 2610 c-58 -46 -15 -140 58 -126 37 8 55 30 55 71 0 64 -62 95 -113 55z"/>
 <path d="M3096 2607 c-15 -15 -26 -38 -26 -52 0 -14 11 -37 26 -52 20 -20 31 -24 57 -19 43 9 61 29 61 71 0 42 -18 62 -61 71 -26 5 -37 1 -57 -19z"/>
 <path d="M3402 2620 c-27 -11 -44 -52 -36 -85 8 -31 23 -43 62 -51 25 -5 36 -1 56 19 33 33 33 71 1 102 -25 26 -45 30 -83 15z"/>
 <path d="M3694 2620 c-29 -11 -36 -24 -36 -67 0 -41 16 -60 57 -69 72 -14 116 80 59 125 -29 22 -46 25 -80 11z"/>
 <path d="M3982 2620 c-26 -11 -41 -45 -35 -80 5 -33 22 -48 58 -56 72 -14 116 80 59 125 -29 23 -46 25 -82 11z"/>
 <path d="M1169 2527 c-90 -60 -88 -172 4 -241 33 -24 100 -26 145 -2 66 34 90 119 56 192 -34 72 -136 97 -205 51z"/>
 <path d="M2969 2329 c-35 -13 -53 -56 -40 -92 29 -75 141 -54 141 27 0 52 -49 84 -101 65z"/>
 <path d="M3260 2329 c-31 -13 -40 -26 -40 -66 0 -42 30 -73 70 -73 40 0 70 31 70 73 0 53 -50 85 -100 66z"/>
 <path d="M3560 2333 c-75 -27 -60 -143 18 -143 84 0 109 112 30 139 -17 6 -31 11 -32 10 -1 0 -8 -3 -16 -6z"/>
 <path d="M3845 2330 c-51 -20 -62 -75 -25 -116 46 -48 118 -22 126 45 6 51 -51 91 -101 71z"/>
 <path d="M4143 2332 c-51 -8 -70 -83 -30 -120 50 -47 122 -15 120 54 -2 54 -30 75 -90 66z"/>
 <path d="M699 1861 l-29 -29 0 -437 c0 -481 0 -483 61 -504 45 -16 3613 -16 3658 0 61 21 61 23 61 504 l0 437 -29 29 -29 29 -1832 0 -1832 0 -29 -29z m2205 -205 c51 -21 76 -60 76 -118 0 -27 -7 -62 -15 -77 -17 -33 -70 -61 -115 -61 -133 0 -180 187 -62 249 44 24 72 26 116 7z m324 -19 c113 -104 12 -276 -132 -226 -107 37 -116 199 -13 245 43 19 114 10 145 -19z m277 10 c29 -16 44 -33 54 -63 40 -114 -59 -213 -173 -173 -56 20 -81 58 -81 124 0 48 4 58 34 89 49 51 103 58 166 23z m286 2 c94 -47 90 -195 -6 -235 -44 -18 -79 -18 -120 2 -47 22 -66 56 -67 116 0 59 21 94 73 120 44 23 71 23 120 -3z m282 7 c48 -20 69 -50 75 -104 8 -93 -52 -157 -141 -149 -138 12 -168 197 -42 253 39 17 68 17 108 0z m-2759 -58 c58 -18 128 -90 145 -150 62 -220 -225 -377 -376 -205 -41 47 -56 96 -51 168 6 76 45 133 118 172 57 30 101 34 164 15z m1743 -237 c48 -22 73 -62 73 -118 0 -77 -58 -133 -137 -133 -37 0 -50 6 -85 39 -39 35 -42 43 -42 90 0 60 22 97 75 123 43 23 64 22 116 -1z m310 -8 c34 -22 53 -64 53 -116 0 -117 -147 -171 -227 -83 -29 31 -33 43 -33 91 0 49 4 58 35 89 19 19 44 37 57 39 34 7 88 -2 115 -20z m254 17 c42 -12 72 -42 88 -89 26 -80 -40 -171 -124 -171 -81 0 -135 52 -135 130 0 59 24 98 73 121 49 22 51 22 98 9z m291 0 c78 -22 114 -105 80 -183 -24 -54 -62 -77 -126 -77 -57 0 -112 43 -122 96 -17 91 31 161 121 173 6 0 27 -4 47 -9z m330 -18 c37 -21 52 -54 51 -111 -1 -59 -15 -86 -56 -111 -87 -54 -207 9 -207 108 0 56 47 123 95 135 29 8 86 -2 117 -21z"/>
 <path d="M2806 1589 c-22 -17 -26 -28 -24 -57 8 -92 138 -91 138 1 0 38 -7 50 -37 66 -31 16 -47 14 -77 -10z"/>
 <path d="M3095 1585 c-14 -13 -25 -36 -25 -50 0 -31 41 -75 70 -75 79 0 105 106 34 139 -37 16 -52 14 -79 -14z"/>
 <path d="M3389 1591 c-50 -40 -17 -131 48 -131 32 0 73 42 73 75 0 33 -41 75 -73 75 -14 0 -35 -8 -48 -19z"/>
 <path d="M3693 1598 c-31 -15 -44 -57 -28 -95 20 -48 65 -57 109 -22 34 27 35 71 1 104 -26 27 -47 30 -82 13z"/>
 <path d="M3982 1594 c-51 -35 -49 -98 4 -123 35 -16 48 -14 78 10 36 28 36 80 0 108 -32 25 -52 26 -82 5z"/>
 <path d="M1173 1510 c-68 -41 -88 -112 -54 -184 70 -144 284 -86 269 74 -8 80 -62 130 -140 130 -25 0 -56 -8 -75 -20z"/>
 <path d="M2973 1310 c-12 -5 -29 -20 -38 -33 -45 -70 56 -145 113 -84 53 56 -5 145 -75 117z"/>
 <path d="M3270 1313 c-51 -19 -68 -85 -30 -123 45 -45 120 -11 120 53 0 47 -49 85 -90 70z"/>
 <path d="M3550 1307 c-52 -26 -51 -112 1 -131 39 -13 77 0 94 34 32 61 -33 128 -95 97z"/>
 <path d="M3845 1308 c-50 -27 -60 -80 -22 -116 31 -29 72 -28 102 3 31 30 32 57 3 89 -28 30 -57 39 -83 24z"/>
 <path d="M4135 1308 c-49 -28 -59 -81 -22 -116 39 -37 99 -24 118 25 14 38 -5 79 -43 92 -17 6 -31 11 -32 11 -1 0 -10 -6 -21 -12z"/>
 </g>
<g id="layer104" fill="#555555" stroke="none">
 <path d="M2823 3640 c-44 -18 -56 -77 -23 -110 26 -26 81 -26 103 -2 49 54 -13 139 -80 112z"/>
 <path d="M3114 3638 c-68 -32 -45 -128 30 -128 39 0 69 28 69 66 0 47 -57 82 -99 62z"/>
 <path d="M3402 3638 c-22 -11 -39 -49 -33 -78 5 -28 34 -50 65 -50 37 0 49 7 65 38 17 31 -1 75 -35 91 -29 13 -32 13 -62 -1z"/>
 <path d="M3700 3639 c-31 -13 -40 -26 -40 -65 0 -38 27 -64 66 -64 35 0 47 8 63 37 15 30 14 47 -6 71 -23 26 -51 33 -83 21z"/>
 <path d="M4000 3643 c-50 -18 -68 -84 -32 -116 42 -38 122 -7 122 47 0 43 -51 83 -90 69z"/>
 <path d="M1212 3570 c-75 -17 -126 -105 -103 -179 36 -121 204 -141 262 -31 60 112 -36 238 -159 210z"/>
 <path d="M2947 3332 c-41 -45 -7 -115 55 -115 61 0 90 84 41 121 -25 18 -77 15 -96 -6z"/>
 <path d="M3236 3328 c-36 -51 -6 -111 56 -111 56 0 86 63 52 111 -11 16 -25 22 -54 22 -29 0 -43 -6 -54 -22z"/>
 <path d="M3526 3328 c-49 -70 41 -150 104 -93 25 23 26 76 2 98 -28 25 -87 22 -106 -5z"/>
 <path d="M3834 3342 c-21 -13 -34 -52 -28 -77 7 -30 54 -58 81 -48 53 18 72 83 35 116 -19 17 -68 22 -88 9z"/>
 <path d="M4117 3333 c-19 -23 -23 -41 -14 -75 14 -54 110 -54 124 0 14 54 -12 92 -62 92 -18 0 -39 -8 -48 -17z"/>
 <path d="M730 2909 c-61 -24 -60 -12 -60 -497 0 -299 4 -450 11 -464 27 -50 -53 -48 1879 -48 1932 0 1852 -2 1879 48 7 14 11 165 11 462 0 486 1 477 -62 499 -41 15 -3622 14 -3658 0z m2174 -233 c53 -22 76 -60 76 -123 0 -49 -4 -59 -33 -88 -86 -86 -227 -30 -227 90 0 97 94 159 184 121z m316 -14 c63 -46 74 -132 24 -191 -52 -62 -138 -64 -195 -5 -30 31 -34 41 -34 89 0 48 4 58 34 89 19 19 43 37 55 40 36 7 89 -3 116 -22z m302 -9 c60 -57 59 -140 -2 -198 -26 -25 -38 -29 -85 -29 -46 0 -59 4 -84 29 -42 39 -57 87 -42 134 11 40 54 86 86 94 40 11 100 -4 127 -30z m284 12 c26 -17 54 -74 54 -110 0 -36 -28 -93 -54 -110 -60 -38 -156 -21 -189 34 -22 37 -22 115 0 152 32 54 131 72 189 34z m293 -3 c40 -29 52 -61 48 -120 -4 -62 -31 -96 -89 -114 -48 -14 -104 1 -139 38 -20 22 -24 36 -24 89 0 49 4 68 20 85 46 52 131 62 184 22z m-2735 -69 c114 -81 136 -221 49 -323 -87 -101 -226 -107 -319 -14 -50 50 -68 98 -62 173 5 78 45 135 118 174 48 25 63 28 114 24 43 -4 70 -13 100 -34z m1704 -217 c81 -44 81 -177 0 -226 -68 -41 -154 -15 -189 57 -19 40 -20 49 -9 89 18 64 57 94 123 94 29 -1 62 -6 75 -14z m304 -9 c36 -33 48 -60 48 -104 0 -50 -18 -82 -59 -110 -58 -39 -134 -25 -180 33 -16 20 -21 41 -21 81 0 49 4 59 34 89 31 31 39 34 94 34 48 0 64 -4 84 -23z m293 -1 c98 -75 39 -236 -86 -236 -69 0 -129 61 -129 133 0 46 13 75 48 104 39 33 123 32 167 -1z m296 -4 c41 -36 52 -116 24 -168 -34 -64 -132 -82 -194 -36 -60 44 -65 147 -10 202 27 27 37 30 90 30 50 0 63 -4 90 -28z m296 -2 c75 -74 30 -213 -74 -227 -138 -18 -207 149 -97 236 20 16 41 21 83 21 50 0 61 -4 88 -30z"/>
 <path d="M1169 2527 c-90 -60 -88 -172 4 -241 33 -24 100 -26 145 -2 66 34 90 119 56 192 -34 72 -136 97 -205 51z"/>
 <path d="M2800 1580 c-62 -62 35 -154 100 -95 25 23 26 76 2 98 -25 23 -78 21 -102 -3z"/>
 <path d="M3096 1585 c-37 -37 -27 -92 20 -114 65 -29 127 56 79 109 -22 24 -77 27 -99 5z"/>
 <path d="M3387 1583 c-50 -57 8 -143 76 -112 35 16 53 60 36 91 -6 12 -17 26 -23 30 -20 14 -73 8 -89 -9z"/>
 <path d="M3677 1582 c-18 -19 -22 -68 -9 -89 13 -21 60 -33 86 -23 47 18 58 77 20 114 -21 22 -77 20 -97 -2z"/>
 <path d="M3967 1582 c-23 -26 -21 -75 3 -97 65 -59 162 33 100 95 -26 26 -81 26 -103 2z"/>
 <path d="M1173 1510 c-68 -41 -88 -112 -54 -184 70 -144 284 -86 269 74 -8 80 -62 130 -140 130 -25 0 -56 -8 -75 -20z"/>
 <path d="M4138 1306 c-33 -17 -51 -58 -38 -90 21 -57 101 -59 125 -4 26 63 -29 123 -87 94z"/>
 <path d="M2952 1294 c-47 -33 -14 -124 45 -124 29 0 73 42 73 68 0 11 -9 31 -21 46 -24 30 -63 34 -97 10z"/>
 <path d="M3240 1290 c-29 -29 -26 -74 6 -99 15 -12 34 -21 44 -21 10 0 29 9 44 21 50 40 21 119 -44 119 -17 0 -39 -9 -50 -20z"/>
 <path d="M3530 1288 c-11 -12 -20 -32 -20 -45 0 -29 42 -73 68 -73 33 0 72 38 72 71 0 62 -78 92 -120 47z"/>
 <path d="M3820 1283 c-52 -66 37 -150 98 -93 28 26 29 80 4 103 -29 27 -77 22 -102 -10z"/>
 </g>
<g id="layer105" fill="#ffaa2b" stroke="none">
 <path d="M1212 3570 c-75 -17 -126 -105 -103 -179 36 -121 204 -141 262 -31 60 112 -36 238 -159 210z"/>
 <path d="M1169 2527 c-90 -60 -88 -172 4 -241 33 -24 100 -26 145 -2 66 34 90 119 56 192 -34 72 -136 97 -205 51z"/>
 <path d="M1173 1510 c-68 -41 -88 -112 -54 -184 70 -144 284 -86 269 74 -8 80 -62 130 -140 130 -25 0 -56 -8 -75 -20z"/>
 </g>

</svg>