<!DOCTYPE svg PUBLIC "-//W3C//DTD SVG 20010904//EN" "http://www.w3.org/TR/2001/REC-SVG-20010904/DTD/svg10.dtd">
<svg version="1.0" xmlns="http://www.w3.org/2000/svg" width="512px" height="512px" viewBox="0 0 5120 5120" preserveAspectRatio="xMidYMid meet">
<g id="layer101" fill="#000000" stroke="none">
 <path d="M1417 4542 c-16 -17 -17 -169 -17 -1984 0 -1891 1 -1966 18 -1981 17 -16 111 -17 1144 -17 1077 0 1126 1 1141 18 16 17 17 169 17 1984 0 1891 -1 1966 -18 1981 -17 16 -111 17 -1144 17 -1077 0 -1126 -1 -1141 -18z"/>
 </g>
<g id="layer102" fill="#a1a1a1" stroke="none">
 <path d="M1520 2560 l0 -1880 1038 0 1037 0 0 1880 0 1880 -1037 0 -1038 0 0 -1880z m1935 1745 l25 -24 0 -1721 0 -1721 -25 -25 -24 -24 -877 2 -876 3 -19 24 c-19 23 -19 65 -19 1738 0 1194 3 1720 11 1734 6 11 20 24 32 29 12 5 410 9 885 9 l863 1 24 -25z"/>
 <path d="M1760 4115 l0 -95 555 0 555 0 0 95 0 95 -555 0 -555 0 0 -95z"/>
 <path d="M2990 4115 c0 -88 1 -95 20 -95 19 0 20 7 20 95 0 88 -1 95 -20 95 -19 0 -20 -7 -20 -95z"/>
 <path d="M3142 4118 c3 -85 5 -93 23 -93 18 0 20 8 23 93 l3 92 -26 0 -26 0 3 -92z"/>
 <path d="M3302 4118 c3 -92 3 -93 28 -93 25 0 25 1 28 93 l3 92 -31 0 -31 0 3 -92z"/>
 <path d="M1760 3810 l0 -100 800 0 800 0 0 100 0 100 -800 0 -800 0 0 -100z"/>
 <path d="M1760 3500 l0 -100 800 0 801 0 -3 98 -3 97 -797 3 -798 2 0 -100z"/>
 <path d="M1760 3185 l0 -95 800 0 800 0 0 95 0 95 -800 0 -800 0 0 -95z"/>
 <path d="M1760 2870 l0 -100 798 2 797 3 3 98 3 97 -801 0 -800 0 0 -100z"/>
 <path d="M1760 2560 l0 -100 800 0 800 0 0 100 0 100 -800 0 -800 0 0 -100z"/>
 <path d="M1760 2250 l0 -100 800 0 801 0 -3 98 -3 97 -797 3 -798 2 0 -100z"/>
 <path d="M1760 1935 l0 -95 800 0 800 0 0 95 0 95 -800 0 -800 0 0 -95z"/>
 <path d="M1760 1620 l0 -100 798 2 797 3 3 98 3 97 -801 0 -800 0 0 -100z"/>
 <path d="M1760 1310 l0 -100 800 0 800 0 0 100 0 100 -800 0 -800 0 0 -100z"/>
 <path d="M1760 1005 l0 -95 800 0 801 0 -3 93 -3 92 -797 3 -798 2 0 -95z"/>
 </g>
<g id="layer103" fill="#bbbbbb" stroke="none">
 <path d="M1520 2560 l0 -1880 1038 0 1037 0 0 1880 0 1880 -1037 0 -1038 0 0 -1880z m1935 1745 l25 -24 0 -1721 0 -1721 -25 -25 -24 -24 -877 2 -876 3 -19 24 c-19 23 -19 65 -19 1738 0 1194 3 1720 11 1734 6 11 20 24 32 29 12 5 410 9 885 9 l863 1 24 -25z"/>
 <path d="M1760 4115 l0 -95 555 0 555 0 0 95 0 95 -555 0 -555 0 0 -95z"/>
 <path d="M2990 4115 c0 -88 1 -95 20 -95 19 0 20 7 20 95 0 88 -1 95 -20 95 -19 0 -20 -7 -20 -95z"/>
 <path d="M3142 4118 c3 -85 5 -93 23 -93 18 0 20 8 23 93 l3 92 -26 0 -26 0 3 -92z"/>
 <path d="M3302 4118 c3 -92 3 -93 28 -93 25 0 25 1 28 93 l3 92 -31 0 -31 0 3 -92z"/>
 <path d="M1760 3810 l0 -100 713 2 712 3 0 95 0 95 -712 3 -713 2 0 -100z"/>
 <path d="M1760 3500 l0 -100 800 0 801 0 -3 98 -3 97 -797 3 -798 2 0 -100z"/>
 <path d="M1760 3185 l0 -95 713 2 712 3 0 90 0 90 -712 3 -713 2 0 -95z"/>
 <path d="M1760 2870 l0 -100 798 2 797 3 3 98 3 97 -801 0 -800 0 0 -100z"/>
 <path d="M1760 2560 l0 -100 713 2 712 3 0 95 0 95 -712 3 -713 2 0 -100z"/>
 <path d="M1760 2250 l0 -100 800 0 801 0 -3 98 -3 97 -797 3 -798 2 0 -100z"/>
 <path d="M1760 1935 l0 -95 713 2 712 3 0 90 0 90 -712 3 -713 2 0 -95z"/>
 <path d="M1760 1620 l0 -100 798 2 797 3 3 98 3 97 -801 0 -800 0 0 -100z"/>
 <path d="M1760 1310 l0 -100 713 2 712 3 0 95 0 95 -712 3 -713 2 0 -100z"/>
 <path d="M1760 1005 l0 -95 800 0 801 0 -3 93 -3 92 -797 3 -798 2 0 -95z"/>
 </g>
<g id="layer104" fill="#888888" stroke="none">
 <path d="M1520 2560 l0 -1880 1038 0 1037 0 0 1880 0 1880 -1037 0 -1038 0 0 -1880z m1935 1745 l25 -24 0 -1721 0 -1721 -25 -25 -24 -24 -877 2 -876 3 -19 24 c-19 23 -19 65 -19 1738 0 1194 3 1720 11 1734 6 11 20 24 32 29 12 5 410 9 885 9 l863 1 24 -25z"/>
 <path d="M1760 4115 l0 -95 555 0 555 0 0 95 0 95 -555 0 -555 0 0 -95z"/>
 <path d="M2990 4115 c0 -88 1 -95 20 -95 19 0 20 7 20 95 0 88 -1 95 -20 95 -19 0 -20 -7 -20 -95z"/>
 <path d="M3142 4118 c3 -85 5 -93 23 -93 18 0 20 8 23 93 l3 92 -26 0 -26 0 3 -92z"/>
 <path d="M3302 4118 c3 -92 3 -93 28 -93 25 0 25 1 28 93 l3 92 -31 0 -31 0 3 -92z"/>
 <path d="M1760 3500 l0 -100 800 0 801 0 -3 98 -3 97 -797 3 -798 2 0 -100z"/>
 <path d="M1760 2870 l0 -100 798 2 797 3 3 98 3 97 -801 0 -800 0 0 -100z"/>
 <path d="M1760 2250 l0 -100 800 0 801 0 -3 98 -3 97 -797 3 -798 2 0 -100z"/>
 <path d="M1760 1620 l0 -100 798 2 797 3 3 98 3 97 -801 0 -800 0 0 -100z"/>
 <path d="M1760 1005 l0 -95 800 0 801 0 -3 93 -3 92 -797 3 -798 2 0 -95z"/>
 </g>
<g id="layer105" fill="#87cce8" stroke="none">
 <path d="M1760 4120 l0 -90 555 0 555 0 0 90 0 90 -555 0 -555 0 0 -90z"/>
 <path d="M2990 4120 c0 -83 1 -90 20 -90 19 0 20 7 20 90 0 83 -1 90 -20 90 -19 0 -20 -7 -20 -90z"/>
 <path d="M3150 4120 c0 -73 3 -90 15 -90 12 0 15 17 15 90 0 73 -3 90 -15 90 -12 0 -15 -17 -15 -90z"/>
 <path d="M3302 4118 c3 -92 3 -93 28 -93 25 0 25 1 28 93 l3 92 -31 0 -31 0 3 -92z"/>
 <path d="M2483 3593 l-723 -3 0 -95 0 -95 800 0 801 0 -3 98 -3 97 -75 0 c-41 0 -400 -1 -797 -2z"/>
 <path d="M1760 2875 l0 -95 720 -2 c396 -1 755 -3 798 -3 l77 0 3 98 3 97 -801 0 -800 0 0 -95z"/>
 <path d="M2478 2343 l-718 -3 0 -95 0 -95 800 0 801 0 -3 98 -3 97 -80 0 c-44 0 -403 -1 -797 -2z"/>
 <path d="M1760 1625 l0 -95 720 -2 c396 -1 755 -3 798 -3 l77 0 3 98 3 97 -801 0 -800 0 0 -95z"/>
 <path d="M2483 1093 l-723 -3 0 -90 0 -90 800 0 801 0 -3 93 -3 92 -75 0 c-41 0 -400 -1 -797 -2z"/>
 </g>
<g id="layer106" fill="#cbeefa" stroke="none">
 <path d="M1767 4203 c-4 -3 -7 -44 -7 -90 l0 -83 555 0 555 0 0 90 0 90 -548 0 c-302 0 -552 -3 -555 -7z"/>
 <path d="M2990 4120 c0 -73 3 -90 15 -90 12 0 15 17 15 90 0 73 -3 90 -15 90 -12 0 -15 -17 -15 -90z"/>
 <path d="M3150 4120 c0 -73 3 -90 15 -90 12 0 15 17 15 90 0 73 -3 90 -15 90 -12 0 -15 -17 -15 -90z"/>
 <path d="M3314 4115 c0 -49 1 -71 3 -48 2 23 2 64 0 90 -2 26 -3 8 -3 -42z"/>
 <path d="M1760 3495 l0 -95 713 2 712 3 3 93 3 92 -716 0 -715 0 0 -95z"/>
 <path d="M1760 2875 l0 -95 715 0 716 0 -3 93 -3 92 -712 3 -713 2 0 -95z"/>
 <path d="M1760 2245 l0 -95 710 0 710 0 0 95 0 95 -710 0 -710 0 0 -95z"/>
 <path d="M1760 1625 l0 -95 715 0 716 0 -3 93 -3 92 -712 3 -713 2 0 -95z"/>
 <path d="M1762 1003 l3 -88 710 0 710 0 3 88 3 87 -716 0 -716 0 3 -87z"/>
 </g>

</svg>