<!DOCTYPE svg PUBLIC "-//W3C//DTD SVG 20010904//EN" "http://www.w3.org/TR/2001/REC-SVG-20010904/DTD/svg10.dtd">
<svg version="1.0" xmlns="http://www.w3.org/2000/svg" width="512px" height="512px" viewBox="0 0 5120 5120" preserveAspectRatio="xMidYMid meet">
<g id="layer101" fill="#000000" stroke="none">
 <path d="M1131 4144 c-19 -24 -21 -40 -21 -146 0 -113 1 -120 25 -143 23 -24 29 -25 155 -25 l130 0 0 -235 0 -235 -404 0 -404 0 -31 -26 c-23 -19 -31 -34 -31 -58 0 -55 557 -2268 578 -2296 l19 -25 1413 0 1413 0 19 25 c21 28 578 2241 578 2296 0 24 -8 39 -31 58 l-31 26 -404 0 -404 0 0 235 0 235 130 0 c126 0 132 1 155 25 24 23 25 30 25 143 0 106 -2 122 -21 146 l-20 26 -1409 0 -1409 0 -20 -26z m1229 -549 l0 -235 -270 0 -270 0 0 235 0 235 270 0 270 0 0 -235z m940 0 l0 -235 -270 0 -270 0 0 235 0 235 270 0 270 0 0 -235z"/>
 </g>
<g id="layer102" fill="#888888" stroke="none">
 <path d="M1239 4036 c-13 -14 -11 -60 3 -74 17 -17 2619 -17 2636 0 14 14 16 64 3 72 -17 11 -2631 12 -2642 2z"/>
 <path d="M1551 3846 c-8 -9 -11 -87 -9 -262 l3 -249 75 0 75 0 3 249 c2 175 -1 253 -9 262 -7 9 -32 14 -69 14 -37 0 -62 -5 -69 -14z"/>
 <path d="M2491 3846 c-8 -9 -11 -87 -9 -262 l3 -249 75 0 75 0 3 249 c2 175 -1 253 -9 262 -7 9 -32 14 -69 14 -37 0 -62 -5 -69 -14z"/>
 <path d="M3431 3846 c-8 -9 -11 -87 -9 -262 l3 -249 75 0 75 0 3 249 c2 175 -1 253 -9 262 -7 9 -32 14 -69 14 -37 0 -62 -5 -69 -14z"/>
 <path d="M694 3216 c-6 -14 151 -656 168 -688 8 -17 35 -18 354 -18 267 0 346 3 349 13 3 6 -21 167 -53 357 l-57 345 -378 3 c-320 2 -378 0 -383 -12z"/>
 <path d="M1564 3215 c-8 -20 102 -673 117 -691 10 -12 74 -14 418 -12 l406 3 0 355 0 355 -468 3 c-405 2 -468 0 -473 -13z"/>
 <path d="M2615 3217 c-3 -6 -4 -167 -3 -357 l3 -345 406 -3 c344 -2 408 0 418 12 15 18 125 671 117 691 -5 13 -71 15 -471 15 -364 0 -467 -3 -470 -13z"/>
 <path d="M3665 3218 c-11 -34 -115 -690 -110 -699 4 -5 147 -9 351 -9 l344 0 10 23 c20 45 171 669 166 683 -8 20 -754 21 -761 2z"/>
 <path d="M895 2410 c-7 -12 143 -619 157 -637 13 -16 618 -19 634 -3 10 10 -86 615 -101 640 -8 13 -681 14 -690 0z"/>
 <path d="M1696 2412 c-7 -12 95 -624 107 -640 8 -9 86 -12 356 -10 l346 3 0 325 0 325 -402 3 c-221 1 -404 -2 -407 -6z"/>
 <path d="M2615 2407 c-3 -7 -4 -154 -3 -327 l3 -315 346 -3 c270 -2 348 1 356 10 12 16 114 628 107 640 -3 4 -185 8 -405 8 -312 0 -401 -3 -404 -13z"/>
 <path d="M3535 2409 c-15 -24 -111 -629 -101 -639 16 -16 621 -13 633 3 15 18 165 626 158 637 -9 14 -682 14 -690 -1z"/>
 <path d="M1395 1662 c-164 -1 -303 -6 -308 -11 -8 -8 111 -509 133 -559 l10 -22 284 0 c170 0 287 4 291 10 9 14 -85 564 -98 575 -8 6 -122 9 -312 7z"/>
 <path d="M1823 1653 c-6 -16 85 -565 96 -576 4 -4 138 -6 297 -5 l289 3 3 284 c1 157 -1 288 -6 293 -5 5 -158 10 -342 11 -254 1 -334 -1 -337 -10z"/>
 <path d="M2619 1654 c-5 -7 -8 -130 -7 -295 l3 -284 289 -3 c159 -1 293 1 297 5 9 9 101 550 97 570 -4 18 -664 25 -679 7z"/>
 <path d="M3410 1655 c-11 -14 -102 -564 -95 -575 4 -6 121 -10 291 -10 l284 0 10 23 c14 33 141 548 138 559 -4 12 -617 16 -628 3z"/>
 </g>
<g id="layer103" fill="#a1a1a1" stroke="none">
 <path d="M1551 3846 c-8 -9 -11 -87 -9 -262 l3 -249 75 0 75 0 3 249 c2 175 -1 253 -9 262 -7 9 -32 14 -69 14 -37 0 -62 -5 -69 -14z"/>
 <path d="M2491 3846 c-8 -9 -11 -87 -9 -262 l3 -249 75 0 75 0 3 249 c2 175 -1 253 -9 262 -7 9 -32 14 -69 14 -37 0 -62 -5 -69 -14z"/>
 <path d="M3431 3846 c-8 -9 -11 -87 -9 -262 l3 -249 75 0 75 0 3 249 c2 175 -1 253 -9 262 -7 9 -32 14 -69 14 -37 0 -62 -5 -69 -14z"/>
 <path d="M694 3216 c-6 -14 151 -656 168 -688 8 -17 35 -18 354 -18 267 0 346 3 349 13 3 6 -21 167 -53 357 l-57 345 -378 3 c-320 2 -378 0 -383 -12z"/>
 <path d="M1564 3215 c-8 -20 102 -673 117 -691 10 -12 74 -14 418 -12 l406 3 0 355 0 355 -468 3 c-405 2 -468 0 -473 -13z"/>
 <path d="M2615 3217 c-3 -6 -4 -167 -3 -357 l3 -345 406 -3 c344 -2 408 0 418 12 15 18 125 671 117 691 -5 13 -71 15 -471 15 -364 0 -467 -3 -470 -13z"/>
 <path d="M3665 3218 c-11 -34 -115 -690 -110 -699 4 -5 147 -9 351 -9 l344 0 10 23 c20 45 171 669 166 683 -8 20 -754 21 -761 2z"/>
 <path d="M895 2410 c-7 -12 143 -619 157 -637 13 -16 618 -19 634 -3 10 10 -86 615 -101 640 -8 13 -681 14 -690 0z"/>
 <path d="M1696 2412 c-7 -12 95 -624 107 -640 8 -9 86 -12 356 -10 l346 3 0 325 0 325 -402 3 c-221 1 -404 -2 -407 -6z"/>
 <path d="M2615 2407 c-3 -7 -4 -154 -3 -327 l3 -315 346 -3 c270 -2 348 1 356 10 12 16 114 628 107 640 -3 4 -185 8 -405 8 -312 0 -401 -3 -404 -13z"/>
 <path d="M3535 2409 c-15 -24 -111 -629 -101 -639 16 -16 621 -13 633 3 15 18 165 626 158 637 -9 14 -682 14 -690 -1z"/>
 <path d="M1395 1662 c-164 -1 -303 -6 -308 -11 -8 -8 111 -509 133 -559 l10 -22 284 0 c170 0 287 4 291 10 9 14 -85 564 -98 575 -8 6 -122 9 -312 7z"/>
 <path d="M1823 1653 c-6 -16 85 -565 96 -576 4 -4 138 -6 297 -5 l289 3 3 284 c1 157 -1 288 -6 293 -5 5 -158 10 -342 11 -254 1 -334 -1 -337 -10z"/>
 <path d="M2619 1654 c-5 -7 -8 -130 -7 -295 l3 -284 289 -3 c159 -1 293 1 297 5 9 9 101 550 97 570 -4 18 -664 25 -679 7z"/>
 <path d="M3410 1655 c-11 -14 -102 -564 -95 -575 4 -6 121 -10 291 -10 l284 0 10 23 c14 33 141 548 138 559 -4 12 -617 16 -628 3z"/>
 </g>
<g id="layer104" fill="#bbbbbb" stroke="none">
 <path d="M1552 3848 c-8 -8 -12 -64 -12 -188 0 -124 4 -180 12 -188 7 -7 37 -12 68 -12 31 0 61 5 68 12 8 8 12 64 12 188 0 124 -4 180 -12 188 -16 16 -120 16 -136 0z m108 -193 l0 -165 -40 0 -40 0 0 165 0 165 40 0 40 0 0 -165z"/>
 <path d="M2492 3848 c-8 -8 -12 -64 -12 -188 0 -124 4 -180 12 -188 7 -7 37 -12 68 -12 31 0 61 5 68 12 8 8 12 64 12 188 0 124 -4 180 -12 188 -16 16 -120 16 -136 0z m108 -193 l0 -165 -40 0 -40 0 0 165 0 165 40 0 40 0 0 -165z"/>
 <path d="M3432 3848 c-17 -17 -17 -359 0 -376 7 -7 37 -12 68 -12 31 0 61 5 68 12 8 8 12 64 12 188 0 124 -4 180 -12 188 -16 16 -120 16 -136 0z m108 -193 l0 -165 -40 0 -40 0 0 165 0 165 40 0 40 0 0 -165z"/>
 <path d="M694 3216 c-6 -14 151 -656 168 -688 8 -17 35 -18 354 -18 267 0 346 3 349 13 3 6 -21 167 -53 357 l-57 345 -378 3 c-320 2 -378 0 -383 -12z"/>
 <path d="M1564 3215 c-8 -20 102 -673 117 -691 10 -12 74 -14 418 -12 l406 3 0 355 0 355 -468 3 c-405 2 -468 0 -473 -13z"/>
 <path d="M2615 3217 c-3 -6 -4 -167 -3 -357 l3 -345 406 -3 c344 -2 408 0 418 12 15 18 125 671 117 691 -5 13 -71 15 -471 15 -364 0 -467 -3 -470 -13z"/>
 <path d="M3665 3218 c-11 -34 -115 -690 -110 -699 4 -5 147 -9 351 -9 l344 0 10 23 c20 45 171 669 166 683 -8 20 -754 21 -761 2z"/>
 <path d="M895 2410 c-7 -12 143 -619 157 -637 13 -16 618 -19 634 -3 10 10 -86 615 -101 640 -8 13 -681 14 -690 0z"/>
 <path d="M1696 2412 c-7 -12 95 -624 107 -640 8 -9 86 -12 356 -10 l346 3 0 325 0 325 -402 3 c-221 1 -404 -2 -407 -6z"/>
 <path d="M2615 2407 c-3 -7 -4 -154 -3 -327 l3 -315 346 -3 c270 -2 348 1 356 10 12 16 114 628 107 640 -3 4 -185 8 -405 8 -312 0 -401 -3 -404 -13z"/>
 <path d="M3535 2409 c-15 -24 -111 -629 -101 -639 16 -16 621 -13 633 3 15 18 165 626 158 637 -9 14 -682 14 -690 -1z"/>
 <path d="M1395 1662 c-164 -1 -303 -6 -308 -11 -8 -8 111 -509 133 -559 l10 -22 284 0 c170 0 287 4 291 10 9 14 -85 564 -98 575 -8 6 -122 9 -312 7z"/>
 <path d="M1823 1653 c-6 -16 85 -565 96 -576 4 -4 138 -6 297 -5 l289 3 3 284 c1 157 -1 288 -6 293 -5 5 -158 10 -342 11 -254 1 -334 -1 -337 -10z"/>
 <path d="M2619 1654 c-5 -7 -8 -130 -7 -295 l3 -284 289 -3 c159 -1 293 1 297 5 9 9 101 550 97 570 -4 18 -664 25 -679 7z"/>
 <path d="M3410 1655 c-11 -14 -102 -564 -95 -575 4 -6 121 -10 291 -10 l284 0 10 23 c14 33 141 548 138 559 -4 12 -617 16 -628 3z"/>
 </g>
<g id="layer105" fill="#095390" stroke="none">
 <path d="M694 3216 c-6 -14 151 -656 168 -688 8 -17 35 -18 354 -18 267 0 346 3 349 13 3 6 -21 167 -53 357 l-57 345 -378 3 c-320 2 -378 0 -383 -12z"/>
 <path d="M1564 3215 c-8 -20 102 -673 117 -691 10 -12 74 -14 418 -12 l406 3 0 355 0 355 -468 3 c-405 2 -468 0 -473 -13z"/>
 <path d="M2615 3217 c-3 -6 -4 -167 -3 -357 l3 -345 406 -3 c344 -2 408 0 418 12 15 18 125 671 117 691 -5 13 -71 15 -471 15 -364 0 -467 -3 -470 -13z"/>
 <path d="M3665 3218 c-11 -34 -115 -690 -110 -699 4 -5 147 -9 351 -9 l344 0 10 23 c20 45 171 669 166 683 -8 20 -754 21 -761 2z"/>
 <path d="M895 2410 c-7 -12 143 -619 157 -637 13 -16 618 -19 634 -3 10 10 -86 615 -101 640 -8 13 -681 14 -690 0z"/>
 <path d="M1696 2412 c-7 -12 95 -624 107 -640 8 -9 86 -12 356 -10 l346 3 0 325 0 325 -402 3 c-221 1 -404 -2 -407 -6z"/>
 <path d="M2615 2407 c-3 -7 -4 -154 -3 -327 l3 -315 346 -3 c270 -2 348 1 356 10 12 16 114 628 107 640 -3 4 -185 8 -405 8 -312 0 -401 -3 -404 -13z"/>
 <path d="M3535 2409 c-15 -24 -111 -629 -101 -639 16 -16 621 -13 633 3 15 18 165 626 158 637 -9 14 -682 14 -690 -1z"/>
 <path d="M1395 1662 c-164 -1 -303 -6 -308 -11 -8 -8 111 -509 133 -559 l10 -22 284 0 c170 0 287 4 291 10 9 14 -85 564 -98 575 -8 6 -122 9 -312 7z"/>
 <path d="M1823 1653 c-6 -16 85 -565 96 -576 4 -4 138 -6 297 -5 l289 3 3 284 c1 157 -1 288 -6 293 -5 5 -158 10 -342 11 -254 1 -334 -1 -337 -10z"/>
 <path d="M2619 1654 c-5 -7 -8 -130 -7 -295 l3 -284 289 -3 c159 -1 293 1 297 5 9 9 101 550 97 570 -4 18 -664 25 -679 7z"/>
 <path d="M3410 1655 c-11 -14 -102 -564 -95 -575 4 -6 121 -10 291 -10 l284 0 10 23 c14 33 141 548 138 559 -4 12 -617 16 -628 3z"/>
 </g>
<g id="layer106" fill="#102c51" stroke="none">
 <path d="M694 3216 c-3 -7 0 -34 6 -57 7 -24 14 -57 17 -73 3 -16 9 -41 15 -55 6 -14 12 -33 13 -41 5 -29 13 -65 25 -110 7 -25 14 -58 17 -74 3 -16 9 -41 15 -55 6 -14 12 -33 13 -41 10 -66 35 -153 48 -169 7 -8 10 -17 7 -20 -6 -7 168 -14 186 -7 9 3 -11 98 -73 343 -47 186 -86 345 -87 353 -4 22 -194 28 -202 6z"/>
 <path d="M1565 3190 c-4 -6 -3 -16 3 -22 6 -6 12 -6 17 2 4 6 3 16 -3 22 -6 6 -12 6 -17 -2z"/>
 <path d="M3535 3190 c-4 -6 -3 -16 3 -22 6 -6 12 -6 17 2 4 6 3 16 -3 22 -6 6 -12 6 -17 -2z"/>
 <path d="M4396 3161 c-4 -6 -5 -15 -1 -20 3 -5 0 -13 -6 -16 -5 -4 -8 -13 -5 -21 3 -7 1 -16 -5 -20 -6 -3 -8 -12 -5 -20 3 -7 1 -16 -5 -20 -6 -3 -8 -12 -5 -20 3 -7 1 -16 -5 -20 -6 -3 -8 -12 -5 -20 3 -7 1 -16 -5 -20 -6 -3 -8 -12 -5 -20 3 -7 1 -16 -5 -20 -6 -3 -8 -12 -5 -20 3 -7 1 -16 -5 -20 -6 -3 -8 -12 -5 -20 3 -7 1 -16 -5 -20 -6 -3 -8 -12 -5 -20 3 -7 1 -16 -5 -20 -6 -3 -8 -12 -5 -20 3 -7 1 -16 -5 -20 -6 -3 -8 -12 -5 -20 3 -7 1 -16 -5 -20 -6 -3 -8 -12 -5 -20 3 -7 1 -16 -5 -20 -6 -3 -8 -12 -5 -20 3 -7 1 -16 -5 -20 -6 -3 -8 -12 -5 -20 3 -7 1 -16 -5 -20 -6 -3 -8 -12 -5 -19 2 -7 0 -17 -6 -23 -12 -12 -1 -35 13 -26 6 3 8 12 5 20 -3 7 -1 16 5 20 6 3 8 12 5 20 -3 7 -1 16 5 20 6 3 8 12 5 20 -3 7 -1 16 5 20 6 3 8 12 5 20 -3 7 -1 16 5 20 6 3 8 12 5 20 -3 7 -1 16 5 20 6 3 8 12 5 20 -3 7 -1 16 5 20 6 3 8 12 5 20 -3 7 -1 16 5 20 6 3 8 12 5 20 -3 7 -1 16 5 20 6 3 8 12 5 20 -3 7 -1 16 5 20 6 3 8 12 5 20 -3 7 -1 16 5 20 6 3 8 12 5 20 -3 7 -1 16 5 20 6 3 8 12 5 20 -3 7 -1 16 5 20 6 3 8 12 5 20 -3 7 -1 16 5 20 6 3 8 12 5 20 -3 7 -1 16 5 20 6 3 8 12 5 19 -2 7 1 18 7 24 8 8 8 14 0 22 -8 8 -13 8 -17 0z"/>
 <path d="M1445 3150 c-4 -6 -3 -16 3 -22 6 -6 12 -6 17 2 4 6 3 16 -3 22 -6 6 -12 6 -17 -2z"/>
 <path d="M3655 3150 c-4 -6 -3 -16 3 -22 6 -6 12 -6 17 2 4 6 3 16 -3 22 -6 6 -12 6 -17 -2z"/>
 <path d="M1455 3090 c-4 -6 -3 -16 3 -22 6 -6 12 -6 17 2 4 6 3 16 -3 22 -6 6 -12 6 -17 -2z"/>
 <path d="M3645 3090 c-4 -6 -3 -16 3 -22 6 -6 12 -6 17 2 4 6 3 16 -3 22 -6 6 -12 6 -17 -2z"/>
 <path d="M1585 3070 c-4 -6 -3 -16 3 -22 6 -6 12 -6 17 2 4 6 3 16 -3 22 -6 6 -12 6 -17 -2z"/>
 <path d="M3515 3070 c-4 -6 -3 -16 3 -22 6 -6 12 -6 17 2 4 6 3 16 -3 22 -6 6 -12 6 -17 -2z"/>
 <path d="M1465 3030 c-4 -6 -3 -16 3 -22 6 -6 12 -6 17 2 4 6 3 16 -3 22 -6 6 -12 6 -17 -2z"/>
 <path d="M3635 3030 c-4 -6 -3 -16 3 -22 6 -6 12 -6 17 2 4 6 3 16 -3 22 -6 6 -12 6 -17 -2z"/>
 <path d="M1595 3010 c-4 -6 -3 -16 3 -22 6 -6 12 -6 17 2 4 6 3 16 -3 22 -6 6 -12 6 -17 -2z"/>
 <path d="M3505 3010 c-4 -6 -3 -16 3 -22 6 -6 12 -6 17 2 4 6 3 16 -3 22 -6 6 -12 6 -17 -2z"/>
 <path d="M1485 2910 c-4 -6 -3 -16 3 -22 6 -6 12 -6 17 2 4 6 3 16 -3 22 -6 6 -12 6 -17 -2z"/>
 <path d="M3615 2910 c-4 -6 -3 -16 3 -22 6 -6 12 -6 17 2 4 6 3 16 -3 22 -6 6 -12 6 -17 -2z"/>
 <path d="M1615 2890 c-4 -6 -3 -16 3 -22 6 -6 12 -6 17 2 4 6 3 16 -3 22 -6 6 -12 6 -17 -2z"/>
 <path d="M3485 2890 c-4 -6 -3 -16 3 -22 6 -6 12 -6 17 2 4 6 3 16 -3 22 -6 6 -12 6 -17 -2z"/>
 <path d="M1495 2850 c-4 -6 -3 -16 3 -22 6 -6 12 -6 17 2 4 6 3 16 -3 22 -6 6 -12 6 -17 -2z"/>
 <path d="M3605 2850 c-4 -6 -3 -16 3 -22 6 -6 12 -6 17 2 4 6 3 16 -3 22 -6 6 -12 6 -17 -2z"/>
 <path d="M1625 2830 c-4 -6 -3 -16 3 -22 6 -6 12 -6 17 2 4 6 3 16 -3 22 -6 6 -12 6 -17 -2z"/>
 <path d="M3475 2830 c-4 -6 -3 -16 3 -22 6 -6 12 -6 17 2 4 6 3 16 -3 22 -6 6 -12 6 -17 -2z"/>
 <path d="M1635 2770 c-4 -6 -3 -16 3 -22 6 -6 12 -6 17 2 4 6 3 16 -3 22 -6 6 -12 6 -17 -2z"/>
 <path d="M3465 2770 c-4 -6 -3 -16 3 -22 6 -6 12 -6 17 2 4 6 3 16 -3 22 -6 6 -12 6 -17 -2z"/>
 <path d="M1515 2730 c-4 -6 -3 -16 3 -22 6 -6 12 -6 17 2 4 6 3 16 -3 22 -6 6 -12 6 -17 -2z"/>
 <path d="M3585 2730 c-4 -6 -3 -16 3 -22 6 -6 12 -6 17 2 4 6 3 16 -3 22 -6 6 -12 6 -17 -2z"/>
 <path d="M1525 2670 c-4 -6 -3 -16 3 -22 6 -6 12 -6 17 2 4 6 3 16 -3 22 -6 6 -12 6 -17 -2z"/>
 <path d="M3575 2670 c-4 -6 -3 -16 3 -22 6 -6 12 -6 17 2 4 6 3 16 -3 22 -6 6 -12 6 -17 -2z"/>
 <path d="M1655 2650 c-4 -6 -3 -16 3 -22 6 -6 12 -6 17 2 4 6 3 16 -3 22 -6 6 -12 6 -17 -2z"/>
 <path d="M3445 2650 c-4 -6 -3 -16 3 -22 6 -6 12 -6 17 2 4 6 3 16 -3 22 -6 6 -12 6 -17 -2z"/>
 <path d="M1535 2610 c-4 -6 -3 -16 3 -22 6 -6 12 -6 17 2 4 6 3 16 -3 22 -6 6 -12 6 -17 -2z"/>
 <path d="M3565 2610 c-4 -6 -3 -16 3 -22 6 -6 12 -6 17 2 4 6 3 16 -3 22 -6 6 -12 6 -17 -2z"/>
 <path d="M1665 2590 c-4 -6 -3 -16 3 -22 6 -6 12 -6 17 2 4 6 3 16 -3 22 -6 6 -12 6 -17 -2z"/>
 <path d="M3435 2590 c-4 -6 -3 -16 3 -22 6 -6 12 -6 17 2 4 6 3 16 -3 22 -6 6 -12 6 -17 -2z"/>
 <path d="M894 2405 c-5 -12 5 -59 23 -105 4 -8 7 -18 7 -22 1 -3 4 -9 8 -13 4 -4 4 -13 2 -20 -3 -7 2 -37 11 -66 8 -30 18 -69 21 -88 3 -19 11 -46 16 -60 6 -14 12 -33 13 -41 5 -28 13 -65 25 -110 7 -25 14 -53 15 -62 11 -53 20 -58 119 -58 51 0 95 2 97 5 5 5 -144 606 -155 624 -4 7 -38 11 -86 11 -43 0 -82 5 -85 10 -9 15 -25 12 -31 -5z"/>
 <path d="M4196 2361 c-4 -6 -5 -15 -1 -20 3 -5 0 -13 -6 -16 -5 -4 -8 -13 -5 -21 3 -7 1 -16 -5 -20 -6 -3 -8 -12 -5 -20 3 -7 1 -16 -5 -20 -6 -3 -8 -12 -5 -20 3 -7 1 -16 -5 -20 -6 -3 -8 -12 -5 -20 3 -7 1 -16 -5 -20 -6 -3 -8 -12 -5 -20 3 -7 1 -16 -5 -20 -6 -3 -8 -12 -5 -20 3 -7 1 -16 -5 -20 -6 -3 -8 -12 -5 -20 3 -7 1 -16 -5 -20 -6 -3 -8 -12 -5 -20 3 -7 1 -16 -5 -20 -6 -3 -8 -12 -5 -20 3 -7 1 -16 -5 -20 -6 -3 -8 -12 -5 -19 2 -7 0 -17 -6 -23 -12 -12 -1 -35 13 -26 6 3 8 12 5 20 -3 7 -1 16 5 20 6 3 8 12 5 20 -3 7 -1 16 5 20 6 3 8 12 5 20 -3 7 -1 16 5 20 6 3 8 12 5 20 -3 7 -1 16 5 20 6 3 8 12 5 20 -3 7 -1 16 5 20 6 3 8 12 5 20 -3 7 -1 16 5 20 6 3 8 12 5 20 -3 7 -1 16 5 20 6 3 8 12 5 20 -3 7 -1 16 5 20 6 3 8 12 5 20 -3 7 -1 16 5 20 6 3 8 12 5 20 -3 7 -1 16 5 20 6 3 8 12 5 19 -2 7 1 18 7 24 8 8 8 14 0 22 -8 8 -13 8 -17 0z"/>
 <path d="M1705 2350 c-4 -6 -3 -16 3 -22 6 -6 12 -6 17 2 4 6 3 16 -3 22 -6 6 -12 6 -17 -2z"/>
 <path d="M3395 2350 c-4 -6 -3 -16 3 -22 6 -6 12 -6 17 2 4 6 3 16 -3 22 -6 6 -12 6 -17 -2z"/>
 <path d="M1585 2310 c-4 -6 -3 -16 3 -22 6 -6 12 -6 17 2 4 6 3 16 -3 22 -6 6 -12 6 -17 -2z"/>
 <path d="M1595 2250 c-4 -6 -3 -16 3 -22 6 -6 12 -6 17 2 4 6 3 16 -3 22 -6 6 -12 6 -17 -2z"/>
 <path d="M3505 2250 c-4 -6 -3 -16 3 -22 6 -6 12 -6 17 2 4 6 3 16 -3 22 -6 6 -12 6 -17 -2z"/>
 <path d="M1725 2230 c-4 -6 -3 -16 3 -22 6 -6 12 -6 17 2 4 6 3 16 -3 22 -6 6 -12 6 -17 -2z"/>
 <path d="M3375 2230 c-4 -6 -3 -16 3 -22 6 -6 12 -6 17 2 4 6 3 16 -3 22 -6 6 -12 6 -17 -2z"/>
 <path d="M1605 2190 c-4 -6 -3 -16 3 -22 6 -6 12 -6 17 2 4 6 3 16 -3 22 -6 6 -12 6 -17 -2z"/>
 <path d="M3495 2190 c-4 -6 -3 -16 3 -22 6 -6 12 -6 17 2 4 6 3 16 -3 22 -6 6 -12 6 -17 -2z"/>
 <path d="M1735 2170 c-4 -6 -3 -16 3 -22 6 -6 12 -6 17 2 4 6 3 16 -3 22 -6 6 -12 6 -17 -2z"/>
 <path d="M3365 2170 c-4 -6 -3 -16 3 -22 6 -6 12 -6 17 2 4 6 3 16 -3 22 -6 6 -12 6 -17 -2z"/>
 <path d="M1625 2070 c-4 -6 -3 -16 3 -22 6 -6 12 -6 17 2 4 6 3 16 -3 22 -6 6 -12 6 -17 -2z"/>
 <path d="M3475 2070 c-4 -6 -3 -16 3 -22 6 -6 12 -6 17 2 4 6 3 16 -3 22 -6 6 -12 6 -17 -2z"/>
 <path d="M1635 2010 c-4 -6 -3 -16 3 -22 6 -6 12 -6 17 2 4 6 3 16 -3 22 -6 6 -12 6 -17 -2z"/>
 <path d="M3465 2010 c-4 -6 -3 -16 3 -22 6 -6 12 -6 17 2 4 6 3 16 -3 22 -6 6 -12 6 -17 -2z"/>
 <path d="M1765 1990 c-4 -6 -3 -16 3 -22 6 -6 12 -6 17 2 4 6 3 16 -3 22 -6 6 -12 6 -17 -2z"/>
 <path d="M3335 1990 c-4 -6 -3 -16 3 -22 6 -6 12 -6 17 2 4 6 3 16 -3 22 -6 6 -12 6 -17 -2z"/>
 <path d="M1645 1950 c-4 -6 -3 -16 3 -22 6 -6 12 -6 17 2 4 6 3 16 -3 22 -6 6 -12 6 -17 -2z"/>
 <path d="M1775 1930 c-4 -6 -3 -16 3 -22 6 -6 12 -6 17 2 4 6 3 16 -3 22 -6 6 -12 6 -17 -2z"/>
 <path d="M3325 1930 c-4 -6 -3 -16 3 -22 6 -6 12 -6 17 2 4 6 3 16 -3 22 -6 6 -12 6 -17 -2z"/>
 <path d="M4065 1840 c-4 -6 -4 -14 -1 -17 3 -3 1 -12 -5 -19 -6 -7 -8 -18 -4 -24 9 -14 28 -1 21 15 -2 7 1 18 7 24 8 8 8 14 0 22 -8 8 -13 8 -18 -1z"/>
 <path d="M1665 1830 c-4 -6 -3 -16 3 -22 6 -6 12 -6 17 2 4 6 3 16 -3 22 -6 6 -12 6 -17 -2z"/>
 <path d="M3435 1830 c-4 -6 -3 -16 3 -22 6 -6 12 -6 17 2 4 6 3 16 -3 22 -6 6 -12 6 -17 -2z"/>
 <path d="M1795 1810 c-4 -6 -3 -16 3 -22 6 -6 12 -6 17 2 4 6 3 16 -3 22 -6 6 -12 6 -17 -2z"/>
 <path d="M3305 1810 c-4 -6 -3 -16 3 -22 6 -6 12 -6 17 2 4 6 3 16 -3 22 -6 6 -12 6 -17 -2z"/>
 <path d="M1687 1664 c-3 -4 -2 -16 4 -26 8 -15 14 -17 22 -9 8 8 7 15 -4 26 -8 9 -18 13 -22 9z"/>
 <path d="M3410 1654 c-9 -10 -10 -18 -3 -25 8 -8 14 -5 22 9 13 25 -2 38 -19 16z"/>
 <path d="M1098 1640 c-16 -10 -17 -17 -1 -57 3 -10 7 -21 8 -25 2 -5 4 -11 5 -15 1 -5 2 -15 1 -24 -1 -9 4 -29 10 -45 6 -16 13 -38 15 -49 2 -11 5 -27 7 -35 2 -8 7 -32 12 -53 4 -20 11 -40 16 -43 5 -3 7 -9 4 -14 -3 -5 -1 -11 4 -15 6 -3 8 -12 5 -19 -8 -20 26 -129 44 -143 10 -8 48 -13 99 -13 58 0 85 4 88 13 3 6 -26 131 -63 277 l-67 265 -85 2 c-47 2 -93 -2 -102 -7z"/>
 <path d="M4016 1641 c-4 -6 -5 -15 -1 -20 3 -5 0 -13 -6 -16 -5 -4 -8 -13 -5 -21 3 -7 1 -16 -5 -20 -6 -3 -8 -12 -5 -20 3 -7 1 -16 -5 -20 -6 -3 -8 -12 -5 -20 3 -7 1 -16 -5 -20 -6 -3 -8 -12 -5 -20 3 -7 1 -16 -5 -20 -6 -3 -8 -12 -5 -20 3 -7 1 -16 -5 -20 -6 -3 -8 -12 -5 -20 3 -7 1 -16 -5 -20 -6 -3 -8 -12 -5 -20 3 -7 1 -16 -5 -20 -6 -3 -8 -12 -5 -20 3 -7 1 -16 -5 -20 -6 -3 -8 -12 -5 -20 3 -7 1 -16 -5 -20 -6 -3 -8 -12 -5 -20 3 -7 1 -16 -5 -20 -6 -3 -8 -12 -5 -20 3 -7 1 -16 -5 -20 -6 -3 -8 -12 -5 -19 2 -7 0 -17 -6 -23 -12 -12 -1 -35 13 -26 6 3 8 12 5 20 -3 7 -1 16 5 20 6 3 8 12 5 20 -3 7 -1 16 5 20 6 3 8 12 5 20 -3 7 -1 16 5 20 6 3 8 12 5 20 -3 7 -1 16 5 20 6 3 8 12 5 20 -3 7 -1 16 5 20 6 3 8 12 5 20 -3 7 -1 16 5 20 6 3 8 12 5 20 -3 7 -1 16 5 20 6 3 8 12 5 20 -3 7 -1 16 5 20 6 3 8 12 5 20 -3 7 -1 16 5 20 6 3 8 12 5 20 -3 7 -1 16 5 20 6 3 8 12 5 20 -3 7 -1 16 5 20 6 3 8 12 5 20 -3 7 -1 16 5 20 6 3 8 12 5 19 -2 7 1 18 7 24 8 8 8 14 0 22 -8 8 -13 8 -17 0z"/>
 <path d="M1705 1590 c-4 -6 -3 -16 3 -22 6 -6 12 -6 17 2 4 6 3 16 -3 22 -6 6 -12 6 -17 -2z"/>
 <path d="M3395 1590 c-4 -6 -3 -16 3 -22 6 -6 12 -6 17 2 4 6 3 16 -3 22 -6 6 -12 6 -17 -2z"/>
 <path d="M1835 1570 c-4 -6 -3 -16 3 -22 6 -6 12 -6 17 2 4 6 3 16 -3 22 -6 6 -12 6 -17 -2z"/>
 <path d="M3265 1570 c-4 -6 -3 -16 3 -22 6 -6 12 -6 17 2 4 6 3 16 -3 22 -6 6 -12 6 -17 -2z"/>
 <path d="M1715 1530 c-4 -6 -3 -16 3 -22 6 -6 12 -6 17 2 4 6 3 16 -3 22 -6 6 -12 6 -17 -2z"/>
 <path d="M1845 1510 c-4 -6 -3 -16 3 -22 6 -6 12 -6 17 2 4 6 3 16 -3 22 -6 6 -12 6 -17 -2z"/>
 <path d="M3255 1510 c-4 -6 -3 -16 3 -22 6 -6 12 -6 17 2 4 6 3 16 -3 22 -6 6 -12 6 -17 -2z"/>
 <path d="M1735 1410 c-4 -6 -3 -16 3 -22 6 -6 12 -6 17 2 4 6 3 16 -3 22 -6 6 -12 6 -17 -2z"/>
 <path d="M3365 1410 c-4 -6 -3 -16 3 -22 6 -6 12 -6 17 2 4 6 3 16 -3 22 -6 6 -12 6 -17 -2z"/>
 <path d="M1865 1390 c-4 -6 -3 -16 3 -22 6 -6 12 -6 17 2 4 6 3 16 -3 22 -6 6 -12 6 -17 -2z"/>
 <path d="M3235 1390 c-4 -6 -3 -16 3 -22 6 -6 12 -6 17 2 4 6 3 16 -3 22 -6 6 -12 6 -17 -2z"/>
 <path d="M1745 1350 c-4 -6 -3 -16 3 -22 6 -6 12 -6 17 2 4 6 3 16 -3 22 -6 6 -12 6 -17 -2z"/>
 <path d="M3355 1350 c-4 -6 -3 -16 3 -22 6 -6 12 -6 17 2 4 6 3 16 -3 22 -6 6 -12 6 -17 -2z"/>
 <path d="M1875 1330 c-4 -6 -3 -16 3 -22 6 -6 12 -6 17 2 4 6 3 16 -3 22 -6 6 -12 6 -17 -2z"/>
 <path d="M3225 1330 c-4 -6 -3 -16 3 -22 6 -6 12 -6 17 2 4 6 3 16 -3 22 -6 6 -12 6 -17 -2z"/>
 <path d="M1885 1270 c-4 -6 -3 -16 3 -22 6 -6 12 -6 17 2 4 6 3 16 -3 22 -6 6 -12 6 -17 -2z"/>
 <path d="M3215 1270 c-4 -6 -3 -16 3 -22 6 -6 12 -6 17 2 4 6 3 16 -3 22 -6 6 -12 6 -17 -2z"/>
 <path d="M1765 1230 c-4 -6 -3 -16 3 -22 6 -6 12 -6 17 2 4 6 3 16 -3 22 -6 6 -12 6 -17 -2z"/>
 <path d="M3335 1230 c-4 -6 -3 -16 3 -22 6 -6 12 -6 17 2 4 6 3 16 -3 22 -6 6 -12 6 -17 -2z"/>
 <path d="M1775 1170 c-4 -6 -3 -16 3 -22 6 -6 12 -6 17 2 4 6 3 16 -3 22 -6 6 -12 6 -17 -2z"/>
 <path d="M3325 1170 c-4 -6 -3 -16 3 -22 6 -6 12 -6 17 2 4 6 3 16 -3 22 -6 6 -12 6 -17 -2z"/>
 <path d="M1905 1150 c-4 -6 -3 -16 3 -22 6 -6 12 -6 17 2 4 6 3 16 -3 22 -6 6 -12 6 -17 -2z"/>
 <path d="M3195 1150 c-4 -6 -3 -16 3 -22 6 -6 12 -6 17 2 4 6 3 16 -3 22 -6 6 -12 6 -17 -2z"/>
 </g>

</svg>