<!DOCTYPE svg PUBLIC "-//W3C//DTD SVG 20010904//EN" "http://www.w3.org/TR/2001/REC-SVG-20010904/DTD/svg10.dtd">
<svg version="1.0" xmlns="http://www.w3.org/2000/svg" width="512px" height="512px" viewBox="0 0 5120 5120" preserveAspectRatio="xMidYMid meet">
<g id="layer101" fill="#000000" stroke="none">
 <path d="M1723 4698 c-52 -21 -160 -104 -193 -150 -63 -87 -76 -208 -28 -268 13 -15 58 -58 101 -96 77 -66 79 -69 73 -105 -9 -54 19 -137 61 -181 l35 -36 -5 -204 c-4 -148 -9 -219 -22 -263 -25 -87 -16 -134 39 -214 l45 -67 11 -144 c6 -80 12 -153 14 -162 4 -19 -13 -28 -53 -28 -49 0 -126 -29 -154 -58 -41 -43 -81 -147 -80 -213 0 -43 6 -64 27 -95 14 -21 31 -57 37 -79 6 -22 16 -47 23 -55 7 -8 18 -64 26 -125 7 -60 15 -115 17 -122 3 -6 -10 -22 -29 -34 -53 -34 -70 -65 -75 -133 -6 -68 16 -225 47 -330 21 -75 48 -110 148 -189 l52 -42 0 -83 c0 -117 14 -166 60 -205 21 -18 54 -54 75 -82 55 -74 114 -132 168 -167 40 -25 47 -35 47 -62 0 -17 7 -58 14 -91 17 -70 56 -111 152 -160 48 -25 71 -30 124 -29 70 0 89 8 162 63 63 46 81 86 86 192 4 89 -13 178 -44 227 -9 13 -12 32 -9 43 12 35 7 159 -10 268 -8 57 -14 105 -13 106 2 0 26 15 53 32 44 28 204 83 240 83 38 0 81 60 163 230 78 160 86 180 86 237 l1 63 140 81 c77 45 154 95 172 112 38 36 36 27 99 427 51 327 54 416 17 464 -11 14 -69 65 -129 114 -60 49 -162 146 -226 214 -122 130 -155 154 -232 164 -45 7 -46 8 -47 43 0 20 -3 54 -5 75 -4 33 0 44 25 70 37 38 47 65 63 163 17 110 14 248 -6 303 -23 62 -159 263 -201 298 -20 16 -58 34 -85 40 -44 10 -59 9 -137 -14 -106 -30 -144 -54 -182 -114 -57 -88 -58 -156 -4 -227 l25 -32 -27 -35 c-15 -19 -33 -58 -40 -86 -12 -44 -11 -60 1 -108 8 -31 19 -61 24 -66 4 -4 1 -28 -7 -53 -8 -24 -16 -43 -18 -41 -1 2 -24 51 -50 109 l-47 107 23 32 c33 44 34 149 2 200 -15 25 -21 50 -20 86 1 64 -33 125 -113 205 -59 59 -100 84 -265 156 -110 48 -173 60 -222 41z"/>
 </g>
<g id="layer102" fill="#563c17" stroke="none">
 <path d="M1712 4524 c-38 -28 -70 -61 -82 -84 -33 -65 -35 -61 81 -160 146 -125 161 -149 119 -203 -16 -20 -18 -31 -11 -51 11 -28 39 -46 70 -46 21 0 21 -4 21 -278 0 -217 -3 -282 -14 -297 -7 -11 -16 -38 -20 -59 -7 -36 -3 -45 42 -110 l49 -71 12 -140 c23 -276 32 -351 54 -433 20 -77 20 -84 5 -110 -57 -97 -55 -87 -34 -139 22 -57 31 -116 21 -141 -6 -16 -7 -16 -21 2 -10 14 -11 23 -3 32 15 18 -21 95 -67 146 -34 38 -35 42 -29 93 6 45 3 62 -19 111 l-26 57 -53 -7 c-28 -4 -55 -10 -59 -14 -4 -4 -15 -30 -26 -58 l-20 -50 34 -54 c19 -30 34 -62 34 -72 0 -14 8 -18 34 -18 l34 0 -15 -40 c-14 -36 -14 -52 2 -182 18 -147 23 -165 49 -188 26 -21 19 -40 -14 -40 -33 0 -83 -19 -114 -42 -18 -14 -18 -19 -2 -134 25 -179 31 -194 108 -263 74 -65 75 -66 167 -80 75 -12 98 -27 55 -36 -84 -18 -96 -40 -92 -159 3 -75 5 -81 23 -78 15 2 26 -8 40 -35 24 -46 94 -139 128 -172 14 -12 54 -38 89 -56 60 -31 63 -36 70 -77 3 -23 7 -68 7 -99 l1 -56 51 -31 c73 -46 87 -47 142 -13 l47 31 0 86 c0 79 -3 93 -31 142 -30 54 -30 54 -18 127 10 62 9 94 -5 197 -10 68 -24 147 -33 175 -18 60 -9 83 33 83 13 0 56 20 96 45 62 38 176 80 260 97 11 2 46 60 96 163 l79 160 -51 46 c-28 26 -49 49 -46 52 5 4 105 64 326 195 l121 72 27 177 c15 98 39 244 52 324 35 216 43 190 -93 304 -65 54 -147 130 -183 169 -36 39 -86 93 -112 121 l-47 50 -75 3 c-64 4 -81 1 -112 -17 -32 -19 -35 -20 -28 -4 8 16 8 163 0 338 -4 83 -1 95 28 95 43 0 55 20 57 93 1 38 8 75 15 85 16 21 18 74 3 127 -6 22 -44 90 -85 152 -84 129 -94 135 -185 108 -56 -17 -109 -59 -109 -86 0 -5 25 -47 55 -94 31 -47 58 -91 61 -98 5 -14 -61 -67 -83 -67 -20 0 -43 -30 -43 -55 0 -14 12 -49 27 -79 l26 -54 -48 -129 c-69 -186 -100 -251 -139 -290 l-34 -35 5 -79 c6 -84 -6 -132 -37 -149 -14 -7 -20 -5 -26 8 -5 9 -9 116 -9 237 l0 220 -86 190 -86 190 44 38 c23 21 43 47 43 58 0 10 -22 42 -50 71 l-49 51 24 29 c14 16 25 34 25 40 0 20 -70 105 -107 131 -21 15 -81 45 -133 67 -52 23 -108 48 -124 56 -16 8 -32 14 -35 14 -3 0 -34 -21 -69 -46z m1032 -2083 c-2 -2 -13 8 -25 22 -11 15 -27 27 -36 27 -17 0 -16 1 17 54 l24 40 12 -70 c6 -38 10 -71 8 -73z m-14 -179 c-22 -171 -28 -183 -50 -92 -11 48 -10 54 21 130 19 43 36 72 37 64 2 -8 -1 -54 -8 -102z m-356 -1430 c-22 -5 -27 3 -19 29 l7 22 14 -24 c11 -20 10 -25 -2 -27z"/>
 </g>
<g id="layer103" fill="#6f5530" stroke="none">
 <path d="M1715 4516 c-39 -18 -70 -52 -91 -101 l-16 -39 38 -34 c180 -158 204 -183 204 -214 0 -17 -7 -39 -16 -49 -11 -12 -14 -27 -9 -48 6 -26 13 -33 49 -42 40 -10 42 -12 38 -45 -4 -36 7 -168 13 -162 2 2 7 45 10 96 3 51 10 102 17 115 6 12 14 29 18 37 9 17 51 18 124 3 46 -10 50 -9 80 18 31 28 31 28 11 48 -24 23 -156 91 -178 91 -9 0 -19 -4 -22 -10 -3 -5 -11 -10 -17 -10 -7 0 -6 6 2 15 7 8 9 15 4 16 -28 2 39 18 79 18 76 1 125 40 55 42 -18 1 -25 3 -15 6 9 2 17 8 17 13 0 23 -258 198 -272 185 -2 -3 -20 11 -38 30 -38 39 -42 40 -85 21z"/>
 <path d="M2662 4376 c-47 -16 -68 -29 -82 -51 l-19 -31 59 -91 c33 -51 60 -98 60 -105 0 -12 -67 -59 -102 -71 -33 -11 -33 -54 0 -116 l30 -58 -37 -99 c-42 -109 -43 -144 -2 -69 14 26 31 55 36 64 48 75 63 100 75 125 28 56 35 66 47 70 13 5 48 -33 75 -83 14 -26 23 -31 53 -31 32 0 35 2 35 31 0 38 -69 170 -92 177 -22 6 -23 18 -2 26 10 4 35 -6 62 -24 80 -53 109 -36 65 38 -15 26 -36 63 -45 82 -10 19 -21 42 -26 50 -5 8 -24 46 -43 84 -19 39 -43 75 -54 80 -11 6 -22 14 -25 17 -3 3 -33 -4 -68 -15z"/>
 <path d="M2511 3490 c-34 -5 -53 -17 -86 -51 l-42 -44 10 -67 c12 -82 -9 -154 -48 -164 -33 -8 -37 -28 -13 -59 20 -25 20 -27 2 -93 -11 -41 -28 -77 -44 -93 -14 -15 -24 -32 -22 -38 8 -24 -46 -89 -85 -101 -21 -7 -53 -21 -71 -31 l-32 -18 5 89 c4 67 2 99 -10 126 -8 20 -12 40 -9 45 2 5 1 17 -4 26 -5 10 -12 56 -15 103 l-5 85 47 33 c26 18 58 43 70 55 l21 24 -54 49 c-30 27 -68 60 -86 73 l-31 23 -57 -28 c-53 -27 -58 -32 -69 -78 l-12 -49 48 -67 c27 -36 51 -80 54 -96 4 -16 11 -99 17 -184 13 -184 35 -344 55 -401 15 -41 15 -43 -20 -104 -37 -67 -37 -83 0 -155 17 -33 17 -38 0 -110 -18 -75 -18 -75 -31 -45 -7 17 -13 38 -14 47 0 28 -18 31 -89 13 l-68 -16 13 -95 c13 -93 26 -134 44 -134 5 0 12 -9 15 -21 4 -12 14 -29 22 -39 9 -10 35 -69 59 -131 43 -112 51 -152 18 -87 -45 87 -47 88 -188 103 l-58 7 7 -74 c12 -133 27 -169 98 -232 66 -58 101 -76 145 -76 49 0 104 -20 98 -36 -3 -8 1 -14 9 -14 18 0 18 -9 3 -124 l-12 -91 -11 60 -11 60 -7 -62 c-5 -37 -14 -66 -22 -70 -30 -17 86 -179 171 -239 16 -12 48 -31 70 -42 38 -20 41 -24 47 -74 4 -29 7 -74 7 -99 0 -44 2 -47 51 -77 73 -46 87 -47 142 -13 l47 31 0 85 c0 86 -6 106 -46 156 -20 26 -20 30 -8 90 19 92 19 101 -9 94 -15 -4 -31 0 -44 12 -20 17 -20 23 -12 87 5 37 14 75 20 82 15 18 -10 58 -50 79 -17 8 -36 24 -43 34 -17 24 -128 48 -139 30 -4 -7 -10 -46 -14 -87 -6 -67 -10 -78 -38 -103 -33 -30 -44 -34 -63 -21 -13 8 -1 181 17 260 9 41 7 47 -25 90 -37 52 -90 152 -83 158 2 3 27 -29 56 -70 74 -107 81 -112 199 -119 64 -5 120 -15 156 -28 64 -25 95 -21 134 19 22 21 27 35 25 64 -2 33 5 44 67 111 52 56 67 77 57 85 -25 20 -74 39 -171 67 -82 24 -103 27 -128 17 -30 -11 -30 -11 -24 21 3 18 8 62 12 99 l7 66 42 16 c69 27 80 47 95 166 16 133 21 146 63 159 18 6 49 23 67 36 19 14 37 25 42 25 9 0 0 -112 -19 -215 -8 -44 -16 -120 -18 -170 -3 -49 -6 -99 -7 -110 -5 -34 49 -22 138 28 43 25 102 58 130 74 169 92 390 229 377 231 -28 7 -181 -48 -232 -83 -28 -19 -53 -35 -56 -35 -3 0 -25 -15 -49 -32 -25 -18 -70 -51 -101 -73 -31 -22 -65 -47 -75 -57 -17 -15 -19 -15 -23 5 -8 31 -1 148 17 312 18 163 21 314 5 347 -5 13 -28 36 -49 51 -22 15 -81 74 -132 130 -50 56 -124 136 -163 178 -39 41 -85 94 -103 117 l-33 42 128 62 c144 70 138 66 132 73 -3 2 -34 -9 -69 -26 -35 -16 -67 -28 -71 -27 -5 2 -3 14 4 28 13 27 54 38 138 39 53 1 69 14 69 57 0 49 -19 90 -47 103 -18 8 -24 17 -20 31 4 17 0 20 -26 19 -18 -1 -52 -5 -76 -9z m-95 -492 c3 -10 34 -45 70 -79 35 -34 64 -66 64 -70 0 -8 -97 25 -174 60 -52 23 -56 36 -25 91 19 34 24 37 41 27 10 -7 21 -20 24 -29z m97 -237 c71 -68 117 -129 117 -156 0 -27 -17 -16 -65 39 -26 30 -66 65 -91 76 -30 15 -46 30 -50 47 -4 14 -26 50 -50 79 -24 30 -44 56 -44 59 0 12 119 -81 183 -144z m157 -63 c0 -13 -38 -9 -46 4 -4 7 -8 22 -9 35 -1 22 -1 22 27 -4 15 -15 28 -30 28 -35z m94 -107 c4 -5 1 -44 -5 -86 l-12 -76 -31 30 c-18 17 -38 31 -45 31 -8 0 -5 10 9 30 13 18 19 37 15 49 -4 15 0 21 17 24 40 8 47 7 52 -2z m-634 -1144 c0 -15 -5 -11 -20 18 -25 49 -25 57 0 26 11 -13 20 -33 20 -44z m244 -615 c-22 -5 -27 3 -19 29 l7 22 14 -24 c11 -20 10 -25 -2 -27z"/>
 <path d="M1743 2570 c-40 -16 -39 -52 2 -119 21 -34 41 -61 44 -61 3 0 26 7 51 16 l45 16 -1 51 c0 50 -2 53 -44 79 -46 30 -61 32 -97 18z"/>
 <path d="M2960 2567 c-8 -7 -22 -21 -30 -32 -11 -15 -7 -14 15 5 17 14 34 28 40 32 5 5 5 8 0 8 -6 0 -17 -6 -25 -13z"/>
 <path d="M3240 2346 c0 -41 4 -77 9 -80 7 -5 64 17 110 43 29 15 21 29 -43 70 -36 22 -68 41 -71 41 -3 0 -5 -33 -5 -74z"/>
 <path d="M2972 2365 c-28 -19 -56 -35 -61 -35 -13 0 -27 -48 -50 -180 -24 -130 -25 -153 -11 -148 6 2 76 48 156 103 l144 100 -2 95 -3 95 -61 3 c-55 3 -65 0 -112 -33z"/>
 <path d="M2188 1357 c-12 -29 -10 -73 3 -60 6 6 9 26 7 44 -2 26 -5 30 -10 16z"/>
 <path d="M1995 1328 c-10 -33 -15 -157 -7 -178 8 -22 9 -21 15 16 16 104 20 174 8 174 -6 0 -13 -6 -16 -12z"/>
 </g>
<g id="layer104" fill="#3c0b6a" stroke="none">
 <path d="M1665 4453 c-27 -6 -45 -31 -45 -64 0 -21 14 -39 63 -79 34 -29 88 -76 120 -106 31 -30 61 -54 66 -54 4 0 34 24 66 53 54 49 57 53 39 67 -16 14 -17 13 -11 -2 4 -12 -3 -24 -21 -38 -21 -17 -27 -18 -32 -7 -3 7 -39 51 -80 97 -110 122 -128 140 -137 139 -4 -1 -17 -3 -28 -6z"/>
 <path d="M2577 4313 c-14 -13 -6 -30 52 -123 47 -74 57 -97 49 -108 -10 -11 -5 -12 28 -7 44 8 104 31 104 40 0 3 -12 2 -26 -1 -25 -6 -25 -5 -14 16 7 12 9 40 6 63 -3 23 -5 54 -5 69 -1 46 -24 58 -110 58 -43 0 -81 -3 -84 -7z"/>
 <path d="M1922 4081 c-29 -22 -61 -43 -72 -46 -42 -13 -17 -45 35 -45 17 0 25 6 27 23 2 13 15 28 35 37 25 12 33 21 33 43 0 15 -1 27 -3 27 -1 0 -26 -18 -55 -39z"/>
 <path d="M2553 3983 c-5 -12 35 -100 48 -109 4 -2 16 12 27 31 17 27 32 37 77 51 32 9 53 20 48 24 -14 14 -195 17 -200 3z"/>
 <path d="M2415 3426 c-23 -30 -25 -39 -19 -91 l7 -58 84 7 c47 4 90 9 97 12 8 3 16 26 20 52 3 26 9 58 12 72 l6 26 -72 -4 c-45 -3 -76 0 -83 7 -17 17 -24 14 -52 -23z"/>
 <path d="M1895 3400 c-3 -5 -8 -31 -11 -57 -5 -45 -3 -52 41 -110 l46 -62 52 31 c66 38 80 50 70 57 -8 6 -14 15 -51 73 -9 16 -25 28 -34 28 -22 0 -88 31 -88 42 0 11 -18 10 -25 -2z"/>
 <path d="M2340 2915 c0 -2 35 -30 78 -61 42 -31 83 -62 91 -68 12 -9 13 -8 6 4 -4 8 -17 26 -29 39 -20 23 -20 24 -1 17 11 -4 16 -4 12 0 -9 9 -157 74 -157 69z"/>
 <path d="M2252 2750 c-64 -29 -212 -139 -212 -157 0 -9 5 -30 11 -47 10 -28 8 -37 -25 -91 -39 -65 -39 -81 -3 -147 18 -32 19 -44 10 -95 -16 -89 -54 -276 -60 -293 -16 -43 -13 -102 7 -141 27 -51 168 -248 195 -271 27 -24 56 -22 137 7 45 16 78 23 96 18 25 -6 25 -5 -7 23 l-33 30 26 173 c31 207 31 194 7 181 -24 -12 -211 -14 -211 -1 0 5 34 25 75 46 57 28 74 41 71 54 -21 70 -18 93 17 169 19 42 49 108 66 147 22 47 48 84 82 116 l51 48 -74 21 c-40 12 -81 24 -90 26 -26 8 -22 16 25 47 23 16 57 39 75 52 l33 24 -29 15 c-45 23 -162 66 -181 66 -9 0 -35 -9 -59 -20z"/>
 <path d="M1715 2520 c-8 -13 61 -120 78 -120 25 0 27 12 6 38 -13 17 -18 34 -14 49 4 16 -1 25 -14 33 -25 13 -48 13 -56 0z"/>
 <path d="M1862 2193 c-32 -6 -34 -18 -23 -112 8 -64 16 -89 36 -113 14 -16 25 -33 25 -38 0 -4 11 -10 24 -12 20 -4 25 0 29 21 3 14 1 31 -5 38 -6 8 -2 24 13 51 l23 40 -39 58 c-22 33 -38 62 -37 67 2 7 -7 7 -46 0z"/>
 <path d="M2706 2102 c-4 -13 -5 -26 -2 -29 10 -11 18 4 14 29 l-4 23 -8 -23z"/>
 <path d="M2020 1677 c0 -17 79 -164 96 -178 17 -13 17 -11 -1 16 -11 17 -36 62 -57 100 -21 39 -38 67 -38 62z"/>
 <path d="M2116 1258 c-12 -92 -18 -118 -27 -112 -5 3 -10 22 -10 42 l-1 37 -7 -35 c-4 -19 -13 -44 -21 -56 -11 -18 -9 -27 16 -70 39 -68 149 -176 210 -207 50 -25 51 -27 57 -79 4 -29 7 -74 7 -99 0 -44 2 -47 51 -77 73 -46 87 -47 142 -13 l47 31 0 85 c0 86 -6 106 -46 156 -20 26 -20 29 -6 103 8 42 12 80 7 84 -4 4 -34 -22 -66 -57 -32 -35 -59 -57 -59 -49 0 16 -59 140 -71 148 -4 3 -10 27 -14 54 -8 53 0 66 43 66 15 0 21 4 16 11 -4 8 -27 9 -67 5 -39 -4 -65 -2 -73 5 -11 9 -14 7 -14 -8 0 -29 -53 -75 -81 -71 -23 3 -24 6 -21 81 1 42 1 77 -1 77 -3 0 -7 -24 -11 -52z m258 -426 c-22 -5 -27 3 -19 29 l7 22 14 -24 c11 -20 10 -25 -2 -27z"/>
 <path d="M1990 1252 c-7 -32 -8 -61 -2 -83 8 -31 9 -27 16 45 4 43 5 80 3 83 -3 2 -10 -18 -17 -45z"/>
 </g>
<g id="layer105" fill="#896f4a" stroke="none">
 <path d="M1665 4453 c-27 -6 -45 -31 -45 -64 0 -21 14 -39 63 -79 34 -29 88 -76 120 -106 31 -30 61 -54 66 -54 4 0 34 24 66 53 54 49 57 53 39 67 -16 14 -17 13 -11 -2 4 -12 -3 -24 -21 -38 -21 -17 -27 -18 -32 -7 -3 7 -39 51 -80 97 -110 122 -128 140 -137 139 -4 -1 -17 -3 -28 -6z"/>
 <path d="M2577 4313 c-14 -13 -6 -30 52 -123 47 -74 57 -97 49 -108 -10 -11 -5 -12 28 -7 44 8 104 31 104 40 0 3 -12 2 -26 -1 -25 -6 -25 -5 -14 16 7 12 9 40 6 63 -3 23 -5 54 -5 69 -1 46 -24 58 -110 58 -43 0 -81 -3 -84 -7z"/>
 <path d="M1922 4081 c-29 -22 -61 -43 -72 -46 -42 -13 -17 -45 35 -45 17 0 25 6 27 23 2 13 15 28 35 37 25 12 33 21 33 43 0 15 -1 27 -3 27 -1 0 -26 -18 -55 -39z"/>
 <path d="M2553 3983 c-5 -12 35 -100 48 -109 4 -2 16 12 27 31 17 27 32 37 77 51 32 9 53 20 48 24 -14 14 -195 17 -200 3z"/>
 <path d="M2415 3426 c-23 -30 -25 -39 -19 -91 l7 -58 84 7 c47 4 90 9 97 12 8 3 16 26 20 52 3 26 9 58 12 72 l6 26 -72 -4 c-45 -3 -76 0 -83 7 -17 17 -24 14 -52 -23z"/>
 <path d="M1895 3400 c-3 -5 -8 -31 -11 -57 -5 -45 -3 -52 41 -110 l46 -62 52 31 c66 38 80 50 70 57 -8 6 -14 15 -51 73 -9 16 -25 28 -34 28 -22 0 -88 31 -88 42 0 11 -18 10 -25 -2z"/>
 <path d="M2340 2915 c0 -2 35 -30 78 -61 42 -31 83 -62 91 -68 12 -9 13 -8 6 4 -4 8 -17 26 -29 39 -20 23 -20 24 -1 17 11 -4 16 -4 12 0 -9 9 -157 74 -157 69z"/>
 <path d="M2252 2750 c-64 -29 -212 -139 -212 -157 0 -9 5 -30 11 -47 10 -28 8 -37 -25 -91 -39 -65 -39 -81 -3 -147 18 -32 19 -44 10 -95 -16 -89 -54 -276 -60 -293 -16 -43 -13 -102 7 -141 27 -51 168 -248 195 -271 27 -24 56 -22 137 7 45 16 78 23 96 18 25 -6 25 -5 -7 23 l-33 30 26 173 c31 207 31 194 7 181 -24 -12 -211 -14 -211 -1 0 5 34 25 75 46 57 28 74 41 71 54 -21 70 -18 93 17 169 19 42 49 108 66 147 22 47 48 84 82 116 l51 48 -74 21 c-40 12 -81 24 -90 26 -26 8 -22 16 25 47 23 16 57 39 75 52 l33 24 -29 15 c-45 23 -162 66 -181 66 -9 0 -35 -9 -59 -20z"/>
 <path d="M1715 2520 c-8 -13 61 -120 78 -120 25 0 27 12 6 38 -13 17 -18 34 -14 49 4 16 -1 25 -14 33 -25 13 -48 13 -56 0z"/>
 <path d="M1862 2193 c-32 -6 -34 -18 -23 -112 8 -64 16 -89 36 -113 14 -16 25 -33 25 -38 0 -4 11 -10 24 -12 20 -4 25 0 29 21 3 14 1 31 -5 38 -6 8 -2 24 13 51 l23 40 -39 58 c-22 33 -38 62 -37 67 2 7 -7 7 -46 0z"/>
 <path d="M2706 2102 c-4 -13 -5 -26 -2 -29 10 -11 18 4 14 29 l-4 23 -8 -23z"/>
 <path d="M2020 1677 c0 -17 79 -164 96 -178 17 -13 17 -11 -1 16 -11 17 -36 62 -57 100 -21 39 -38 67 -38 62z"/>
 <path d="M2116 1258 c-12 -92 -18 -118 -27 -112 -5 3 -10 22 -10 42 l-1 37 -7 -35 c-4 -19 -13 -44 -21 -56 -11 -18 -9 -27 15 -69 45 -76 133 -165 163 -165 47 0 147 21 166 35 18 14 18 17 -14 82 -18 37 -37 70 -41 73 -4 3 -10 27 -14 54 -8 53 0 66 43 66 15 0 21 4 16 11 -4 8 -27 9 -67 5 -39 -4 -65 -2 -73 5 -11 9 -14 7 -14 -8 0 -29 -53 -75 -81 -71 -23 3 -24 6 -21 81 1 42 1 77 -1 77 -3 0 -7 -24 -11 -52z"/>
 <path d="M1990 1252 c-7 -32 -8 -61 -2 -83 8 -31 9 -27 16 45 4 43 5 80 3 83 -3 2 -10 -18 -17 -45z"/>
 </g>

</svg>