<!DOCTYPE svg PUBLIC "-//W3C//DTD SVG 20010904//EN" "http://www.w3.org/TR/2001/REC-SVG-20010904/DTD/svg10.dtd">
<svg version="1.0" xmlns="http://www.w3.org/2000/svg" width="512px" height="512px" viewBox="0 0 5120 5120" preserveAspectRatio="xMidYMid meet">
<g id="layer101" fill="#000000" stroke="none">
 <path d="M1057 3950 c-74 -23 -156 -77 -198 -130 l-32 -40 -86 -1 c-110 -1 -131 -8 -158 -48 -22 -32 -23 -44 -23 -197 l0 -164 29 -32 c29 -33 31 -33 130 -36 l101 -4 65 -65 c40 -40 65 -73 65 -86 0 -21 -4 -22 -94 -22 -91 0 -96 -1 -126 -30 -22 -21 -39 -55 -60 -124 -39 -123 -76 -289 -95 -425 -20 -146 -20 -478 0 -628 20 -144 89 -427 121 -494 34 -72 62 -84 202 -84 l110 0 12 -51 c21 -88 83 -139 171 -139 77 0 148 54 164 125 16 69 9 65 99 65 l83 0 7 -49 c16 -124 170 -184 271 -106 40 30 59 63 69 118 l7 37 703 0 704 0 4 -66 c4 -60 7 -70 36 -95 l32 -29 300 0 300 0 32 29 c29 25 32 35 36 94 l4 65 164 4 c159 3 164 4 188 28 33 35 76 168 125 395 28 127 41 271 41 466 0 221 -13 344 -55 535 -42 187 -80 296 -115 329 -30 29 -35 30 -126 30 -90 0 -94 1 -94 22 0 13 25 46 65 86 l65 65 101 4 c99 3 101 3 130 36 l29 32 0 164 c0 153 -1 165 -23 197 -27 40 -48 47 -158 48 l-86 1 -32 40 c-156 194 -481 199 -651 9 l-36 -39 -56 54 c-31 30 -76 65 -100 77 -140 72 -321 63 -443 -21 -49 -34 -115 -98 -115 -112 0 -4 -134 -8 -297 -8 l-298 1 -30 39 c-40 51 -136 114 -207 134 -155 44 -331 -4 -440 -123 l-41 -43 -36 40 c-111 124 -295 173 -454 122z m1846 -712 c34 -35 83 -73 107 -85 l45 -23 -495 0 -495 0 45 23 c24 12 72 50 105 84 l60 61 282 1 283 1 63 -62z m-1184 -91 l50 -22 -169 0 -170 0 0 23 c0 14 21 44 58 80 l57 58 62 -59 c34 -32 85 -68 112 -80z m1971 1 l0 -23 -169 0 -168 0 57 27 c31 15 80 51 109 81 l52 54 60 -58 c38 -38 59 -67 59 -81z"/>
 </g>
<g id="layer102" fill="#6c6f7e" stroke="none">
 <path d="M1091 3849 c-66 -20 -157 -95 -191 -158 -10 -19 -19 -21 -123 -21 l-112 0 2 -131 2 -131 108 1 108 2 35 -53 c20 -29 59 -68 88 -87 l52 -35 0 -108 0 -107 -132 -3 -133 -3 -32 -110 c-68 -230 -96 -427 -96 -675 1 -246 40 -510 107 -706 l23 -69 136 -3 137 -3 1 428 c0 305 4 438 12 462 16 47 56 74 107 74 54 0 91 -28 109 -82 l13 -42 141 3 141 3 7 33 c20 99 155 119 209 30 19 -32 20 -49 20 -470 l0 -438 790 0 790 0 0 -100 0 -100 260 0 260 0 0 100 0 100 197 2 196 3 23 69 c32 94 72 277 91 411 21 152 20 446 -1 605 -16 112 -78 383 -105 453 l-11 27 -130 0 -130 0 0 108 0 108 52 35 c29 19 68 58 88 87 l35 53 110 -2 110 -2 3 132 3 131 -115 0 -114 0 -21 33 c-29 47 -89 102 -141 129 -38 19 -60 23 -140 23 -84 0 -101 -3 -145 -27 -51 -27 -107 -80 -138 -130 -16 -25 -23 -28 -76 -28 l-58 0 -32 50 c-102 158 -339 188 -483 61 -24 -22 -52 -55 -63 -75 l-20 -36 -355 0 -355 0 -20 36 c-11 20 -39 53 -63 75 -145 128 -385 96 -486 -65 l-29 -46 -58 0 c-49 0 -60 3 -70 21 -23 44 -95 111 -144 137 -39 20 -68 26 -130 28 -44 2 -95 -1 -114 -7z m548 -493 c99 -132 257 -177 401 -115 49 22 119 85 151 137 l21 32 348 0 348 0 21 -32 c129 -209 403 -220 552 -22 41 53 42 54 94 54 50 0 53 -2 80 -42 32 -48 78 -93 118 -114 27 -14 27 -15 27 -124 l0 -110 -1240 0 -1240 0 0 110 0 109 28 15 c36 19 109 92 128 128 13 25 19 28 68 28 53 0 54 0 95 -54z"/>
 <path d="M1154 2352 c-32 -21 -34 -52 -34 -549 0 -554 -1 -543 63 -543 66 0 77 27 77 189 l0 131 195 0 195 0 0 -143 c0 -161 6 -177 68 -177 63 0 62 -11 62 552 0 495 -1 509 -20 528 -25 25 -72 26 -93 2 -8 -9 -17 -37 -19 -62 l-3 -45 -190 0 -190 0 -3 25 c-5 48 -12 69 -28 84 -16 17 -61 21 -80 8z m494 -314 l-3 -63 -192 -3 -193 -2 0 65 0 65 195 0 196 0 -3 -62z m0 -260 l-3 -63 -192 -3 -193 -2 0 65 0 65 195 0 196 0 -3 -62z"/>
 <path d="M1310 2038 c0 -10 35 -13 140 -13 105 0 140 3 140 13 0 9 -35 12 -140 12 -105 0 -140 -3 -140 -12z"/>
 <path d="M1310 1775 c0 -13 22 -15 140 -15 118 0 140 2 140 15 0 13 -22 15 -140 15 -118 0 -140 -2 -140 -15z"/>
 <path d="M1310 1490 l0 -40 140 0 140 0 0 40 0 40 -140 0 -140 0 0 -40z"/>
 </g>
<g id="layer103" fill="#858897" stroke="none">
 <path d="M670 3540 l0 -130 111 0 c110 0 110 0 102 23 -10 28 -11 173 0 210 l7 27 -110 0 -110 0 0 -130z"/>
 <path d="M1497 3638 c10 -43 10 -165 -1 -200 l-8 -28 62 0 c59 0 61 1 53 23 -4 12 -8 60 -8 107 0 47 4 95 8 108 8 21 6 22 -53 22 l-62 0 9 -32z"/>
 <path d="M2217 3633 c10 -49 10 -149 0 -190 l-9 -33 352 0 351 0 -8 38 c-10 48 -10 137 1 185 l8 37 -351 0 -352 0 8 -37z"/>
 <path d="M3517 3648 c4 -13 8 -61 8 -108 0 -47 -4 -95 -8 -107 -8 -22 -6 -23 53 -23 l62 0 -8 28 c-11 35 -11 157 -1 200 l9 32 -62 0 c-59 0 -61 -1 -53 -22z"/>
 <path d="M4237 3643 c11 -37 10 -182 0 -210 -8 -23 -8 -23 102 -23 l111 0 0 130 0 130 -110 0 -110 0 7 -27z"/>
 <path d="M1883 3599 c-45 -17 -56 -73 -20 -107 44 -41 107 -16 107 42 0 48 -44 81 -87 65z"/>
 <path d="M3200 3602 c-52 -16 -69 -88 -28 -116 12 -9 32 -16 43 -16 26 0 65 39 65 66 0 42 -43 77 -80 66z"/>
 <path d="M3909 3598 c-52 -18 -58 -92 -9 -118 47 -25 109 23 96 75 -8 33 -53 55 -87 43z"/>
 <path d="M1140 3580 c-27 -27 -25 -56 5 -85 26 -27 46 -31 76 -14 41 21 44 86 5 111 -21 14 -66 8 -86 -12z"/>
 <path d="M4020 3223 c-35 -15 -147 -14 -198 2 l-23 8 2 -107 1 -106 -1242 0 -1242 0 1 106 2 106 -28 -8 c-36 -11 -170 -11 -206 0 l-28 8 2 -107 2 -107 -134 -1 -134 -2 -32 -110 c-68 -230 -96 -427 -96 -675 1 -246 40 -510 107 -706 l23 -69 136 -3 137 -3 1 428 c0 305 4 438 12 462 16 47 56 74 107 74 54 0 91 -28 109 -82 l13 -42 141 3 141 3 7 33 c20 99 155 119 209 30 19 -32 20 -49 20 -470 l0 -438 790 0 790 0 0 -95 0 -95 260 0 260 0 0 95 0 95 197 2 196 3 23 69 c32 94 72 277 91 411 21 152 20 446 -1 605 -16 113 -78 383 -105 453 l-11 28 -131 -2 -131 -1 1 111 c1 61 1 111 -1 110 -2 0 -19 -7 -38 -16z m-2772 -200 c-32 -2 -84 -2 -115 0 -32 2 -6 3 57 3 63 0 89 -1 58 -3z m2740 0 c-32 -2 -84 -2 -115 0 -32 2 -6 3 57 3 63 0 89 -1 58 -3z"/>
 <path d="M1146 2344 c-9 -8 -19 -27 -22 -40 -4 -14 -5 -245 -2 -514 4 -460 5 -490 22 -509 24 -26 67 -27 89 -3 14 15 17 42 17 160 l0 142 200 0 200 0 0 -138 c0 -108 3 -142 16 -160 20 -28 65 -29 90 -1 18 20 19 44 19 536 0 498 -1 515 -19 529 -27 19 -70 18 -89 -4 -8 -9 -17 -37 -19 -62 l-3 -45 -197 -3 -198 -2 0 49 c0 32 -6 55 -16 65 -20 20 -68 20 -88 0z m502 -307 l-3 -62 -197 -3 -198 -2 0 63 c0 35 2 66 4 68 2 2 93 3 201 1 l196 -3 -3 -62z m0 -260 l-3 -62 -195 0 -195 0 -3 54 c-2 29 -1 59 1 65 3 8 63 10 201 8 l197 -3 -3 -62z"/>
 <path d="M1310 2038 c0 -10 35 -13 140 -13 105 0 140 3 140 13 0 9 -35 12 -140 12 -105 0 -140 -3 -140 -12z"/>
 <path d="M1310 1775 c0 -13 22 -15 140 -15 118 0 140 2 140 15 0 13 -22 15 -140 15 -118 0 -140 -2 -140 -15z"/>
 <path d="M1310 1490 l0 -40 140 0 140 0 0 40 0 40 -140 0 -140 0 0 -40z"/>
 </g>
<g id="layer104" fill="#bbbbbb" stroke="none">
 <path d="M670 3535 l0 -125 110 0 110 0 -16 40 c-16 40 -16 135 1 188 7 22 7 22 -99 22 l-106 0 0 -125z"/>
 <path d="M1506 3613 c17 -58 18 -85 0 -151 l-13 -52 55 0 54 0 -8 28 c-11 35 -12 170 -1 200 8 21 6 22 -46 22 l-55 0 14 -47z"/>
 <path d="M2227 3608 c14 -53 10 -127 -8 -175 l-9 -23 351 0 c331 0 351 1 344 18 -21 49 -26 121 -12 176 l14 56 -347 0 -347 0 14 -52z"/>
 <path d="M3527 3638 c11 -30 10 -165 -1 -200 l-8 -28 54 0 55 0 -13 52 c-18 66 -17 93 0 151 l14 47 -55 0 c-52 0 -54 -1 -46 -22z"/>
 <path d="M4245 3638 c17 -53 17 -148 1 -188 l-16 -40 110 0 110 0 0 125 0 125 -106 0 c-106 0 -106 0 -99 -22z"/>
 <path d="M1152 3584 c-45 -31 -17 -104 40 -104 53 0 79 74 36 104 -12 9 -29 16 -38 16 -9 0 -26 -7 -38 -16z"/>
 <path d="M1867 3582 c-37 -41 -11 -102 42 -102 55 0 80 61 41 100 -25 25 -62 26 -83 2z"/>
 <path d="M3170 3580 c-39 -39 -14 -100 43 -100 33 0 57 24 57 59 0 55 -61 80 -100 41z"/>
 <path d="M3892 3584 c-45 -31 -17 -104 40 -104 53 0 79 74 36 104 -12 9 -29 16 -38 16 -9 0 -26 -7 -38 -16z"/>
 <path d="M791 2997 c-18 -48 -70 -246 -85 -322 -43 -226 -52 -522 -22 -738 18 -139 57 -317 90 -413 l23 -69 136 -3 137 -3 1 428 c0 305 4 438 12 462 16 47 56 74 107 74 54 0 91 -28 109 -82 l13 -42 141 3 141 3 7 33 c20 99 155 119 209 30 19 -32 20 -49 20 -470 l0 -438 790 0 790 0 0 -95 0 -95 260 0 260 0 0 95 0 95 197 2 196 3 23 69 c32 94 72 277 91 411 21 152 20 446 -1 605 -16 112 -78 383 -105 452 l-10 28 -1761 0 -1761 0 -8 -23z"/>
 <path d="M1310 2038 c0 -10 35 -13 140 -13 105 0 140 3 140 13 0 9 -35 12 -140 12 -105 0 -140 -3 -140 -12z"/>
 <path d="M1310 1775 c0 -13 22 -15 140 -15 118 0 140 2 140 15 0 13 -22 15 -140 15 -118 0 -140 -2 -140 -15z"/>
 <path d="M1310 1490 l0 -40 140 0 140 0 0 40 0 40 -140 0 -140 0 0 -40z"/>
 </g>
<g id="layer105" fill="#a1a1a1" stroke="none">
 <path d="M670 3535 l0 -125 110 0 110 0 -16 40 c-16 40 -16 135 1 188 7 22 7 22 -99 22 l-106 0 0 -125z"/>
 <path d="M1506 3613 c17 -58 18 -85 0 -151 l-13 -52 55 0 54 0 -8 28 c-11 35 -12 170 -1 200 8 21 6 22 -46 22 l-55 0 14 -47z"/>
 <path d="M2227 3608 c14 -53 10 -127 -8 -175 l-9 -23 351 0 c331 0 351 1 344 18 -21 49 -26 121 -12 176 l14 56 -347 0 -347 0 14 -52z"/>
 <path d="M3527 3638 c11 -30 10 -165 -1 -200 l-8 -28 54 0 55 0 -13 52 c-18 66 -17 93 0 151 l14 47 -55 0 c-52 0 -54 -1 -46 -22z"/>
 <path d="M4245 3638 c17 -53 17 -148 1 -188 l-16 -40 110 0 110 0 0 125 0 125 -106 0 c-106 0 -106 0 -99 -22z"/>
 <path d="M1152 3584 c-45 -31 -17 -104 40 -104 53 0 79 74 36 104 -12 9 -29 16 -38 16 -9 0 -26 -7 -38 -16z"/>
 <path d="M1867 3582 c-37 -41 -11 -102 42 -102 55 0 80 61 41 100 -25 25 -62 26 -83 2z"/>
 <path d="M3170 3580 c-39 -39 -14 -100 43 -100 33 0 57 24 57 59 0 55 -61 80 -100 41z"/>
 <path d="M3892 3584 c-45 -31 -17 -104 40 -104 53 0 79 74 36 104 -12 9 -29 16 -38 16 -9 0 -26 -7 -38 -16z"/>
 <path d="M1065 3009 c5 -7 -37 -9 -133 -7 l-140 3 -12 -38 c-6 -20 -8 -42 -5 -47 3 -6 1 -10 -5 -10 -8 0 -10 -10 -6 -27 5 -22 4 -25 -5 -13 -8 12 -9 9 -4 -13 4 -20 2 -27 -6 -22 -8 5 -9 1 -4 -15 4 -14 3 -20 -3 -16 -5 3 -12 -5 -14 -19 -3 -13 -1 -22 3 -19 5 3 9 -2 9 -11 0 -9 -5 -13 -11 -9 -8 4 -9 -1 -4 -16 5 -17 4 -20 -5 -15 -10 6 -11 1 -6 -19 3 -14 2 -26 -3 -26 -5 0 -11 -13 -13 -29 -2 -17 -1 -28 4 -25 4 3 8 -4 8 -16 0 -12 -4 -18 -11 -15 -7 5 -8 -5 -3 -30 5 -27 4 -36 -5 -31 -13 9 -14 0 -15 -271 -1 -110 2 -199 7 -196 4 2 7 -3 7 -12 0 -10 -5 -13 -12 -9 -8 5 -9 0 -5 -17 4 -13 7 -39 7 -57 0 -22 4 -31 11 -26 8 4 9 -3 4 -26 -5 -23 -4 -30 4 -26 7 5 11 -1 11 -14 0 -12 -4 -19 -9 -16 -9 6 -5 -23 6 -54 4 -8 5 -23 4 -34 -2 -12 1 -16 9 -11 9 5 10 1 5 -15 -5 -15 -4 -20 4 -16 6 4 11 0 11 -9 0 -9 -4 -14 -9 -11 -4 3 -6 -6 -3 -19 2 -14 9 -22 15 -18 7 4 8 0 4 -11 -9 -24 13 -107 26 -99 6 4 8 0 4 -9 -3 -9 -1 -31 5 -50 l10 -33 139 3 139 3 2 422 c1 232 2 432 2 444 0 12 4 19 9 16 5 -3 7 0 5 8 -7 19 20 49 38 42 8 -3 14 -1 14 5 0 6 10 8 22 4 14 -3 19 -2 14 6 -5 8 1 12 14 12 13 0 19 -4 14 -12 -5 -8 0 -9 14 -6 12 4 22 2 22 -3 0 -5 9 -9 21 -9 11 0 17 -4 14 -10 -3 -5 -1 -10 4 -10 6 0 11 -7 11 -16 0 -8 4 -13 9 -10 5 4 7 -3 4 -14 -11 -41 17 -50 151 -50 121 0 126 1 126 21 0 12 4 17 11 13 8 -4 9 1 4 16 -5 15 -4 20 4 16 6 -4 12 -2 12 3 1 6 2 15 3 20 0 5 5 13 10 18 5 5 6 2 2 -7 -5 -9 -2 -8 7 2 8 10 17 15 20 11 4 -3 7 -2 7 4 0 6 9 9 22 5 14 -3 19 -2 14 6 -5 8 2 12 19 12 17 0 24 -4 19 -12 -5 -8 -2 -9 9 -5 10 4 17 2 17 -4 0 -6 6 -9 14 -6 18 7 45 -23 38 -42 -3 -8 0 -11 7 -7 7 5 9 1 5 -8 -3 -9 -2 -16 2 -16 5 0 8 -195 6 -432 l-3 -433 366 3 365 2 0 765 0 765 -626 0 c-414 0 -623 3 -619 10 4 6 -40 10 -125 10 -89 0 -129 -3 -125 -11z"/>
 <path d="M1378 2043 c39 -2 105 -2 145 0 39 1 7 3 -73 3 -80 0 -112 -2 -72 -3z"/>
 <path d="M1310 1490 c0 -19 7 -20 140 -20 133 0 140 1 140 20 0 19 -7 20 -140 20 -133 0 -140 -1 -140 -20z"/>
 <path d="M3410 1355 l0 -95 260 0 260 0 0 95 0 95 -260 0 -260 0 0 -95z"/>
 </g>
<g id="layer106" fill="#9fa2b1" stroke="none">
 <path d="M670 3535 l0 -125 110 0 110 0 -16 40 c-16 40 -16 135 1 188 7 22 7 22 -99 22 l-106 0 0 -125z"/>
 <path d="M1506 3613 c17 -58 18 -85 0 -151 l-13 -52 55 0 54 0 -8 28 c-11 35 -12 170 -1 200 8 21 6 22 -46 22 l-55 0 14 -47z"/>
 <path d="M2227 3608 c14 -53 10 -127 -8 -175 l-9 -23 351 0 c331 0 351 1 344 18 -21 49 -26 121 -12 176 l14 56 -347 0 -347 0 14 -52z"/>
 <path d="M3527 3638 c11 -30 10 -165 -1 -200 l-8 -28 54 0 55 0 -13 52 c-18 66 -17 93 0 151 l14 47 -55 0 c-52 0 -54 -1 -46 -22z"/>
 <path d="M4245 3638 c17 -53 17 -148 1 -188 l-16 -40 110 0 110 0 0 125 0 125 -106 0 c-106 0 -106 0 -99 -22z"/>
 <path d="M1152 3584 c-45 -31 -17 -104 40 -104 53 0 79 74 36 104 -12 9 -29 16 -38 16 -9 0 -26 -7 -38 -16z"/>
 <path d="M1867 3582 c-37 -41 -11 -102 42 -102 55 0 80 61 41 100 -25 25 -62 26 -83 2z"/>
 <path d="M3170 3580 c-39 -39 -14 -100 43 -100 33 0 57 24 57 59 0 55 -61 80 -100 41z"/>
 <path d="M3892 3584 c-45 -31 -17 -104 40 -104 53 0 79 74 36 104 -12 9 -29 16 -38 16 -9 0 -26 -7 -38 -16z"/>
 <path d="M3410 1355 l0 -95 260 0 260 0 0 95 0 95 -260 0 -260 0 0 -95z"/>
 </g>

</svg>