<!DOCTYPE svg PUBLIC "-//W3C//DTD SVG 20010904//EN" "http://www.w3.org/TR/2001/REC-SVG-20010904/DTD/svg10.dtd">
<svg version="1.0" xmlns="http://www.w3.org/2000/svg" width="512px" height="512px" viewBox="0 0 5120 5120" preserveAspectRatio="xMidYMid meet">
<g id="layer101" fill="#000000" stroke="none">
 <path d="M908 4415 c-16 -20 -18 -48 -18 -199 l0 -176 -143 0 c-113 0 -147 -3 -165 -16 l-22 -15 0 -1302 c0 -716 4 -1307 8 -1313 22 -33 45 -34 1019 -34 l968 0 -3 -74 -3 -73 -384 -192 c-211 -106 -388 -197 -393 -204 -39 -47 -8 -117 52 -117 23 0 154 61 422 195 l389 195 125 0 125 0 390 -195 c263 -132 400 -195 421 -195 23 0 39 8 53 26 25 32 26 52 6 81 -9 13 -177 103 -400 214 l-385 192 0 74 0 73 766 0 c768 0 794 1 816 34 4 6 8 597 8 1313 l0 1302 -22 15 c-18 13 -52 16 -165 16 l-143 0 0 178 c-1 243 24 222 -270 222 -294 0 -269 21 -270 -222 l0 -178 -1130 0 -1130 0 0 178 c-1 243 24 222 -272 222 l-233 -1 -17 -24z"/>
 </g>
<g id="layer102" fill="#2b2b2b" stroke="none">
 <path d="M1030 4165 l0 -135 130 0 130 0 0 135 0 135 -130 0 -130 0 0 -135z"/>
 <path d="M3830 4165 l0 -135 130 0 130 0 0 135 0 135 -130 0 -130 0 0 -135z"/>
 <path d="M697 3903 c-4 -3 -7 -546 -7 -1205 l0 -1198 1870 0 1870 0 -2 1203 -3 1202 -1861 3 c-1023 1 -1864 -1 -1867 -5z m3303 -288 c20 -18 26 -60 12 -82 -19 -31 -149 -45 -207 -23 -54 21 -51 105 5 122 46 14 168 3 190 -17z m288 -48 l3 -68 -63 3 -63 3 -3 59 c-4 70 3 77 73 74 l50 -3 3 -68z m-682 42 c18 -20 19 -50 19 -909 0 -859 -1 -889 -19 -909 l-19 -21 -1287 0 c-1253 0 -1288 1 -1311 19 l-24 19 -3 886 c-2 805 -1 888 14 911 l16 25 1298 0 1297 0 19 -21z m557 -483 c71 -41 115 -111 124 -196 7 -73 -17 -149 -64 -201 -55 -61 -94 -80 -176 -86 -65 -5 -79 -3 -130 21 -74 35 -122 93 -142 172 -40 157 63 307 225 326 46 6 121 -11 163 -36z m-38 -722 c199 -127 67 -418 -160 -354 -48 13 -107 69 -125 116 -15 38 -12 112 5 148 50 106 186 149 280 90z"/>
 <path d="M1090 2700 l0 -800 1200 2 1200 3 0 795 0 795 -1200 3 -1200 2 0 -800z m2251 641 c17 -20 19 -40 19 -173 0 -145 -1 -150 -25 -173 -29 -30 -58 -32 -85 -5 -18 18 -20 33 -20 135 l0 115 -112 0 c-62 0 -118 4 -124 8 -26 17 -35 51 -22 79 18 38 42 42 206 40 138 -2 145 -3 163 -26z m-2001 -933 c18 -19 20 -35 20 -130 l0 -108 94 0 c94 0 144 -10 158 -33 13 -20 9 -60 -9 -79 -14 -16 -34 -18 -179 -18 -206 0 -194 -13 -194 195 0 120 3 155 16 173 20 29 67 29 94 0z"/>
 <path d="M3959 3015 c-15 -8 -36 -30 -47 -49 -51 -86 19 -196 123 -196 91 0 155 116 108 197 -33 58 -123 81 -184 48z"/>
 <path d="M3977 2282 c-21 -23 -22 -56 -1 -87 32 -48 114 -19 114 40 0 55 -77 87 -113 47z"/>
 <path d="M2692 1303 l3 -68 63 0 64 0 1 68 2 67 -68 0 -68 0 3 -67z"/>
 <path d="M2963 1285 c0 -44 2 -61 4 -37 2 23 2 59 0 80 -2 20 -4 1 -4 -43z"/>
 <path d="M3739 730 c-15 -17 -23 -30 -19 -30 7 0 32 26 44 48 11 19 3 14 -25 -18z"/>
 </g>
<g id="layer103" fill="#888888" stroke="none">
 <path d="M1030 4170 l0 -130 130 0 130 0 0 130 0 130 -130 0 -130 0 0 -130z"/>
 <path d="M3830 4170 l0 -130 130 0 130 0 0 130 0 130 -130 0 -130 0 0 -130z"/>
 <path d="M697 3893 c-4 -3 -7 -543 -7 -1200 l0 -1193 1870 0 1870 0 -2 1198 -3 1197 -1861 3 c-1023 1 -1864 -1 -1867 -5z m3274 -263 c65 -18 73 -97 12 -121 -45 -17 -177 -8 -202 15 -37 33 -17 100 32 109 43 8 122 7 158 -3z m317 -62 l3 -68 -66 0 -65 0 0 64 c0 73 3 76 75 73 l50 -2 3 -67z m-682 41 c18 -20 19 -50 19 -909 0 -859 -1 -889 -19 -909 l-19 -21 -1290 0 -1291 0 -23 22 -23 21 0 887 c0 785 2 888 16 908 l15 22 1298 0 1298 0 19 -21z m523 -465 c96 -40 151 -118 159 -223 6 -89 -21 -154 -90 -216 -55 -50 -97 -65 -178 -65 -109 0 -214 77 -244 181 -21 70 -20 107 4 173 32 85 104 145 205 170 29 7 105 -4 144 -20z m4 -743 c117 -75 120 -252 5 -328 -36 -24 -52 -28 -114 -28 -58 0 -78 4 -100 21 -106 79 -126 202 -47 294 45 52 82 69 154 70 44 0 64 -6 102 -29z"/>
 <path d="M3958 3014 c-56 -30 -79 -126 -44 -179 23 -35 74 -65 111 -65 65 0 135 66 135 128 0 38 -26 88 -58 111 -36 25 -103 28 -144 5z"/>
 <path d="M3981 2274 c-27 -34 -26 -55 2 -82 29 -27 61 -28 87 -2 39 39 11 110 -44 110 -15 0 -33 -11 -45 -26z"/>
 <path d="M2694 1347 c-3 -13 -4 -41 -2 -63 l3 -39 63 -3 62 -3 0 66 0 65 -60 0 c-54 0 -60 -2 -66 -23z"/>
 </g>
<g id="layer104" fill="#ecae58" stroke="none">
 <path d="M697 3893 c-9 -8 -9 -2355 -1 -2377 6 -15 179 -16 1865 -16 l1859 0 5 23 c3 12 4 551 3 1197 l-3 1175 -1861 3 c-1023 1 -1864 -1 -1867 -5z m2914 -282 c18 -22 19 -52 19 -912 0 -876 0 -889 -20 -909 -20 -20 -33 -20 -1313 -20 -1154 0 -1295 2 -1315 16 l-22 15 0 899 0 899 26 20 27 21 1289 -2 1290 -3 19 -24z m394 4 c31 -30 32 -62 3 -92 -19 -21 -30 -23 -115 -23 -105 0 -133 15 -133 69 0 51 38 71 137 71 76 0 86 -2 108 -25z m293 -47 l3 -68 -71 0 -70 0 0 70 0 71 68 -3 67 -3 3 -67z m-168 -419 c137 -62 200 -221 141 -355 -28 -61 -63 -99 -121 -129 -93 -46 -186 -41 -274 18 -94 62 -138 186 -106 297 22 75 95 150 175 178 50 18 136 14 185 -9z m-37 -725 c106 -36 164 -161 121 -262 -85 -204 -387 -148 -387 73 0 89 51 159 139 190 51 18 71 18 127 -1z"/>
 <path d="M3958 3014 c-56 -30 -79 -126 -44 -179 23 -35 74 -65 111 -65 65 0 135 66 135 128 0 38 -26 88 -58 111 -36 25 -103 28 -144 5z"/>
 <path d="M3981 2274 c-27 -34 -26 -55 2 -82 29 -27 61 -28 87 -2 39 39 11 110 -44 110 -15 0 -33 -11 -45 -26z"/>
 </g>
<g id="layer105" fill="#a1a1a1" stroke="none">
 <path d="M697 3893 c-9 -8 -9 -2355 -1 -2377 6 -15 179 -16 1865 -16 l1859 0 5 23 c3 12 4 551 3 1197 l-3 1175 -1861 3 c-1023 1 -1864 -1 -1867 -5z m2914 -282 c18 -22 19 -52 19 -912 0 -876 0 -889 -20 -909 -20 -20 -33 -20 -1313 -20 -1154 0 -1295 2 -1315 16 l-22 15 0 899 0 899 26 20 27 21 1289 -2 1290 -3 19 -24z m394 4 c31 -30 32 -62 3 -92 -19 -21 -30 -23 -115 -23 -105 0 -133 15 -133 69 0 51 38 71 137 71 76 0 86 -2 108 -25z m293 -47 l3 -68 -71 0 -70 0 0 70 0 71 68 -3 67 -3 3 -67z m-168 -419 c137 -62 200 -221 141 -355 -28 -61 -63 -99 -121 -129 -93 -46 -186 -41 -274 18 -94 62 -138 186 -106 297 22 75 95 150 175 178 50 18 136 14 185 -9z m-37 -725 c106 -36 164 -161 121 -262 -85 -204 -387 -148 -387 73 0 89 51 159 139 190 51 18 71 18 127 -1z"/>
 </g>

</svg>