<!DOCTYPE svg PUBLIC "-//W3C//DTD SVG 20010904//EN" "http://www.w3.org/TR/2001/REC-SVG-20010904/DTD/svg10.dtd">
<svg version="1.0" xmlns="http://www.w3.org/2000/svg" width="512px" height="512px" viewBox="0 0 5120 5120" preserveAspectRatio="xMidYMid meet">
<g id="layer101" fill="#000000" stroke="none">
 <path d="M944 4644 c-17 -8 -130 -115 -251 -237 -199 -200 -221 -226 -228 -263 -20 -126 95 -234 214 -198 24 7 53 22 65 33 12 12 27 21 32 21 5 0 137 -128 293 -284 280 -281 283 -284 268 -307 -9 -13 -19 -44 -23 -67 -4 -24 -17 -56 -30 -72 -24 -27 -24 -28 -66 -13 -134 46 -255 -69 -218 -207 9 -35 34 -67 127 -161 118 -120 159 -149 218 -152 18 -1 31 -5 29 -9 -3 -4 1 -29 7 -55 11 -41 29 -65 123 -161 123 -126 153 -148 214 -158 37 -6 42 -10 42 -32 0 -51 42 -110 158 -225 151 -147 190 -161 295 -104 70 39 100 119 73 197 -14 42 -14 46 5 66 12 13 39 25 63 28 23 4 56 15 73 26 l32 19 111 -117 c230 -241 277 -352 344 -812 15 -96 33 -218 41 -270 41 -264 41 -275 15 -322 -37 -64 -35 -165 3 -230 15 -26 49 -62 75 -80 44 -31 52 -33 132 -33 79 0 88 2 130 32 25 17 332 319 682 670 442 443 642 649 653 675 8 21 15 67 15 105 0 117 -59 197 -168 229 -63 19 -113 12 -179 -22 l-46 -25 -136 21 c-75 11 -176 27 -226 35 -49 8 -188 23 -308 35 -215 20 -292 37 -355 78 -22 14 -21 16 90 131 131 135 170 196 198 305 25 100 25 147 -1 249 -23 89 -68 173 -122 226 l-35 33 21 37 c33 54 31 160 -3 221 -65 115 -213 162 -318 99 l-35 -20 -24 23 -23 24 19 37 c59 116 13 259 -102 319 -59 31 -167 32 -218 2 l-37 -22 -25 25 -25 25 22 37 c30 51 29 159 -2 218 -60 115 -203 161 -319 102 l-37 -19 -36 34 c-163 157 -425 182 -620 59 -30 -20 -111 -91 -180 -159 l-126 -124 -93 94 -94 94 27 29 c75 80 50 220 -47 267 -44 20 -112 20 -153 0z m976 -637 c0 -1 -52 -54 -115 -117 l-115 -115 0 43 c0 40 5 49 73 118 68 69 76 74 115 74 23 0 42 -1 42 -3z m273 -499 l-117 -118 -23 22 -24 22 118 118 117 118 23 -22 24 -22 -118 -118z m482 -248 c19 -21 18 -22 -98 -138 l-117 -117 -22 23 -23 22 115 115 c63 63 117 115 121 115 3 0 14 -9 24 -20z m-955 -243 c-10 -18 -22 -50 -26 -71 -4 -22 -18 -49 -30 -61 -23 -22 -26 -22 -79 -7 -37 10 -55 21 -55 31 -1 9 -7 33 -14 53 -13 35 -12 39 10 61 12 12 45 29 72 36 28 7 58 18 69 26 16 12 21 11 45 -12 l26 -25 -18 -31z m1314 -184 c-4 -15 -48 -69 -97 -120 l-90 -93 -24 22 -24 22 113 113 c85 86 114 109 120 98 5 -8 5 -27 2 -42z m-935 -147 c21 -22 22 -26 8 -48 -9 -12 -21 -44 -27 -70 -7 -25 -23 -56 -35 -68 -21 -20 -28 -21 -56 -11 -18 6 -42 11 -54 11 -19 0 -23 7 -29 46 -3 26 -11 53 -16 59 -16 19 40 61 90 69 24 4 52 13 63 21 28 19 30 19 56 -9z"/>
 </g>
<g id="layer102" fill="#c6640a" stroke="none">
 <path d="M781 4352 c-188 -185 -211 -211 -211 -240 0 -38 30 -72 64 -72 16 0 46 20 86 57 l61 56 355 -354 c195 -195 354 -359 354 -365 0 -6 -12 -21 -26 -35 -31 -28 -54 -77 -54 -116 0 -21 -19 -47 -77 -106 l-76 -78 -31 30 c-30 29 -49 36 -88 33 -26 -3 -50 -55 -39 -84 5 -13 58 -71 119 -130 117 -116 142 -128 182 -88 30 30 25 69 -12 107 l-32 33 75 79 c45 48 82 79 94 79 65 0 78 4 121 44 l45 42 96 -97 97 -96 -42 -45 c-40 -43 -44 -56 -44 -121 0 -12 -31 -49 -79 -94 l-79 -75 -33 32 c-38 37 -77 42 -107 12 -40 -40 -28 -65 92 -187 96 -96 116 -113 143 -113 69 0 89 70 36 124 l-31 32 77 77 c60 60 83 77 105 77 41 0 89 23 123 59 l29 31 93 -92 c51 -51 93 -98 93 -104 0 -6 -12 -21 -26 -35 -35 -33 -54 -71 -54 -111 0 -27 -12 -45 -77 -110 l-77 -77 -38 34 c-21 19 -47 35 -57 35 -27 0 -59 -30 -67 -63 -6 -26 3 -38 113 -148 128 -128 152 -140 193 -99 29 29 26 71 -10 105 -16 16 -30 34 -30 40 0 6 33 43 73 83 64 64 77 72 110 72 45 0 71 12 115 53 l32 31 56 -54 c101 -98 259 -275 296 -331 80 -120 135 -258 164 -411 9 -46 42 -258 74 -473 l59 -390 -25 -26 c-70 -73 -39 -192 58 -221 80 -24 61 -41 766 664 l652 653 0 56 c0 63 -20 98 -70 124 -54 28 -95 19 -170 -36 -12 -8 -84 -1 -294 30 -154 23 -356 48 -450 56 -94 8 -198 22 -231 30 -72 19 -211 87 -257 126 l-33 27 156 159 c86 87 165 174 176 193 64 107 70 270 15 382 -17 35 -62 96 -100 138 l-69 75 37 43 c21 23 40 55 43 71 9 42 -9 93 -44 127 -26 25 -38 29 -89 29 -55 0 -62 -3 -100 -40 l-40 -39 -97 96 -97 97 37 40 c20 22 39 52 43 66 17 68 -25 143 -92 165 -46 16 -102 -2 -144 -45 l-34 -35 -98 97 -97 97 38 41 c21 23 42 56 46 74 14 67 -40 147 -108 158 -51 8 -82 -2 -127 -43 l-40 -36 -77 71 c-90 83 -154 118 -247 133 -83 14 -164 1 -245 -39 -62 -30 -290 -245 -344 -323 -16 -25 -32 -47 -34 -50 -2 -2 -82 74 -178 170 l-174 174 54 57 c66 69 74 106 33 142 -43 36 -57 26 -277 -191z m1184 -251 c22 -10 56 -35 75 -55 l34 -37 -191 -191 -192 -192 -27 24 c-50 47 -79 110 -78 170 0 68 17 101 95 184 100 107 193 139 284 97z m308 -663 c-103 -104 -192 -188 -198 -188 -13 0 -185 172 -185 185 0 5 84 94 187 197 l188 188 97 -97 98 -98 -187 -187z m477 -103 l95 -95 -193 -193 -192 -192 -97 98 -98 97 190 190 c104 104 192 190 195 190 3 0 48 -43 100 -95z m371 -387 c25 -49 25 -127 0 -176 -11 -20 -78 -95 -150 -167 l-131 -130 -90 90 c-49 49 -90 94 -90 100 0 5 84 94 187 197 l187 188 34 -33 c19 -17 42 -49 53 -69z"/>
 </g>
<g id="layer103" fill="#d3953f" stroke="none">
 <path d="M970 4533 c-14 -10 -110 -102 -214 -205 l-189 -187 6 -37 c8 -46 16 -55 57 -58 27 -2 43 7 92 53 l59 54 355 -354 c195 -195 354 -359 354 -365 0 -5 -13 -23 -30 -39 -35 -34 -54 -86 -46 -126 4 -20 2 -29 -8 -29 -7 0 -43 -31 -80 -70 l-67 -69 -46 35 c-25 19 -51 32 -57 29 -6 -3 -18 -8 -27 -11 -23 -8 -41 -52 -31 -71 16 -27 216 -225 236 -232 80 -31 112 71 40 128 l-23 18 82 82 c44 45 88 81 97 80 51 -5 73 4 116 43 l45 42 96 -97 97 -96 -42 -45 c-39 -43 -48 -65 -43 -116 1 -9 -35 -53 -81 -98 l-82 -82 -25 31 c-21 25 -34 31 -65 31 -46 0 -57 -10 -58 -51 -1 -24 10 -42 49 -83 95 -101 180 -178 196 -178 29 0 48 12 62 40 12 24 12 30 -2 51 -9 13 -19 26 -22 29 -34 30 -32 36 46 113 60 60 83 77 105 77 41 0 89 23 123 59 l29 31 93 -92 c51 -51 93 -98 93 -104 0 -6 -12 -21 -26 -35 -35 -33 -54 -71 -54 -111 0 -28 -12 -45 -78 -111 l-78 -78 -39 36 c-21 19 -46 35 -55 35 -25 0 -57 -28 -64 -56 -7 -28 25 -67 178 -214 57 -55 66 -60 95 -54 61 12 65 69 10 125 l-31 32 78 78 c71 71 82 79 117 79 45 0 71 12 115 53 l32 31 56 -54 c101 -98 259 -275 296 -331 80 -120 135 -258 164 -411 9 -46 42 -258 74 -473 l59 -390 -25 -26 c-70 -73 -39 -192 58 -221 80 -24 61 -41 766 664 l652 653 0 56 c0 42 -5 63 -21 83 -56 71 -152 74 -213 7 -12 -14 -26 -19 -38 -15 -10 3 -35 8 -56 10 -47 6 -77 10 -127 18 -107 16 -151 23 -205 30 -14 2 -43 7 -65 10 -58 10 -123 17 -175 21 -68 4 -192 15 -220 19 -14 2 -45 7 -69 10 -45 7 -65 14 -161 61 -80 38 -88 43 -175 114 -96 78 -158 134 -288 260 l-98 95 192 192 192 192 30 -21 c38 -28 83 -121 81 -167 -3 -81 -14 -97 -133 -215 l-116 -114 25 -27 c31 -33 166 -144 176 -144 15 0 260 247 278 280 50 92 64 146 61 237 -1 49 -7 97 -12 108 -5 11 -20 41 -32 67 -13 25 -53 79 -91 120 l-67 73 37 43 c21 23 40 55 43 71 9 42 -9 93 -44 127 -26 25 -38 29 -89 29 -55 0 -62 -3 -100 -40 l-40 -39 -97 96 -97 97 37 40 c20 22 39 52 43 66 17 68 -25 143 -92 165 -46 16 -102 -2 -144 -45 l-34 -35 -98 97 -97 97 38 41 c21 23 42 56 46 74 14 67 -40 147 -108 158 -51 8 -82 -2 -127 -43 l-40 -36 -70 65 c-65 60 -88 75 -190 121 -85 38 -234 24 -330 -31 -54 -31 -280 -250 -323 -313 -16 -25 -32 -47 -34 -50 -2 -2 -82 74 -178 170 l-175 175 48 50 c66 69 77 96 51 129 -24 31 -63 34 -99 9z m700 -262 c-63 -65 -119 -119 -125 -120 -5 0 44 53 110 119 66 66 122 120 124 120 3 0 -46 -53 -109 -119z m279 -162 c38 -11 121 -79 121 -99 0 -3 -85 -90 -190 -195 l-189 -189 -27 24 c-70 66 -96 155 -69 235 20 58 103 150 181 200 70 46 87 48 173 24z m324 -672 c-104 -103 -193 -186 -200 -185 -7 2 -53 43 -103 92 l-91 90 193 193 193 193 97 -97 98 -98 -187 -188z m-763 257 c12 -19 21 -37 18 -39 -2 -2 -14 14 -26 36 -28 49 -22 52 8 3z m75 -94 c21 -22 37 -40 34 -40 -3 0 -23 18 -44 40 -21 22 -37 40 -34 40 3 0 23 -18 44 -40z m1165 -265 l95 -95 -193 -193 -192 -192 -97 98 -98 97 190 190 c104 104 192 190 195 190 3 0 48 -43 100 -95z m-835 -65 c49 -49 87 -90 85 -90 -3 0 -46 41 -95 90 -49 50 -87 90 -85 90 3 0 46 -40 95 -90z m385 -385 c52 -52 92 -95 90 -95 -3 0 -48 43 -100 95 -52 52 -92 95 -90 95 3 0 48 -43 100 -95z m415 -415 c66 -66 117 -120 115 -120 -3 0 -59 54 -125 120 -66 66 -117 120 -115 120 3 0 59 -54 125 -120z m175 -185 c19 -19 32 -35 29 -35 -3 0 -20 16 -39 35 -19 19 -32 35 -29 35 3 0 20 -16 39 -35z m101 -127 c15 -28 5 -21 -21 15 -15 20 -17 27 -6 18 9 -8 22 -23 27 -33z m789 -673 c-324 -324 -517 -510 -521 -503 -4 7 -5 16 -2 21 3 5 8 4 12 -2 4 -6 225 208 511 494 278 278 507 505 510 505 3 0 -227 -232 -510 -515z"/>
 </g>
<g id="layer104" fill="#ecae58" stroke="none">
 <path d="M1699 4373 c-82 -40 -340 -302 -374 -380 -1 -2 -81 77 -178 175 l-177 177 -95 -95 -95 -95 362 -362 361 -361 -33 -28 c-39 -34 -58 -74 -52 -114 3 -25 9 -30 31 -30 14 0 31 -4 37 -8 18 -12 36 -52 30 -68 -8 -22 23 -33 61 -21 18 6 52 26 74 45 l41 35 95 -96 96 -95 -35 -41 c-53 -63 -71 -150 -28 -136 20 6 59 -10 72 -29 4 -6 8 -23 8 -37 0 -22 5 -28 29 -31 39 -6 61 4 106 46 l39 37 93 -93 c51 -51 93 -98 93 -104 0 -6 -11 -21 -25 -34 -51 -48 -69 -132 -30 -138 52 -8 62 -13 74 -38 6 -14 9 -35 6 -45 -5 -16 -1 -19 29 -19 42 0 70 14 105 53 14 15 30 27 36 27 11 0 170 -159 266 -266 132 -146 215 -319 255 -526 9 -46 42 -258 74 -473 l59 -390 -21 -23 c-35 -36 -48 -86 -35 -130 23 -74 99 -116 169 -93 24 8 216 194 680 659 691 692 668 665 653 752 -12 71 -114 120 -180 86 -11 -6 -266 -256 -567 -555 -483 -481 -547 -542 -551 -520 -6 26 -37 239 -42 279 -4 31 -29 191 -57 365 -59 371 -121 489 -411 782 l-170 172 43 48 c25 26 185 188 356 358 216 215 317 322 328 349 24 57 8 107 -46 146 -54 40 -102 40 -154 1 -21 -16 -190 -180 -374 -365 -184 -185 -340 -336 -345 -336 -6 0 -52 42 -103 93 l-92 92 341 340 c187 187 353 358 368 380 68 98 -12 230 -127 209 -32 -6 -86 -56 -405 -373 l-367 -366 -97 98 -98 97 367 367 c399 401 397 398 365 476 -36 86 -139 109 -214 48 -21 -16 -189 -181 -373 -366 l-335 -336 -46 51 c-49 53 -96 132 -107 178 -4 15 -7 72 -6 127 0 146 20 182 193 358 74 75 128 137 120 137 -8 0 -40 -12 -70 -27z"/>
 </g>
<g id="layer105" fill="#ffc872" stroke="none">
 <path d="M1699 4373 c-39 -19 -94 -67 -200 -172 -160 -160 -190 -207 -209 -324 -21 -134 19 -245 134 -364 l75 -78 57 57 57 56 -46 52 c-48 56 -94 133 -105 178 -4 15 -7 72 -6 127 0 146 20 182 193 358 74 75 128 137 120 137 -8 0 -40 -12 -70 -27z"/>
 <path d="M1752 3307 c-28 -29 -52 -57 -52 -63 0 -5 42 -51 93 -102 l93 -92 57 58 57 57 -98 98 -98 97 -52 -53z"/>
 <path d="M2130 2915 l-55 -55 98 -98 97 -97 57 58 58 57 -95 95 c-52 52 -97 95 -100 95 -3 0 -30 -25 -60 -55z"/>
 <path d="M2517 2532 l-57 -58 56 -54 c101 -98 259 -275 296 -331 79 -119 134 -257 163 -406 9 -43 40 -244 70 -448 30 -203 58 -381 61 -394 5 -22 10 -18 79 51 l74 74 -9 64 c-4 36 -13 92 -18 125 -6 33 -13 83 -17 110 -6 51 -17 125 -56 365 -61 379 -131 510 -431 808 l-153 152 -58 -58z"/>
 </g>

</svg>