<!DOCTYPE svg PUBLIC "-//W3C//DTD SVG 20010904//EN" "http://www.w3.org/TR/2001/REC-SVG-20010904/DTD/svg10.dtd">
<svg version="1.0" xmlns="http://www.w3.org/2000/svg" width="512px" height="512px" viewBox="0 0 5120 5120" preserveAspectRatio="xMidYMid meet">
<g id="layer101" fill="#000000" stroke="none">
 <path d="M725 4659 c-61 -19 -92 -61 -101 -140 l-6 -57 -55 -4 c-62 -5 -100 -29 -125 -79 -17 -31 -18 -82 -18 -612 0 -514 2 -583 16 -613 23 -48 62 -72 128 -80 52 -6 56 -9 56 -33 0 -86 45 -152 115 -170 57 -14 423 -14 480 0 70 18 115 84 115 172 0 22 4 27 24 27 l24 0 4 -152 c3 -131 6 -158 23 -186 24 -40 87 -72 142 -72 l40 0 6 -59 c5 -64 24 -100 65 -128 23 -15 53 -18 219 -21 l192 -4 3 -221 c3 -196 5 -226 22 -253 25 -41 64 -64 126 -71 l50 -6 0 -68 0 -67 -37 10 c-22 6 -143 8 -312 6 -314 -5 -356 -13 -469 -88 -100 -67 -159 -154 -193 -285 -28 -106 -27 -421 1 -524 34 -121 78 -190 167 -260 113 -88 173 -101 467 -101 210 0 250 3 310 20 70 20 86 19 86 -4 0 -22 57 -67 96 -77 50 -11 298 -11 348 0 39 10 96 55 96 77 0 23 16 24 86 4 60 -17 100 -20 310 -20 294 0 354 13 467 101 89 70 133 139 167 260 28 103 29 418 1 524 -34 131 -93 218 -193 285 -113 75 -155 83 -469 88 -169 2 -290 0 -312 -6 l-37 -10 0 67 0 68 50 6 c62 7 101 30 126 71 17 27 19 57 22 253 l3 221 192 4 c166 3 196 6 219 21 41 28 60 64 65 128 l6 59 40 0 c55 0 118 32 142 72 17 28 20 55 23 186 l4 152 24 0 c19 0 24 -5 24 -26 0 -88 43 -154 115 -173 52 -14 423 -14 480 0 70 18 115 84 115 170 0 24 4 27 56 33 66 8 105 32 128 80 14 30 16 99 16 613 0 530 -1 581 -18 612 -25 50 -63 74 -125 79 l-55 4 -6 56 c-8 66 -28 103 -70 128 -27 17 -57 19 -246 22 -118 2 -234 1 -258 -3 -79 -12 -132 -84 -132 -179 l0 -26 -1230 0 -1230 0 0 28 c0 83 -46 154 -109 172 -45 12 -455 11 -496 -1z"/>
 </g>
<g id="layer102" fill="#d8712d" stroke="none">
 <path d="M770 4425 l0 -105 -105 0 -105 0 0 -550 0 -549 103 -3 102 -3 3 -102 3 -103 204 0 204 0 3 103 3 102 159 3 c108 2 163 -1 172 -9 11 -9 14 -53 14 -210 l0 -199 100 0 99 0 3 -102 3 -103 243 -3 243 -2 -1 -273 -1 -272 100 -3 101 -3 0 -309 0 -310 -100 0 -99 0 -3 103 -3 102 -250 3 c-341 4 -398 -9 -492 -111 -73 -79 -83 -125 -83 -372 0 -191 2 -220 20 -269 29 -76 88 -139 167 -178 l67 -33 201 -3 c289 -6 359 9 463 97 49 40 93 71 104 71 4 0 9 -53 10 -118 l3 -117 135 0 135 0 3 117 c1 65 6 118 10 118 11 0 55 -31 104 -71 104 -88 174 -103 463 -97 l201 3 67 33 c79 39 138 102 167 178 18 49 20 78 20 269 0 247 -10 293 -83 372 -94 102 -151 115 -492 111 l-250 -3 -3 -103 -3 -102 -99 0 -100 0 0 310 0 309 101 3 100 3 -1 272 -1 273 243 2 243 3 3 103 3 102 99 0 100 0 0 199 c0 157 3 201 14 210 9 8 64 11 172 9 l159 -3 3 -102 3 -103 204 0 204 0 3 103 3 102 103 3 102 3 0 549 0 550 -105 0 -105 0 0 105 0 105 -205 0 -205 0 0 -105 0 -105 -1380 0 -1380 0 0 105 0 105 -205 0 -205 0 0 -105z"/>
 </g>
<g id="layer103" fill="#bf5814" stroke="none">
 <path d="M770 4425 l0 -105 -105 0 -105 0 0 -550 0 -549 103 -3 102 -3 3 -102 3 -103 204 0 204 0 3 103 3 102 159 3 c108 2 163 -1 172 -9 11 -9 14 -53 14 -210 l0 -199 100 0 99 0 3 -102 3 -103 243 -3 243 -2 -1 -273 -1 -272 100 -3 101 -3 0 -304 0 -305 140 0 140 0 0 305 0 304 101 3 100 3 -1 272 -1 273 243 2 243 3 3 103 3 102 99 0 100 0 0 199 c0 157 3 201 14 210 9 8 64 11 172 9 l159 -3 3 -102 3 -103 204 0 204 0 3 103 3 102 103 3 102 3 0 549 0 550 -105 0 -105 0 0 105 0 105 -205 0 -205 0 0 -105 0 -105 -1380 0 -1380 0 0 105 0 105 -205 0 -205 0 0 -105z"/>
 <path d="M2515 864 c-11 -3 -37 -10 -58 -15 l-38 -10 3 -122 3 -122 135 0 135 0 3 122 3 122 -39 11 c-51 13 -122 20 -147 14z"/>
 </g>
<g id="layer104" fill="#d3953f" stroke="none">
 <path d="M770 4425 l0 -105 -105 0 -105 0 0 -550 0 -549 103 -3 102 -3 3 -102 3 -103 204 0 204 0 3 103 3 102 159 3 c108 2 163 -1 172 -9 11 -9 14 -53 14 -210 l0 -199 100 0 99 0 3 -102 3 -103 243 -3 243 -2 -1 -273 -1 -272 341 0 341 0 -1 272 -1 273 243 2 243 3 3 103 3 102 99 0 100 0 0 199 c0 157 3 201 14 210 9 8 64 11 172 9 l159 -3 3 -102 3 -103 204 0 204 0 3 103 3 102 103 3 102 3 0 549 0 550 -105 0 -105 0 0 105 0 105 -205 0 -205 0 0 -105 0 -105 -1380 0 -1380 0 0 105 0 105 -205 0 -205 0 0 -105z"/>
 </g>
<g id="layer105" fill="#ecae58" stroke="none">
 <path d="M560 3770 l0 -550 100 0 100 0 -2 548 -3 547 -97 3 -98 3 0 -551z"/>
 <path d="M1195 4308 c-3 -7 -6 -255 -7 -551 l-3 -537 173 0 172 0 0 -211 0 -210 103 2 102 2 3 -105 3 -104 819 0 819 0 3 104 3 105 103 -2 102 -2 0 210 0 211 173 0 172 0 0 542 c0 351 -4 546 -10 550 -5 4 -621 8 -1368 8 -1077 0 -1359 -3 -1362 -12z"/>
 <path d="M4367 4313 c-4 -3 -7 -251 -7 -550 l0 -543 100 0 100 0 0 550 0 550 -93 0 c-52 0 -97 -3 -100 -7z"/>
 </g>
<g id="layer106" fill="#ffc872" stroke="none">
 <path d="M1530 3005 l0 -205 1030 0 1030 0 0 205 0 205 -1030 0 -1030 0 0 -205z"/>
 </g>

</svg>