<!DOCTYPE svg PUBLIC "-//W3C//DTD SVG 20010904//EN" "http://www.w3.org/TR/2001/REC-SVG-20010904/DTD/svg10.dtd">
<svg version="1.0" xmlns="http://www.w3.org/2000/svg" width="512px" height="512px" viewBox="0 0 5120 5120" preserveAspectRatio="xMidYMid meet">
<g id="layer101" fill="#000000" stroke="none">
 <path d="M2170 4545 c-142 -30 -179 -41 -290 -82 -289 -107 -531 -263 -750 -484 -264 -264 -439 -565 -535 -922 -46 -167 -55 -255 -55 -515 0 -230 1 -249 29 -380 91 -422 256 -727 560 -1033 296 -298 612 -472 1036 -571 94 -22 119 -23 405 -22 298 0 307 1 415 28 256 64 443 140 630 256 196 122 409 314 550 495 189 242 297 469 383 805 27 103 27 110 27 425 0 301 -1 326 -24 425 -86 379 -263 708 -530 983 -126 131 -301 271 -426 343 -110 63 -151 85 -220 116 -118 53 -276 103 -417 132 -118 25 -141 26 -404 25 -250 -1 -290 -3 -384 -24z"/>
 </g>
<g id="layer102" fill="#ff4b4b" stroke="none">
 <path d="M2395 4436 c-66 -29 -64 -34 55 -154 l110 -111 97 100 c109 113 129 138 117 148 -36 31 -318 44 -379 17z"/>
 <path d="M2798 4293 c-72 -71 -138 -140 -149 -155 l-19 -26 160 -164 159 -163 161 161 c88 89 160 167 160 173 0 19 -262 272 -297 287 -18 8 -35 14 -39 14 -4 0 -65 -57 -136 -127z"/>
 <path d="M2001 4255 l-156 -155 162 -162 163 -163 165 165 166 165 -156 153 c-85 83 -163 152 -172 152 -9 0 -87 -70 -172 -155z"/>
 <path d="M1805 4296 c-27 -13 -58 -32 -68 -43 -17 -20 -17 -21 13 -53 l31 -34 61 61 c41 42 59 66 55 77 -9 22 -33 20 -92 -8z"/>
 <path d="M3257 4313 c-16 -16 -4 -44 38 -89 l46 -48 31 31 c27 28 30 34 18 48 -24 29 -120 71 -133 58z"/>
 <path d="M1533 4148 c-77 -52 -268 -201 -278 -218 -3 -4 27 -41 66 -81 l71 -72 166 166 166 166 -48 46 c-26 25 -52 45 -56 45 -5 0 -44 -24 -87 -52z"/>
 <path d="M3447 4160 l-40 -41 79 -82 c43 -45 116 -120 162 -166 l84 -84 69 69 c38 38 69 71 69 74 0 22 -338 270 -367 270 -9 0 -33 -18 -56 -40z"/>
 <path d="M2408 3888 c-86 -90 -160 -167 -164 -171 -4 -4 64 -80 151 -167 l160 -160 162 162 c90 90 163 168 163 175 0 10 -304 323 -314 323 -1 0 -73 -73 -158 -162z"/>
 <path d="M3176 3890 l-159 -159 101 -108 c55 -59 128 -135 162 -168 l61 -60 160 162 c87 89 159 165 159 170 0 12 -305 323 -317 323 -5 0 -80 -72 -167 -160z"/>
 <path d="M1615 3870 l-160 -160 163 -162 162 -163 165 165 166 165 -160 158 c-88 86 -164 157 -168 157 -5 0 -80 -72 -168 -160z"/>
 <path d="M3857 3792 l-68 -68 167 -163 166 -163 44 43 c24 24 44 48 44 55 0 16 -77 129 -154 227 -97 122 -111 137 -122 137 -5 0 -40 -31 -77 -68z"/>
 <path d="M1129 3793 c-54 -57 -172 -220 -202 -278 -15 -30 -14 -31 30 -79 l44 -50 166 166 166 166 -68 63 c-37 35 -71 65 -74 67 -4 1 -32 -23 -62 -55z"/>
 <path d="M2786 3500 l-158 -160 70 -77 c39 -43 111 -118 162 -168 l90 -90 160 161 c88 88 160 165 160 171 0 14 -302 323 -316 323 -6 0 -81 -72 -168 -160z"/>
 <path d="M3566 3500 l-158 -160 158 -164 158 -165 161 157 c88 85 161 161 163 168 3 13 -301 324 -316 324 -5 0 -79 -72 -166 -160z"/>
 <path d="M1231 3486 l-164 -165 161 -163 161 -163 161 160 c88 88 160 165 160 170 0 12 -297 325 -308 325 -4 0 -81 -74 -171 -164z"/>
 <path d="M2005 3480 l-160 -160 163 -162 162 -163 165 165 166 165 -160 158 c-87 86 -163 157 -168 157 -4 0 -80 -72 -168 -160z"/>
 <path d="M4212 3367 l-32 -33 32 -30 c88 -79 87 -79 103 -63 14 14 13 21 -9 70 -13 30 -32 62 -43 71 -19 17 -21 16 -51 -15z"/>
 <path d="M823 3315 c-29 -61 -33 -78 -23 -90 15 -18 22 -14 90 48 l53 48 -33 34 c-19 19 -38 35 -42 35 -5 0 -25 -34 -45 -75z"/>
 <path d="M2469 3172 c-52 -53 -126 -130 -164 -170 l-69 -73 159 -159 160 -160 153 153 c84 83 158 160 163 170 8 14 -3 31 -60 94 -39 42 -111 114 -159 159 l-89 83 -94 -97z"/>
 <path d="M3176 3110 l-159 -159 38 -43 c21 -24 94 -98 162 -166 l125 -123 157 162 c86 89 157 167 159 174 3 12 -301 315 -316 315 -4 0 -79 -72 -166 -160z"/>
 <path d="M3952 3107 l-162 -162 165 -165 165 -165 116 115 c63 63 134 136 156 163 l40 48 -25 37 c-31 46 -268 292 -282 292 -6 0 -83 -73 -173 -163z"/>
 <path d="M851 3103 c-83 -86 -151 -162 -151 -170 0 -14 47 -67 199 -222 l102 -105 167 168 167 167 -163 159 c-90 88 -165 160 -167 160 -2 0 -71 -71 -154 -157z"/>
 <path d="M1620 3095 l-165 -165 163 -162 162 -163 160 160 c88 88 160 165 160 171 0 11 -297 324 -309 324 -3 0 -80 -74 -171 -165z"/>
 <path d="M2785 2720 l-158 -161 34 -37 c19 -20 90 -94 159 -165 l124 -127 168 167 168 167 -161 158 c-88 87 -164 158 -168 158 -4 0 -79 -72 -166 -160z"/>
 <path d="M3565 2720 l-159 -159 29 -33 c17 -18 88 -93 160 -166 l130 -132 162 162 c90 90 163 167 163 171 0 9 -311 317 -320 317 -3 0 -77 -72 -165 -160z"/>
 <path d="M1230 2705 l-165 -165 163 -162 162 -163 160 160 c88 88 160 165 160 172 0 12 -297 323 -309 323 -3 0 -80 -74 -171 -165z"/>
 <path d="M2010 2705 l-165 -165 163 -163 162 -162 160 161 c88 88 160 165 160 170 0 12 -298 324 -309 324 -3 0 -80 -74 -171 -165z"/>
 <path d="M4302 2678 l-122 -123 48 -48 c26 -27 82 -81 126 -120 108 -98 108 -98 104 175 -4 280 2 275 -156 116z"/>
 <path d="M681 2766 c-17 -20 -11 -430 6 -447 9 -9 40 15 135 109 l123 122 -120 115 c-66 63 -122 115 -126 115 -4 0 -12 -6 -18 -14z"/>
 <path d="M2401 2325 l-164 -165 49 -53 c61 -65 234 -237 258 -257 18 -14 30 -3 182 155 l163 170 -157 158 c-86 86 -159 157 -163 157 -3 0 -79 -74 -168 -165z"/>
 <path d="M3175 2330 l-159 -160 49 -53 c28 -28 99 -103 160 -165 l110 -112 167 167 168 168 -161 157 c-88 87 -164 158 -168 158 -4 0 -78 -72 -166 -160z"/>
 <path d="M3952 2327 l-162 -163 158 -157 c87 -86 163 -157 169 -157 13 0 313 306 313 320 0 18 -292 320 -309 320 -3 0 -79 -73 -169 -163z"/>
 <path d="M870 2349 c-69 -72 -135 -146 -148 -164 -30 -42 -35 -34 144 -216 l137 -140 166 165 166 166 -160 160 c-88 88 -165 160 -171 160 -5 0 -66 -59 -134 -131z"/>
 <path d="M1619 2319 c-85 -88 -155 -164 -157 -168 -1 -3 70 -78 158 -166 l160 -160 160 161 c88 88 160 166 160 172 0 15 -303 322 -317 322 -6 0 -80 -72 -164 -161z"/>
 <path d="M2785 1940 l-160 -160 163 -162 162 -163 166 165 165 165 -161 158 c-88 86 -164 157 -168 157 -4 0 -79 -72 -167 -160z"/>
 <path d="M3565 1939 l-158 -160 49 -52 c27 -29 98 -103 159 -165 l110 -112 162 162 c90 90 163 167 163 173 0 11 -307 315 -319 315 -4 0 -79 -72 -166 -161z"/>
 <path d="M1226 1930 l-159 -159 111 -118 c61 -65 133 -140 161 -168 l51 -50 160 160 c88 88 160 165 160 170 0 14 -302 325 -316 325 -5 0 -81 -72 -168 -160z"/>
 <path d="M2006 1931 l-158 -159 21 -28 c12 -16 85 -92 161 -169 l140 -140 160 161 c88 88 160 165 160 172 0 13 -302 322 -316 322 -5 0 -81 -71 -168 -159z"/>
 <path d="M4235 1840 l-59 -60 34 -30 c19 -16 42 -28 50 -27 20 3 62 94 64 137 2 53 -22 48 -89 -20z"/>
 <path d="M803 1854 c-7 -18 33 -107 59 -131 17 -15 20 -15 43 7 14 13 25 28 25 35 0 15 -93 105 -108 105 -7 0 -15 -7 -19 -16z"/>
 <path d="M2400 1544 l-164 -165 163 -162 162 -162 159 165 c88 91 160 170 160 175 0 10 -300 315 -311 315 -3 0 -79 -75 -169 -166z"/>
 <path d="M3175 1550 l-160 -160 163 -162 162 -163 160 160 c88 88 160 163 160 168 0 10 -306 317 -317 317 -4 0 -80 -72 -168 -160z"/>
 <path d="M3947 1550 l-162 -159 75 -76 75 -76 44 48 c88 96 231 299 231 327 0 18 -74 96 -91 96 -6 0 -83 -72 -172 -160z"/>
 <path d="M951 1656 l-43 -44 55 -84 c51 -76 107 -149 195 -254 l33 -39 64 66 c36 37 65 71 65 76 0 11 -308 323 -319 323 -4 0 -26 -20 -50 -44z"/>
 <path d="M1616 1541 l-159 -159 41 -49 c22 -26 95 -102 161 -168 l121 -120 160 160 c88 88 160 165 160 172 0 15 -301 323 -316 323 -5 0 -81 -72 -168 -159z"/>
 <path d="M3561 1166 l-165 -165 53 -51 52 -51 41 23 c83 47 328 239 328 257 0 8 -133 151 -140 151 -3 0 -79 -74 -169 -164z"/>
 <path d="M2785 1160 l-159 -159 154 -156 c85 -85 161 -155 168 -155 8 0 86 71 174 157 l159 158 -162 157 c-88 87 -164 158 -168 158 -3 0 -78 -72 -166 -160z"/>
 <path d="M1320 1245 l-63 -66 24 -26 c64 -69 310 -243 343 -243 22 0 86 57 86 76 0 12 -306 324 -318 324 -5 0 -37 -29 -72 -65z"/>
 <path d="M2006 1151 l-158 -160 43 -51 c24 -28 92 -96 152 -152 101 -92 112 -100 141 -94 23 5 67 43 169 144 75 76 137 143 137 149 0 13 -304 323 -317 323 -5 0 -80 -72 -167 -159z"/>
 <path d="M3271 876 c-58 -62 -72 -88 -52 -101 13 -7 134 41 166 67 l25 20 -20 26 c-46 58 -52 57 -119 -12z"/>
 <path d="M2455 820 c-69 -70 -106 -115 -103 -126 5 -28 52 -36 208 -38 121 -1 150 2 177 16 17 10 35 22 38 28 8 13 -51 83 -140 163 l-72 66 -108 -109z"/>
 <path d="M1750 896 c-31 -34 -21 -52 45 -82 56 -26 85 -28 92 -7 4 11 -91 113 -106 113 -4 0 -18 -11 -31 -24z"/>
 </g>
<g id="layer103" fill="#73ff73" stroke="none">
 <path d="M2395 4436 c-66 -29 -64 -34 55 -154 l110 -111 97 100 c109 113 129 138 117 148 -36 31 -318 44 -379 17z"/>
 <path d="M2798 4293 c-72 -71 -138 -140 -149 -155 l-19 -26 160 -164 159 -163 161 161 c88 89 160 167 160 173 0 19 -262 272 -297 287 -18 8 -35 14 -39 14 -4 0 -65 -57 -136 -127z"/>
 <path d="M2001 4255 l-156 -155 162 -162 163 -163 165 165 166 165 -156 153 c-85 83 -163 152 -172 152 -9 0 -87 -70 -172 -155z"/>
 <path d="M1801 4275 c-66 -49 -73 -65 -39 -90 22 -15 25 -13 82 44 40 40 57 64 53 75 -10 25 -31 19 -96 -29z"/>
 <path d="M3257 4313 c-16 -16 -4 -44 38 -89 l46 -48 31 31 c27 28 30 34 18 48 -24 29 -120 71 -133 58z"/>
 <path d="M3447 4160 l-40 -41 79 -82 c43 -45 116 -120 162 -166 l84 -84 69 69 c38 38 69 71 69 74 0 22 -338 270 -367 270 -9 0 -33 -18 -56 -40z"/>
 <path d="M1604 4105 c-78 -82 -134 -150 -192 -232 -44 -62 -49 -73 -36 -84 13 -11 41 13 180 152 90 90 164 167 164 171 0 4 -14 17 -31 29 l-31 22 -54 -58z"/>
 <path d="M2408 3888 c-86 -90 -160 -167 -164 -171 -4 -4 64 -80 151 -167 l160 -160 162 162 c90 90 163 168 163 175 0 10 -304 323 -314 323 -1 0 -73 -73 -158 -162z"/>
 <path d="M3176 3890 l-159 -159 101 -108 c55 -59 128 -135 162 -168 l61 -60 160 162 c87 89 159 165 159 170 0 12 -305 323 -317 323 -5 0 -80 -72 -167 -160z"/>
 <path d="M1615 3870 l-160 -160 163 -162 162 -163 165 165 166 165 -160 158 c-88 86 -164 157 -168 157 -5 0 -80 -72 -168 -160z"/>
 <path d="M3857 3792 l-68 -68 167 -163 166 -163 44 43 c24 24 44 48 44 55 0 16 -77 129 -154 227 -97 122 -111 137 -122 137 -5 0 -40 -31 -77 -68z"/>
 <path d="M2786 3500 l-158 -160 70 -77 c39 -43 111 -118 162 -168 l90 -90 160 161 c88 88 160 165 160 171 0 14 -302 323 -316 323 -6 0 -81 -72 -168 -160z"/>
 <path d="M3566 3500 l-158 -160 158 -164 158 -165 161 157 c88 85 161 161 163 168 3 13 -301 324 -316 324 -5 0 -79 -72 -166 -160z"/>
 <path d="M1284 3538 c-107 -109 -113 -116 -138 -193 l-26 -80 135 -135 135 -135 160 160 c88 88 160 165 160 170 0 12 -298 325 -309 325 -3 0 -56 -51 -117 -112z"/>
 <path d="M2005 3480 l-160 -160 163 -162 162 -163 165 165 166 165 -160 158 c-87 86 -163 157 -168 157 -4 0 -80 -72 -168 -160z"/>
 <path d="M4212 3367 l-32 -33 32 -30 c88 -79 87 -79 103 -63 14 14 13 21 -9 70 -13 30 -32 62 -43 71 -19 17 -21 16 -51 -15z"/>
 <path d="M2469 3172 c-52 -53 -126 -130 -164 -170 l-69 -73 159 -159 160 -160 153 153 c84 83 158 160 163 170 8 14 -3 31 -60 94 -39 42 -111 114 -159 159 l-89 83 -94 -97z"/>
 <path d="M3176 3110 l-159 -159 38 -43 c21 -24 94 -98 162 -166 l125 -123 157 162 c86 89 157 167 159 174 3 12 -301 315 -316 315 -4 0 -79 -72 -166 -160z"/>
 <path d="M3952 3107 l-162 -162 165 -165 165 -165 116 115 c63 63 134 136 156 163 l40 48 -25 37 c-31 46 -268 292 -282 292 -6 0 -83 -73 -173 -163z"/>
 <path d="M1620 3095 l-165 -165 163 -162 162 -163 160 160 c88 88 160 165 160 171 0 11 -297 324 -309 324 -3 0 -80 -74 -171 -165z"/>
 <path d="M1090 3138 c-29 -69 -81 -471 -63 -489 5 -5 76 59 158 141 l150 150 -100 101 c-120 121 -131 128 -145 97z"/>
 <path d="M2785 2720 l-158 -161 34 -37 c19 -20 90 -94 159 -165 l124 -127 168 167 168 167 -161 158 c-88 87 -164 158 -168 158 -4 0 -79 -72 -166 -160z"/>
 <path d="M3565 2720 l-159 -159 29 -33 c17 -18 88 -93 160 -166 l130 -132 162 162 c90 90 163 167 163 171 0 9 -311 317 -320 317 -3 0 -77 -72 -165 -160z"/>
 <path d="M1230 2705 l-165 -165 163 -162 162 -163 160 160 c88 88 160 165 160 172 0 12 -297 323 -309 323 -3 0 -80 -74 -171 -165z"/>
 <path d="M2010 2705 l-165 -165 163 -163 162 -162 160 161 c88 88 160 165 160 170 0 12 -298 324 -309 324 -3 0 -80 -74 -171 -165z"/>
 <path d="M4302 2678 l-122 -123 48 -48 c26 -27 82 -81 126 -120 108 -98 108 -98 104 175 -4 280 2 275 -156 116z"/>
 <path d="M2401 2325 l-164 -165 49 -53 c61 -65 234 -237 258 -257 18 -14 30 -3 182 155 l163 170 -157 158 c-86 86 -159 157 -163 157 -3 0 -79 -74 -168 -165z"/>
 <path d="M3175 2330 l-159 -160 49 -53 c28 -28 99 -103 160 -165 l110 -112 167 167 168 168 -161 157 c-88 87 -164 158 -168 158 -4 0 -78 -72 -166 -160z"/>
 <path d="M3952 2327 l-162 -163 158 -157 c87 -86 163 -157 169 -157 13 0 313 306 313 320 0 18 -292 320 -309 320 -3 0 -79 -73 -169 -163z"/>
 <path d="M1619 2319 c-85 -88 -155 -164 -157 -168 -1 -3 70 -78 158 -166 l160 -160 160 161 c88 88 160 166 160 172 0 15 -303 322 -317 322 -6 0 -80 -72 -164 -161z"/>
 <path d="M1026 2442 c-16 -26 54 -485 76 -498 6 -4 60 43 122 105 l111 111 -145 145 c-80 80 -148 145 -152 145 -4 0 -9 -4 -12 -8z"/>
 <path d="M2785 1940 l-160 -160 163 -162 162 -163 166 165 165 165 -161 158 c-88 86 -164 157 -168 157 -4 0 -79 -72 -167 -160z"/>
 <path d="M3565 1939 l-158 -160 49 -52 c27 -29 98 -103 159 -165 l110 -112 162 162 c90 90 163 167 163 173 0 11 -307 315 -319 315 -4 0 -79 -72 -166 -161z"/>
 <path d="M1256 1961 l-129 -130 31 -87 c17 -48 30 -90 27 -94 -2 -3 43 -53 101 -111 l104 -104 160 160 c88 88 160 165 160 170 0 14 -302 325 -315 325 -6 0 -68 -58 -139 -129z"/>
 <path d="M2006 1931 l-158 -159 21 -28 c12 -16 85 -92 161 -169 l140 -140 160 161 c88 88 160 165 160 172 0 13 -302 322 -316 322 -5 0 -81 -71 -168 -159z"/>
 <path d="M4235 1840 l-59 -60 34 -30 c19 -16 42 -28 50 -27 20 3 62 94 64 137 2 53 -22 48 -89 -20z"/>
 <path d="M2400 1544 l-164 -165 163 -162 162 -162 159 165 c88 91 160 170 160 175 0 10 -300 315 -311 315 -3 0 -79 -75 -169 -166z"/>
 <path d="M3175 1550 l-160 -160 163 -162 162 -163 160 160 c88 88 160 163 160 168 0 10 -306 317 -317 317 -4 0 -80 -72 -168 -160z"/>
 <path d="M3947 1550 l-162 -159 75 -76 75 -76 44 48 c88 96 231 299 231 327 0 18 -74 96 -91 96 -6 0 -83 -72 -172 -160z"/>
 <path d="M1616 1541 l-159 -159 41 -49 c22 -26 95 -102 161 -168 l121 -120 160 160 c88 88 160 165 160 172 0 15 -301 323 -316 323 -5 0 -81 -72 -168 -159z"/>
 <path d="M3561 1166 l-165 -165 53 -51 52 -51 41 23 c83 47 328 239 328 257 0 8 -133 151 -140 151 -3 0 -79 -74 -169 -164z"/>
 <path d="M2785 1160 l-159 -159 154 -156 c85 -85 161 -155 168 -155 8 0 86 71 174 157 l159 158 -162 157 c-88 87 -164 158 -168 158 -3 0 -78 -72 -166 -160z"/>
 <path d="M1386 1302 c-12 -20 201 -287 267 -334 22 -16 31 -17 42 -8 8 7 15 18 15 24 -1 12 -219 240 -282 295 -20 17 -39 28 -42 23z"/>
 <path d="M2006 1151 l-158 -160 43 -51 c24 -28 92 -96 152 -152 101 -92 112 -100 141 -94 23 5 67 43 169 144 75 76 137 143 137 149 0 13 -304 323 -317 323 -5 0 -80 -72 -167 -159z"/>
 <path d="M3271 876 c-58 -62 -72 -88 -52 -101 13 -7 134 41 166 67 l25 20 -20 26 c-46 58 -52 57 -119 -12z"/>
 <path d="M2455 820 c-69 -70 -106 -115 -103 -126 5 -28 52 -36 208 -38 121 -1 150 2 177 16 17 10 35 22 38 28 8 13 -51 83 -140 163 l-72 66 -108 -109z"/>
 <path d="M1760 905 c-16 -19 -11 -24 59 -73 64 -46 86 -42 49 8 -20 28 -80 80 -91 80 -3 0 -10 -7 -17 -15z"/>
 </g>
<g id="layer104" fill="#92ccff" stroke="none">
 <path d="M2395 4436 c-47 -20 -59 -39 -36 -60 18 -16 20 -15 50 23 35 44 31 55 -14 37z"/>
 <path d="M2686 4443 c-7 -8 19 -57 39 -73 15 -12 19 -11 36 10 10 14 17 29 16 34 -4 11 -84 36 -91 29z"/>
 <path d="M2848 4342 l-79 -77 29 -90 c16 -50 42 -143 57 -207 24 -102 32 -121 62 -150 l34 -33 160 161 c87 89 159 167 159 173 0 19 -262 272 -297 287 -18 8 -35 14 -39 14 -4 0 -42 -35 -86 -78z"/>
 <path d="M2001 4255 l-156 -155 162 -162 162 -162 31 29 c16 16 30 37 30 47 0 32 80 332 99 370 l18 38 -80 75 c-45 41 -88 75 -96 75 -8 0 -85 -70 -170 -155z"/>
 <path d="M1801 4275 c-66 -49 -73 -65 -39 -90 22 -15 25 -13 82 44 40 40 57 64 53 75 -10 25 -31 19 -96 -29z"/>
 <path d="M3257 4313 c-16 -16 -4 -44 38 -89 l46 -48 31 31 c27 28 30 34 18 48 -24 29 -120 71 -133 58z"/>
 <path d="M3447 4160 l-40 -41 79 -82 c43 -45 116 -120 162 -166 l84 -84 69 69 c38 38 69 71 69 74 0 22 -338 270 -367 270 -9 0 -33 -18 -56 -40z"/>
 <path d="M1604 4105 c-78 -82 -134 -150 -192 -232 -44 -62 -49 -73 -36 -84 13 -11 41 13 180 152 90 90 164 167 164 171 0 4 -14 17 -31 29 l-31 22 -54 -58z"/>
 <path d="M3176 3890 l-159 -159 101 -108 c55 -59 128 -135 162 -168 l61 -60 160 162 c87 89 159 165 159 170 0 12 -305 323 -317 323 -5 0 -80 -72 -167 -160z"/>
 <path d="M1615 3870 l-160 -160 163 -162 162 -163 165 165 166 165 -160 158 c-88 86 -164 157 -168 157 -5 0 -80 -72 -168 -160z"/>
 <path d="M3857 3792 l-68 -68 167 -163 166 -163 44 43 c24 24 44 48 44 55 0 16 -77 129 -154 227 -97 122 -111 137 -122 137 -5 0 -40 -31 -77 -68z"/>
 <path d="M2931 3646 c-8 -10 -6 -55 8 -179 11 -92 23 -218 27 -282 4 -68 12 -119 19 -125 8 -7 51 31 148 129 75 75 137 142 137 148 0 14 -302 323 -316 323 -6 0 -17 -6 -23 -14z"/>
 <path d="M3566 3500 l-158 -160 158 -164 158 -165 161 157 c88 85 161 161 163 168 3 13 -301 324 -316 324 -5 0 -79 -72 -166 -160z"/>
 <path d="M1284 3538 c-107 -109 -113 -116 -138 -193 l-26 -80 135 -135 135 -135 160 160 c88 88 160 165 160 170 0 12 -298 325 -309 325 -3 0 -56 -51 -117 -112z"/>
 <path d="M2005 3480 l-160 -160 139 -139 c77 -77 143 -138 146 -136 4 2 10 58 13 124 4 66 14 182 23 258 20 170 22 205 9 209 -6 2 -82 -68 -170 -156z"/>
 <path d="M4212 3367 l-32 -33 32 -30 c88 -79 87 -79 103 -63 14 14 13 21 -9 70 -13 30 -32 62 -43 71 -19 17 -21 16 -51 -15z"/>
 <path d="M3176 3110 l-159 -159 38 -43 c21 -24 94 -98 162 -166 l125 -123 157 162 c86 89 157 167 159 174 3 12 -301 315 -316 315 -4 0 -79 -72 -166 -160z"/>
 <path d="M3952 3107 l-162 -162 165 -165 165 -165 116 115 c63 63 134 136 156 163 l40 48 -25 37 c-31 46 -268 292 -282 292 -6 0 -83 -73 -173 -163z"/>
 <path d="M1620 3095 l-165 -165 163 -162 162 -163 160 160 c88 88 160 165 160 171 0 11 -297 324 -309 324 -3 0 -80 -74 -171 -165z"/>
 <path d="M1090 3138 c-29 -69 -81 -471 -63 -489 5 -5 76 59 158 141 l150 150 -100 101 c-120 121 -131 128 -145 97z"/>
 <path d="M3565 2720 l-159 -159 29 -33 c17 -18 88 -93 160 -166 l130 -132 162 162 c90 90 163 167 163 171 0 9 -311 317 -320 317 -3 0 -77 -72 -165 -160z"/>
 <path d="M1230 2705 l-165 -165 163 -162 162 -163 160 160 c88 88 160 165 160 172 0 12 -297 323 -309 323 -3 0 -80 -74 -171 -165z"/>
 <path d="M2997 2823 c-9 -9 -9 -518 0 -527 4 -4 69 55 145 130 l137 138 -133 133 c-74 73 -136 133 -138 133 -3 0 -8 -3 -11 -7z"/>
 <path d="M1980 2675 l-135 -135 135 -135 c74 -74 136 -133 138 -131 4 5 4 528 -1 532 -2 2 -63 -57 -137 -131z"/>
 <path d="M4302 2678 l-122 -123 48 -48 c26 -27 82 -81 126 -120 108 -98 108 -98 104 175 -4 280 2 275 -156 116z"/>
 <path d="M3175 2330 l-159 -160 49 -53 c28 -28 99 -103 160 -165 l110 -112 167 167 168 168 -161 157 c-88 87 -164 158 -168 158 -4 0 -78 -72 -166 -160z"/>
 <path d="M3952 2327 l-162 -163 158 -157 c87 -86 163 -157 169 -157 13 0 313 306 313 320 0 18 -292 320 -309 320 -3 0 -79 -73 -169 -163z"/>
 <path d="M1619 2319 c-85 -88 -155 -164 -157 -168 -1 -3 70 -78 158 -166 l160 -160 160 161 c88 88 160 166 160 172 0 15 -303 322 -317 322 -6 0 -80 -72 -164 -161z"/>
 <path d="M1026 2442 c-16 -26 54 -485 76 -498 6 -4 60 43 122 105 l111 111 -145 145 c-80 80 -148 145 -152 145 -4 0 -9 -4 -12 -8z"/>
 <path d="M3565 1939 l-158 -160 49 -52 c27 -29 98 -103 159 -165 l110 -112 162 162 c90 90 163 167 163 173 0 11 -307 315 -319 315 -4 0 -79 -72 -166 -161z"/>
 <path d="M1256 1961 l-129 -130 31 -87 c17 -48 30 -90 27 -94 -2 -3 43 -53 101 -111 l104 -104 160 160 c88 88 160 165 160 170 0 14 -302 325 -315 325 -6 0 -68 -58 -139 -129z"/>
 <path d="M2975 2048 c-2 -7 -6 -60 -10 -118 -3 -58 -15 -181 -26 -275 -28 -244 -32 -243 176 -35 l165 165 -138 138 c-76 75 -144 137 -151 137 -6 0 -13 -6 -16 -12z"/>
 <path d="M1986 1911 l-138 -139 21 -28 c12 -16 85 -92 161 -169 123 -124 141 -138 154 -125 11 12 13 25 6 60 -13 69 -39 303 -46 423 -4 59 -10 110 -14 112 -3 2 -68 -58 -144 -134z"/>
 <path d="M4235 1840 l-59 -60 34 -30 c19 -16 42 -28 50 -27 20 3 62 94 64 137 2 53 -22 48 -89 -20z"/>
 <path d="M3175 1550 l-160 -160 163 -162 162 -163 160 160 c88 88 160 163 160 168 0 10 -306 317 -317 317 -4 0 -80 -72 -168 -160z"/>
 <path d="M3947 1550 l-162 -159 75 -76 75 -76 44 48 c88 96 231 299 231 327 0 18 -74 96 -91 96 -6 0 -83 -72 -172 -160z"/>
 <path d="M1616 1541 l-159 -159 41 -49 c22 -26 95 -102 161 -168 l121 -120 160 160 c88 88 160 165 160 172 0 15 -301 323 -316 323 -5 0 -81 -72 -168 -159z"/>
 <path d="M3561 1166 l-165 -165 53 -51 52 -51 41 23 c83 47 328 239 328 257 0 8 -133 151 -140 151 -3 0 -79 -74 -169 -164z"/>
 <path d="M2907 1282 c-20 -21 -37 -47 -37 -57 0 -27 -66 -274 -86 -325 l-17 -42 84 -84 c46 -46 90 -84 98 -84 7 0 85 71 173 157 l159 158 -162 157 c-88 87 -164 158 -168 158 -4 0 -24 -17 -44 -38z"/>
 <path d="M1386 1302 c-12 -20 201 -287 267 -334 22 -16 31 -17 42 -8 8 7 15 18 15 24 -1 12 -219 240 -282 295 -20 17 -39 28 -42 23z"/>
 <path d="M2006 1151 l-158 -160 43 -51 c24 -28 92 -96 152 -152 133 -122 137 -122 240 -20 l68 68 -21 53 c-31 78 -92 321 -87 341 3 13 -8 28 -34 49 -21 17 -39 31 -41 31 -2 0 -75 -72 -162 -159z"/>
 <path d="M3271 876 c-58 -62 -72 -88 -52 -101 13 -7 134 41 166 67 l25 20 -20 26 c-46 58 -52 57 -119 -12z"/>
 <path d="M1760 905 c-16 -19 -11 -24 59 -73 64 -46 86 -42 49 8 -20 28 -80 80 -91 80 -3 0 -10 -7 -17 -15z"/>
 <path d="M2719 743 c-8 -10 -23 -30 -32 -46 -16 -24 -16 -28 -2 -33 18 -7 69 12 86 33 10 11 8 19 -12 39 -24 24 -26 24 -40 7z"/>
 <path d="M2364 725 c-21 -32 -13 -51 26 -59 46 -9 52 0 28 39 -27 47 -34 50 -54 20z"/>
 </g>
<g id="layer105" fill="#ffae55" stroke="none">
 <path d="M2395 4436 c-47 -20 -59 -39 -36 -60 18 -16 20 -15 50 23 35 44 31 55 -14 37z"/>
 <path d="M2686 4443 c-7 -8 19 -57 39 -73 15 -12 19 -11 36 10 10 14 17 29 16 34 -4 11 -84 36 -91 29z"/>
 <path d="M2848 4342 l-79 -77 29 -90 c16 -50 42 -143 57 -207 24 -102 32 -121 62 -150 l34 -33 160 161 c87 89 159 166 159 172 0 30 -300 302 -332 302 -6 0 -46 -35 -90 -78z"/>
 <path d="M2001 4255 l-156 -155 162 -162 162 -162 31 29 c16 16 30 37 30 47 0 32 80 332 99 370 l18 38 -80 75 c-45 41 -88 75 -96 75 -8 0 -85 -70 -170 -155z"/>
 <path d="M1801 4275 c-66 -49 -73 -65 -39 -90 22 -15 25 -13 82 44 40 40 57 64 53 75 -10 25 -31 19 -96 -29z"/>
 <path d="M3254 4309 c-4 -8 0 -17 10 -23 10 -6 38 -26 63 -45 41 -30 46 -32 61 -18 19 20 5 40 -47 66 -55 28 -78 33 -87 20z"/>
 <path d="M3463 4175 l-28 -25 26 -23 c77 -66 255 -290 244 -307 -3 -4 2 -14 11 -21 13 -10 25 -2 85 57 38 37 69 71 69 74 0 21 -337 270 -366 270 -7 0 -26 -11 -41 -25z"/>
 <path d="M1604 4105 c-78 -82 -134 -150 -192 -232 -44 -62 -49 -73 -36 -84 13 -11 41 13 180 152 90 90 164 167 164 171 0 4 -14 17 -31 29 l-31 22 -54 -58z"/>
 <path d="M3171 3886 l-154 -155 101 -108 c55 -59 128 -135 161 -168 l61 -60 106 106 106 106 -42 99 c-42 100 -134 273 -167 313 l-18 22 -154 -155z"/>
 <path d="M1615 3870 l-160 -160 163 -162 162 -163 165 165 166 165 -160 158 c-88 86 -164 157 -168 157 -5 0 -80 -72 -168 -160z"/>
 <path d="M3857 3792 l-68 -68 167 -163 166 -163 44 43 c24 24 44 48 44 55 0 16 -77 129 -154 227 -97 122 -111 137 -122 137 -5 0 -40 -31 -77 -68z"/>
 <path d="M2931 3646 c-8 -10 -6 -55 8 -179 11 -92 23 -218 27 -282 4 -68 12 -119 19 -125 8 -7 51 31 148 129 75 75 137 142 137 148 0 14 -302 323 -316 323 -6 0 -17 -6 -23 -14z"/>
 <path d="M1284 3538 c-107 -109 -113 -116 -138 -193 l-26 -80 135 -135 135 -135 160 160 c88 88 160 165 160 170 0 12 -298 325 -309 325 -3 0 -56 -51 -117 -112z"/>
 <path d="M2005 3480 l-160 -160 139 -139 c77 -77 143 -138 146 -136 4 2 10 58 13 124 4 66 14 182 23 258 20 170 22 205 9 209 -6 2 -82 -68 -170 -156z"/>
 <path d="M3491 3425 l-82 -86 133 -138 c73 -76 137 -135 141 -131 15 14 -77 408 -101 432 -5 5 -46 -30 -91 -77z"/>
 <path d="M3898 3485 c-3 -3 10 -45 28 -93 18 -48 33 -95 34 -104 0 -9 4 -19 9 -23 12 -7 81 52 81 69 0 12 -131 156 -141 156 -3 0 -8 -2 -11 -5z"/>
 <path d="M4212 3367 l-32 -33 32 -30 c88 -79 87 -79 103 -63 14 14 13 21 -9 70 -13 30 -32 62 -43 71 -19 17 -21 16 -51 -15z"/>
 <path d="M3176 3110 l-159 -159 38 -43 c21 -24 94 -98 162 -166 l125 -123 157 162 c86 89 157 167 159 174 3 12 -301 315 -316 315 -4 0 -79 -72 -166 -160z"/>
 <path d="M4057 3212 l-57 -58 19 -94 c20 -100 38 -235 45 -334 3 -47 9 -64 30 -84 l26 -27 116 115 c63 63 134 136 156 163 l40 48 -25 37 c-31 47 -269 292 -282 292 -6 0 -36 -26 -68 -58z"/>
 <path d="M1620 3095 l-165 -165 163 -162 162 -163 160 160 c88 88 160 165 160 171 0 11 -297 324 -309 324 -3 0 -80 -74 -171 -165z"/>
 <path d="M1090 3138 c-29 -69 -81 -471 -63 -489 5 -5 76 59 158 141 l150 150 -100 101 c-120 121 -131 128 -145 97z"/>
 <path d="M1230 2705 l-165 -165 163 -162 162 -163 160 160 c88 88 160 165 160 172 0 12 -297 323 -309 323 -3 0 -80 -74 -171 -165z"/>
 <path d="M3555 2710 l-149 -149 29 -33 c122 -135 270 -277 280 -267 14 14 14 574 0 588 -7 7 -57 -36 -160 -139z"/>
 <path d="M2997 2823 c-9 -9 -9 -518 0 -527 4 -4 69 55 145 130 l137 138 -133 133 c-74 73 -136 133 -138 133 -3 0 -8 -3 -11 -7z"/>
 <path d="M1980 2675 l-135 -135 135 -135 c74 -74 136 -133 138 -131 4 5 4 528 -1 532 -2 2 -63 -57 -137 -131z"/>
 <path d="M4302 2678 l-122 -123 48 -48 c26 -27 82 -81 126 -120 108 -98 108 -98 104 175 -4 280 2 275 -156 116z"/>
 <path d="M3175 2330 l-159 -160 49 -53 c28 -28 99 -103 160 -165 l110 -112 167 167 168 168 -161 157 c-88 87 -164 158 -168 158 -4 0 -78 -72 -166 -160z"/>
 <path d="M4090 2465 c-16 -18 -24 -39 -27 -77 -9 -135 -44 -358 -63 -405 -7 -18 0 -29 50 -77 32 -31 63 -56 68 -56 12 0 312 307 312 320 0 18 -292 320 -310 320 -3 0 -17 -11 -30 -25z"/>
 <path d="M1619 2319 c-85 -88 -155 -164 -157 -168 -1 -3 70 -78 158 -166 l160 -160 160 161 c88 88 160 166 160 172 0 15 -303 322 -317 322 -6 0 -80 -72 -164 -161z"/>
 <path d="M1026 2442 c-16 -26 54 -485 76 -498 6 -4 60 43 122 105 l111 111 -145 145 c-80 80 -148 145 -152 145 -4 0 -9 -4 -12 -8z"/>
 <path d="M1256 1961 l-129 -130 31 -87 c17 -48 30 -90 27 -94 -2 -3 43 -53 101 -111 l104 -104 160 160 c88 88 160 165 160 170 0 14 -302 325 -315 325 -6 0 -68 -58 -139 -129z"/>
 <path d="M2975 2048 c-2 -7 -6 -60 -10 -118 -3 -58 -15 -181 -26 -275 -28 -244 -32 -243 176 -35 l165 165 -138 138 c-76 75 -144 137 -151 137 -6 0 -13 -6 -16 -12z"/>
 <path d="M1986 1911 l-138 -139 21 -28 c12 -16 85 -92 161 -169 123 -124 141 -138 154 -125 11 12 13 25 6 60 -13 69 -39 303 -46 423 -4 59 -10 110 -14 112 -3 2 -68 -58 -144 -134z"/>
 <path d="M3541 1915 l-132 -136 82 -90 c45 -49 86 -86 90 -82 23 25 115 421 101 435 -5 5 -68 -52 -141 -127z"/>
 <path d="M4235 1840 l-59 -60 34 -30 c19 -16 42 -28 50 -27 20 3 62 94 64 137 2 53 -22 48 -89 -20z"/>
 <path d="M3967 1863 c-4 -3 -7 -16 -7 -27 -1 -12 -16 -60 -34 -108 -18 -48 -31 -90 -28 -93 7 -7 152 136 152 150 0 15 -76 86 -83 78z"/>
 <path d="M3175 1550 l-160 -160 155 -155 c155 -155 155 -156 173 -134 32 40 125 213 168 314 l42 100 -103 97 c-57 54 -106 98 -109 98 -3 0 -78 -72 -166 -160z"/>
 <path d="M3947 1550 l-162 -159 75 -76 75 -76 44 48 c88 96 231 299 231 327 0 18 -74 96 -91 96 -6 0 -83 -72 -172 -160z"/>
 <path d="M1616 1541 l-159 -159 41 -49 c22 -26 95 -102 161 -168 l121 -120 160 160 c88 88 160 165 160 172 0 15 -301 323 -316 323 -5 0 -81 -72 -168 -159z"/>
 <path d="M3699 1278 c-46 -72 -135 -181 -203 -250 -62 -63 -63 -78 -12 -111 23 -16 27 -15 88 25 79 51 245 178 277 212 l24 25 -32 36 c-17 20 -49 54 -70 76 l-38 40 -34 -53z"/>
 <path d="M2907 1282 c-20 -21 -37 -47 -37 -57 0 -27 -66 -274 -86 -325 l-17 -42 81 -81 82 -82 37 20 c21 10 100 80 176 155 l138 135 -162 157 c-88 87 -164 158 -168 158 -4 0 -24 -17 -44 -38z"/>
 <path d="M1386 1302 c-12 -20 201 -287 267 -334 22 -16 31 -17 42 -8 8 7 15 18 15 24 -1 12 -219 240 -282 295 -20 17 -39 28 -42 23z"/>
 <path d="M2006 1151 l-158 -160 43 -51 c24 -28 92 -96 152 -152 133 -122 137 -122 240 -20 l68 68 -21 53 c-31 78 -92 321 -87 341 3 13 -8 28 -34 49 -21 17 -39 31 -41 31 -2 0 -75 -72 -162 -159z"/>
 <path d="M1760 905 c-16 -19 -11 -24 59 -73 64 -46 86 -42 49 8 -20 28 -80 80 -91 80 -3 0 -10 -7 -17 -15z"/>
 <path d="M3355 908 c-8 -20 -120 -100 -128 -91 -4 3 -9 -2 -13 -11 -14 -36 12 -38 89 -6 41 17 82 39 90 48 14 15 13 20 -8 47 -20 24 -25 26 -30 13z"/>
 <path d="M2719 743 c-8 -10 -23 -30 -32 -46 -16 -24 -16 -28 -2 -33 18 -7 69 12 86 33 10 11 8 19 -12 39 -24 24 -26 24 -40 7z"/>
 <path d="M2364 725 c-21 -32 -13 -51 26 -59 46 -9 52 0 28 39 -27 47 -34 50 -54 20z"/>
 </g>
<g id="layer106" fill="#9c9cff" stroke="none">
 <path d="M2395 4436 c-47 -20 -59 -39 -36 -60 18 -16 20 -15 50 23 35 44 31 55 -14 37z"/>
 <path d="M2686 4443 c-7 -8 19 -57 39 -73 15 -12 19 -11 36 10 10 14 17 29 16 34 -4 11 -84 36 -91 29z"/>
 <path d="M2848 4342 l-79 -77 29 -90 c16 -50 42 -143 57 -207 24 -102 32 -121 62 -150 l34 -33 160 161 c87 89 159 166 159 172 0 30 -300 302 -332 302 -6 0 -46 -35 -90 -78z"/>
 <path d="M2001 4255 l-156 -155 162 -162 162 -162 31 29 c16 16 30 37 30 47 0 32 80 332 99 370 l18 38 -80 75 c-45 41 -88 75 -96 75 -8 0 -85 -70 -170 -155z"/>
 <path d="M3254 4309 c-4 -8 0 -17 10 -23 10 -6 38 -26 63 -45 41 -30 46 -32 61 -18 19 20 5 40 -47 66 -55 28 -78 33 -87 20z"/>
 <path d="M3463 4175 l-28 -25 26 -23 c77 -66 255 -290 244 -307 -3 -4 2 -14 11 -21 13 -10 25 -2 85 57 38 37 69 71 69 74 0 21 -337 270 -366 270 -7 0 -26 -11 -41 -25z"/>
 <path d="M3171 3886 l-154 -155 101 -108 c55 -59 128 -135 161 -168 l61 -60 106 106 106 106 -42 99 c-42 100 -134 273 -167 313 l-18 22 -154 -155z"/>
 <path d="M1735 3973 c-41 -66 -124 -232 -155 -312 l-21 -54 110 -111 111 -111 165 165 166 165 -160 158 c-88 86 -165 157 -170 157 -5 0 -26 -26 -46 -57z"/>
 <path d="M3857 3792 l-68 -68 167 -163 166 -163 44 43 c24 24 44 48 44 55 0 16 -77 129 -154 227 -97 122 -111 137 -122 137 -5 0 -40 -31 -77 -68z"/>
 <path d="M2931 3646 c-8 -10 -6 -55 8 -179 11 -92 23 -218 27 -282 4 -68 12 -119 19 -125 8 -7 51 31 148 129 75 75 137 142 137 148 0 14 -302 323 -316 323 -6 0 -17 -6 -23 -14z"/>
 <path d="M2005 3480 l-160 -160 139 -139 c77 -77 143 -138 146 -136 4 2 10 58 13 124 4 66 14 182 23 258 20 170 22 205 9 209 -6 2 -82 -68 -170 -156z"/>
 <path d="M1520 3491 c-28 -54 -106 -410 -95 -439 4 -12 40 18 145 123 77 77 140 144 140 148 0 12 -161 187 -171 187 -5 0 -13 -9 -19 -19z"/>
 <path d="M3491 3425 l-82 -86 133 -138 c73 -76 137 -135 141 -131 15 14 -77 408 -101 432 -5 5 -46 -30 -91 -77z"/>
 <path d="M3898 3485 c-3 -3 10 -45 28 -93 18 -48 33 -95 34 -104 0 -9 4 -19 9 -23 12 -7 81 52 81 69 0 12 -131 156 -141 156 -3 0 -8 -2 -11 -5z"/>
 <path d="M4212 3367 l-32 -33 32 -30 c88 -79 87 -79 103 -63 14 14 13 21 -9 70 -13 30 -32 62 -43 71 -19 17 -21 16 -51 -15z"/>
 <path d="M3176 3110 l-159 -159 38 -43 c21 -24 94 -98 162 -166 l125 -123 157 162 c86 89 157 167 159 174 3 12 -301 315 -316 315 -4 0 -79 -72 -166 -160z"/>
 <path d="M4057 3212 l-57 -58 19 -94 c20 -100 38 -235 45 -334 3 -47 9 -64 30 -84 l26 -27 116 115 c63 63 134 136 156 163 l40 48 -25 37 c-31 47 -269 292 -282 292 -6 0 -36 -26 -68 -58z"/>
 <path d="M1620 3095 l-165 -165 163 -162 162 -163 160 160 c88 88 160 165 160 171 0 11 -297 324 -309 324 -3 0 -80 -74 -171 -165z"/>
 <path d="M1392 2843 c-10 -24 -9 -573 1 -597 7 -17 29 1 162 134 85 85 155 160 155 167 0 14 -288 313 -302 313 -5 0 -12 -8 -16 -17z"/>
 <path d="M3555 2710 l-149 -149 29 -33 c122 -135 270 -277 280 -267 14 14 14 574 0 588 -7 7 -57 -36 -160 -139z"/>
 <path d="M2997 2823 c-9 -9 -9 -518 0 -527 4 -4 69 55 145 130 l137 138 -133 133 c-74 73 -136 133 -138 133 -3 0 -8 -3 -11 -7z"/>
 <path d="M1980 2675 l-135 -135 135 -135 c74 -74 136 -133 138 -131 4 5 4 528 -1 532 -2 2 -63 -57 -137 -131z"/>
 <path d="M4302 2678 l-122 -123 48 -48 c26 -27 82 -81 126 -120 108 -98 108 -98 104 175 -4 280 2 275 -156 116z"/>
 <path d="M3175 2330 l-159 -160 49 -53 c28 -28 99 -103 160 -165 l110 -112 167 167 168 168 -161 157 c-88 87 -164 158 -168 158 -4 0 -78 -72 -166 -160z"/>
 <path d="M4090 2465 c-16 -18 -24 -39 -27 -77 -9 -135 -44 -358 -63 -405 -7 -18 0 -29 50 -77 32 -31 63 -56 68 -56 12 0 312 307 312 320 0 18 -292 320 -310 320 -3 0 -17 -11 -30 -25z"/>
 <path d="M1619 2319 c-85 -88 -155 -164 -157 -168 -1 -3 70 -78 158 -166 l160 -160 160 161 c88 88 160 166 160 172 0 15 -303 322 -317 322 -6 0 -80 -72 -164 -161z"/>
 <path d="M2975 2048 c-2 -7 -6 -60 -10 -118 -3 -58 -15 -181 -26 -275 -28 -244 -32 -243 176 -35 l165 165 -138 138 c-76 75 -144 137 -151 137 -6 0 -13 -6 -16 -12z"/>
 <path d="M1426 2042 c-12 -20 82 -411 107 -440 8 -10 29 5 94 70 46 46 82 88 81 95 -4 15 -257 283 -268 283 -5 0 -11 -4 -14 -8z"/>
 <path d="M1986 1911 l-138 -139 21 -28 c12 -16 85 -92 161 -169 123 -124 141 -138 154 -125 11 12 13 25 6 60 -13 69 -39 303 -46 423 -4 59 -10 110 -14 112 -3 2 -68 -58 -144 -134z"/>
 <path d="M3541 1915 l-132 -136 82 -90 c45 -49 86 -86 90 -82 23 25 115 421 101 435 -5 5 -68 -52 -141 -127z"/>
 <path d="M4235 1840 l-59 -60 34 -30 c19 -16 42 -28 50 -27 20 3 62 94 64 137 2 53 -22 48 -89 -20z"/>
 <path d="M3967 1863 c-4 -3 -7 -16 -7 -27 -1 -12 -16 -60 -34 -108 -18 -48 -31 -90 -28 -93 7 -7 152 136 152 150 0 15 -76 86 -83 78z"/>
 <path d="M3175 1550 l-160 -160 155 -155 c155 -155 155 -156 173 -134 32 40 125 213 168 314 l42 100 -103 97 c-57 54 -106 98 -109 98 -3 0 -78 -72 -166 -160z"/>
 <path d="M3947 1550 l-162 -159 75 -76 75 -76 44 48 c88 96 231 299 231 327 0 18 -74 96 -91 96 -6 0 -83 -72 -172 -160z"/>
 <path d="M1671 1596 l-104 -105 32 -78 c38 -92 108 -224 159 -300 l36 -54 153 153 c84 84 153 158 153 165 0 15 -301 323 -316 323 -5 0 -56 -47 -113 -104z"/>
 <path d="M3699 1278 c-46 -72 -135 -181 -203 -250 -62 -63 -63 -78 -12 -111 23 -16 27 -15 88 25 79 51 245 178 277 212 l24 25 -32 36 c-17 20 -49 54 -70 76 l-38 40 -34 -53z"/>
 <path d="M2907 1282 c-20 -21 -37 -47 -37 -57 0 -27 -66 -274 -86 -325 l-17 -42 81 -81 82 -82 37 20 c21 10 100 80 176 155 l138 135 -162 157 c-88 87 -164 158 -168 158 -4 0 -24 -17 -44 -38z"/>
 <path d="M2006 1150 l-159 -159 52 -60 c104 -120 263 -244 300 -234 10 2 48 35 85 72 l67 68 -21 52 c-31 78 -92 321 -87 341 3 13 -8 28 -34 49 -21 17 -39 31 -41 31 -2 0 -75 -72 -162 -160z"/>
 <path d="M3355 908 c-8 -20 -120 -100 -128 -91 -4 3 -9 -2 -13 -11 -14 -36 12 -38 89 -6 41 17 82 39 90 48 14 15 13 20 -8 47 -20 24 -25 26 -30 13z"/>
 <path d="M2719 743 c-8 -10 -23 -30 -32 -46 -16 -24 -16 -28 -2 -33 18 -7 69 12 86 33 10 11 8 19 -12 39 -24 24 -26 24 -40 7z"/>
 <path d="M2364 725 c-21 -32 -13 -51 26 -59 46 -9 52 0 28 39 -27 47 -34 50 -54 20z"/>
 </g>
<g id="layer107" fill="#b8ff69" stroke="none">
 <path d="M2395 4436 c-47 -20 -59 -39 -36 -60 18 -16 20 -15 50 23 35 44 31 55 -14 37z"/>
 <path d="M2686 4443 c-7 -8 19 -57 39 -73 15 -12 19 -11 36 10 10 14 17 29 16 34 -4 11 -84 36 -91 29z"/>
 <path d="M2848 4342 l-79 -77 29 -90 c16 -50 42 -143 57 -207 24 -102 32 -121 62 -150 l34 -33 160 161 c87 89 159 166 159 172 0 30 -300 302 -332 302 -6 0 -46 -35 -90 -78z"/>
 <path d="M2001 4255 l-156 -155 162 -162 162 -162 31 29 c16 16 30 37 30 47 0 32 80 332 99 370 l18 38 -80 75 c-45 41 -88 75 -96 75 -8 0 -85 -70 -170 -155z"/>
 <path d="M3171 3886 l-154 -155 101 -108 c55 -59 128 -135 161 -168 l61 -60 106 106 106 106 -42 99 c-42 100 -134 273 -167 313 l-18 22 -154 -155z"/>
 <path d="M1735 3973 c-41 -66 -124 -232 -155 -312 l-21 -54 110 -111 111 -111 165 165 166 165 -160 158 c-88 86 -165 157 -170 157 -5 0 -26 -26 -46 -57z"/>
 <path d="M2931 3646 c-8 -10 -6 -55 8 -179 11 -92 23 -218 27 -282 4 -68 12 -119 19 -125 8 -7 51 31 148 129 75 75 137 142 137 148 0 14 -302 323 -316 323 -6 0 -17 -6 -23 -14z"/>
 <path d="M2005 3480 l-160 -160 139 -139 c77 -77 143 -138 146 -136 4 2 10 58 13 124 4 66 14 182 23 258 20 170 22 205 9 209 -6 2 -82 -68 -170 -156z"/>
 <path d="M1520 3491 c-28 -54 -106 -410 -95 -439 4 -12 40 18 145 123 77 77 140 144 140 148 0 12 -161 187 -171 187 -5 0 -13 -9 -19 -19z"/>
 <path d="M3491 3425 l-82 -86 133 -138 c73 -76 137 -135 141 -131 15 14 -77 408 -101 432 -5 5 -46 -30 -91 -77z"/>
 <path d="M3176 3110 l-159 -159 38 -43 c21 -24 94 -98 162 -166 l125 -123 157 162 c86 89 157 167 159 174 3 12 -301 315 -316 315 -4 0 -79 -72 -166 -160z"/>
 <path d="M1620 3095 l-165 -165 163 -162 162 -163 160 160 c88 88 160 165 160 171 0 11 -297 324 -309 324 -3 0 -80 -74 -171 -165z"/>
 <path d="M1392 2843 c-10 -24 -9 -573 1 -597 7 -17 29 1 162 134 85 85 155 160 155 167 0 14 -288 313 -302 313 -5 0 -12 -8 -16 -17z"/>
 <path d="M3555 2710 l-149 -149 29 -33 c122 -135 270 -277 280 -267 14 14 14 574 0 588 -7 7 -57 -36 -160 -139z"/>
 <path d="M2997 2823 c-9 -9 -9 -518 0 -527 4 -4 69 55 145 130 l137 138 -133 133 c-74 73 -136 133 -138 133 -3 0 -8 -3 -11 -7z"/>
 <path d="M1980 2675 l-135 -135 135 -135 c74 -74 136 -133 138 -131 4 5 4 528 -1 532 -2 2 -63 -57 -137 -131z"/>
 <path d="M3175 2330 l-159 -160 49 -53 c28 -28 99 -103 160 -165 l110 -112 167 167 168 168 -161 157 c-88 87 -164 158 -168 158 -4 0 -78 -72 -166 -160z"/>
 <path d="M1619 2319 c-85 -88 -155 -164 -157 -168 -1 -3 70 -78 158 -166 l160 -160 160 161 c88 88 160 166 160 172 0 15 -303 322 -317 322 -6 0 -80 -72 -164 -161z"/>
 <path d="M2975 2048 c-2 -7 -6 -60 -10 -118 -3 -58 -15 -181 -26 -275 -28 -244 -32 -243 176 -35 l165 165 -138 138 c-76 75 -144 137 -151 137 -6 0 -13 -6 -16 -12z"/>
 <path d="M1426 2042 c-12 -20 82 -411 107 -440 8 -10 29 5 94 70 46 46 82 88 81 95 -4 15 -257 283 -268 283 -5 0 -11 -4 -14 -8z"/>
 <path d="M1986 1911 l-138 -139 21 -28 c12 -16 85 -92 161 -169 123 -124 141 -138 154 -125 11 12 13 25 6 60 -13 69 -39 303 -46 423 -4 59 -10 110 -14 112 -3 2 -68 -58 -144 -134z"/>
 <path d="M3541 1915 l-132 -136 82 -90 c45 -49 86 -86 90 -82 23 25 115 421 101 435 -5 5 -68 -52 -141 -127z"/>
 <path d="M3175 1550 l-160 -160 155 -155 c155 -155 155 -156 173 -134 32 40 125 213 168 314 l42 100 -103 97 c-57 54 -106 98 -109 98 -3 0 -78 -72 -166 -160z"/>
 <path d="M1671 1596 l-104 -105 32 -78 c38 -92 108 -224 159 -300 l36 -54 153 153 c84 84 153 158 153 165 0 15 -301 323 -316 323 -5 0 -56 -47 -113 -104z"/>
 <path d="M2907 1282 c-20 -21 -37 -47 -37 -57 0 -27 -66 -274 -86 -325 l-17 -42 81 -81 82 -82 37 20 c21 10 100 80 176 155 l138 135 -162 157 c-88 87 -164 158 -168 158 -4 0 -24 -17 -44 -38z"/>
 <path d="M2006 1150 l-159 -159 52 -60 c104 -120 263 -244 300 -234 10 2 48 35 85 72 l67 68 -21 52 c-31 78 -92 321 -87 341 3 13 -8 28 -34 49 -21 17 -39 31 -41 31 -2 0 -75 -72 -162 -160z"/>
 <path d="M2719 743 c-8 -10 -23 -30 -32 -46 -16 -24 -16 -28 -2 -33 18 -7 69 12 86 33 10 11 8 19 -12 39 -24 24 -26 24 -40 7z"/>
 <path d="M2364 725 c-21 -32 -13 -51 26 -59 46 -9 52 0 28 39 -27 47 -34 50 -54 20z"/>
 </g>
<g id="layer108" fill="#88ffff" stroke="none">
 <path d="M2686 4443 c-7 -8 19 -57 39 -73 15 -12 19 -11 36 10 10 14 17 29 16 34 -4 11 -84 36 -91 29z"/>
 <path d="M2848 4342 l-79 -77 29 -90 c16 -50 42 -143 57 -207 24 -102 32 -121 62 -150 l34 -33 160 161 c87 89 159 166 159 172 0 30 -300 302 -332 302 -6 0 -46 -35 -90 -78z"/>
 <path d="M2001 4255 l-156 -154 70 -71 c38 -38 73 -70 77 -70 4 0 23 34 42 76 46 97 97 183 159 263 l49 63 -28 24 c-16 13 -35 23 -43 24 -8 0 -85 -70 -170 -155z"/>
 <path d="M3171 3886 l-154 -155 101 -108 c55 -59 128 -135 161 -168 l61 -60 106 106 106 106 -42 99 c-42 100 -134 273 -167 313 l-18 22 -154 -155z"/>
 <path d="M1735 3973 c-41 -66 -124 -232 -155 -312 l-21 -54 110 -111 110 -111 34 33 c28 27 37 48 56 130 13 53 39 146 59 207 l34 110 -87 82 c-48 46 -90 83 -95 83 -5 0 -25 -26 -45 -57z"/>
 <path d="M2931 3646 c-8 -10 -6 -55 8 -179 11 -92 23 -218 27 -282 4 -68 12 -119 19 -125 8 -7 51 31 148 129 75 75 137 142 137 148 0 14 -302 323 -316 323 -6 0 -17 -6 -23 -14z"/>
 <path d="M1520 3491 c-28 -54 -106 -410 -95 -439 4 -12 40 18 145 123 77 77 140 144 140 148 0 12 -161 187 -171 187 -5 0 -13 -9 -19 -19z"/>
 <path d="M3491 3425 l-82 -86 133 -138 c73 -76 137 -135 141 -131 15 14 -77 408 -101 432 -5 5 -46 -30 -91 -77z"/>
 <path d="M3176 3110 l-159 -159 38 -43 c21 -24 94 -98 162 -166 l125 -123 157 162 c86 89 157 167 159 174 3 12 -301 315 -316 315 -4 0 -79 -72 -166 -160z"/>
 <path d="M1620 3095 l-165 -165 141 -141 c78 -78 146 -139 152 -135 5 3 13 63 17 133 4 71 15 202 25 293 18 156 18 180 2 180 -4 0 -81 -74 -172 -165z"/>
 <path d="M1392 2843 c-10 -24 -9 -573 1 -597 7 -17 29 1 162 134 85 85 155 160 155 167 0 14 -288 313 -302 313 -5 0 -12 -8 -16 -17z"/>
 <path d="M3555 2710 l-149 -149 29 -33 c122 -135 270 -277 280 -267 14 14 14 574 0 588 -7 7 -57 -36 -160 -139z"/>
 <path d="M2997 2823 c-9 -9 -9 -518 0 -527 4 -4 69 55 145 130 l137 138 -133 133 c-74 73 -136 133 -138 133 -3 0 -8 -3 -11 -7z"/>
 <path d="M3175 2330 l-159 -160 49 -53 c28 -28 99 -103 160 -165 l110 -112 167 167 168 168 -161 157 c-88 87 -164 158 -168 158 -4 0 -78 -72 -166 -160z"/>
 <path d="M1599 2299 c-74 -78 -135 -144 -137 -148 -1 -3 70 -78 158 -166 205 -204 199 -206 171 61 -11 104 -24 234 -28 288 -4 55 -13 101 -19 103 -6 2 -71 -60 -145 -138z"/>
 <path d="M2975 2048 c-2 -7 -6 -60 -10 -118 -3 -58 -15 -181 -26 -275 -28 -244 -32 -243 176 -35 l165 165 -138 138 c-76 75 -144 137 -151 137 -6 0 -13 -6 -16 -12z"/>
 <path d="M1426 2042 c-12 -20 82 -411 107 -440 8 -10 29 5 94 70 46 46 82 88 81 95 -4 15 -257 283 -268 283 -5 0 -11 -4 -14 -8z"/>
 <path d="M3541 1915 l-132 -136 82 -90 c45 -49 86 -86 90 -82 23 25 115 421 101 435 -5 5 -68 -52 -141 -127z"/>
 <path d="M3175 1550 l-160 -160 155 -155 c155 -155 155 -156 173 -134 32 40 125 213 168 314 l42 100 -103 97 c-57 54 -106 98 -109 98 -3 0 -78 -72 -166 -160z"/>
 <path d="M1671 1596 l-104 -105 32 -78 c38 -92 108 -224 159 -300 l36 -54 88 88 88 88 -25 75 c-15 41 -41 133 -60 205 -30 115 -37 132 -67 157 -18 15 -35 28 -38 28 -3 0 -52 -47 -109 -104z"/>
 <path d="M2907 1282 c-20 -21 -37 -47 -37 -57 0 -27 -66 -274 -86 -325 l-17 -42 81 -81 82 -82 37 20 c21 10 100 80 176 155 l138 135 -162 157 c-88 87 -164 158 -168 158 -4 0 -24 -17 -44 -38z"/>
 <path d="M1921 1065 l-73 -75 51 -59 c104 -120 265 -246 299 -234 10 3 27 15 39 26 l22 20 -40 45 c-56 64 -112 152 -166 260 -26 50 -49 92 -53 92 -4 0 -39 -34 -79 -75z"/>
 <path d="M2719 743 c-8 -10 -23 -30 -32 -46 -16 -24 -16 -28 -2 -33 18 -7 69 12 86 33 10 11 8 19 -12 39 -24 24 -26 24 -40 7z"/>
 </g>
<g id="layer109" fill="#ffff5f" stroke="none">
 <path d="M2686 4443 c-7 -8 19 -57 39 -73 15 -12 19 -11 36 10 10 14 17 29 16 34 -4 11 -84 36 -91 29z"/>
 <path d="M2001 4255 l-156 -154 70 -71 c38 -38 73 -70 77 -70 4 0 23 34 42 76 46 97 97 183 159 263 l49 63 -28 24 c-16 13 -35 23 -43 24 -8 0 -85 -70 -170 -155z"/>
 <path d="M2822 4317 l-53 -53 29 -90 c16 -49 42 -142 57 -206 24 -102 32 -121 61 -149 l34 -33 91 90 90 90 -56 111 c-50 102 -149 250 -186 280 -13 10 -24 3 -67 -40z"/>
 <path d="M1735 3973 c-41 -66 -124 -232 -155 -312 l-21 -54 110 -111 110 -111 34 33 c28 27 37 48 56 130 13 53 39 146 59 207 l34 110 -87 82 c-48 46 -90 83 -95 83 -5 0 -25 -26 -45 -57z"/>
 <path d="M3085 3800 l-67 -70 100 -108 c132 -142 140 -149 147 -130 10 26 -83 360 -104 373 -5 2 -39 -27 -76 -65z"/>
 <path d="M2931 3646 c-8 -10 -6 -55 8 -179 11 -92 23 -218 27 -282 4 -68 12 -119 19 -125 8 -7 51 31 148 129 75 75 137 142 137 148 0 14 -302 323 -316 323 -6 0 -17 -6 -23 -14z"/>
 <path d="M1520 3491 c-28 -54 -106 -410 -95 -439 4 -12 40 18 145 123 77 77 140 144 140 148 0 12 -161 187 -171 187 -5 0 -13 -9 -19 -19z"/>
 <path d="M1620 3095 l-165 -165 141 -141 c78 -78 146 -139 152 -135 5 3 13 63 17 133 4 71 15 202 25 293 18 156 18 180 2 180 -4 0 -81 -74 -172 -165z"/>
 <path d="M3161 3095 l-144 -144 38 -43 c21 -24 94 -98 163 -166 163 -161 160 -164 143 95 -14 218 -33 379 -47 393 -7 7 -60 -41 -153 -135z"/>
 <path d="M1392 2843 c-10 -24 -9 -573 1 -597 7 -17 29 1 162 134 85 85 155 160 155 167 0 14 -288 313 -302 313 -5 0 -12 -8 -16 -17z"/>
 <path d="M2997 2823 c-9 -9 -9 -518 0 -527 4 -4 69 55 145 130 l137 138 -133 133 c-74 73 -136 133 -138 133 -3 0 -8 -3 -11 -7z"/>
 <path d="M3176 2330 l-159 -159 91 -98 c142 -154 199 -207 207 -193 12 19 33 204 46 397 9 146 9 186 -1 198 -7 8 -15 15 -19 15 -4 0 -78 -72 -165 -160z"/>
 <path d="M1599 2299 c-74 -78 -135 -144 -137 -148 -1 -3 70 -78 158 -166 205 -204 199 -206 171 61 -11 104 -24 234 -28 288 -4 55 -13 101 -19 103 -6 2 -71 -60 -145 -138z"/>
 <path d="M2975 2048 c-2 -7 -6 -60 -10 -118 -3 -58 -15 -181 -26 -275 -28 -244 -32 -243 176 -35 l165 165 -138 138 c-76 75 -144 137 -151 137 -6 0 -13 -6 -16 -12z"/>
 <path d="M1426 2042 c-12 -20 82 -411 107 -440 8 -10 29 5 94 70 46 46 82 88 81 95 -4 15 -257 283 -268 283 -5 0 -11 -4 -14 -8z"/>
 <path d="M1671 1596 l-104 -105 32 -78 c38 -92 108 -224 159 -300 l36 -54 88 88 88 88 -25 75 c-15 41 -41 133 -60 205 -30 115 -37 132 -67 157 -18 15 -35 28 -38 28 -3 0 -52 -47 -109 -104z"/>
 <path d="M3135 1510 l-120 -120 69 -69 c38 -39 73 -68 77 -65 21 13 116 351 102 365 -5 5 -62 -45 -128 -111z"/>
 <path d="M2907 1282 c-20 -21 -37 -47 -37 -57 0 -27 -66 -274 -86 -325 l-17 -42 53 -53 c45 -45 56 -52 69 -42 37 30 136 178 186 280 l56 111 -88 83 c-48 46 -90 83 -93 83 -3 0 -23 -17 -43 -38z"/>
 <path d="M1921 1065 l-73 -75 51 -59 c104 -120 265 -246 299 -234 10 3 27 15 39 26 l22 20 -40 45 c-56 64 -112 152 -166 260 -26 50 -49 92 -53 92 -4 0 -39 -34 -79 -75z"/>
 <path d="M2719 743 c-8 -10 -23 -30 -32 -46 -16 -24 -16 -28 -2 -33 18 -7 69 12 86 33 10 11 8 19 -12 39 -24 24 -26 24 -40 7z"/>
 </g>
<g id="layer110" fill="#7dffc2" stroke="none">
 <path d="M2686 4443 c-7 -8 19 -57 39 -73 15 -12 19 -11 36 10 10 14 17 29 16 34 -4 11 -84 36 -91 29z"/>
 <path d="M2822 4317 l-53 -53 29 -90 c16 -49 42 -142 57 -206 24 -102 32 -121 61 -149 l34 -33 91 90 90 90 -56 111 c-50 102 -149 250 -186 280 -13 10 -24 3 -67 -40z"/>
 <path d="M3085 3800 l-67 -70 100 -108 c132 -142 140 -149 147 -130 10 26 -83 360 -104 373 -5 2 -39 -27 -76 -65z"/>
 <path d="M2931 3646 c-8 -10 -6 -55 8 -179 11 -92 23 -218 27 -282 4 -68 12 -119 19 -125 8 -7 51 31 148 129 75 75 137 142 137 148 0 14 -302 323 -316 323 -6 0 -17 -6 -23 -14z"/>
 <path d="M3161 3095 l-144 -144 38 -43 c21 -24 94 -98 163 -166 163 -161 160 -164 143 95 -14 218 -33 379 -47 393 -7 7 -60 -41 -153 -135z"/>
 <path d="M2997 2823 c-9 -9 -9 -518 0 -527 4 -4 69 55 145 130 l137 138 -133 133 c-74 73 -136 133 -138 133 -3 0 -8 -3 -11 -7z"/>
 <path d="M3176 2330 l-159 -159 91 -98 c142 -154 199 -207 207 -193 12 19 33 204 46 397 9 146 9 186 -1 198 -7 8 -15 15 -19 15 -4 0 -78 -72 -165 -160z"/>
 <path d="M2975 2048 c-2 -7 -6 -60 -10 -118 -3 -58 -15 -181 -26 -275 -28 -244 -32 -243 176 -35 l165 165 -138 138 c-76 75 -144 137 -151 137 -6 0 -13 -6 -16 -12z"/>
 <path d="M3135 1510 l-120 -120 69 -69 c38 -39 73 -68 77 -65 21 13 116 351 102 365 -5 5 -62 -45 -128 -111z"/>
 <path d="M2907 1282 c-20 -21 -37 -47 -37 -57 0 -27 -66 -274 -86 -325 l-17 -42 53 -53 c45 -45 56 -52 69 -42 37 30 136 178 186 280 l56 111 -88 83 c-48 46 -90 83 -93 83 -3 0 -23 -17 -43 -38z"/>
 <path d="M2719 743 c-8 -10 -23 -30 -32 -46 -16 -24 -16 -28 -2 -33 18 -7 69 12 86 33 10 11 8 19 -12 39 -24 24 -26 24 -40 7z"/>
 </g>

</svg>