<!DOCTYPE svg PUBLIC "-//W3C//DTD SVG 20010904//EN" "http://www.w3.org/TR/2001/REC-SVG-20010904/DTD/svg10.dtd">
<svg version="1.0" xmlns="http://www.w3.org/2000/svg" width="512px" height="512px" viewBox="0 0 5120 5120" preserveAspectRatio="xMidYMid meet">
<g id="layer101" fill="#000000" stroke="none">
 <path d="M1005 4554 c-43 -22 -82 -62 -110 -113 l-25 -44 0 -1643 c0 -1004 4 -1651 9 -1662 6 -9 22 -122 38 -251 25 -210 30 -238 51 -263 l24 -28 1568 0 1568 0 24 28 c21 25 26 53 51 263 16 129 32 242 38 251 5 11 9 658 9 1662 l0 1643 -26 46 c-27 50 -82 103 -121 118 -15 5 -628 9 -1546 9 -1358 0 -1525 -2 -1552 -16z"/>
 </g>
<g id="layer102" fill="#888888" stroke="none">
 <path d="M1047 4412 l-27 -28 2 -1580 3 -1579 1535 0 1535 0 3 1579 2 1580 -27 28 -27 28 -1486 0 -1486 0 -27 -28z m1733 -218 c265 -47 498 -171 683 -363 328 -340 433 -823 281 -1286 -113 -345 -424 -655 -769 -768 -255 -84 -491 -92 -734 -27 -141 37 -200 61 -296 117 -402 233 -635 632 -637 1088 -1 335 120 638 349 876 290 301 707 436 1123 363z m-1315 -2477 c36 -24 67 -67 75 -107 3 -14 12 -25 20 -25 8 0 17 11 20 25 8 41 39 84 78 110 30 19 50 24 104 24 60 0 71 -3 105 -31 56 -44 78 -88 78 -153 0 -65 -22 -109 -78 -153 -34 -28 -45 -31 -105 -31 -54 0 -74 5 -104 24 -39 26 -70 69 -78 110 -3 14 -12 25 -20 25 -8 0 -17 -11 -20 -25 -8 -41 -39 -84 -78 -110 -30 -19 -50 -24 -103 -24 -58 0 -72 4 -104 28 -102 78 -111 205 -20 293 24 23 56 44 72 46 50 9 124 -3 158 -26z"/>
 <path d="M2357 4085 c-377 -71 -698 -331 -850 -685 -65 -153 -82 -241 -81 -440 0 -184 12 -264 64 -398 144 -377 484 -658 874 -727 521 -90 1039 194 1249 685 65 153 81 241 81 440 0 149 -3 189 -22 265 -84 334 -307 609 -617 761 -161 79 -272 105 -465 110 -109 2 -178 -1 -233 -11z m308 -276 c238 -33 454 -158 581 -335 58 -81 119 -211 145 -309 27 -102 30 -285 6 -392 -78 -343 -343 -596 -692 -659 -102 -18 -181 -18 -290 1 -300 53 -543 251 -649 530 -48 124 -60 192 -59 320 1 179 60 359 167 508 124 174 343 303 571 336 86 12 133 12 220 0z"/>
 <path d="M2405 3686 c-191 -44 -375 -175 -475 -338 -38 -61 -27 -67 67 -38 92 29 236 36 338 17 109 -20 177 -48 282 -114 109 -69 186 -98 294 -113 94 -13 138 -9 254 22 113 31 114 32 81 117 -75 191 -259 362 -461 427 -99 32 -284 42 -380 20z m475 -261 l0 -55 -55 0 -55 0 0 55 0 55 55 0 55 0 0 -55z m140 -130 l0 -55 -60 0 -60 0 0 55 0 55 60 0 60 0 0 -55z"/>
 <path d="M2110 3223 c-14 -2 -62 -15 -106 -29 -45 -13 -93 -24 -106 -24 -60 0 -77 -48 -78 -210 0 -132 18 -209 77 -330 39 -82 59 -108 142 -191 99 -99 148 -131 291 -187 60 -24 77 -26 225 -27 150 0 165 2 234 27 127 47 199 94 296 192 95 96 141 169 185 296 25 70 41 273 23 291 -5 5 -46 -2 -103 -18 -80 -23 -113 -27 -210 -26 -172 1 -286 36 -430 132 -131 88 -301 128 -440 104z"/>
 <path d="M1335 1630 c-50 -19 -65 -85 -28 -121 27 -27 79 -28 105 -1 54 54 -7 151 -77 122z"/>
 <path d="M1735 1630 c-77 -30 -56 -145 26 -142 41 1 72 32 72 72 0 50 -53 88 -98 70z"/>
 <path d="M1035 1089 c-9 -14 35 -380 48 -396 7 -10 315 -13 1477 -13 1162 0 1470 3 1477 13 13 16 57 382 48 396 -9 15 -3041 15 -3050 0z m445 -194 l0 -55 -55 0 -55 0 0 55 0 55 55 0 55 0 0 -55z m270 0 l0 -55 -55 0 -55 0 0 55 0 55 55 0 55 0 0 -55z m270 0 l0 -55 -60 0 -60 0 0 55 0 55 60 0 60 0 0 -55z m260 0 l0 -55 -55 0 -55 0 0 55 0 55 55 0 55 0 0 -55z m270 0 l0 -55 -55 0 -55 0 0 55 0 55 55 0 55 0 0 -55z m380 35 c24 -24 25 -47 3 -72 -13 -15 -32 -18 -108 -18 -101 0 -117 8 -117 57 0 41 26 53 119 53 70 0 86 -3 103 -20z m400 0 c24 -24 25 -47 3 -72 -13 -15 -32 -18 -108 -18 -101 0 -115 7 -115 57 0 44 19 52 118 53 69 0 85 -3 102 -20z m398 4 c26 -18 28 -50 5 -76 -13 -15 -32 -18 -108 -18 -57 0 -95 4 -103 12 -18 18 -15 75 6 87 28 17 174 14 200 -5z"/>
 </g>
<g id="layer103" fill="#858897" stroke="none">
 <path d="M1075 4431 c-11 -5 -28 -17 -38 -28 -16 -19 -17 -106 -15 -1599 l3 -1579 1535 0 1535 0 3 1581 2 1580 -26 25 -26 24 -1476 2 c-812 1 -1486 -2 -1497 -6z m1607 -222 c234 -24 458 -112 639 -250 106 -80 159 -134 234 -234 79 -106 78 -105 134 -220 99 -203 143 -444 121 -658 -15 -145 -60 -307 -121 -432 -56 -115 -55 -113 -134 -220 -72 -97 -133 -157 -234 -233 -102 -76 -101 -75 -216 -131 -185 -90 -432 -140 -615 -126 -120 9 -296 48 -385 84 -28 11 -186 89 -210 104 -11 7 -52 36 -92 64 -285 209 -466 547 -498 933 -15 178 37 432 126 615 56 115 55 114 134 220 75 100 128 154 234 234 137 105 250 158 466 221 43 13 217 37 277 39 21 0 84 -4 140 -10z m-1220 -2489 c39 -26 70 -69 78 -110 3 -14 12 -25 20 -25 8 0 17 11 20 25 8 40 39 83 78 110 30 20 49 25 102 25 55 0 71 -4 107 -29 110 -74 110 -238 0 -312 -36 -25 -52 -29 -107 -29 -53 0 -72 5 -102 25 -39 27 -70 70 -78 110 -3 14 -12 25 -20 25 -8 0 -17 -11 -20 -25 -8 -40 -39 -83 -78 -110 -30 -20 -49 -25 -102 -25 -55 0 -71 4 -107 29 -158 107 -73 356 117 343 37 -2 67 -11 92 -27z"/>
 <path d="M2426 4093 c-2 -3 -19 -6 -38 -9 -51 -6 -150 -29 -181 -42 -16 -7 -33 -12 -38 -12 -5 0 -17 -4 -27 -9 -9 -5 -46 -23 -82 -41 -158 -77 -284 -179 -388 -314 -87 -114 -89 -116 -133 -206 -17 -36 -36 -73 -40 -82 -5 -10 -9 -22 -9 -27 0 -5 -5 -22 -12 -38 -6 -15 -12 -32 -13 -38 0 -5 -4 -17 -7 -25 -6 -14 -15 -60 -25 -125 -7 -44 -6 -293 1 -340 3 -22 10 -58 16 -80 7 -22 13 -48 14 -57 1 -10 5 -21 9 -24 4 -4 7 -14 7 -22 0 -17 20 -64 63 -150 44 -86 51 -99 69 -119 9 -10 17 -23 19 -30 12 -38 214 -243 239 -243 5 0 10 -5 10 -10 0 -6 8 -13 18 -17 9 -3 25 -13 35 -21 20 -18 34 -26 119 -69 88 -44 133 -63 151 -63 9 0 19 -5 22 -10 4 -6 11 -8 16 -4 5 3 15 1 22 -4 11 -9 50 -17 127 -28 48 -6 297 -6 340 0 87 13 116 19 127 28 7 5 17 7 22 4 5 -4 12 -2 16 4 3 5 13 10 22 10 17 0 61 18 148 61 83 42 87 45 200 131 78 59 119 99 180 180 90 116 91 118 136 208 17 36 36 73 40 82 5 10 9 22 9 27 0 5 5 22 12 38 6 15 12 33 13 38 0 6 4 17 7 25 6 14 15 60 25 125 3 17 5 91 5 165 0 74 -2 149 -5 165 -10 65 -19 111 -25 125 -3 8 -7 20 -7 25 -1 6 -7 23 -13 38 -7 16 -12 33 -12 38 0 5 -4 17 -9 27 -4 9 -23 46 -40 82 -44 90 -46 92 -133 206 -104 135 -230 237 -388 314 -36 18 -73 36 -82 41 -10 5 -22 9 -27 9 -5 0 -22 5 -38 12 -27 11 -116 33 -178 44 -39 6 -303 12 -309 7z m299 -287 c64 -10 127 -32 220 -77 239 -114 423 -361 463 -623 10 -67 6 -311 -6 -331 -4 -5 -7 -14 -7 -20 -1 -33 -66 -187 -108 -260 -35 -59 -135 -168 -203 -222 -52 -41 -226 -128 -284 -143 -82 -21 -104 -23 -245 -22 -159 0 -163 0 -190 12 -11 5 -36 11 -57 15 -20 3 -58 17 -85 31 -26 14 -70 38 -98 52 -85 44 -174 122 -249 217 -53 68 -116 185 -116 215 0 11 -4 21 -9 24 -7 5 -22 52 -25 81 -1 6 -4 15 -8 20 -13 22 -16 320 -3 351 4 10 9 26 11 34 9 47 27 107 38 129 7 14 21 42 30 61 73 156 207 289 386 384 58 30 163 64 219 71 25 3 47 7 49 10 6 6 228 -1 277 -9z"/>
 <path d="M2405 3686 c-191 -44 -375 -175 -475 -338 -38 -61 -27 -67 67 -38 92 29 236 36 338 17 109 -20 177 -48 282 -114 109 -69 186 -98 294 -113 94 -13 138 -9 254 22 113 31 114 32 81 117 -75 191 -259 362 -461 427 -99 32 -284 42 -380 20z m480 -256 l0 -60 -57 0 -58 0 0 54 0 55 53 4 c28 2 54 4 57 5 3 1 5 -25 5 -58z m135 -135 l0 -55 -60 0 -60 0 0 55 0 55 60 0 60 0 0 -55z"/>
 <path d="M2110 3220 c-25 -4 -72 -15 -105 -25 -33 -10 -79 -21 -103 -25 -24 -4 -46 -11 -51 -16 -29 -34 -41 -208 -21 -329 22 -137 101 -283 212 -391 83 -81 144 -121 243 -162 109 -44 180 -56 313 -49 130 6 175 18 302 80 70 34 102 59 181 137 79 79 102 109 136 180 23 47 49 107 58 135 17 51 33 241 22 268 -6 16 -13 15 -143 -24 -17 -5 -74 -12 -126 -16 -164 -10 -329 36 -475 134 -91 60 -169 91 -263 102 -92 12 -113 12 -180 1z"/>
 </g>
<g id="layer104" fill="#87cce8" stroke="none">
 <path d="M1041 4404 l-21 -27 2 -1576 3 -1576 1535 0 1535 0 3 1576 2 1576 -21 27 -20 26 -1499 0 -1499 0 -20 -26z m1702 -199 c99 -15 187 -37 242 -60 17 -7 55 -23 85 -35 123 -49 308 -177 400 -276 271 -292 392 -675 335 -1057 -76 -502 -424 -896 -914 -1031 -297 -82 -565 -57 -886 83 -89 40 -248 153 -336 241 -73 74 -229 285 -229 311 0 4 -15 41 -34 81 -45 98 -72 192 -91 315 -67 452 118 909 480 1184 75 57 183 121 255 149 30 12 69 28 85 35 153 65 408 90 608 60z m-1300 -2474 c49 -22 67 -41 91 -93 9 -21 21 -38 26 -38 5 0 18 19 29 43 22 48 41 67 93 90 67 31 173 12 220 -40 62 -68 62 -198 0 -266 -47 -52 -153 -71 -220 -40 -52 23 -71 42 -93 90 -11 24 -24 43 -29 43 -5 0 -18 -19 -29 -43 -22 -48 -41 -67 -93 -90 -67 -31 -173 -12 -220 40 -48 53 -61 149 -29 218 41 92 156 131 254 86z"/>
 <path d="M2405 3686 c-191 -44 -375 -175 -475 -338 -38 -61 -27 -67 67 -38 92 29 236 36 338 17 109 -20 177 -48 282 -114 109 -69 186 -98 294 -113 94 -13 138 -9 254 22 113 31 114 32 81 117 -75 191 -259 362 -461 427 -99 32 -284 42 -380 20z m480 -256 l0 -60 -57 0 -58 0 0 54 0 55 53 4 c28 2 54 4 57 5 3 1 5 -25 5 -58z m135 -135 l0 -55 -60 0 -60 0 0 55 0 55 60 0 60 0 0 -55z"/>
 <path d="M2145 3219 c-38 -4 -122 -20 -185 -37 -106 -28 -115 -32 -123 -58 -17 -54 -13 -283 7 -354 86 -319 386 -549 714 -550 224 0 454 115 590 296 97 129 139 244 149 406 5 80 3 99 -9 103 -8 3 -57 -6 -109 -20 -159 -42 -347 -31 -486 31 -29 12 -85 44 -125 71 -40 26 -86 54 -103 61 -91 42 -211 61 -320 51z"/>
 </g>
<g id="layer105" fill="#a1a1a1" stroke="none">
 <path d="M1041 4404 l-21 -27 2 -1576 3 -1576 1535 0 1535 0 3 1576 2 1576 -21 27 -20 26 -1499 0 -1499 0 -20 -26z m1702 -199 c99 -15 187 -37 242 -60 17 -7 55 -23 85 -35 123 -49 308 -177 400 -276 271 -292 392 -675 335 -1057 -76 -502 -424 -896 -914 -1031 -297 -82 -565 -57 -886 83 -89 40 -248 153 -336 241 -73 74 -229 285 -229 311 0 4 -15 41 -34 81 -45 98 -72 192 -91 315 -67 452 118 909 480 1184 75 57 183 121 255 149 30 12 69 28 85 35 153 65 408 90 608 60z m-1300 -2474 c49 -22 67 -41 91 -93 9 -21 21 -38 26 -38 5 0 18 19 29 43 22 48 41 67 93 90 67 31 173 12 220 -40 62 -68 62 -198 0 -266 -47 -52 -153 -71 -220 -40 -52 23 -71 42 -93 90 -11 24 -24 43 -29 43 -5 0 -18 -19 -29 -43 -22 -48 -41 -67 -93 -90 -67 -31 -173 -12 -220 40 -48 53 -61 149 -29 218 41 92 156 131 254 86z"/>
 <path d="M2145 3219 c-38 -4 -122 -20 -185 -37 -106 -28 -115 -32 -123 -58 -17 -54 -13 -283 7 -354 86 -319 386 -549 714 -550 224 0 454 115 590 296 97 129 139 244 149 406 5 80 3 99 -9 103 -8 3 -57 -6 -109 -20 -159 -42 -347 -31 -486 31 -29 12 -85 44 -125 71 -40 26 -86 54 -103 61 -91 42 -211 61 -320 51z"/>
 </g>
<g id="layer106" fill="#cbeefa" stroke="none">
 <path d="M2124 3213 c-49 -7 -100 -17 -114 -23 -14 -6 -56 -16 -95 -23 l-70 -13 -8 -50 c-20 -116 -5 -328 29 -392 8 -15 14 -35 14 -44 0 -19 75 -132 129 -195 34 -38 131 -122 176 -151 18 -11 47 -25 110 -51 142 -60 375 -58 531 5 260 104 431 326 463 599 14 114 14 117 -2 139 -12 17 -16 17 -74 -2 -33 -11 -95 -26 -137 -32 -152 -25 -360 23 -496 115 -119 79 -159 95 -291 118 -62 10 -92 10 -165 0z"/>
 </g>

</svg>