<!DOCTYPE svg PUBLIC "-//W3C//DTD SVG 20010904//EN" "http://www.w3.org/TR/2001/REC-SVG-20010904/DTD/svg10.dtd">
<svg version="1.0" xmlns="http://www.w3.org/2000/svg" width="512px" height="512px" viewBox="0 0 5120 5120" preserveAspectRatio="xMidYMid meet">
<g id="layer101" fill="#000000" stroke="none">
 <path d="M1079 4501 c-113 -31 -170 -89 -200 -204 -18 -69 -19 -147 -19 -1737 0 -1590 1 -1668 19 -1737 31 -117 87 -174 205 -204 67 -18 142 -19 1476 -19 1334 0 1409 1 1476 19 118 30 174 87 205 204 18 69 19 147 19 1737 0 1590 -1 1668 -19 1737 -31 117 -87 174 -205 204 -67 18 -141 19 -1481 18 -1312 -1 -1415 -2 -1476 -18z m2988 -174 l38 -37 0 -1724 c0 -1871 4 -1754 -54 -1793 -25 -17 -110 -18 -1493 -18 l-1468 0 -37 38 -38 37 -3 1693 c-2 930 0 1711 3 1734 7 47 49 99 88 106 12 2 676 4 1474 3 l1453 -1 37 -38z"/>
 <path d="M3045 3310 c506 -506 921 -920 922 -920 2 0 3 414 3 920 l0 920 -922 0 -923 0 920 -920z"/>
 <path d="M1150 3085 l0 -440 878 -878 877 -877 438 2 437 3 -1315 1315 -1315 1315 0 -440z"/>
 <path d="M1150 1410 l0 -520 522 0 523 0 -520 520 c-286 286 -521 520 -522 520 -2 0 -3 -234 -3 -520z"/>
 </g>
<g id="layer102" fill="#ffffff" stroke="none">
 <path d="M1103 4363 c-39 -7 -81 -59 -88 -106 -3 -23 -5 -804 -3 -1734 l3 -1693 38 -37 37 -38 1468 0 c1383 0 1468 1 1493 18 58 39 54 -78 54 1793 l0 1724 -38 37 -37 38 -1453 1 c-798 1 -1462 -1 -1474 -3z"/>
 </g>
<g id="layer103" fill="#4b4b4b" stroke="none" opacity="0.1">
 <path d="M1643 4232 l-493 -2 0 -1670 0 -1670 520 0 c286 0 880 0 1320 0 440 0 841 0 890 0 l90 0 0 1670 0 1670 -917 2 c-505 2 -1140 2 -1410 0z"/>
 </g>
<g id="layer104" fill="#8b8b8b" stroke="none" opacity="0.1">
 <path d="M3045 3310 c506 -506 921 -920 922 -920 2 0 3 414 3 920 l0 920 -922 0 -923 0 920 -920z"/>
 <path d="M1150 3085 l0 -440 878 -878 877 -877 438 2 437 3 -1315 1315 -1315 1315 0 -440z"/>
 <path d="M1150 1410 l0 -520 522 0 523 0 -520 520 c-286 286 -521 520 -522 520 -2 0 -3 -234 -3 -520z"/>
 </g>

</svg>