<!DOCTYPE svg PUBLIC "-//W3C//DTD SVG 20010904//EN" "http://www.w3.org/TR/2001/REC-SVG-20010904/DTD/svg10.dtd">
<svg version="1.0" xmlns="http://www.w3.org/2000/svg" width="512px" height="512px" viewBox="0 0 5120 5120" preserveAspectRatio="xMidYMid meet">
<g id="layer101" fill="#000000" stroke="none">
 <path d="M1460 4544 c-225 -50 -397 -143 -564 -304 -143 -137 -238 -296 -303 -505 l-28 -90 -3 -536 -3 -536 26 -31 c26 -32 76 -52 128 -52 23 0 27 -4 27 -28 0 -24 -7 -32 -39 -47 -48 -21 -92 -66 -121 -123 -32 -61 -26 -179 12 -237 l26 -41 -29 -54 c-46 -90 -34 -150 31 -150 32 0 55 24 83 86 l18 39 84 0 85 0 17 -35 c38 -75 53 -90 87 -90 36 0 66 25 66 56 0 10 -14 46 -31 80 l-30 62 25 41 c15 23 31 63 37 89 24 113 -49 245 -156 283 -29 11 -35 18 -35 41 0 24 4 28 28 28 49 0 98 19 128 51 l29 30 5 487 c6 467 7 490 28 550 35 103 83 182 154 257 114 120 243 181 402 191 285 18 540 -154 630 -425 24 -75 28 -104 33 -263 l6 -178 -104 0 c-57 0 -122 -5 -144 -11 -51 -14 -110 -73 -124 -124 -15 -55 -15 -935 0 -990 14 -51 73 -110 124 -124 22 -6 86 -11 143 -11 l102 0 0 -169 c0 -251 32 -391 137 -593 108 -210 297 -395 513 -503 239 -120 561 -141 830 -54 156 51 300 140 434 269 143 137 238 296 303 505 l28 90 3 536 3 536 -26 31 c-26 32 -76 52 -127 52 -24 0 -28 4 -28 28 0 24 7 32 39 47 48 21 92 66 121 123 32 61 26 179 -12 237 l-26 41 29 54 c46 90 34 150 -31 150 -32 0 -55 -24 -83 -86 l-18 -39 -84 0 -85 0 -17 35 c-38 75 -53 90 -87 90 -36 0 -66 -25 -66 -56 0 -10 14 -46 31 -80 l30 -62 -25 -41 c-15 -23 -31 -63 -37 -89 -24 -113 49 -245 156 -283 29 -11 35 -18 35 -41 0 -24 -4 -28 -27 -28 -50 0 -99 -19 -129 -51 l-29 -30 -5 -487 c-6 -467 -7 -490 -28 -550 -35 -103 -83 -182 -154 -257 -114 -120 -243 -181 -402 -191 -285 -18 -540 154 -630 425 -24 75 -28 104 -33 263 l-6 178 104 0 c57 0 122 5 144 11 51 14 110 73 124 124 15 55 15 935 0 990 -14 51 -73 110 -124 124 -22 6 -86 11 -142 11 l-103 0 0 169 c0 251 -32 391 -137 593 -141 274 -396 484 -698 574 -81 24 -109 27 -270 30 -131 2 -198 -1 -245 -12z"/>
 </g>
<g id="layer102" fill="#132111" stroke="none">
 <path d="M1480 4421 c-371 -81 -654 -346 -767 -716 l-27 -90 -4 -498 -3 -498 128 3 128 3 6 475 c4 351 8 485 18 515 57 173 140 302 259 401 219 181 539 217 794 88 193 -96 311 -235 384 -451 25 -72 28 -94 32 -275 l4 -198 129 0 129 0 0 128 c0 143 -13 272 -35 360 -90 349 -365 635 -712 738 -121 36 -337 43 -463 15z"/>
 <path d="M4248 3184 c-21 -6 -21 -6 -7 -38 10 -20 9 -30 -5 -51 -21 -31 -61 -33 -92 -4 l-22 21 -26 -41 c-66 -103 -53 -219 33 -314 28 -31 96 -70 112 -65 5 2 10 63 12 136 2 119 4 135 21 148 27 19 60 18 79 -4 14 -15 17 -42 17 -150 0 -85 4 -132 10 -132 21 0 86 39 111 67 50 53 69 102 69 178 0 52 -5 81 -21 110 -30 57 -36 61 -57 42 -25 -23 -65 -21 -87 4 -16 17 -17 24 -7 51 6 18 10 34 7 36 -6 7 -128 11 -147 6z"/>
 <path d="M2100 3057 c-50 -25 -50 -30 -48 -509 l3 -447 23 -23 23 -23 459 0 459 0 23 23 23 23 0 459 0 459 -23 23 -23 23 -447 3 c-346 1 -453 -1 -472 -11z m504 -149 c25 -39 136 -327 136 -353 0 -41 -34 -55 -131 -55 l-87 0 51 -126 c47 -119 50 -129 36 -153 -20 -36 -72 -41 -93 -9 -25 39 -136 327 -136 353 0 41 34 55 131 55 l88 0 -50 122 c-27 67 -49 127 -49 133 0 6 7 21 16 33 21 30 69 30 88 0z"/>
 <path d="M4190 2493 c0 -5 0 -177 0 -384 0 -411 -8 -535 -46 -649 -107 -318 -383 -521 -709 -521 -330 0 -610 210 -716 536 -19 60 -23 98 -27 268 l-4 197 -129 0 -129 0 0 -133 c0 -143 12 -265 36 -357 89 -348 366 -635 709 -735 122 -36 311 -45 438 -21 382 73 680 343 794 721 l27 90 4 498 3 497 -125 0 c-69 0 -126 -3 -126 -7z"/>
 <path d="M690 2410 c-44 -23 -82 -63 -109 -115 -29 -55 -29 -165 0 -220 30 -57 36 -61 57 -42 25 23 65 21 87 -4 16 -17 17 -24 7 -51 -6 -18 -9 -34 -6 -37 8 -8 151 -8 159 0 3 4 0 18 -6 32 -10 22 -9 31 5 52 21 31 61 33 92 4 l22 -21 26 41 c66 103 53 219 -33 314 -28 31 -96 70 -112 65 -5 -2 -10 -63 -12 -136 -2 -119 -4 -135 -21 -148 -27 -19 -60 -18 -79 4 -14 15 -17 42 -17 150 0 145 0 145 -60 112z"/>
 </g>
<g id="layer103" fill="#2c3a2a" stroke="none">
 <path d="M1553 4300 c-361 -53 -663 -347 -729 -710 -10 -56 -13 -189 -14 -523 l0 -448 63 3 62 3 2 455 c1 254 6 473 11 495 39 159 116 297 224 401 65 62 179 141 218 151 14 3 30 9 35 13 44 34 258 54 386 37 54 -8 68 -12 126 -38 24 -10 48 -19 54 -19 15 0 120 -67 183 -116 85 -68 142 -153 221 -327 9 -21 14 -41 11 -44 -3 -4 -2 -11 3 -17 11 -13 31 -181 31 -256 l0 -50 40 0 c28 0 47 7 61 21 20 20 21 29 16 128 -10 169 -58 315 -152 457 -63 94 -185 214 -271 266 -169 103 -384 147 -581 118z"/>
 <path d="M4248 3184 c-21 -6 -21 -6 -7 -38 10 -20 9 -30 -5 -51 -21 -31 -61 -33 -92 -4 l-22 21 -26 -41 c-66 -103 -53 -219 33 -314 28 -31 96 -70 112 -65 5 2 10 63 12 136 2 119 4 135 21 148 27 19 60 18 79 -4 14 -15 17 -42 17 -150 0 -85 4 -132 10 -132 21 0 86 39 111 67 50 53 69 102 69 178 0 52 -5 81 -21 110 -30 57 -36 61 -57 42 -25 -23 -65 -21 -87 4 -16 17 -17 24 -7 51 6 18 10 34 7 36 -6 7 -128 11 -147 6z"/>
 <path d="M2100 3057 c-50 -25 -50 -30 -48 -509 l3 -447 23 -23 23 -23 459 0 459 0 23 23 23 23 0 459 0 459 -23 23 -23 23 -447 3 c-346 1 -453 -1 -472 -11z m504 -149 c25 -39 136 -327 136 -353 0 -41 -34 -55 -131 -55 l-87 0 51 -126 c47 -119 50 -129 36 -153 -20 -36 -72 -41 -93 -9 -25 39 -136 327 -136 353 0 41 34 55 131 55 l88 0 -50 122 c-27 67 -49 127 -49 133 0 6 7 21 16 33 21 30 69 30 88 0z"/>
 <path d="M4308 2023 c-4 -459 -5 -481 -27 -557 -169 -598 -848 -845 -1346 -491 -218 155 -355 412 -372 694 -7 121 -19 141 -82 141 l-39 0 -4 -77 c-4 -87 24 -290 47 -340 8 -17 15 -36 15 -42 0 -6 4 -19 9 -29 5 -9 15 -32 22 -51 7 -19 28 -56 46 -82 18 -27 33 -52 33 -56 0 -13 106 -133 165 -188 30 -27 80 -68 112 -90 57 -39 180 -105 196 -105 5 0 23 -6 40 -14 35 -15 104 -34 152 -41 59 -9 279 -12 309 -4 17 4 71 18 120 30 49 11 97 24 105 29 9 4 37 17 63 28 64 29 210 134 271 196 84 85 148 174 198 276 12 25 26 53 31 63 10 19 45 152 54 202 3 17 8 245 11 508 l5 477 -66 0 -65 0 -3 -477z"/>
 <path d="M4195 2085 c0 -225 1 -319 2 -208 2 111 2 295 0 410 -1 114 -2 24 -2 -202z"/>
 <path d="M690 2410 c-44 -23 -82 -63 -109 -115 -29 -55 -29 -165 0 -220 30 -57 36 -61 57 -42 25 23 65 21 87 -4 16 -17 17 -24 7 -51 -6 -18 -9 -34 -6 -37 8 -8 151 -8 159 0 3 4 0 18 -6 32 -10 22 -9 31 5 52 21 31 61 33 92 4 l22 -21 26 41 c66 103 53 219 -33 314 -28 31 -96 70 -112 65 -5 -2 -10 -63 -12 -136 -2 -119 -4 -135 -21 -148 -27 -19 -60 -18 -79 4 -14 15 -17 42 -17 150 0 145 0 145 -60 112z"/>
 </g>
<g id="layer104" fill="#d3953f" stroke="none">
 <path d="M4248 3184 c-21 -6 -21 -6 -7 -38 10 -20 9 -30 -5 -51 -21 -31 -61 -33 -92 -4 l-22 21 -26 -41 c-66 -103 -53 -219 33 -314 28 -31 96 -70 112 -65 5 2 10 63 12 136 2 119 4 135 21 148 27 19 60 18 79 -4 14 -15 17 -42 17 -150 0 -85 4 -132 10 -132 21 0 86 39 111 67 50 53 69 102 69 178 0 52 -5 81 -21 110 -30 57 -36 61 -57 42 -25 -23 -65 -21 -87 4 -16 17 -17 24 -7 51 6 18 10 34 7 36 -6 7 -128 11 -147 6z"/>
 <path d="M2100 3057 c-50 -25 -50 -30 -48 -509 l3 -447 23 -23 23 -23 459 0 459 0 23 23 23 23 0 459 0 459 -23 23 -23 23 -447 3 c-346 1 -453 -1 -472 -11z m504 -149 c25 -39 136 -327 136 -353 0 -41 -34 -55 -131 -55 l-87 0 51 -126 c47 -119 50 -129 36 -153 -20 -36 -72 -41 -93 -9 -25 39 -136 327 -136 353 0 41 34 55 131 55 l88 0 -50 122 c-27 67 -49 127 -49 133 0 6 7 21 16 33 21 30 69 30 88 0z"/>
 <path d="M690 2410 c-44 -23 -82 -63 -109 -115 -29 -55 -29 -165 0 -220 30 -57 36 -61 57 -42 25 23 65 21 87 -4 16 -17 17 -24 7 -51 -6 -18 -9 -34 -6 -37 8 -8 151 -8 159 0 3 4 0 18 -6 32 -10 22 -9 31 5 52 21 31 61 33 92 4 l22 -21 26 41 c66 103 53 219 -33 314 -28 31 -96 70 -112 65 -5 -2 -10 -63 -12 -136 -2 -119 -4 -135 -21 -148 -27 -19 -60 -18 -79 4 -14 15 -17 42 -17 150 0 145 0 145 -60 112z"/>
 </g>
<g id="layer105" fill="#ecae58" stroke="none">
 <path d="M4254 3182 c-7 -4 -11 -27 -10 -50 0 -33 -4 -47 -19 -58 -29 -21 -61 -17 -84 12 l-20 25 -26 -40 c-65 -103 -52 -219 34 -314 28 -31 96 -70 113 -65 6 2 10 52 9 134 -2 126 -1 130 23 153 18 17 32 22 50 17 41 -10 49 -40 47 -166 -1 -63 3 -121 7 -128 8 -11 16 -10 48 6 47 24 85 63 113 117 30 56 29 161 -1 221 -23 47 -34 52 -64 29 -49 -37 -100 -1 -91 64 4 34 2 40 -17 45 -30 8 -99 7 -112 -2z"/>
 <path d="M2100 3057 c-50 -25 -50 -30 -48 -509 l3 -447 23 -23 c18 -19 36 -23 96 -26 l75 -4 1 255 c0 192 4 267 15 304 23 77 81 152 160 205 49 33 70 53 69 67 0 11 4 17 9 14 6 -4 8 1 4 11 -4 9 -3 15 2 11 6 -3 13 0 18 7 4 7 19 13 33 13 14 0 29 -6 33 -13 5 -7 13 -9 19 -6 6 4 8 3 5 -4 -4 -5 -4 -17 -1 -26 5 -13 37 -15 231 -15 l225 0 -4 74 c-3 61 -7 79 -26 97 l-23 23 -447 3 c-346 1 -453 -1 -472 -11z"/>
 <path d="M690 2410 c-44 -23 -82 -63 -109 -115 -29 -55 -29 -165 0 -220 31 -58 36 -61 62 -37 49 46 104 13 94 -57 -6 -44 4 -51 78 -51 55 0 63 8 61 58 0 33 4 47 19 58 29 22 61 17 83 -13 l19 -27 27 42 c66 104 54 219 -33 315 -28 31 -96 70 -113 65 -6 -2 -10 -52 -9 -134 2 -126 1 -130 -23 -153 -18 -17 -32 -22 -50 -17 -41 10 -50 40 -47 161 2 104 -3 146 -18 145 -3 -1 -22 -9 -41 -20z"/>
 </g>
<g id="layer106" fill="#ffc872" stroke="none">
 <path d="M4254 3182 c-7 -4 -11 -27 -10 -50 0 -33 -4 -47 -19 -58 -29 -21 -61 -17 -84 12 l-20 25 -26 -40 c-65 -103 -52 -219 34 -314 28 -31 96 -70 113 -65 6 2 10 52 9 134 -2 126 -1 130 23 153 18 17 32 22 50 17 41 -10 49 -40 47 -166 -1 -63 3 -121 7 -128 8 -11 16 -10 48 6 47 24 85 63 113 117 30 56 29 161 -1 221 -23 47 -34 52 -64 29 -49 -37 -100 -1 -91 64 4 34 2 40 -17 45 -30 8 -99 7 -112 -2z"/>
 <path d="M690 2410 c-44 -23 -82 -63 -109 -115 -29 -55 -29 -165 0 -220 31 -58 36 -61 62 -37 49 46 104 13 94 -57 -6 -44 4 -51 78 -51 55 0 63 8 61 58 0 33 4 47 19 58 29 22 61 17 83 -13 l19 -27 27 42 c66 104 54 219 -33 315 -28 31 -96 70 -113 65 -6 -2 -10 -52 -9 -134 2 -126 1 -130 -23 -153 -18 -17 -32 -22 -50 -17 -41 10 -50 40 -47 161 2 104 -3 146 -18 145 -3 -1 -22 -9 -41 -20z"/>
 </g>

</svg>