<!DOCTYPE svg PUBLIC "-//W3C//DTD SVG 20010904//EN" "http://www.w3.org/TR/2001/REC-SVG-20010904/DTD/svg10.dtd">
<svg version="1.0" xmlns="http://www.w3.org/2000/svg" width="512px" height="512px" viewBox="0 0 5120 5120" preserveAspectRatio="xMidYMid meet">
<g id="layer101" fill="#000000" stroke="none">
 <path d="M0 2560 l0 -2560 2560 0 2560 0 0 2560 0 2560 -2560 0 -2560 0 0 -2560z"/>
 </g>
<g id="layer102" fill="#4b4b4b" stroke="none">
 <path d="M70 5064 l0 -56 43 33 c23 18 55 43 70 56 l29 23 -71 0 -71 0 0 -56z"/>
 <path d="M193 5022 l-123 -97 0 -122 c0 -68 2 -123 5 -123 3 0 59 43 126 94 l121 95 118 -95 c65 -51 121 -94 124 -94 3 0 6 55 6 123 l0 122 -124 98 c-69 53 -126 97 -128 96 -2 0 -58 -44 -125 -97z"/>
 <path d="M457 5098 c17 -13 50 -38 72 -56 l41 -34 0 56 0 56 -72 0 -72 0 31 -22z"/>
 <path d="M640 4480 l0 -640 -320 0 -320 0 0 -1280 0 -1280 320 0 320 0 0 -640 0 -640 1920 0 1920 0 0 640 0 640 320 0 320 0 0 1280 0 1280 -320 0 -320 0 0 640 0 640 -1920 0 -1920 0 0 -640z"/>
 <path d="M4550 5064 l0 -56 43 33 c23 18 55 43 70 56 l29 23 -71 0 -71 0 0 -56z"/>
 <path d="M4673 5022 l-123 -97 0 -122 c0 -68 2 -123 5 -123 3 0 59 43 126 94 l121 95 118 -95 c65 -51 121 -94 124 -94 3 0 6 55 6 123 l0 122 -124 98 c-69 53 -126 97 -128 96 -2 0 -58 -44 -125 -97z"/>
 <path d="M4937 5098 c17 -13 50 -38 72 -56 l41 -34 0 56 0 56 -72 0 -72 0 31 -22z"/>
 <path d="M193 4684 l-123 -95 0 -110 0 -110 61 48 c34 26 83 65 109 85 81 63 92 59 298 -107 l32 -26 0 109 0 110 -47 35 c-27 20 -82 63 -123 96 -41 34 -77 61 -80 60 -3 0 -60 -43 -127 -95z"/>
 <path d="M4673 4684 l-123 -95 0 -110 0 -110 61 48 c34 26 83 65 109 85 81 63 92 59 298 -107 l32 -26 0 109 0 110 -47 35 c-27 20 -82 63 -123 96 -41 34 -77 61 -80 60 -3 0 -60 -43 -127 -95z"/>
 <path d="M193 4382 l-123 -97 0 -122 c0 -68 2 -123 5 -123 3 0 59 43 126 94 l121 95 118 -95 c65 -51 121 -94 124 -94 3 0 6 55 6 123 l0 122 -124 98 c-69 53 -126 97 -128 96 -2 0 -58 -44 -125 -97z"/>
 <path d="M4673 4382 l-123 -97 0 -122 c0 -68 2 -123 5 -123 3 0 59 43 126 94 l121 95 118 -95 c65 -51 121 -94 124 -94 3 0 6 55 6 123 l0 122 -124 98 c-69 53 -126 97 -128 96 -2 0 -58 -44 -125 -97z"/>
 <path d="M193 4044 c-178 -138 -182 -134 127 -134 239 0 250 1 250 19 0 11 -20 34 -47 54 -27 20 -82 63 -123 96 -41 34 -77 61 -80 60 -3 0 -60 -43 -127 -95z"/>
 <path d="M4673 4044 c-178 -138 -182 -134 127 -134 239 0 250 1 250 19 0 11 -20 34 -47 54 -27 20 -82 63 -123 96 -41 34 -77 61 -80 60 -3 0 -60 -43 -127 -95z"/>
 <path d="M70 1191 c0 -11 15 -30 33 -42 17 -13 57 -44 87 -69 30 -26 72 -59 92 -74 l37 -28 126 97 c180 139 184 135 -125 135 -240 0 -250 -1 -250 -19z"/>
 <path d="M4550 1191 c0 -11 15 -30 33 -42 17 -13 57 -44 87 -69 30 -26 72 -59 92 -74 l37 -28 126 97 c180 139 184 135 -125 135 -240 0 -250 -1 -250 -19z"/>
 <path d="M70 957 l0 -122 125 -98 124 -98 125 98 126 98 0 123 c0 67 -2 122 -5 122 -3 0 -59 -43 -126 -94 l-121 -95 -118 95 c-65 51 -121 94 -124 94 -3 0 -6 -55 -6 -123z"/>
 <path d="M4550 957 l0 -122 125 -98 124 -98 125 98 126 98 0 123 c0 67 -2 122 -5 122 -3 0 -59 -43 -126 -94 l-121 -95 -118 95 c-65 51 -121 94 -124 94 -3 0 -6 -55 -6 -123z"/>
 <path d="M70 641 l0 -110 32 -22 c18 -13 58 -44 88 -69 30 -26 72 -59 92 -74 l37 -28 126 97 125 96 0 110 0 110 -49 -38 c-26 -21 -75 -59 -109 -85 -35 -28 -72 -48 -89 -50 -28 -2 -77 31 -220 147 l-33 26 0 -110z"/>
 <path d="M4550 641 l0 -110 33 -22 c17 -13 57 -44 87 -69 30 -26 72 -59 92 -74 l37 -28 126 97 125 96 0 110 0 110 -49 -38 c-26 -21 -75 -59 -109 -85 -35 -28 -72 -48 -89 -50 -28 -2 -77 31 -220 147 l-33 26 0 -110z"/>
 <path d="M70 317 l0 -122 125 -98 124 -98 125 98 126 98 0 123 c0 67 -2 122 -5 122 -3 0 -59 -43 -126 -94 l-121 -95 -118 95 c-65 51 -121 94 -124 94 -3 0 -6 -55 -6 -123z"/>
 <path d="M4550 317 l0 -122 125 -98 124 -98 125 98 126 98 0 123 c0 67 -2 122 -5 122 -3 0 -59 -43 -126 -94 l-121 -95 -118 95 c-65 51 -121 94 -124 94 -3 0 -6 -55 -6 -123z"/>
 <path d="M70 56 l0 -56 72 0 72 0 -31 22 c-17 13 -50 38 -72 56 l-41 34 0 -56z"/>
 <path d="M496 55 l-69 -55 71 0 72 0 0 55 c0 30 -1 55 -2 55 -2 -1 -34 -25 -72 -55z"/>
 <path d="M4550 56 l0 -56 72 0 72 0 -31 22 c-17 13 -50 38 -72 56 l-41 34 0 -56z"/>
 <path d="M4976 55 l-69 -55 71 0 72 0 0 55 c0 30 -1 55 -2 55 -2 -1 -34 -25 -72 -55z"/>
 </g>
<g id="layer103" fill="#8b8b8b" stroke="none">
 <path d="M70 5065 l0 -55 58 46 c31 26 61 50 66 55 6 5 -18 9 -57 9 l-67 0 0 -55z"/>
 <path d="M452 5111 c3 -10 104 -91 113 -91 3 0 5 23 5 50 l0 50 -61 0 c-33 0 -59 -4 -57 -9z"/>
 <path d="M4550 5065 l0 -55 58 46 c31 26 61 50 67 55 5 5 -19 9 -58 9 l-67 0 0 -55z"/>
 <path d="M4932 5111 c3 -10 104 -91 113 -91 3 0 5 23 5 50 l0 50 -61 0 c-33 0 -59 -4 -57 -9z"/>
 <path d="M188 5017 l-118 -92 0 -122 c0 -68 2 -123 5 -123 3 0 59 43 126 94 l121 95 118 -95 c65 -51 121 -94 124 -94 3 0 6 55 6 123 l0 123 -115 89 c-63 50 -123 91 -132 92 -10 2 -71 -39 -135 -90z"/>
 <path d="M4668 5017 l-118 -92 0 -122 c0 -68 2 -123 5 -123 3 0 59 43 126 94 l121 95 118 -95 c65 -51 121 -94 124 -94 3 0 6 55 6 123 l0 123 -115 89 c-63 50 -123 91 -132 92 -10 2 -71 -39 -135 -90z"/>
 <path d="M640 4800 l0 -180 1920 0 1920 0 0 180 0 180 -1920 0 -1920 0 0 -180z"/>
 <path d="M264 4737 c-28 -23 -83 -67 -123 -97 l-71 -55 0 -108 0 -108 47 38 c27 21 72 58 100 81 66 54 103 68 135 51 13 -6 64 -45 115 -85 50 -41 94 -74 97 -74 3 0 6 46 5 103 l0 102 -57 45 c-93 74 -192 150 -195 150 -1 0 -25 -19 -53 -43z"/>
 <path d="M4744 4737 c-28 -23 -83 -67 -123 -97 l-71 -55 0 -108 0 -108 48 38 c26 21 71 58 99 81 66 54 103 68 135 51 13 -6 64 -45 115 -85 50 -41 94 -74 97 -74 3 0 6 46 5 103 l0 102 -57 45 c-93 74 -192 150 -195 150 -1 0 -25 -19 -53 -43z"/>
 <path d="M193 4382 l-123 -97 0 -122 c0 -68 2 -123 5 -123 3 0 59 43 126 94 l121 95 118 -95 c65 -51 121 -94 124 -94 3 0 6 55 6 123 l0 122 -124 98 c-69 53 -126 97 -128 96 -2 0 -58 -44 -125 -97z"/>
 <path d="M4673 4382 l-123 -97 0 -122 c0 -68 2 -123 5 -123 3 0 59 43 126 94 l121 95 118 -95 c65 -51 121 -94 124 -94 3 0 6 55 6 123 l0 122 -124 98 c-69 53 -126 97 -128 96 -2 0 -58 -44 -125 -97z"/>
 <path d="M640 4160 l0 -180 1920 0 1920 0 0 180 0 180 -1920 0 -1920 0 0 -180z"/>
 <path d="M264 4097 c-28 -23 -83 -67 -123 -97 -116 -90 -115 -90 179 -90 289 0 292 1 192 80 -93 74 -192 150 -195 150 -1 0 -25 -19 -53 -43z"/>
 <path d="M4744 4097 c-28 -23 -83 -67 -123 -97 -116 -90 -115 -90 179 -90 289 0 292 1 192 80 -93 74 -192 150 -195 150 -1 0 -25 -19 -53 -43z"/>
 <path d="M140 2560 l0 -1280 180 0 180 0 0 1280 0 1280 -180 0 -180 0 0 -1280z"/>
 <path d="M4620 2560 l0 -1280 180 0 180 0 0 1280 0 1280 -180 0 -180 0 0 -1280z"/>
 <path d="M640 3520 l0 -180 1920 0 1920 0 0 180 0 180 -1920 0 -1920 0 0 -180z"/>
 <path d="M640 2880 l0 -180 1920 0 1920 0 0 180 0 180 -1920 0 -1920 0 0 -180z"/>
 <path d="M640 2240 l0 -180 1920 0 1920 0 0 180 0 180 -1920 0 -1920 0 0 -180z"/>
 <path d="M640 1600 l0 -180 1920 0 1920 0 0 180 0 180 -1920 0 -1920 0 0 -180z"/>
 <path d="M71 1193 c0 -17 27 -41 182 -161 l69 -53 53 43 c29 24 84 68 124 98 116 90 115 90 -179 90 -232 0 -250 -1 -249 -17z"/>
 <path d="M4551 1193 c0 -17 27 -41 182 -161 l69 -53 53 43 c29 24 84 68 124 98 116 90 115 90 -179 90 -232 0 -250 -1 -249 -17z"/>
 <path d="M640 960 l0 -180 1920 0 1920 0 0 180 0 180 -1920 0 -1920 0 0 -180z"/>
 <path d="M70 957 l0 -122 125 -98 124 -98 125 98 126 98 0 123 c0 67 -2 122 -5 122 -3 0 -59 -43 -126 -94 l-121 -95 -118 95 c-65 51 -121 94 -124 94 -3 0 -6 -55 -6 -123z"/>
 <path d="M4550 957 l0 -122 125 -98 124 -98 125 98 126 98 0 123 c0 67 -2 122 -5 122 -3 0 -59 -43 -126 -94 l-121 -95 -118 95 c-65 51 -121 94 -124 94 -3 0 -6 -55 -6 -123z"/>
 <path d="M534 722 c-69 -61 -169 -135 -195 -144 -35 -12 -50 -4 -166 88 -50 41 -94 74 -97 74 -3 0 -6 -46 -5 -102 l0 -103 57 -45 c31 -25 88 -69 125 -98 l69 -53 53 43 c29 24 84 68 124 98 l71 55 0 108 c0 59 -1 107 -2 107 -2 0 -17 -13 -34 -28z"/>
 <path d="M5014 722 c-69 -61 -169 -135 -195 -144 -35 -12 -50 -4 -166 88 -50 41 -94 74 -97 74 -3 0 -6 -46 -5 -102 l0 -103 57 -45 c31 -25 88 -69 125 -98 l69 -53 53 43 c29 24 84 68 124 98 l71 55 0 108 c0 59 -1 107 -2 107 -2 0 -17 -13 -34 -28z"/>
 <path d="M640 320 l0 -180 1920 0 1920 0 0 180 0 180 -1920 0 -1920 0 0 -180z"/>
 <path d="M70 317 l0 -123 115 -89 c63 -50 122 -91 130 -93 8 -2 69 38 135 90 l120 93 0 123 c0 67 -2 122 -5 122 -3 0 -59 -43 -126 -94 l-121 -95 -118 95 c-65 51 -121 94 -124 94 -3 0 -6 -55 -6 -123z"/>
 <path d="M4550 317 l0 -123 115 -89 c63 -50 122 -91 130 -93 8 -2 69 38 135 90 l120 93 0 123 c0 67 -2 122 -5 122 -3 0 -59 -43 -126 -94 l-121 -95 -118 95 c-65 51 -121 94 -124 94 -3 0 -6 -55 -6 -123z"/>
 <path d="M502 55 l-63 -50 61 -3 c34 -2 64 -1 67 1 2 3 3 27 1 54 l-3 49 -63 -51z"/>
 <path d="M4982 55 l-63 -50 61 -3 c34 -2 64 -1 67 1 2 3 3 27 1 54 l-3 49 -63 -51z"/>
 <path d="M70 50 l0 -50 61 0 c33 0 59 4 57 9 -3 10 -104 91 -113 91 -3 0 -5 -22 -5 -50z"/>
 <path d="M4550 50 l0 -50 61 0 c33 0 59 4 57 9 -3 10 -104 91 -113 91 -3 0 -5 -22 -5 -50z"/>
 </g>
<g id="layer104" fill="#00ffff" stroke="none">
 <path d="M70 5070 c0 -59 2 -58 84 9 l48 41 -66 0 -66 0 0 -50z"/>
 <path d="M480 5089 c19 -17 47 -39 63 -50 l27 -20 0 50 0 51 -62 0 -63 -1 35 -30z"/>
 <path d="M4550 5070 c0 -59 2 -58 84 9 l48 41 -66 0 -66 0 0 -50z"/>
 <path d="M4960 5089 c19 -17 47 -39 63 -50 l27 -20 0 50 0 51 -62 0 -63 -1 35 -30z"/>
 <path d="M188 5017 l-118 -92 0 -122 c0 -68 2 -123 5 -123 3 0 59 43 126 94 l121 95 118 -95 c65 -51 121 -94 124 -94 3 0 6 55 6 123 l0 123 -115 89 c-63 50 -123 91 -132 92 -10 2 -71 -39 -135 -90z"/>
 <path d="M4668 5017 l-118 -92 0 -122 c0 -68 2 -123 5 -123 3 0 59 43 126 94 l121 95 118 -95 c65 -51 121 -94 124 -94 3 0 6 55 6 123 l0 123 -115 89 c-63 50 -123 91 -132 92 -10 2 -71 -39 -135 -90z"/>
 <path d="M206 4690 c-148 -117 -137 -100 -134 -214 l3 -98 90 71 c109 88 140 105 172 96 20 -5 74 -43 221 -158 9 -7 12 13 12 94 l-1 104 -46 35 c-26 19 -80 61 -119 93 -40 31 -78 57 -85 56 -8 0 -58 -36 -113 -79z"/>
 <path d="M4686 4690 c-148 -117 -137 -100 -134 -214 l3 -98 90 71 c109 88 140 105 172 96 20 -5 74 -43 221 -158 9 -7 12 13 12 94 l-1 104 -46 35 c-26 19 -80 61 -119 93 -40 31 -78 57 -85 56 -8 0 -58 -36 -113 -79z"/>
 <path d="M193 4382 l-123 -97 0 -122 c0 -68 2 -123 5 -123 3 0 59 43 126 94 l121 95 118 -95 c65 -51 121 -94 124 -94 3 0 6 55 6 123 l0 122 -124 98 c-69 53 -126 97 -128 96 -2 0 -58 -44 -125 -97z"/>
 <path d="M4673 4382 l-123 -97 0 -122 c0 -68 2 -123 5 -123 3 0 59 43 126 94 l121 95 118 -95 c65 -51 121 -94 124 -94 3 0 6 55 6 123 l0 122 -124 98 c-69 53 -126 97 -128 96 -2 0 -58 -44 -125 -97z"/>
 <path d="M230 4069 c-139 -111 -160 -130 -160 -144 0 -13 38 -15 250 -15 232 0 250 1 250 18 0 9 -22 33 -47 52 -26 19 -80 61 -119 93 -40 31 -78 57 -85 56 -8 0 -48 -27 -89 -60z"/>
 <path d="M4710 4069 c-139 -111 -160 -130 -160 -144 0 -13 38 -15 250 -15 232 0 250 1 250 18 0 9 -22 33 -47 52 -26 19 -80 61 -119 93 -40 31 -78 57 -85 56 -8 0 -48 -27 -89 -60z"/>
 <path d="M70 1193 c0 -10 22 -34 47 -53 26 -19 80 -61 119 -92 40 -32 77 -58 84 -58 6 0 28 13 48 30 20 16 73 58 117 93 127 99 130 97 -164 97 -233 0 -251 -1 -251 -17z"/>
 <path d="M4550 1193 c0 -10 22 -34 47 -53 26 -19 80 -61 119 -92 40 -32 77 -58 84 -58 6 0 28 13 48 30 20 16 73 58 117 93 127 99 130 97 -164 97 -233 0 -251 -1 -251 -17z"/>
 <path d="M70 957 l0 -122 125 -98 124 -98 125 98 126 98 0 123 c0 67 -2 122 -5 122 -3 0 -59 -43 -126 -94 l-121 -95 -118 95 c-65 51 -121 94 -124 94 -3 0 -6 -55 -6 -123z"/>
 <path d="M4550 957 l0 -122 125 -98 124 -98 125 98 126 98 0 123 c0 67 -2 122 -5 122 -3 0 -59 -43 -126 -94 l-121 -95 -118 95 c-65 51 -121 94 -124 94 -3 0 -6 -55 -6 -123z"/>
 <path d="M70 639 l1 -104 46 -35 c26 -19 80 -61 119 -92 70 -57 97 -68 109 -48 3 5 48 41 99 80 133 100 127 90 124 205 l-3 97 -90 -71 c-109 -88 -140 -105 -172 -96 -20 5 -74 43 -220 158 -10 7 -13 -13 -13 -94z"/>
 <path d="M4550 639 l1 -104 46 -35 c26 -19 80 -61 119 -92 70 -57 97 -68 109 -48 3 5 48 41 99 80 133 100 127 90 124 205 l-3 97 -90 -71 c-109 -88 -140 -105 -172 -96 -20 5 -74 43 -220 158 -10 7 -13 -13 -13 -94z"/>
 <path d="M70 317 l0 -123 115 -89 c63 -50 122 -91 130 -93 8 -2 69 38 135 90 l120 93 0 123 c0 67 -2 122 -5 122 -3 0 -59 -43 -126 -94 l-121 -95 -118 95 c-65 51 -121 94 -124 94 -3 0 -6 -55 -6 -123z"/>
 <path d="M4550 317 l0 -123 115 -89 c63 -50 122 -91 130 -93 8 -2 69 38 135 90 l120 93 0 123 c0 67 -2 122 -5 122 -3 0 -59 -43 -126 -94 l-121 -95 -118 95 c-65 51 -121 94 -124 94 -3 0 -6 -55 -6 -123z"/>
 <path d="M70 51 l0 -51 63 0 62 1 -35 30 c-19 17 -47 39 -62 50 l-28 20 0 -50z"/>
 <path d="M504 54 l-62 -49 60 -3 c33 -2 62 -1 65 1 2 3 3 26 1 52 l-3 48 -61 -49z"/>
 <path d="M4550 51 l0 -51 63 0 62 1 -35 30 c-19 17 -47 39 -62 50 l-28 20 0 -50z"/>
 <path d="M4984 54 l-62 -49 60 -3 c33 -2 62 -1 65 1 2 3 3 26 1 52 l-3 48 -61 -49z"/>
 </g>
<g id="layer105" fill="#ff7605" stroke="none">
 <path d="M70 5070 c0 -59 2 -58 84 9 l48 41 -66 0 -66 0 0 -50z"/>
 <path d="M480 5089 c19 -17 47 -39 63 -50 l27 -20 0 50 0 51 -62 0 -63 -1 35 -30z"/>
 <path d="M4550 5070 c0 -59 2 -58 84 9 l48 41 -66 0 -66 0 0 -50z"/>
 <path d="M4960 5089 c19 -17 47 -39 63 -50 l27 -20 0 50 0 51 -62 0 -63 -1 35 -30z"/>
 <path d="M206 4690 c-148 -117 -137 -100 -134 -214 l3 -98 90 71 c109 88 140 105 172 96 20 -5 74 -43 221 -158 9 -7 12 13 12 94 l-1 104 -46 35 c-26 19 -80 61 -119 93 -40 31 -78 57 -85 56 -8 0 -58 -36 -113 -79z"/>
 <path d="M4686 4690 c-148 -117 -137 -100 -134 -214 l3 -98 90 71 c109 88 140 105 172 96 20 -5 74 -43 221 -158 9 -7 12 13 12 94 l-1 104 -46 35 c-26 19 -80 61 -119 93 -40 31 -78 57 -85 56 -8 0 -58 -36 -113 -79z"/>
 <path d="M230 4069 c-139 -111 -160 -130 -160 -144 0 -13 38 -15 250 -15 232 0 250 1 250 18 0 9 -22 33 -47 52 -26 19 -80 61 -119 93 -40 31 -78 57 -85 56 -8 0 -48 -27 -89 -60z"/>
 <path d="M4710 4069 c-139 -111 -160 -130 -160 -144 0 -13 38 -15 250 -15 232 0 250 1 250 18 0 9 -22 33 -47 52 -26 19 -80 61 -119 93 -40 31 -78 57 -85 56 -8 0 -48 -27 -89 -60z"/>
 <path d="M70 1193 c0 -10 22 -34 47 -53 26 -19 80 -61 119 -92 40 -32 77 -58 84 -58 6 0 28 13 48 30 20 16 73 58 117 93 127 99 130 97 -164 97 -233 0 -251 -1 -251 -17z"/>
 <path d="M4550 1193 c0 -10 22 -34 47 -53 26 -19 80 -61 119 -92 40 -32 77 -58 84 -58 6 0 28 13 48 30 20 16 73 58 117 93 127 99 130 97 -164 97 -233 0 -251 -1 -251 -17z"/>
 <path d="M70 639 l1 -104 46 -35 c26 -19 80 -61 119 -92 70 -57 97 -68 109 -48 3 5 48 41 99 80 133 100 127 90 124 205 l-3 97 -90 -71 c-109 -88 -140 -105 -172 -96 -20 5 -74 43 -220 158 -10 7 -13 -13 -13 -94z"/>
 <path d="M4550 639 l1 -104 46 -35 c26 -19 80 -61 119 -92 70 -57 97 -68 109 -48 3 5 48 41 99 80 133 100 127 90 124 205 l-3 97 -90 -71 c-109 -88 -140 -105 -172 -96 -20 5 -74 43 -220 158 -10 7 -13 -13 -13 -94z"/>
 <path d="M70 51 l0 -51 63 0 62 1 -35 30 c-19 17 -47 39 -62 50 l-28 20 0 -50z"/>
 <path d="M504 54 l-62 -49 60 -3 c33 -2 62 -1 65 1 2 3 3 26 1 52 l-3 48 -61 -49z"/>
 <path d="M4550 51 l0 -51 63 0 62 1 -35 30 c-19 17 -47 39 -62 50 l-28 20 0 -50z"/>
 <path d="M4984 54 l-62 -49 60 -3 c33 -2 62 -1 65 1 2 3 3 26 1 52 l-3 48 -61 -49z"/>
 </g>

</svg>