<!DOCTYPE svg PUBLIC "-//W3C//DTD SVG 20010904//EN" "http://www.w3.org/TR/2001/REC-SVG-20010904/DTD/svg10.dtd">
<svg version="1.0" xmlns="http://www.w3.org/2000/svg" width="512px" height="512px" viewBox="0 0 5120 5120" preserveAspectRatio="xMidYMid meet">
<g id="layer101" fill="#000000" stroke="none">
 <path d="M0 2560 l0 -2560 2560 0 2560 0 0 2560 0 2560 -2560 0 -2560 0 0 -2560z"/>
 </g>
<g id="layer102" fill="#4b4b4b" stroke="none">
 <path d="M0 5109 c0 -5 5 -7 10 -4 5 3 10 8 10 11 0 2 -4 4 -10 4 -5 0 -10 -5 -10 -11z"/>
 <path d="M400 5111 c-8 -5 -44 -11 -80 -15 -36 -4 -78 -8 -95 -11 -16 -2 -59 -7 -95 -10 -36 -4 -68 -10 -71 -13 -3 -4 -16 -90 -28 -191 -12 -101 -24 -188 -28 -194 -3 -5 21 -36 53 -68 50 -51 63 -59 95 -59 44 0 41 -9 65 190 8 74 19 138 22 142 4 3 30 9 57 12 28 2 91 10 140 16 50 6 100 12 113 13 19 1 22 7 22 42 0 36 -6 46 -57 96 -56 54 -83 66 -113 50z"/>
 <path d="M555 5110 c3 -5 8 -10 11 -10 2 0 4 5 4 10 0 6 -5 10 -11 10 -5 0 -7 -4 -4 -10z"/>
 <path d="M640 4852 l0 -267 373 -372 372 -373 585 -2 584 -3 -157 -123 -157 -123 0 -125 0 -126 88 68 c48 38 120 94 160 126 l73 57 147 -116 c81 -64 153 -120 160 -126 9 -7 12 17 12 116 l0 126 -156 123 -156 123 589 3 588 2 368 368 367 367 0 272 0 273 -1920 0 -1920 0 0 -268z"/>
 <path d="M4550 5110 c0 -5 7 -7 15 -4 8 4 15 8 15 10 0 2 -7 4 -15 4 -8 0 -15 -4 -15 -10z"/>
 <path d="M5090 5116 c0 -2 7 -6 15 -10 8 -3 15 -1 15 4 0 6 -7 10 -15 10 -8 0 -15 -2 -15 -4z"/>
 <path d="M4607 5042 c-45 -46 -57 -64 -57 -89 0 -38 -6 -37 185 -59 83 -10 151 -18 153 -19 2 -2 41 -302 42 -322 0 -2 19 -3 43 -3 37 0 48 7 95 52 47 45 53 55 49 82 -6 36 -47 358 -47 367 0 3 -6 6 -12 6 -20 0 -133 13 -252 29 -61 8 -117 14 -126 14 -8 0 -41 -26 -73 -58z"/>
 <path d="M525 4845 c-5 -2 -57 -9 -115 -15 -58 -7 -109 -16 -113 -20 -5 -4 -12 -50 -17 -101 -5 -52 -12 -109 -16 -126 l-7 -33 157 0 156 0 0 150 c0 158 -1 159 -45 145z"/>
 <path d="M4550 4696 l0 -146 155 0 155 0 -5 38 c-2 20 -7 66 -10 102 -12 126 -1 115 -128 129 -62 7 -124 15 -139 18 l-28 6 0 -147z"/>
 <path d="M0 4560 c0 -5 5 -10 11 -10 5 0 7 5 4 10 -3 6 -8 10 -11 10 -2 0 -4 -4 -4 -10z"/>
 <path d="M0 2560 l0 -1920 593 0 593 0 47 48 47 48 2 749 3 749 123 -157 123 -157 125 0 126 0 -68 88 c-38 48 -94 120 -126 160 l-57 73 116 147 c64 81 120 153 126 160 7 9 -17 12 -116 12 l-126 0 -123 -156 -123 -156 -3 754 -2 753 -363 363 -362 362 -277 0 -278 0 0 -1920z"/>
 <path d="M4208 4113 l-368 -368 -2 -745 -3 -744 -123 157 -123 157 -125 0 -126 0 68 -87 c38 -49 94 -121 126 -161 l57 -73 -116 -147 c-64 -81 -120 -153 -126 -159 -7 -10 17 -13 116 -13 l126 0 123 156 123 156 3 -748 2 -749 52 -52 52 -53 588 0 588 0 0 1920 0 1920 -273 0 -272 0 -367 -367z"/>
 <path d="M1420 3119 l0 -582 43 47 43 46 137 0 136 0 3 308 c3 277 5 310 21 334 39 56 60 63 220 66 l147 4 0 136 0 136 46 43 47 43 -422 0 -421 0 0 -581z"/>
 <path d="M2904 3657 l46 -43 0 -136 0 -136 148 -4 c159 -3 180 -10 219 -66 16 -24 18 -57 21 -329 l3 -303 136 0 137 0 43 -46 43 -47 0 577 0 576 -421 0 -422 0 47 -43z"/>
 <path d="M2462 3422 l-100 -77 99 -3 c54 -1 143 -1 198 0 l98 3 -98 77 -98 78 -99 -78z"/>
 <path d="M1920 2240 l0 -960 640 0 640 0 0 960 0 960 -640 0 -640 0 0 -960z"/>
 <path d="M3340 2250 l0 -203 79 99 c56 71 76 103 70 114 -4 8 -40 55 -78 104 l-71 89 0 -203z"/>
 <path d="M1698 2339 l-78 -98 78 -99 77 -100 3 99 c1 54 1 143 0 198 l-3 98 -77 -98z"/>
 <path d="M3654 1905 l-40 -45 -137 0 -136 0 -3 -312 c-3 -283 -5 -316 -21 -340 -36 -53 -63 -62 -190 -66 l-117 -4 123 -98 c68 -54 127 -105 130 -115 4 -9 7 -46 7 -81 l0 -64 215 0 215 0 0 585 c0 322 -1 585 -2 585 -2 0 -21 -21 -44 -45z"/>
 <path d="M1420 1361 l0 -581 215 0 215 0 0 68 c0 41 5 75 14 87 7 11 66 61 130 110 l116 90 -118 5 c-126 6 -153 16 -189 68 -16 24 -18 57 -21 335 l-3 307 -136 0 -137 0 -43 46 -43 47 0 -582z"/>
 <path d="M2078 1024 l-158 -125 0 -126 0 -125 88 68 c48 38 120 94 160 126 l73 57 147 -116 c81 -64 152 -120 159 -126 9 -6 60 28 174 116 l161 126 156 -125 157 -124 3 117 c1 64 1 122 -1 127 -3 6 -75 66 -160 134 l-156 123 -160 -126 -161 -126 -159 125 c-87 69 -160 126 -162 125 -2 0 -75 -57 -161 -125z"/>
 <path d="M2461 1065 c52 -41 96 -74 99 -75 4 0 171 129 189 146 2 2 -83 4 -189 4 l-193 0 94 -75z"/>
 <path d="M2224 795 c-18 -14 -17 -14 15 -15 29 0 32 2 21 15 -15 18 -12 18 -36 0z"/>
 <path d="M2864 795 c-18 -14 -17 -14 15 -15 29 0 32 2 21 15 -15 18 -12 18 -36 0z"/>
 <path d="M1327 592 l-47 -48 0 -272 0 -272 1280 0 1280 0 0 273 0 273 -48 47 -48 47 -1185 0 -1185 0 -47 -48z"/>
 <path d="M0 498 l0 -72 23 31 c12 17 37 50 55 72 l34 41 -56 0 -56 0 0 -72z"/>
 <path d="M97 445 l-98 -124 98 -125 98 -126 123 0 c67 0 122 2 122 5 0 3 -43 59 -94 126 l-95 121 95 118 c51 65 94 121 94 124 0 3 -55 6 -123 6 l-122 0 -98 -125z"/>
 <path d="M468 489 c-35 -45 -78 -101 -96 -125 l-33 -43 96 -126 96 -125 110 0 110 0 -48 61 c-26 34 -65 83 -85 109 -63 81 -59 92 107 298 l26 32 -110 0 -110 0 -63 -81z"/>
 <path d="M737 445 l-98 -124 98 -125 98 -126 123 0 c67 0 122 2 122 5 0 3 -43 59 -94 126 l-95 121 95 118 c51 65 94 121 94 124 0 3 -55 6 -123 6 l-122 0 -98 -125z"/>
 <path d="M1108 489 c-35 -45 -78 -101 -96 -125 l-33 -43 96 -126 c139 -180 135 -184 135 125 0 241 -1 250 -20 250 -12 0 -41 -29 -82 -81z"/>
 <path d="M3910 320 c0 -241 1 -250 20 -250 18 0 42 28 178 206 l33 43 -96 126 c-139 180 -135 184 -135 -125z"/>
 <path d="M4040 565 c0 -3 43 -59 94 -126 l95 -121 -95 -118 c-51 -65 -94 -121 -94 -124 0 -3 55 -6 123 -6 l122 0 98 125 98 124 -98 125 -98 126 -122 0 c-68 0 -123 -2 -123 -5z"/>
 <path d="M4417 509 c26 -34 65 -83 85 -109 63 -81 59 -92 -107 -297 l-26 -33 114 0 115 0 58 76 c33 42 74 96 92 120 l34 44 -99 127 -99 128 -108 3 -108 3 49 -62z"/>
 <path d="M4676 558 c5 -7 50 -66 101 -132 l93 -119 -38 -46 c-21 -25 -64 -79 -96 -118 l-57 -73 128 0 128 1 93 119 93 119 -103 131 -102 130 -123 0 c-97 0 -122 -3 -117 -12z"/>
 <path d="M5010 563 c1 -5 25 -39 55 -77 l55 -69 0 76 0 77 -55 0 c-30 0 -55 -3 -55 -7z"/>
 <path d="M0 141 l0 -71 56 0 56 0 -33 42 c-18 24 -43 56 -56 71 l-23 29 0 -71z"/>
 <path d="M5093 167 c-13 -17 -34 -47 -49 -64 l-27 -33 52 0 51 0 0 65 c0 36 -1 65 -2 65 -2 0 -13 -15 -25 -33z"/>
 </g>
<g id="layer103" fill="#8b8b8b" stroke="none">
 <path d="M555 5110 c3 -5 8 -10 11 -10 2 0 4 5 4 10 0 6 -5 10 -11 10 -5 0 -7 -4 -4 -10z"/>
 <path d="M4550 5109 c0 -5 5 -7 10 -4 6 3 10 8 10 11 0 2 -4 4 -10 4 -5 0 -10 -5 -10 -11z"/>
 <path d="M5110 5110 c0 -7 3 -10 7 -7 3 4 3 10 0 14 -4 3 -7 0 -7 -7z"/>
 <path d="M335 5100 c-107 -15 -149 -20 -210 -26 -33 -3 -63 -9 -66 -12 -4 -4 -17 -96 -29 -205 l-23 -198 53 -54 c46 -47 60 -55 91 -55 44 0 41 -9 65 190 8 74 19 138 22 142 4 3 30 9 57 12 28 2 91 10 140 16 50 6 100 12 113 13 19 1 22 7 22 42 0 36 -6 47 -53 93 -58 57 -60 58 -182 42z"/>
 <path d="M4607 5042 c-45 -46 -57 -64 -57 -89 0 -38 -6 -37 185 -59 83 -10 151 -18 153 -19 2 -2 41 -302 42 -322 0 -2 19 -3 43 -3 38 0 48 5 90 48 56 57 55 49 27 282 -11 91 -20 168 -20 171 0 3 -6 6 -12 6 -20 0 -133 13 -252 29 -61 8 -117 14 -126 14 -8 0 -41 -26 -73 -58z"/>
 <path d="M640 4782 l0 -198 53 -52 53 -52 1820 0 1820 0 47 48 47 48 0 202 0 202 -1920 0 -1920 0 0 -198z"/>
 <path d="M525 4845 c-5 -2 -59 -9 -119 -16 -59 -7 -110 -18 -112 -24 -2 -5 -8 -53 -14 -105 -6 -52 -13 -107 -16 -122 l-6 -28 156 0 156 0 0 150 c0 158 -1 160 -45 145z"/>
 <path d="M4550 4696 l0 -146 156 0 156 0 -6 28 c-2 15 -8 59 -11 97 -3 39 -8 84 -11 101 l-6 31 -111 12 c-62 7 -124 15 -139 18 l-28 6 0 -147z"/>
 <path d="M140 2560 l0 -1920 250 0 250 0 0 1877 0 1877 -42 43 -42 43 -208 0 -208 0 0 -1920z"/>
 <path d="M4527 4432 l-47 -48 0 -1872 0 -1872 250 0 250 0 0 1920 0 1920 -203 0 -203 0 -47 -48z"/>
 <path d="M1130 4095 l255 -255 584 -2 585 -3 -157 -123 -157 -123 0 -125 0 -126 88 68 c48 38 120 94 160 126 l73 57 147 -116 c81 -64 153 -120 160 -126 9 -7 12 17 12 116 l0 126 -156 123 -156 123 589 3 588 2 255 255 255 255 -1690 0 -1690 0 255 -255z"/>
 <path d="M780 2447 l0 -1807 203 0 203 0 47 48 47 48 2 749 3 749 123 -157 123 -157 125 0 126 0 -68 88 c-38 48 -94 120 -126 160 l-57 73 116 147 c64 81 120 153 126 160 7 9 -17 12 -116 12 l-126 0 -123 -156 -123 -156 -3 754 -2 753 -250 250 -250 250 0 -1808z"/>
 <path d="M4087 3992 l-247 -247 -2 -745 -3 -744 -123 157 -123 157 -125 0 -126 0 68 -87 c38 -49 94 -121 126 -161 l57 -73 -116 -147 c-64 -81 -120 -153 -126 -159 -7 -10 17 -13 116 -13 l126 0 123 156 123 156 3 -748 2 -749 52 -52 52 -53 198 0 198 0 0 1800 c0 990 -1 1800 -3 1800 -1 0 -113 -111 -250 -248z"/>
 <path d="M1920 2240 l0 -960 640 0 640 0 0 960 0 960 -640 0 -640 0 0 -960z"/>
 <path d="M2078 1024 l-158 -125 0 -126 0 -125 88 68 c48 38 120 94 160 126 l73 57 147 -116 c81 -64 152 -120 159 -126 9 -6 60 28 174 116 l161 126 156 -125 157 -124 3 117 c1 64 1 122 -1 127 -3 6 -75 66 -160 134 l-156 123 -160 -126 -161 -126 -159 125 c-87 69 -160 126 -162 125 -2 0 -75 -57 -161 -125z"/>
 <path d="M0 509 c0 -33 4 -59 9 -57 10 3 91 104 91 113 0 3 -22 5 -50 5 l-50 0 0 -61z"/>
 <path d="M105 455 c-50 -63 -91 -122 -93 -130 -2 -8 38 -69 90 -135 l93 -120 123 0 c67 0 122 2 122 5 0 3 -43 59 -94 126 l-95 121 95 118 c51 65 94 121 94 124 0 3 -55 6 -123 6 l-123 0 -89 -115z"/>
 <path d="M440 449 c-52 -66 -95 -124 -95 -129 0 -4 43 -62 95 -129 l95 -121 108 0 108 0 -40 50 c-23 28 -59 72 -81 100 -52 63 -66 101 -49 132 6 13 45 64 85 115 41 50 74 94 74 97 0 3 -46 6 -102 6 l-103 -1 -95 -120z"/>
 <path d="M737 445 l-98 -124 98 -125 98 -126 123 0 c67 0 122 2 122 5 0 3 -43 59 -94 126 l-95 121 95 118 c51 65 94 121 94 124 0 3 -55 6 -123 6 l-122 0 -98 -125z"/>
 <path d="M1080 449 c-52 -66 -95 -124 -95 -129 0 -19 191 -250 208 -250 16 0 17 19 17 250 0 232 -1 250 -17 250 -11 -1 -58 -51 -113 -121z"/>
 <path d="M3910 320 c0 -232 1 -250 18 -250 16 1 207 231 207 250 0 19 -191 250 -207 250 -17 0 -18 -19 -18 -250z"/>
 <path d="M4040 565 c0 -3 43 -59 94 -126 l95 -121 -95 -118 c-51 -65 -94 -121 -94 -124 0 -3 55 -6 123 -6 l122 0 98 125 98 124 -98 125 -98 126 -122 0 c-68 0 -123 -2 -123 -5z"/>
 <path d="M4409 520 c23 -27 59 -72 81 -100 52 -63 66 -101 49 -132 -6 -13 -45 -64 -85 -115 -41 -50 -74 -94 -74 -98 0 -3 48 -4 107 -3 l107 3 93 115 c51 63 91 118 90 122 -1 3 -47 63 -101 132 l-99 126 -104 0 -104 0 40 -50z"/>
 <path d="M4676 558 c5 -7 50 -66 101 -132 l93 -119 -38 -46 c-21 -25 -64 -79 -96 -118 l-57 -73 128 0 128 1 85 109 c47 60 86 117 88 125 2 8 -40 71 -94 140 l-97 125 -124 0 c-97 0 -122 -3 -117 -12z"/>
 <path d="M5010 565 c0 -5 79 -105 101 -129 5 -6 9 20 9 62 l0 72 -55 0 c-30 0 -55 -2 -55 -5z"/>
 <path d="M1280 250 l0 -250 1280 0 1280 0 0 250 0 250 -1280 0 -1280 0 0 -250z"/>
 <path d="M0 137 l0 -67 55 0 55 0 -46 58 c-26 31 -50 61 -55 67 -5 5 -9 -19 -9 -58z"/>
 <path d="M5063 125 l-43 -55 50 0 50 0 0 55 c0 30 -3 55 -7 55 -5 0 -27 -25 -50 -55z"/>
 </g>
<g id="layer104" fill="#00ffff" stroke="none">
 <path d="M4550 5109 c0 -5 5 -7 10 -4 6 3 10 8 10 11 0 2 -4 4 -10 4 -5 0 -10 -5 -10 -11z"/>
 <path d="M335 5100 c-107 -15 -149 -20 -210 -26 -33 -3 -63 -9 -66 -12 -4 -4 -17 -96 -29 -205 l-23 -198 53 -54 c46 -47 60 -55 91 -55 44 0 41 -9 65 190 8 74 19 138 22 142 4 3 30 9 57 12 28 2 91 10 140 16 50 6 100 12 113 13 19 1 22 7 22 42 0 36 -6 47 -53 93 -58 57 -60 58 -182 42z"/>
 <path d="M4607 5042 c-45 -46 -57 -64 -57 -89 0 -38 -6 -37 185 -59 83 -10 151 -18 153 -19 2 -2 41 -302 42 -322 0 -2 19 -3 43 -3 38 0 48 5 90 48 56 57 55 49 27 282 -11 91 -20 168 -20 171 0 3 -6 6 -12 6 -20 0 -133 13 -252 29 -61 8 -117 14 -126 14 -8 0 -41 -26 -73 -58z"/>
 <path d="M500 4843 c-19 -3 -73 -10 -120 -17 l-85 -12 -15 -132 -16 -132 153 0 153 0 0 150 c0 166 7 152 -70 143z"/>
 <path d="M4550 4696 l0 -146 156 0 156 0 -5 23 c-3 12 -11 70 -18 128 l-11 106 -112 12 c-61 7 -123 15 -138 18 l-28 6 0 -147z"/>
 <path d="M2398 3714 l-158 -125 0 -126 0 -125 88 68 c48 38 120 94 160 126 l73 57 147 -116 c81 -64 153 -120 160 -126 9 -7 12 17 12 116 l0 126 -156 123 c-85 68 -158 124 -162 125 -4 1 -78 -55 -164 -123z"/>
 <path d="M1920 2240 l0 -960 640 0 640 0 0 960 0 960 -640 0 -640 0 0 -960z"/>
 <path d="M3406 2483 c38 -49 94 -121 126 -161 l57 -73 -124 -157 -125 -157 117 -3 c64 -1 122 -1 127 1 6 3 66 75 134 160 l123 156 -126 161 -126 160 -126 0 -125 0 68 -87z"/>
 <path d="M1419 2418 c-62 -79 -119 -150 -126 -160 -13 -15 -1 -33 112 -177 l126 -161 126 0 125 0 -68 88 c-38 48 -94 120 -126 160 l-57 73 116 147 c64 81 120 153 126 160 7 9 -17 12 -116 12 l-126 0 -112 -142z"/>
 <path d="M2078 1024 l-158 -125 0 -126 0 -125 88 68 c48 38 120 94 160 126 l73 57 147 -116 c81 -64 152 -120 159 -126 9 -6 60 28 174 116 l161 126 156 -125 157 -124 3 117 c1 64 1 122 -1 127 -3 6 -75 66 -160 134 l-156 123 -160 -126 -161 -126 -159 125 c-87 69 -160 126 -162 125 -2 0 -75 -57 -161 -125z"/>
 <path d="M0 508 l1 -63 30 35 c17 19 39 47 50 63 l20 27 -50 0 -51 0 0 -62z"/>
 <path d="M105 455 c-50 -63 -91 -122 -93 -130 -2 -8 38 -69 90 -135 l93 -120 123 0 c67 0 122 2 122 5 0 3 -43 59 -94 126 l-95 121 95 118 c51 65 94 121 94 124 0 3 -55 6 -123 6 l-123 0 -89 -115z"/>
 <path d="M442 448 c-52 -67 -91 -126 -88 -134 7 -18 160 -217 179 -233 10 -8 47 -11 112 -9 l97 3 -71 90 c-88 109 -105 140 -96 172 5 20 43 74 158 221 7 9 -13 12 -94 12 l-104 -1 -93 -121z"/>
 <path d="M737 445 l-98 -124 98 -125 98 -126 123 0 c67 0 122 2 122 5 0 3 -43 59 -94 126 l-95 121 95 118 c51 65 94 121 94 124 0 3 -55 6 -123 6 l-122 0 -98 -125z"/>
 <path d="M1085 452 c-49 -64 -91 -122 -93 -127 -3 -10 124 -182 171 -232 45 -49 47 -40 47 227 0 232 -1 250 -17 250 -11 -1 -55 -49 -108 -118z"/>
 <path d="M3910 320 c0 -232 1 -250 18 -250 15 1 192 217 200 245 3 10 -124 182 -171 233 -45 48 -47 39 -47 -228z"/>
 <path d="M4040 565 c0 -3 43 -59 94 -126 l95 -121 -95 -118 c-51 -65 -94 -121 -94 -124 0 -3 55 -6 123 -6 l122 0 98 125 98 124 -98 125 -98 126 -122 0 c-68 0 -123 -2 -123 -5z"/>
 <path d="M4380 566 c0 -2 32 -44 71 -92 85 -108 103 -139 95 -170 -4 -14 -42 -71 -86 -127 l-79 -102 96 -3 c53 -1 102 -1 108 2 13 5 185 223 185 235 0 8 -120 167 -173 231 -25 30 -27 30 -121 30 -53 0 -96 -2 -96 -4z"/>
 <path d="M4676 558 c5 -7 50 -66 101 -132 l93 -119 -38 -46 c-21 -25 -64 -79 -96 -118 l-57 -73 128 0 128 1 85 109 c47 60 86 117 88 125 2 8 -40 71 -94 140 l-97 125 -124 0 c-97 0 -122 -3 -117 -12z"/>
 <path d="M5036 533 c15 -21 40 -53 56 -71 l28 -33 0 71 0 70 -56 0 -56 0 28 -37z"/>
 <path d="M0 136 l0 -66 50 0 c59 0 58 2 -9 84 l-41 48 0 -66z"/>
 <path d="M5071 130 l-43 -55 42 -3 c23 -2 44 -1 47 1 2 3 3 29 1 58 l-3 53 -44 -54z"/>
 </g>
<g id="layer105" fill="#3a7913" stroke="none">
 <path d="M4550 5109 c0 -5 5 -7 10 -4 6 3 10 8 10 11 0 2 -4 4 -10 4 -5 0 -10 -5 -10 -11z"/>
 <path d="M500 4843 c-19 -3 -73 -10 -120 -17 l-85 -12 -15 -132 -16 -132 153 0 153 0 0 150 c0 166 7 152 -70 143z"/>
 <path d="M4550 4696 l0 -146 156 0 156 0 -5 23 c-3 12 -11 70 -18 128 l-11 106 -112 12 c-61 7 -123 15 -138 18 l-28 6 0 -147z"/>
 <path d="M1920 2240 l0 -960 640 0 640 0 0 960 0 960 -640 0 -640 0 0 -960z"/>
 <path d="M0 508 l1 -63 30 35 c17 19 39 47 50 63 l20 27 -50 0 -51 0 0 -62z"/>
 <path d="M442 448 c-52 -67 -91 -126 -88 -134 7 -18 160 -217 179 -233 10 -8 47 -11 112 -9 l97 3 -71 90 c-88 109 -105 140 -96 172 5 20 43 74 158 221 7 9 -13 12 -94 12 l-104 -1 -93 -121z"/>
 <path d="M1085 452 c-49 -64 -91 -122 -93 -127 -3 -10 124 -182 171 -232 45 -49 47 -40 47 227 0 232 -1 250 -17 250 -11 -1 -55 -49 -108 -118z"/>
 <path d="M3910 320 c0 -232 1 -250 18 -250 15 1 192 217 200 245 3 10 -124 182 -171 233 -45 48 -47 39 -47 -228z"/>
 <path d="M4380 566 c0 -2 32 -44 71 -92 85 -108 103 -139 95 -170 -4 -14 -42 -71 -86 -127 l-79 -102 96 -3 c53 -1 102 -1 108 2 13 5 185 223 185 235 0 8 -120 167 -173 231 -25 30 -27 30 -121 30 -53 0 -96 -2 -96 -4z"/>
 <path d="M5036 533 c15 -21 40 -53 56 -71 l28 -33 0 71 0 70 -56 0 -56 0 28 -37z"/>
 <path d="M0 136 l0 -66 50 0 c59 0 58 2 -9 84 l-41 48 0 -66z"/>
 <path d="M5071 130 l-43 -55 42 -3 c23 -2 44 -1 47 1 2 3 3 29 1 58 l-3 53 -44 -54z"/>
 </g>

</svg>