<!DOCTYPE svg PUBLIC "-//W3C//DTD SVG 20010904//EN" "http://www.w3.org/TR/2001/REC-SVG-20010904/DTD/svg10.dtd">
<svg version="1.0" xmlns="http://www.w3.org/2000/svg" width="512px" height="512px" viewBox="0 0 5120 5120" preserveAspectRatio="xMidYMid meet">
<g id="layer101" fill="#000000" stroke="none">
 <path d="M0 2560 l0 -2560 2560 0 2560 0 0 2560 0 2560 -2560 0 -2560 0 0 -2560z"/>
 </g>
<g id="layer102" fill="#3a7913" stroke="none">
 <path d="M1285 5098 c3 -13 145 -714 315 -1558 170 -844 312 -1545 315 -1557 l5 -23 640 0 640 0 5 23 c3 12 145 713 315 1557 170 844 312 1545 315 1558 l5 22 -1280 0 -1280 0 5 -22z"/>
 <path d="M70 2560 l0 -2490 2490 0 2490 0 0 2490 0 2490 -250 0 -250 0 0 -2240 0 -2240 -1990 0 -1990 0 0 2240 0 2240 -250 0 -250 0 0 -2490z"/>
 <path d="M640 2845 l0 -2205 1920 0 1920 0 0 2205 0 2205 -257 0 -258 0 -318 -1571 c-182 -904 -324 -1580 -333 -1594 -8 -13 -27 -32 -42 -42 -25 -17 -66 -18 -712 -18 -646 0 -687 1 -712 18 -15 10 -34 29 -42 42 -9 14 -151 690 -333 1594 l-318 1571 -257 0 -258 0 0 -2205z"/>
 </g>
<g id="layer103" fill="#8b8b8b" stroke="none">
 <path d="M1287 5113 c-2 -5 139 -714 314 -1578 175 -863 319 -1571 319 -1572 0 -2 288 -3 640 -3 352 0 640 1 640 3 0 1 144 709 319 1572 175 864 316 1573 314 1578 -5 9 -2541 9 -2546 0z"/>
 <path d="M640 2845 l0 -2205 1920 0 1920 0 0 2205 0 2205 -257 0 -258 0 -318 -1571 c-182 -904 -324 -1580 -333 -1594 -8 -13 -27 -32 -42 -42 -25 -17 -66 -18 -712 -18 -646 0 -687 1 -712 18 -15 10 -34 29 -42 42 -9 14 -151 690 -333 1594 l-318 1571 -257 0 -258 0 0 -2205z"/>
 </g>
<g id="layer104" fill="#8bff8b" stroke="none">
 <path d="M1287 5113 c-2 -5 139 -714 314 -1578 175 -863 319 -1571 319 -1572 0 -2 288 -3 640 -3 352 0 640 1 640 3 0 1 144 709 319 1572 175 864 316 1573 314 1578 -5 9 -2541 9 -2546 0z"/>
 </g>

</svg>