<!DOCTYPE svg PUBLIC "-//W3C//DTD SVG 20010904//EN" "http://www.w3.org/TR/2001/REC-SVG-20010904/DTD/svg10.dtd">
<svg version="1.0" xmlns="http://www.w3.org/2000/svg" width="512px" height="512px" viewBox="0 0 5120 5120" preserveAspectRatio="xMidYMid meet">
<g id="layer101" fill="#000000" stroke="none">
 <path d="M3875 4578 c-16 -5 -73 -18 -125 -28 -52 -9 -230 -45 -395 -79 -165 -34 -324 -66 -353 -71 -29 -5 -117 -22 -195 -39 -78 -16 -225 -46 -327 -66 -102 -20 -214 -43 -250 -51 -88 -19 -541 -110 -665 -134 -55 -10 -156 -30 -225 -44 -69 -13 -174 -34 -233 -45 -124 -24 -167 -44 -218 -98 -66 -71 -74 -90 -74 -178 0 -73 3 -84 32 -125 43 -62 83 -98 124 -112 19 -6 129 -14 244 -17 l210 -6 -75 -13 c-41 -8 -145 -29 -230 -48 -178 -40 -210 -57 -267 -143 -36 -53 -38 -61 -38 -132 0 -59 4 -81 17 -96 10 -11 18 -24 18 -30 0 -21 94 -103 129 -114 20 -5 124 -13 231 -17 107 -3 186 -8 175 -10 -11 -2 -83 -17 -160 -34 -77 -17 -162 -34 -188 -39 -26 -4 -58 -11 -70 -15 -29 -8 -81 -58 -120 -114 -29 -41 -32 -52 -32 -125 0 -68 4 -85 24 -115 40 -57 74 -91 116 -113 36 -20 60 -22 259 -27 l219 -5 -114 -23 c-63 -12 -143 -29 -179 -37 -36 -8 -91 -19 -124 -25 -65 -13 -114 -50 -169 -129 -29 -42 -32 -52 -32 -126 0 -80 0 -81 45 -140 31 -41 61 -68 95 -85 47 -24 61 -25 260 -30 l210 -5 -150 -28 c-310 -59 -353 -77 -423 -171 -36 -49 -37 -54 -37 -136 0 -84 1 -86 41 -140 23 -30 48 -61 56 -67 33 -28 143 -43 328 -44 l185 -1 -115 -24 c-269 -57 -355 -79 -384 -99 -46 -30 -105 -125 -112 -178 -13 -91 0 -127 75 -208 l68 -73 106 -4 c83 -3 119 0 160 13 28 9 97 25 152 36 122 22 313 60 500 100 77 16 185 38 240 48 55 10 395 78 755 151 360 73 687 138 725 145 39 7 111 22 160 34 50 11 122 25 160 31 136 20 253 51 284 74 17 13 48 45 69 72 37 49 37 50 37 142 l0 93 -70 68 c-48 47 -83 72 -110 80 -22 6 -127 11 -235 12 l-195 1 105 20 c58 12 168 36 245 54 l140 33 57 63 c63 69 75 105 65 203 -4 40 -14 64 -41 99 -84 111 -127 125 -376 127 -141 1 -165 3 -125 11 135 25 365 81 401 98 23 10 62 43 90 76 l49 57 0 92 0 93 -51 58 c-86 99 -83 98 -354 105 -129 3 -222 6 -206 7 27 2 263 52 336 72 19 5 58 12 85 15 46 6 56 12 117 76 74 78 86 111 75 215 -7 72 -63 141 -145 181 -55 27 -63 28 -257 33 l-200 5 160 32 c88 18 182 34 209 37 67 8 120 40 180 110 l51 58 0 92 c0 90 0 92 -37 140 -81 105 -117 116 -396 117 -218 1 -220 -1 46 54 192 40 236 61 288 139 41 63 52 129 34 206 -11 44 -24 64 -75 115 -41 41 -72 64 -94 68 -48 10 -161 7 -196 -5z"/>
 </g>
<g id="layer102" fill="#9d908d" stroke="none">
 <path d="M3956 4491 c-3 -5 -21 -9 -38 -9 -18 0 -64 -7 -103 -15 -38 -9 -117 -25 -175 -37 -58 -11 -181 -37 -275 -57 -93 -20 -177 -36 -185 -36 -8 0 -85 -15 -170 -34 -85 -19 -168 -35 -185 -37 -16 -1 -109 -19 -205 -40 -166 -35 -279 -58 -690 -141 -96 -19 -251 -51 -345 -70 -93 -19 -186 -37 -205 -39 -19 -3 -89 -17 -155 -31 -66 -15 -138 -30 -160 -35 -58 -11 -87 -24 -115 -55 -21 -23 -25 -38 -28 -103 -4 -76 -4 -77 31 -113 19 -20 49 -39 66 -42 18 -4 217 -7 444 -8 227 -1 516 -4 642 -8 l230 -6 -75 -16 c-41 -9 -109 -23 -150 -32 -41 -8 -122 -25 -180 -37 -280 -58 -439 -90 -475 -96 -22 -3 -112 -21 -200 -41 -88 -20 -181 -39 -207 -42 -88 -13 -132 -77 -126 -179 4 -57 8 -68 36 -93 17 -15 48 -33 69 -38 25 -7 259 -11 677 -11 402 0 636 -4 630 -9 -5 -6 -40 -15 -79 -21 -38 -6 -127 -24 -196 -40 -70 -17 -136 -30 -148 -30 -12 0 -93 -16 -179 -35 -86 -20 -174 -38 -196 -40 -21 -3 -97 -19 -170 -35 -72 -17 -156 -35 -186 -40 -217 -36 -260 -64 -260 -172 0 -77 19 -119 66 -149 l39 -24 664 -5 663 -5 -168 -38 c-93 -21 -184 -40 -202 -42 -18 -2 -108 -20 -200 -39 -152 -32 -433 -88 -572 -115 -119 -22 -202 -41 -219 -51 -10 -5 -31 -23 -45 -41 -50 -59 -29 -199 37 -239 30 -19 51 -20 308 -20 442 0 1067 -13 1029 -21 -174 -38 -230 -50 -263 -54 -21 -2 -116 -21 -210 -40 -95 -20 -246 -52 -337 -70 -492 -101 -510 -105 -543 -131 -35 -28 -47 -62 -47 -138 0 -53 4 -66 28 -94 26 -32 29 -33 127 -38 55 -3 359 -9 675 -12 l575 -7 -140 -28 c-77 -16 -203 -42 -280 -59 -77 -17 -153 -32 -169 -34 -27 -2 -142 -26 -516 -109 -85 -19 -170 -37 -189 -40 -72 -12 -101 -49 -108 -140 -7 -76 11 -115 67 -150 30 -19 53 -25 95 -25 30 0 55 4 55 9 0 5 24 12 53 15 28 4 126 22 217 41 91 18 244 50 340 70 96 20 193 38 215 41 22 3 99 18 171 35 72 16 148 32 170 34 21 3 98 19 169 35 72 16 148 31 170 34 22 3 113 21 203 41 89 19 179 37 200 39 20 2 100 18 176 35 76 18 155 33 175 35 20 3 99 18 176 36 77 17 155 33 173 36 19 2 89 16 155 30 67 15 147 30 177 35 54 8 72 21 131 96 12 16 12 103 -1 103 -5 0 -10 6 -10 13 0 15 -55 69 -87 86 -15 8 -199 11 -615 12 -326 1 -620 4 -653 8 l-60 6 97 23 c53 12 106 22 117 22 11 0 87 15 168 34 82 19 169 37 194 40 25 3 105 19 179 36 74 17 154 33 178 36 24 3 103 19 176 36 72 17 156 35 186 40 60 11 92 34 110 79 7 16 16 29 21 29 5 0 9 20 9 45 0 25 -4 45 -10 45 -5 0 -10 7 -10 15 0 26 -60 84 -98 95 -23 6 -242 10 -567 11 -291 1 -579 4 -640 8 l-110 6 70 13 c128 24 320 63 355 72 19 5 55 11 80 14 25 3 113 21 195 41 83 19 160 35 171 35 12 0 110 20 218 45 109 25 207 45 218 45 31 0 74 36 102 86 30 54 32 78 10 125 -24 49 -43 68 -91 90 -40 18 -73 19 -700 20 -595 0 -722 5 -567 23 27 3 105 19 174 35 69 16 145 32 170 35 25 3 122 22 215 42 294 62 489 102 530 109 22 3 59 13 83 21 23 8 54 14 68 14 33 0 100 53 108 85 4 14 11 25 16 25 21 0 9 75 -18 115 -57 82 -52 81 -399 89 -169 4 -463 6 -653 6 -190 0 -349 0 -355 1 -18 1 580 129 745 158 30 5 109 21 175 36 66 14 139 28 163 31 23 3 64 11 90 19 26 8 65 15 88 15 52 0 132 49 147 90 6 17 15 30 19 30 4 0 8 20 8 45 0 25 -4 45 -9 45 -5 0 -12 11 -15 24 -3 13 -21 37 -40 54 l-34 30 -682 7 c-376 4 -677 11 -669 15 8 4 82 19 164 35 150 27 342 65 660 131 490 102 497 104 536 166 16 26 19 45 16 91 -4 64 -26 103 -73 127 -16 8 -30 18 -32 23 -5 10 -80 9 -86 -2z"/>
 </g>
<g id="layer103" fill="#b6a9a6" stroke="none">
 <path d="M1005 3892 c-61 -38 -85 -78 -85 -138 0 -77 27 -127 82 -149 40 -15 151 -17 1563 -16 946 0 1531 4 1547 10 13 5 37 24 52 43 15 18 34 41 42 51 21 26 17 59 -13 118 -22 42 -36 56 -72 72 -45 20 -74 20 -1566 24 -1490 4 -1521 4 -1550 -15z"/>
 <path d="M1895 3310 l-880 -5 -33 -23 c-43 -32 -62 -71 -62 -132 0 -63 34 -121 82 -141 28 -12 269 -14 1565 -13 l1532 1 34 22 c47 29 95 122 79 154 -6 12 -13 32 -17 44 -3 12 -21 35 -39 51 -27 24 -48 31 -102 38 -82 9 -936 11 -2159 4z"/>
 <path d="M1031 2705 c-20 -5 -46 -17 -58 -25 -52 -39 -69 -139 -34 -208 21 -42 46 -58 106 -69 22 -5 718 -8 1546 -8 l1507 1 36 28 c44 33 86 97 86 129 0 13 -7 38 -16 55 -17 35 -89 101 -113 104 -58 8 -3029 1 -3060 -7z"/>
 <path d="M1910 2120 c-816 -5 -888 -6 -910 -22 -63 -44 -80 -75 -80 -144 0 -56 20 -95 62 -126 l33 -23 650 -8 c358 -4 1047 -5 1533 -3 848 6 885 7 928 25 31 14 49 30 61 55 9 20 20 36 25 36 4 0 8 18 8 40 0 22 -4 40 -10 40 -5 0 -10 6 -10 14 0 8 -20 36 -44 63 l-44 48 -658 5 c-363 3 -1057 3 -1544 0z"/>
 <path d="M1025 1513 c-27 -7 -66 -39 -87 -71 -12 -18 -18 -47 -18 -88 0 -54 3 -64 33 -96 26 -29 42 -37 82 -41 105 -13 892 -16 1965 -9 966 6 1118 9 1138 22 32 21 82 105 82 138 -1 30 -42 90 -86 125 l-29 22 -1530 1 c-841 1 -1539 -1 -1550 -3z"/>
 </g>

</svg>