<!DOCTYPE svg PUBLIC "-//W3C//DTD SVG 20010904//EN" "http://www.w3.org/TR/2001/REC-SVG-20010904/DTD/svg10.dtd">
<svg version="1.0" xmlns="http://www.w3.org/2000/svg" width="512px" height="512px" viewBox="0 0 5120 5120" preserveAspectRatio="xMidYMid meet">
<g id="layer101" fill="#000000" stroke="none">
 <path d="M0 2560 l0 -2560 2560 0 2560 0 0 2560 0 2560 -2560 0 -2560 0 0 -2560z"/>
 </g>
<g id="layer102" fill="#1258a2" stroke="none">
 <path d="M640 2880 l0 -2240 1920 0 1920 0 0 2240 0 2240 -250 0 -249 0 -3 -662 c-3 -639 -4 -664 -22 -689 -11 -14 -31 -34 -45 -45 -25 -19 -54 -19 -1351 -19 -1297 0 -1326 0 -1351 19 -14 11 -34 31 -45 45 -18 25 -19 50 -22 689 l-3 662 -249 0 -250 0 0 -2240z m3271 436 c67 -51 64 -34 64 -436 0 -402 3 -385 -64 -436 -25 -19 -54 -19 -1351 -19 -1297 0 -1326 0 -1351 19 -66 51 -64 40 -67 391 -4 390 -2 412 43 457 19 18 47 36 62 39 15 4 615 6 1333 5 1276 -1 1306 -1 1331 -20z m0 -1240 c14 -11 34 -31 45 -45 18 -25 19 -45 19 -411 0 -366 -1 -386 -19 -411 -11 -14 -31 -34 -45 -45 -25 -19 -54 -19 -1351 -19 -1297 0 -1326 0 -1351 19 -66 51 -64 37 -67 411 -4 412 -2 432 43 477 19 18 47 36 62 39 15 4 615 6 1333 5 1276 -1 1306 -1 1331 -20z"/>
 <path d="M1280 3137 l0 -62 88 -88 89 -88 68 75 c37 42 70 76 74 76 3 0 44 -74 91 -165 47 -91 87 -165 90 -165 3 0 25 46 49 103 25 56 55 126 68 156 l24 54 99 -98 98 -98 71 97 72 97 193 -101 194 -100 20 32 c11 18 38 66 61 105 l42 73 164 -140 165 -140 81 122 c45 68 86 127 90 133 6 6 40 -21 90 -70 l80 -80 85 92 85 92 32 -14 c18 -7 69 -29 115 -49 l82 -35 0 124 0 125 -1280 0 -1280 0 0 -63z"/>
 <path d="M1280 2766 l0 -206 1280 0 1280 0 -2 162 -3 162 -25 6 c-14 4 -55 21 -93 39 -37 17 -74 31 -81 31 -8 0 -46 -36 -86 -80 -65 -72 -76 -80 -109 -80 -31 0 -45 8 -91 55 -30 30 -58 55 -62 55 -4 0 -39 -47 -78 -105 -68 -102 -72 -105 -108 -105 -33 0 -52 13 -172 115 -74 63 -138 115 -141 115 -5 0 -28 -39 -66 -111 -37 -72 -65 -68 -269 34 l-172 86 -19 -22 c-11 -12 -39 -48 -62 -79 -38 -53 -45 -58 -79 -58 -31 0 -48 10 -108 65 l-71 64 -54 -122 c-45 -101 -59 -123 -81 -131 -58 -20 -77 -2 -153 146 l-71 137 -42 -49 c-37 -43 -48 -50 -80 -50 -32 0 -48 9 -110 66 l-72 66 0 -206z"/>
 <path d="M1280 1889 l0 -70 125 -59 126 -59 84 54 84 55 107 -130 c59 -72 110 -130 114 -130 4 0 42 59 85 130 43 72 81 130 85 130 4 0 26 -29 49 -66 l41 -65 85 71 85 71 165 -126 c158 -121 165 -125 174 -103 35 88 80 179 87 178 5 0 46 -30 90 -64 l81 -64 74 74 74 74 111 -111 112 -111 72 137 72 137 112 -111 c61 -61 114 -111 118 -111 3 0 38 40 77 90 l71 90 0 80 0 80 -1280 0 -1280 0 0 -71z"/>
 <path d="M1280 1510 l0 -230 1280 0 1280 0 0 200 c0 110 -2 200 -4 200 -2 0 -28 -29 -56 -65 -47 -59 -55 -65 -88 -65 -33 0 -46 10 -124 87 -48 48 -89 85 -92 82 -2 -2 -22 -41 -45 -87 -50 -100 -71 -122 -114 -122 -28 0 -48 14 -129 89 l-95 90 -54 -55 c-71 -72 -99 -73 -181 -8 -33 25 -60 45 -62 43 -1 -2 -15 -35 -30 -72 -16 -37 -37 -72 -47 -77 -33 -18 -77 -11 -111 18 -34 29 -223 173 -245 186 -8 4 -39 -15 -81 -48 -55 -45 -76 -56 -105 -56 -30 0 -40 6 -61 36 l-24 36 -25 -38 c-13 -22 -36 -61 -52 -89 -43 -76 -54 -85 -96 -85 -37 0 -42 5 -135 120 -55 67 -102 116 -108 113 -6 -4 -35 -22 -65 -41 -32 -20 -66 -34 -85 -34 -19 0 -75 21 -134 51 -56 28 -104 51 -107 51 -3 0 -5 -103 -5 -230z"/>
 <path d="M1280 4480 l0 -640 1280 0 1280 0 0 640 0 640 -1280 0 -1280 0 0 -640z"/>
 <path d="M70 4985 l0 -65 70 0 70 0 0 65 0 65 -70 0 -70 0 0 -65z"/>
 <path d="M280 4950 l0 -100 -105 0 -105 0 0 -40 0 -40 105 0 105 0 0 -280 0 -280 -105 0 -105 0 0 -40 0 -40 105 0 105 0 0 -110 0 -110 40 0 40 0 0 110 0 110 105 0 105 0 0 40 0 40 -105 0 -105 0 0 280 0 280 105 0 105 0 0 40 0 40 -105 0 -105 0 0 100 0 100 -40 0 -40 0 0 -100z"/>
 <path d="M430 4985 l0 -65 70 0 70 0 0 65 0 65 -70 0 -70 0 0 -65z"/>
 <path d="M4550 4985 l0 -65 70 0 70 0 0 65 0 65 -70 0 -70 0 0 -65z"/>
 <path d="M4760 4950 l0 -100 -105 0 -105 0 0 -40 0 -40 105 0 105 0 0 -280 0 -280 -105 0 -105 0 0 -40 0 -40 105 0 105 0 0 -110 0 -110 40 0 40 0 0 110 0 110 105 0 105 0 0 40 0 40 -105 0 -105 0 0 280 0 280 105 0 105 0 0 40 0 40 -105 0 -105 0 0 100 0 100 -40 0 -40 0 0 -100z"/>
 <path d="M4910 4985 l0 -65 70 0 70 0 0 65 0 65 -70 0 -70 0 0 -65z"/>
 <path d="M70 4490 l0 -210 70 0 70 0 0 210 0 210 -70 0 -70 0 0 -210z"/>
 <path d="M430 4490 l0 -210 70 0 70 0 0 210 0 210 -70 0 -70 0 0 -210z"/>
 <path d="M4550 4490 l0 -210 70 0 70 0 0 210 0 210 -70 0 -70 0 0 -210z"/>
 <path d="M4910 4490 l0 -210 70 0 70 0 0 210 0 210 -70 0 -70 0 0 -210z"/>
 <path d="M70 3985 l0 -75 70 0 70 0 0 75 0 75 -70 0 -70 0 0 -75z"/>
 <path d="M430 3985 l0 -75 70 0 70 0 0 75 0 75 -70 0 -70 0 0 -75z"/>
 <path d="M4550 3985 l0 -75 70 0 70 0 0 75 0 75 -70 0 -70 0 0 -75z"/>
 <path d="M4910 3985 l0 -75 70 0 70 0 0 75 0 75 -70 0 -70 0 0 -75z"/>
 <path d="M0 2560 l0 -1280 285 0 285 0 0 1280 0 1280 -285 0 -285 0 0 -1280z"/>
 <path d="M4550 2560 l0 -1280 285 0 285 0 0 1280 0 1280 -285 0 -285 0 0 -1280z"/>
 <path d="M70 1145 l0 -65 70 0 70 0 0 65 0 65 -70 0 -70 0 0 -65z"/>
 <path d="M280 1110 l0 -100 -105 0 -105 0 0 -40 0 -40 105 0 105 0 0 -280 0 -280 -105 0 -105 0 0 -40 0 -40 105 0 105 0 0 -110 0 -110 40 0 40 0 0 110 0 110 280 0 280 0 0 -110 0 -110 40 0 40 0 0 110 0 110 105 0 105 0 0 40 0 40 -105 0 -105 0 0 100 0 100 -40 0 -40 0 0 -100 0 -100 -280 0 -280 0 0 280 0 280 105 0 105 0 0 40 0 40 -105 0 -105 0 0 100 0 100 -40 0 -40 0 0 -100z"/>
 <path d="M430 1145 l0 -65 70 0 70 0 0 65 0 65 -70 0 -70 0 0 -65z"/>
 <path d="M4550 1145 l0 -65 70 0 70 0 0 65 0 65 -70 0 -70 0 0 -65z"/>
 <path d="M4760 1110 l0 -100 -105 0 -105 0 0 -40 0 -40 105 0 105 0 0 -280 0 -280 -280 0 -280 0 0 100 0 100 -40 0 -40 0 0 -100 0 -100 -105 0 -105 0 0 -40 0 -40 105 0 105 0 0 -110 0 -110 40 0 40 0 0 110 0 110 280 0 280 0 0 -110 0 -110 40 0 40 0 0 110 0 110 105 0 105 0 0 40 0 40 -105 0 -105 0 0 280 0 280 105 0 105 0 0 40 0 40 -105 0 -105 0 0 100 0 100 -40 0 -40 0 0 -100z"/>
 <path d="M4910 1145 l0 -65 70 0 70 0 0 65 0 65 -70 0 -70 0 0 -65z"/>
 <path d="M70 650 l0 -210 70 0 70 0 0 210 0 210 -70 0 -70 0 0 -210z"/>
 <path d="M430 650 l0 -210 210 0 210 0 0 65 0 65 -140 0 -140 0 0 145 0 145 -70 0 -70 0 0 -210z"/>
 <path d="M4550 715 l0 -145 -140 0 -140 0 0 -65 0 -65 210 0 210 0 0 210 0 210 -70 0 -70 0 0 -145z"/>
 <path d="M4910 650 l0 -210 70 0 70 0 0 210 0 210 -70 0 -70 0 0 -210z"/>
 <path d="M1070 505 l0 -65 70 0 70 0 0 65 0 65 -70 0 -70 0 0 -65z"/>
 <path d="M1280 285 l0 -285 1280 0 1280 0 0 285 0 285 -1280 0 -1280 0 0 -285z"/>
 <path d="M3910 505 l0 -65 70 0 70 0 0 65 0 65 -70 0 -70 0 0 -65z"/>
 <path d="M70 145 l0 -75 70 0 70 0 0 75 0 75 -70 0 -70 0 0 -75z"/>
 <path d="M430 145 l0 -75 210 0 210 0 0 75 0 75 -210 0 -210 0 0 -75z"/>
 <path d="M1070 145 l0 -75 70 0 70 0 0 75 0 75 -70 0 -70 0 0 -75z"/>
 <path d="M3910 145 l0 -75 70 0 70 0 0 75 0 75 -70 0 -70 0 0 -75z"/>
 <path d="M4270 145 l0 -75 210 0 210 0 0 75 0 75 -210 0 -210 0 0 -75z"/>
 <path d="M4910 145 l0 -75 70 0 70 0 0 75 0 75 -70 0 -70 0 0 -75z"/>
 </g>
<g id="layer103" fill="#4b4b4b" stroke="none">
 <path d="M640 2880 l0 -2240 1920 0 1920 0 0 2240 0 2240 -250 0 -249 0 -3 -662 c-3 -639 -4 -664 -22 -689 -11 -14 -31 -34 -45 -45 -25 -19 -54 -19 -1351 -19 -1297 0 -1326 0 -1351 19 -14 11 -34 31 -45 45 -18 25 -19 50 -22 689 l-3 662 -249 0 -250 0 0 -2240z m3271 436 c67 -51 64 -34 64 -436 0 -402 3 -385 -64 -436 -25 -19 -54 -19 -1351 -19 -1297 0 -1326 0 -1351 19 -66 51 -64 40 -67 391 -4 390 -2 412 43 457 19 18 47 36 62 39 15 4 615 6 1333 5 1276 -1 1306 -1 1331 -20z m0 -1240 c14 -11 34 -31 45 -45 18 -25 19 -45 19 -411 0 -366 -1 -386 -19 -411 -11 -14 -31 -34 -45 -45 -25 -19 -54 -19 -1351 -19 -1297 0 -1326 0 -1351 19 -66 51 -64 37 -67 411 -4 412 -2 432 43 477 19 18 47 36 62 39 15 4 615 6 1333 5 1276 -1 1306 -1 1331 -20z"/>
 <path d="M1280 3137 l0 -62 88 -88 89 -88 68 75 c37 42 70 76 74 76 3 0 44 -74 91 -165 47 -91 87 -165 90 -165 3 0 25 46 49 103 25 56 55 126 68 156 l24 54 99 -98 98 -98 71 97 72 97 193 -101 194 -100 20 32 c11 18 38 66 61 105 l42 73 164 -140 165 -140 81 122 c45 68 86 127 90 133 6 6 40 -21 90 -70 l80 -80 85 92 85 92 32 -14 c18 -7 69 -29 115 -49 l82 -35 0 124 0 125 -1280 0 -1280 0 0 -63z"/>
 <path d="M1280 2766 l0 -206 1280 0 1280 0 -2 162 -3 162 -25 6 c-14 4 -55 21 -93 39 -37 17 -74 31 -81 31 -8 0 -46 -36 -86 -80 -65 -72 -76 -80 -109 -80 -31 0 -45 8 -91 55 -30 30 -58 55 -62 55 -4 0 -39 -47 -78 -105 -68 -102 -72 -105 -108 -105 -33 0 -52 13 -172 115 -74 63 -138 115 -141 115 -5 0 -28 -39 -66 -111 -37 -72 -65 -68 -269 34 l-172 86 -19 -22 c-11 -12 -39 -48 -62 -79 -38 -53 -45 -58 -79 -58 -31 0 -48 10 -108 65 l-71 64 -54 -122 c-45 -101 -59 -123 -81 -131 -58 -20 -77 -2 -153 146 l-71 137 -42 -49 c-37 -43 -48 -50 -80 -50 -32 0 -48 9 -110 66 l-72 66 0 -206z"/>
 <path d="M1280 1889 l0 -70 125 -59 126 -59 84 54 84 55 107 -130 c59 -72 110 -130 114 -130 4 0 42 59 85 130 43 72 81 130 85 130 4 0 26 -29 49 -66 l41 -65 85 71 85 71 165 -126 c158 -121 165 -125 174 -103 35 88 80 179 87 178 5 0 46 -30 90 -64 l81 -64 74 74 74 74 111 -111 112 -111 72 137 72 137 112 -111 c61 -61 114 -111 118 -111 3 0 38 40 77 90 l71 90 0 80 0 80 -1280 0 -1280 0 0 -71z"/>
 <path d="M1280 1510 l0 -230 1280 0 1280 0 0 200 c0 110 -2 200 -4 200 -2 0 -28 -29 -56 -65 -47 -59 -55 -65 -88 -65 -33 0 -46 10 -124 87 -48 48 -89 85 -92 82 -2 -2 -22 -41 -45 -87 -50 -100 -71 -122 -114 -122 -28 0 -48 14 -129 89 l-95 90 -54 -55 c-71 -72 -99 -73 -181 -8 -33 25 -60 45 -62 43 -1 -2 -15 -35 -30 -72 -16 -37 -37 -72 -47 -77 -33 -18 -77 -11 -111 18 -34 29 -223 173 -245 186 -8 4 -39 -15 -81 -48 -55 -45 -76 -56 -105 -56 -30 0 -40 6 -61 36 l-24 36 -25 -38 c-13 -22 -36 -61 -52 -89 -43 -76 -54 -85 -96 -85 -37 0 -42 5 -135 120 -55 67 -102 116 -108 113 -6 -4 -35 -22 -65 -41 -32 -20 -66 -34 -85 -34 -19 0 -75 21 -134 51 -56 28 -104 51 -107 51 -3 0 -5 -103 -5 -230z"/>
 <path d="M1280 4480 l0 -640 1280 0 1280 0 0 640 0 640 -1280 0 -1280 0 0 -640z"/>
 <path d="M280 4950 l0 -100 -105 0 -105 0 0 -40 0 -40 105 0 105 0 0 -280 0 -280 -105 0 -105 0 0 -40 0 -40 105 0 105 0 0 -110 0 -110 40 0 40 0 0 110 0 110 105 0 105 0 0 40 0 40 -105 0 -105 0 0 280 0 280 105 0 105 0 0 40 0 40 -105 0 -105 0 0 100 0 100 -40 0 -40 0 0 -100z"/>
 <path d="M4760 4950 l0 -100 -105 0 -105 0 0 -40 0 -40 105 0 105 0 0 -280 0 -280 -105 0 -105 0 0 -40 0 -40 105 0 105 0 0 -110 0 -110 40 0 40 0 0 110 0 110 105 0 105 0 0 40 0 40 -105 0 -105 0 0 280 0 280 105 0 105 0 0 40 0 40 -105 0 -105 0 0 100 0 100 -40 0 -40 0 0 -100z"/>
 <path d="M0 2560 l0 -1280 285 0 285 0 0 1280 0 1280 -285 0 -285 0 0 -1280z"/>
 <path d="M4550 2560 l0 -1280 285 0 285 0 0 1280 0 1280 -285 0 -285 0 0 -1280z"/>
 <path d="M280 1110 l0 -100 -105 0 -105 0 0 -40 0 -40 105 0 105 0 0 -280 0 -280 -105 0 -105 0 0 -40 0 -40 105 0 105 0 0 -110 0 -110 40 0 40 0 0 110 0 110 280 0 280 0 0 -110 0 -110 40 0 40 0 0 110 0 110 105 0 105 0 0 40 0 40 -105 0 -105 0 0 100 0 100 -40 0 -40 0 0 -100 0 -100 -280 0 -280 0 0 280 0 280 105 0 105 0 0 40 0 40 -105 0 -105 0 0 100 0 100 -40 0 -40 0 0 -100z"/>
 <path d="M4760 1110 l0 -100 -105 0 -105 0 0 -40 0 -40 105 0 105 0 0 -280 0 -280 -280 0 -280 0 0 100 0 100 -40 0 -40 0 0 -100 0 -100 -105 0 -105 0 0 -40 0 -40 105 0 105 0 0 -110 0 -110 40 0 40 0 0 110 0 110 280 0 280 0 0 -110 0 -110 40 0 40 0 0 110 0 110 105 0 105 0 0 40 0 40 -105 0 -105 0 0 280 0 280 105 0 105 0 0 40 0 40 -105 0 -105 0 0 100 0 100 -40 0 -40 0 0 -100z"/>
 <path d="M1280 285 l0 -285 1280 0 1280 0 0 285 0 285 -1280 0 -1280 0 0 -285z"/>
 </g>
<g id="layer104" fill="#8b8b8b" stroke="none">
 <path d="M640 2880 l0 -2240 1920 0 1920 0 0 2240 0 2240 -250 0 -250 0 -2 -664 c-3 -654 -3 -665 -24 -693 -11 -15 -36 -36 -55 -45 -32 -17 -116 -18 -1339 -18 -1223 0 -1307 1 -1339 18 -19 9 -44 30 -55 45 -21 28 -21 39 -24 693 l-2 664 -250 0 -250 0 0 -2240z m3259 442 c19 -9 44 -30 55 -45 20 -28 21 -40 21 -397 0 -357 -1 -369 -21 -397 -11 -15 -36 -36 -55 -45 -32 -17 -116 -18 -1339 -18 -1223 0 -1307 1 -1339 18 -19 9 -44 30 -55 45 -20 28 -21 40 -21 397 0 357 1 369 21 397 11 15 36 36 55 45 32 17 116 18 1339 18 1223 0 1307 -1 1339 -18z m0 -1240 c19 -9 44 -30 55 -45 20 -28 21 -40 21 -417 0 -377 -1 -389 -21 -417 -11 -15 -36 -36 -55 -45 -32 -17 -116 -18 -1339 -18 -1223 0 -1307 1 -1339 18 -19 9 -44 30 -55 45 -20 28 -21 40 -21 417 0 377 1 389 21 417 11 15 36 36 55 45 32 17 116 18 1339 18 1223 0 1307 -1 1339 -18z"/>
 <path d="M1280 3137 l0 -62 88 -88 89 -88 68 75 c37 42 70 76 74 76 3 0 44 -74 91 -165 47 -91 87 -165 90 -165 3 0 25 46 49 103 25 56 55 126 68 156 l24 54 99 -98 98 -98 71 97 72 97 193 -101 194 -100 20 32 c11 18 38 66 61 105 l42 73 164 -140 165 -140 81 122 c45 68 86 127 90 133 6 6 40 -21 90 -70 l80 -80 85 92 85 92 32 -14 c18 -7 69 -29 115 -49 l82 -35 0 124 0 125 -1280 0 -1280 0 0 -63z"/>
 <path d="M1280 2767 l0 -207 1280 0 1280 0 0 158 0 157 -107 44 -106 44 -19 -22 c-54 -68 -120 -132 -142 -141 -38 -14 -73 3 -127 63 -26 29 -49 50 -51 47 -3 -3 -32 -46 -65 -95 -71 -107 -84 -119 -127 -119 -27 0 -55 19 -164 112 -72 62 -135 112 -140 112 -4 0 -24 -28 -43 -61 -37 -67 -70 -99 -102 -99 -11 0 -97 40 -192 89 l-171 89 -55 -71 c-58 -77 -96 -103 -132 -91 -12 4 -51 35 -87 70 l-66 63 -48 -112 c-58 -135 -67 -147 -117 -147 -46 0 -49 4 -133 163 l-63 119 -35 -41 c-38 -44 -80 -65 -112 -55 -11 4 -51 36 -88 72 l-68 65 0 -206z"/>
 <path d="M1280 1889 l0 -70 125 -59 126 -59 84 54 84 55 107 -130 c59 -72 110 -130 114 -130 4 0 42 59 85 130 43 72 81 130 85 130 4 0 26 -29 49 -66 l41 -65 85 71 85 71 165 -126 c158 -121 165 -125 174 -103 35 88 80 179 87 178 5 0 46 -30 90 -64 l81 -64 74 74 74 74 111 -111 112 -111 72 137 72 137 112 -111 c61 -61 114 -111 118 -111 3 0 38 40 77 90 l71 90 0 80 0 80 -1280 0 -1280 0 0 -71z"/>
 <path d="M1280 1510 l0 -230 1280 0 1280 0 0 201 0 200 -51 -61 c-53 -64 -88 -85 -123 -74 -11 4 -59 43 -105 88 -46 44 -86 77 -88 71 -2 -5 -25 -48 -51 -95 -50 -90 -83 -117 -125 -104 -12 4 -63 47 -113 96 l-91 89 -44 -50 c-47 -53 -89 -75 -123 -65 -11 4 -40 21 -62 40 -23 18 -47 34 -54 36 -6 2 -26 -26 -44 -62 -33 -69 -68 -97 -107 -85 -12 4 -86 56 -165 115 l-143 108 -68 -56 c-82 -68 -119 -74 -163 -25 l-28 31 -61 -94 c-89 -139 -120 -143 -215 -28 -28 33 -69 82 -91 109 l-41 48 -54 -36 c-86 -57 -98 -57 -232 7 l-118 55 0 -229z"/>
 <path d="M1280 4480 l0 -640 1280 0 1280 0 0 640 0 640 -1280 0 -1280 0 0 -640z"/>
 <path d="M280 4950 l0 -100 -105 0 -105 0 0 -40 0 -40 105 0 105 0 0 -280 0 -280 -105 0 -105 0 0 -40 0 -40 105 0 105 0 0 -110 0 -110 40 0 40 0 0 110 0 110 105 0 105 0 0 40 0 40 -105 0 -105 0 0 280 0 280 105 0 105 0 0 40 0 40 -105 0 -105 0 0 100 0 100 -40 0 -40 0 0 -100z"/>
 <path d="M4760 4950 l0 -100 -105 0 -105 0 0 -40 0 -40 105 0 105 0 0 -280 0 -280 -105 0 -105 0 0 -40 0 -40 105 0 105 0 0 -110 0 -110 40 0 40 0 0 110 0 110 105 0 105 0 0 40 0 40 -105 0 -105 0 0 280 0 280 105 0 105 0 0 40 0 40 -105 0 -105 0 0 100 0 100 -40 0 -40 0 0 -100z"/>
 <path d="M0 2560 l0 -1280 250 0 250 0 0 1280 0 1280 -250 0 -250 0 0 -1280z"/>
 <path d="M4620 2560 l0 -1280 250 0 250 0 0 1280 0 1280 -250 0 -250 0 0 -1280z"/>
 <path d="M280 1110 l0 -100 -105 0 -105 0 0 -40 0 -40 105 0 105 0 0 -280 0 -280 -105 0 -105 0 0 -40 0 -40 105 0 105 0 0 -110 0 -110 40 0 40 0 0 110 0 110 280 0 280 0 0 -110 0 -110 40 0 40 0 0 110 0 110 105 0 105 0 0 40 0 40 -105 0 -105 0 0 100 0 100 -40 0 -40 0 0 -100 0 -100 -280 0 -280 0 0 280 0 280 105 0 105 0 0 40 0 40 -105 0 -105 0 0 100 0 100 -40 0 -40 0 0 -100z"/>
 <path d="M4760 1110 l0 -100 -105 0 -105 0 0 -40 0 -40 105 0 105 0 0 -280 0 -280 -280 0 -280 0 0 100 0 100 -40 0 -40 0 0 -100 0 -100 -105 0 -105 0 0 -40 0 -40 105 0 105 0 0 -110 0 -110 40 0 40 0 0 110 0 110 280 0 280 0 0 -110 0 -110 40 0 40 0 0 110 0 110 105 0 105 0 0 40 0 40 -105 0 -105 0 0 280 0 280 105 0 105 0 0 40 0 40 -105 0 -105 0 0 100 0 100 -40 0 -40 0 0 -100z"/>
 <path d="M1280 250 l0 -250 1280 0 1280 0 0 250 0 250 -1280 0 -1280 0 0 -250z"/>
 </g>
<g id="layer105" fill="#ff8b4b" stroke="none">
 <path d="M1280 4480 l0 -640 1280 0 1280 0 0 640 0 640 -1280 0 -1280 0 0 -640z"/>
 <path d="M1280 3137 l0 -62 88 -88 89 -88 68 75 c37 42 70 76 74 76 3 0 44 -74 91 -165 47 -91 87 -165 90 -165 3 0 25 46 49 103 25 56 55 126 68 156 l24 54 99 -98 98 -98 71 97 72 97 193 -101 194 -100 20 32 c11 18 38 66 61 105 l42 73 164 -140 165 -140 81 122 c45 68 86 127 90 133 6 6 40 -21 90 -70 l80 -80 85 92 85 92 32 -14 c18 -7 69 -29 115 -49 l82 -35 0 124 0 125 -1280 0 -1280 0 0 -63z"/>
 <path d="M1280 1889 l0 -70 125 -59 126 -59 84 54 84 55 107 -130 c59 -72 110 -130 114 -130 4 0 42 59 85 130 43 72 81 130 85 130 4 0 26 -29 49 -66 l41 -65 85 71 85 71 165 -126 c158 -121 165 -125 174 -103 35 88 80 179 87 178 5 0 46 -30 90 -64 l81 -64 74 74 74 74 111 -111 112 -111 72 137 72 137 112 -111 c61 -61 114 -111 118 -111 3 0 38 40 77 90 l71 90 0 80 0 80 -1280 0 -1280 0 0 -71z"/>
 </g>

</svg>