<!DOCTYPE svg PUBLIC "-//W3C//DTD SVG 20010904//EN" "http://www.w3.org/TR/2001/REC-SVG-20010904/DTD/svg10.dtd">
<svg version="1.0" xmlns="http://www.w3.org/2000/svg" width="512px" height="512px" viewBox="0 0 5120 5120" preserveAspectRatio="xMidYMid meet">
<g id="layer101" fill="#000000" stroke="none">
 <path d="M0 2560 l0 -2560 2560 0 2560 0 0 2560 0 2560 -2560 0 -2560 0 0 -2560z"/>
 </g>
<g id="layer102" fill="#8b0000" stroke="none">
 <path d="M70 5070 c0 -57 6 -57 66 -3 17 15 40 33 50 40 16 10 8 12 -48 12 l-68 1 0 -50z"/>
 <path d="M193 5022 l-122 -97 -1 -122 c0 -68 2 -123 5 -123 3 0 59 43 126 94 l121 95 118 -95 c65 -51 121 -94 124 -94 3 0 6 55 6 123 l0 123 -115 89 c-63 50 -115 93 -115 97 0 20 -35 -1 -147 -90z"/>
 <path d="M481 5089 c24 -18 54 -41 67 -52 l22 -20 0 51 0 52 -67 0 -66 0 44 -31z"/>
 <path d="M640 2560 l0 -2560 1920 0 1920 0 0 2560 0 2560 -1920 0 -1920 0 0 -2560z"/>
 <path d="M4550 5070 c0 -57 6 -57 66 -3 17 15 40 33 50 40 16 10 8 12 -48 12 l-68 1 0 -50z"/>
 <path d="M4673 5022 l-122 -97 -1 -122 c0 -68 2 -123 5 -123 3 0 59 43 126 94 l121 95 118 -95 c65 -51 121 -94 124 -94 3 0 6 55 6 123 l0 122 -115 90 c-63 49 -115 93 -115 97 0 20 -34 -1 -147 -90z"/>
 <path d="M4920 5116 c0 -3 23 -19 50 -37 28 -18 50 -36 50 -40 0 -4 7 -9 15 -13 12 -4 15 4 15 44 l0 50 -65 0 c-36 0 -65 -2 -65 -4z"/>
 <path d="M300 4761 c0 -4 -20 -21 -45 -37 -25 -15 -45 -31 -45 -36 0 -4 -12 -14 -27 -22 -16 -8 -43 -28 -61 -45 -18 -17 -37 -31 -43 -31 -5 0 -9 -46 -9 -105 0 -117 -2 -115 62 -63 95 79 149 118 170 123 32 8 75 -10 112 -46 17 -17 52 -44 79 -61 26 -17 47 -35 47 -39 0 -4 7 -9 15 -13 13 -5 15 10 15 97 l-1 102 -55 40 c-31 22 -64 47 -73 55 -83 75 -141 109 -141 81z"/>
 <path d="M4780 4761 c0 -4 -20 -21 -45 -37 -25 -15 -45 -31 -45 -36 0 -4 -12 -14 -27 -22 -16 -8 -43 -28 -61 -45 -18 -17 -37 -31 -43 -31 -5 0 -9 -46 -9 -105 0 -117 -2 -115 62 -63 95 79 149 118 170 123 32 8 75 -10 112 -46 17 -17 52 -44 79 -61 26 -17 47 -35 47 -39 0 -4 7 -9 15 -13 13 -5 15 10 15 97 l-1 102 -55 40 c-31 22 -64 47 -73 55 -83 75 -141 109 -141 81z"/>
 <path d="M193 4382 l-122 -97 -1 -122 c0 -68 2 -123 5 -123 3 0 59 43 126 94 l121 95 118 -95 c65 -51 121 -94 124 -94 3 0 6 55 6 123 l0 122 -124 98 c-69 53 -126 97 -128 96 -2 0 -58 -44 -125 -97z"/>
 <path d="M4673 4382 l-122 -97 -1 -122 c0 -68 2 -123 5 -123 3 0 59 43 126 94 l121 95 118 -95 c65 -51 121 -94 124 -94 3 0 6 55 6 123 l0 122 -124 98 c-69 53 -126 97 -128 96 -2 0 -58 -44 -125 -97z"/>
 <path d="M300 4121 c0 -4 -20 -21 -45 -37 -25 -15 -45 -31 -45 -36 0 -4 -12 -14 -27 -22 -16 -8 -43 -28 -61 -45 -18 -17 -37 -31 -43 -31 -5 0 -9 -46 -9 -105 0 -117 -2 -115 62 -63 95 79 149 118 170 123 32 8 75 -10 112 -46 17 -17 52 -44 79 -61 26 -17 47 -35 47 -39 0 -4 7 -9 15 -13 13 -5 15 10 15 97 l-1 102 -55 40 c-31 22 -64 47 -73 55 -83 75 -141 109 -141 81z"/>
 <path d="M4780 4121 c0 -4 -20 -21 -45 -37 -25 -15 -45 -31 -45 -36 0 -4 -12 -14 -27 -22 -16 -8 -43 -28 -61 -45 -18 -17 -37 -31 -43 -31 -5 0 -9 -46 -9 -105 0 -117 -2 -115 62 -63 95 79 149 118 170 123 32 8 75 -10 112 -46 17 -17 52 -44 79 -61 26 -17 47 -35 47 -39 0 -4 7 -9 15 -13 13 -5 15 10 15 97 l-1 102 -55 40 c-31 22 -64 47 -73 55 -83 75 -141 109 -141 81z"/>
 <path d="M193 3742 l-122 -97 -1 -122 c0 -68 2 -123 5 -123 3 0 59 43 126 94 l121 95 118 -95 c65 -51 121 -94 124 -94 3 0 6 55 6 123 l0 122 -124 98 c-69 53 -126 97 -128 96 -2 0 -58 -44 -125 -97z"/>
 <path d="M4673 3742 l-122 -97 -1 -122 c0 -68 2 -123 5 -123 3 0 59 43 126 94 l121 95 118 -95 c65 -51 121 -94 124 -94 3 0 6 55 6 123 l0 122 -124 98 c-69 53 -126 97 -128 96 -2 0 -58 -44 -125 -97z"/>
 <path d="M300 3481 c0 -4 -20 -21 -45 -37 -25 -15 -45 -31 -45 -36 0 -4 -12 -14 -27 -22 -16 -8 -43 -28 -61 -45 -18 -17 -37 -31 -43 -31 -5 0 -9 -46 -9 -105 0 -117 -2 -115 62 -63 95 79 149 118 170 123 32 8 75 -10 112 -46 17 -17 52 -44 79 -61 26 -17 47 -35 47 -39 0 -4 7 -9 15 -13 13 -5 15 10 15 97 l-1 102 -55 40 c-31 22 -64 47 -73 55 -83 75 -141 109 -141 81z"/>
 <path d="M4780 3481 c0 -4 -20 -21 -45 -37 -25 -15 -45 -31 -45 -36 0 -4 -12 -14 -27 -22 -16 -8 -43 -28 -61 -45 -18 -17 -37 -31 -43 -31 -5 0 -9 -46 -9 -105 0 -117 -2 -115 62 -63 95 79 149 118 170 123 32 8 75 -10 112 -46 17 -17 52 -44 79 -61 26 -17 47 -35 47 -39 0 -4 7 -9 15 -13 13 -5 15 10 15 97 l-1 102 -55 40 c-31 22 -64 47 -73 55 -83 75 -141 109 -141 81z"/>
 <path d="M193 3102 l-122 -97 -1 -122 c0 -68 2 -123 5 -123 3 0 59 43 126 94 l121 95 118 -95 c65 -51 121 -94 124 -94 3 0 6 55 6 123 l0 122 -124 98 c-69 53 -126 97 -128 96 -2 0 -58 -44 -125 -97z"/>
 <path d="M4673 3102 l-122 -97 -1 -122 c0 -68 2 -123 5 -123 3 0 59 43 126 94 l121 95 118 -95 c65 -51 121 -94 124 -94 3 0 6 55 6 123 l0 122 -124 98 c-69 53 -126 97 -128 96 -2 0 -58 -44 -125 -97z"/>
 <path d="M300 2841 c0 -4 -20 -21 -45 -37 -25 -15 -45 -31 -45 -36 0 -4 -12 -14 -27 -22 -16 -8 -43 -28 -61 -45 -18 -17 -37 -31 -43 -31 -5 0 -9 -46 -9 -105 0 -117 -2 -115 62 -63 95 79 149 118 170 123 32 8 75 -10 112 -46 17 -17 52 -44 79 -61 26 -17 47 -35 47 -39 0 -4 7 -9 15 -13 13 -5 15 10 15 97 l-1 102 -55 40 c-31 22 -64 47 -73 55 -83 75 -141 109 -141 81z"/>
 <path d="M4780 2841 c0 -4 -20 -21 -45 -37 -25 -15 -45 -31 -45 -36 0 -4 -12 -14 -27 -22 -16 -8 -43 -28 -61 -45 -18 -17 -37 -31 -43 -31 -5 0 -9 -46 -9 -105 0 -117 -2 -115 62 -63 95 79 149 118 170 123 32 8 75 -10 112 -46 17 -17 52 -44 79 -61 26 -17 47 -35 47 -39 0 -4 7 -9 15 -13 13 -5 15 10 15 97 l-1 102 -55 40 c-31 22 -64 47 -73 55 -83 75 -141 109 -141 81z"/>
 <path d="M193 2462 l-122 -97 -1 -122 c0 -68 2 -123 5 -123 3 0 59 43 126 94 l121 95 118 -95 c65 -51 121 -94 124 -94 3 0 6 55 6 123 l0 122 -124 98 c-69 53 -126 97 -128 96 -2 0 -58 -44 -125 -97z"/>
 <path d="M4673 2462 l-122 -97 -1 -122 c0 -68 2 -123 5 -123 3 0 59 43 126 94 l121 95 118 -95 c65 -51 121 -94 124 -94 3 0 6 55 6 123 l0 122 -124 98 c-69 53 -126 97 -128 96 -2 0 -58 -44 -125 -97z"/>
 <path d="M300 2201 c0 -4 -20 -21 -45 -37 -25 -15 -45 -31 -45 -36 0 -4 -12 -14 -27 -22 -16 -8 -43 -28 -61 -45 -18 -17 -37 -31 -43 -31 -5 0 -9 -46 -9 -105 0 -117 -2 -115 62 -63 95 79 149 118 170 123 32 8 75 -10 112 -46 17 -17 52 -44 79 -61 26 -17 47 -35 47 -39 0 -4 7 -9 15 -13 13 -5 15 10 15 97 l-1 102 -55 40 c-31 22 -64 47 -73 55 -83 75 -141 109 -141 81z"/>
 <path d="M4780 2201 c0 -4 -20 -21 -45 -37 -25 -15 -45 -31 -45 -36 0 -4 -12 -14 -27 -22 -16 -8 -43 -28 -61 -45 -18 -17 -37 -31 -43 -31 -5 0 -9 -46 -9 -105 0 -117 -2 -115 62 -63 95 79 149 118 170 123 32 8 75 -10 112 -46 17 -17 52 -44 79 -61 26 -17 47 -35 47 -39 0 -4 7 -9 15 -13 13 -5 15 10 15 97 l-1 102 -55 40 c-31 22 -64 47 -73 55 -83 75 -141 109 -141 81z"/>
 <path d="M193 1822 l-122 -97 -1 -122 c0 -68 2 -123 5 -123 3 0 59 43 126 94 l121 95 118 -95 c65 -51 121 -94 124 -94 3 0 6 55 6 123 l0 122 -124 98 c-69 53 -126 97 -128 96 -2 0 -58 -44 -125 -97z"/>
 <path d="M4673 1822 l-122 -97 -1 -122 c0 -68 2 -123 5 -123 3 0 59 43 126 94 l121 95 118 -95 c65 -51 121 -94 124 -94 3 0 6 55 6 123 l0 122 -124 98 c-69 53 -126 97 -128 96 -2 0 -58 -44 -125 -97z"/>
 <path d="M300 1561 c0 -4 -20 -21 -45 -37 -25 -15 -45 -31 -45 -36 0 -4 -12 -14 -27 -22 -16 -8 -43 -28 -61 -45 -18 -17 -37 -31 -43 -31 -5 0 -9 -46 -9 -105 0 -117 -2 -115 62 -63 95 79 149 118 170 123 32 8 75 -10 112 -46 17 -17 52 -44 79 -61 26 -17 47 -35 47 -39 0 -4 7 -9 15 -13 13 -5 15 10 15 97 l-1 102 -55 40 c-31 22 -64 47 -73 55 -83 75 -141 109 -141 81z"/>
 <path d="M4780 1561 c0 -4 -20 -21 -45 -37 -25 -15 -45 -31 -45 -36 0 -4 -12 -14 -27 -22 -16 -8 -43 -28 -61 -45 -18 -17 -37 -31 -43 -31 -5 0 -9 -46 -9 -105 0 -117 -2 -115 62 -63 95 79 149 118 170 123 32 8 75 -10 112 -46 17 -17 52 -44 79 -61 26 -17 47 -35 47 -39 0 -4 7 -9 15 -13 13 -5 15 10 15 97 l-1 102 -55 40 c-31 22 -64 47 -73 55 -83 75 -141 109 -141 81z"/>
 <path d="M193 1182 l-122 -97 -1 -122 c0 -68 2 -123 5 -123 3 0 59 43 126 94 l121 95 118 -95 c65 -51 121 -94 124 -94 3 0 6 55 6 123 l0 122 -124 98 c-69 53 -126 97 -128 96 -2 0 -58 -44 -125 -97z"/>
 <path d="M4673 1182 l-122 -97 -1 -122 c0 -68 2 -123 5 -123 3 0 59 43 126 94 l121 95 118 -95 c65 -51 121 -94 124 -94 3 0 6 55 6 123 l0 122 -124 98 c-69 53 -126 97 -128 96 -2 0 -58 -44 -125 -97z"/>
 <path d="M300 921 c0 -4 -20 -21 -45 -37 -25 -15 -45 -31 -45 -36 0 -4 -12 -14 -27 -22 -16 -8 -43 -28 -61 -45 -18 -17 -37 -31 -43 -31 -5 0 -9 -46 -9 -105 0 -117 -2 -115 62 -63 95 79 149 118 170 123 32 8 75 -10 112 -46 17 -17 52 -44 79 -61 26 -17 47 -35 47 -39 0 -4 7 -9 15 -13 13 -5 15 10 15 97 l-1 102 -55 40 c-31 22 -64 47 -73 55 -83 75 -141 109 -141 81z"/>
 <path d="M4780 921 c0 -4 -20 -21 -45 -37 -25 -15 -45 -31 -45 -36 0 -4 -12 -14 -27 -22 -16 -8 -43 -28 -61 -45 -18 -17 -37 -31 -43 -31 -5 0 -9 -46 -9 -105 0 -117 -2 -115 62 -63 95 79 149 118 170 123 32 8 75 -10 112 -46 17 -17 52 -44 79 -61 26 -17 47 -35 47 -39 0 -4 7 -9 15 -13 13 -5 15 10 15 97 l-1 102 -55 40 c-31 22 -64 47 -73 55 -83 75 -141 109 -141 81z"/>
 <path d="M193 542 l-122 -97 -1 -122 c0 -68 2 -123 5 -123 3 0 59 43 126 94 l121 95 118 -95 c65 -51 121 -94 124 -94 3 0 6 55 6 123 l0 122 -124 98 c-69 53 -126 97 -128 96 -2 0 -58 -44 -125 -97z"/>
 <path d="M4673 542 l-122 -97 -1 -122 c0 -68 2 -123 5 -123 3 0 59 43 126 94 l121 95 118 -95 c65 -51 121 -94 124 -94 3 0 6 55 6 123 l0 122 -124 98 c-69 53 -126 97 -128 96 -2 0 -58 -44 -125 -97z"/>
 <path d="M300 281 c0 -4 -20 -21 -45 -37 -25 -15 -45 -31 -45 -36 0 -4 -12 -14 -27 -22 -16 -8 -43 -28 -61 -45 -18 -17 -37 -31 -43 -31 -5 0 -9 -25 -9 -55 l0 -55 250 0 250 0 0 53 c-1 52 -1 52 -56 92 -31 22 -64 47 -73 55 -83 75 -141 109 -141 81z"/>
 <path d="M4780 281 c0 -4 -20 -21 -45 -37 -25 -15 -45 -31 -45 -36 0 -4 -12 -14 -27 -22 -16 -8 -43 -28 -61 -45 -18 -17 -37 -31 -43 -31 -5 0 -9 -25 -9 -55 l0 -55 250 0 250 0 0 53 c-1 52 -1 52 -56 92 -31 22 -64 47 -73 55 -83 75 -141 109 -141 81z"/>
 </g>
<g id="layer103" fill="#000000" stroke="none">
 <path d="M640 2560 l0 -2560 1920 0 1920 0 0 2560 0 2560 -1920 0 -1920 0 0 -2560z"/>
 <path d="M188 5017 l-117 -92 -1 -122 c0 -68 2 -123 5 -123 3 0 59 43 126 94 l121 95 118 -95 c65 -51 121 -94 124 -94 3 0 6 55 6 123 l0 123 -115 89 c-63 50 -123 91 -132 92 -10 1 -71 -39 -135 -90z"/>
 <path d="M4668 5017 l-117 -92 -1 -122 c0 -68 2 -123 5 -123 3 0 59 43 126 94 l121 95 118 -95 c65 -51 121 -94 124 -94 3 0 6 55 6 123 l0 122 -115 90 c-63 50 -123 91 -133 92 -9 1 -70 -39 -134 -90z"/>
 <path d="M193 4382 l-122 -97 -1 -122 c0 -68 2 -123 5 -123 3 0 59 43 126 94 l121 95 118 -95 c65 -51 121 -94 124 -94 3 0 6 55 6 123 l0 122 -124 98 c-69 53 -126 97 -128 96 -2 0 -58 -44 -125 -97z"/>
 <path d="M4673 4382 l-122 -97 -1 -122 c0 -68 2 -123 5 -123 3 0 59 43 126 94 l121 95 118 -95 c65 -51 121 -94 124 -94 3 0 6 55 6 123 l0 122 -124 98 c-69 53 -126 97 -128 96 -2 0 -58 -44 -125 -97z"/>
 <path d="M193 3742 l-122 -97 -1 -122 c0 -68 2 -123 5 -123 3 0 59 43 126 94 l121 95 118 -95 c65 -51 121 -94 124 -94 3 0 6 55 6 123 l0 122 -124 98 c-69 53 -126 97 -128 96 -2 0 -58 -44 -125 -97z"/>
 <path d="M4673 3742 l-122 -97 -1 -122 c0 -68 2 -123 5 -123 3 0 59 43 126 94 l121 95 118 -95 c65 -51 121 -94 124 -94 3 0 6 55 6 123 l0 122 -124 98 c-69 53 -126 97 -128 96 -2 0 -58 -44 -125 -97z"/>
 <path d="M193 3102 l-122 -97 -1 -122 c0 -68 2 -123 5 -123 3 0 59 43 126 94 l121 95 118 -95 c65 -51 121 -94 124 -94 3 0 6 55 6 123 l0 122 -124 98 c-69 53 -126 97 -128 96 -2 0 -58 -44 -125 -97z"/>
 <path d="M4673 3102 l-122 -97 -1 -122 c0 -68 2 -123 5 -123 3 0 59 43 126 94 l121 95 118 -95 c65 -51 121 -94 124 -94 3 0 6 55 6 123 l0 122 -124 98 c-69 53 -126 97 -128 96 -2 0 -58 -44 -125 -97z"/>
 <path d="M193 2462 l-122 -97 -1 -122 c0 -68 2 -123 5 -123 3 0 59 43 126 94 l121 95 118 -95 c65 -51 121 -94 124 -94 3 0 6 55 6 123 l0 122 -124 98 c-69 53 -126 97 -128 96 -2 0 -58 -44 -125 -97z"/>
 <path d="M4673 2462 l-122 -97 -1 -122 c0 -68 2 -123 5 -123 3 0 59 43 126 94 l121 95 118 -95 c65 -51 121 -94 124 -94 3 0 6 55 6 123 l0 122 -124 98 c-69 53 -126 97 -128 96 -2 0 -58 -44 -125 -97z"/>
 <path d="M193 1822 l-122 -97 -1 -122 c0 -68 2 -123 5 -123 3 0 59 43 126 94 l121 95 118 -95 c65 -51 121 -94 124 -94 3 0 6 55 6 123 l0 122 -124 98 c-69 53 -126 97 -128 96 -2 0 -58 -44 -125 -97z"/>
 <path d="M4673 1822 l-122 -97 -1 -122 c0 -68 2 -123 5 -123 3 0 59 43 126 94 l121 95 118 -95 c65 -51 121 -94 124 -94 3 0 6 55 6 123 l0 122 -124 98 c-69 53 -126 97 -128 96 -2 0 -58 -44 -125 -97z"/>
 <path d="M193 1182 l-122 -97 -1 -122 c0 -68 2 -123 5 -123 3 0 59 43 126 94 l121 95 118 -95 c65 -51 121 -94 124 -94 3 0 6 55 6 123 l0 122 -124 98 c-69 53 -126 97 -128 96 -2 0 -58 -44 -125 -97z"/>
 <path d="M4673 1182 l-122 -97 -1 -122 c0 -68 2 -123 5 -123 3 0 59 43 126 94 l121 95 118 -95 c65 -51 121 -94 124 -94 3 0 6 55 6 123 l0 122 -124 98 c-69 53 -126 97 -128 96 -2 0 -58 -44 -125 -97z"/>
 <path d="M193 542 l-122 -97 -1 -122 c0 -68 2 -123 5 -123 3 0 59 43 126 94 l121 95 118 -95 c65 -51 121 -94 124 -94 3 0 6 55 6 123 l0 122 -124 98 c-69 53 -126 97 -128 96 -2 0 -58 -44 -125 -97z"/>
 <path d="M4673 542 l-122 -97 -1 -122 c0 -68 2 -123 5 -123 3 0 59 43 126 94 l121 95 118 -95 c65 -51 121 -94 124 -94 3 0 6 55 6 123 l0 122 -124 98 c-69 53 -126 97 -128 96 -2 0 -58 -44 -125 -97z"/>
 </g>
<g id="layer104" fill="#4b4b4b" stroke="none">
 <path d="M188 5017 l-117 -92 -1 -122 c0 -68 2 -123 5 -123 3 0 59 43 126 94 l121 95 118 -95 c65 -51 121 -94 124 -94 3 0 6 55 6 123 l0 123 -115 89 c-63 50 -123 91 -132 92 -10 1 -71 -39 -135 -90z"/>
 <path d="M4668 5017 l-117 -92 -1 -122 c0 -68 2 -123 5 -123 3 0 59 43 126 94 l121 95 118 -95 c65 -51 121 -94 124 -94 3 0 6 55 6 123 l0 122 -115 90 c-63 50 -123 91 -133 92 -9 1 -70 -39 -134 -90z"/>
 <path d="M640 4730 l0 -250 1920 0 1920 0 0 250 0 250 -1920 0 -1920 0 0 -250z"/>
 <path d="M193 4382 l-122 -97 -1 -122 c0 -68 2 -123 5 -123 3 0 59 43 126 94 l121 95 118 -95 c65 -51 121 -94 124 -94 3 0 6 55 6 123 l0 122 -124 98 c-69 53 -126 97 -128 96 -2 0 -58 -44 -125 -97z"/>
 <path d="M4673 4382 l-122 -97 -1 -122 c0 -68 2 -123 5 -123 3 0 59 43 126 94 l121 95 118 -95 c65 -51 121 -94 124 -94 3 0 6 55 6 123 l0 122 -124 98 c-69 53 -126 97 -128 96 -2 0 -58 -44 -125 -97z"/>
 <path d="M640 4090 l0 -250 1920 0 1920 0 0 250 0 250 -1920 0 -1920 0 0 -250z"/>
 <path d="M193 3742 l-122 -97 -1 -122 c0 -68 2 -123 5 -123 3 0 59 43 126 94 l121 95 118 -95 c65 -51 121 -94 124 -94 3 0 6 55 6 123 l0 122 -124 98 c-69 53 -126 97 -128 96 -2 0 -58 -44 -125 -97z"/>
 <path d="M4673 3742 l-122 -97 -1 -122 c0 -68 2 -123 5 -123 3 0 59 43 126 94 l121 95 118 -95 c65 -51 121 -94 124 -94 3 0 6 55 6 123 l0 122 -124 98 c-69 53 -126 97 -128 96 -2 0 -58 -44 -125 -97z"/>
 <path d="M640 3450 l0 -250 1920 0 1920 0 0 250 0 250 -1920 0 -1920 0 0 -250z"/>
 <path d="M193 3102 l-122 -97 -1 -122 c0 -68 2 -123 5 -123 3 0 59 43 126 94 l121 95 118 -95 c65 -51 121 -94 124 -94 3 0 6 55 6 123 l0 122 -124 98 c-69 53 -126 97 -128 96 -2 0 -58 -44 -125 -97z"/>
 <path d="M4673 3102 l-122 -97 -1 -122 c0 -68 2 -123 5 -123 3 0 59 43 126 94 l121 95 118 -95 c65 -51 121 -94 124 -94 3 0 6 55 6 123 l0 122 -124 98 c-69 53 -126 97 -128 96 -2 0 -58 -44 -125 -97z"/>
 <path d="M640 2810 l0 -250 1920 0 1920 0 0 250 0 250 -1920 0 -1920 0 0 -250z"/>
 <path d="M193 2462 l-122 -97 -1 -122 c0 -68 2 -123 5 -123 3 0 59 43 126 94 l121 95 118 -95 c65 -51 121 -94 124 -94 3 0 6 55 6 123 l0 122 -124 98 c-69 53 -126 97 -128 96 -2 0 -58 -44 -125 -97z"/>
 <path d="M4673 2462 l-122 -97 -1 -122 c0 -68 2 -123 5 -123 3 0 59 43 126 94 l121 95 118 -95 c65 -51 121 -94 124 -94 3 0 6 55 6 123 l0 122 -124 98 c-69 53 -126 97 -128 96 -2 0 -58 -44 -125 -97z"/>
 <path d="M640 2170 l0 -250 1920 0 1920 0 0 250 0 250 -1920 0 -1920 0 0 -250z"/>
 <path d="M193 1822 l-122 -97 -1 -122 c0 -68 2 -123 5 -123 3 0 59 43 126 94 l121 95 118 -95 c65 -51 121 -94 124 -94 3 0 6 55 6 123 l0 122 -124 98 c-69 53 -126 97 -128 96 -2 0 -58 -44 -125 -97z"/>
 <path d="M4673 1822 l-122 -97 -1 -122 c0 -68 2 -123 5 -123 3 0 59 43 126 94 l121 95 118 -95 c65 -51 121 -94 124 -94 3 0 6 55 6 123 l0 122 -124 98 c-69 53 -126 97 -128 96 -2 0 -58 -44 -125 -97z"/>
 <path d="M640 1530 l0 -250 1920 0 1920 0 0 250 0 250 -1920 0 -1920 0 0 -250z"/>
 <path d="M193 1182 l-122 -97 -1 -122 c0 -68 2 -123 5 -123 3 0 59 43 126 94 l121 95 118 -95 c65 -51 121 -94 124 -94 3 0 6 55 6 123 l0 122 -124 98 c-69 53 -126 97 -128 96 -2 0 -58 -44 -125 -97z"/>
 <path d="M4673 1182 l-122 -97 -1 -122 c0 -68 2 -123 5 -123 3 0 59 43 126 94 l121 95 118 -95 c65 -51 121 -94 124 -94 3 0 6 55 6 123 l0 122 -124 98 c-69 53 -126 97 -128 96 -2 0 -58 -44 -125 -97z"/>
 <path d="M640 890 l0 -250 1920 0 1920 0 0 250 0 250 -1920 0 -1920 0 0 -250z"/>
 <path d="M193 542 l-122 -97 -1 -122 c0 -68 2 -123 5 -123 3 0 59 43 126 94 l121 95 118 -95 c65 -51 121 -94 124 -94 3 0 6 55 6 123 l0 122 -124 98 c-69 53 -126 97 -128 96 -2 0 -58 -44 -125 -97z"/>
 <path d="M4673 542 l-122 -97 -1 -122 c0 -68 2 -123 5 -123 3 0 59 43 126 94 l121 95 118 -95 c65 -51 121 -94 124 -94 3 0 6 55 6 123 l0 122 -124 98 c-69 53 -126 97 -128 96 -2 0 -58 -44 -125 -97z"/>
 <path d="M640 250 l0 -250 1920 0 1920 0 0 250 0 250 -1920 0 -1920 0 0 -250z"/>
 </g>
<g id="layer105" fill="#ffff00" stroke="none">
 <path d="M188 5017 l-117 -92 -1 -122 c0 -68 2 -123 5 -123 3 0 59 43 126 94 l121 95 118 -95 c65 -51 121 -94 124 -94 3 0 6 55 6 123 l0 123 -115 89 c-63 50 -123 91 -132 92 -10 1 -71 -39 -135 -90z"/>
 <path d="M4668 5017 l-117 -92 -1 -122 c0 -68 2 -123 5 -123 3 0 59 43 126 94 l121 95 118 -95 c65 -51 121 -94 124 -94 3 0 6 55 6 123 l0 122 -115 90 c-63 50 -123 91 -133 92 -9 1 -70 -39 -134 -90z"/>
 <path d="M193 4382 l-122 -97 -1 -122 c0 -68 2 -123 5 -123 3 0 59 43 126 94 l121 95 118 -95 c65 -51 121 -94 124 -94 3 0 6 55 6 123 l0 122 -124 98 c-69 53 -126 97 -128 96 -2 0 -58 -44 -125 -97z"/>
 <path d="M4673 4382 l-122 -97 -1 -122 c0 -68 2 -123 5 -123 3 0 59 43 126 94 l121 95 118 -95 c65 -51 121 -94 124 -94 3 0 6 55 6 123 l0 122 -124 98 c-69 53 -126 97 -128 96 -2 0 -58 -44 -125 -97z"/>
 <path d="M193 3742 l-122 -97 -1 -122 c0 -68 2 -123 5 -123 3 0 59 43 126 94 l121 95 118 -95 c65 -51 121 -94 124 -94 3 0 6 55 6 123 l0 122 -124 98 c-69 53 -126 97 -128 96 -2 0 -58 -44 -125 -97z"/>
 <path d="M4673 3742 l-122 -97 -1 -122 c0 -68 2 -123 5 -123 3 0 59 43 126 94 l121 95 118 -95 c65 -51 121 -94 124 -94 3 0 6 55 6 123 l0 122 -124 98 c-69 53 -126 97 -128 96 -2 0 -58 -44 -125 -97z"/>
 <path d="M193 3102 l-122 -97 -1 -122 c0 -68 2 -123 5 -123 3 0 59 43 126 94 l121 95 118 -95 c65 -51 121 -94 124 -94 3 0 6 55 6 123 l0 122 -124 98 c-69 53 -126 97 -128 96 -2 0 -58 -44 -125 -97z"/>
 <path d="M4673 3102 l-122 -97 -1 -122 c0 -68 2 -123 5 -123 3 0 59 43 126 94 l121 95 118 -95 c65 -51 121 -94 124 -94 3 0 6 55 6 123 l0 122 -124 98 c-69 53 -126 97 -128 96 -2 0 -58 -44 -125 -97z"/>
 <path d="M193 2462 l-122 -97 -1 -122 c0 -68 2 -123 5 -123 3 0 59 43 126 94 l121 95 118 -95 c65 -51 121 -94 124 -94 3 0 6 55 6 123 l0 122 -124 98 c-69 53 -126 97 -128 96 -2 0 -58 -44 -125 -97z"/>
 <path d="M4673 2462 l-122 -97 -1 -122 c0 -68 2 -123 5 -123 3 0 59 43 126 94 l121 95 118 -95 c65 -51 121 -94 124 -94 3 0 6 55 6 123 l0 122 -124 98 c-69 53 -126 97 -128 96 -2 0 -58 -44 -125 -97z"/>
 <path d="M193 1822 l-122 -97 -1 -122 c0 -68 2 -123 5 -123 3 0 59 43 126 94 l121 95 118 -95 c65 -51 121 -94 124 -94 3 0 6 55 6 123 l0 122 -124 98 c-69 53 -126 97 -128 96 -2 0 -58 -44 -125 -97z"/>
 <path d="M4673 1822 l-122 -97 -1 -122 c0 -68 2 -123 5 -123 3 0 59 43 126 94 l121 95 118 -95 c65 -51 121 -94 124 -94 3 0 6 55 6 123 l0 122 -124 98 c-69 53 -126 97 -128 96 -2 0 -58 -44 -125 -97z"/>
 <path d="M193 1182 l-122 -97 -1 -122 c0 -68 2 -123 5 -123 3 0 59 43 126 94 l121 95 118 -95 c65 -51 121 -94 124 -94 3 0 6 55 6 123 l0 122 -124 98 c-69 53 -126 97 -128 96 -2 0 -58 -44 -125 -97z"/>
 <path d="M4673 1182 l-122 -97 -1 -122 c0 -68 2 -123 5 -123 3 0 59 43 126 94 l121 95 118 -95 c65 -51 121 -94 124 -94 3 0 6 55 6 123 l0 122 -124 98 c-69 53 -126 97 -128 96 -2 0 -58 -44 -125 -97z"/>
 <path d="M193 542 l-122 -97 -1 -122 c0 -68 2 -123 5 -123 3 0 59 43 126 94 l121 95 118 -95 c65 -51 121 -94 124 -94 3 0 6 55 6 123 l0 122 -124 98 c-69 53 -126 97 -128 96 -2 0 -58 -44 -125 -97z"/>
 <path d="M4673 542 l-122 -97 -1 -122 c0 -68 2 -123 5 -123 3 0 59 43 126 94 l121 95 118 -95 c65 -51 121 -94 124 -94 3 0 6 55 6 123 l0 122 -124 98 c-69 53 -126 97 -128 96 -2 0 -58 -44 -125 -97z"/>
 </g>

</svg>