<!DOCTYPE svg PUBLIC "-//W3C//DTD SVG 20010904//EN" "http://www.w3.org/TR/2001/REC-SVG-20010904/DTD/svg10.dtd">
<svg version="1.0" xmlns="http://www.w3.org/2000/svg" width="512px" height="512px" viewBox="0 0 5120 5120" preserveAspectRatio="xMidYMid meet">
<g id="layer101" fill="#000000" stroke="none">
 <path d="M0 2560 l0 -2560 2560 0 2560 0 0 2560 0 2560 -2560 0 -2560 0 0 -2560z"/>
 </g>
<g id="layer102" fill="#4b4b4b" stroke="none">
 <path d="M640 2880 l0 -2240 322 0 323 0 -319 319 c-244 244 -317 323 -312 336 3 10 57 101 119 204 l112 186 5 932 c5 878 6 933 23 950 16 17 45 18 367 18 322 0 351 -1 367 -18 16 -16 18 -44 21 -294 l3 -277 214 358 215 358 0 313 0 314 -427 3 c-399 3 -430 4 -459 22 -68 41 -69 44 -72 419 l-3 337 -249 0 -250 0 0 -2240z"/>
 <path d="M1280 4800 l0 -320 480 0 480 0 0 -1920 0 -1920 320 0 320 0 0 1920 0 1920 480 0 480 0 0 320 0 320 -1280 0 -1280 0 0 -320z"/>
 <path d="M3978 4783 c-3 -375 -4 -378 -72 -419 -29 -18 -60 -19 -458 -22 l-428 -3 0 -314 0 -313 215 -358 214 -358 3 277 c3 250 5 278 21 294 16 17 45 18 367 18 322 0 351 -1 367 -18 17 -17 18 -72 23 -950 l5 -932 112 -186 c62 -103 116 -194 119 -204 5 -13 -68 -92 -312 -336 l-319 -319 323 0 322 0 0 2240 0 2240 -250 0 -249 0 -3 -337z"/>
 <path d="M70 4985 l0 -65 70 0 70 0 0 65 0 65 -70 0 -70 0 0 -65z"/>
 <path d="M280 4950 l0 -100 -105 0 -105 0 0 -40 0 -40 105 0 105 0 0 -280 0 -280 -105 0 -105 0 0 -40 0 -40 105 0 105 0 0 -110 0 -110 40 0 40 0 0 110 0 110 105 0 105 0 0 40 0 40 -105 0 -105 0 0 280 0 280 105 0 105 0 0 40 0 40 -105 0 -105 0 0 100 0 100 -40 0 -40 0 0 -100z"/>
 <path d="M430 4985 l0 -65 70 0 70 0 0 65 0 65 -70 0 -70 0 0 -65z"/>
 <path d="M4550 4985 l0 -65 70 0 70 0 0 65 0 65 -70 0 -70 0 0 -65z"/>
 <path d="M4760 4950 l0 -100 -105 0 -105 0 0 -40 0 -40 105 0 105 0 0 -280 0 -280 -105 0 -105 0 0 -40 0 -40 105 0 105 0 0 -110 0 -110 40 0 40 0 0 110 0 110 105 0 105 0 0 40 0 40 -105 0 -105 0 0 280 0 280 105 0 105 0 0 40 0 40 -105 0 -105 0 0 100 0 100 -40 0 -40 0 0 -100z"/>
 <path d="M4910 4985 l0 -65 70 0 70 0 0 65 0 65 -70 0 -70 0 0 -65z"/>
 <path d="M70 4490 l0 -210 70 0 70 0 0 210 0 210 -70 0 -70 0 0 -210z"/>
 <path d="M430 4490 l0 -210 70 0 70 0 0 210 0 210 -70 0 -70 0 0 -210z"/>
 <path d="M4550 4490 l0 -210 70 0 70 0 0 210 0 210 -70 0 -70 0 0 -210z"/>
 <path d="M4910 4490 l0 -210 70 0 70 0 0 210 0 210 -70 0 -70 0 0 -210z"/>
 <path d="M70 3985 l0 -75 70 0 70 0 0 75 0 75 -70 0 -70 0 0 -75z"/>
 <path d="M430 3985 l0 -75 70 0 70 0 0 75 0 75 -70 0 -70 0 0 -75z"/>
 <path d="M4550 3985 l0 -75 70 0 70 0 0 75 0 75 -70 0 -70 0 0 -75z"/>
 <path d="M4910 3985 l0 -75 70 0 70 0 0 75 0 75 -70 0 -70 0 0 -75z"/>
 <path d="M0 2560 l0 -1280 285 0 285 0 0 1280 0 1280 -285 0 -285 0 0 -1280z"/>
 <path d="M4550 2560 l0 -1280 285 0 285 0 0 1280 0 1280 -285 0 -285 0 0 -1280z"/>
 <path d="M960 2560 l0 -960 320 0 320 0 0 960 0 960 -320 0 -320 0 0 -960z"/>
 <path d="M3520 2560 l0 -960 320 0 320 0 0 960 0 960 -320 0 -320 0 0 -960z"/>
 <path d="M1881 3047 l-211 -352 0 -558 0 -558 -25 -24 -24 -25 -325 0 -325 0 -65 -109 c-36 -60 -66 -113 -66 -118 0 -4 105 -113 234 -242 185 -185 238 -232 253 -227 10 3 188 82 395 174 l377 167 1 1113 c0 611 -2 1112 -4 1112 -2 0 -98 -159 -215 -353z"/>
 <path d="M3020 2288 l1 -1113 377 -167 c207 -92 385 -171 395 -174 15 -5 68 42 253 227 129 129 234 238 234 242 0 5 -30 58 -66 118 l-65 109 -325 0 -325 0 -24 25 -25 24 0 558 0 558 -211 352 c-117 194 -213 353 -215 353 -2 0 -4 -501 -4 -1112z"/>
 <path d="M70 1145 l0 -65 70 0 70 0 0 65 0 65 -70 0 -70 0 0 -65z"/>
 <path d="M280 1110 l0 -100 -105 0 -105 0 0 -40 0 -40 105 0 105 0 0 -280 0 -280 -105 0 -105 0 0 -40 0 -40 105 0 105 0 0 -110 0 -110 40 0 40 0 0 110 0 110 280 0 280 0 0 -110 0 -110 40 0 40 0 0 110 0 110 105 0 105 0 0 40 0 40 -105 0 -105 0 0 100 0 100 -40 0 -40 0 0 -100 0 -100 -280 0 -280 0 0 280 0 280 105 0 105 0 0 40 0 40 -105 0 -105 0 0 100 0 100 -40 0 -40 0 0 -100z"/>
 <path d="M430 1145 l0 -65 70 0 70 0 0 65 0 65 -70 0 -70 0 0 -65z"/>
 <path d="M4550 1145 l0 -65 70 0 70 0 0 65 0 65 -70 0 -70 0 0 -65z"/>
 <path d="M4760 1110 l0 -100 -105 0 -105 0 0 -40 0 -40 105 0 105 0 0 -280 0 -280 -280 0 -280 0 0 100 0 100 -40 0 -40 0 0 -100 0 -100 -105 0 -105 0 0 -40 0 -40 105 0 105 0 0 -110 0 -110 40 0 40 0 0 110 0 110 280 0 280 0 0 -110 0 -110 40 0 40 0 0 110 0 110 105 0 105 0 0 40 0 40 -105 0 -105 0 0 280 0 280 105 0 105 0 0 40 0 40 -105 0 -105 0 0 100 0 100 -40 0 -40 0 0 -100z"/>
 <path d="M4910 1145 l0 -65 70 0 70 0 0 65 0 65 -70 0 -70 0 0 -65z"/>
 <path d="M1690 845 l-405 -204 408 0 407 -1 0 205 c0 113 -1 205 -2 204 -2 0 -185 -92 -408 -204z"/>
 <path d="M3020 845 l0 -205 407 0 c223 0 404 2 402 4 -2 2 -185 94 -406 205 l-403 201 0 -205z"/>
 <path d="M70 650 l0 -210 70 0 70 0 0 210 0 210 -70 0 -70 0 0 -210z"/>
 <path d="M430 650 l0 -210 210 0 210 0 0 65 0 65 -140 0 -140 0 0 145 0 145 -70 0 -70 0 0 -210z"/>
 <path d="M4550 715 l0 -145 -140 0 -140 0 0 -65 0 -65 210 0 210 0 0 210 0 210 -70 0 -70 0 0 -145z"/>
 <path d="M4910 650 l0 -210 70 0 70 0 0 210 0 210 -70 0 -70 0 0 -210z"/>
 <path d="M1070 505 l0 -65 70 0 70 0 0 65 0 65 -70 0 -70 0 0 -65z"/>
 <path d="M1280 285 l0 -285 1280 0 1280 0 0 285 0 285 -1280 0 -1280 0 0 -285z"/>
 <path d="M3910 505 l0 -65 70 0 70 0 0 65 0 65 -70 0 -70 0 0 -65z"/>
 <path d="M70 145 l0 -75 70 0 70 0 0 75 0 75 -70 0 -70 0 0 -75z"/>
 <path d="M430 145 l0 -75 210 0 210 0 0 75 0 75 -210 0 -210 0 0 -75z"/>
 <path d="M1070 145 l0 -75 70 0 70 0 0 75 0 75 -70 0 -70 0 0 -75z"/>
 <path d="M3910 145 l0 -75 70 0 70 0 0 75 0 75 -70 0 -70 0 0 -75z"/>
 <path d="M4270 145 l0 -75 210 0 210 0 0 75 0 75 -210 0 -210 0 0 -75z"/>
 <path d="M4910 145 l0 -75 70 0 70 0 0 75 0 75 -70 0 -70 0 0 -75z"/>
 </g>
<g id="layer103" fill="#8b8b8b" stroke="none">
 <path d="M640 3203 c0 -1602 2 -1914 13 -1898 8 11 64 104 125 207 l112 186 0 924 0 925 23 21 c23 22 28 22 368 22 l346 0 21 -23 c21 -22 22 -32 24 -292 l3 -269 212 355 213 354 0 313 0 312 -422 0 c-466 0 -466 0 -512 63 -20 27 -21 43 -24 373 l-3 344 -249 0 -250 0 0 -1917z"/>
 <path d="M1280 4800 l0 -320 480 0 480 0 0 -1920 0 -1920 320 0 320 0 0 1920 0 1920 480 0 480 0 0 320 0 320 -1280 0 -1280 0 0 -320z"/>
 <path d="M3978 4776 c-3 -330 -4 -346 -24 -373 -46 -63 -46 -63 -511 -63 l-423 0 0 -312 0 -313 213 -354 212 -355 3 269 c2 260 3 270 24 292 l21 23 347 0 347 0 21 -23 22 -23 0 -923 0 -923 112 -186 c61 -103 117 -196 125 -207 11 -16 13 296 13 1898 l0 1917 -250 0 -249 0 -3 -344z"/>
 <path d="M70 4985 l0 -65 70 0 70 0 0 65 0 65 -70 0 -70 0 0 -65z"/>
 <path d="M280 4950 l0 -100 -105 0 -105 0 0 -40 0 -40 105 0 105 0 0 -280 0 -280 -105 0 -105 0 0 -40 0 -40 105 0 105 0 0 -110 0 -110 40 0 40 0 0 110 0 110 105 0 105 0 0 40 0 40 -105 0 -105 0 0 280 0 280 105 0 105 0 0 40 0 40 -105 0 -105 0 0 100 0 100 -40 0 -40 0 0 -100z"/>
 <path d="M430 4985 l0 -65 70 0 70 0 0 65 0 65 -70 0 -70 0 0 -65z"/>
 <path d="M4550 4985 l0 -65 70 0 70 0 0 65 0 65 -70 0 -70 0 0 -65z"/>
 <path d="M4760 4950 l0 -100 -105 0 -105 0 0 -40 0 -40 105 0 105 0 0 -280 0 -280 -105 0 -105 0 0 -40 0 -40 105 0 105 0 0 -110 0 -110 40 0 40 0 0 110 0 110 105 0 105 0 0 40 0 40 -105 0 -105 0 0 280 0 280 105 0 105 0 0 40 0 40 -105 0 -105 0 0 100 0 100 -40 0 -40 0 0 -100z"/>
 <path d="M4910 4985 l0 -65 70 0 70 0 0 65 0 65 -70 0 -70 0 0 -65z"/>
 <path d="M70 4490 l0 -210 70 0 70 0 0 210 0 210 -70 0 -70 0 0 -210z"/>
 <path d="M430 4490 l0 -210 70 0 70 0 0 210 0 210 -70 0 -70 0 0 -210z"/>
 <path d="M4550 4490 l0 -210 70 0 70 0 0 210 0 210 -70 0 -70 0 0 -210z"/>
 <path d="M4910 4490 l0 -210 70 0 70 0 0 210 0 210 -70 0 -70 0 0 -210z"/>
 <path d="M70 3985 l0 -75 70 0 70 0 0 75 0 75 -70 0 -70 0 0 -75z"/>
 <path d="M430 3985 l0 -75 70 0 70 0 0 75 0 75 -70 0 -70 0 0 -75z"/>
 <path d="M4550 3985 l0 -75 70 0 70 0 0 75 0 75 -70 0 -70 0 0 -75z"/>
 <path d="M4910 3985 l0 -75 70 0 70 0 0 75 0 75 -70 0 -70 0 0 -75z"/>
 <path d="M0 2560 l0 -1280 250 0 250 0 0 1280 0 1280 -250 0 -250 0 0 -1280z"/>
 <path d="M4620 2560 l0 -1280 250 0 250 0 0 1280 0 1280 -250 0 -250 0 0 -1280z"/>
 <path d="M960 2560 l0 -960 320 0 320 0 0 960 0 960 -320 0 -320 0 0 -960z"/>
 <path d="M3520 2560 l0 -960 320 0 320 0 0 960 0 960 -320 0 -320 0 0 -960z"/>
 <path d="M640 955 l0 -315 317 0 318 0 -315 315 c-173 173 -316 315 -317 315 -2 0 -3 -142 -3 -315z"/>
 <path d="M4160 955 l-315 -315 318 0 317 0 0 315 c0 173 -1 315 -3 315 -1 0 -144 -142 -317 -315z"/>
 <path d="M70 1145 l0 -65 70 0 70 0 0 65 0 65 -70 0 -70 0 0 -65z"/>
 <path d="M280 1110 l0 -100 -105 0 -105 0 0 -40 0 -40 105 0 105 0 0 -280 0 -280 -105 0 -105 0 0 -40 0 -40 105 0 105 0 0 -110 0 -110 40 0 40 0 0 110 0 110 280 0 280 0 0 -110 0 -110 40 0 40 0 0 110 0 110 105 0 105 0 0 40 0 40 -105 0 -105 0 0 100 0 100 -40 0 -40 0 0 -100 0 -100 -280 0 -280 0 0 280 0 280 105 0 105 0 0 40 0 40 -105 0 -105 0 0 100 0 100 -40 0 -40 0 0 -100z"/>
 <path d="M430 1145 l0 -65 70 0 70 0 0 65 0 65 -70 0 -70 0 0 -65z"/>
 <path d="M4550 1145 l0 -65 70 0 70 0 0 65 0 65 -70 0 -70 0 0 -65z"/>
 <path d="M4760 1110 l0 -100 -105 0 -105 0 0 -40 0 -40 105 0 105 0 0 -280 0 -280 -280 0 -280 0 0 100 0 100 -40 0 -40 0 0 -100 0 -100 -105 0 -105 0 0 -40 0 -40 105 0 105 0 0 -110 0 -110 40 0 40 0 0 110 0 110 280 0 280 0 0 -110 0 -110 40 0 40 0 0 110 0 110 105 0 105 0 0 40 0 40 -105 0 -105 0 0 280 0 280 105 0 105 0 0 40 0 40 -105 0 -105 0 0 100 0 100 -40 0 -40 0 0 -100z"/>
 <path d="M4910 1145 l0 -65 70 0 70 0 0 65 0 65 -70 0 -70 0 0 -65z"/>
 <path d="M1690 845 l-405 -204 408 0 407 -1 0 205 c0 113 -1 205 -2 204 -2 0 -185 -92 -408 -204z"/>
 <path d="M3020 845 l0 -205 407 0 c223 0 404 2 402 4 -2 2 -185 94 -406 205 l-403 201 0 -205z"/>
 <path d="M70 650 l0 -210 70 0 70 0 0 210 0 210 -70 0 -70 0 0 -210z"/>
 <path d="M430 650 l0 -210 210 0 210 0 0 65 0 65 -140 0 -140 0 0 145 0 145 -70 0 -70 0 0 -210z"/>
 <path d="M4550 715 l0 -145 -140 0 -140 0 0 -65 0 -65 210 0 210 0 0 210 0 210 -70 0 -70 0 0 -145z"/>
 <path d="M4910 650 l0 -210 70 0 70 0 0 210 0 210 -70 0 -70 0 0 -210z"/>
 <path d="M1070 505 l0 -65 70 0 70 0 0 65 0 65 -70 0 -70 0 0 -65z"/>
 <path d="M3910 505 l0 -65 70 0 70 0 0 65 0 65 -70 0 -70 0 0 -65z"/>
 <path d="M1280 250 l0 -250 1280 0 1280 0 0 250 0 250 -1280 0 -1280 0 0 -250z"/>
 <path d="M70 145 l0 -75 70 0 70 0 0 75 0 75 -70 0 -70 0 0 -75z"/>
 <path d="M430 145 l0 -75 210 0 210 0 0 75 0 75 -210 0 -210 0 0 -75z"/>
 <path d="M1070 145 l0 -75 70 0 70 0 0 75 0 75 -70 0 -70 0 0 -75z"/>
 <path d="M3910 145 l0 -75 70 0 70 0 0 75 0 75 -70 0 -70 0 0 -75z"/>
 <path d="M4270 145 l0 -75 210 0 210 0 0 75 0 75 -210 0 -210 0 0 -75z"/>
 <path d="M4910 145 l0 -75 70 0 70 0 0 75 0 75 -70 0 -70 0 0 -75z"/>
 </g>
<g id="layer104" fill="#ffff8b" stroke="none">
 <path d="M1280 4800 l0 -320 480 0 480 0 0 -1920 0 -1920 320 0 320 0 0 1920 0 1920 480 0 480 0 0 320 0 320 -1280 0 -1280 0 0 -320z"/>
 <path d="M70 4985 l0 -65 70 0 70 0 0 65 0 65 -70 0 -70 0 0 -65z"/>
 <path d="M430 4985 l0 -65 70 0 70 0 0 65 0 65 -70 0 -70 0 0 -65z"/>
 <path d="M4550 4985 l0 -65 70 0 70 0 0 65 0 65 -70 0 -70 0 0 -65z"/>
 <path d="M4910 4985 l0 -65 70 0 70 0 0 65 0 65 -70 0 -70 0 0 -65z"/>
 <path d="M70 4490 l0 -210 70 0 70 0 0 210 0 210 -70 0 -70 0 0 -210z"/>
 <path d="M430 4490 l0 -210 70 0 70 0 0 210 0 210 -70 0 -70 0 0 -210z"/>
 <path d="M4550 4490 l0 -210 70 0 70 0 0 210 0 210 -70 0 -70 0 0 -210z"/>
 <path d="M4910 4490 l0 -210 70 0 70 0 0 210 0 210 -70 0 -70 0 0 -210z"/>
 <path d="M70 3985 l0 -75 70 0 70 0 0 75 0 75 -70 0 -70 0 0 -75z"/>
 <path d="M430 3985 l0 -75 70 0 70 0 0 75 0 75 -70 0 -70 0 0 -75z"/>
 <path d="M4550 3985 l0 -75 70 0 70 0 0 75 0 75 -70 0 -70 0 0 -75z"/>
 <path d="M4910 3985 l0 -75 70 0 70 0 0 75 0 75 -70 0 -70 0 0 -75z"/>
 <path d="M960 2560 l0 -960 320 0 320 0 0 960 0 960 -320 0 -320 0 0 -960z"/>
 <path d="M3520 2560 l0 -960 320 0 320 0 0 960 0 960 -320 0 -320 0 0 -960z"/>
 <path d="M70 1145 l0 -65 70 0 70 0 0 65 0 65 -70 0 -70 0 0 -65z"/>
 <path d="M430 1145 l0 -65 70 0 70 0 0 65 0 65 -70 0 -70 0 0 -65z"/>
 <path d="M4550 1145 l0 -65 70 0 70 0 0 65 0 65 -70 0 -70 0 0 -65z"/>
 <path d="M4910 1145 l0 -65 70 0 70 0 0 65 0 65 -70 0 -70 0 0 -65z"/>
 <path d="M70 650 l0 -210 70 0 70 0 0 210 0 210 -70 0 -70 0 0 -210z"/>
 <path d="M430 650 l0 -210 210 0 210 0 0 65 0 65 -140 0 -140 0 0 145 0 145 -70 0 -70 0 0 -210z"/>
 <path d="M4550 715 l0 -145 -140 0 -140 0 0 -65 0 -65 210 0 210 0 0 210 0 210 -70 0 -70 0 0 -145z"/>
 <path d="M4910 650 l0 -210 70 0 70 0 0 210 0 210 -70 0 -70 0 0 -210z"/>
 <path d="M1070 505 l0 -65 70 0 70 0 0 65 0 65 -70 0 -70 0 0 -65z"/>
 <path d="M3910 505 l0 -65 70 0 70 0 0 65 0 65 -70 0 -70 0 0 -65z"/>
 <path d="M70 145 l0 -75 70 0 70 0 0 75 0 75 -70 0 -70 0 0 -75z"/>
 <path d="M430 145 l0 -75 210 0 210 0 0 75 0 75 -210 0 -210 0 0 -75z"/>
 <path d="M1070 145 l0 -75 70 0 70 0 0 75 0 75 -70 0 -70 0 0 -75z"/>
 <path d="M3910 145 l0 -75 70 0 70 0 0 75 0 75 -70 0 -70 0 0 -75z"/>
 <path d="M4270 145 l0 -75 210 0 210 0 0 75 0 75 -210 0 -210 0 0 -75z"/>
 <path d="M4910 145 l0 -75 70 0 70 0 0 75 0 75 -70 0 -70 0 0 -75z"/>
 </g>
<g id="layer105" fill="#3a7913" stroke="none">
 <path d="M70 4985 l0 -65 70 0 70 0 0 65 0 65 -70 0 -70 0 0 -65z"/>
 <path d="M430 4985 l0 -65 70 0 70 0 0 65 0 65 -70 0 -70 0 0 -65z"/>
 <path d="M4550 4985 l0 -65 70 0 70 0 0 65 0 65 -70 0 -70 0 0 -65z"/>
 <path d="M4910 4985 l0 -65 70 0 70 0 0 65 0 65 -70 0 -70 0 0 -65z"/>
 <path d="M70 4490 l0 -210 70 0 70 0 0 210 0 210 -70 0 -70 0 0 -210z"/>
 <path d="M430 4490 l0 -210 70 0 70 0 0 210 0 210 -70 0 -70 0 0 -210z"/>
 <path d="M4550 4490 l0 -210 70 0 70 0 0 210 0 210 -70 0 -70 0 0 -210z"/>
 <path d="M4910 4490 l0 -210 70 0 70 0 0 210 0 210 -70 0 -70 0 0 -210z"/>
 <path d="M70 3985 l0 -75 70 0 70 0 0 75 0 75 -70 0 -70 0 0 -75z"/>
 <path d="M430 3985 l0 -75 70 0 70 0 0 75 0 75 -70 0 -70 0 0 -75z"/>
 <path d="M4550 3985 l0 -75 70 0 70 0 0 75 0 75 -70 0 -70 0 0 -75z"/>
 <path d="M4910 3985 l0 -75 70 0 70 0 0 75 0 75 -70 0 -70 0 0 -75z"/>
 <path d="M70 1145 l0 -65 70 0 70 0 0 65 0 65 -70 0 -70 0 0 -65z"/>
 <path d="M430 1145 l0 -65 70 0 70 0 0 65 0 65 -70 0 -70 0 0 -65z"/>
 <path d="M4550 1145 l0 -65 70 0 70 0 0 65 0 65 -70 0 -70 0 0 -65z"/>
 <path d="M4910 1145 l0 -65 70 0 70 0 0 65 0 65 -70 0 -70 0 0 -65z"/>
 <path d="M70 650 l0 -210 70 0 70 0 0 210 0 210 -70 0 -70 0 0 -210z"/>
 <path d="M430 650 l0 -210 210 0 210 0 0 65 0 65 -140 0 -140 0 0 145 0 145 -70 0 -70 0 0 -210z"/>
 <path d="M4550 715 l0 -145 -140 0 -140 0 0 -65 0 -65 210 0 210 0 0 210 0 210 -70 0 -70 0 0 -145z"/>
 <path d="M4910 650 l0 -210 70 0 70 0 0 210 0 210 -70 0 -70 0 0 -210z"/>
 <path d="M1070 505 l0 -65 70 0 70 0 0 65 0 65 -70 0 -70 0 0 -65z"/>
 <path d="M3910 505 l0 -65 70 0 70 0 0 65 0 65 -70 0 -70 0 0 -65z"/>
 <path d="M70 145 l0 -75 70 0 70 0 0 75 0 75 -70 0 -70 0 0 -75z"/>
 <path d="M430 145 l0 -75 210 0 210 0 0 75 0 75 -210 0 -210 0 0 -75z"/>
 <path d="M1070 145 l0 -75 70 0 70 0 0 75 0 75 -70 0 -70 0 0 -75z"/>
 <path d="M3910 145 l0 -75 70 0 70 0 0 75 0 75 -70 0 -70 0 0 -75z"/>
 <path d="M4270 145 l0 -75 210 0 210 0 0 75 0 75 -210 0 -210 0 0 -75z"/>
 <path d="M4910 145 l0 -75 70 0 70 0 0 75 0 75 -70 0 -70 0 0 -75z"/>
 </g>

</svg>