<!DOCTYPE svg PUBLIC "-//W3C//DTD SVG 20010904//EN" "http://www.w3.org/TR/2001/REC-SVG-20010904/DTD/svg10.dtd">
<svg version="1.0" xmlns="http://www.w3.org/2000/svg" width="512px" height="512px" viewBox="0 0 5120 5120" preserveAspectRatio="xMidYMid meet">
<g id="layer101" fill="#000000" stroke="none">
 <path d="M0 2560 l0 -2560 2560 0 2560 0 0 2560 0 2560 -2560 0 -2560 0 0 -2560z"/>
 </g>
<g id="layer102" fill="#4b4b4b" stroke="none">
 <path d="M640 2880 l0 -2240 1920 0 1920 0 0 2240 0 2240 -250 0 -249 0 -3 -337 c-3 -375 -4 -378 -72 -419 -30 -18 -75 -19 -1346 -19 -1271 0 -1316 1 -1346 19 -68 41 -69 44 -72 419 l-3 337 -249 0 -250 0 0 -2240z m3692 1392 l33 -32 0 -125 0 -125 -32 -31 -31 -32 -481 -80 -481 -80 0 -117 0 -117 408 69 c478 81 531 83 585 30 l32 -32 0 -125 0 -125 -32 -31 -31 -32 -481 -80 -481 -80 0 -117 0 -117 408 69 c478 81 531 83 585 30 l32 -32 0 -125 0 -125 -32 -31 -31 -32 -481 -80 -481 -80 0 -117 0 -117 408 69 c478 81 531 83 585 30 l32 -32 0 -125 0 -125 -32 -31 -31 -32 -481 -80 -481 -80 0 -117 0 -117 408 69 c478 81 531 83 585 30 l32 -32 0 -125 0 -125 -31 -31 -32 -32 -488 -81 c-457 -77 -492 -84 -533 -112 -44 -29 -47 -29 -220 -35 -167 -6 -225 -14 -1141 -168 -1078 -181 -1075 -181 -1133 -123 l-32 32 0 125 0 125 32 31 31 32 481 80 481 80 0 117 0 117 -407 -69 c-479 -81 -532 -83 -586 -30 l-32 32 0 125 0 125 32 31 31 32 481 80 481 80 0 117 0 117 -407 -69 c-479 -81 -532 -83 -586 -30 l-32 32 0 125 0 125 32 31 31 32 481 80 481 80 0 117 0 117 -407 -69 c-479 -81 -532 -83 -586 -30 l-32 32 0 125 0 125 32 31 31 32 481 80 481 80 0 117 0 117 -407 -69 c-479 -81 -532 -83 -586 -30 l-32 32 0 125 0 125 31 31 32 32 488 81 c455 77 492 84 533 111 43 29 47 30 230 37 178 7 228 15 1126 167 1064 181 1078 182 1137 123z"/>
 <path d="M2500 3963 c-1158 -194 -1650 -280 -1662 -291 -15 -12 -18 -32 -18 -107 0 -110 10 -125 83 -125 84 0 3360 550 3380 568 14 12 17 32 17 107 0 114 -9 125 -96 124 -32 -1 -799 -125 -1704 -276z"/>
 <path d="M2860 3685 l-305 -53 193 -1 c191 -1 193 -1 217 -26 20 -19 25 -34 25 -76 l0 -52 43 7 c23 4 70 11 105 17 l62 11 0 114 c0 102 -2 114 -17 113 -10 -1 -155 -25 -323 -54z"/>
 <path d="M2500 3323 c-1158 -194 -1650 -280 -1662 -291 -15 -12 -18 -32 -18 -107 0 -110 10 -125 83 -125 84 0 3360 550 3380 568 14 12 17 32 17 107 0 114 -9 125 -96 124 -32 -1 -799 -125 -1704 -276z"/>
 <path d="M2075 3555 c-5 -2 -43 -9 -82 -15 l-73 -12 0 -115 0 -115 28 5 c15 3 62 11 105 17 l77 13 0 113 c0 112 0 114 -22 113 -13 0 -27 -2 -33 -4z"/>
 <path d="M2200 3455 c0 -77 3 -105 13 -105 6 0 168 26 360 57 l347 58 0 47 0 48 -360 0 -360 0 0 -105z"/>
 <path d="M3078 3082 l-88 -15 0 -115 0 -115 43 7 c23 4 70 11 105 17 l62 11 0 114 c0 102 -2 114 -17 113 -10 -1 -57 -8 -105 -17z"/>
 <path d="M2533 2992 l-333 -57 0 -112 c0 -84 3 -113 13 -113 6 0 168 26 360 57 l347 58 0 112 0 113 -27 -1 c-16 -1 -178 -26 -360 -57z"/>
 <path d="M2500 2683 c-1158 -194 -1650 -280 -1662 -291 -15 -12 -18 -32 -18 -107 0 -110 10 -125 83 -125 84 0 3360 550 3380 568 14 12 17 32 17 107 0 114 -9 125 -96 124 -32 -1 -799 -125 -1704 -276z"/>
 <path d="M2075 2915 c-5 -2 -43 -9 -82 -15 l-73 -12 0 -115 0 -115 28 5 c15 3 62 11 105 17 l77 13 0 113 c0 112 0 114 -22 113 -13 0 -27 -2 -33 -4z"/>
 <path d="M3078 2442 l-88 -15 0 -115 0 -115 43 7 c23 4 70 11 105 17 l62 11 0 114 c0 102 -2 114 -17 113 -10 -1 -57 -8 -105 -17z"/>
 <path d="M2533 2352 l-333 -57 0 -112 c0 -84 3 -113 13 -113 6 0 168 26 360 57 l347 58 0 112 0 113 -27 -1 c-16 -1 -178 -26 -360 -57z"/>
 <path d="M2500 2043 c-1158 -194 -1650 -280 -1662 -291 -15 -12 -18 -32 -18 -107 0 -110 10 -125 83 -125 84 0 3360 550 3380 568 14 12 17 32 17 107 0 114 -9 125 -96 124 -32 -1 -799 -125 -1704 -276z"/>
 <path d="M2075 2275 c-5 -2 -43 -9 -82 -15 l-73 -12 0 -115 0 -115 28 5 c15 3 62 11 105 17 l77 13 0 113 c0 112 0 114 -22 113 -13 0 -27 -2 -33 -4z"/>
 <path d="M3078 1802 l-88 -15 0 -115 0 -115 43 7 c23 4 70 11 105 17 l62 11 0 114 c0 102 -2 114 -17 113 -10 -1 -57 -8 -105 -17z"/>
 <path d="M2533 1712 l-333 -57 0 -47 0 -48 360 0 360 0 0 105 0 105 -27 -1 c-16 -1 -178 -26 -360 -57z"/>
 <path d="M2500 1403 c-1158 -194 -1650 -280 -1662 -291 -15 -12 -18 -32 -18 -107 0 -110 10 -125 83 -125 84 0 3360 550 3380 568 14 12 17 32 17 107 0 114 -9 125 -96 124 -32 -1 -799 -125 -1704 -276z"/>
 <path d="M2075 1635 c-5 -2 -43 -9 -82 -15 l-73 -12 0 -114 c0 -85 3 -114 13 -113 6 0 152 24 322 54 l310 53 -193 1 c-191 1 -193 1 -217 26 -20 19 -25 34 -25 75 0 45 -2 50 -22 49 -13 0 -27 -2 -33 -4z"/>
 <path d="M1280 4800 l0 -320 1280 0 1280 0 0 320 0 320 -1280 0 -1280 0 0 -320z"/>
 <path d="M70 4985 l0 -65 70 0 70 0 0 65 0 65 -70 0 -70 0 0 -65z"/>
 <path d="M280 4950 l0 -100 -105 0 -105 0 0 -40 0 -40 105 0 105 0 0 -280 0 -280 -105 0 -105 0 0 -40 0 -40 105 0 105 0 0 -110 0 -110 40 0 40 0 0 110 0 110 105 0 105 0 0 40 0 40 -105 0 -105 0 0 280 0 280 105 0 105 0 0 40 0 40 -105 0 -105 0 0 100 0 100 -40 0 -40 0 0 -100z"/>
 <path d="M430 4985 l0 -65 70 0 70 0 0 65 0 65 -70 0 -70 0 0 -65z"/>
 <path d="M4550 4985 l0 -65 70 0 70 0 0 65 0 65 -70 0 -70 0 0 -65z"/>
 <path d="M4760 4950 l0 -100 -105 0 -105 0 0 -40 0 -40 105 0 105 0 0 -280 0 -280 -105 0 -105 0 0 -40 0 -40 105 0 105 0 0 -110 0 -110 40 0 40 0 0 110 0 110 105 0 105 0 0 40 0 40 -105 0 -105 0 0 280 0 280 105 0 105 0 0 40 0 40 -105 0 -105 0 0 100 0 100 -40 0 -40 0 0 -100z"/>
 <path d="M4910 4985 l0 -65 70 0 70 0 0 65 0 65 -70 0 -70 0 0 -65z"/>
 <path d="M70 4490 l0 -210 70 0 70 0 0 210 0 210 -70 0 -70 0 0 -210z"/>
 <path d="M430 4490 l0 -210 70 0 70 0 0 210 0 210 -70 0 -70 0 0 -210z"/>
 <path d="M4550 4490 l0 -210 70 0 70 0 0 210 0 210 -70 0 -70 0 0 -210z"/>
 <path d="M4910 4490 l0 -210 70 0 70 0 0 210 0 210 -70 0 -70 0 0 -210z"/>
 <path d="M70 3985 l0 -75 70 0 70 0 0 75 0 75 -70 0 -70 0 0 -75z"/>
 <path d="M430 3985 l0 -75 70 0 70 0 0 75 0 75 -70 0 -70 0 0 -75z"/>
 <path d="M4550 3985 l0 -75 70 0 70 0 0 75 0 75 -70 0 -70 0 0 -75z"/>
 <path d="M4910 3985 l0 -75 70 0 70 0 0 75 0 75 -70 0 -70 0 0 -75z"/>
 <path d="M0 2560 l0 -1280 285 0 285 0 0 1280 0 1280 -285 0 -285 0 0 -1280z"/>
 <path d="M4550 2560 l0 -1280 285 0 285 0 0 1280 0 1280 -285 0 -285 0 0 -1280z"/>
 <path d="M70 1145 l0 -65 70 0 70 0 0 65 0 65 -70 0 -70 0 0 -65z"/>
 <path d="M280 1110 l0 -100 -105 0 -105 0 0 -40 0 -40 105 0 105 0 0 -280 0 -280 -105 0 -105 0 0 -40 0 -40 105 0 105 0 0 -110 0 -110 40 0 40 0 0 110 0 110 280 0 280 0 0 -110 0 -110 40 0 40 0 0 110 0 110 105 0 105 0 0 40 0 40 -105 0 -105 0 0 100 0 100 -40 0 -40 0 0 -100 0 -100 -280 0 -280 0 0 280 0 280 105 0 105 0 0 40 0 40 -105 0 -105 0 0 100 0 100 -40 0 -40 0 0 -100z"/>
 <path d="M430 1145 l0 -65 70 0 70 0 0 65 0 65 -70 0 -70 0 0 -65z"/>
 <path d="M4550 1145 l0 -65 70 0 70 0 0 65 0 65 -70 0 -70 0 0 -65z"/>
 <path d="M4760 1110 l0 -100 -105 0 -105 0 0 -40 0 -40 105 0 105 0 0 -280 0 -280 -280 0 -280 0 0 100 0 100 -40 0 -40 0 0 -100 0 -100 -105 0 -105 0 0 -40 0 -40 105 0 105 0 0 -110 0 -110 40 0 40 0 0 110 0 110 280 0 280 0 0 -110 0 -110 40 0 40 0 0 110 0 110 105 0 105 0 0 40 0 40 -105 0 -105 0 0 280 0 280 105 0 105 0 0 40 0 40 -105 0 -105 0 0 100 0 100 -40 0 -40 0 0 -100z"/>
 <path d="M4910 1145 l0 -65 70 0 70 0 0 65 0 65 -70 0 -70 0 0 -65z"/>
 <path d="M70 650 l0 -210 70 0 70 0 0 210 0 210 -70 0 -70 0 0 -210z"/>
 <path d="M430 650 l0 -210 210 0 210 0 0 65 0 65 -140 0 -140 0 0 145 0 145 -70 0 -70 0 0 -210z"/>
 <path d="M4550 715 l0 -145 -140 0 -140 0 0 -65 0 -65 210 0 210 0 0 210 0 210 -70 0 -70 0 0 -145z"/>
 <path d="M4910 650 l0 -210 70 0 70 0 0 210 0 210 -70 0 -70 0 0 -210z"/>
 <path d="M1070 505 l0 -65 70 0 70 0 0 65 0 65 -70 0 -70 0 0 -65z"/>
 <path d="M1280 285 l0 -285 1280 0 1280 0 0 285 0 285 -1280 0 -1280 0 0 -285z"/>
 <path d="M3910 505 l0 -65 70 0 70 0 0 65 0 65 -70 0 -70 0 0 -65z"/>
 <path d="M70 145 l0 -75 70 0 70 0 0 75 0 75 -70 0 -70 0 0 -75z"/>
 <path d="M430 145 l0 -75 210 0 210 0 0 75 0 75 -210 0 -210 0 0 -75z"/>
 <path d="M1070 145 l0 -75 70 0 70 0 0 75 0 75 -70 0 -70 0 0 -75z"/>
 <path d="M3910 145 l0 -75 70 0 70 0 0 75 0 75 -70 0 -70 0 0 -75z"/>
 <path d="M4270 145 l0 -75 210 0 210 0 0 75 0 75 -210 0 -210 0 0 -75z"/>
 <path d="M4910 145 l0 -75 70 0 70 0 0 75 0 75 -70 0 -70 0 0 -75z"/>
 </g>
<g id="layer103" fill="#8b8b8b" stroke="none">
 <path d="M640 2880 l0 -2240 1920 0 1920 0 0 2240 0 2240 -250 0 -249 0 -3 -344 c-3 -330 -4 -346 -24 -373 -11 -15 -36 -36 -55 -45 -32 -17 -116 -18 -1339 -18 -1223 0 -1307 1 -1339 18 -19 9 -44 30 -55 45 -20 27 -21 43 -24 373 l-3 344 -249 0 -250 0 0 -2240z m3692 1393 l38 -37 0 -120 0 -120 -36 -37 -35 -36 -480 -79 -479 -79 0 -112 c0 -72 4 -113 10 -113 6 0 186 29 400 65 245 41 418 65 467 65 76 0 78 -1 115 -37 l38 -37 0 -120 0 -120 -36 -37 -35 -36 -480 -79 -479 -79 0 -112 c0 -72 4 -113 10 -113 6 0 186 29 400 65 245 41 418 65 467 65 76 0 78 -1 115 -37 l38 -37 0 -120 0 -120 -36 -37 -35 -36 -480 -79 -479 -79 0 -112 c0 -72 4 -113 10 -113 6 0 186 29 400 65 245 41 418 65 467 65 76 0 78 -1 115 -37 l38 -37 0 -120 0 -120 -36 -37 -35 -36 -480 -79 -479 -79 0 -112 c0 -72 4 -113 10 -113 6 0 186 29 400 65 245 41 418 65 467 65 76 0 78 -1 115 -37 l38 -37 0 -121 0 -121 -37 -36 -38 -36 -490 -81 c-391 -66 -494 -86 -510 -101 -35 -33 -73 -40 -206 -40 -121 0 -196 -11 -1119 -165 -682 -114 -1014 -165 -1067 -165 -76 0 -78 1 -115 37 l-38 37 0 120 0 120 36 37 35 36 480 79 479 79 0 113 c0 71 -4 112 -10 112 -6 0 -186 -29 -400 -65 -245 -41 -418 -65 -467 -65 -76 0 -78 1 -115 37 l-38 37 0 120 0 120 36 37 35 36 480 79 479 79 0 113 c0 71 -4 112 -10 112 -6 0 -186 -29 -400 -65 -245 -41 -418 -65 -467 -65 -76 0 -78 1 -115 37 l-38 37 0 120 0 120 36 37 35 36 480 79 479 79 0 113 c0 71 -4 112 -10 112 -6 0 -186 -29 -400 -65 -245 -41 -418 -65 -467 -65 -76 0 -78 1 -115 37 l-38 37 0 120 0 120 36 37 35 36 480 79 479 79 0 113 c0 71 -4 112 -10 112 -6 0 -186 -29 -400 -65 -245 -41 -418 -65 -467 -65 -76 0 -78 1 -115 37 l-38 37 0 121 0 121 38 36 37 36 490 81 c391 66 494 86 510 101 35 33 73 40 213 41 129 0 191 9 1107 164 712 120 994 163 1060 164 l89 1 38 -37z"/>
 <path d="M2500 3963 c-1158 -194 -1650 -280 -1662 -291 -15 -12 -18 -32 -18 -107 0 -110 10 -125 83 -125 84 0 3360 550 3380 568 14 12 17 32 17 107 0 114 -9 125 -96 124 -32 -1 -799 -125 -1704 -276z"/>
 <path d="M2500 3323 c-1158 -194 -1650 -280 -1662 -291 -15 -12 -18 -32 -18 -107 0 -110 10 -125 83 -125 84 0 3360 550 3380 568 14 12 17 32 17 107 0 114 -9 125 -96 124 -32 -1 -799 -125 -1704 -276z"/>
 <path d="M2200 3455 c0 -77 3 -105 13 -105 6 0 168 26 360 57 l347 58 0 47 0 48 -360 0 -360 0 0 -105z"/>
 <path d="M2533 2992 l-333 -57 0 -112 c0 -84 3 -113 13 -113 6 0 168 26 360 57 l347 58 0 112 0 113 -27 -1 c-16 -1 -178 -26 -360 -57z"/>
 <path d="M2500 2683 c-1158 -194 -1650 -280 -1662 -291 -15 -12 -18 -32 -18 -107 0 -110 10 -125 83 -125 84 0 3360 550 3380 568 14 12 17 32 17 107 0 114 -9 125 -96 124 -32 -1 -799 -125 -1704 -276z"/>
 <path d="M2533 2352 l-333 -57 0 -112 c0 -84 3 -113 13 -113 6 0 168 26 360 57 l347 58 0 112 0 113 -27 -1 c-16 -1 -178 -26 -360 -57z"/>
 <path d="M2500 2043 c-1158 -194 -1650 -280 -1662 -291 -15 -12 -18 -32 -18 -107 0 -110 10 -125 83 -125 84 0 3360 550 3380 568 14 12 17 32 17 107 0 114 -9 125 -96 124 -32 -1 -799 -125 -1704 -276z"/>
 <path d="M2533 1712 l-333 -57 0 -47 0 -48 360 0 360 0 0 105 0 105 -27 -1 c-16 -1 -178 -26 -360 -57z"/>
 <path d="M2500 1403 c-1158 -194 -1650 -280 -1662 -291 -15 -12 -18 -32 -18 -107 0 -110 10 -125 83 -125 84 0 3360 550 3380 568 14 12 17 32 17 107 0 114 -9 125 -96 124 -32 -1 -799 -125 -1704 -276z"/>
 <path d="M1280 4800 l0 -320 1280 0 1280 0 0 320 0 320 -1280 0 -1280 0 0 -320z"/>
 <path d="M70 4985 l0 -65 70 0 70 0 0 65 0 65 -70 0 -70 0 0 -65z"/>
 <path d="M280 4950 l0 -100 -105 0 -105 0 0 -40 0 -40 105 0 105 0 0 -280 0 -280 -105 0 -105 0 0 -40 0 -40 105 0 105 0 0 -110 0 -110 40 0 40 0 0 110 0 110 105 0 105 0 0 40 0 40 -105 0 -105 0 0 280 0 280 105 0 105 0 0 40 0 40 -105 0 -105 0 0 100 0 100 -40 0 -40 0 0 -100z"/>
 <path d="M430 4985 l0 -65 70 0 70 0 0 65 0 65 -70 0 -70 0 0 -65z"/>
 <path d="M4550 4985 l0 -65 70 0 70 0 0 65 0 65 -70 0 -70 0 0 -65z"/>
 <path d="M4760 4950 l0 -100 -105 0 -105 0 0 -40 0 -40 105 0 105 0 0 -280 0 -280 -105 0 -105 0 0 -40 0 -40 105 0 105 0 0 -110 0 -110 40 0 40 0 0 110 0 110 105 0 105 0 0 40 0 40 -105 0 -105 0 0 280 0 280 105 0 105 0 0 40 0 40 -105 0 -105 0 0 100 0 100 -40 0 -40 0 0 -100z"/>
 <path d="M4910 4985 l0 -65 70 0 70 0 0 65 0 65 -70 0 -70 0 0 -65z"/>
 <path d="M70 4490 l0 -210 70 0 70 0 0 210 0 210 -70 0 -70 0 0 -210z"/>
 <path d="M430 4490 l0 -210 70 0 70 0 0 210 0 210 -70 0 -70 0 0 -210z"/>
 <path d="M4550 4490 l0 -210 70 0 70 0 0 210 0 210 -70 0 -70 0 0 -210z"/>
 <path d="M4910 4490 l0 -210 70 0 70 0 0 210 0 210 -70 0 -70 0 0 -210z"/>
 <path d="M70 3985 l0 -75 70 0 70 0 0 75 0 75 -70 0 -70 0 0 -75z"/>
 <path d="M430 3985 l0 -75 70 0 70 0 0 75 0 75 -70 0 -70 0 0 -75z"/>
 <path d="M4550 3985 l0 -75 70 0 70 0 0 75 0 75 -70 0 -70 0 0 -75z"/>
 <path d="M4910 3985 l0 -75 70 0 70 0 0 75 0 75 -70 0 -70 0 0 -75z"/>
 <path d="M0 2560 l0 -1280 250 0 250 0 0 1280 0 1280 -250 0 -250 0 0 -1280z"/>
 <path d="M4620 2560 l0 -1280 250 0 250 0 0 1280 0 1280 -250 0 -250 0 0 -1280z"/>
 <path d="M70 1145 l0 -65 70 0 70 0 0 65 0 65 -70 0 -70 0 0 -65z"/>
 <path d="M280 1110 l0 -100 -105 0 -105 0 0 -40 0 -40 105 0 105 0 0 -280 0 -280 -105 0 -105 0 0 -40 0 -40 105 0 105 0 0 -110 0 -110 40 0 40 0 0 110 0 110 280 0 280 0 0 -110 0 -110 40 0 40 0 0 110 0 110 105 0 105 0 0 40 0 40 -105 0 -105 0 0 100 0 100 -40 0 -40 0 0 -100 0 -100 -280 0 -280 0 0 280 0 280 105 0 105 0 0 40 0 40 -105 0 -105 0 0 100 0 100 -40 0 -40 0 0 -100z"/>
 <path d="M430 1145 l0 -65 70 0 70 0 0 65 0 65 -70 0 -70 0 0 -65z"/>
 <path d="M4550 1145 l0 -65 70 0 70 0 0 65 0 65 -70 0 -70 0 0 -65z"/>
 <path d="M4760 1110 l0 -100 -105 0 -105 0 0 -40 0 -40 105 0 105 0 0 -280 0 -280 -280 0 -280 0 0 100 0 100 -40 0 -40 0 0 -100 0 -100 -105 0 -105 0 0 -40 0 -40 105 0 105 0 0 -110 0 -110 40 0 40 0 0 110 0 110 280 0 280 0 0 -110 0 -110 40 0 40 0 0 110 0 110 105 0 105 0 0 40 0 40 -105 0 -105 0 0 280 0 280 105 0 105 0 0 40 0 40 -105 0 -105 0 0 100 0 100 -40 0 -40 0 0 -100z"/>
 <path d="M4910 1145 l0 -65 70 0 70 0 0 65 0 65 -70 0 -70 0 0 -65z"/>
 <path d="M70 650 l0 -210 70 0 70 0 0 210 0 210 -70 0 -70 0 0 -210z"/>
 <path d="M430 650 l0 -210 210 0 210 0 0 65 0 65 -140 0 -140 0 0 145 0 145 -70 0 -70 0 0 -210z"/>
 <path d="M4550 715 l0 -145 -140 0 -140 0 0 -65 0 -65 210 0 210 0 0 210 0 210 -70 0 -70 0 0 -145z"/>
 <path d="M4910 650 l0 -210 70 0 70 0 0 210 0 210 -70 0 -70 0 0 -210z"/>
 <path d="M1070 505 l0 -65 70 0 70 0 0 65 0 65 -70 0 -70 0 0 -65z"/>
 <path d="M3910 505 l0 -65 70 0 70 0 0 65 0 65 -70 0 -70 0 0 -65z"/>
 <path d="M1280 250 l0 -250 1280 0 1280 0 0 250 0 250 -1280 0 -1280 0 0 -250z"/>
 <path d="M70 145 l0 -75 70 0 70 0 0 75 0 75 -70 0 -70 0 0 -75z"/>
 <path d="M430 145 l0 -75 210 0 210 0 0 75 0 75 -210 0 -210 0 0 -75z"/>
 <path d="M1070 145 l0 -75 70 0 70 0 0 75 0 75 -70 0 -70 0 0 -75z"/>
 <path d="M3910 145 l0 -75 70 0 70 0 0 75 0 75 -70 0 -70 0 0 -75z"/>
 <path d="M4270 145 l0 -75 210 0 210 0 0 75 0 75 -210 0 -210 0 0 -75z"/>
 <path d="M4910 145 l0 -75 70 0 70 0 0 75 0 75 -70 0 -70 0 0 -75z"/>
 </g>
<g id="layer104" fill="#ffff8b" stroke="none">
 <path d="M1280 4800 l0 -320 1280 0 1280 0 0 320 0 320 -1280 0 -1280 0 0 -320z"/>
 <path d="M70 4985 l0 -65 70 0 70 0 0 65 0 65 -70 0 -70 0 0 -65z"/>
 <path d="M430 4985 l0 -65 70 0 70 0 0 65 0 65 -70 0 -70 0 0 -65z"/>
 <path d="M4550 4985 l0 -65 70 0 70 0 0 65 0 65 -70 0 -70 0 0 -65z"/>
 <path d="M4910 4985 l0 -65 70 0 70 0 0 65 0 65 -70 0 -70 0 0 -65z"/>
 <path d="M70 4490 l0 -210 70 0 70 0 0 210 0 210 -70 0 -70 0 0 -210z"/>
 <path d="M430 4490 l0 -210 70 0 70 0 0 210 0 210 -70 0 -70 0 0 -210z"/>
 <path d="M4550 4490 l0 -210 70 0 70 0 0 210 0 210 -70 0 -70 0 0 -210z"/>
 <path d="M4910 4490 l0 -210 70 0 70 0 0 210 0 210 -70 0 -70 0 0 -210z"/>
 <path d="M2500 3963 c-1158 -194 -1650 -280 -1662 -291 -15 -12 -18 -32 -18 -107 0 -110 10 -125 83 -125 84 0 3360 550 3380 568 14 12 17 32 17 107 0 114 -9 125 -96 124 -32 -1 -799 -125 -1704 -276z"/>
 <path d="M70 3985 l0 -75 70 0 70 0 0 75 0 75 -70 0 -70 0 0 -75z"/>
 <path d="M430 3985 l0 -75 70 0 70 0 0 75 0 75 -70 0 -70 0 0 -75z"/>
 <path d="M4550 3985 l0 -75 70 0 70 0 0 75 0 75 -70 0 -70 0 0 -75z"/>
 <path d="M4910 3985 l0 -75 70 0 70 0 0 75 0 75 -70 0 -70 0 0 -75z"/>
 <path d="M2500 3323 c-1158 -194 -1650 -280 -1662 -291 -15 -12 -18 -32 -18 -107 0 -110 10 -125 83 -125 84 0 3360 550 3380 568 14 12 17 32 17 107 0 114 -9 125 -96 124 -32 -1 -799 -125 -1704 -276z"/>
 <path d="M2200 3455 c0 -77 3 -105 13 -105 6 0 168 26 360 57 l347 58 0 47 0 48 -360 0 -360 0 0 -105z"/>
 <path d="M2533 2992 l-333 -57 0 -112 c0 -84 3 -113 13 -113 6 0 168 26 360 57 l347 58 0 112 0 113 -27 -1 c-16 -1 -178 -26 -360 -57z"/>
 <path d="M2500 2683 c-1158 -194 -1650 -280 -1662 -291 -15 -12 -18 -32 -18 -107 0 -110 10 -125 83 -125 84 0 3360 550 3380 568 14 12 17 32 17 107 0 114 -9 125 -96 124 -32 -1 -799 -125 -1704 -276z"/>
 <path d="M2533 2352 l-333 -57 0 -112 c0 -84 3 -113 13 -113 6 0 168 26 360 57 l347 58 0 112 0 113 -27 -1 c-16 -1 -178 -26 -360 -57z"/>
 <path d="M2500 2043 c-1158 -194 -1650 -280 -1662 -291 -15 -12 -18 -32 -18 -107 0 -110 10 -125 83 -125 84 0 3360 550 3380 568 14 12 17 32 17 107 0 114 -9 125 -96 124 -32 -1 -799 -125 -1704 -276z"/>
 <path d="M2533 1712 l-333 -57 0 -47 0 -48 360 0 360 0 0 105 0 105 -27 -1 c-16 -1 -178 -26 -360 -57z"/>
 <path d="M2500 1403 c-1158 -194 -1650 -280 -1662 -291 -15 -12 -18 -32 -18 -107 0 -110 10 -125 83 -125 84 0 3360 550 3380 568 14 12 17 32 17 107 0 114 -9 125 -96 124 -32 -1 -799 -125 -1704 -276z"/>
 <path d="M70 1145 l0 -65 70 0 70 0 0 65 0 65 -70 0 -70 0 0 -65z"/>
 <path d="M430 1145 l0 -65 70 0 70 0 0 65 0 65 -70 0 -70 0 0 -65z"/>
 <path d="M4550 1145 l0 -65 70 0 70 0 0 65 0 65 -70 0 -70 0 0 -65z"/>
 <path d="M4910 1145 l0 -65 70 0 70 0 0 65 0 65 -70 0 -70 0 0 -65z"/>
 <path d="M70 650 l0 -210 70 0 70 0 0 210 0 210 -70 0 -70 0 0 -210z"/>
 <path d="M430 650 l0 -210 210 0 210 0 0 65 0 65 -140 0 -140 0 0 145 0 145 -70 0 -70 0 0 -210z"/>
 <path d="M4550 715 l0 -145 -140 0 -140 0 0 -65 0 -65 210 0 210 0 0 210 0 210 -70 0 -70 0 0 -145z"/>
 <path d="M4910 650 l0 -210 70 0 70 0 0 210 0 210 -70 0 -70 0 0 -210z"/>
 <path d="M1070 505 l0 -65 70 0 70 0 0 65 0 65 -70 0 -70 0 0 -65z"/>
 <path d="M3910 505 l0 -65 70 0 70 0 0 65 0 65 -70 0 -70 0 0 -65z"/>
 <path d="M70 145 l0 -75 70 0 70 0 0 75 0 75 -70 0 -70 0 0 -75z"/>
 <path d="M430 145 l0 -75 210 0 210 0 0 75 0 75 -210 0 -210 0 0 -75z"/>
 <path d="M1070 145 l0 -75 70 0 70 0 0 75 0 75 -70 0 -70 0 0 -75z"/>
 <path d="M3910 145 l0 -75 70 0 70 0 0 75 0 75 -70 0 -70 0 0 -75z"/>
 <path d="M4270 145 l0 -75 210 0 210 0 0 75 0 75 -210 0 -210 0 0 -75z"/>
 <path d="M4910 145 l0 -75 70 0 70 0 0 75 0 75 -70 0 -70 0 0 -75z"/>
 </g>
<g id="layer105" fill="#8b8b8b" stroke="none">
 <path d="M70 4985 l0 -65 70 0 70 0 0 65 0 65 -70 0 -70 0 0 -65z"/>
 <path d="M430 4985 l0 -65 70 0 70 0 0 65 0 65 -70 0 -70 0 0 -65z"/>
 <path d="M4550 4985 l0 -65 70 0 70 0 0 65 0 65 -70 0 -70 0 0 -65z"/>
 <path d="M4910 4985 l0 -65 70 0 70 0 0 65 0 65 -70 0 -70 0 0 -65z"/>
 <path d="M70 4490 l0 -210 70 0 70 0 0 210 0 210 -70 0 -70 0 0 -210z"/>
 <path d="M430 4490 l0 -210 70 0 70 0 0 210 0 210 -70 0 -70 0 0 -210z"/>
 <path d="M4550 4490 l0 -210 70 0 70 0 0 210 0 210 -70 0 -70 0 0 -210z"/>
 <path d="M4910 4490 l0 -210 70 0 70 0 0 210 0 210 -70 0 -70 0 0 -210z"/>
 <path d="M70 3985 l0 -75 70 0 70 0 0 75 0 75 -70 0 -70 0 0 -75z"/>
 <path d="M430 3985 l0 -75 70 0 70 0 0 75 0 75 -70 0 -70 0 0 -75z"/>
 <path d="M4550 3985 l0 -75 70 0 70 0 0 75 0 75 -70 0 -70 0 0 -75z"/>
 <path d="M4910 3985 l0 -75 70 0 70 0 0 75 0 75 -70 0 -70 0 0 -75z"/>
 <path d="M70 1145 l0 -65 70 0 70 0 0 65 0 65 -70 0 -70 0 0 -65z"/>
 <path d="M430 1145 l0 -65 70 0 70 0 0 65 0 65 -70 0 -70 0 0 -65z"/>
 <path d="M4550 1145 l0 -65 70 0 70 0 0 65 0 65 -70 0 -70 0 0 -65z"/>
 <path d="M4910 1145 l0 -65 70 0 70 0 0 65 0 65 -70 0 -70 0 0 -65z"/>
 <path d="M70 650 l0 -210 70 0 70 0 0 210 0 210 -70 0 -70 0 0 -210z"/>
 <path d="M430 650 l0 -210 210 0 210 0 0 65 0 65 -140 0 -140 0 0 145 0 145 -70 0 -70 0 0 -210z"/>
 <path d="M4550 715 l0 -145 -140 0 -140 0 0 -65 0 -65 210 0 210 0 0 210 0 210 -70 0 -70 0 0 -145z"/>
 <path d="M4910 650 l0 -210 70 0 70 0 0 210 0 210 -70 0 -70 0 0 -210z"/>
 <path d="M1070 505 l0 -65 70 0 70 0 0 65 0 65 -70 0 -70 0 0 -65z"/>
 <path d="M3910 505 l0 -65 70 0 70 0 0 65 0 65 -70 0 -70 0 0 -65z"/>
 <path d="M70 145 l0 -75 70 0 70 0 0 75 0 75 -70 0 -70 0 0 -75z"/>
 <path d="M430 145 l0 -75 210 0 210 0 0 75 0 75 -210 0 -210 0 0 -75z"/>
 <path d="M1070 145 l0 -75 70 0 70 0 0 75 0 75 -70 0 -70 0 0 -75z"/>
 <path d="M3910 145 l0 -75 70 0 70 0 0 75 0 75 -70 0 -70 0 0 -75z"/>
 <path d="M4270 145 l0 -75 210 0 210 0 0 75 0 75 -210 0 -210 0 0 -75z"/>
 <path d="M4910 145 l0 -75 70 0 70 0 0 75 0 75 -70 0 -70 0 0 -75z"/>
 </g>

</svg>